G04 #@! TF.GenerationSoftware,KiCad,Pcbnew,(6.0.7)*
G04 #@! TF.CreationDate,2022-12-27T15:36:50+11:00*
G04 #@! TF.ProjectId,esp32_esc,65737033-325f-4657-9363-2e6b69636164,rev?*
G04 #@! TF.SameCoordinates,Original*
G04 #@! TF.FileFunction,Soldermask,Bot*
G04 #@! TF.FilePolarity,Negative*
%FSLAX46Y46*%
G04 Gerber Fmt 4.6, Leading zero omitted, Abs format (unit mm)*
G04 Created by KiCad (PCBNEW (6.0.7)) date 2022-12-27 15:36:50*
%MOMM*%
%LPD*%
G01*
G04 APERTURE LIST*
G04 Aperture macros list*
%AMRoundRect*
0 Rectangle with rounded corners*
0 $1 Rounding radius*
0 $2 $3 $4 $5 $6 $7 $8 $9 X,Y pos of 4 corners*
0 Add a 4 corners polygon primitive as box body*
4,1,4,$2,$3,$4,$5,$6,$7,$8,$9,$2,$3,0*
0 Add four circle primitives for the rounded corners*
1,1,$1+$1,$2,$3*
1,1,$1+$1,$4,$5*
1,1,$1+$1,$6,$7*
1,1,$1+$1,$8,$9*
0 Add four rect primitives between the rounded corners*
20,1,$1+$1,$2,$3,$4,$5,0*
20,1,$1+$1,$4,$5,$6,$7,0*
20,1,$1+$1,$6,$7,$8,$9,0*
20,1,$1+$1,$8,$9,$2,$3,0*%
%AMRotRect*
0 Rectangle, with rotation*
0 The origin of the aperture is its center*
0 $1 length*
0 $2 width*
0 $3 Rotation angle, in degrees counterclockwise*
0 Add horizontal line*
21,1,$1,$2,0,0,$3*%
%AMFreePoly0*
4,1,13,0.080902,2.058779,0.100000,2.000000,0.100000,0.725000,0.587500,0.725000,0.587500,-0.725000,-0.587500,-0.725000,-0.587500,0.725000,-0.100000,0.725000,-0.100000,2.000000,-0.080902,2.058779,-0.030902,2.095106,0.030902,2.095106,0.080902,2.058779,0.080902,2.058779,$1*%
%AMFreePoly1*
4,1,32,7.000000,-2.500000,0.000000,-2.500000,0.000000,-2.495067,-0.156976,-2.495067,-0.468453,-2.455718,-0.772542,-2.377641,-1.064448,-2.262068,-1.339567,-2.110820,-1.593560,-1.926283,-1.822422,-1.711368,-2.022542,-1.469463,-2.190767,-1.204384,-2.324441,-0.920311,-2.421458,-0.621725,-2.480287,-0.313333,-2.500000,0.000000,-2.480287,0.313333,-2.421458,0.621725,-2.324441,0.920311,-2.190767,1.204384,
-2.022542,1.469463,-1.822422,1.711368,-1.593560,1.926283,-1.339567,2.110820,-1.064448,2.262068,-0.772542,2.377641,-0.468453,2.455718,-0.156976,2.495067,0.000000,2.495067,0.000000,2.500000,7.000000,2.500000,7.000000,-2.500000,7.000000,-2.500000,$1*%
G04 Aperture macros list end*
%ADD10RoundRect,0.237500X0.300000X0.237500X-0.300000X0.237500X-0.300000X-0.237500X0.300000X-0.237500X0*%
%ADD11FreePoly0,180.000000*%
%ADD12RotRect,2.000000X2.000000X255.000000*%
%ADD13C,2.000000*%
%ADD14R,1.600000X1.600000*%
%ADD15C,1.600000*%
%ADD16R,4.000000X4.000000*%
%ADD17FreePoly1,0.000000*%
%ADD18C,3.200000*%
%ADD19R,1.318000X1.318000*%
%ADD20C,1.318000*%
%ADD21RoundRect,0.250000X-0.750000X0.600000X-0.750000X-0.600000X0.750000X-0.600000X0.750000X0.600000X0*%
%ADD22O,2.000000X1.700000*%
%ADD23FreePoly1,180.000000*%
%ADD24RoundRect,0.250000X-0.725000X0.600000X-0.725000X-0.600000X0.725000X-0.600000X0.725000X0.600000X0*%
%ADD25O,1.950000X1.700000*%
%ADD26R,1.700000X1.700000*%
%ADD27O,1.700000X1.700000*%
%ADD28RotRect,1.600000X1.600000X300.000000*%
%ADD29RoundRect,0.250000X0.725000X-0.600000X0.725000X0.600000X-0.725000X0.600000X-0.725000X-0.600000X0*%
%ADD30C,2.400000*%
%ADD31O,2.400000X2.400000*%
%ADD32C,1.400000*%
%ADD33O,1.400000X1.400000*%
%ADD34RoundRect,0.250000X0.750000X-0.600000X0.750000X0.600000X-0.750000X0.600000X-0.750000X-0.600000X0*%
%ADD35RoundRect,0.250000X-0.450000X0.262500X-0.450000X-0.262500X0.450000X-0.262500X0.450000X0.262500X0*%
%ADD36RoundRect,0.250000X-0.262500X-0.450000X0.262500X-0.450000X0.262500X0.450000X-0.262500X0.450000X0*%
%ADD37R,1.905000X2.000000*%
%ADD38O,1.905000X2.000000*%
%ADD39RoundRect,0.250000X-0.475000X0.337500X-0.475000X-0.337500X0.475000X-0.337500X0.475000X0.337500X0*%
%ADD40RoundRect,0.250000X0.337500X0.475000X-0.337500X0.475000X-0.337500X-0.475000X0.337500X-0.475000X0*%
%ADD41C,3.000000*%
%ADD42RoundRect,0.237500X-0.237500X0.300000X-0.237500X-0.300000X0.237500X-0.300000X0.237500X0.300000X0*%
%ADD43FreePoly0,270.000000*%
%ADD44RoundRect,0.250000X0.450000X-0.262500X0.450000X0.262500X-0.450000X0.262500X-0.450000X-0.262500X0*%
%ADD45RoundRect,0.250000X0.262500X0.450000X-0.262500X0.450000X-0.262500X-0.450000X0.262500X-0.450000X0*%
%ADD46RoundRect,0.237500X-0.300000X-0.237500X0.300000X-0.237500X0.300000X0.237500X-0.300000X0.237500X0*%
%ADD47FreePoly0,0.000000*%
G04 APERTURE END LIST*
D10*
X58753000Y-60196000D03*
D11*
X58949500Y-58418000D03*
D10*
X57028000Y-60196000D03*
D11*
X56874500Y-58418000D03*
D12*
X61214000Y-102362000D03*
D13*
X59272857Y-109606444D03*
D14*
X41783000Y-100340349D03*
D15*
X41783000Y-105340349D03*
D16*
X80264000Y-44958000D03*
D17*
X43482500Y-92710000D03*
D18*
X116500000Y-37500000D03*
D19*
X96560000Y-73687500D03*
D20*
X94020000Y-73687500D03*
X91480000Y-73687500D03*
X88940000Y-73687500D03*
X88940000Y-81307500D03*
X91480000Y-81307500D03*
X94020000Y-81307500D03*
X96560000Y-81307500D03*
D21*
X49068000Y-38100000D03*
D22*
X49068000Y-40600000D03*
D14*
X109728000Y-58282651D03*
D15*
X109728000Y-53282651D03*
D23*
X113870500Y-104775000D03*
D24*
X59773000Y-46990000D03*
D25*
X59773000Y-49490000D03*
X59773000Y-51990000D03*
D26*
X98806000Y-38100000D03*
D27*
X96266000Y-38100000D03*
X93726000Y-38100000D03*
D23*
X84787500Y-104775000D03*
D18*
X43500000Y-37500000D03*
D17*
X43180000Y-110490000D03*
D28*
X115844000Y-78385273D03*
D15*
X118344000Y-82715400D03*
D24*
X65488000Y-46990000D03*
D25*
X65488000Y-49490000D03*
X65488000Y-51990000D03*
D29*
X116540000Y-54356000D03*
D25*
X116540000Y-51856000D03*
X116540000Y-49356000D03*
X116540000Y-46856000D03*
X116540000Y-44356000D03*
D18*
X116500000Y-116500000D03*
D30*
X116078000Y-74422000D03*
D31*
X116078000Y-59182000D03*
D19*
X83820000Y-73660000D03*
D20*
X81280000Y-73660000D03*
X78740000Y-73660000D03*
X76200000Y-73660000D03*
X76200000Y-81280000D03*
X78740000Y-81280000D03*
X81280000Y-81280000D03*
X83820000Y-81280000D03*
D17*
X49762500Y-116500000D03*
D24*
X48943000Y-47070000D03*
D25*
X48943000Y-49570000D03*
X48943000Y-52070000D03*
D23*
X100027500Y-104775000D03*
D19*
X109474000Y-73660000D03*
D20*
X106934000Y-73660000D03*
X104394000Y-73660000D03*
X101854000Y-73660000D03*
X101854000Y-81280000D03*
X104394000Y-81280000D03*
X106934000Y-81280000D03*
X109474000Y-81280000D03*
D28*
X115844000Y-87115642D03*
D15*
X118344000Y-91445769D03*
D24*
X43180000Y-59190000D03*
D25*
X43180000Y-61690000D03*
X43180000Y-64190000D03*
D32*
X42418000Y-74406000D03*
D33*
X42418000Y-72506000D03*
D17*
X43482500Y-86995000D03*
D19*
X70612000Y-73687500D03*
D20*
X68072000Y-73687500D03*
X65532000Y-73687500D03*
X62992000Y-73687500D03*
X62992000Y-81307500D03*
X65532000Y-81307500D03*
X68072000Y-81307500D03*
X70612000Y-81307500D03*
D18*
X43500000Y-116500000D03*
D24*
X43180000Y-42752000D03*
D25*
X43180000Y-45252000D03*
X43180000Y-47752000D03*
X43180000Y-50252000D03*
X43180000Y-52752000D03*
D34*
X109220000Y-48260000D03*
D22*
X109220000Y-45760000D03*
D28*
X115844000Y-95751642D03*
D15*
X118344000Y-100081769D03*
D24*
X54358000Y-47070000D03*
D25*
X54358000Y-49570000D03*
X54358000Y-52070000D03*
D35*
X67310000Y-83185000D03*
X67310000Y-85010000D03*
D36*
X66905500Y-37846000D03*
X68730500Y-37846000D03*
D37*
X104140000Y-95590000D03*
D38*
X106680000Y-95590000D03*
X109220000Y-95590000D03*
D39*
X67310000Y-47222500D03*
X67310000Y-49297500D03*
D40*
X51837500Y-62865000D03*
X49762500Y-62865000D03*
D35*
X53340000Y-76915000D03*
X53340000Y-78740000D03*
D37*
X109220000Y-108880000D03*
D38*
X106680000Y-108880000D03*
X104140000Y-108880000D03*
D36*
X56411500Y-41910000D03*
X58236500Y-41910000D03*
D39*
X56515000Y-47222500D03*
X56515000Y-49297500D03*
D35*
X41910000Y-76960000D03*
X41910000Y-78785000D03*
D37*
X88900000Y-95590000D03*
D38*
X91440000Y-95590000D03*
X93980000Y-95590000D03*
D41*
X45212000Y-98558000D03*
X45212000Y-105658000D03*
D42*
X67562000Y-70025000D03*
D43*
X65784000Y-69828500D03*
D42*
X67562000Y-71750000D03*
D43*
X65784000Y-71903500D03*
D35*
X53340000Y-80367500D03*
X53340000Y-82192500D03*
D40*
X51837500Y-57785000D03*
X49762500Y-57785000D03*
D44*
X118618000Y-76858500D03*
X118618000Y-75033500D03*
D42*
X90930000Y-70279000D03*
D43*
X89152000Y-70082500D03*
D42*
X90930000Y-72004000D03*
D43*
X89152000Y-72157500D03*
D39*
X51435000Y-47222500D03*
X51435000Y-49297500D03*
D37*
X66675000Y-108880000D03*
D38*
X64135000Y-108880000D03*
X61595000Y-108880000D03*
D45*
X64862500Y-44450000D03*
X63037500Y-44450000D03*
X64412500Y-38735000D03*
X62587500Y-38735000D03*
D40*
X51837500Y-60325000D03*
X49762500Y-60325000D03*
D46*
X82576500Y-99187000D03*
D47*
X82380000Y-100965000D03*
D46*
X84301500Y-99187000D03*
D47*
X84455000Y-100965000D03*
D37*
X78740000Y-108880000D03*
D38*
X76200000Y-108880000D03*
X73660000Y-108880000D03*
D35*
X63500000Y-83185000D03*
X63500000Y-85010000D03*
X41910000Y-80770000D03*
X41910000Y-82595000D03*
D42*
X75182000Y-70533000D03*
D43*
X73404000Y-70336500D03*
D42*
X75182000Y-72258000D03*
D43*
X73404000Y-72411500D03*
D37*
X53340000Y-103505000D03*
D38*
X55880000Y-103505000D03*
X58420000Y-103505000D03*
D40*
X48662500Y-65278000D03*
X46587500Y-65278000D03*
D45*
X61872500Y-41910000D03*
X60047500Y-41910000D03*
D42*
X104138000Y-70025000D03*
D43*
X102360000Y-69828500D03*
D42*
X104138000Y-71750000D03*
D43*
X102360000Y-71903500D03*
D45*
X68222500Y-44450000D03*
X66397500Y-44450000D03*
D37*
X73660000Y-95590000D03*
D38*
X76200000Y-95590000D03*
X78740000Y-95590000D03*
D45*
X68730500Y-39878000D03*
X66905500Y-39878000D03*
D46*
X98605000Y-99060000D03*
D47*
X98408500Y-100838000D03*
D46*
X100330000Y-99060000D03*
D47*
X100483500Y-100838000D03*
D36*
X59031500Y-38735000D03*
X60856500Y-38735000D03*
D39*
X61595000Y-47222500D03*
X61595000Y-49297500D03*
D37*
X93980000Y-108880000D03*
D38*
X91440000Y-108880000D03*
X88900000Y-108880000D03*
M02*
