G04 #@! TF.GenerationSoftware,KiCad,Pcbnew,(6.0.7)*
G04 #@! TF.CreationDate,2022-12-27T15:36:50+11:00*
G04 #@! TF.ProjectId,esp32_esc,65737033-325f-4657-9363-2e6b69636164,rev?*
G04 #@! TF.SameCoordinates,Original*
G04 #@! TF.FileFunction,Paste,Bot*
G04 #@! TF.FilePolarity,Positive*
%FSLAX46Y46*%
G04 Gerber Fmt 4.6, Leading zero omitted, Abs format (unit mm)*
G04 Created by KiCad (PCBNEW (6.0.7)) date 2022-12-27 15:36:50*
%MOMM*%
%LPD*%
G01*
G04 APERTURE LIST*
G04 Aperture macros list*
%AMRoundRect*
0 Rectangle with rounded corners*
0 $1 Rounding radius*
0 $2 $3 $4 $5 $6 $7 $8 $9 X,Y pos of 4 corners*
0 Add a 4 corners polygon primitive as box body*
4,1,4,$2,$3,$4,$5,$6,$7,$8,$9,$2,$3,0*
0 Add four circle primitives for the rounded corners*
1,1,$1+$1,$2,$3*
1,1,$1+$1,$4,$5*
1,1,$1+$1,$6,$7*
1,1,$1+$1,$8,$9*
0 Add four rect primitives between the rounded corners*
20,1,$1+$1,$2,$3,$4,$5,0*
20,1,$1+$1,$4,$5,$6,$7,0*
20,1,$1+$1,$6,$7,$8,$9,0*
20,1,$1+$1,$8,$9,$2,$3,0*%
%AMFreePoly0*
4,1,13,0.080902,2.058779,0.100000,2.000000,0.100000,0.725000,0.587500,0.725000,0.587500,-0.725000,-0.587500,-0.725000,-0.587500,0.725000,-0.100000,0.725000,-0.100000,2.000000,-0.080902,2.058779,-0.030902,2.095106,0.030902,2.095106,0.080902,2.058779,0.080902,2.058779,$1*%
G04 Aperture macros list end*
%ADD10RoundRect,0.237500X0.300000X0.237500X-0.300000X0.237500X-0.300000X-0.237500X0.300000X-0.237500X0*%
%ADD11FreePoly0,180.000000*%
%ADD12RoundRect,0.250000X-0.450000X0.262500X-0.450000X-0.262500X0.450000X-0.262500X0.450000X0.262500X0*%
%ADD13RoundRect,0.250000X-0.262500X-0.450000X0.262500X-0.450000X0.262500X0.450000X-0.262500X0.450000X0*%
%ADD14RoundRect,0.250000X-0.475000X0.337500X-0.475000X-0.337500X0.475000X-0.337500X0.475000X0.337500X0*%
%ADD15RoundRect,0.250000X0.337500X0.475000X-0.337500X0.475000X-0.337500X-0.475000X0.337500X-0.475000X0*%
%ADD16RoundRect,0.237500X-0.237500X0.300000X-0.237500X-0.300000X0.237500X-0.300000X0.237500X0.300000X0*%
%ADD17FreePoly0,270.000000*%
%ADD18RoundRect,0.250000X0.450000X-0.262500X0.450000X0.262500X-0.450000X0.262500X-0.450000X-0.262500X0*%
%ADD19RoundRect,0.250000X0.262500X0.450000X-0.262500X0.450000X-0.262500X-0.450000X0.262500X-0.450000X0*%
%ADD20RoundRect,0.237500X-0.300000X-0.237500X0.300000X-0.237500X0.300000X0.237500X-0.300000X0.237500X0*%
%ADD21FreePoly0,0.000000*%
G04 APERTURE END LIST*
D10*
X58753000Y-60196000D03*
D11*
X58949500Y-58418000D03*
D10*
X57028000Y-60196000D03*
D11*
X56874500Y-58418000D03*
D12*
X67310000Y-83185000D03*
X67310000Y-85010000D03*
D13*
X66905500Y-37846000D03*
X68730500Y-37846000D03*
D14*
X67310000Y-47222500D03*
X67310000Y-49297500D03*
D15*
X51837500Y-62865000D03*
X49762500Y-62865000D03*
D12*
X53340000Y-76915000D03*
X53340000Y-78740000D03*
D13*
X56411500Y-41910000D03*
X58236500Y-41910000D03*
D14*
X56515000Y-47222500D03*
X56515000Y-49297500D03*
D12*
X41910000Y-76960000D03*
X41910000Y-78785000D03*
D16*
X67562000Y-70025000D03*
D17*
X65784000Y-69828500D03*
D16*
X67562000Y-71750000D03*
D17*
X65784000Y-71903500D03*
D12*
X53340000Y-80367500D03*
X53340000Y-82192500D03*
D15*
X51837500Y-57785000D03*
X49762500Y-57785000D03*
D18*
X118618000Y-76858500D03*
X118618000Y-75033500D03*
D16*
X90930000Y-70279000D03*
D17*
X89152000Y-70082500D03*
D16*
X90930000Y-72004000D03*
D17*
X89152000Y-72157500D03*
D14*
X51435000Y-47222500D03*
X51435000Y-49297500D03*
D19*
X64862500Y-44450000D03*
X63037500Y-44450000D03*
X64412500Y-38735000D03*
X62587500Y-38735000D03*
D15*
X51837500Y-60325000D03*
X49762500Y-60325000D03*
D20*
X82576500Y-99187000D03*
D21*
X82380000Y-100965000D03*
D20*
X84301500Y-99187000D03*
D21*
X84455000Y-100965000D03*
D12*
X63500000Y-83185000D03*
X63500000Y-85010000D03*
X41910000Y-80770000D03*
X41910000Y-82595000D03*
D16*
X75182000Y-70533000D03*
D17*
X73404000Y-70336500D03*
D16*
X75182000Y-72258000D03*
D17*
X73404000Y-72411500D03*
D15*
X48662500Y-65278000D03*
X46587500Y-65278000D03*
D19*
X61872500Y-41910000D03*
X60047500Y-41910000D03*
D16*
X104138000Y-70025000D03*
D17*
X102360000Y-69828500D03*
D16*
X104138000Y-71750000D03*
D17*
X102360000Y-71903500D03*
D19*
X68222500Y-44450000D03*
X66397500Y-44450000D03*
X68730500Y-39878000D03*
X66905500Y-39878000D03*
D20*
X98605000Y-99060000D03*
D21*
X98408500Y-100838000D03*
D20*
X100330000Y-99060000D03*
D21*
X100483500Y-100838000D03*
D13*
X59031500Y-38735000D03*
X60856500Y-38735000D03*
D14*
X61595000Y-47222500D03*
X61595000Y-49297500D03*
M02*
