%TF.GenerationSoftware,KiCad,Pcbnew,(6.0.7)*%
%TF.CreationDate,2022-12-27T15:37:00+11:00*%
%TF.ProjectId,esp32_esc,65737033-325f-4657-9363-2e6b69636164,rev?*%
%TF.SameCoordinates,Original*%
%TF.FileFunction,Drillmap*%
%TF.FilePolarity,Positive*%
%FSLAX45Y45*%
G04 Gerber Fmt 4.5, Leading zero omitted, Abs format (unit mm)*
G04 Created by KiCad (PCBNEW (6.0.7)) date 2022-12-27 15:37:00*
%MOMM*%
%LPD*%
G01*
G04 APERTURE LIST*
%ADD10C,0.050000*%
%ADD11C,0.200000*%
%ADD12C,0.040000*%
%ADD13C,0.070000*%
%ADD14C,0.080000*%
%ADD15C,0.081000*%
%ADD16C,0.095000*%
%ADD17C,0.100000*%
%ADD18C,0.110000*%
%ADD19C,0.120000*%
%ADD20C,0.150000*%
%ADD21C,0.350000*%
G04 APERTURE END LIST*
D10*
X4200000Y-3400000D02*
G75*
G03*
X4000000Y-3600000I0J-200000D01*
G01*
X4200000Y-12000000D02*
X11800000Y-12000000D01*
X11800000Y-12000000D02*
G75*
G03*
X12000000Y-11800000I0J200000D01*
G01*
X12000000Y-11800000D02*
X12000000Y-3600000D01*
X12000000Y-3600000D02*
G75*
G03*
X11800000Y-3400000I-200000J0D01*
G01*
X4000000Y-11800000D02*
X4000000Y-3600000D01*
X11800000Y-3400000D02*
X4200000Y-3400000D01*
X4000000Y-11800000D02*
G75*
G03*
X4200000Y-12000000I200000J0D01*
G01*
D11*
D12*
X4094800Y-7549200D02*
X4134800Y-7589200D01*
X4134800Y-7549200D02*
X4094800Y-7589200D01*
X4348800Y-6888800D02*
X4388800Y-6928800D01*
X4388800Y-6888800D02*
X4348800Y-6928800D01*
X4348800Y-7854000D02*
X4388800Y-7894000D01*
X4388800Y-7854000D02*
X4348800Y-7894000D01*
X4348800Y-8311200D02*
X4388800Y-8351200D01*
X4388800Y-8311200D02*
X4348800Y-8351200D01*
X4475800Y-4348800D02*
X4515800Y-4388800D01*
X4515800Y-4348800D02*
X4475800Y-4388800D01*
X4475800Y-4552000D02*
X4515800Y-4592000D01*
X4515800Y-4552000D02*
X4475800Y-4592000D01*
X4526600Y-4983800D02*
X4566600Y-5023800D01*
X4566600Y-4983800D02*
X4526600Y-5023800D01*
X4580000Y-6380000D02*
X4620000Y-6420000D01*
X4620000Y-6380000D02*
X4580000Y-6420000D01*
X4615500Y-5568000D02*
X4655500Y-5608000D01*
X4655500Y-5568000D02*
X4615500Y-5608000D01*
X4691375Y-7591625D02*
X4731375Y-7631625D01*
X4731375Y-7591625D02*
X4691375Y-7631625D01*
X4742500Y-5758500D02*
X4782500Y-5798500D01*
X4782500Y-5758500D02*
X4742500Y-5798500D01*
X4742500Y-6012500D02*
X4782500Y-6052500D01*
X4782500Y-6012500D02*
X4742500Y-6052500D01*
X4742500Y-6266500D02*
X4782500Y-6306500D01*
X4782500Y-6266500D02*
X4742500Y-6306500D01*
X4882200Y-6888800D02*
X4922200Y-6928800D01*
X4922200Y-6888800D02*
X4882200Y-6928800D01*
X4933000Y-4348800D02*
X4973000Y-4388800D01*
X4973000Y-4348800D02*
X4933000Y-4388800D01*
X5034600Y-5568000D02*
X5074600Y-5608000D01*
X5074600Y-5568000D02*
X5034600Y-5608000D01*
X5060000Y-3840800D02*
X5100000Y-3880800D01*
X5100000Y-3840800D02*
X5060000Y-3880800D01*
X5060000Y-4196400D02*
X5100000Y-4236400D01*
X5100000Y-4196400D02*
X5060000Y-4236400D01*
X5060000Y-6787200D02*
X5100000Y-6827200D01*
X5100000Y-6787200D02*
X5060000Y-6827200D01*
X5085400Y-6533200D02*
X5125400Y-6573200D01*
X5125400Y-6533200D02*
X5085400Y-6573200D01*
X5123500Y-8298500D02*
X5163500Y-8338500D01*
X5163500Y-8298500D02*
X5123500Y-8338500D01*
X5145513Y-7990313D02*
X5185513Y-8030313D01*
X5185513Y-7990313D02*
X5145513Y-8030313D01*
X5161600Y-8158800D02*
X5201600Y-8198800D01*
X5201600Y-8158800D02*
X5161600Y-8198800D01*
X5163750Y-6266500D02*
X5203750Y-6306500D01*
X5203750Y-6266500D02*
X5163750Y-6306500D01*
X5326700Y-9530400D02*
X5366700Y-9570400D01*
X5366700Y-9530400D02*
X5326700Y-9570400D01*
X5364800Y-6787200D02*
X5404800Y-6827200D01*
X5404800Y-6787200D02*
X5364800Y-6827200D01*
X5364800Y-7549200D02*
X5404800Y-7589200D01*
X5404800Y-7549200D02*
X5364800Y-7589200D01*
X5466400Y-4348800D02*
X5506400Y-4388800D01*
X5506400Y-4348800D02*
X5466400Y-4388800D01*
X5568000Y-5771200D02*
X5608000Y-5811200D01*
X5608000Y-5771200D02*
X5568000Y-5811200D01*
X5580700Y-5631500D02*
X5620700Y-5671500D01*
X5620700Y-5631500D02*
X5580700Y-5671500D01*
X5640450Y-9378000D02*
X5680450Y-9418000D01*
X5680450Y-9378000D02*
X5640450Y-9418000D01*
X5695000Y-8298500D02*
X5735000Y-8338500D01*
X5735000Y-8298500D02*
X5695000Y-8338500D01*
X5695000Y-9822500D02*
X5735000Y-9862500D01*
X5735000Y-9822500D02*
X5695000Y-9862500D01*
X5758500Y-3853500D02*
X5798500Y-3893500D01*
X5798500Y-3853500D02*
X5758500Y-3893500D01*
X5822000Y-7142800D02*
X5862000Y-7182800D01*
X5862000Y-7142800D02*
X5822000Y-7182800D01*
X5834700Y-8260400D02*
X5874700Y-8300400D01*
X5874700Y-8260400D02*
X5834700Y-8300400D01*
X5949000Y-6584000D02*
X5989000Y-6624000D01*
X5989000Y-6584000D02*
X5949000Y-6624000D01*
X5974400Y-5618800D02*
X6014400Y-5658800D01*
X6014400Y-5618800D02*
X5974400Y-5658800D01*
X6025200Y-6330000D02*
X6065200Y-6370000D01*
X6065200Y-6330000D02*
X6025200Y-6370000D01*
X6076000Y-7854000D02*
X6116000Y-7894000D01*
X6116000Y-7854000D02*
X6076000Y-7894000D01*
X6126800Y-4348800D02*
X6166800Y-4388800D01*
X6166800Y-4348800D02*
X6126800Y-4388800D01*
X6139500Y-7244400D02*
X6179500Y-7284400D01*
X6179500Y-7244400D02*
X6139500Y-7284400D01*
X6174290Y-3974372D02*
X6214290Y-4014372D01*
X6214290Y-3974372D02*
X6174290Y-4014372D01*
X6280000Y-7580000D02*
X6320000Y-7620000D01*
X6320000Y-7580000D02*
X6280000Y-7620000D01*
X6280000Y-7680000D02*
X6320000Y-7720000D01*
X6320000Y-7680000D02*
X6280000Y-7720000D01*
X6280000Y-7780000D02*
X6320000Y-7820000D01*
X6320000Y-7780000D02*
X6280000Y-7820000D01*
X6317300Y-8730300D02*
X6357300Y-8770300D01*
X6357300Y-8730300D02*
X6317300Y-8770300D01*
X6330000Y-6787200D02*
X6370000Y-6827200D01*
X6370000Y-6787200D02*
X6330000Y-6827200D01*
X6362525Y-5852025D02*
X6402525Y-5892025D01*
X6402525Y-5852025D02*
X6362525Y-5892025D01*
X6363700Y-6239500D02*
X6403700Y-6279500D01*
X6403700Y-6239500D02*
X6363700Y-6279500D01*
X6363700Y-6631600D02*
X6403700Y-6671600D01*
X6403700Y-6631600D02*
X6363700Y-6671600D01*
X6380800Y-5390200D02*
X6420800Y-5430200D01*
X6420800Y-5390200D02*
X6380800Y-5430200D01*
X6406200Y-4298000D02*
X6446200Y-4338000D01*
X6446200Y-4298000D02*
X6406200Y-4338000D01*
X6431600Y-3713800D02*
X6471600Y-3753800D01*
X6471600Y-3713800D02*
X6431600Y-3753800D01*
X6457000Y-8603300D02*
X6497000Y-8643300D01*
X6497000Y-8603300D02*
X6457000Y-8643300D01*
X6459077Y-8260100D02*
X6499077Y-8300100D01*
X6499077Y-8260100D02*
X6459077Y-8300100D01*
X6495929Y-3828929D02*
X6535929Y-3868929D01*
X6535929Y-3828929D02*
X6495929Y-3868929D01*
X6524512Y-4047941D02*
X6564512Y-4087941D01*
X6564512Y-4047941D02*
X6524512Y-4087941D01*
X6533200Y-6711000D02*
X6573200Y-6751000D01*
X6573200Y-6711000D02*
X6533200Y-6751000D01*
X6558600Y-5936300D02*
X6598600Y-5976300D01*
X6598600Y-5936300D02*
X6558600Y-5976300D01*
X6617700Y-6137900D02*
X6657700Y-6177900D01*
X6657700Y-6137900D02*
X6617700Y-6177900D01*
X6617700Y-6530000D02*
X6657700Y-6570000D01*
X6657700Y-6530000D02*
X6617700Y-6570000D01*
X6660200Y-3637600D02*
X6700200Y-3677600D01*
X6700200Y-3637600D02*
X6660200Y-3677600D01*
X6672900Y-8692200D02*
X6712900Y-8732200D01*
X6712900Y-8692200D02*
X6672900Y-8732200D01*
X6910847Y-4359131D02*
X6950847Y-4399131D01*
X6950847Y-4359131D02*
X6910847Y-4399131D01*
X6914200Y-6711000D02*
X6954200Y-6751000D01*
X6954200Y-6711000D02*
X6914200Y-6751000D01*
X7015800Y-6482400D02*
X7055800Y-6522400D01*
X7055800Y-6482400D02*
X7015800Y-6522400D01*
X7028500Y-4171000D02*
X7068500Y-4211000D01*
X7068500Y-4171000D02*
X7028500Y-4211000D01*
X7041200Y-4526600D02*
X7081200Y-4566600D01*
X7081200Y-4526600D02*
X7041200Y-4566600D01*
X7041200Y-5949000D02*
X7081200Y-5989000D01*
X7081200Y-5949000D02*
X7041200Y-5989000D01*
X7041200Y-6965000D02*
X7081200Y-7005000D01*
X7081200Y-6965000D02*
X7041200Y-7005000D01*
X7092571Y-5186429D02*
X7132571Y-5226429D01*
X7132571Y-5186429D02*
X7092571Y-5226429D01*
X7099175Y-4241676D02*
X7139175Y-4281676D01*
X7139175Y-4241676D02*
X7099175Y-4281676D01*
X7142800Y-5504550D02*
X7182800Y-5544550D01*
X7182800Y-5504550D02*
X7142800Y-5544550D01*
X7142800Y-7549200D02*
X7182800Y-7589200D01*
X7182800Y-7549200D02*
X7142800Y-7589200D01*
X7142800Y-7650800D02*
X7182800Y-7690800D01*
X7182800Y-7650800D02*
X7142800Y-7690800D01*
X7142800Y-7752400D02*
X7182800Y-7792400D01*
X7182800Y-7752400D02*
X7142800Y-7792400D01*
X7144700Y-6237650D02*
X7184700Y-6277650D01*
X7184700Y-6237650D02*
X7144700Y-6277650D01*
X7246300Y-6491650D02*
X7286300Y-6531650D01*
X7286300Y-6491650D02*
X7246300Y-6531650D01*
X7422200Y-4145600D02*
X7462200Y-4185600D01*
X7462200Y-4145600D02*
X7422200Y-4185600D01*
X7447600Y-3739200D02*
X7487600Y-3779200D01*
X7487600Y-3739200D02*
X7447600Y-3779200D01*
X7447600Y-4628200D02*
X7487600Y-4668200D01*
X7487600Y-4628200D02*
X7447600Y-4668200D01*
X7447600Y-4755200D02*
X7487600Y-4795200D01*
X7487600Y-4755200D02*
X7447600Y-4795200D01*
X7473000Y-3866200D02*
X7513000Y-3906200D01*
X7513000Y-3866200D02*
X7473000Y-3906200D01*
X7498400Y-5974400D02*
X7538400Y-6014400D01*
X7538400Y-5974400D02*
X7498400Y-6014400D01*
X7498400Y-7650800D02*
X7538400Y-7690800D01*
X7538400Y-7650800D02*
X7498400Y-7690800D01*
X7498400Y-7803200D02*
X7538400Y-7843200D01*
X7538400Y-7803200D02*
X7498400Y-7843200D01*
X7498400Y-7955600D02*
X7538400Y-7995600D01*
X7538400Y-7955600D02*
X7498400Y-7995600D01*
X7536500Y-5060000D02*
X7576500Y-5100000D01*
X7576500Y-5060000D02*
X7536500Y-5100000D01*
X7549200Y-5669600D02*
X7589200Y-5709600D01*
X7589200Y-5669600D02*
X7549200Y-5709600D01*
X7549200Y-8590600D02*
X7589200Y-8630600D01*
X7589200Y-8590600D02*
X7549200Y-8630600D01*
X7551100Y-6237650D02*
X7591100Y-6277650D01*
X7591100Y-6237650D02*
X7551100Y-6277650D01*
X7652700Y-6491650D02*
X7692700Y-6531650D01*
X7692700Y-6491650D02*
X7652700Y-6531650D01*
X7701600Y-4958400D02*
X7741600Y-4998400D01*
X7741600Y-4958400D02*
X7701600Y-4998400D01*
X7701600Y-5669600D02*
X7741600Y-5709600D01*
X7741600Y-5669600D02*
X7701600Y-5709600D01*
X7727000Y-5250500D02*
X7767000Y-5290500D01*
X7767000Y-5250500D02*
X7727000Y-5290500D01*
X7752400Y-6304600D02*
X7792400Y-6344600D01*
X7792400Y-6304600D02*
X7752400Y-6344600D01*
X7854000Y-5669600D02*
X7894000Y-5709600D01*
X7894000Y-5669600D02*
X7854000Y-5709600D01*
X7879400Y-8616000D02*
X7919400Y-8656000D01*
X7919400Y-8616000D02*
X7879400Y-8656000D01*
X7904800Y-4094800D02*
X7944800Y-4134800D01*
X7944800Y-4094800D02*
X7904800Y-4134800D01*
X7931800Y-6609400D02*
X7971800Y-6649400D01*
X7971800Y-6609400D02*
X7931800Y-6649400D01*
X8031800Y-8641400D02*
X8071800Y-8681400D01*
X8071800Y-8641400D02*
X8031800Y-8681400D01*
X8033400Y-6863400D02*
X8073400Y-6903400D01*
X8073400Y-6863400D02*
X8033400Y-6903400D01*
X8184200Y-9771700D02*
X8224200Y-9811700D01*
X8224200Y-9771700D02*
X8184200Y-9811700D01*
X8260400Y-4018600D02*
X8300400Y-4058600D01*
X8300400Y-4018600D02*
X8260400Y-4058600D01*
X8260400Y-5161600D02*
X8300400Y-5201600D01*
X8300400Y-5161600D02*
X8260400Y-5201600D01*
X8298500Y-9759000D02*
X8338500Y-9799000D01*
X8338500Y-9759000D02*
X8298500Y-9799000D01*
X8301700Y-6608600D02*
X8341700Y-6648600D01*
X8341700Y-6608600D02*
X8301700Y-6648600D01*
X8362000Y-3917000D02*
X8402000Y-3957000D01*
X8402000Y-3917000D02*
X8362000Y-3957000D01*
X8362000Y-6228400D02*
X8402000Y-6268400D01*
X8402000Y-6228400D02*
X8362000Y-6268400D01*
X8362000Y-7549200D02*
X8402000Y-7589200D01*
X8402000Y-7549200D02*
X8362000Y-7589200D01*
X8362000Y-7701600D02*
X8402000Y-7741600D01*
X8402000Y-7701600D02*
X8362000Y-7741600D01*
X8362000Y-7854000D02*
X8402000Y-7894000D01*
X8402000Y-7854000D02*
X8362000Y-7894000D01*
X8403300Y-6862600D02*
X8443300Y-6902600D01*
X8443300Y-6862600D02*
X8403300Y-6902600D01*
X8463600Y-3815400D02*
X8503600Y-3855400D01*
X8503600Y-3815400D02*
X8463600Y-3855400D01*
X8463600Y-4552000D02*
X8503600Y-4592000D01*
X8503600Y-4552000D02*
X8463600Y-4592000D01*
X8463600Y-4704400D02*
X8503600Y-4744400D01*
X8503600Y-4704400D02*
X8463600Y-4744400D01*
X8514400Y-5720400D02*
X8554400Y-5760400D01*
X8554400Y-5720400D02*
X8514400Y-5760400D01*
X8552500Y-5250500D02*
X8592500Y-5290500D01*
X8592500Y-5250500D02*
X8552500Y-5290500D01*
X8616000Y-4247200D02*
X8656000Y-4287200D01*
X8656000Y-4247200D02*
X8616000Y-4287200D01*
X8616000Y-6507800D02*
X8656000Y-6547800D01*
X8656000Y-6507800D02*
X8616000Y-6547800D01*
X8616000Y-7498400D02*
X8656000Y-7538400D01*
X8656000Y-7498400D02*
X8616000Y-7538400D01*
X8679500Y-5314000D02*
X8719500Y-5354000D01*
X8719500Y-5314000D02*
X8679500Y-5354000D01*
X8679500Y-9629750D02*
X8719500Y-9669750D01*
X8719500Y-9629750D02*
X8679500Y-9669750D01*
X8692200Y-4958400D02*
X8732200Y-4998400D01*
X8732200Y-4958400D02*
X8692200Y-4998400D01*
X8717600Y-6838000D02*
X8757600Y-6878000D01*
X8757600Y-6838000D02*
X8717600Y-6878000D01*
X8717600Y-7092000D02*
X8757600Y-7132000D01*
X8757600Y-7092000D02*
X8717600Y-7132000D01*
X8743000Y-3853500D02*
X8783000Y-3893500D01*
X8783000Y-3853500D02*
X8743000Y-3893500D01*
X8768400Y-4755200D02*
X8808400Y-4795200D01*
X8808400Y-4755200D02*
X8768400Y-4795200D01*
X8768400Y-5974400D02*
X8808400Y-6014400D01*
X8808400Y-5974400D02*
X8768400Y-6014400D01*
X8781100Y-3713800D02*
X8821100Y-3753800D01*
X8821100Y-3713800D02*
X8781100Y-3753800D01*
X8806500Y-5021900D02*
X8846500Y-5061900D01*
X8846500Y-5021900D02*
X8806500Y-5061900D01*
X8862362Y-8623639D02*
X8902362Y-8663639D01*
X8902362Y-8623639D02*
X8862362Y-8663639D01*
X8870000Y-5695000D02*
X8910000Y-5735000D01*
X8910000Y-5695000D02*
X8870000Y-5735000D01*
X8870000Y-6507800D02*
X8910000Y-6547800D01*
X8910000Y-6507800D02*
X8870000Y-6547800D01*
X8997000Y-6330000D02*
X9037000Y-6370000D01*
X9037000Y-6330000D02*
X8997000Y-6370000D01*
X9104000Y-6609400D02*
X9144000Y-6649400D01*
X9144000Y-6609400D02*
X9104000Y-6649400D01*
X9124000Y-3866200D02*
X9164000Y-3906200D01*
X9164000Y-3866200D02*
X9124000Y-3906200D01*
X9124000Y-3980500D02*
X9164000Y-4020500D01*
X9164000Y-3980500D02*
X9124000Y-4020500D01*
X9136700Y-5136200D02*
X9176700Y-5176200D01*
X9176700Y-5136200D02*
X9136700Y-5176200D01*
X9149400Y-5263200D02*
X9189400Y-5303200D01*
X9189400Y-5263200D02*
X9149400Y-5303200D01*
X9162100Y-5453700D02*
X9202100Y-5493700D01*
X9202100Y-5453700D02*
X9162100Y-5493700D01*
X9187500Y-4361500D02*
X9227500Y-4401500D01*
X9227500Y-4361500D02*
X9187500Y-4401500D01*
X9205600Y-6863400D02*
X9245600Y-6903400D01*
X9245600Y-6863400D02*
X9205600Y-6903400D01*
X9241850Y-4615500D02*
X9281850Y-4655500D01*
X9281850Y-4615500D02*
X9241850Y-4655500D01*
X9352600Y-8539800D02*
X9392600Y-8579800D01*
X9392600Y-8539800D02*
X9352600Y-8579800D01*
X9352600Y-8641400D02*
X9392600Y-8681400D01*
X9392600Y-8641400D02*
X9352600Y-8681400D01*
X9428800Y-4145600D02*
X9468800Y-4185600D01*
X9468800Y-4145600D02*
X9428800Y-4185600D01*
X9468500Y-6609400D02*
X9508500Y-6649400D01*
X9508500Y-6609400D02*
X9468500Y-6649400D01*
X9505000Y-5212400D02*
X9545000Y-5252400D01*
X9545000Y-5212400D02*
X9505000Y-5252400D01*
X9570100Y-6863400D02*
X9610100Y-6903400D01*
X9610100Y-6863400D02*
X9570100Y-6903400D01*
X9581200Y-3967800D02*
X9621200Y-4007800D01*
X9621200Y-3967800D02*
X9581200Y-4007800D01*
X9606600Y-4602800D02*
X9646600Y-4642800D01*
X9646600Y-4602800D02*
X9606600Y-4642800D01*
X9606600Y-5695000D02*
X9646600Y-5735000D01*
X9646600Y-5695000D02*
X9606600Y-5735000D01*
X9682800Y-5314000D02*
X9722800Y-5354000D01*
X9722800Y-5314000D02*
X9682800Y-5354000D01*
X9695500Y-9759000D02*
X9735500Y-9799000D01*
X9735500Y-9759000D02*
X9695500Y-9799000D01*
X9784400Y-4602800D02*
X9824400Y-4642800D01*
X9824400Y-4602800D02*
X9784400Y-4642800D01*
X9860600Y-5618800D02*
X9900600Y-5658800D01*
X9900600Y-5618800D02*
X9860600Y-5658800D01*
X9886000Y-4856800D02*
X9926000Y-4896800D01*
X9926000Y-4856800D02*
X9886000Y-4896800D01*
X9886000Y-5009200D02*
X9926000Y-5049200D01*
X9926000Y-5009200D02*
X9886000Y-5049200D01*
X9886000Y-9759000D02*
X9926000Y-9799000D01*
X9926000Y-9759000D02*
X9886000Y-9799000D01*
X9911400Y-5720400D02*
X9951400Y-5760400D01*
X9951400Y-5720400D02*
X9911400Y-5760400D01*
X9911400Y-5847400D02*
X9951400Y-5887400D01*
X9951400Y-5847400D02*
X9911400Y-5887400D01*
X9911400Y-6050600D02*
X9951400Y-6090600D01*
X9951400Y-6050600D02*
X9911400Y-6090600D01*
X9911400Y-6177600D02*
X9951400Y-6217600D01*
X9951400Y-6177600D02*
X9911400Y-6217600D01*
X9936800Y-6409750D02*
X9976800Y-6449750D01*
X9976800Y-6409750D02*
X9936800Y-6449750D01*
X9987600Y-3967800D02*
X10027600Y-4007800D01*
X10027600Y-3967800D02*
X9987600Y-4007800D01*
X9987600Y-4120200D02*
X10027600Y-4160200D01*
X10027600Y-4120200D02*
X9987600Y-4160200D01*
X10038400Y-5847400D02*
X10078400Y-5887400D01*
X10078400Y-5847400D02*
X10038400Y-5887400D01*
X10038400Y-6050600D02*
X10078400Y-6090600D01*
X10078400Y-6050600D02*
X10038400Y-6090600D01*
X10063800Y-6736400D02*
X10103800Y-6776400D01*
X10103800Y-6736400D02*
X10063800Y-6776400D01*
X10063800Y-8590600D02*
X10103800Y-8630600D01*
X10103800Y-8590600D02*
X10063800Y-8630600D01*
X10089200Y-4806000D02*
X10129200Y-4846000D01*
X10129200Y-4806000D02*
X10089200Y-4846000D01*
X10140000Y-5123500D02*
X10180000Y-5163500D01*
X10180000Y-5123500D02*
X10140000Y-5163500D01*
X10140000Y-6203000D02*
X10180000Y-6243000D01*
X10180000Y-6203000D02*
X10140000Y-6243000D01*
X10190800Y-8616000D02*
X10230800Y-8656000D01*
X10230800Y-8616000D02*
X10190800Y-8656000D01*
X10203500Y-9632000D02*
X10243500Y-9672000D01*
X10243500Y-9632000D02*
X10203500Y-9672000D01*
X10408775Y-6609400D02*
X10448775Y-6649400D01*
X10448775Y-6609400D02*
X10408775Y-6649400D01*
X10510375Y-6863400D02*
X10550375Y-6903400D01*
X10550375Y-6863400D02*
X10510375Y-6903400D01*
X10521000Y-3967800D02*
X10561000Y-4007800D01*
X10561000Y-3967800D02*
X10521000Y-4007800D01*
X10521000Y-4145600D02*
X10561000Y-4185600D01*
X10561000Y-4145600D02*
X10521000Y-4185600D01*
X10521000Y-4552000D02*
X10561000Y-4592000D01*
X10561000Y-4552000D02*
X10521000Y-4592000D01*
X10597200Y-6787200D02*
X10637200Y-6827200D01*
X10637200Y-6787200D02*
X10597200Y-6827200D01*
X10597200Y-8666800D02*
X10637200Y-8706800D01*
X10637200Y-8666800D02*
X10597200Y-8706800D01*
X10630000Y-5980000D02*
X10670000Y-6020000D01*
X10670000Y-5980000D02*
X10630000Y-6020000D01*
X10630000Y-6130000D02*
X10670000Y-6170000D01*
X10670000Y-6130000D02*
X10630000Y-6170000D01*
X10648000Y-4933000D02*
X10688000Y-4973000D01*
X10688000Y-4933000D02*
X10648000Y-4973000D01*
X10648000Y-5161600D02*
X10688000Y-5201600D01*
X10688000Y-5161600D02*
X10648000Y-5201600D01*
X10673400Y-4577400D02*
X10713400Y-4617400D01*
X10713400Y-4577400D02*
X10673400Y-4617400D01*
X10774475Y-6609400D02*
X10814475Y-6649400D01*
X10814475Y-6609400D02*
X10774475Y-6649400D01*
X10876075Y-6863400D02*
X10916075Y-6903400D01*
X10916075Y-6863400D02*
X10876075Y-6903400D01*
X10927400Y-3790000D02*
X10967400Y-3830000D01*
X10967400Y-3790000D02*
X10927400Y-3830000D01*
X10927400Y-6025200D02*
X10967400Y-6065200D01*
X10967400Y-6025200D02*
X10927400Y-6065200D01*
X10927400Y-6152200D02*
X10967400Y-6192200D01*
X10967400Y-6152200D02*
X10927400Y-6192200D01*
X10927400Y-6279200D02*
X10967400Y-6319200D01*
X10967400Y-6279200D02*
X10927400Y-6319200D01*
X11130600Y-6025200D02*
X11170600Y-6065200D01*
X11170600Y-6025200D02*
X11130600Y-6065200D01*
X11130600Y-6152200D02*
X11170600Y-6192200D01*
X11170600Y-6152200D02*
X11130600Y-6192200D01*
X11130600Y-6279200D02*
X11170600Y-6319200D01*
X11170600Y-6279200D02*
X11130600Y-6319200D01*
X11410000Y-4234500D02*
X11450000Y-4274500D01*
X11450000Y-4234500D02*
X11410000Y-4274500D01*
D13*
X4276800Y-7250600D02*
G75*
G03*
X4276800Y-7250600I-35000J0D01*
G01*
X4276800Y-7440600D02*
G75*
G03*
X4276800Y-7440600I-35000J0D01*
G01*
D14*
X4178300Y-9994035D02*
X4178300Y-10074035D01*
X4138300Y-10034035D02*
X4218300Y-10034035D01*
X4178300Y-10494035D02*
X4178300Y-10574035D01*
X4138300Y-10534035D02*
X4218300Y-10534035D01*
X10972800Y-5288265D02*
X10972800Y-5368265D01*
X10932800Y-5328265D02*
X11012800Y-5328265D01*
X10972800Y-5788265D02*
X10972800Y-5868265D01*
X10932800Y-5828265D02*
X11012800Y-5828265D01*
X11584400Y-7798527D02*
X11584400Y-7878527D01*
X11544400Y-7838527D02*
X11624400Y-7838527D01*
X11584400Y-8671564D02*
X11584400Y-8751564D01*
X11544400Y-8711564D02*
X11624400Y-8711564D01*
X11584400Y-9535164D02*
X11584400Y-9615164D01*
X11544400Y-9575164D02*
X11624400Y-9575164D01*
X11834400Y-8231540D02*
X11834400Y-8311540D01*
X11794400Y-8271540D02*
X11874400Y-8271540D01*
X11834400Y-9104577D02*
X11834400Y-9184577D01*
X11794400Y-9144577D02*
X11874400Y-9144577D01*
X11834400Y-9968177D02*
X11834400Y-10048177D01*
X11794400Y-10008177D02*
X11874400Y-10008177D01*
D15*
X6327838Y-7397388D02*
X6327838Y-7340112D01*
X6270562Y-7340112D01*
X6270562Y-7397388D01*
X6327838Y-7397388D01*
X6327838Y-8159388D02*
X6327838Y-8102112D01*
X6270562Y-8102112D01*
X6270562Y-8159388D01*
X6327838Y-8159388D01*
X6581838Y-7397388D02*
X6581838Y-7340112D01*
X6524562Y-7340112D01*
X6524562Y-7397388D01*
X6581838Y-7397388D01*
X6581838Y-8159388D02*
X6581838Y-8102112D01*
X6524562Y-8102112D01*
X6524562Y-8159388D01*
X6581838Y-8159388D01*
X6835838Y-7397388D02*
X6835838Y-7340112D01*
X6778562Y-7340112D01*
X6778562Y-7397388D01*
X6835838Y-7397388D01*
X6835838Y-8159388D02*
X6835838Y-8102112D01*
X6778562Y-8102112D01*
X6778562Y-8159388D01*
X6835838Y-8159388D01*
X7089838Y-7397388D02*
X7089838Y-7340112D01*
X7032562Y-7340112D01*
X7032562Y-7397388D01*
X7089838Y-7397388D01*
X7089838Y-8159388D02*
X7089838Y-8102112D01*
X7032562Y-8102112D01*
X7032562Y-8159388D01*
X7089838Y-8159388D01*
X7648638Y-7394638D02*
X7648638Y-7337362D01*
X7591362Y-7337362D01*
X7591362Y-7394638D01*
X7648638Y-7394638D01*
X7648638Y-8156638D02*
X7648638Y-8099362D01*
X7591362Y-8099362D01*
X7591362Y-8156638D01*
X7648638Y-8156638D01*
X7902638Y-7394638D02*
X7902638Y-7337362D01*
X7845362Y-7337362D01*
X7845362Y-7394638D01*
X7902638Y-7394638D01*
X7902638Y-8156638D02*
X7902638Y-8099362D01*
X7845362Y-8099362D01*
X7845362Y-8156638D01*
X7902638Y-8156638D01*
X8156638Y-7394638D02*
X8156638Y-7337362D01*
X8099362Y-7337362D01*
X8099362Y-7394638D01*
X8156638Y-7394638D01*
X8156638Y-8156638D02*
X8156638Y-8099362D01*
X8099362Y-8099362D01*
X8099362Y-8156638D01*
X8156638Y-8156638D01*
X8410638Y-7394638D02*
X8410638Y-7337362D01*
X8353362Y-7337362D01*
X8353362Y-7394638D01*
X8410638Y-7394638D01*
X8410638Y-8156638D02*
X8410638Y-8099362D01*
X8353362Y-8099362D01*
X8353362Y-8156638D01*
X8410638Y-8156638D01*
X8922638Y-7397388D02*
X8922638Y-7340112D01*
X8865362Y-7340112D01*
X8865362Y-7397388D01*
X8922638Y-7397388D01*
X8922638Y-8159388D02*
X8922638Y-8102112D01*
X8865362Y-8102112D01*
X8865362Y-8159388D01*
X8922638Y-8159388D01*
X9176638Y-7397388D02*
X9176638Y-7340112D01*
X9119362Y-7340112D01*
X9119362Y-7397388D01*
X9176638Y-7397388D01*
X9176638Y-8159388D02*
X9176638Y-8102112D01*
X9119362Y-8102112D01*
X9119362Y-8159388D01*
X9176638Y-8159388D01*
X9430638Y-7397388D02*
X9430638Y-7340112D01*
X9373362Y-7340112D01*
X9373362Y-7397388D01*
X9430638Y-7397388D01*
X9430638Y-8159388D02*
X9430638Y-8102112D01*
X9373362Y-8102112D01*
X9373362Y-8159388D01*
X9430638Y-8159388D01*
X9684638Y-7397388D02*
X9684638Y-7340112D01*
X9627362Y-7340112D01*
X9627362Y-7397388D01*
X9684638Y-7397388D01*
X9684638Y-8159388D02*
X9684638Y-8102112D01*
X9627362Y-8102112D01*
X9627362Y-8159388D01*
X9684638Y-8159388D01*
X10214038Y-7394638D02*
X10214038Y-7337362D01*
X10156762Y-7337362D01*
X10156762Y-7394638D01*
X10214038Y-7394638D01*
X10214038Y-8156638D02*
X10214038Y-8099362D01*
X10156762Y-8099362D01*
X10156762Y-8156638D01*
X10214038Y-8156638D01*
X10468038Y-7394638D02*
X10468038Y-7337362D01*
X10410762Y-7337362D01*
X10410762Y-7394638D01*
X10468038Y-7394638D01*
X10468038Y-8156638D02*
X10468038Y-8099362D01*
X10410762Y-8099362D01*
X10410762Y-8156638D01*
X10468038Y-8156638D01*
X10722038Y-7394638D02*
X10722038Y-7337362D01*
X10664762Y-7337362D01*
X10664762Y-7394638D01*
X10722038Y-7394638D01*
X10722038Y-8156638D02*
X10722038Y-8099362D01*
X10664762Y-8099362D01*
X10664762Y-8156638D01*
X10722038Y-8156638D01*
X10976038Y-7394638D02*
X10976038Y-7337362D01*
X10918762Y-7337362D01*
X10918762Y-7394638D01*
X10976038Y-7394638D01*
X10976038Y-8156638D02*
X10976038Y-8099362D01*
X10918762Y-8099362D01*
X10918762Y-8156638D01*
X10976038Y-8156638D01*
D16*
X4318000Y-4322700D02*
X4365500Y-4275200D01*
X4318000Y-4227700D01*
X4270500Y-4275200D01*
X4318000Y-4322700D01*
X4318000Y-4572700D02*
X4365500Y-4525200D01*
X4318000Y-4477700D01*
X4270500Y-4525200D01*
X4318000Y-4572700D01*
X4318000Y-4822700D02*
X4365500Y-4775200D01*
X4318000Y-4727700D01*
X4270500Y-4775200D01*
X4318000Y-4822700D01*
X4318000Y-5072700D02*
X4365500Y-5025200D01*
X4318000Y-4977700D01*
X4270500Y-5025200D01*
X4318000Y-5072700D01*
X4318000Y-5322700D02*
X4365500Y-5275200D01*
X4318000Y-5227700D01*
X4270500Y-5275200D01*
X4318000Y-5322700D01*
X4318000Y-5966500D02*
X4365500Y-5919000D01*
X4318000Y-5871500D01*
X4270500Y-5919000D01*
X4318000Y-5966500D01*
X4318000Y-6216500D02*
X4365500Y-6169000D01*
X4318000Y-6121500D01*
X4270500Y-6169000D01*
X4318000Y-6216500D01*
X4318000Y-6466500D02*
X4365500Y-6419000D01*
X4318000Y-6371500D01*
X4270500Y-6419000D01*
X4318000Y-6466500D01*
X4894300Y-4754500D02*
X4941800Y-4707000D01*
X4894300Y-4659500D01*
X4846800Y-4707000D01*
X4894300Y-4754500D01*
X4894300Y-5004500D02*
X4941800Y-4957000D01*
X4894300Y-4909500D01*
X4846800Y-4957000D01*
X4894300Y-5004500D01*
X4894300Y-5254500D02*
X4941800Y-5207000D01*
X4894300Y-5159500D01*
X4846800Y-5207000D01*
X4894300Y-5254500D01*
X5435800Y-4754500D02*
X5483300Y-4707000D01*
X5435800Y-4659500D01*
X5388300Y-4707000D01*
X5435800Y-4754500D01*
X5435800Y-5004500D02*
X5483300Y-4957000D01*
X5435800Y-4909500D01*
X5388300Y-4957000D01*
X5435800Y-5004500D01*
X5435800Y-5254500D02*
X5483300Y-5207000D01*
X5435800Y-5159500D01*
X5388300Y-5207000D01*
X5435800Y-5254500D01*
X5977300Y-4746500D02*
X6024800Y-4699000D01*
X5977300Y-4651500D01*
X5929800Y-4699000D01*
X5977300Y-4746500D01*
X5977300Y-4996500D02*
X6024800Y-4949000D01*
X5977300Y-4901500D01*
X5929800Y-4949000D01*
X5977300Y-4996500D01*
X5977300Y-5246500D02*
X6024800Y-5199000D01*
X5977300Y-5151500D01*
X5929800Y-5199000D01*
X5977300Y-5246500D01*
X6548800Y-4746500D02*
X6596300Y-4699000D01*
X6548800Y-4651500D01*
X6501300Y-4699000D01*
X6548800Y-4746500D01*
X6548800Y-4996500D02*
X6596300Y-4949000D01*
X6548800Y-4901500D01*
X6501300Y-4949000D01*
X6548800Y-4996500D01*
X6548800Y-5246500D02*
X6596300Y-5199000D01*
X6548800Y-5151500D01*
X6501300Y-5199000D01*
X6548800Y-5246500D01*
X11654000Y-4483100D02*
X11701500Y-4435600D01*
X11654000Y-4388100D01*
X11606500Y-4435600D01*
X11654000Y-4483100D01*
X11654000Y-4733100D02*
X11701500Y-4685600D01*
X11654000Y-4638100D01*
X11606500Y-4685600D01*
X11654000Y-4733100D01*
X11654000Y-4983100D02*
X11701500Y-4935600D01*
X11654000Y-4888100D01*
X11606500Y-4935600D01*
X11654000Y-4983100D01*
X11654000Y-5233100D02*
X11701500Y-5185600D01*
X11654000Y-5138100D01*
X11606500Y-5185600D01*
X11654000Y-5233100D01*
X11654000Y-5483100D02*
X11701500Y-5435600D01*
X11654000Y-5388100D01*
X11606500Y-5435600D01*
X11654000Y-5483100D01*
D17*
X4856800Y-3760000D02*
X4956800Y-3860000D01*
X4956800Y-3760000D02*
X4856800Y-3860000D01*
X4956800Y-3810000D02*
G75*
G03*
X4956800Y-3810000I-50000J0D01*
G01*
X4856800Y-4010000D02*
X4956800Y-4110000D01*
X4956800Y-4010000D02*
X4856800Y-4110000D01*
X4956800Y-4060000D02*
G75*
G03*
X4956800Y-4060000I-50000J0D01*
G01*
X5877286Y-10910644D02*
X5977286Y-11010644D01*
X5977286Y-10910644D02*
X5877286Y-11010644D01*
X5977286Y-10960644D02*
G75*
G03*
X5977286Y-10960644I-50000J0D01*
G01*
X6071400Y-10186200D02*
X6171400Y-10286200D01*
X6171400Y-10186200D02*
X6071400Y-10286200D01*
X6171400Y-10236200D02*
G75*
G03*
X6171400Y-10236200I-50000J0D01*
G01*
X9322600Y-3760000D02*
X9422600Y-3860000D01*
X9422600Y-3760000D02*
X9322600Y-3860000D01*
X9422600Y-3810000D02*
G75*
G03*
X9422600Y-3810000I-50000J0D01*
G01*
X9576600Y-3760000D02*
X9676600Y-3860000D01*
X9676600Y-3760000D02*
X9576600Y-3860000D01*
X9676600Y-3810000D02*
G75*
G03*
X9676600Y-3810000I-50000J0D01*
G01*
X9830600Y-3760000D02*
X9930600Y-3860000D01*
X9930600Y-3760000D02*
X9830600Y-3860000D01*
X9930600Y-3810000D02*
G75*
G03*
X9930600Y-3810000I-50000J0D01*
G01*
X10872000Y-4526000D02*
X10972000Y-4626000D01*
X10972000Y-4526000D02*
X10872000Y-4626000D01*
X10972000Y-4576000D02*
G75*
G03*
X10972000Y-4576000I-50000J0D01*
G01*
X10872000Y-4776000D02*
X10972000Y-4876000D01*
X10972000Y-4776000D02*
X10872000Y-4876000D01*
X10972000Y-4826000D02*
G75*
G03*
X10972000Y-4826000I-50000J0D01*
G01*
D18*
X5279000Y-10295500D02*
X5389000Y-10405500D01*
X5389000Y-10295500D02*
X5279000Y-10405500D01*
X5334000Y-10295500D02*
X5334000Y-10405500D01*
X5279000Y-10350500D02*
X5389000Y-10350500D01*
X5533000Y-10295500D02*
X5643000Y-10405500D01*
X5643000Y-10295500D02*
X5533000Y-10405500D01*
X5588000Y-10295500D02*
X5588000Y-10405500D01*
X5533000Y-10350500D02*
X5643000Y-10350500D01*
X5787000Y-10295500D02*
X5897000Y-10405500D01*
X5897000Y-10295500D02*
X5787000Y-10405500D01*
X5842000Y-10295500D02*
X5842000Y-10405500D01*
X5787000Y-10350500D02*
X5897000Y-10350500D01*
X6104500Y-10833000D02*
X6214500Y-10943000D01*
X6214500Y-10833000D02*
X6104500Y-10943000D01*
X6159500Y-10833000D02*
X6159500Y-10943000D01*
X6104500Y-10888000D02*
X6214500Y-10888000D01*
X6358500Y-10833000D02*
X6468500Y-10943000D01*
X6468500Y-10833000D02*
X6358500Y-10943000D01*
X6413500Y-10833000D02*
X6413500Y-10943000D01*
X6358500Y-10888000D02*
X6468500Y-10888000D01*
X6612500Y-10833000D02*
X6722500Y-10943000D01*
X6722500Y-10833000D02*
X6612500Y-10943000D01*
X6667500Y-10833000D02*
X6667500Y-10943000D01*
X6612500Y-10888000D02*
X6722500Y-10888000D01*
X7311000Y-9504000D02*
X7421000Y-9614000D01*
X7421000Y-9504000D02*
X7311000Y-9614000D01*
X7366000Y-9504000D02*
X7366000Y-9614000D01*
X7311000Y-9559000D02*
X7421000Y-9559000D01*
X7311000Y-10833000D02*
X7421000Y-10943000D01*
X7421000Y-10833000D02*
X7311000Y-10943000D01*
X7366000Y-10833000D02*
X7366000Y-10943000D01*
X7311000Y-10888000D02*
X7421000Y-10888000D01*
X7565000Y-9504000D02*
X7675000Y-9614000D01*
X7675000Y-9504000D02*
X7565000Y-9614000D01*
X7620000Y-9504000D02*
X7620000Y-9614000D01*
X7565000Y-9559000D02*
X7675000Y-9559000D01*
X7565000Y-10833000D02*
X7675000Y-10943000D01*
X7675000Y-10833000D02*
X7565000Y-10943000D01*
X7620000Y-10833000D02*
X7620000Y-10943000D01*
X7565000Y-10888000D02*
X7675000Y-10888000D01*
X7819000Y-9504000D02*
X7929000Y-9614000D01*
X7929000Y-9504000D02*
X7819000Y-9614000D01*
X7874000Y-9504000D02*
X7874000Y-9614000D01*
X7819000Y-9559000D02*
X7929000Y-9559000D01*
X7819000Y-10833000D02*
X7929000Y-10943000D01*
X7929000Y-10833000D02*
X7819000Y-10943000D01*
X7874000Y-10833000D02*
X7874000Y-10943000D01*
X7819000Y-10888000D02*
X7929000Y-10888000D01*
X8835000Y-9504000D02*
X8945000Y-9614000D01*
X8945000Y-9504000D02*
X8835000Y-9614000D01*
X8890000Y-9504000D02*
X8890000Y-9614000D01*
X8835000Y-9559000D02*
X8945000Y-9559000D01*
X8835000Y-10833000D02*
X8945000Y-10943000D01*
X8945000Y-10833000D02*
X8835000Y-10943000D01*
X8890000Y-10833000D02*
X8890000Y-10943000D01*
X8835000Y-10888000D02*
X8945000Y-10888000D01*
X9089000Y-9504000D02*
X9199000Y-9614000D01*
X9199000Y-9504000D02*
X9089000Y-9614000D01*
X9144000Y-9504000D02*
X9144000Y-9614000D01*
X9089000Y-9559000D02*
X9199000Y-9559000D01*
X9089000Y-10833000D02*
X9199000Y-10943000D01*
X9199000Y-10833000D02*
X9089000Y-10943000D01*
X9144000Y-10833000D02*
X9144000Y-10943000D01*
X9089000Y-10888000D02*
X9199000Y-10888000D01*
X9343000Y-9504000D02*
X9453000Y-9614000D01*
X9453000Y-9504000D02*
X9343000Y-9614000D01*
X9398000Y-9504000D02*
X9398000Y-9614000D01*
X9343000Y-9559000D02*
X9453000Y-9559000D01*
X9343000Y-10833000D02*
X9453000Y-10943000D01*
X9453000Y-10833000D02*
X9343000Y-10943000D01*
X9398000Y-10833000D02*
X9398000Y-10943000D01*
X9343000Y-10888000D02*
X9453000Y-10888000D01*
X10359000Y-9504000D02*
X10469000Y-9614000D01*
X10469000Y-9504000D02*
X10359000Y-9614000D01*
X10414000Y-9504000D02*
X10414000Y-9614000D01*
X10359000Y-9559000D02*
X10469000Y-9559000D01*
X10359000Y-10833000D02*
X10469000Y-10943000D01*
X10469000Y-10833000D02*
X10359000Y-10943000D01*
X10414000Y-10833000D02*
X10414000Y-10943000D01*
X10359000Y-10888000D02*
X10469000Y-10888000D01*
X10613000Y-9504000D02*
X10723000Y-9614000D01*
X10723000Y-9504000D02*
X10613000Y-9614000D01*
X10668000Y-9504000D02*
X10668000Y-9614000D01*
X10613000Y-9559000D02*
X10723000Y-9559000D01*
X10613000Y-10833000D02*
X10723000Y-10943000D01*
X10723000Y-10833000D02*
X10613000Y-10943000D01*
X10668000Y-10833000D02*
X10668000Y-10943000D01*
X10613000Y-10888000D02*
X10723000Y-10888000D01*
X10867000Y-9504000D02*
X10977000Y-9614000D01*
X10977000Y-9504000D02*
X10867000Y-9614000D01*
X10922000Y-9504000D02*
X10922000Y-9614000D01*
X10867000Y-9559000D02*
X10977000Y-9559000D01*
X10867000Y-10833000D02*
X10977000Y-10943000D01*
X10977000Y-10833000D02*
X10867000Y-10943000D01*
X10922000Y-10833000D02*
X10922000Y-10943000D01*
X10867000Y-10888000D02*
X10977000Y-10888000D01*
D19*
X11547800Y-5858200D02*
X11667800Y-5978200D01*
X11667800Y-5858200D02*
X11547800Y-5978200D01*
X11650227Y-5960627D02*
X11650227Y-5875773D01*
X11565373Y-5875773D01*
X11565373Y-5960627D01*
X11650227Y-5960627D01*
X11547800Y-7382200D02*
X11667800Y-7502200D01*
X11667800Y-7382200D02*
X11547800Y-7502200D01*
X11650227Y-7484627D02*
X11650227Y-7399773D01*
X11565373Y-7399773D01*
X11565373Y-7484627D01*
X11650227Y-7484627D01*
D20*
X4446200Y-9780800D02*
X4596200Y-9930800D01*
X4596200Y-9780800D02*
X4446200Y-9930800D01*
X4521200Y-9930800D02*
X4596200Y-9855800D01*
X4521200Y-9780800D01*
X4446200Y-9855800D01*
X4521200Y-9930800D01*
X4446200Y-10490800D02*
X4596200Y-10640800D01*
X4596200Y-10490800D02*
X4446200Y-10640800D01*
X4521200Y-10640800D02*
X4596200Y-10565800D01*
X4521200Y-10490800D01*
X4446200Y-10565800D01*
X4521200Y-10640800D01*
D11*
X8026400Y-4395800D02*
X8026400Y-4595800D01*
X7926400Y-4495800D02*
X8126400Y-4495800D01*
X8126400Y-4495800D02*
G75*
G03*
X8126400Y-4495800I-100000J0D01*
G01*
D21*
X4441745Y-11172745D02*
X4441745Y-10925255D01*
X4194255Y-10925255D01*
X4194255Y-11172745D01*
X4441745Y-11172745D01*
X4493000Y-11049000D02*
G75*
G03*
X4493000Y-11049000I-175000J0D01*
G01*
X4471995Y-8823245D02*
X4471995Y-8575755D01*
X4224505Y-8575755D01*
X4224505Y-8823245D01*
X4471995Y-8823245D01*
X4523250Y-8699500D02*
G75*
G03*
X4523250Y-8699500I-175000J0D01*
G01*
X4471995Y-9394745D02*
X4471995Y-9147255D01*
X4224505Y-9147255D01*
X4224505Y-9394745D01*
X4471995Y-9394745D01*
X4523250Y-9271000D02*
G75*
G03*
X4523250Y-9271000I-175000J0D01*
G01*
X5099995Y-11773745D02*
X5099995Y-11526255D01*
X4852505Y-11526255D01*
X4852505Y-11773745D01*
X5099995Y-11773745D01*
X5151250Y-11650000D02*
G75*
G03*
X5151250Y-11650000I-175000J0D01*
G01*
X8602495Y-10601245D02*
X8602495Y-10353755D01*
X8355005Y-10353755D01*
X8355005Y-10601245D01*
X8602495Y-10601245D01*
X8653750Y-10477500D02*
G75*
G03*
X8653750Y-10477500I-175000J0D01*
G01*
X10126495Y-10601245D02*
X10126495Y-10353755D01*
X9879005Y-10353755D01*
X9879005Y-10601245D01*
X10126495Y-10601245D01*
X10177750Y-10477500D02*
G75*
G03*
X10177750Y-10477500I-175000J0D01*
G01*
X11510795Y-10601245D02*
X11510795Y-10353755D01*
X11263305Y-10353755D01*
X11263305Y-10601245D01*
X11510795Y-10601245D01*
X11562050Y-10477500D02*
G75*
G03*
X11562050Y-10477500I-175000J0D01*
G01*
D11*
X4255119Y-12312976D02*
X4255119Y-12112976D01*
X4302738Y-12112976D01*
X4331310Y-12122500D01*
X4350357Y-12141548D01*
X4359881Y-12160595D01*
X4369405Y-12198690D01*
X4369405Y-12227262D01*
X4359881Y-12265357D01*
X4350357Y-12284405D01*
X4331310Y-12303452D01*
X4302738Y-12312976D01*
X4255119Y-12312976D01*
X4455119Y-12312976D02*
X4455119Y-12179643D01*
X4455119Y-12217738D02*
X4464643Y-12198690D01*
X4474167Y-12189167D01*
X4493214Y-12179643D01*
X4512262Y-12179643D01*
X4578929Y-12312976D02*
X4578929Y-12179643D01*
X4578929Y-12112976D02*
X4569405Y-12122500D01*
X4578929Y-12132024D01*
X4588452Y-12122500D01*
X4578929Y-12112976D01*
X4578929Y-12132024D01*
X4702738Y-12312976D02*
X4683690Y-12303452D01*
X4674167Y-12284405D01*
X4674167Y-12112976D01*
X4807500Y-12312976D02*
X4788452Y-12303452D01*
X4778929Y-12284405D01*
X4778929Y-12112976D01*
X5036071Y-12312976D02*
X5036071Y-12112976D01*
X5102738Y-12255833D01*
X5169405Y-12112976D01*
X5169405Y-12312976D01*
X5350357Y-12312976D02*
X5350357Y-12208214D01*
X5340833Y-12189167D01*
X5321786Y-12179643D01*
X5283690Y-12179643D01*
X5264643Y-12189167D01*
X5350357Y-12303452D02*
X5331310Y-12312976D01*
X5283690Y-12312976D01*
X5264643Y-12303452D01*
X5255119Y-12284405D01*
X5255119Y-12265357D01*
X5264643Y-12246309D01*
X5283690Y-12236786D01*
X5331310Y-12236786D01*
X5350357Y-12227262D01*
X5445595Y-12179643D02*
X5445595Y-12379643D01*
X5445595Y-12189167D02*
X5464643Y-12179643D01*
X5502738Y-12179643D01*
X5521786Y-12189167D01*
X5531310Y-12198690D01*
X5540833Y-12217738D01*
X5540833Y-12274881D01*
X5531310Y-12293928D01*
X5521786Y-12303452D01*
X5502738Y-12312976D01*
X5464643Y-12312976D01*
X5445595Y-12303452D01*
X5626548Y-12293928D02*
X5636071Y-12303452D01*
X5626548Y-12312976D01*
X5617024Y-12303452D01*
X5626548Y-12293928D01*
X5626548Y-12312976D01*
X5626548Y-12189167D02*
X5636071Y-12198690D01*
X5626548Y-12208214D01*
X5617024Y-12198690D01*
X5626548Y-12189167D01*
X5626548Y-12208214D01*
D12*
X3957500Y-12622500D02*
X3997500Y-12662500D01*
X3997500Y-12622500D02*
X3957500Y-12662500D01*
D11*
X4293214Y-12532976D02*
X4312262Y-12532976D01*
X4331310Y-12542500D01*
X4340833Y-12552024D01*
X4350357Y-12571071D01*
X4359881Y-12609167D01*
X4359881Y-12656786D01*
X4350357Y-12694881D01*
X4340833Y-12713928D01*
X4331310Y-12723452D01*
X4312262Y-12732976D01*
X4293214Y-12732976D01*
X4274167Y-12723452D01*
X4264643Y-12713928D01*
X4255119Y-12694881D01*
X4245595Y-12656786D01*
X4245595Y-12609167D01*
X4255119Y-12571071D01*
X4264643Y-12552024D01*
X4274167Y-12542500D01*
X4293214Y-12532976D01*
X4445595Y-12713928D02*
X4455119Y-12723452D01*
X4445595Y-12732976D01*
X4436071Y-12723452D01*
X4445595Y-12713928D01*
X4445595Y-12732976D01*
X4626548Y-12599643D02*
X4626548Y-12732976D01*
X4578929Y-12523452D02*
X4531310Y-12666309D01*
X4655119Y-12666309D01*
X4769405Y-12532976D02*
X4788452Y-12532976D01*
X4807500Y-12542500D01*
X4817024Y-12552024D01*
X4826548Y-12571071D01*
X4836071Y-12609167D01*
X4836071Y-12656786D01*
X4826548Y-12694881D01*
X4817024Y-12713928D01*
X4807500Y-12723452D01*
X4788452Y-12732976D01*
X4769405Y-12732976D01*
X4750357Y-12723452D01*
X4740833Y-12713928D01*
X4731310Y-12694881D01*
X4721786Y-12656786D01*
X4721786Y-12609167D01*
X4731310Y-12571071D01*
X4740833Y-12552024D01*
X4750357Y-12542500D01*
X4769405Y-12532976D01*
X4959881Y-12532976D02*
X4978929Y-12532976D01*
X4997976Y-12542500D01*
X5007500Y-12552024D01*
X5017024Y-12571071D01*
X5026548Y-12609167D01*
X5026548Y-12656786D01*
X5017024Y-12694881D01*
X5007500Y-12713928D01*
X4997976Y-12723452D01*
X4978929Y-12732976D01*
X4959881Y-12732976D01*
X4940833Y-12723452D01*
X4931310Y-12713928D01*
X4921786Y-12694881D01*
X4912262Y-12656786D01*
X4912262Y-12609167D01*
X4921786Y-12571071D01*
X4931310Y-12552024D01*
X4940833Y-12542500D01*
X4959881Y-12532976D01*
X5112262Y-12732976D02*
X5112262Y-12599643D01*
X5112262Y-12618690D02*
X5121786Y-12609167D01*
X5140833Y-12599643D01*
X5169405Y-12599643D01*
X5188452Y-12609167D01*
X5197976Y-12628214D01*
X5197976Y-12732976D01*
X5197976Y-12628214D02*
X5207500Y-12609167D01*
X5226548Y-12599643D01*
X5255119Y-12599643D01*
X5274167Y-12609167D01*
X5283690Y-12628214D01*
X5283690Y-12732976D01*
X5378929Y-12732976D02*
X5378929Y-12599643D01*
X5378929Y-12618690D02*
X5388452Y-12609167D01*
X5407500Y-12599643D01*
X5436071Y-12599643D01*
X5455119Y-12609167D01*
X5464643Y-12628214D01*
X5464643Y-12732976D01*
X5464643Y-12628214D02*
X5474167Y-12609167D01*
X5493214Y-12599643D01*
X5521786Y-12599643D01*
X5540833Y-12609167D01*
X5550357Y-12628214D01*
X5550357Y-12732976D01*
X5940833Y-12523452D02*
X5769405Y-12780595D01*
X6197976Y-12532976D02*
X6217024Y-12532976D01*
X6236071Y-12542500D01*
X6245595Y-12552024D01*
X6255119Y-12571071D01*
X6264643Y-12609167D01*
X6264643Y-12656786D01*
X6255119Y-12694881D01*
X6245595Y-12713928D01*
X6236071Y-12723452D01*
X6217024Y-12732976D01*
X6197976Y-12732976D01*
X6178928Y-12723452D01*
X6169405Y-12713928D01*
X6159881Y-12694881D01*
X6150357Y-12656786D01*
X6150357Y-12609167D01*
X6159881Y-12571071D01*
X6169405Y-12552024D01*
X6178928Y-12542500D01*
X6197976Y-12532976D01*
X6350357Y-12713928D02*
X6359881Y-12723452D01*
X6350357Y-12732976D01*
X6340833Y-12723452D01*
X6350357Y-12713928D01*
X6350357Y-12732976D01*
X6483690Y-12532976D02*
X6502738Y-12532976D01*
X6521786Y-12542500D01*
X6531309Y-12552024D01*
X6540833Y-12571071D01*
X6550357Y-12609167D01*
X6550357Y-12656786D01*
X6540833Y-12694881D01*
X6531309Y-12713928D01*
X6521786Y-12723452D01*
X6502738Y-12732976D01*
X6483690Y-12732976D01*
X6464643Y-12723452D01*
X6455119Y-12713928D01*
X6445595Y-12694881D01*
X6436071Y-12656786D01*
X6436071Y-12609167D01*
X6445595Y-12571071D01*
X6455119Y-12552024D01*
X6464643Y-12542500D01*
X6483690Y-12532976D01*
X6740833Y-12732976D02*
X6626548Y-12732976D01*
X6683690Y-12732976D02*
X6683690Y-12532976D01*
X6664643Y-12561548D01*
X6645595Y-12580595D01*
X6626548Y-12590119D01*
X6921786Y-12532976D02*
X6826548Y-12532976D01*
X6817024Y-12628214D01*
X6826548Y-12618690D01*
X6845595Y-12609167D01*
X6893214Y-12609167D01*
X6912262Y-12618690D01*
X6921786Y-12628214D01*
X6931309Y-12647262D01*
X6931309Y-12694881D01*
X6921786Y-12713928D01*
X6912262Y-12723452D01*
X6893214Y-12732976D01*
X6845595Y-12732976D01*
X6826548Y-12723452D01*
X6817024Y-12713928D01*
X6997976Y-12532976D02*
X7131309Y-12532976D01*
X7045595Y-12732976D01*
X7197976Y-12532976D02*
X7197976Y-12571071D01*
X7274167Y-12532976D02*
X7274167Y-12571071D01*
X7569405Y-12809167D02*
X7559881Y-12799643D01*
X7540833Y-12771071D01*
X7531309Y-12752024D01*
X7521786Y-12723452D01*
X7512262Y-12675833D01*
X7512262Y-12637738D01*
X7521786Y-12590119D01*
X7531309Y-12561548D01*
X7540833Y-12542500D01*
X7559881Y-12513928D01*
X7569405Y-12504405D01*
X7750357Y-12732976D02*
X7636071Y-12732976D01*
X7693214Y-12732976D02*
X7693214Y-12532976D01*
X7674167Y-12561548D01*
X7655119Y-12580595D01*
X7636071Y-12590119D01*
X7845595Y-12732976D02*
X7883690Y-12732976D01*
X7902738Y-12723452D01*
X7912262Y-12713928D01*
X7931309Y-12685357D01*
X7940833Y-12647262D01*
X7940833Y-12571071D01*
X7931309Y-12552024D01*
X7921786Y-12542500D01*
X7902738Y-12532976D01*
X7864643Y-12532976D01*
X7845595Y-12542500D01*
X7836071Y-12552024D01*
X7826548Y-12571071D01*
X7826548Y-12618690D01*
X7836071Y-12637738D01*
X7845595Y-12647262D01*
X7864643Y-12656786D01*
X7902738Y-12656786D01*
X7921786Y-12647262D01*
X7931309Y-12637738D01*
X7940833Y-12618690D01*
X8036071Y-12732976D02*
X8074167Y-12732976D01*
X8093214Y-12723452D01*
X8102738Y-12713928D01*
X8121786Y-12685357D01*
X8131309Y-12647262D01*
X8131309Y-12571071D01*
X8121786Y-12552024D01*
X8112262Y-12542500D01*
X8093214Y-12532976D01*
X8055119Y-12532976D01*
X8036071Y-12542500D01*
X8026548Y-12552024D01*
X8017024Y-12571071D01*
X8017024Y-12618690D01*
X8026548Y-12637738D01*
X8036071Y-12647262D01*
X8055119Y-12656786D01*
X8093214Y-12656786D01*
X8112262Y-12647262D01*
X8121786Y-12637738D01*
X8131309Y-12618690D01*
X8369405Y-12732976D02*
X8369405Y-12532976D01*
X8455119Y-12732976D02*
X8455119Y-12628214D01*
X8445595Y-12609167D01*
X8426548Y-12599643D01*
X8397976Y-12599643D01*
X8378928Y-12609167D01*
X8369405Y-12618690D01*
X8578929Y-12732976D02*
X8559881Y-12723452D01*
X8550357Y-12713928D01*
X8540833Y-12694881D01*
X8540833Y-12637738D01*
X8550357Y-12618690D01*
X8559881Y-12609167D01*
X8578929Y-12599643D01*
X8607500Y-12599643D01*
X8626548Y-12609167D01*
X8636071Y-12618690D01*
X8645595Y-12637738D01*
X8645595Y-12694881D01*
X8636071Y-12713928D01*
X8626548Y-12723452D01*
X8607500Y-12732976D01*
X8578929Y-12732976D01*
X8759881Y-12732976D02*
X8740833Y-12723452D01*
X8731310Y-12704405D01*
X8731310Y-12532976D01*
X8912262Y-12723452D02*
X8893214Y-12732976D01*
X8855119Y-12732976D01*
X8836071Y-12723452D01*
X8826548Y-12704405D01*
X8826548Y-12628214D01*
X8836071Y-12609167D01*
X8855119Y-12599643D01*
X8893214Y-12599643D01*
X8912262Y-12609167D01*
X8921786Y-12628214D01*
X8921786Y-12647262D01*
X8826548Y-12666309D01*
X8997976Y-12723452D02*
X9017024Y-12732976D01*
X9055119Y-12732976D01*
X9074167Y-12723452D01*
X9083690Y-12704405D01*
X9083690Y-12694881D01*
X9074167Y-12675833D01*
X9055119Y-12666309D01*
X9026548Y-12666309D01*
X9007500Y-12656786D01*
X8997976Y-12637738D01*
X8997976Y-12628214D01*
X9007500Y-12609167D01*
X9026548Y-12599643D01*
X9055119Y-12599643D01*
X9074167Y-12609167D01*
X9150357Y-12809167D02*
X9159881Y-12799643D01*
X9178929Y-12771071D01*
X9188452Y-12752024D01*
X9197976Y-12723452D01*
X9207500Y-12675833D01*
X9207500Y-12637738D01*
X9197976Y-12590119D01*
X9188452Y-12561548D01*
X9178929Y-12542500D01*
X9159881Y-12513928D01*
X9150357Y-12504405D01*
D13*
X3997500Y-12906500D02*
G75*
G03*
X3997500Y-12906500I-35000J0D01*
G01*
D11*
X4293214Y-12796976D02*
X4312262Y-12796976D01*
X4331310Y-12806500D01*
X4340833Y-12816024D01*
X4350357Y-12835071D01*
X4359881Y-12873167D01*
X4359881Y-12920786D01*
X4350357Y-12958881D01*
X4340833Y-12977928D01*
X4331310Y-12987452D01*
X4312262Y-12996976D01*
X4293214Y-12996976D01*
X4274167Y-12987452D01*
X4264643Y-12977928D01*
X4255119Y-12958881D01*
X4245595Y-12920786D01*
X4245595Y-12873167D01*
X4255119Y-12835071D01*
X4264643Y-12816024D01*
X4274167Y-12806500D01*
X4293214Y-12796976D01*
X4445595Y-12977928D02*
X4455119Y-12987452D01*
X4445595Y-12996976D01*
X4436071Y-12987452D01*
X4445595Y-12977928D01*
X4445595Y-12996976D01*
X4521786Y-12796976D02*
X4655119Y-12796976D01*
X4569405Y-12996976D01*
X4769405Y-12796976D02*
X4788452Y-12796976D01*
X4807500Y-12806500D01*
X4817024Y-12816024D01*
X4826548Y-12835071D01*
X4836071Y-12873167D01*
X4836071Y-12920786D01*
X4826548Y-12958881D01*
X4817024Y-12977928D01*
X4807500Y-12987452D01*
X4788452Y-12996976D01*
X4769405Y-12996976D01*
X4750357Y-12987452D01*
X4740833Y-12977928D01*
X4731310Y-12958881D01*
X4721786Y-12920786D01*
X4721786Y-12873167D01*
X4731310Y-12835071D01*
X4740833Y-12816024D01*
X4750357Y-12806500D01*
X4769405Y-12796976D01*
X4959881Y-12796976D02*
X4978929Y-12796976D01*
X4997976Y-12806500D01*
X5007500Y-12816024D01*
X5017024Y-12835071D01*
X5026548Y-12873167D01*
X5026548Y-12920786D01*
X5017024Y-12958881D01*
X5007500Y-12977928D01*
X4997976Y-12987452D01*
X4978929Y-12996976D01*
X4959881Y-12996976D01*
X4940833Y-12987452D01*
X4931310Y-12977928D01*
X4921786Y-12958881D01*
X4912262Y-12920786D01*
X4912262Y-12873167D01*
X4921786Y-12835071D01*
X4931310Y-12816024D01*
X4940833Y-12806500D01*
X4959881Y-12796976D01*
X5112262Y-12996976D02*
X5112262Y-12863643D01*
X5112262Y-12882690D02*
X5121786Y-12873167D01*
X5140833Y-12863643D01*
X5169405Y-12863643D01*
X5188452Y-12873167D01*
X5197976Y-12892214D01*
X5197976Y-12996976D01*
X5197976Y-12892214D02*
X5207500Y-12873167D01*
X5226548Y-12863643D01*
X5255119Y-12863643D01*
X5274167Y-12873167D01*
X5283690Y-12892214D01*
X5283690Y-12996976D01*
X5378929Y-12996976D02*
X5378929Y-12863643D01*
X5378929Y-12882690D02*
X5388452Y-12873167D01*
X5407500Y-12863643D01*
X5436071Y-12863643D01*
X5455119Y-12873167D01*
X5464643Y-12892214D01*
X5464643Y-12996976D01*
X5464643Y-12892214D02*
X5474167Y-12873167D01*
X5493214Y-12863643D01*
X5521786Y-12863643D01*
X5540833Y-12873167D01*
X5550357Y-12892214D01*
X5550357Y-12996976D01*
X5940833Y-12787452D02*
X5769405Y-13044595D01*
X6197976Y-12796976D02*
X6217024Y-12796976D01*
X6236071Y-12806500D01*
X6245595Y-12816024D01*
X6255119Y-12835071D01*
X6264643Y-12873167D01*
X6264643Y-12920786D01*
X6255119Y-12958881D01*
X6245595Y-12977928D01*
X6236071Y-12987452D01*
X6217024Y-12996976D01*
X6197976Y-12996976D01*
X6178928Y-12987452D01*
X6169405Y-12977928D01*
X6159881Y-12958881D01*
X6150357Y-12920786D01*
X6150357Y-12873167D01*
X6159881Y-12835071D01*
X6169405Y-12816024D01*
X6178928Y-12806500D01*
X6197976Y-12796976D01*
X6350357Y-12977928D02*
X6359881Y-12987452D01*
X6350357Y-12996976D01*
X6340833Y-12987452D01*
X6350357Y-12977928D01*
X6350357Y-12996976D01*
X6483690Y-12796976D02*
X6502738Y-12796976D01*
X6521786Y-12806500D01*
X6531309Y-12816024D01*
X6540833Y-12835071D01*
X6550357Y-12873167D01*
X6550357Y-12920786D01*
X6540833Y-12958881D01*
X6531309Y-12977928D01*
X6521786Y-12987452D01*
X6502738Y-12996976D01*
X6483690Y-12996976D01*
X6464643Y-12987452D01*
X6455119Y-12977928D01*
X6445595Y-12958881D01*
X6436071Y-12920786D01*
X6436071Y-12873167D01*
X6445595Y-12835071D01*
X6455119Y-12816024D01*
X6464643Y-12806500D01*
X6483690Y-12796976D01*
X6626548Y-12816024D02*
X6636071Y-12806500D01*
X6655119Y-12796976D01*
X6702738Y-12796976D01*
X6721786Y-12806500D01*
X6731309Y-12816024D01*
X6740833Y-12835071D01*
X6740833Y-12854119D01*
X6731309Y-12882690D01*
X6617024Y-12996976D01*
X6740833Y-12996976D01*
X6807500Y-12796976D02*
X6940833Y-12796976D01*
X6855119Y-12996976D01*
X7102738Y-12796976D02*
X7064643Y-12796976D01*
X7045595Y-12806500D01*
X7036071Y-12816024D01*
X7017024Y-12844595D01*
X7007500Y-12882690D01*
X7007500Y-12958881D01*
X7017024Y-12977928D01*
X7026548Y-12987452D01*
X7045595Y-12996976D01*
X7083690Y-12996976D01*
X7102738Y-12987452D01*
X7112262Y-12977928D01*
X7121786Y-12958881D01*
X7121786Y-12911262D01*
X7112262Y-12892214D01*
X7102738Y-12882690D01*
X7083690Y-12873167D01*
X7045595Y-12873167D01*
X7026548Y-12882690D01*
X7017024Y-12892214D01*
X7007500Y-12911262D01*
X7197976Y-12796976D02*
X7197976Y-12835071D01*
X7274167Y-12796976D02*
X7274167Y-12835071D01*
X7569405Y-13073167D02*
X7559881Y-13063643D01*
X7540833Y-13035071D01*
X7531309Y-13016024D01*
X7521786Y-12987452D01*
X7512262Y-12939833D01*
X7512262Y-12901738D01*
X7521786Y-12854119D01*
X7531309Y-12825548D01*
X7540833Y-12806500D01*
X7559881Y-12777928D01*
X7569405Y-12768405D01*
X7636071Y-12816024D02*
X7645595Y-12806500D01*
X7664643Y-12796976D01*
X7712262Y-12796976D01*
X7731309Y-12806500D01*
X7740833Y-12816024D01*
X7750357Y-12835071D01*
X7750357Y-12854119D01*
X7740833Y-12882690D01*
X7626548Y-12996976D01*
X7750357Y-12996976D01*
X7988452Y-12996976D02*
X7988452Y-12796976D01*
X8074167Y-12996976D02*
X8074167Y-12892214D01*
X8064643Y-12873167D01*
X8045595Y-12863643D01*
X8017024Y-12863643D01*
X7997976Y-12873167D01*
X7988452Y-12882690D01*
X8197976Y-12996976D02*
X8178928Y-12987452D01*
X8169405Y-12977928D01*
X8159881Y-12958881D01*
X8159881Y-12901738D01*
X8169405Y-12882690D01*
X8178928Y-12873167D01*
X8197976Y-12863643D01*
X8226548Y-12863643D01*
X8245595Y-12873167D01*
X8255119Y-12882690D01*
X8264643Y-12901738D01*
X8264643Y-12958881D01*
X8255119Y-12977928D01*
X8245595Y-12987452D01*
X8226548Y-12996976D01*
X8197976Y-12996976D01*
X8378928Y-12996976D02*
X8359881Y-12987452D01*
X8350357Y-12968405D01*
X8350357Y-12796976D01*
X8531310Y-12987452D02*
X8512262Y-12996976D01*
X8474167Y-12996976D01*
X8455119Y-12987452D01*
X8445595Y-12968405D01*
X8445595Y-12892214D01*
X8455119Y-12873167D01*
X8474167Y-12863643D01*
X8512262Y-12863643D01*
X8531310Y-12873167D01*
X8540833Y-12892214D01*
X8540833Y-12911262D01*
X8445595Y-12930309D01*
X8617024Y-12987452D02*
X8636071Y-12996976D01*
X8674167Y-12996976D01*
X8693214Y-12987452D01*
X8702738Y-12968405D01*
X8702738Y-12958881D01*
X8693214Y-12939833D01*
X8674167Y-12930309D01*
X8645595Y-12930309D01*
X8626548Y-12920786D01*
X8617024Y-12901738D01*
X8617024Y-12892214D01*
X8626548Y-12873167D01*
X8645595Y-12863643D01*
X8674167Y-12863643D01*
X8693214Y-12873167D01*
X8769405Y-13073167D02*
X8778929Y-13063643D01*
X8797976Y-13035071D01*
X8807500Y-13016024D01*
X8817024Y-12987452D01*
X8826548Y-12939833D01*
X8826548Y-12901738D01*
X8817024Y-12854119D01*
X8807500Y-12825548D01*
X8797976Y-12806500D01*
X8778929Y-12777928D01*
X8769405Y-12768405D01*
D14*
X3957500Y-13130500D02*
X3957500Y-13210500D01*
X3917500Y-13170500D02*
X3997500Y-13170500D01*
D11*
X4293214Y-13060976D02*
X4312262Y-13060976D01*
X4331310Y-13070500D01*
X4340833Y-13080024D01*
X4350357Y-13099071D01*
X4359881Y-13137167D01*
X4359881Y-13184786D01*
X4350357Y-13222881D01*
X4340833Y-13241928D01*
X4331310Y-13251452D01*
X4312262Y-13260976D01*
X4293214Y-13260976D01*
X4274167Y-13251452D01*
X4264643Y-13241928D01*
X4255119Y-13222881D01*
X4245595Y-13184786D01*
X4245595Y-13137167D01*
X4255119Y-13099071D01*
X4264643Y-13080024D01*
X4274167Y-13070500D01*
X4293214Y-13060976D01*
X4445595Y-13241928D02*
X4455119Y-13251452D01*
X4445595Y-13260976D01*
X4436071Y-13251452D01*
X4445595Y-13241928D01*
X4445595Y-13260976D01*
X4569405Y-13146690D02*
X4550357Y-13137167D01*
X4540833Y-13127643D01*
X4531310Y-13108595D01*
X4531310Y-13099071D01*
X4540833Y-13080024D01*
X4550357Y-13070500D01*
X4569405Y-13060976D01*
X4607500Y-13060976D01*
X4626548Y-13070500D01*
X4636071Y-13080024D01*
X4645595Y-13099071D01*
X4645595Y-13108595D01*
X4636071Y-13127643D01*
X4626548Y-13137167D01*
X4607500Y-13146690D01*
X4569405Y-13146690D01*
X4550357Y-13156214D01*
X4540833Y-13165738D01*
X4531310Y-13184786D01*
X4531310Y-13222881D01*
X4540833Y-13241928D01*
X4550357Y-13251452D01*
X4569405Y-13260976D01*
X4607500Y-13260976D01*
X4626548Y-13251452D01*
X4636071Y-13241928D01*
X4645595Y-13222881D01*
X4645595Y-13184786D01*
X4636071Y-13165738D01*
X4626548Y-13156214D01*
X4607500Y-13146690D01*
X4769405Y-13060976D02*
X4788452Y-13060976D01*
X4807500Y-13070500D01*
X4817024Y-13080024D01*
X4826548Y-13099071D01*
X4836071Y-13137167D01*
X4836071Y-13184786D01*
X4826548Y-13222881D01*
X4817024Y-13241928D01*
X4807500Y-13251452D01*
X4788452Y-13260976D01*
X4769405Y-13260976D01*
X4750357Y-13251452D01*
X4740833Y-13241928D01*
X4731310Y-13222881D01*
X4721786Y-13184786D01*
X4721786Y-13137167D01*
X4731310Y-13099071D01*
X4740833Y-13080024D01*
X4750357Y-13070500D01*
X4769405Y-13060976D01*
X4959881Y-13060976D02*
X4978929Y-13060976D01*
X4997976Y-13070500D01*
X5007500Y-13080024D01*
X5017024Y-13099071D01*
X5026548Y-13137167D01*
X5026548Y-13184786D01*
X5017024Y-13222881D01*
X5007500Y-13241928D01*
X4997976Y-13251452D01*
X4978929Y-13260976D01*
X4959881Y-13260976D01*
X4940833Y-13251452D01*
X4931310Y-13241928D01*
X4921786Y-13222881D01*
X4912262Y-13184786D01*
X4912262Y-13137167D01*
X4921786Y-13099071D01*
X4931310Y-13080024D01*
X4940833Y-13070500D01*
X4959881Y-13060976D01*
X5112262Y-13260976D02*
X5112262Y-13127643D01*
X5112262Y-13146690D02*
X5121786Y-13137167D01*
X5140833Y-13127643D01*
X5169405Y-13127643D01*
X5188452Y-13137167D01*
X5197976Y-13156214D01*
X5197976Y-13260976D01*
X5197976Y-13156214D02*
X5207500Y-13137167D01*
X5226548Y-13127643D01*
X5255119Y-13127643D01*
X5274167Y-13137167D01*
X5283690Y-13156214D01*
X5283690Y-13260976D01*
X5378929Y-13260976D02*
X5378929Y-13127643D01*
X5378929Y-13146690D02*
X5388452Y-13137167D01*
X5407500Y-13127643D01*
X5436071Y-13127643D01*
X5455119Y-13137167D01*
X5464643Y-13156214D01*
X5464643Y-13260976D01*
X5464643Y-13156214D02*
X5474167Y-13137167D01*
X5493214Y-13127643D01*
X5521786Y-13127643D01*
X5540833Y-13137167D01*
X5550357Y-13156214D01*
X5550357Y-13260976D01*
X5940833Y-13051452D02*
X5769405Y-13308595D01*
X6197976Y-13060976D02*
X6217024Y-13060976D01*
X6236071Y-13070500D01*
X6245595Y-13080024D01*
X6255119Y-13099071D01*
X6264643Y-13137167D01*
X6264643Y-13184786D01*
X6255119Y-13222881D01*
X6245595Y-13241928D01*
X6236071Y-13251452D01*
X6217024Y-13260976D01*
X6197976Y-13260976D01*
X6178928Y-13251452D01*
X6169405Y-13241928D01*
X6159881Y-13222881D01*
X6150357Y-13184786D01*
X6150357Y-13137167D01*
X6159881Y-13099071D01*
X6169405Y-13080024D01*
X6178928Y-13070500D01*
X6197976Y-13060976D01*
X6350357Y-13241928D02*
X6359881Y-13251452D01*
X6350357Y-13260976D01*
X6340833Y-13251452D01*
X6350357Y-13241928D01*
X6350357Y-13260976D01*
X6483690Y-13060976D02*
X6502738Y-13060976D01*
X6521786Y-13070500D01*
X6531309Y-13080024D01*
X6540833Y-13099071D01*
X6550357Y-13137167D01*
X6550357Y-13184786D01*
X6540833Y-13222881D01*
X6531309Y-13241928D01*
X6521786Y-13251452D01*
X6502738Y-13260976D01*
X6483690Y-13260976D01*
X6464643Y-13251452D01*
X6455119Y-13241928D01*
X6445595Y-13222881D01*
X6436071Y-13184786D01*
X6436071Y-13137167D01*
X6445595Y-13099071D01*
X6455119Y-13080024D01*
X6464643Y-13070500D01*
X6483690Y-13060976D01*
X6617024Y-13060976D02*
X6740833Y-13060976D01*
X6674167Y-13137167D01*
X6702738Y-13137167D01*
X6721786Y-13146690D01*
X6731309Y-13156214D01*
X6740833Y-13175262D01*
X6740833Y-13222881D01*
X6731309Y-13241928D01*
X6721786Y-13251452D01*
X6702738Y-13260976D01*
X6645595Y-13260976D01*
X6626548Y-13251452D01*
X6617024Y-13241928D01*
X6931309Y-13260976D02*
X6817024Y-13260976D01*
X6874167Y-13260976D02*
X6874167Y-13060976D01*
X6855119Y-13089548D01*
X6836071Y-13108595D01*
X6817024Y-13118119D01*
X7112262Y-13060976D02*
X7017024Y-13060976D01*
X7007500Y-13156214D01*
X7017024Y-13146690D01*
X7036071Y-13137167D01*
X7083690Y-13137167D01*
X7102738Y-13146690D01*
X7112262Y-13156214D01*
X7121786Y-13175262D01*
X7121786Y-13222881D01*
X7112262Y-13241928D01*
X7102738Y-13251452D01*
X7083690Y-13260976D01*
X7036071Y-13260976D01*
X7017024Y-13251452D01*
X7007500Y-13241928D01*
X7197976Y-13060976D02*
X7197976Y-13099071D01*
X7274167Y-13060976D02*
X7274167Y-13099071D01*
X7569405Y-13337167D02*
X7559881Y-13327643D01*
X7540833Y-13299071D01*
X7531309Y-13280024D01*
X7521786Y-13251452D01*
X7512262Y-13203833D01*
X7512262Y-13165738D01*
X7521786Y-13118119D01*
X7531309Y-13089548D01*
X7540833Y-13070500D01*
X7559881Y-13041928D01*
X7569405Y-13032405D01*
X7750357Y-13260976D02*
X7636071Y-13260976D01*
X7693214Y-13260976D02*
X7693214Y-13060976D01*
X7674167Y-13089548D01*
X7655119Y-13108595D01*
X7636071Y-13118119D01*
X7874167Y-13060976D02*
X7893214Y-13060976D01*
X7912262Y-13070500D01*
X7921786Y-13080024D01*
X7931309Y-13099071D01*
X7940833Y-13137167D01*
X7940833Y-13184786D01*
X7931309Y-13222881D01*
X7921786Y-13241928D01*
X7912262Y-13251452D01*
X7893214Y-13260976D01*
X7874167Y-13260976D01*
X7855119Y-13251452D01*
X7845595Y-13241928D01*
X7836071Y-13222881D01*
X7826548Y-13184786D01*
X7826548Y-13137167D01*
X7836071Y-13099071D01*
X7845595Y-13080024D01*
X7855119Y-13070500D01*
X7874167Y-13060976D01*
X8178928Y-13260976D02*
X8178928Y-13060976D01*
X8264643Y-13260976D02*
X8264643Y-13156214D01*
X8255119Y-13137167D01*
X8236071Y-13127643D01*
X8207500Y-13127643D01*
X8188452Y-13137167D01*
X8178928Y-13146690D01*
X8388452Y-13260976D02*
X8369405Y-13251452D01*
X8359881Y-13241928D01*
X8350357Y-13222881D01*
X8350357Y-13165738D01*
X8359881Y-13146690D01*
X8369405Y-13137167D01*
X8388452Y-13127643D01*
X8417024Y-13127643D01*
X8436071Y-13137167D01*
X8445595Y-13146690D01*
X8455119Y-13165738D01*
X8455119Y-13222881D01*
X8445595Y-13241928D01*
X8436071Y-13251452D01*
X8417024Y-13260976D01*
X8388452Y-13260976D01*
X8569405Y-13260976D02*
X8550357Y-13251452D01*
X8540833Y-13232405D01*
X8540833Y-13060976D01*
X8721786Y-13251452D02*
X8702738Y-13260976D01*
X8664643Y-13260976D01*
X8645595Y-13251452D01*
X8636071Y-13232405D01*
X8636071Y-13156214D01*
X8645595Y-13137167D01*
X8664643Y-13127643D01*
X8702738Y-13127643D01*
X8721786Y-13137167D01*
X8731310Y-13156214D01*
X8731310Y-13175262D01*
X8636071Y-13194309D01*
X8807500Y-13251452D02*
X8826548Y-13260976D01*
X8864643Y-13260976D01*
X8883690Y-13251452D01*
X8893214Y-13232405D01*
X8893214Y-13222881D01*
X8883690Y-13203833D01*
X8864643Y-13194309D01*
X8836071Y-13194309D01*
X8817024Y-13184786D01*
X8807500Y-13165738D01*
X8807500Y-13156214D01*
X8817024Y-13137167D01*
X8836071Y-13127643D01*
X8864643Y-13127643D01*
X8883690Y-13137167D01*
X8959881Y-13337167D02*
X8969405Y-13327643D01*
X8988452Y-13299071D01*
X8997976Y-13280024D01*
X9007500Y-13251452D01*
X9017024Y-13203833D01*
X9017024Y-13165738D01*
X9007500Y-13118119D01*
X8997976Y-13089548D01*
X8988452Y-13070500D01*
X8969405Y-13041928D01*
X8959881Y-13032405D01*
D15*
X3985638Y-13463138D02*
X3985638Y-13405862D01*
X3928362Y-13405862D01*
X3928362Y-13463138D01*
X3985638Y-13463138D01*
D11*
X4293214Y-13324976D02*
X4312262Y-13324976D01*
X4331310Y-13334500D01*
X4340833Y-13344024D01*
X4350357Y-13363071D01*
X4359881Y-13401167D01*
X4359881Y-13448786D01*
X4350357Y-13486881D01*
X4340833Y-13505928D01*
X4331310Y-13515452D01*
X4312262Y-13524976D01*
X4293214Y-13524976D01*
X4274167Y-13515452D01*
X4264643Y-13505928D01*
X4255119Y-13486881D01*
X4245595Y-13448786D01*
X4245595Y-13401167D01*
X4255119Y-13363071D01*
X4264643Y-13344024D01*
X4274167Y-13334500D01*
X4293214Y-13324976D01*
X4445595Y-13505928D02*
X4455119Y-13515452D01*
X4445595Y-13524976D01*
X4436071Y-13515452D01*
X4445595Y-13505928D01*
X4445595Y-13524976D01*
X4569405Y-13410690D02*
X4550357Y-13401167D01*
X4540833Y-13391643D01*
X4531310Y-13372595D01*
X4531310Y-13363071D01*
X4540833Y-13344024D01*
X4550357Y-13334500D01*
X4569405Y-13324976D01*
X4607500Y-13324976D01*
X4626548Y-13334500D01*
X4636071Y-13344024D01*
X4645595Y-13363071D01*
X4645595Y-13372595D01*
X4636071Y-13391643D01*
X4626548Y-13401167D01*
X4607500Y-13410690D01*
X4569405Y-13410690D01*
X4550357Y-13420214D01*
X4540833Y-13429738D01*
X4531310Y-13448786D01*
X4531310Y-13486881D01*
X4540833Y-13505928D01*
X4550357Y-13515452D01*
X4569405Y-13524976D01*
X4607500Y-13524976D01*
X4626548Y-13515452D01*
X4636071Y-13505928D01*
X4645595Y-13486881D01*
X4645595Y-13448786D01*
X4636071Y-13429738D01*
X4626548Y-13420214D01*
X4607500Y-13410690D01*
X4836071Y-13524976D02*
X4721786Y-13524976D01*
X4778929Y-13524976D02*
X4778929Y-13324976D01*
X4759881Y-13353548D01*
X4740833Y-13372595D01*
X4721786Y-13382119D01*
X4959881Y-13324976D02*
X4978929Y-13324976D01*
X4997976Y-13334500D01*
X5007500Y-13344024D01*
X5017024Y-13363071D01*
X5026548Y-13401167D01*
X5026548Y-13448786D01*
X5017024Y-13486881D01*
X5007500Y-13505928D01*
X4997976Y-13515452D01*
X4978929Y-13524976D01*
X4959881Y-13524976D01*
X4940833Y-13515452D01*
X4931310Y-13505928D01*
X4921786Y-13486881D01*
X4912262Y-13448786D01*
X4912262Y-13401167D01*
X4921786Y-13363071D01*
X4931310Y-13344024D01*
X4940833Y-13334500D01*
X4959881Y-13324976D01*
X5112262Y-13524976D02*
X5112262Y-13391643D01*
X5112262Y-13410690D02*
X5121786Y-13401167D01*
X5140833Y-13391643D01*
X5169405Y-13391643D01*
X5188452Y-13401167D01*
X5197976Y-13420214D01*
X5197976Y-13524976D01*
X5197976Y-13420214D02*
X5207500Y-13401167D01*
X5226548Y-13391643D01*
X5255119Y-13391643D01*
X5274167Y-13401167D01*
X5283690Y-13420214D01*
X5283690Y-13524976D01*
X5378929Y-13524976D02*
X5378929Y-13391643D01*
X5378929Y-13410690D02*
X5388452Y-13401167D01*
X5407500Y-13391643D01*
X5436071Y-13391643D01*
X5455119Y-13401167D01*
X5464643Y-13420214D01*
X5464643Y-13524976D01*
X5464643Y-13420214D02*
X5474167Y-13401167D01*
X5493214Y-13391643D01*
X5521786Y-13391643D01*
X5540833Y-13401167D01*
X5550357Y-13420214D01*
X5550357Y-13524976D01*
X5940833Y-13315452D02*
X5769405Y-13572595D01*
X6197976Y-13324976D02*
X6217024Y-13324976D01*
X6236071Y-13334500D01*
X6245595Y-13344024D01*
X6255119Y-13363071D01*
X6264643Y-13401167D01*
X6264643Y-13448786D01*
X6255119Y-13486881D01*
X6245595Y-13505928D01*
X6236071Y-13515452D01*
X6217024Y-13524976D01*
X6197976Y-13524976D01*
X6178928Y-13515452D01*
X6169405Y-13505928D01*
X6159881Y-13486881D01*
X6150357Y-13448786D01*
X6150357Y-13401167D01*
X6159881Y-13363071D01*
X6169405Y-13344024D01*
X6178928Y-13334500D01*
X6197976Y-13324976D01*
X6350357Y-13505928D02*
X6359881Y-13515452D01*
X6350357Y-13524976D01*
X6340833Y-13515452D01*
X6350357Y-13505928D01*
X6350357Y-13524976D01*
X6483690Y-13324976D02*
X6502738Y-13324976D01*
X6521786Y-13334500D01*
X6531309Y-13344024D01*
X6540833Y-13363071D01*
X6550357Y-13401167D01*
X6550357Y-13448786D01*
X6540833Y-13486881D01*
X6531309Y-13505928D01*
X6521786Y-13515452D01*
X6502738Y-13524976D01*
X6483690Y-13524976D01*
X6464643Y-13515452D01*
X6455119Y-13505928D01*
X6445595Y-13486881D01*
X6436071Y-13448786D01*
X6436071Y-13401167D01*
X6445595Y-13363071D01*
X6455119Y-13344024D01*
X6464643Y-13334500D01*
X6483690Y-13324976D01*
X6617024Y-13324976D02*
X6740833Y-13324976D01*
X6674167Y-13401167D01*
X6702738Y-13401167D01*
X6721786Y-13410690D01*
X6731309Y-13420214D01*
X6740833Y-13439262D01*
X6740833Y-13486881D01*
X6731309Y-13505928D01*
X6721786Y-13515452D01*
X6702738Y-13524976D01*
X6645595Y-13524976D01*
X6626548Y-13515452D01*
X6617024Y-13505928D01*
X6931309Y-13524976D02*
X6817024Y-13524976D01*
X6874167Y-13524976D02*
X6874167Y-13324976D01*
X6855119Y-13353548D01*
X6836071Y-13372595D01*
X6817024Y-13382119D01*
X7026548Y-13524976D02*
X7064643Y-13524976D01*
X7083690Y-13515452D01*
X7093214Y-13505928D01*
X7112262Y-13477357D01*
X7121786Y-13439262D01*
X7121786Y-13363071D01*
X7112262Y-13344024D01*
X7102738Y-13334500D01*
X7083690Y-13324976D01*
X7045595Y-13324976D01*
X7026548Y-13334500D01*
X7017024Y-13344024D01*
X7007500Y-13363071D01*
X7007500Y-13410690D01*
X7017024Y-13429738D01*
X7026548Y-13439262D01*
X7045595Y-13448786D01*
X7083690Y-13448786D01*
X7102738Y-13439262D01*
X7112262Y-13429738D01*
X7121786Y-13410690D01*
X7197976Y-13324976D02*
X7197976Y-13363071D01*
X7274167Y-13324976D02*
X7274167Y-13363071D01*
X7569405Y-13601167D02*
X7559881Y-13591643D01*
X7540833Y-13563071D01*
X7531309Y-13544024D01*
X7521786Y-13515452D01*
X7512262Y-13467833D01*
X7512262Y-13429738D01*
X7521786Y-13382119D01*
X7531309Y-13353548D01*
X7540833Y-13334500D01*
X7559881Y-13305928D01*
X7569405Y-13296405D01*
X7626548Y-13324976D02*
X7750357Y-13324976D01*
X7683690Y-13401167D01*
X7712262Y-13401167D01*
X7731309Y-13410690D01*
X7740833Y-13420214D01*
X7750357Y-13439262D01*
X7750357Y-13486881D01*
X7740833Y-13505928D01*
X7731309Y-13515452D01*
X7712262Y-13524976D01*
X7655119Y-13524976D01*
X7636071Y-13515452D01*
X7626548Y-13505928D01*
X7826548Y-13344024D02*
X7836071Y-13334500D01*
X7855119Y-13324976D01*
X7902738Y-13324976D01*
X7921786Y-13334500D01*
X7931309Y-13344024D01*
X7940833Y-13363071D01*
X7940833Y-13382119D01*
X7931309Y-13410690D01*
X7817024Y-13524976D01*
X7940833Y-13524976D01*
X8178928Y-13524976D02*
X8178928Y-13324976D01*
X8264643Y-13524976D02*
X8264643Y-13420214D01*
X8255119Y-13401167D01*
X8236071Y-13391643D01*
X8207500Y-13391643D01*
X8188452Y-13401167D01*
X8178928Y-13410690D01*
X8388452Y-13524976D02*
X8369405Y-13515452D01*
X8359881Y-13505928D01*
X8350357Y-13486881D01*
X8350357Y-13429738D01*
X8359881Y-13410690D01*
X8369405Y-13401167D01*
X8388452Y-13391643D01*
X8417024Y-13391643D01*
X8436071Y-13401167D01*
X8445595Y-13410690D01*
X8455119Y-13429738D01*
X8455119Y-13486881D01*
X8445595Y-13505928D01*
X8436071Y-13515452D01*
X8417024Y-13524976D01*
X8388452Y-13524976D01*
X8569405Y-13524976D02*
X8550357Y-13515452D01*
X8540833Y-13496405D01*
X8540833Y-13324976D01*
X8721786Y-13515452D02*
X8702738Y-13524976D01*
X8664643Y-13524976D01*
X8645595Y-13515452D01*
X8636071Y-13496405D01*
X8636071Y-13420214D01*
X8645595Y-13401167D01*
X8664643Y-13391643D01*
X8702738Y-13391643D01*
X8721786Y-13401167D01*
X8731310Y-13420214D01*
X8731310Y-13439262D01*
X8636071Y-13458309D01*
X8807500Y-13515452D02*
X8826548Y-13524976D01*
X8864643Y-13524976D01*
X8883690Y-13515452D01*
X8893214Y-13496405D01*
X8893214Y-13486881D01*
X8883690Y-13467833D01*
X8864643Y-13458309D01*
X8836071Y-13458309D01*
X8817024Y-13448786D01*
X8807500Y-13429738D01*
X8807500Y-13420214D01*
X8817024Y-13401167D01*
X8836071Y-13391643D01*
X8864643Y-13391643D01*
X8883690Y-13401167D01*
X8959881Y-13601167D02*
X8969405Y-13591643D01*
X8988452Y-13563071D01*
X8997976Y-13544024D01*
X9007500Y-13515452D01*
X9017024Y-13467833D01*
X9017024Y-13429738D01*
X9007500Y-13382119D01*
X8997976Y-13353548D01*
X8988452Y-13334500D01*
X8969405Y-13305928D01*
X8959881Y-13296405D01*
D16*
X3950000Y-13746000D02*
X3997500Y-13698500D01*
X3950000Y-13651000D01*
X3902500Y-13698500D01*
X3950000Y-13746000D01*
D11*
X4293214Y-13588976D02*
X4312262Y-13588976D01*
X4331310Y-13598500D01*
X4340833Y-13608024D01*
X4350357Y-13627071D01*
X4359881Y-13665167D01*
X4359881Y-13712786D01*
X4350357Y-13750881D01*
X4340833Y-13769928D01*
X4331310Y-13779452D01*
X4312262Y-13788976D01*
X4293214Y-13788976D01*
X4274167Y-13779452D01*
X4264643Y-13769928D01*
X4255119Y-13750881D01*
X4245595Y-13712786D01*
X4245595Y-13665167D01*
X4255119Y-13627071D01*
X4264643Y-13608024D01*
X4274167Y-13598500D01*
X4293214Y-13588976D01*
X4445595Y-13769928D02*
X4455119Y-13779452D01*
X4445595Y-13788976D01*
X4436071Y-13779452D01*
X4445595Y-13769928D01*
X4445595Y-13788976D01*
X4550357Y-13788976D02*
X4588452Y-13788976D01*
X4607500Y-13779452D01*
X4617024Y-13769928D01*
X4636071Y-13741357D01*
X4645595Y-13703262D01*
X4645595Y-13627071D01*
X4636071Y-13608024D01*
X4626548Y-13598500D01*
X4607500Y-13588976D01*
X4569405Y-13588976D01*
X4550357Y-13598500D01*
X4540833Y-13608024D01*
X4531310Y-13627071D01*
X4531310Y-13674690D01*
X4540833Y-13693738D01*
X4550357Y-13703262D01*
X4569405Y-13712786D01*
X4607500Y-13712786D01*
X4626548Y-13703262D01*
X4636071Y-13693738D01*
X4645595Y-13674690D01*
X4826548Y-13588976D02*
X4731310Y-13588976D01*
X4721786Y-13684214D01*
X4731310Y-13674690D01*
X4750357Y-13665167D01*
X4797976Y-13665167D01*
X4817024Y-13674690D01*
X4826548Y-13684214D01*
X4836071Y-13703262D01*
X4836071Y-13750881D01*
X4826548Y-13769928D01*
X4817024Y-13779452D01*
X4797976Y-13788976D01*
X4750357Y-13788976D01*
X4731310Y-13779452D01*
X4721786Y-13769928D01*
X4959881Y-13588976D02*
X4978929Y-13588976D01*
X4997976Y-13598500D01*
X5007500Y-13608024D01*
X5017024Y-13627071D01*
X5026548Y-13665167D01*
X5026548Y-13712786D01*
X5017024Y-13750881D01*
X5007500Y-13769928D01*
X4997976Y-13779452D01*
X4978929Y-13788976D01*
X4959881Y-13788976D01*
X4940833Y-13779452D01*
X4931310Y-13769928D01*
X4921786Y-13750881D01*
X4912262Y-13712786D01*
X4912262Y-13665167D01*
X4921786Y-13627071D01*
X4931310Y-13608024D01*
X4940833Y-13598500D01*
X4959881Y-13588976D01*
X5112262Y-13788976D02*
X5112262Y-13655643D01*
X5112262Y-13674690D02*
X5121786Y-13665167D01*
X5140833Y-13655643D01*
X5169405Y-13655643D01*
X5188452Y-13665167D01*
X5197976Y-13684214D01*
X5197976Y-13788976D01*
X5197976Y-13684214D02*
X5207500Y-13665167D01*
X5226548Y-13655643D01*
X5255119Y-13655643D01*
X5274167Y-13665167D01*
X5283690Y-13684214D01*
X5283690Y-13788976D01*
X5378929Y-13788976D02*
X5378929Y-13655643D01*
X5378929Y-13674690D02*
X5388452Y-13665167D01*
X5407500Y-13655643D01*
X5436071Y-13655643D01*
X5455119Y-13665167D01*
X5464643Y-13684214D01*
X5464643Y-13788976D01*
X5464643Y-13684214D02*
X5474167Y-13665167D01*
X5493214Y-13655643D01*
X5521786Y-13655643D01*
X5540833Y-13665167D01*
X5550357Y-13684214D01*
X5550357Y-13788976D01*
X5940833Y-13579452D02*
X5769405Y-13836595D01*
X6197976Y-13588976D02*
X6217024Y-13588976D01*
X6236071Y-13598500D01*
X6245595Y-13608024D01*
X6255119Y-13627071D01*
X6264643Y-13665167D01*
X6264643Y-13712786D01*
X6255119Y-13750881D01*
X6245595Y-13769928D01*
X6236071Y-13779452D01*
X6217024Y-13788976D01*
X6197976Y-13788976D01*
X6178928Y-13779452D01*
X6169405Y-13769928D01*
X6159881Y-13750881D01*
X6150357Y-13712786D01*
X6150357Y-13665167D01*
X6159881Y-13627071D01*
X6169405Y-13608024D01*
X6178928Y-13598500D01*
X6197976Y-13588976D01*
X6350357Y-13769928D02*
X6359881Y-13779452D01*
X6350357Y-13788976D01*
X6340833Y-13779452D01*
X6350357Y-13769928D01*
X6350357Y-13788976D01*
X6483690Y-13588976D02*
X6502738Y-13588976D01*
X6521786Y-13598500D01*
X6531309Y-13608024D01*
X6540833Y-13627071D01*
X6550357Y-13665167D01*
X6550357Y-13712786D01*
X6540833Y-13750881D01*
X6531309Y-13769928D01*
X6521786Y-13779452D01*
X6502738Y-13788976D01*
X6483690Y-13788976D01*
X6464643Y-13779452D01*
X6455119Y-13769928D01*
X6445595Y-13750881D01*
X6436071Y-13712786D01*
X6436071Y-13665167D01*
X6445595Y-13627071D01*
X6455119Y-13608024D01*
X6464643Y-13598500D01*
X6483690Y-13588976D01*
X6617024Y-13588976D02*
X6740833Y-13588976D01*
X6674167Y-13665167D01*
X6702738Y-13665167D01*
X6721786Y-13674690D01*
X6731309Y-13684214D01*
X6740833Y-13703262D01*
X6740833Y-13750881D01*
X6731309Y-13769928D01*
X6721786Y-13779452D01*
X6702738Y-13788976D01*
X6645595Y-13788976D01*
X6626548Y-13779452D01*
X6617024Y-13769928D01*
X6807500Y-13588976D02*
X6940833Y-13588976D01*
X6855119Y-13788976D01*
X7102738Y-13655643D02*
X7102738Y-13788976D01*
X7055119Y-13579452D02*
X7007500Y-13722309D01*
X7131309Y-13722309D01*
X7197976Y-13588976D02*
X7197976Y-13627071D01*
X7274167Y-13588976D02*
X7274167Y-13627071D01*
X7569405Y-13865167D02*
X7559881Y-13855643D01*
X7540833Y-13827071D01*
X7531309Y-13808024D01*
X7521786Y-13779452D01*
X7512262Y-13731833D01*
X7512262Y-13693738D01*
X7521786Y-13646119D01*
X7531309Y-13617548D01*
X7540833Y-13598500D01*
X7559881Y-13569928D01*
X7569405Y-13560405D01*
X7636071Y-13608024D02*
X7645595Y-13598500D01*
X7664643Y-13588976D01*
X7712262Y-13588976D01*
X7731309Y-13598500D01*
X7740833Y-13608024D01*
X7750357Y-13627071D01*
X7750357Y-13646119D01*
X7740833Y-13674690D01*
X7626548Y-13788976D01*
X7750357Y-13788976D01*
X7931309Y-13588976D02*
X7836071Y-13588976D01*
X7826548Y-13684214D01*
X7836071Y-13674690D01*
X7855119Y-13665167D01*
X7902738Y-13665167D01*
X7921786Y-13674690D01*
X7931309Y-13684214D01*
X7940833Y-13703262D01*
X7940833Y-13750881D01*
X7931309Y-13769928D01*
X7921786Y-13779452D01*
X7902738Y-13788976D01*
X7855119Y-13788976D01*
X7836071Y-13779452D01*
X7826548Y-13769928D01*
X8178928Y-13788976D02*
X8178928Y-13588976D01*
X8264643Y-13788976D02*
X8264643Y-13684214D01*
X8255119Y-13665167D01*
X8236071Y-13655643D01*
X8207500Y-13655643D01*
X8188452Y-13665167D01*
X8178928Y-13674690D01*
X8388452Y-13788976D02*
X8369405Y-13779452D01*
X8359881Y-13769928D01*
X8350357Y-13750881D01*
X8350357Y-13693738D01*
X8359881Y-13674690D01*
X8369405Y-13665167D01*
X8388452Y-13655643D01*
X8417024Y-13655643D01*
X8436071Y-13665167D01*
X8445595Y-13674690D01*
X8455119Y-13693738D01*
X8455119Y-13750881D01*
X8445595Y-13769928D01*
X8436071Y-13779452D01*
X8417024Y-13788976D01*
X8388452Y-13788976D01*
X8569405Y-13788976D02*
X8550357Y-13779452D01*
X8540833Y-13760405D01*
X8540833Y-13588976D01*
X8721786Y-13779452D02*
X8702738Y-13788976D01*
X8664643Y-13788976D01*
X8645595Y-13779452D01*
X8636071Y-13760405D01*
X8636071Y-13684214D01*
X8645595Y-13665167D01*
X8664643Y-13655643D01*
X8702738Y-13655643D01*
X8721786Y-13665167D01*
X8731310Y-13684214D01*
X8731310Y-13703262D01*
X8636071Y-13722309D01*
X8807500Y-13779452D02*
X8826548Y-13788976D01*
X8864643Y-13788976D01*
X8883690Y-13779452D01*
X8893214Y-13760405D01*
X8893214Y-13750881D01*
X8883690Y-13731833D01*
X8864643Y-13722309D01*
X8836071Y-13722309D01*
X8817024Y-13712786D01*
X8807500Y-13693738D01*
X8807500Y-13684214D01*
X8817024Y-13665167D01*
X8836071Y-13655643D01*
X8864643Y-13655643D01*
X8883690Y-13665167D01*
X8959881Y-13865167D02*
X8969405Y-13855643D01*
X8988452Y-13827071D01*
X8997976Y-13808024D01*
X9007500Y-13779452D01*
X9017024Y-13731833D01*
X9017024Y-13693738D01*
X9007500Y-13646119D01*
X8997976Y-13617548D01*
X8988452Y-13598500D01*
X8969405Y-13569928D01*
X8959881Y-13560405D01*
D17*
X3897500Y-13912500D02*
X3997500Y-14012500D01*
X3997500Y-13912500D02*
X3897500Y-14012500D01*
X3997500Y-13962500D02*
G75*
G03*
X3997500Y-13962500I-50000J0D01*
G01*
D11*
X4359881Y-14052976D02*
X4245595Y-14052976D01*
X4302738Y-14052976D02*
X4302738Y-13852976D01*
X4283690Y-13881548D01*
X4264643Y-13900595D01*
X4245595Y-13910119D01*
X4445595Y-14033928D02*
X4455119Y-14043452D01*
X4445595Y-14052976D01*
X4436071Y-14043452D01*
X4445595Y-14033928D01*
X4445595Y-14052976D01*
X4578929Y-13852976D02*
X4597976Y-13852976D01*
X4617024Y-13862500D01*
X4626548Y-13872024D01*
X4636071Y-13891071D01*
X4645595Y-13929167D01*
X4645595Y-13976786D01*
X4636071Y-14014881D01*
X4626548Y-14033928D01*
X4617024Y-14043452D01*
X4597976Y-14052976D01*
X4578929Y-14052976D01*
X4559881Y-14043452D01*
X4550357Y-14033928D01*
X4540833Y-14014881D01*
X4531310Y-13976786D01*
X4531310Y-13929167D01*
X4540833Y-13891071D01*
X4550357Y-13872024D01*
X4559881Y-13862500D01*
X4578929Y-13852976D01*
X4769405Y-13852976D02*
X4788452Y-13852976D01*
X4807500Y-13862500D01*
X4817024Y-13872024D01*
X4826548Y-13891071D01*
X4836071Y-13929167D01*
X4836071Y-13976786D01*
X4826548Y-14014881D01*
X4817024Y-14033928D01*
X4807500Y-14043452D01*
X4788452Y-14052976D01*
X4769405Y-14052976D01*
X4750357Y-14043452D01*
X4740833Y-14033928D01*
X4731310Y-14014881D01*
X4721786Y-13976786D01*
X4721786Y-13929167D01*
X4731310Y-13891071D01*
X4740833Y-13872024D01*
X4750357Y-13862500D01*
X4769405Y-13852976D01*
X4959881Y-13852976D02*
X4978929Y-13852976D01*
X4997976Y-13862500D01*
X5007500Y-13872024D01*
X5017024Y-13891071D01*
X5026548Y-13929167D01*
X5026548Y-13976786D01*
X5017024Y-14014881D01*
X5007500Y-14033928D01*
X4997976Y-14043452D01*
X4978929Y-14052976D01*
X4959881Y-14052976D01*
X4940833Y-14043452D01*
X4931310Y-14033928D01*
X4921786Y-14014881D01*
X4912262Y-13976786D01*
X4912262Y-13929167D01*
X4921786Y-13891071D01*
X4931310Y-13872024D01*
X4940833Y-13862500D01*
X4959881Y-13852976D01*
X5112262Y-14052976D02*
X5112262Y-13919643D01*
X5112262Y-13938690D02*
X5121786Y-13929167D01*
X5140833Y-13919643D01*
X5169405Y-13919643D01*
X5188452Y-13929167D01*
X5197976Y-13948214D01*
X5197976Y-14052976D01*
X5197976Y-13948214D02*
X5207500Y-13929167D01*
X5226548Y-13919643D01*
X5255119Y-13919643D01*
X5274167Y-13929167D01*
X5283690Y-13948214D01*
X5283690Y-14052976D01*
X5378929Y-14052976D02*
X5378929Y-13919643D01*
X5378929Y-13938690D02*
X5388452Y-13929167D01*
X5407500Y-13919643D01*
X5436071Y-13919643D01*
X5455119Y-13929167D01*
X5464643Y-13948214D01*
X5464643Y-14052976D01*
X5464643Y-13948214D02*
X5474167Y-13929167D01*
X5493214Y-13919643D01*
X5521786Y-13919643D01*
X5540833Y-13929167D01*
X5550357Y-13948214D01*
X5550357Y-14052976D01*
X5940833Y-13843452D02*
X5769405Y-14100595D01*
X6197976Y-13852976D02*
X6217024Y-13852976D01*
X6236071Y-13862500D01*
X6245595Y-13872024D01*
X6255119Y-13891071D01*
X6264643Y-13929167D01*
X6264643Y-13976786D01*
X6255119Y-14014881D01*
X6245595Y-14033928D01*
X6236071Y-14043452D01*
X6217024Y-14052976D01*
X6197976Y-14052976D01*
X6178928Y-14043452D01*
X6169405Y-14033928D01*
X6159881Y-14014881D01*
X6150357Y-13976786D01*
X6150357Y-13929167D01*
X6159881Y-13891071D01*
X6169405Y-13872024D01*
X6178928Y-13862500D01*
X6197976Y-13852976D01*
X6350357Y-14033928D02*
X6359881Y-14043452D01*
X6350357Y-14052976D01*
X6340833Y-14043452D01*
X6350357Y-14033928D01*
X6350357Y-14052976D01*
X6483690Y-13852976D02*
X6502738Y-13852976D01*
X6521786Y-13862500D01*
X6531309Y-13872024D01*
X6540833Y-13891071D01*
X6550357Y-13929167D01*
X6550357Y-13976786D01*
X6540833Y-14014881D01*
X6531309Y-14033928D01*
X6521786Y-14043452D01*
X6502738Y-14052976D01*
X6483690Y-14052976D01*
X6464643Y-14043452D01*
X6455119Y-14033928D01*
X6445595Y-14014881D01*
X6436071Y-13976786D01*
X6436071Y-13929167D01*
X6445595Y-13891071D01*
X6455119Y-13872024D01*
X6464643Y-13862500D01*
X6483690Y-13852976D01*
X6617024Y-13852976D02*
X6740833Y-13852976D01*
X6674167Y-13929167D01*
X6702738Y-13929167D01*
X6721786Y-13938690D01*
X6731309Y-13948214D01*
X6740833Y-13967262D01*
X6740833Y-14014881D01*
X6731309Y-14033928D01*
X6721786Y-14043452D01*
X6702738Y-14052976D01*
X6645595Y-14052976D01*
X6626548Y-14043452D01*
X6617024Y-14033928D01*
X6836071Y-14052976D02*
X6874167Y-14052976D01*
X6893214Y-14043452D01*
X6902738Y-14033928D01*
X6921786Y-14005357D01*
X6931309Y-13967262D01*
X6931309Y-13891071D01*
X6921786Y-13872024D01*
X6912262Y-13862500D01*
X6893214Y-13852976D01*
X6855119Y-13852976D01*
X6836071Y-13862500D01*
X6826548Y-13872024D01*
X6817024Y-13891071D01*
X6817024Y-13938690D01*
X6826548Y-13957738D01*
X6836071Y-13967262D01*
X6855119Y-13976786D01*
X6893214Y-13976786D01*
X6912262Y-13967262D01*
X6921786Y-13957738D01*
X6931309Y-13938690D01*
X7102738Y-13919643D02*
X7102738Y-14052976D01*
X7055119Y-13843452D02*
X7007500Y-13986309D01*
X7131309Y-13986309D01*
X7197976Y-13852976D02*
X7197976Y-13891071D01*
X7274167Y-13852976D02*
X7274167Y-13891071D01*
X7569405Y-14129167D02*
X7559881Y-14119643D01*
X7540833Y-14091071D01*
X7531309Y-14072024D01*
X7521786Y-14043452D01*
X7512262Y-13995833D01*
X7512262Y-13957738D01*
X7521786Y-13910119D01*
X7531309Y-13881548D01*
X7540833Y-13862500D01*
X7559881Y-13833928D01*
X7569405Y-13824405D01*
X7655119Y-14052976D02*
X7693214Y-14052976D01*
X7712262Y-14043452D01*
X7721786Y-14033928D01*
X7740833Y-14005357D01*
X7750357Y-13967262D01*
X7750357Y-13891071D01*
X7740833Y-13872024D01*
X7731309Y-13862500D01*
X7712262Y-13852976D01*
X7674167Y-13852976D01*
X7655119Y-13862500D01*
X7645595Y-13872024D01*
X7636071Y-13891071D01*
X7636071Y-13938690D01*
X7645595Y-13957738D01*
X7655119Y-13967262D01*
X7674167Y-13976786D01*
X7712262Y-13976786D01*
X7731309Y-13967262D01*
X7740833Y-13957738D01*
X7750357Y-13938690D01*
X7988452Y-14052976D02*
X7988452Y-13852976D01*
X8074167Y-14052976D02*
X8074167Y-13948214D01*
X8064643Y-13929167D01*
X8045595Y-13919643D01*
X8017024Y-13919643D01*
X7997976Y-13929167D01*
X7988452Y-13938690D01*
X8197976Y-14052976D02*
X8178928Y-14043452D01*
X8169405Y-14033928D01*
X8159881Y-14014881D01*
X8159881Y-13957738D01*
X8169405Y-13938690D01*
X8178928Y-13929167D01*
X8197976Y-13919643D01*
X8226548Y-13919643D01*
X8245595Y-13929167D01*
X8255119Y-13938690D01*
X8264643Y-13957738D01*
X8264643Y-14014881D01*
X8255119Y-14033928D01*
X8245595Y-14043452D01*
X8226548Y-14052976D01*
X8197976Y-14052976D01*
X8378928Y-14052976D02*
X8359881Y-14043452D01*
X8350357Y-14024405D01*
X8350357Y-13852976D01*
X8531310Y-14043452D02*
X8512262Y-14052976D01*
X8474167Y-14052976D01*
X8455119Y-14043452D01*
X8445595Y-14024405D01*
X8445595Y-13948214D01*
X8455119Y-13929167D01*
X8474167Y-13919643D01*
X8512262Y-13919643D01*
X8531310Y-13929167D01*
X8540833Y-13948214D01*
X8540833Y-13967262D01*
X8445595Y-13986309D01*
X8617024Y-14043452D02*
X8636071Y-14052976D01*
X8674167Y-14052976D01*
X8693214Y-14043452D01*
X8702738Y-14024405D01*
X8702738Y-14014881D01*
X8693214Y-13995833D01*
X8674167Y-13986309D01*
X8645595Y-13986309D01*
X8626548Y-13976786D01*
X8617024Y-13957738D01*
X8617024Y-13948214D01*
X8626548Y-13929167D01*
X8645595Y-13919643D01*
X8674167Y-13919643D01*
X8693214Y-13929167D01*
X8769405Y-14129167D02*
X8778929Y-14119643D01*
X8797976Y-14091071D01*
X8807500Y-14072024D01*
X8817024Y-14043452D01*
X8826548Y-13995833D01*
X8826548Y-13957738D01*
X8817024Y-13910119D01*
X8807500Y-13881548D01*
X8797976Y-13862500D01*
X8778929Y-13833928D01*
X8769405Y-13824405D01*
D18*
X3887500Y-14171500D02*
X3997500Y-14281500D01*
X3997500Y-14171500D02*
X3887500Y-14281500D01*
X3942500Y-14171500D02*
X3942500Y-14281500D01*
X3887500Y-14226500D02*
X3997500Y-14226500D01*
D11*
X4359881Y-14316976D02*
X4245595Y-14316976D01*
X4302738Y-14316976D02*
X4302738Y-14116976D01*
X4283690Y-14145548D01*
X4264643Y-14164595D01*
X4245595Y-14174119D01*
X4445595Y-14297928D02*
X4455119Y-14307452D01*
X4445595Y-14316976D01*
X4436071Y-14307452D01*
X4445595Y-14297928D01*
X4445595Y-14316976D01*
X4645595Y-14316976D02*
X4531310Y-14316976D01*
X4588452Y-14316976D02*
X4588452Y-14116976D01*
X4569405Y-14145548D01*
X4550357Y-14164595D01*
X4531310Y-14174119D01*
X4769405Y-14116976D02*
X4788452Y-14116976D01*
X4807500Y-14126500D01*
X4817024Y-14136024D01*
X4826548Y-14155071D01*
X4836071Y-14193167D01*
X4836071Y-14240786D01*
X4826548Y-14278881D01*
X4817024Y-14297928D01*
X4807500Y-14307452D01*
X4788452Y-14316976D01*
X4769405Y-14316976D01*
X4750357Y-14307452D01*
X4740833Y-14297928D01*
X4731310Y-14278881D01*
X4721786Y-14240786D01*
X4721786Y-14193167D01*
X4731310Y-14155071D01*
X4740833Y-14136024D01*
X4750357Y-14126500D01*
X4769405Y-14116976D01*
X4959881Y-14116976D02*
X4978929Y-14116976D01*
X4997976Y-14126500D01*
X5007500Y-14136024D01*
X5017024Y-14155071D01*
X5026548Y-14193167D01*
X5026548Y-14240786D01*
X5017024Y-14278881D01*
X5007500Y-14297928D01*
X4997976Y-14307452D01*
X4978929Y-14316976D01*
X4959881Y-14316976D01*
X4940833Y-14307452D01*
X4931310Y-14297928D01*
X4921786Y-14278881D01*
X4912262Y-14240786D01*
X4912262Y-14193167D01*
X4921786Y-14155071D01*
X4931310Y-14136024D01*
X4940833Y-14126500D01*
X4959881Y-14116976D01*
X5112262Y-14316976D02*
X5112262Y-14183643D01*
X5112262Y-14202690D02*
X5121786Y-14193167D01*
X5140833Y-14183643D01*
X5169405Y-14183643D01*
X5188452Y-14193167D01*
X5197976Y-14212214D01*
X5197976Y-14316976D01*
X5197976Y-14212214D02*
X5207500Y-14193167D01*
X5226548Y-14183643D01*
X5255119Y-14183643D01*
X5274167Y-14193167D01*
X5283690Y-14212214D01*
X5283690Y-14316976D01*
X5378929Y-14316976D02*
X5378929Y-14183643D01*
X5378929Y-14202690D02*
X5388452Y-14193167D01*
X5407500Y-14183643D01*
X5436071Y-14183643D01*
X5455119Y-14193167D01*
X5464643Y-14212214D01*
X5464643Y-14316976D01*
X5464643Y-14212214D02*
X5474167Y-14193167D01*
X5493214Y-14183643D01*
X5521786Y-14183643D01*
X5540833Y-14193167D01*
X5550357Y-14212214D01*
X5550357Y-14316976D01*
X5940833Y-14107452D02*
X5769405Y-14364595D01*
X6197976Y-14116976D02*
X6217024Y-14116976D01*
X6236071Y-14126500D01*
X6245595Y-14136024D01*
X6255119Y-14155071D01*
X6264643Y-14193167D01*
X6264643Y-14240786D01*
X6255119Y-14278881D01*
X6245595Y-14297928D01*
X6236071Y-14307452D01*
X6217024Y-14316976D01*
X6197976Y-14316976D01*
X6178928Y-14307452D01*
X6169405Y-14297928D01*
X6159881Y-14278881D01*
X6150357Y-14240786D01*
X6150357Y-14193167D01*
X6159881Y-14155071D01*
X6169405Y-14136024D01*
X6178928Y-14126500D01*
X6197976Y-14116976D01*
X6350357Y-14297928D02*
X6359881Y-14307452D01*
X6350357Y-14316976D01*
X6340833Y-14307452D01*
X6350357Y-14297928D01*
X6350357Y-14316976D01*
X6483690Y-14116976D02*
X6502738Y-14116976D01*
X6521786Y-14126500D01*
X6531309Y-14136024D01*
X6540833Y-14155071D01*
X6550357Y-14193167D01*
X6550357Y-14240786D01*
X6540833Y-14278881D01*
X6531309Y-14297928D01*
X6521786Y-14307452D01*
X6502738Y-14316976D01*
X6483690Y-14316976D01*
X6464643Y-14307452D01*
X6455119Y-14297928D01*
X6445595Y-14278881D01*
X6436071Y-14240786D01*
X6436071Y-14193167D01*
X6445595Y-14155071D01*
X6455119Y-14136024D01*
X6464643Y-14126500D01*
X6483690Y-14116976D01*
X6721786Y-14183643D02*
X6721786Y-14316976D01*
X6674167Y-14107452D02*
X6626548Y-14250309D01*
X6750357Y-14250309D01*
X6807500Y-14116976D02*
X6931309Y-14116976D01*
X6864643Y-14193167D01*
X6893214Y-14193167D01*
X6912262Y-14202690D01*
X6921786Y-14212214D01*
X6931309Y-14231262D01*
X6931309Y-14278881D01*
X6921786Y-14297928D01*
X6912262Y-14307452D01*
X6893214Y-14316976D01*
X6836071Y-14316976D01*
X6817024Y-14307452D01*
X6807500Y-14297928D01*
X6997976Y-14116976D02*
X7121786Y-14116976D01*
X7055119Y-14193167D01*
X7083690Y-14193167D01*
X7102738Y-14202690D01*
X7112262Y-14212214D01*
X7121786Y-14231262D01*
X7121786Y-14278881D01*
X7112262Y-14297928D01*
X7102738Y-14307452D01*
X7083690Y-14316976D01*
X7026548Y-14316976D01*
X7007500Y-14307452D01*
X6997976Y-14297928D01*
X7197976Y-14116976D02*
X7197976Y-14155071D01*
X7274167Y-14116976D02*
X7274167Y-14155071D01*
X7569405Y-14393167D02*
X7559881Y-14383643D01*
X7540833Y-14355071D01*
X7531309Y-14336024D01*
X7521786Y-14307452D01*
X7512262Y-14259833D01*
X7512262Y-14221738D01*
X7521786Y-14174119D01*
X7531309Y-14145548D01*
X7540833Y-14126500D01*
X7559881Y-14097928D01*
X7569405Y-14088405D01*
X7636071Y-14136024D02*
X7645595Y-14126500D01*
X7664643Y-14116976D01*
X7712262Y-14116976D01*
X7731309Y-14126500D01*
X7740833Y-14136024D01*
X7750357Y-14155071D01*
X7750357Y-14174119D01*
X7740833Y-14202690D01*
X7626548Y-14316976D01*
X7750357Y-14316976D01*
X7921786Y-14183643D02*
X7921786Y-14316976D01*
X7874167Y-14107452D02*
X7826548Y-14250309D01*
X7950357Y-14250309D01*
X8178928Y-14316976D02*
X8178928Y-14116976D01*
X8264643Y-14316976D02*
X8264643Y-14212214D01*
X8255119Y-14193167D01*
X8236071Y-14183643D01*
X8207500Y-14183643D01*
X8188452Y-14193167D01*
X8178928Y-14202690D01*
X8388452Y-14316976D02*
X8369405Y-14307452D01*
X8359881Y-14297928D01*
X8350357Y-14278881D01*
X8350357Y-14221738D01*
X8359881Y-14202690D01*
X8369405Y-14193167D01*
X8388452Y-14183643D01*
X8417024Y-14183643D01*
X8436071Y-14193167D01*
X8445595Y-14202690D01*
X8455119Y-14221738D01*
X8455119Y-14278881D01*
X8445595Y-14297928D01*
X8436071Y-14307452D01*
X8417024Y-14316976D01*
X8388452Y-14316976D01*
X8569405Y-14316976D02*
X8550357Y-14307452D01*
X8540833Y-14288405D01*
X8540833Y-14116976D01*
X8721786Y-14307452D02*
X8702738Y-14316976D01*
X8664643Y-14316976D01*
X8645595Y-14307452D01*
X8636071Y-14288405D01*
X8636071Y-14212214D01*
X8645595Y-14193167D01*
X8664643Y-14183643D01*
X8702738Y-14183643D01*
X8721786Y-14193167D01*
X8731310Y-14212214D01*
X8731310Y-14231262D01*
X8636071Y-14250309D01*
X8807500Y-14307452D02*
X8826548Y-14316976D01*
X8864643Y-14316976D01*
X8883690Y-14307452D01*
X8893214Y-14288405D01*
X8893214Y-14278881D01*
X8883690Y-14259833D01*
X8864643Y-14250309D01*
X8836071Y-14250309D01*
X8817024Y-14240786D01*
X8807500Y-14221738D01*
X8807500Y-14212214D01*
X8817024Y-14193167D01*
X8836071Y-14183643D01*
X8864643Y-14183643D01*
X8883690Y-14193167D01*
X8959881Y-14393167D02*
X8969405Y-14383643D01*
X8988452Y-14355071D01*
X8997976Y-14336024D01*
X9007500Y-14307452D01*
X9017024Y-14259833D01*
X9017024Y-14221738D01*
X9007500Y-14174119D01*
X8997976Y-14145548D01*
X8988452Y-14126500D01*
X8969405Y-14097928D01*
X8959881Y-14088405D01*
D19*
X3877500Y-14430500D02*
X3997500Y-14550500D01*
X3997500Y-14430500D02*
X3877500Y-14550500D01*
X3979927Y-14532927D02*
X3979927Y-14448073D01*
X3895073Y-14448073D01*
X3895073Y-14532927D01*
X3979927Y-14532927D01*
D11*
X4359881Y-14580976D02*
X4245595Y-14580976D01*
X4302738Y-14580976D02*
X4302738Y-14380976D01*
X4283690Y-14409548D01*
X4264643Y-14428595D01*
X4245595Y-14438119D01*
X4445595Y-14561928D02*
X4455119Y-14571452D01*
X4445595Y-14580976D01*
X4436071Y-14571452D01*
X4445595Y-14561928D01*
X4445595Y-14580976D01*
X4531310Y-14400024D02*
X4540833Y-14390500D01*
X4559881Y-14380976D01*
X4607500Y-14380976D01*
X4626548Y-14390500D01*
X4636071Y-14400024D01*
X4645595Y-14419071D01*
X4645595Y-14438119D01*
X4636071Y-14466690D01*
X4521786Y-14580976D01*
X4645595Y-14580976D01*
X4769405Y-14380976D02*
X4788452Y-14380976D01*
X4807500Y-14390500D01*
X4817024Y-14400024D01*
X4826548Y-14419071D01*
X4836071Y-14457167D01*
X4836071Y-14504786D01*
X4826548Y-14542881D01*
X4817024Y-14561928D01*
X4807500Y-14571452D01*
X4788452Y-14580976D01*
X4769405Y-14580976D01*
X4750357Y-14571452D01*
X4740833Y-14561928D01*
X4731310Y-14542881D01*
X4721786Y-14504786D01*
X4721786Y-14457167D01*
X4731310Y-14419071D01*
X4740833Y-14400024D01*
X4750357Y-14390500D01*
X4769405Y-14380976D01*
X4959881Y-14380976D02*
X4978929Y-14380976D01*
X4997976Y-14390500D01*
X5007500Y-14400024D01*
X5017024Y-14419071D01*
X5026548Y-14457167D01*
X5026548Y-14504786D01*
X5017024Y-14542881D01*
X5007500Y-14561928D01*
X4997976Y-14571452D01*
X4978929Y-14580976D01*
X4959881Y-14580976D01*
X4940833Y-14571452D01*
X4931310Y-14561928D01*
X4921786Y-14542881D01*
X4912262Y-14504786D01*
X4912262Y-14457167D01*
X4921786Y-14419071D01*
X4931310Y-14400024D01*
X4940833Y-14390500D01*
X4959881Y-14380976D01*
X5112262Y-14580976D02*
X5112262Y-14447643D01*
X5112262Y-14466690D02*
X5121786Y-14457167D01*
X5140833Y-14447643D01*
X5169405Y-14447643D01*
X5188452Y-14457167D01*
X5197976Y-14476214D01*
X5197976Y-14580976D01*
X5197976Y-14476214D02*
X5207500Y-14457167D01*
X5226548Y-14447643D01*
X5255119Y-14447643D01*
X5274167Y-14457167D01*
X5283690Y-14476214D01*
X5283690Y-14580976D01*
X5378929Y-14580976D02*
X5378929Y-14447643D01*
X5378929Y-14466690D02*
X5388452Y-14457167D01*
X5407500Y-14447643D01*
X5436071Y-14447643D01*
X5455119Y-14457167D01*
X5464643Y-14476214D01*
X5464643Y-14580976D01*
X5464643Y-14476214D02*
X5474167Y-14457167D01*
X5493214Y-14447643D01*
X5521786Y-14447643D01*
X5540833Y-14457167D01*
X5550357Y-14476214D01*
X5550357Y-14580976D01*
X5940833Y-14371452D02*
X5769405Y-14628595D01*
X6197976Y-14380976D02*
X6217024Y-14380976D01*
X6236071Y-14390500D01*
X6245595Y-14400024D01*
X6255119Y-14419071D01*
X6264643Y-14457167D01*
X6264643Y-14504786D01*
X6255119Y-14542881D01*
X6245595Y-14561928D01*
X6236071Y-14571452D01*
X6217024Y-14580976D01*
X6197976Y-14580976D01*
X6178928Y-14571452D01*
X6169405Y-14561928D01*
X6159881Y-14542881D01*
X6150357Y-14504786D01*
X6150357Y-14457167D01*
X6159881Y-14419071D01*
X6169405Y-14400024D01*
X6178928Y-14390500D01*
X6197976Y-14380976D01*
X6350357Y-14561928D02*
X6359881Y-14571452D01*
X6350357Y-14580976D01*
X6340833Y-14571452D01*
X6350357Y-14561928D01*
X6350357Y-14580976D01*
X6483690Y-14380976D02*
X6502738Y-14380976D01*
X6521786Y-14390500D01*
X6531309Y-14400024D01*
X6540833Y-14419071D01*
X6550357Y-14457167D01*
X6550357Y-14504786D01*
X6540833Y-14542881D01*
X6531309Y-14561928D01*
X6521786Y-14571452D01*
X6502738Y-14580976D01*
X6483690Y-14580976D01*
X6464643Y-14571452D01*
X6455119Y-14561928D01*
X6445595Y-14542881D01*
X6436071Y-14504786D01*
X6436071Y-14457167D01*
X6445595Y-14419071D01*
X6455119Y-14400024D01*
X6464643Y-14390500D01*
X6483690Y-14380976D01*
X6721786Y-14447643D02*
X6721786Y-14580976D01*
X6674167Y-14371452D02*
X6626548Y-14514309D01*
X6750357Y-14514309D01*
X6807500Y-14380976D02*
X6940833Y-14380976D01*
X6855119Y-14580976D01*
X7007500Y-14400024D02*
X7017024Y-14390500D01*
X7036071Y-14380976D01*
X7083690Y-14380976D01*
X7102738Y-14390500D01*
X7112262Y-14400024D01*
X7121786Y-14419071D01*
X7121786Y-14438119D01*
X7112262Y-14466690D01*
X6997976Y-14580976D01*
X7121786Y-14580976D01*
X7197976Y-14380976D02*
X7197976Y-14419071D01*
X7274167Y-14380976D02*
X7274167Y-14419071D01*
X7569405Y-14657167D02*
X7559881Y-14647643D01*
X7540833Y-14619071D01*
X7531309Y-14600024D01*
X7521786Y-14571452D01*
X7512262Y-14523833D01*
X7512262Y-14485738D01*
X7521786Y-14438119D01*
X7531309Y-14409548D01*
X7540833Y-14390500D01*
X7559881Y-14361928D01*
X7569405Y-14352405D01*
X7636071Y-14400024D02*
X7645595Y-14390500D01*
X7664643Y-14380976D01*
X7712262Y-14380976D01*
X7731309Y-14390500D01*
X7740833Y-14400024D01*
X7750357Y-14419071D01*
X7750357Y-14438119D01*
X7740833Y-14466690D01*
X7626548Y-14580976D01*
X7750357Y-14580976D01*
X7988452Y-14580976D02*
X7988452Y-14380976D01*
X8074167Y-14580976D02*
X8074167Y-14476214D01*
X8064643Y-14457167D01*
X8045595Y-14447643D01*
X8017024Y-14447643D01*
X7997976Y-14457167D01*
X7988452Y-14466690D01*
X8197976Y-14580976D02*
X8178928Y-14571452D01*
X8169405Y-14561928D01*
X8159881Y-14542881D01*
X8159881Y-14485738D01*
X8169405Y-14466690D01*
X8178928Y-14457167D01*
X8197976Y-14447643D01*
X8226548Y-14447643D01*
X8245595Y-14457167D01*
X8255119Y-14466690D01*
X8264643Y-14485738D01*
X8264643Y-14542881D01*
X8255119Y-14561928D01*
X8245595Y-14571452D01*
X8226548Y-14580976D01*
X8197976Y-14580976D01*
X8378928Y-14580976D02*
X8359881Y-14571452D01*
X8350357Y-14552405D01*
X8350357Y-14380976D01*
X8531310Y-14571452D02*
X8512262Y-14580976D01*
X8474167Y-14580976D01*
X8455119Y-14571452D01*
X8445595Y-14552405D01*
X8445595Y-14476214D01*
X8455119Y-14457167D01*
X8474167Y-14447643D01*
X8512262Y-14447643D01*
X8531310Y-14457167D01*
X8540833Y-14476214D01*
X8540833Y-14495262D01*
X8445595Y-14514309D01*
X8617024Y-14571452D02*
X8636071Y-14580976D01*
X8674167Y-14580976D01*
X8693214Y-14571452D01*
X8702738Y-14552405D01*
X8702738Y-14542881D01*
X8693214Y-14523833D01*
X8674167Y-14514309D01*
X8645595Y-14514309D01*
X8626548Y-14504786D01*
X8617024Y-14485738D01*
X8617024Y-14476214D01*
X8626548Y-14457167D01*
X8645595Y-14447643D01*
X8674167Y-14447643D01*
X8693214Y-14457167D01*
X8769405Y-14657167D02*
X8778929Y-14647643D01*
X8797976Y-14619071D01*
X8807500Y-14600024D01*
X8817024Y-14571452D01*
X8826548Y-14523833D01*
X8826548Y-14485738D01*
X8817024Y-14438119D01*
X8807500Y-14409548D01*
X8797976Y-14390500D01*
X8778929Y-14361928D01*
X8769405Y-14352405D01*
D20*
X3847500Y-14679500D02*
X3997500Y-14829500D01*
X3997500Y-14679500D02*
X3847500Y-14829500D01*
X3922500Y-14829500D02*
X3997500Y-14754500D01*
X3922500Y-14679500D01*
X3847500Y-14754500D01*
X3922500Y-14829500D01*
D11*
X4359881Y-14844976D02*
X4245595Y-14844976D01*
X4302738Y-14844976D02*
X4302738Y-14644976D01*
X4283690Y-14673548D01*
X4264643Y-14692595D01*
X4245595Y-14702119D01*
X4445595Y-14825928D02*
X4455119Y-14835452D01*
X4445595Y-14844976D01*
X4436071Y-14835452D01*
X4445595Y-14825928D01*
X4445595Y-14844976D01*
X4636071Y-14644976D02*
X4540833Y-14644976D01*
X4531310Y-14740214D01*
X4540833Y-14730690D01*
X4559881Y-14721167D01*
X4607500Y-14721167D01*
X4626548Y-14730690D01*
X4636071Y-14740214D01*
X4645595Y-14759262D01*
X4645595Y-14806881D01*
X4636071Y-14825928D01*
X4626548Y-14835452D01*
X4607500Y-14844976D01*
X4559881Y-14844976D01*
X4540833Y-14835452D01*
X4531310Y-14825928D01*
X4769405Y-14644976D02*
X4788452Y-14644976D01*
X4807500Y-14654500D01*
X4817024Y-14664024D01*
X4826548Y-14683071D01*
X4836071Y-14721167D01*
X4836071Y-14768786D01*
X4826548Y-14806881D01*
X4817024Y-14825928D01*
X4807500Y-14835452D01*
X4788452Y-14844976D01*
X4769405Y-14844976D01*
X4750357Y-14835452D01*
X4740833Y-14825928D01*
X4731310Y-14806881D01*
X4721786Y-14768786D01*
X4721786Y-14721167D01*
X4731310Y-14683071D01*
X4740833Y-14664024D01*
X4750357Y-14654500D01*
X4769405Y-14644976D01*
X4959881Y-14644976D02*
X4978929Y-14644976D01*
X4997976Y-14654500D01*
X5007500Y-14664024D01*
X5017024Y-14683071D01*
X5026548Y-14721167D01*
X5026548Y-14768786D01*
X5017024Y-14806881D01*
X5007500Y-14825928D01*
X4997976Y-14835452D01*
X4978929Y-14844976D01*
X4959881Y-14844976D01*
X4940833Y-14835452D01*
X4931310Y-14825928D01*
X4921786Y-14806881D01*
X4912262Y-14768786D01*
X4912262Y-14721167D01*
X4921786Y-14683071D01*
X4931310Y-14664024D01*
X4940833Y-14654500D01*
X4959881Y-14644976D01*
X5112262Y-14844976D02*
X5112262Y-14711643D01*
X5112262Y-14730690D02*
X5121786Y-14721167D01*
X5140833Y-14711643D01*
X5169405Y-14711643D01*
X5188452Y-14721167D01*
X5197976Y-14740214D01*
X5197976Y-14844976D01*
X5197976Y-14740214D02*
X5207500Y-14721167D01*
X5226548Y-14711643D01*
X5255119Y-14711643D01*
X5274167Y-14721167D01*
X5283690Y-14740214D01*
X5283690Y-14844976D01*
X5378929Y-14844976D02*
X5378929Y-14711643D01*
X5378929Y-14730690D02*
X5388452Y-14721167D01*
X5407500Y-14711643D01*
X5436071Y-14711643D01*
X5455119Y-14721167D01*
X5464643Y-14740214D01*
X5464643Y-14844976D01*
X5464643Y-14740214D02*
X5474167Y-14721167D01*
X5493214Y-14711643D01*
X5521786Y-14711643D01*
X5540833Y-14721167D01*
X5550357Y-14740214D01*
X5550357Y-14844976D01*
X5940833Y-14635452D02*
X5769405Y-14892595D01*
X6197976Y-14644976D02*
X6217024Y-14644976D01*
X6236071Y-14654500D01*
X6245595Y-14664024D01*
X6255119Y-14683071D01*
X6264643Y-14721167D01*
X6264643Y-14768786D01*
X6255119Y-14806881D01*
X6245595Y-14825928D01*
X6236071Y-14835452D01*
X6217024Y-14844976D01*
X6197976Y-14844976D01*
X6178928Y-14835452D01*
X6169405Y-14825928D01*
X6159881Y-14806881D01*
X6150357Y-14768786D01*
X6150357Y-14721167D01*
X6159881Y-14683071D01*
X6169405Y-14664024D01*
X6178928Y-14654500D01*
X6197976Y-14644976D01*
X6350357Y-14825928D02*
X6359881Y-14835452D01*
X6350357Y-14844976D01*
X6340833Y-14835452D01*
X6350357Y-14825928D01*
X6350357Y-14844976D01*
X6483690Y-14644976D02*
X6502738Y-14644976D01*
X6521786Y-14654500D01*
X6531309Y-14664024D01*
X6540833Y-14683071D01*
X6550357Y-14721167D01*
X6550357Y-14768786D01*
X6540833Y-14806881D01*
X6531309Y-14825928D01*
X6521786Y-14835452D01*
X6502738Y-14844976D01*
X6483690Y-14844976D01*
X6464643Y-14835452D01*
X6455119Y-14825928D01*
X6445595Y-14806881D01*
X6436071Y-14768786D01*
X6436071Y-14721167D01*
X6445595Y-14683071D01*
X6455119Y-14664024D01*
X6464643Y-14654500D01*
X6483690Y-14644976D01*
X6731309Y-14644976D02*
X6636071Y-14644976D01*
X6626548Y-14740214D01*
X6636071Y-14730690D01*
X6655119Y-14721167D01*
X6702738Y-14721167D01*
X6721786Y-14730690D01*
X6731309Y-14740214D01*
X6740833Y-14759262D01*
X6740833Y-14806881D01*
X6731309Y-14825928D01*
X6721786Y-14835452D01*
X6702738Y-14844976D01*
X6655119Y-14844976D01*
X6636071Y-14835452D01*
X6626548Y-14825928D01*
X6836071Y-14844976D02*
X6874167Y-14844976D01*
X6893214Y-14835452D01*
X6902738Y-14825928D01*
X6921786Y-14797357D01*
X6931309Y-14759262D01*
X6931309Y-14683071D01*
X6921786Y-14664024D01*
X6912262Y-14654500D01*
X6893214Y-14644976D01*
X6855119Y-14644976D01*
X6836071Y-14654500D01*
X6826548Y-14664024D01*
X6817024Y-14683071D01*
X6817024Y-14730690D01*
X6826548Y-14749738D01*
X6836071Y-14759262D01*
X6855119Y-14768786D01*
X6893214Y-14768786D01*
X6912262Y-14759262D01*
X6921786Y-14749738D01*
X6931309Y-14730690D01*
X7121786Y-14844976D02*
X7007500Y-14844976D01*
X7064643Y-14844976D02*
X7064643Y-14644976D01*
X7045595Y-14673548D01*
X7026548Y-14692595D01*
X7007500Y-14702119D01*
X7197976Y-14644976D02*
X7197976Y-14683071D01*
X7274167Y-14644976D02*
X7274167Y-14683071D01*
X7569405Y-14921167D02*
X7559881Y-14911643D01*
X7540833Y-14883071D01*
X7531309Y-14864024D01*
X7521786Y-14835452D01*
X7512262Y-14787833D01*
X7512262Y-14749738D01*
X7521786Y-14702119D01*
X7531309Y-14673548D01*
X7540833Y-14654500D01*
X7559881Y-14625928D01*
X7569405Y-14616405D01*
X7636071Y-14664024D02*
X7645595Y-14654500D01*
X7664643Y-14644976D01*
X7712262Y-14644976D01*
X7731309Y-14654500D01*
X7740833Y-14664024D01*
X7750357Y-14683071D01*
X7750357Y-14702119D01*
X7740833Y-14730690D01*
X7626548Y-14844976D01*
X7750357Y-14844976D01*
X7988452Y-14844976D02*
X7988452Y-14644976D01*
X8074167Y-14844976D02*
X8074167Y-14740214D01*
X8064643Y-14721167D01*
X8045595Y-14711643D01*
X8017024Y-14711643D01*
X7997976Y-14721167D01*
X7988452Y-14730690D01*
X8197976Y-14844976D02*
X8178928Y-14835452D01*
X8169405Y-14825928D01*
X8159881Y-14806881D01*
X8159881Y-14749738D01*
X8169405Y-14730690D01*
X8178928Y-14721167D01*
X8197976Y-14711643D01*
X8226548Y-14711643D01*
X8245595Y-14721167D01*
X8255119Y-14730690D01*
X8264643Y-14749738D01*
X8264643Y-14806881D01*
X8255119Y-14825928D01*
X8245595Y-14835452D01*
X8226548Y-14844976D01*
X8197976Y-14844976D01*
X8378928Y-14844976D02*
X8359881Y-14835452D01*
X8350357Y-14816405D01*
X8350357Y-14644976D01*
X8531310Y-14835452D02*
X8512262Y-14844976D01*
X8474167Y-14844976D01*
X8455119Y-14835452D01*
X8445595Y-14816405D01*
X8445595Y-14740214D01*
X8455119Y-14721167D01*
X8474167Y-14711643D01*
X8512262Y-14711643D01*
X8531310Y-14721167D01*
X8540833Y-14740214D01*
X8540833Y-14759262D01*
X8445595Y-14778309D01*
X8617024Y-14835452D02*
X8636071Y-14844976D01*
X8674167Y-14844976D01*
X8693214Y-14835452D01*
X8702738Y-14816405D01*
X8702738Y-14806881D01*
X8693214Y-14787833D01*
X8674167Y-14778309D01*
X8645595Y-14778309D01*
X8626548Y-14768786D01*
X8617024Y-14749738D01*
X8617024Y-14740214D01*
X8626548Y-14721167D01*
X8645595Y-14711643D01*
X8674167Y-14711643D01*
X8693214Y-14721167D01*
X8769405Y-14921167D02*
X8778929Y-14911643D01*
X8797976Y-14883071D01*
X8807500Y-14864024D01*
X8817024Y-14835452D01*
X8826548Y-14787833D01*
X8826548Y-14749738D01*
X8817024Y-14702119D01*
X8807500Y-14673548D01*
X8797976Y-14654500D01*
X8778929Y-14625928D01*
X8769405Y-14616405D01*
X3897500Y-14924500D02*
X3897500Y-15124500D01*
X3797500Y-15024500D02*
X3997500Y-15024500D01*
X3997500Y-15024500D02*
G75*
G03*
X3997500Y-15024500I-100000J0D01*
G01*
X4245595Y-14934024D02*
X4255119Y-14924500D01*
X4274167Y-14914976D01*
X4321786Y-14914976D01*
X4340833Y-14924500D01*
X4350357Y-14934024D01*
X4359881Y-14953071D01*
X4359881Y-14972119D01*
X4350357Y-15000690D01*
X4236071Y-15114976D01*
X4359881Y-15114976D01*
X4445595Y-15095928D02*
X4455119Y-15105452D01*
X4445595Y-15114976D01*
X4436071Y-15105452D01*
X4445595Y-15095928D01*
X4445595Y-15114976D01*
X4578929Y-14914976D02*
X4597976Y-14914976D01*
X4617024Y-14924500D01*
X4626548Y-14934024D01*
X4636071Y-14953071D01*
X4645595Y-14991167D01*
X4645595Y-15038786D01*
X4636071Y-15076881D01*
X4626548Y-15095928D01*
X4617024Y-15105452D01*
X4597976Y-15114976D01*
X4578929Y-15114976D01*
X4559881Y-15105452D01*
X4550357Y-15095928D01*
X4540833Y-15076881D01*
X4531310Y-15038786D01*
X4531310Y-14991167D01*
X4540833Y-14953071D01*
X4550357Y-14934024D01*
X4559881Y-14924500D01*
X4578929Y-14914976D01*
X4769405Y-14914976D02*
X4788452Y-14914976D01*
X4807500Y-14924500D01*
X4817024Y-14934024D01*
X4826548Y-14953071D01*
X4836071Y-14991167D01*
X4836071Y-15038786D01*
X4826548Y-15076881D01*
X4817024Y-15095928D01*
X4807500Y-15105452D01*
X4788452Y-15114976D01*
X4769405Y-15114976D01*
X4750357Y-15105452D01*
X4740833Y-15095928D01*
X4731310Y-15076881D01*
X4721786Y-15038786D01*
X4721786Y-14991167D01*
X4731310Y-14953071D01*
X4740833Y-14934024D01*
X4750357Y-14924500D01*
X4769405Y-14914976D01*
X4959881Y-14914976D02*
X4978929Y-14914976D01*
X4997976Y-14924500D01*
X5007500Y-14934024D01*
X5017024Y-14953071D01*
X5026548Y-14991167D01*
X5026548Y-15038786D01*
X5017024Y-15076881D01*
X5007500Y-15095928D01*
X4997976Y-15105452D01*
X4978929Y-15114976D01*
X4959881Y-15114976D01*
X4940833Y-15105452D01*
X4931310Y-15095928D01*
X4921786Y-15076881D01*
X4912262Y-15038786D01*
X4912262Y-14991167D01*
X4921786Y-14953071D01*
X4931310Y-14934024D01*
X4940833Y-14924500D01*
X4959881Y-14914976D01*
X5112262Y-15114976D02*
X5112262Y-14981643D01*
X5112262Y-15000690D02*
X5121786Y-14991167D01*
X5140833Y-14981643D01*
X5169405Y-14981643D01*
X5188452Y-14991167D01*
X5197976Y-15010214D01*
X5197976Y-15114976D01*
X5197976Y-15010214D02*
X5207500Y-14991167D01*
X5226548Y-14981643D01*
X5255119Y-14981643D01*
X5274167Y-14991167D01*
X5283690Y-15010214D01*
X5283690Y-15114976D01*
X5378929Y-15114976D02*
X5378929Y-14981643D01*
X5378929Y-15000690D02*
X5388452Y-14991167D01*
X5407500Y-14981643D01*
X5436071Y-14981643D01*
X5455119Y-14991167D01*
X5464643Y-15010214D01*
X5464643Y-15114976D01*
X5464643Y-15010214D02*
X5474167Y-14991167D01*
X5493214Y-14981643D01*
X5521786Y-14981643D01*
X5540833Y-14991167D01*
X5550357Y-15010214D01*
X5550357Y-15114976D01*
X5940833Y-14905452D02*
X5769405Y-15162595D01*
X6197976Y-14914976D02*
X6217024Y-14914976D01*
X6236071Y-14924500D01*
X6245595Y-14934024D01*
X6255119Y-14953071D01*
X6264643Y-14991167D01*
X6264643Y-15038786D01*
X6255119Y-15076881D01*
X6245595Y-15095928D01*
X6236071Y-15105452D01*
X6217024Y-15114976D01*
X6197976Y-15114976D01*
X6178928Y-15105452D01*
X6169405Y-15095928D01*
X6159881Y-15076881D01*
X6150357Y-15038786D01*
X6150357Y-14991167D01*
X6159881Y-14953071D01*
X6169405Y-14934024D01*
X6178928Y-14924500D01*
X6197976Y-14914976D01*
X6350357Y-15095928D02*
X6359881Y-15105452D01*
X6350357Y-15114976D01*
X6340833Y-15105452D01*
X6350357Y-15095928D01*
X6350357Y-15114976D01*
X6483690Y-14914976D02*
X6502738Y-14914976D01*
X6521786Y-14924500D01*
X6531309Y-14934024D01*
X6540833Y-14953071D01*
X6550357Y-14991167D01*
X6550357Y-15038786D01*
X6540833Y-15076881D01*
X6531309Y-15095928D01*
X6521786Y-15105452D01*
X6502738Y-15114976D01*
X6483690Y-15114976D01*
X6464643Y-15105452D01*
X6455119Y-15095928D01*
X6445595Y-15076881D01*
X6436071Y-15038786D01*
X6436071Y-14991167D01*
X6445595Y-14953071D01*
X6455119Y-14934024D01*
X6464643Y-14924500D01*
X6483690Y-14914976D01*
X6617024Y-14914976D02*
X6750357Y-14914976D01*
X6664643Y-15114976D01*
X6855119Y-15000690D02*
X6836071Y-14991167D01*
X6826548Y-14981643D01*
X6817024Y-14962595D01*
X6817024Y-14953071D01*
X6826548Y-14934024D01*
X6836071Y-14924500D01*
X6855119Y-14914976D01*
X6893214Y-14914976D01*
X6912262Y-14924500D01*
X6921786Y-14934024D01*
X6931309Y-14953071D01*
X6931309Y-14962595D01*
X6921786Y-14981643D01*
X6912262Y-14991167D01*
X6893214Y-15000690D01*
X6855119Y-15000690D01*
X6836071Y-15010214D01*
X6826548Y-15019738D01*
X6817024Y-15038786D01*
X6817024Y-15076881D01*
X6826548Y-15095928D01*
X6836071Y-15105452D01*
X6855119Y-15114976D01*
X6893214Y-15114976D01*
X6912262Y-15105452D01*
X6921786Y-15095928D01*
X6931309Y-15076881D01*
X6931309Y-15038786D01*
X6921786Y-15019738D01*
X6912262Y-15010214D01*
X6893214Y-15000690D01*
X6997976Y-14914976D02*
X7131309Y-14914976D01*
X7045595Y-15114976D01*
X7197976Y-14914976D02*
X7197976Y-14953071D01*
X7274167Y-14914976D02*
X7274167Y-14953071D01*
X7569405Y-15191167D02*
X7559881Y-15181643D01*
X7540833Y-15153071D01*
X7531309Y-15134024D01*
X7521786Y-15105452D01*
X7512262Y-15057833D01*
X7512262Y-15019738D01*
X7521786Y-14972119D01*
X7531309Y-14943548D01*
X7540833Y-14924500D01*
X7559881Y-14895928D01*
X7569405Y-14886405D01*
X7750357Y-15114976D02*
X7636071Y-15114976D01*
X7693214Y-15114976D02*
X7693214Y-14914976D01*
X7674167Y-14943548D01*
X7655119Y-14962595D01*
X7636071Y-14972119D01*
X7988452Y-15114976D02*
X7988452Y-14914976D01*
X8074167Y-15114976D02*
X8074167Y-15010214D01*
X8064643Y-14991167D01*
X8045595Y-14981643D01*
X8017024Y-14981643D01*
X7997976Y-14991167D01*
X7988452Y-15000690D01*
X8197976Y-15114976D02*
X8178928Y-15105452D01*
X8169405Y-15095928D01*
X8159881Y-15076881D01*
X8159881Y-15019738D01*
X8169405Y-15000690D01*
X8178928Y-14991167D01*
X8197976Y-14981643D01*
X8226548Y-14981643D01*
X8245595Y-14991167D01*
X8255119Y-15000690D01*
X8264643Y-15019738D01*
X8264643Y-15076881D01*
X8255119Y-15095928D01*
X8245595Y-15105452D01*
X8226548Y-15114976D01*
X8197976Y-15114976D01*
X8378928Y-15114976D02*
X8359881Y-15105452D01*
X8350357Y-15086405D01*
X8350357Y-14914976D01*
X8531310Y-15105452D02*
X8512262Y-15114976D01*
X8474167Y-15114976D01*
X8455119Y-15105452D01*
X8445595Y-15086405D01*
X8445595Y-15010214D01*
X8455119Y-14991167D01*
X8474167Y-14981643D01*
X8512262Y-14981643D01*
X8531310Y-14991167D01*
X8540833Y-15010214D01*
X8540833Y-15029262D01*
X8445595Y-15048309D01*
X8607500Y-15191167D02*
X8617024Y-15181643D01*
X8636071Y-15153071D01*
X8645595Y-15134024D01*
X8655119Y-15105452D01*
X8664643Y-15057833D01*
X8664643Y-15019738D01*
X8655119Y-14972119D01*
X8645595Y-14943548D01*
X8636071Y-14924500D01*
X8617024Y-14895928D01*
X8607500Y-14886405D01*
X3968211Y-15415211D02*
X3968211Y-15273789D01*
X3826789Y-15273789D01*
X3826789Y-15415211D01*
X3968211Y-15415211D01*
X3997500Y-15344500D02*
G75*
G03*
X3997500Y-15344500I-100000J0D01*
G01*
X4236071Y-15234976D02*
X4359881Y-15234976D01*
X4293214Y-15311167D01*
X4321786Y-15311167D01*
X4340833Y-15320690D01*
X4350357Y-15330214D01*
X4359881Y-15349262D01*
X4359881Y-15396881D01*
X4350357Y-15415928D01*
X4340833Y-15425452D01*
X4321786Y-15434976D01*
X4264643Y-15434976D01*
X4245595Y-15425452D01*
X4236071Y-15415928D01*
X4445595Y-15415928D02*
X4455119Y-15425452D01*
X4445595Y-15434976D01*
X4436071Y-15425452D01*
X4445595Y-15415928D01*
X4445595Y-15434976D01*
X4636071Y-15234976D02*
X4540833Y-15234976D01*
X4531310Y-15330214D01*
X4540833Y-15320690D01*
X4559881Y-15311167D01*
X4607500Y-15311167D01*
X4626548Y-15320690D01*
X4636071Y-15330214D01*
X4645595Y-15349262D01*
X4645595Y-15396881D01*
X4636071Y-15415928D01*
X4626548Y-15425452D01*
X4607500Y-15434976D01*
X4559881Y-15434976D01*
X4540833Y-15425452D01*
X4531310Y-15415928D01*
X4769405Y-15234976D02*
X4788452Y-15234976D01*
X4807500Y-15244500D01*
X4817024Y-15254024D01*
X4826548Y-15273071D01*
X4836071Y-15311167D01*
X4836071Y-15358786D01*
X4826548Y-15396881D01*
X4817024Y-15415928D01*
X4807500Y-15425452D01*
X4788452Y-15434976D01*
X4769405Y-15434976D01*
X4750357Y-15425452D01*
X4740833Y-15415928D01*
X4731310Y-15396881D01*
X4721786Y-15358786D01*
X4721786Y-15311167D01*
X4731310Y-15273071D01*
X4740833Y-15254024D01*
X4750357Y-15244500D01*
X4769405Y-15234976D01*
X4959881Y-15234976D02*
X4978929Y-15234976D01*
X4997976Y-15244500D01*
X5007500Y-15254024D01*
X5017024Y-15273071D01*
X5026548Y-15311167D01*
X5026548Y-15358786D01*
X5017024Y-15396881D01*
X5007500Y-15415928D01*
X4997976Y-15425452D01*
X4978929Y-15434976D01*
X4959881Y-15434976D01*
X4940833Y-15425452D01*
X4931310Y-15415928D01*
X4921786Y-15396881D01*
X4912262Y-15358786D01*
X4912262Y-15311167D01*
X4921786Y-15273071D01*
X4931310Y-15254024D01*
X4940833Y-15244500D01*
X4959881Y-15234976D01*
X5112262Y-15434976D02*
X5112262Y-15301643D01*
X5112262Y-15320690D02*
X5121786Y-15311167D01*
X5140833Y-15301643D01*
X5169405Y-15301643D01*
X5188452Y-15311167D01*
X5197976Y-15330214D01*
X5197976Y-15434976D01*
X5197976Y-15330214D02*
X5207500Y-15311167D01*
X5226548Y-15301643D01*
X5255119Y-15301643D01*
X5274167Y-15311167D01*
X5283690Y-15330214D01*
X5283690Y-15434976D01*
X5378929Y-15434976D02*
X5378929Y-15301643D01*
X5378929Y-15320690D02*
X5388452Y-15311167D01*
X5407500Y-15301643D01*
X5436071Y-15301643D01*
X5455119Y-15311167D01*
X5464643Y-15330214D01*
X5464643Y-15434976D01*
X5464643Y-15330214D02*
X5474167Y-15311167D01*
X5493214Y-15301643D01*
X5521786Y-15301643D01*
X5540833Y-15311167D01*
X5550357Y-15330214D01*
X5550357Y-15434976D01*
X5940833Y-15225452D02*
X5769405Y-15482595D01*
X6197976Y-15234976D02*
X6217024Y-15234976D01*
X6236071Y-15244500D01*
X6245595Y-15254024D01*
X6255119Y-15273071D01*
X6264643Y-15311167D01*
X6264643Y-15358786D01*
X6255119Y-15396881D01*
X6245595Y-15415928D01*
X6236071Y-15425452D01*
X6217024Y-15434976D01*
X6197976Y-15434976D01*
X6178928Y-15425452D01*
X6169405Y-15415928D01*
X6159881Y-15396881D01*
X6150357Y-15358786D01*
X6150357Y-15311167D01*
X6159881Y-15273071D01*
X6169405Y-15254024D01*
X6178928Y-15244500D01*
X6197976Y-15234976D01*
X6350357Y-15415928D02*
X6359881Y-15425452D01*
X6350357Y-15434976D01*
X6340833Y-15425452D01*
X6350357Y-15415928D01*
X6350357Y-15434976D01*
X6550357Y-15434976D02*
X6436071Y-15434976D01*
X6493214Y-15434976D02*
X6493214Y-15234976D01*
X6474167Y-15263548D01*
X6455119Y-15282595D01*
X6436071Y-15292119D01*
X6617024Y-15234976D02*
X6740833Y-15234976D01*
X6674167Y-15311167D01*
X6702738Y-15311167D01*
X6721786Y-15320690D01*
X6731309Y-15330214D01*
X6740833Y-15349262D01*
X6740833Y-15396881D01*
X6731309Y-15415928D01*
X6721786Y-15425452D01*
X6702738Y-15434976D01*
X6645595Y-15434976D01*
X6626548Y-15425452D01*
X6617024Y-15415928D01*
X6807500Y-15234976D02*
X6940833Y-15234976D01*
X6855119Y-15434976D01*
X7045595Y-15320690D02*
X7026548Y-15311167D01*
X7017024Y-15301643D01*
X7007500Y-15282595D01*
X7007500Y-15273071D01*
X7017024Y-15254024D01*
X7026548Y-15244500D01*
X7045595Y-15234976D01*
X7083690Y-15234976D01*
X7102738Y-15244500D01*
X7112262Y-15254024D01*
X7121786Y-15273071D01*
X7121786Y-15282595D01*
X7112262Y-15301643D01*
X7102738Y-15311167D01*
X7083690Y-15320690D01*
X7045595Y-15320690D01*
X7026548Y-15330214D01*
X7017024Y-15339738D01*
X7007500Y-15358786D01*
X7007500Y-15396881D01*
X7017024Y-15415928D01*
X7026548Y-15425452D01*
X7045595Y-15434976D01*
X7083690Y-15434976D01*
X7102738Y-15425452D01*
X7112262Y-15415928D01*
X7121786Y-15396881D01*
X7121786Y-15358786D01*
X7112262Y-15339738D01*
X7102738Y-15330214D01*
X7083690Y-15320690D01*
X7197976Y-15234976D02*
X7197976Y-15273071D01*
X7274167Y-15234976D02*
X7274167Y-15273071D01*
X7569405Y-15511167D02*
X7559881Y-15501643D01*
X7540833Y-15473071D01*
X7531309Y-15454024D01*
X7521786Y-15425452D01*
X7512262Y-15377833D01*
X7512262Y-15339738D01*
X7521786Y-15292119D01*
X7531309Y-15263548D01*
X7540833Y-15244500D01*
X7559881Y-15215928D01*
X7569405Y-15206405D01*
X7626548Y-15234976D02*
X7759881Y-15234976D01*
X7674167Y-15434976D01*
X7988452Y-15434976D02*
X7988452Y-15234976D01*
X8074167Y-15434976D02*
X8074167Y-15330214D01*
X8064643Y-15311167D01*
X8045595Y-15301643D01*
X8017024Y-15301643D01*
X7997976Y-15311167D01*
X7988452Y-15320690D01*
X8197976Y-15434976D02*
X8178928Y-15425452D01*
X8169405Y-15415928D01*
X8159881Y-15396881D01*
X8159881Y-15339738D01*
X8169405Y-15320690D01*
X8178928Y-15311167D01*
X8197976Y-15301643D01*
X8226548Y-15301643D01*
X8245595Y-15311167D01*
X8255119Y-15320690D01*
X8264643Y-15339738D01*
X8264643Y-15396881D01*
X8255119Y-15415928D01*
X8245595Y-15425452D01*
X8226548Y-15434976D01*
X8197976Y-15434976D01*
X8378928Y-15434976D02*
X8359881Y-15425452D01*
X8350357Y-15406405D01*
X8350357Y-15234976D01*
X8531310Y-15425452D02*
X8512262Y-15434976D01*
X8474167Y-15434976D01*
X8455119Y-15425452D01*
X8445595Y-15406405D01*
X8445595Y-15330214D01*
X8455119Y-15311167D01*
X8474167Y-15301643D01*
X8512262Y-15301643D01*
X8531310Y-15311167D01*
X8540833Y-15330214D01*
X8540833Y-15349262D01*
X8445595Y-15368309D01*
X8617024Y-15425452D02*
X8636071Y-15434976D01*
X8674167Y-15434976D01*
X8693214Y-15425452D01*
X8702738Y-15406405D01*
X8702738Y-15396881D01*
X8693214Y-15377833D01*
X8674167Y-15368309D01*
X8645595Y-15368309D01*
X8626548Y-15358786D01*
X8617024Y-15339738D01*
X8617024Y-15330214D01*
X8626548Y-15311167D01*
X8645595Y-15301643D01*
X8674167Y-15301643D01*
X8693214Y-15311167D01*
X8769405Y-15511167D02*
X8778929Y-15501643D01*
X8797976Y-15473071D01*
X8807500Y-15454024D01*
X8817024Y-15425452D01*
X8826548Y-15377833D01*
X8826548Y-15339738D01*
X8817024Y-15292119D01*
X8807500Y-15263548D01*
X8797976Y-15244500D01*
X8778929Y-15215928D01*
X8769405Y-15206405D01*
M02*
