M48
; DRILL file {KiCad (6.0.7)} date Tue Dec 27 15:36:58 2022
; FORMAT={-:-/ absolute / metric / decimal}
; #@! TF.CreationDate,2022-12-27T15:36:58+11:00
; #@! TF.GenerationSoftware,Kicad,Pcbnew,(6.0.7)
; #@! TF.FileFunction,Plated,1,4,PTH
FMAT,2
METRIC
; #@! TA.AperFunction,Plated,PTH,ViaDrill
T1C0.400
; #@! TA.AperFunction,Plated,PTH,ComponentDrill
T2C0.700
; #@! TA.AperFunction,Plated,PTH,ComponentDrill
T3C0.800
; #@! TA.AperFunction,Plated,PTH,ComponentDrill
T4C0.810
; #@! TA.AperFunction,Plated,PTH,ComponentDrill
T5C0.950
; #@! TA.AperFunction,Plated,PTH,ComponentDrill
T6C1.000
; #@! TA.AperFunction,Plated,PTH,ComponentDrill
T7C1.100
; #@! TA.AperFunction,Plated,PTH,ComponentDrill
T8C1.200
; #@! TA.AperFunction,Plated,PTH,ComponentDrill
T9C1.500
; #@! TA.AperFunction,Plated,PTH,ComponentDrill
T10C2.000
; #@! TA.AperFunction,Plated,PTH,ComponentDrill
T11C3.500
%
G90
G05
T1
X41.148Y-75.692
X43.688Y-69.088
X43.688Y-78.74
X43.688Y-83.312
X44.958Y-43.688
X44.958Y-45.72
X45.466Y-50.038
X46.0Y-64.0
X46.355Y-55.88
X47.114Y-76.116
X47.625Y-57.785
X47.625Y-60.325
X47.625Y-62.865
X49.022Y-69.088
X49.53Y-43.688
X50.546Y-55.88
X50.8Y-38.608
X50.8Y-42.164
X50.8Y-68.072
X51.054Y-65.532
X51.435Y-83.185
X51.655Y-80.103
X51.816Y-81.788
X51.837Y-62.865
X53.467Y-95.504
X53.848Y-68.072
X53.848Y-75.692
X54.864Y-43.688
X55.88Y-57.912
X56.007Y-56.515
X56.604Y-93.98
X57.15Y-83.185
X57.15Y-98.425
X57.785Y-38.735
X58.42Y-71.628
X58.547Y-82.804
X59.69Y-66.04
X59.944Y-56.388
X60.452Y-63.5
X60.96Y-78.74
X61.468Y-43.688
X61.595Y-72.644
X61.943Y-39.944
X63.0Y-76.0
X63.0Y-77.0
X63.0Y-78.0
X63.373Y-87.503
X63.5Y-68.072
X63.825Y-58.72
X63.837Y-62.595
X63.837Y-66.516
X64.008Y-54.102
X64.262Y-43.18
X64.516Y-37.338
X64.77Y-86.233
X64.791Y-82.801
X65.159Y-38.489
X65.445Y-40.679
X65.532Y-67.31
X65.786Y-59.563
X66.377Y-61.579
X66.377Y-65.5
X66.802Y-36.576
X66.929Y-87.122
X69.308Y-43.791
X69.342Y-67.31
X70.358Y-65.024
X70.485Y-41.91
X70.612Y-45.466
X70.612Y-59.69
X70.612Y-69.85
X71.126Y-52.064
X71.192Y-42.617
X71.628Y-55.245
X71.628Y-75.692
X71.628Y-76.708
X71.628Y-77.724
X71.647Y-62.576
X72.663Y-65.117
X74.422Y-41.656
X74.676Y-37.592
X74.676Y-46.482
X74.676Y-47.752
X74.93Y-38.862
X75.184Y-59.944
X75.184Y-76.708
X75.184Y-78.232
X75.184Y-79.756
X75.565Y-50.8
X75.692Y-56.896
X75.692Y-86.106
X75.711Y-62.576
X76.727Y-65.117
X77.216Y-49.784
X77.216Y-56.896
X77.47Y-52.705
X77.724Y-63.246
X78.74Y-56.896
X78.994Y-86.36
X79.248Y-41.148
X79.518Y-66.294
X80.518Y-86.614
X80.534Y-68.834
X82.042Y-97.917
X82.804Y-40.386
X82.804Y-51.816
X83.185Y-97.79
X83.217Y-66.286
X83.82Y-39.37
X83.82Y-62.484
X83.82Y-75.692
X83.82Y-77.216
X83.82Y-78.74
X84.233Y-68.826
X84.836Y-38.354
X84.836Y-45.72
X84.836Y-47.244
X85.344Y-57.404
X85.725Y-52.705
X86.36Y-42.672
X86.36Y-65.278
X86.36Y-75.184
X86.995Y-53.34
X86.995Y-96.498
X87.122Y-49.784
X87.376Y-68.58
X87.376Y-71.12
X87.63Y-38.735
X87.884Y-47.752
X87.884Y-59.944
X88.011Y-37.338
X88.265Y-50.419
X88.824Y-86.436
X88.9Y-57.15
X88.9Y-65.278
X90.17Y-63.5
X91.24Y-66.294
X91.44Y-38.862
X91.44Y-40.005
X91.567Y-51.562
X91.694Y-52.832
X91.821Y-54.737
X92.075Y-43.815
X92.256Y-68.834
X92.618Y-46.355
X93.726Y-85.598
X93.726Y-86.614
X94.488Y-41.656
X94.885Y-66.294
X95.25Y-52.324
X95.901Y-68.834
X96.012Y-39.878
X96.266Y-46.228
X96.266Y-57.15
X97.028Y-53.34
X97.155Y-97.79
X98.044Y-46.228
X98.806Y-56.388
X99.06Y-48.768
X99.06Y-50.292
X99.06Y-97.79
X99.314Y-57.404
X99.314Y-58.674
X99.314Y-60.706
X99.314Y-61.976
X99.568Y-64.297
X100.076Y-39.878
X100.076Y-41.402
X100.584Y-58.674
X100.584Y-60.706
X100.838Y-67.564
X100.838Y-86.106
X101.092Y-48.26
X101.6Y-51.435
X101.6Y-62.23
X102.108Y-86.36
X102.235Y-96.52
X104.288Y-66.294
X105.304Y-68.834
X105.41Y-39.878
X105.41Y-41.656
X105.41Y-45.72
X106.172Y-68.072
X106.172Y-86.868
X106.5Y-60.0
X106.5Y-61.5
X106.68Y-49.53
X106.68Y-51.816
X106.934Y-45.974
X107.945Y-66.294
X108.961Y-68.834
X109.474Y-38.1
X109.474Y-60.452
X109.474Y-61.722
X109.474Y-62.992
X111.506Y-60.452
X111.506Y-61.722
X111.506Y-62.992
X114.3Y-42.545
T2
X42.418Y-72.506
X42.418Y-74.406
T3
X41.783Y-100.34
X41.783Y-105.34
X109.728Y-53.283
X109.728Y-58.283
X115.844Y-78.385
X115.844Y-87.116
X115.844Y-95.752
X118.344Y-82.715
X118.344Y-91.446
X118.344Y-100.082
T4
X62.992Y-73.688
X62.992Y-81.307
X65.532Y-73.688
X65.532Y-81.307
X68.072Y-73.688
X68.072Y-81.307
X70.612Y-73.688
X70.612Y-81.307
X76.2Y-73.66
X76.2Y-81.28
X78.74Y-73.66
X78.74Y-81.28
X81.28Y-73.66
X81.28Y-81.28
X83.82Y-73.66
X83.82Y-81.28
X88.94Y-73.688
X88.94Y-81.307
X91.48Y-73.688
X91.48Y-81.307
X94.02Y-73.688
X94.02Y-81.307
X96.56Y-73.688
X96.56Y-81.307
X101.854Y-73.66
X101.854Y-81.28
X104.394Y-73.66
X104.394Y-81.28
X106.934Y-73.66
X106.934Y-81.28
X109.474Y-73.66
X109.474Y-81.28
T5
X43.18Y-42.752
X43.18Y-45.252
X43.18Y-47.752
X43.18Y-50.252
X43.18Y-52.752
X43.18Y-59.19
X43.18Y-61.69
X43.18Y-64.19
X48.943Y-47.07
X48.943Y-49.57
X48.943Y-52.07
X54.358Y-47.07
X54.358Y-49.57
X54.358Y-52.07
X59.773Y-46.99
X59.773Y-49.49
X59.773Y-51.99
X65.488Y-46.99
X65.488Y-49.49
X65.488Y-51.99
X116.54Y-44.356
X116.54Y-46.856
X116.54Y-49.356
X116.54Y-51.856
X116.54Y-54.356
T6
X49.068Y-38.1
X49.068Y-40.6
X59.273Y-109.606
X61.214Y-102.362
X93.726Y-38.1
X96.266Y-38.1
X98.806Y-38.1
X109.22Y-45.76
X109.22Y-48.26
T7
X53.34Y-103.505
X55.88Y-103.505
X58.42Y-103.505
X61.595Y-108.88
X64.135Y-108.88
X66.675Y-108.88
X73.66Y-95.59
X73.66Y-108.88
X76.2Y-95.59
X76.2Y-108.88
X78.74Y-95.59
X78.74Y-108.88
X88.9Y-95.59
X88.9Y-108.88
X91.44Y-95.59
X91.44Y-108.88
X93.98Y-95.59
X93.98Y-108.88
X104.14Y-95.59
X104.14Y-108.88
X106.68Y-95.59
X106.68Y-108.88
X109.22Y-95.59
X109.22Y-108.88
T8
X116.078Y-59.182
X116.078Y-74.422
T9
X45.212Y-98.558
X45.212Y-105.658
T10
X80.264Y-44.958
T11
X43.18Y-110.49
X43.482Y-86.995
X43.482Y-92.71
X49.762Y-116.5
X84.787Y-104.775
X100.027Y-104.775
X113.87Y-104.775
T0
M30
