G04 #@! TF.GenerationSoftware,KiCad,Pcbnew,(6.0.7)*
G04 #@! TF.CreationDate,2022-12-27T15:36:50+11:00*
G04 #@! TF.ProjectId,esp32_esc,65737033-325f-4657-9363-2e6b69636164,rev?*
G04 #@! TF.SameCoordinates,Original*
G04 #@! TF.FileFunction,Paste,Top*
G04 #@! TF.FilePolarity,Positive*
%FSLAX46Y46*%
G04 Gerber Fmt 4.6, Leading zero omitted, Abs format (unit mm)*
G04 Created by KiCad (PCBNEW (6.0.7)) date 2022-12-27 15:36:50*
%MOMM*%
%LPD*%
G01*
G04 APERTURE LIST*
G04 Aperture macros list*
%AMRoundRect*
0 Rectangle with rounded corners*
0 $1 Rounding radius*
0 $2 $3 $4 $5 $6 $7 $8 $9 X,Y pos of 4 corners*
0 Add a 4 corners polygon primitive as box body*
4,1,4,$2,$3,$4,$5,$6,$7,$8,$9,$2,$3,0*
0 Add four circle primitives for the rounded corners*
1,1,$1+$1,$2,$3*
1,1,$1+$1,$4,$5*
1,1,$1+$1,$6,$7*
1,1,$1+$1,$8,$9*
0 Add four rect primitives between the rounded corners*
20,1,$1+$1,$2,$3,$4,$5,0*
20,1,$1+$1,$4,$5,$6,$7,0*
20,1,$1+$1,$6,$7,$8,$9,0*
20,1,$1+$1,$8,$9,$2,$3,0*%
%AMFreePoly0*
4,1,13,0.587500,-0.725000,0.100000,-0.725000,0.100000,-2.000000,0.080902,-2.058779,0.030902,-2.095106,-0.030902,-2.095106,-0.080902,-2.058779,-0.100000,-2.000000,-0.100000,-0.725000,-0.587500,-0.725000,-0.587500,0.725000,0.587500,0.725000,0.587500,-0.725000,0.587500,-0.725000,$1*%
G04 Aperture macros list end*
%ADD10RoundRect,0.237500X0.237500X-0.300000X0.237500X0.300000X-0.237500X0.300000X-0.237500X-0.300000X0*%
%ADD11FreePoly0,90.000000*%
%ADD12RoundRect,0.250000X-0.450000X0.262500X-0.450000X-0.262500X0.450000X-0.262500X0.450000X0.262500X0*%
%ADD13RoundRect,0.249999X-0.450001X-1.425001X0.450001X-1.425001X0.450001X1.425001X-0.450001X1.425001X0*%
%ADD14RoundRect,0.250000X-0.475000X0.337500X-0.475000X-0.337500X0.475000X-0.337500X0.475000X0.337500X0*%
%ADD15RoundRect,0.250000X0.262500X0.450000X-0.262500X0.450000X-0.262500X-0.450000X0.262500X-0.450000X0*%
%ADD16RoundRect,0.250000X0.350000X0.450000X-0.350000X0.450000X-0.350000X-0.450000X0.350000X-0.450000X0*%
%ADD17RoundRect,0.250000X-0.337500X-0.475000X0.337500X-0.475000X0.337500X0.475000X-0.337500X0.475000X0*%
%ADD18RoundRect,0.250000X-0.450000X0.325000X-0.450000X-0.325000X0.450000X-0.325000X0.450000X0.325000X0*%
%ADD19RoundRect,0.250000X0.337500X0.475000X-0.337500X0.475000X-0.337500X-0.475000X0.337500X-0.475000X0*%
%ADD20RoundRect,0.250000X0.475000X-0.337500X0.475000X0.337500X-0.475000X0.337500X-0.475000X-0.337500X0*%
%ADD21RoundRect,0.250000X0.450000X-0.350000X0.450000X0.350000X-0.450000X0.350000X-0.450000X-0.350000X0*%
%ADD22RoundRect,0.150000X-0.150000X0.587500X-0.150000X-0.587500X0.150000X-0.587500X0.150000X0.587500X0*%
%ADD23R,1.800000X2.500000*%
%ADD24RoundRect,0.237500X-0.237500X0.300000X-0.237500X-0.300000X0.237500X-0.300000X0.237500X0.300000X0*%
%ADD25FreePoly0,270.000000*%
%ADD26RoundRect,0.150000X-0.825000X-0.150000X0.825000X-0.150000X0.825000X0.150000X-0.825000X0.150000X0*%
%ADD27RoundRect,0.250000X-0.262500X-0.450000X0.262500X-0.450000X0.262500X0.450000X-0.262500X0.450000X0*%
%ADD28R,2.000000X1.500000*%
%ADD29R,2.000000X3.800000*%
%ADD30RoundRect,0.250001X0.624999X-0.462499X0.624999X0.462499X-0.624999X0.462499X-0.624999X-0.462499X0*%
%ADD31RoundRect,0.150000X0.150000X-0.825000X0.150000X0.825000X-0.150000X0.825000X-0.150000X-0.825000X0*%
%ADD32RoundRect,0.150000X0.587500X0.150000X-0.587500X0.150000X-0.587500X-0.150000X0.587500X-0.150000X0*%
%ADD33RoundRect,0.250000X0.450000X-0.262500X0.450000X0.262500X-0.450000X0.262500X-0.450000X-0.262500X0*%
%ADD34R,2.750000X1.000000*%
%ADD35RoundRect,0.237500X-0.300000X-0.237500X0.300000X-0.237500X0.300000X0.237500X-0.300000X0.237500X0*%
%ADD36FreePoly0,0.000000*%
%ADD37R,2.000000X0.900000*%
%ADD38R,0.900000X2.000000*%
%ADD39R,5.000000X5.000000*%
G04 APERTURE END LIST*
D10*
X61976000Y-85317500D03*
D11*
X60198000Y-85514000D03*
D10*
X61976000Y-83592500D03*
D11*
X60198000Y-83439000D03*
D12*
X46605750Y-69751250D03*
X46605750Y-71576250D03*
D13*
X63625000Y-99949000D03*
X69725000Y-99949000D03*
D14*
X51943000Y-93069500D03*
X51943000Y-95144500D03*
D15*
X84328000Y-86360000D03*
X82503000Y-86360000D03*
D16*
X72609000Y-67402500D03*
X70609000Y-67402500D03*
D12*
X94615000Y-55602500D03*
X94615000Y-57427500D03*
D17*
X96162500Y-41148000D03*
X98237500Y-41148000D03*
D18*
X94615000Y-58665000D03*
X94615000Y-60715000D03*
D19*
X96901000Y-84201000D03*
X94826000Y-84201000D03*
D17*
X61192500Y-36449000D03*
X63267500Y-36449000D03*
D16*
X76673000Y-67402500D03*
X74673000Y-67402500D03*
D18*
X44573750Y-71503250D03*
X44573750Y-73553250D03*
D20*
X52955750Y-71819750D03*
X52955750Y-69744750D03*
D21*
X67647000Y-66516000D03*
X67647000Y-64516000D03*
D22*
X72512000Y-63246000D03*
X70612000Y-63246000D03*
X71562000Y-65121000D03*
D23*
X56388000Y-76656250D03*
X56388000Y-80656250D03*
D16*
X76657000Y-61306500D03*
X74657000Y-61306500D03*
D19*
X84328000Y-84328000D03*
X82253000Y-84328000D03*
D24*
X51691000Y-96949000D03*
D25*
X53469000Y-96752500D03*
D24*
X51691000Y-98674000D03*
D25*
X53469000Y-98827500D03*
D20*
X86995000Y-100097500D03*
X86995000Y-98022500D03*
D16*
X96012000Y-71120000D03*
X94012000Y-71120000D03*
D19*
X109474000Y-83820000D03*
X107399000Y-83820000D03*
D12*
X94742000Y-44807500D03*
X94742000Y-46632500D03*
D19*
X56663500Y-73830250D03*
X54588500Y-73830250D03*
D22*
X76576000Y-63246000D03*
X74676000Y-63246000D03*
X75626000Y-65121000D03*
D26*
X49595000Y-57785000D03*
X49595000Y-59055000D03*
X49595000Y-60325000D03*
X49595000Y-61595000D03*
X49595000Y-62865000D03*
X49595000Y-64135000D03*
X49595000Y-65405000D03*
X49595000Y-66675000D03*
X54545000Y-66675000D03*
X54545000Y-65405000D03*
X54545000Y-64135000D03*
X54545000Y-62865000D03*
X54545000Y-61595000D03*
X54545000Y-60325000D03*
X54545000Y-59055000D03*
X54545000Y-57785000D03*
D22*
X95750000Y-66963500D03*
X93850000Y-66963500D03*
X94800000Y-68838500D03*
D21*
X61805000Y-66500000D03*
X61805000Y-64500000D03*
D27*
X60977500Y-41180000D03*
X62802500Y-41180000D03*
D22*
X80383000Y-66963500D03*
X78483000Y-66963500D03*
X79433000Y-68838500D03*
D26*
X48325000Y-77005250D03*
X48325000Y-78275250D03*
X48325000Y-79545250D03*
X48325000Y-80815250D03*
X53275000Y-80815250D03*
X53275000Y-79545250D03*
X53275000Y-78275250D03*
X53275000Y-77005250D03*
D28*
X103480000Y-51830000D03*
D29*
X97180000Y-49530000D03*
D28*
X103480000Y-49530000D03*
X103480000Y-47230000D03*
D22*
X105152750Y-66963500D03*
X103252750Y-66963500D03*
X104202750Y-68838500D03*
D20*
X42541750Y-79661750D03*
X42541750Y-77586750D03*
D30*
X112268000Y-76925500D03*
X112268000Y-73950500D03*
D31*
X97028000Y-100900000D03*
X98298000Y-100900000D03*
X99568000Y-100900000D03*
X100838000Y-100900000D03*
X100838000Y-95950000D03*
X99568000Y-95950000D03*
X98298000Y-95950000D03*
X97028000Y-95950000D03*
D21*
X61793250Y-58704250D03*
X61793250Y-56704250D03*
D12*
X57019750Y-69869750D03*
X57019750Y-71694750D03*
D28*
X103480000Y-61990000D03*
D29*
X97180000Y-59690000D03*
D28*
X103480000Y-59690000D03*
X103480000Y-57390000D03*
D16*
X95996000Y-65024000D03*
X93996000Y-65024000D03*
D19*
X71755000Y-83312000D03*
X69680000Y-83312000D03*
D17*
X101832500Y-54610000D03*
X103907500Y-54610000D03*
D16*
X72593000Y-61306500D03*
X70593000Y-61306500D03*
D18*
X94615000Y-48505000D03*
X94615000Y-50555000D03*
D22*
X84082000Y-66955500D03*
X82182000Y-66955500D03*
X83132000Y-68830500D03*
D16*
X80518000Y-70866000D03*
X78518000Y-70866000D03*
D21*
X42418000Y-70596000D03*
X42418000Y-68596000D03*
D23*
X59690000Y-69512250D03*
X59690000Y-73512250D03*
D16*
X92202000Y-71120000D03*
X90202000Y-71120000D03*
D31*
X81280000Y-100900000D03*
X82550000Y-100900000D03*
X83820000Y-100900000D03*
X85090000Y-100900000D03*
X85090000Y-95950000D03*
X83820000Y-95950000D03*
X82550000Y-95950000D03*
X81280000Y-95950000D03*
D30*
X73406000Y-80862500D03*
X73406000Y-77887500D03*
D16*
X84328000Y-64778000D03*
X82328000Y-64778000D03*
D32*
X50591250Y-71613750D03*
X50591250Y-69713750D03*
X48716250Y-70663750D03*
D12*
X101600000Y-83185000D03*
X101600000Y-85010000D03*
X76200000Y-83161500D03*
X76200000Y-84986500D03*
D30*
X86360000Y-86323500D03*
X86360000Y-83348500D03*
D31*
X63500000Y-89089000D03*
X64770000Y-89089000D03*
X66040000Y-89089000D03*
X67310000Y-89089000D03*
X67310000Y-84139000D03*
X66040000Y-84139000D03*
X64770000Y-84139000D03*
X63500000Y-84139000D03*
D15*
X52917250Y-73703250D03*
X51092250Y-73703250D03*
D14*
X69596000Y-85322500D03*
X69596000Y-87397500D03*
D16*
X84328000Y-70858000D03*
X82328000Y-70858000D03*
D33*
X110998000Y-41632500D03*
X110998000Y-39807500D03*
D34*
X58580000Y-40650000D03*
X52820000Y-40650000D03*
X58580000Y-36650000D03*
X52820000Y-36650000D03*
D35*
X72184000Y-71880000D03*
D36*
X71987500Y-70102000D03*
D35*
X73909000Y-71880000D03*
D36*
X74062500Y-70102000D03*
D24*
X68328000Y-37259000D03*
D25*
X70106000Y-37062500D03*
D24*
X68328000Y-38984000D03*
D25*
X70106000Y-39137500D03*
D17*
X96752500Y-44450000D03*
X98827500Y-44450000D03*
D16*
X109204000Y-70866000D03*
X107204000Y-70866000D03*
D33*
X111252000Y-38100000D03*
X111252000Y-36275000D03*
D23*
X59944000Y-76656250D03*
X59944000Y-80656250D03*
D20*
X102870000Y-99865000D03*
X102870000Y-97790000D03*
D22*
X108809750Y-66963500D03*
X106909750Y-66963500D03*
X107859750Y-68838500D03*
D15*
X62802500Y-38640000D03*
X60977500Y-38640000D03*
D21*
X61805000Y-62579000D03*
X61805000Y-60579000D03*
X67647000Y-62595000D03*
X67647000Y-60595000D03*
D16*
X105287750Y-70866000D03*
X103287750Y-70866000D03*
D17*
X101832500Y-44450000D03*
X103907500Y-44450000D03*
D16*
X80518000Y-64786000D03*
X78518000Y-64786000D03*
D22*
X92105000Y-66963500D03*
X90205000Y-66963500D03*
X91155000Y-68838500D03*
D37*
X72780000Y-37465000D03*
X72780000Y-38735000D03*
X72780000Y-40005000D03*
X72780000Y-41275000D03*
X72780000Y-42545000D03*
X72780000Y-43815000D03*
X72780000Y-45085000D03*
X72780000Y-46355000D03*
X72780000Y-47625000D03*
X72780000Y-48895000D03*
X72780000Y-50165000D03*
X72780000Y-51435000D03*
X72780000Y-52705000D03*
X72780000Y-53975000D03*
D38*
X75565000Y-54975000D03*
X76835000Y-54975000D03*
X78105000Y-54975000D03*
X79375000Y-54975000D03*
X80645000Y-54975000D03*
X81915000Y-54975000D03*
X83185000Y-54975000D03*
X84455000Y-54975000D03*
X85725000Y-54975000D03*
X86995000Y-54975000D03*
D37*
X89780000Y-53975000D03*
X89780000Y-52705000D03*
X89780000Y-51435000D03*
X89780000Y-50165000D03*
X89780000Y-48895000D03*
X89780000Y-47625000D03*
X89780000Y-46355000D03*
X89780000Y-45085000D03*
X89780000Y-43815000D03*
X89780000Y-42545000D03*
X89780000Y-41275000D03*
X89780000Y-40005000D03*
X89780000Y-38735000D03*
X89780000Y-37465000D03*
D39*
X80280000Y-44965000D03*
D32*
X65707500Y-62444000D03*
X65707500Y-60544000D03*
X63832500Y-61494000D03*
D16*
X105303750Y-64770000D03*
X103303750Y-64770000D03*
D15*
X109116500Y-85852000D03*
X107291500Y-85852000D03*
D32*
X65707500Y-66365000D03*
X65707500Y-64465000D03*
X63832500Y-65415000D03*
D15*
X96924500Y-86360000D03*
X95099500Y-86360000D03*
D17*
X47222500Y-73703250D03*
X49297500Y-73703250D03*
D16*
X109204000Y-64770000D03*
X107204000Y-64770000D03*
D31*
X55245000Y-100265000D03*
X56515000Y-100265000D03*
X57785000Y-100265000D03*
X59055000Y-100265000D03*
X59055000Y-95315000D03*
X57785000Y-95315000D03*
X56515000Y-95315000D03*
X55245000Y-95315000D03*
D13*
X63625000Y-96139000D03*
X69725000Y-96139000D03*
D16*
X92186000Y-65024000D03*
X90186000Y-65024000D03*
D12*
X54987750Y-69869750D03*
X54987750Y-71694750D03*
D30*
X99060000Y-86323500D03*
X99060000Y-83348500D03*
D34*
X108290000Y-40635000D03*
X102530000Y-40635000D03*
X108290000Y-36635000D03*
X102530000Y-36635000D03*
D21*
X73406000Y-73930000D03*
X73406000Y-75930000D03*
D32*
X65695750Y-58569250D03*
X65695750Y-56669250D03*
X63820750Y-57619250D03*
D23*
X45335750Y-80232000D03*
X45335750Y-76232000D03*
D21*
X67635250Y-58720250D03*
X67635250Y-56720250D03*
D17*
X96752500Y-54610000D03*
X98827500Y-54610000D03*
D13*
X63625000Y-92329000D03*
X69725000Y-92329000D03*
D12*
X88900000Y-83185000D03*
X88900000Y-85010000D03*
M02*
