%TF.GenerationSoftware,KiCad,Pcbnew,(6.0.7)*%
%TF.CreationDate,2022-12-27T15:37:00+11:00*%
%TF.ProjectId,esp32_esc,65737033-325f-4657-9363-2e6b69636164,rev?*%
%TF.SameCoordinates,Original*%
%TF.FileFunction,Drillmap*%
%TF.FilePolarity,Positive*%
%FSLAX45Y45*%
G04 Gerber Fmt 4.5, Leading zero omitted, Abs format (unit mm)*
G04 Created by KiCad (PCBNEW (6.0.7)) date 2022-12-27 15:37:00*
%MOMM*%
%LPD*%
G01*
G04 APERTURE LIST*
%ADD10C,0.050000*%
%ADD11C,0.200000*%
%ADD12C,0.320000*%
G04 APERTURE END LIST*
D10*
X4200000Y-3400000D02*
G75*
G03*
X4000000Y-3600000I0J-200000D01*
G01*
X4200000Y-12000000D02*
X11800000Y-12000000D01*
X11800000Y-12000000D02*
G75*
G03*
X12000000Y-11800000I0J200000D01*
G01*
X12000000Y-11800000D02*
X12000000Y-3600000D01*
X12000000Y-3600000D02*
G75*
G03*
X11800000Y-3400000I-200000J0D01*
G01*
X4000000Y-11800000D02*
X4000000Y-3600000D01*
X11800000Y-3400000D02*
X4200000Y-3400000D01*
X4000000Y-11800000D02*
G75*
G03*
X4200000Y-12000000I200000J0D01*
G01*
D11*
D12*
X4190000Y-3590000D02*
X4510000Y-3910000D01*
X4510000Y-3590000D02*
X4190000Y-3910000D01*
X4190000Y-11490000D02*
X4510000Y-11810000D01*
X4510000Y-11490000D02*
X4190000Y-11810000D01*
X11490000Y-3590000D02*
X11810000Y-3910000D01*
X11810000Y-3590000D02*
X11490000Y-3910000D01*
X11490000Y-11490000D02*
X11810000Y-11810000D01*
X11810000Y-11490000D02*
X11490000Y-11810000D01*
D11*
X4255119Y-12312976D02*
X4255119Y-12112976D01*
X4302738Y-12112976D01*
X4331310Y-12122500D01*
X4350357Y-12141548D01*
X4359881Y-12160595D01*
X4369405Y-12198690D01*
X4369405Y-12227262D01*
X4359881Y-12265357D01*
X4350357Y-12284405D01*
X4331310Y-12303452D01*
X4302738Y-12312976D01*
X4255119Y-12312976D01*
X4455119Y-12312976D02*
X4455119Y-12179643D01*
X4455119Y-12217738D02*
X4464643Y-12198690D01*
X4474167Y-12189167D01*
X4493214Y-12179643D01*
X4512262Y-12179643D01*
X4578929Y-12312976D02*
X4578929Y-12179643D01*
X4578929Y-12112976D02*
X4569405Y-12122500D01*
X4578929Y-12132024D01*
X4588452Y-12122500D01*
X4578929Y-12112976D01*
X4578929Y-12132024D01*
X4702738Y-12312976D02*
X4683690Y-12303452D01*
X4674167Y-12284405D01*
X4674167Y-12112976D01*
X4807500Y-12312976D02*
X4788452Y-12303452D01*
X4778929Y-12284405D01*
X4778929Y-12112976D01*
X5036071Y-12312976D02*
X5036071Y-12112976D01*
X5102738Y-12255833D01*
X5169405Y-12112976D01*
X5169405Y-12312976D01*
X5350357Y-12312976D02*
X5350357Y-12208214D01*
X5340833Y-12189167D01*
X5321786Y-12179643D01*
X5283690Y-12179643D01*
X5264643Y-12189167D01*
X5350357Y-12303452D02*
X5331310Y-12312976D01*
X5283690Y-12312976D01*
X5264643Y-12303452D01*
X5255119Y-12284405D01*
X5255119Y-12265357D01*
X5264643Y-12246309D01*
X5283690Y-12236786D01*
X5331310Y-12236786D01*
X5350357Y-12227262D01*
X5445595Y-12179643D02*
X5445595Y-12379643D01*
X5445595Y-12189167D02*
X5464643Y-12179643D01*
X5502738Y-12179643D01*
X5521786Y-12189167D01*
X5531310Y-12198690D01*
X5540833Y-12217738D01*
X5540833Y-12274881D01*
X5531310Y-12293928D01*
X5521786Y-12303452D01*
X5502738Y-12312976D01*
X5464643Y-12312976D01*
X5445595Y-12303452D01*
X5626548Y-12293928D02*
X5636071Y-12303452D01*
X5626548Y-12312976D01*
X5617024Y-12303452D01*
X5626548Y-12293928D01*
X5626548Y-12312976D01*
X5626548Y-12189167D02*
X5636071Y-12198690D01*
X5626548Y-12208214D01*
X5617024Y-12198690D01*
X5626548Y-12189167D01*
X5626548Y-12208214D01*
X3797500Y-12542500D02*
X3997500Y-12742500D01*
X3997500Y-12542500D02*
X3797500Y-12742500D01*
X4236071Y-12532976D02*
X4359881Y-12532976D01*
X4293214Y-12609167D01*
X4321786Y-12609167D01*
X4340833Y-12618690D01*
X4350357Y-12628214D01*
X4359881Y-12647262D01*
X4359881Y-12694881D01*
X4350357Y-12713928D01*
X4340833Y-12723452D01*
X4321786Y-12732976D01*
X4264643Y-12732976D01*
X4245595Y-12723452D01*
X4236071Y-12713928D01*
X4445595Y-12713928D02*
X4455119Y-12723452D01*
X4445595Y-12732976D01*
X4436071Y-12723452D01*
X4445595Y-12713928D01*
X4445595Y-12732976D01*
X4531310Y-12552024D02*
X4540833Y-12542500D01*
X4559881Y-12532976D01*
X4607500Y-12532976D01*
X4626548Y-12542500D01*
X4636071Y-12552024D01*
X4645595Y-12571071D01*
X4645595Y-12590119D01*
X4636071Y-12618690D01*
X4521786Y-12732976D01*
X4645595Y-12732976D01*
X4769405Y-12532976D02*
X4788452Y-12532976D01*
X4807500Y-12542500D01*
X4817024Y-12552024D01*
X4826548Y-12571071D01*
X4836071Y-12609167D01*
X4836071Y-12656786D01*
X4826548Y-12694881D01*
X4817024Y-12713928D01*
X4807500Y-12723452D01*
X4788452Y-12732976D01*
X4769405Y-12732976D01*
X4750357Y-12723452D01*
X4740833Y-12713928D01*
X4731310Y-12694881D01*
X4721786Y-12656786D01*
X4721786Y-12609167D01*
X4731310Y-12571071D01*
X4740833Y-12552024D01*
X4750357Y-12542500D01*
X4769405Y-12532976D01*
X4959881Y-12532976D02*
X4978929Y-12532976D01*
X4997976Y-12542500D01*
X5007500Y-12552024D01*
X5017024Y-12571071D01*
X5026548Y-12609167D01*
X5026548Y-12656786D01*
X5017024Y-12694881D01*
X5007500Y-12713928D01*
X4997976Y-12723452D01*
X4978929Y-12732976D01*
X4959881Y-12732976D01*
X4940833Y-12723452D01*
X4931310Y-12713928D01*
X4921786Y-12694881D01*
X4912262Y-12656786D01*
X4912262Y-12609167D01*
X4921786Y-12571071D01*
X4931310Y-12552024D01*
X4940833Y-12542500D01*
X4959881Y-12532976D01*
X5112262Y-12732976D02*
X5112262Y-12599643D01*
X5112262Y-12618690D02*
X5121786Y-12609167D01*
X5140833Y-12599643D01*
X5169405Y-12599643D01*
X5188452Y-12609167D01*
X5197976Y-12628214D01*
X5197976Y-12732976D01*
X5197976Y-12628214D02*
X5207500Y-12609167D01*
X5226548Y-12599643D01*
X5255119Y-12599643D01*
X5274167Y-12609167D01*
X5283690Y-12628214D01*
X5283690Y-12732976D01*
X5378929Y-12732976D02*
X5378929Y-12599643D01*
X5378929Y-12618690D02*
X5388452Y-12609167D01*
X5407500Y-12599643D01*
X5436071Y-12599643D01*
X5455119Y-12609167D01*
X5464643Y-12628214D01*
X5464643Y-12732976D01*
X5464643Y-12628214D02*
X5474167Y-12609167D01*
X5493214Y-12599643D01*
X5521786Y-12599643D01*
X5540833Y-12609167D01*
X5550357Y-12628214D01*
X5550357Y-12732976D01*
X5940833Y-12523452D02*
X5769405Y-12780595D01*
X6197976Y-12532976D02*
X6217024Y-12532976D01*
X6236071Y-12542500D01*
X6245595Y-12552024D01*
X6255119Y-12571071D01*
X6264643Y-12609167D01*
X6264643Y-12656786D01*
X6255119Y-12694881D01*
X6245595Y-12713928D01*
X6236071Y-12723452D01*
X6217024Y-12732976D01*
X6197976Y-12732976D01*
X6178928Y-12723452D01*
X6169405Y-12713928D01*
X6159881Y-12694881D01*
X6150357Y-12656786D01*
X6150357Y-12609167D01*
X6159881Y-12571071D01*
X6169405Y-12552024D01*
X6178928Y-12542500D01*
X6197976Y-12532976D01*
X6350357Y-12713928D02*
X6359881Y-12723452D01*
X6350357Y-12732976D01*
X6340833Y-12723452D01*
X6350357Y-12713928D01*
X6350357Y-12732976D01*
X6550357Y-12732976D02*
X6436071Y-12732976D01*
X6493214Y-12732976D02*
X6493214Y-12532976D01*
X6474167Y-12561548D01*
X6455119Y-12580595D01*
X6436071Y-12590119D01*
X6626548Y-12552024D02*
X6636071Y-12542500D01*
X6655119Y-12532976D01*
X6702738Y-12532976D01*
X6721786Y-12542500D01*
X6731309Y-12552024D01*
X6740833Y-12571071D01*
X6740833Y-12590119D01*
X6731309Y-12618690D01*
X6617024Y-12732976D01*
X6740833Y-12732976D01*
X6912262Y-12532976D02*
X6874167Y-12532976D01*
X6855119Y-12542500D01*
X6845595Y-12552024D01*
X6826548Y-12580595D01*
X6817024Y-12618690D01*
X6817024Y-12694881D01*
X6826548Y-12713928D01*
X6836071Y-12723452D01*
X6855119Y-12732976D01*
X6893214Y-12732976D01*
X6912262Y-12723452D01*
X6921786Y-12713928D01*
X6931309Y-12694881D01*
X6931309Y-12647262D01*
X6921786Y-12628214D01*
X6912262Y-12618690D01*
X6893214Y-12609167D01*
X6855119Y-12609167D01*
X6836071Y-12618690D01*
X6826548Y-12628214D01*
X6817024Y-12647262D01*
X7055119Y-12532976D02*
X7074167Y-12532976D01*
X7093214Y-12542500D01*
X7102738Y-12552024D01*
X7112262Y-12571071D01*
X7121786Y-12609167D01*
X7121786Y-12656786D01*
X7112262Y-12694881D01*
X7102738Y-12713928D01*
X7093214Y-12723452D01*
X7074167Y-12732976D01*
X7055119Y-12732976D01*
X7036071Y-12723452D01*
X7026548Y-12713928D01*
X7017024Y-12694881D01*
X7007500Y-12656786D01*
X7007500Y-12609167D01*
X7017024Y-12571071D01*
X7026548Y-12552024D01*
X7036071Y-12542500D01*
X7055119Y-12532976D01*
X7197976Y-12532976D02*
X7197976Y-12571071D01*
X7274167Y-12532976D02*
X7274167Y-12571071D01*
X7569405Y-12809167D02*
X7559881Y-12799643D01*
X7540833Y-12771071D01*
X7531309Y-12752024D01*
X7521786Y-12723452D01*
X7512262Y-12675833D01*
X7512262Y-12637738D01*
X7521786Y-12590119D01*
X7531309Y-12561548D01*
X7540833Y-12542500D01*
X7559881Y-12513928D01*
X7569405Y-12504405D01*
X7731309Y-12599643D02*
X7731309Y-12732976D01*
X7683690Y-12523452D02*
X7636071Y-12666309D01*
X7759881Y-12666309D01*
X7988452Y-12732976D02*
X7988452Y-12532976D01*
X8074167Y-12732976D02*
X8074167Y-12628214D01*
X8064643Y-12609167D01*
X8045595Y-12599643D01*
X8017024Y-12599643D01*
X7997976Y-12609167D01*
X7988452Y-12618690D01*
X8197976Y-12732976D02*
X8178928Y-12723452D01*
X8169405Y-12713928D01*
X8159881Y-12694881D01*
X8159881Y-12637738D01*
X8169405Y-12618690D01*
X8178928Y-12609167D01*
X8197976Y-12599643D01*
X8226548Y-12599643D01*
X8245595Y-12609167D01*
X8255119Y-12618690D01*
X8264643Y-12637738D01*
X8264643Y-12694881D01*
X8255119Y-12713928D01*
X8245595Y-12723452D01*
X8226548Y-12732976D01*
X8197976Y-12732976D01*
X8378928Y-12732976D02*
X8359881Y-12723452D01*
X8350357Y-12704405D01*
X8350357Y-12532976D01*
X8531310Y-12723452D02*
X8512262Y-12732976D01*
X8474167Y-12732976D01*
X8455119Y-12723452D01*
X8445595Y-12704405D01*
X8445595Y-12628214D01*
X8455119Y-12609167D01*
X8474167Y-12599643D01*
X8512262Y-12599643D01*
X8531310Y-12609167D01*
X8540833Y-12628214D01*
X8540833Y-12647262D01*
X8445595Y-12666309D01*
X8617024Y-12723452D02*
X8636071Y-12732976D01*
X8674167Y-12732976D01*
X8693214Y-12723452D01*
X8702738Y-12704405D01*
X8702738Y-12694881D01*
X8693214Y-12675833D01*
X8674167Y-12666309D01*
X8645595Y-12666309D01*
X8626548Y-12656786D01*
X8617024Y-12637738D01*
X8617024Y-12628214D01*
X8626548Y-12609167D01*
X8645595Y-12599643D01*
X8674167Y-12599643D01*
X8693214Y-12609167D01*
X8769405Y-12809167D02*
X8778929Y-12799643D01*
X8797976Y-12771071D01*
X8807500Y-12752024D01*
X8817024Y-12723452D01*
X8826548Y-12675833D01*
X8826548Y-12637738D01*
X8817024Y-12590119D01*
X8807500Y-12561548D01*
X8797976Y-12542500D01*
X8778929Y-12513928D01*
X8769405Y-12504405D01*
X9131310Y-12809167D02*
X9121786Y-12799643D01*
X9102738Y-12771071D01*
X9093214Y-12752024D01*
X9083690Y-12723452D01*
X9074167Y-12675833D01*
X9074167Y-12637738D01*
X9083690Y-12590119D01*
X9093214Y-12561548D01*
X9102738Y-12542500D01*
X9121786Y-12513928D01*
X9131310Y-12504405D01*
X9207500Y-12599643D02*
X9207500Y-12732976D01*
X9207500Y-12618690D02*
X9217024Y-12609167D01*
X9236071Y-12599643D01*
X9264643Y-12599643D01*
X9283690Y-12609167D01*
X9293214Y-12628214D01*
X9293214Y-12732976D01*
X9417024Y-12732976D02*
X9397976Y-12723452D01*
X9388452Y-12713928D01*
X9378929Y-12694881D01*
X9378929Y-12637738D01*
X9388452Y-12618690D01*
X9397976Y-12609167D01*
X9417024Y-12599643D01*
X9445595Y-12599643D01*
X9464643Y-12609167D01*
X9474167Y-12618690D01*
X9483690Y-12637738D01*
X9483690Y-12694881D01*
X9474167Y-12713928D01*
X9464643Y-12723452D01*
X9445595Y-12732976D01*
X9417024Y-12732976D01*
X9540833Y-12599643D02*
X9617024Y-12599643D01*
X9569405Y-12532976D02*
X9569405Y-12704405D01*
X9578929Y-12723452D01*
X9597976Y-12732976D01*
X9617024Y-12732976D01*
X9836071Y-12599643D02*
X9836071Y-12799643D01*
X9836071Y-12609167D02*
X9855119Y-12599643D01*
X9893214Y-12599643D01*
X9912262Y-12609167D01*
X9921786Y-12618690D01*
X9931310Y-12637738D01*
X9931310Y-12694881D01*
X9921786Y-12713928D01*
X9912262Y-12723452D01*
X9893214Y-12732976D01*
X9855119Y-12732976D01*
X9836071Y-12723452D01*
X10045595Y-12732976D02*
X10026548Y-12723452D01*
X10017024Y-12704405D01*
X10017024Y-12532976D01*
X10207500Y-12732976D02*
X10207500Y-12628214D01*
X10197976Y-12609167D01*
X10178929Y-12599643D01*
X10140833Y-12599643D01*
X10121786Y-12609167D01*
X10207500Y-12723452D02*
X10188452Y-12732976D01*
X10140833Y-12732976D01*
X10121786Y-12723452D01*
X10112262Y-12704405D01*
X10112262Y-12685357D01*
X10121786Y-12666309D01*
X10140833Y-12656786D01*
X10188452Y-12656786D01*
X10207500Y-12647262D01*
X10274167Y-12599643D02*
X10350357Y-12599643D01*
X10302738Y-12532976D02*
X10302738Y-12704405D01*
X10312262Y-12723452D01*
X10331310Y-12732976D01*
X10350357Y-12732976D01*
X10493214Y-12723452D02*
X10474167Y-12732976D01*
X10436071Y-12732976D01*
X10417024Y-12723452D01*
X10407500Y-12704405D01*
X10407500Y-12628214D01*
X10417024Y-12609167D01*
X10436071Y-12599643D01*
X10474167Y-12599643D01*
X10493214Y-12609167D01*
X10502738Y-12628214D01*
X10502738Y-12647262D01*
X10407500Y-12666309D01*
X10674167Y-12732976D02*
X10674167Y-12532976D01*
X10674167Y-12723452D02*
X10655119Y-12732976D01*
X10617024Y-12732976D01*
X10597976Y-12723452D01*
X10588452Y-12713928D01*
X10578929Y-12694881D01*
X10578929Y-12637738D01*
X10588452Y-12618690D01*
X10597976Y-12609167D01*
X10617024Y-12599643D01*
X10655119Y-12599643D01*
X10674167Y-12609167D01*
X10750357Y-12809167D02*
X10759881Y-12799643D01*
X10778929Y-12771071D01*
X10788452Y-12752024D01*
X10797976Y-12723452D01*
X10807500Y-12675833D01*
X10807500Y-12637738D01*
X10797976Y-12590119D01*
X10788452Y-12561548D01*
X10778929Y-12542500D01*
X10759881Y-12513928D01*
X10750357Y-12504405D01*
M02*
