%TF.GenerationSoftware,KiCad,Pcbnew,(6.0.7)*%
%TF.CreationDate,2022-12-27T00:24:06+11:00*%
%TF.ProjectId,esp32_esc,65737033-325f-4657-9363-2e6b69636164,rev?*%
%TF.SameCoordinates,Original*%
%TF.FileFunction,Soldermask,Bot*%
%TF.FilePolarity,Negative*%
%FSLAX46Y46*%
G04 Gerber Fmt 4.6, Leading zero omitted, Abs format (unit mm)*
G04 Created by KiCad (PCBNEW (6.0.7)) date 2022-12-27 00:24:06*
%MOMM*%
%LPD*%
G01*
G04 APERTURE LIST*
G04 Aperture macros list*
%AMRoundRect*
0 Rectangle with rounded corners*
0 $1 Rounding radius*
0 $2 $3 $4 $5 $6 $7 $8 $9 X,Y pos of 4 corners*
0 Add a 4 corners polygon primitive as box body*
4,1,4,$2,$3,$4,$5,$6,$7,$8,$9,$2,$3,0*
0 Add four circle primitives for the rounded corners*
1,1,$1+$1,$2,$3*
1,1,$1+$1,$4,$5*
1,1,$1+$1,$6,$7*
1,1,$1+$1,$8,$9*
0 Add four rect primitives between the rounded corners*
20,1,$1+$1,$2,$3,$4,$5,0*
20,1,$1+$1,$4,$5,$6,$7,0*
20,1,$1+$1,$6,$7,$8,$9,0*
20,1,$1+$1,$8,$9,$2,$3,0*%
%AMRotRect*
0 Rectangle, with rotation*
0 The origin of the aperture is its center*
0 $1 length*
0 $2 width*
0 $3 Rotation angle, in degrees counterclockwise*
0 Add horizontal line*
21,1,$1,$2,0,0,$3*%
%AMFreePoly0*
4,1,32,7.000000,-2.500000,0.000000,-2.500000,0.000000,-2.495067,-0.156976,-2.495067,-0.468453,-2.455718,-0.772542,-2.377641,-1.064448,-2.262068,-1.339567,-2.110820,-1.593560,-1.926283,-1.822422,-1.711368,-2.022542,-1.469463,-2.190767,-1.204384,-2.324441,-0.920311,-2.421458,-0.621725,-2.480287,-0.313333,-2.500000,0.000000,-2.480287,0.313333,-2.421458,0.621725,-2.324441,0.920311,-2.190767,1.204384,
-2.022542,1.469463,-1.822422,1.711368,-1.593560,1.926283,-1.339567,2.110820,-1.064448,2.262068,-0.772542,2.377641,-0.468453,2.455718,-0.156976,2.495067,0.000000,2.495067,0.000000,2.500000,7.000000,2.500000,7.000000,-2.500000,7.000000,-2.500000,$1*%
%AMFreePoly1*
4,1,13,0.080902,2.058779,0.100000,2.000000,0.100000,0.725000,0.587500,0.725000,0.587500,-0.725000,-0.587500,-0.725000,-0.587500,0.725000,-0.100000,0.725000,-0.100000,2.000000,-0.080902,2.058779,-0.030902,2.095106,0.030902,2.095106,0.080902,2.058779,0.080902,2.058779,$1*%
G04 Aperture macros list end*
%ADD10RotRect,2.000000X2.000000X255.000000*%
%ADD11C,2.000000*%
%ADD12R,1.600000X1.600000*%
%ADD13C,1.600000*%
%ADD14R,4.000000X4.000000*%
%ADD15FreePoly0,0.000000*%
%ADD16C,3.200000*%
%ADD17R,1.318000X1.318000*%
%ADD18C,1.318000*%
%ADD19RoundRect,0.250000X-0.750000X0.600000X-0.750000X-0.600000X0.750000X-0.600000X0.750000X0.600000X0*%
%ADD20O,2.000000X1.700000*%
%ADD21FreePoly0,180.000000*%
%ADD22RoundRect,0.250000X-0.725000X0.600000X-0.725000X-0.600000X0.725000X-0.600000X0.725000X0.600000X0*%
%ADD23O,1.950000X1.700000*%
%ADD24R,1.700000X1.700000*%
%ADD25O,1.700000X1.700000*%
%ADD26RotRect,1.600000X1.600000X300.000000*%
%ADD27RoundRect,0.250000X0.725000X-0.600000X0.725000X0.600000X-0.725000X0.600000X-0.725000X-0.600000X0*%
%ADD28C,2.400000*%
%ADD29O,2.400000X2.400000*%
%ADD30C,1.400000*%
%ADD31O,1.400000X1.400000*%
%ADD32RoundRect,0.250000X0.750000X-0.600000X0.750000X0.600000X-0.750000X0.600000X-0.750000X-0.600000X0*%
%ADD33RoundRect,0.250000X-0.450000X0.262500X-0.450000X-0.262500X0.450000X-0.262500X0.450000X0.262500X0*%
%ADD34RoundRect,0.250000X-0.262500X-0.450000X0.262500X-0.450000X0.262500X0.450000X-0.262500X0.450000X0*%
%ADD35R,1.905000X2.000000*%
%ADD36O,1.905000X2.000000*%
%ADD37RoundRect,0.250000X-0.475000X0.337500X-0.475000X-0.337500X0.475000X-0.337500X0.475000X0.337500X0*%
%ADD38RoundRect,0.250000X0.337500X0.475000X-0.337500X0.475000X-0.337500X-0.475000X0.337500X-0.475000X0*%
%ADD39C,3.000000*%
%ADD40RoundRect,0.237500X-0.237500X0.300000X-0.237500X-0.300000X0.237500X-0.300000X0.237500X0.300000X0*%
%ADD41FreePoly1,270.000000*%
%ADD42RoundRect,0.250000X0.450000X-0.262500X0.450000X0.262500X-0.450000X0.262500X-0.450000X-0.262500X0*%
%ADD43RoundRect,0.250000X0.262500X0.450000X-0.262500X0.450000X-0.262500X-0.450000X0.262500X-0.450000X0*%
%ADD44RoundRect,0.237500X-0.300000X-0.237500X0.300000X-0.237500X0.300000X0.237500X-0.300000X0.237500X0*%
%ADD45FreePoly1,0.000000*%
G04 APERTURE END LIST*
D10*
%TO.C,C3*%
X61214000Y-102362000D03*
D11*
X59272857Y-109606444D03*
%TD*%
D12*
%TO.C,C14*%
X41783000Y-100340349D03*
D13*
X41783000Y-105340349D03*
%TD*%
D14*
%TO.C,REF\u002A\u002A*%
X80264000Y-44958000D03*
%TD*%
D15*
%TO.C,J4*%
X43482500Y-92710000D03*
%TD*%
D16*
%TO.C,REF\u002A\u002A*%
X116500000Y-37500000D03*
%TD*%
D17*
%TO.C,U7*%
X96560000Y-73687500D03*
D18*
X94020000Y-73687500D03*
X91480000Y-73687500D03*
X88940000Y-73687500D03*
X88940000Y-81307500D03*
X91480000Y-81307500D03*
X94020000Y-81307500D03*
X96560000Y-81307500D03*
%TD*%
D19*
%TO.C,J9*%
X49068000Y-38100000D03*
D20*
X49068000Y-40600000D03*
%TD*%
D12*
%TO.C,C28*%
X109728000Y-58282651D03*
D13*
X109728000Y-53282651D03*
%TD*%
D21*
%TO.C,J8*%
X113870500Y-104775000D03*
%TD*%
D22*
%TO.C,J10*%
X59773000Y-46990000D03*
D23*
X59773000Y-49490000D03*
X59773000Y-51990000D03*
%TD*%
D24*
%TO.C,J17*%
X98806000Y-38100000D03*
D25*
X96266000Y-38100000D03*
X93726000Y-38100000D03*
%TD*%
D21*
%TO.C,J3*%
X84787500Y-104775000D03*
%TD*%
D16*
%TO.C,REF\u002A\u002A*%
X43500000Y-37500000D03*
%TD*%
D15*
%TO.C,J5*%
X43180000Y-110490000D03*
%TD*%
D26*
%TO.C,C4*%
X115844000Y-78385273D03*
D13*
X118344000Y-82715400D03*
%TD*%
D22*
%TO.C,J14*%
X65488000Y-46990000D03*
D23*
X65488000Y-49490000D03*
X65488000Y-51990000D03*
%TD*%
D27*
%TO.C,J12*%
X116540000Y-54356000D03*
D23*
X116540000Y-51856000D03*
X116540000Y-49356000D03*
X116540000Y-46856000D03*
X116540000Y-44356000D03*
%TD*%
D16*
%TO.C,REF\u002A\u002A*%
X116500000Y-116500000D03*
%TD*%
D28*
%TO.C,R1*%
X116078000Y-74422000D03*
D29*
X116078000Y-59182000D03*
%TD*%
D17*
%TO.C,U1*%
X83820000Y-73660000D03*
D18*
X81280000Y-73660000D03*
X78740000Y-73660000D03*
X76200000Y-73660000D03*
X76200000Y-81280000D03*
X78740000Y-81280000D03*
X81280000Y-81280000D03*
X83820000Y-81280000D03*
%TD*%
D15*
%TO.C,J2*%
X49762500Y-116500000D03*
%TD*%
D22*
%TO.C,J11*%
X48943000Y-47070000D03*
D23*
X48943000Y-49570000D03*
X48943000Y-52070000D03*
%TD*%
D21*
%TO.C,J6*%
X100027500Y-104775000D03*
%TD*%
D17*
%TO.C,U11*%
X109474000Y-73660000D03*
D18*
X106934000Y-73660000D03*
X104394000Y-73660000D03*
X101854000Y-73660000D03*
X101854000Y-81280000D03*
X104394000Y-81280000D03*
X106934000Y-81280000D03*
X109474000Y-81280000D03*
%TD*%
D26*
%TO.C,C43*%
X115844000Y-87115642D03*
D13*
X118344000Y-91445769D03*
%TD*%
D22*
%TO.C,J16*%
X43180000Y-59190000D03*
D23*
X43180000Y-61690000D03*
X43180000Y-64190000D03*
%TD*%
D30*
%TO.C,TH1*%
X42418000Y-74406000D03*
D31*
X42418000Y-72506000D03*
%TD*%
D15*
%TO.C,J1*%
X43482500Y-86995000D03*
%TD*%
D17*
%TO.C,U3*%
X70612000Y-73687500D03*
D18*
X68072000Y-73687500D03*
X65532000Y-73687500D03*
X62992000Y-73687500D03*
X62992000Y-81307500D03*
X65532000Y-81307500D03*
X68072000Y-81307500D03*
X70612000Y-81307500D03*
%TD*%
D16*
%TO.C,REF\u002A\u002A*%
X43500000Y-116500000D03*
%TD*%
D22*
%TO.C,J15*%
X43180000Y-42752000D03*
D23*
X43180000Y-45252000D03*
X43180000Y-47752000D03*
X43180000Y-50252000D03*
X43180000Y-52752000D03*
%TD*%
D32*
%TO.C,J7*%
X109220000Y-48260000D03*
D20*
X109220000Y-45760000D03*
%TD*%
D26*
%TO.C,C5*%
X115844000Y-95751642D03*
D13*
X118344000Y-100081769D03*
%TD*%
D22*
%TO.C,J13*%
X54358000Y-47070000D03*
D23*
X54358000Y-49570000D03*
X54358000Y-52070000D03*
%TD*%
D33*
%TO.C,R9*%
X67310000Y-83185000D03*
X67310000Y-85010000D03*
%TD*%
D34*
%TO.C,R20*%
X66905500Y-37846000D03*
X68730500Y-37846000D03*
%TD*%
D35*
%TO.C,Q8*%
X104140000Y-95590000D03*
D36*
X106680000Y-95590000D03*
X109220000Y-95590000D03*
%TD*%
D37*
%TO.C,C21*%
X67310000Y-47222500D03*
X67310000Y-49297500D03*
%TD*%
D38*
%TO.C,C25*%
X51837500Y-62865000D03*
X49762500Y-62865000D03*
%TD*%
D33*
%TO.C,R18*%
X53340000Y-76915000D03*
X53340000Y-78740000D03*
%TD*%
D35*
%TO.C,Q9*%
X109220000Y-108880000D03*
D36*
X106680000Y-108880000D03*
X104140000Y-108880000D03*
%TD*%
D34*
%TO.C,R4*%
X56411500Y-41910000D03*
X58236500Y-41910000D03*
%TD*%
D37*
%TO.C,C17*%
X56515000Y-47222500D03*
X56515000Y-49297500D03*
%TD*%
D33*
%TO.C,R21*%
X41910000Y-76960000D03*
X41910000Y-78785000D03*
%TD*%
D35*
%TO.C,Q5*%
X88900000Y-95590000D03*
D36*
X91440000Y-95590000D03*
X93980000Y-95590000D03*
%TD*%
D39*
%TO.C,L1*%
X45212000Y-98558000D03*
X45212000Y-105658000D03*
%TD*%
D40*
%TO.C,C9*%
X67562000Y-70025000D03*
D41*
X65784000Y-69828500D03*
D40*
X67562000Y-71750000D03*
D41*
X65784000Y-71903500D03*
%TD*%
D33*
%TO.C,R15*%
X53340000Y-80367500D03*
X53340000Y-82192500D03*
%TD*%
D38*
%TO.C,C24*%
X51837500Y-57785000D03*
X49762500Y-57785000D03*
%TD*%
D42*
%TO.C,R27*%
X118618000Y-76858500D03*
X118618000Y-75033500D03*
%TD*%
D40*
%TO.C,C16*%
X90930000Y-70279000D03*
D41*
X89152000Y-70082500D03*
D40*
X90930000Y-72004000D03*
D41*
X89152000Y-72157500D03*
%TD*%
D37*
%TO.C,C19*%
X51435000Y-47222500D03*
X51435000Y-49297500D03*
%TD*%
D35*
%TO.C,Q4*%
X66675000Y-108880000D03*
D36*
X64135000Y-108880000D03*
X61595000Y-108880000D03*
%TD*%
D43*
%TO.C,R12*%
X64862500Y-44450000D03*
X63037500Y-44450000D03*
%TD*%
%TO.C,R2*%
X64412500Y-38735000D03*
X62587500Y-38735000D03*
%TD*%
D38*
%TO.C,C36*%
X51837500Y-60325000D03*
X49762500Y-60325000D03*
%TD*%
D44*
%TO.C,C8*%
X82576500Y-99187000D03*
D45*
X82380000Y-100965000D03*
D44*
X84301500Y-99187000D03*
D45*
X84455000Y-100965000D03*
%TD*%
D35*
%TO.C,Q3*%
X78740000Y-108880000D03*
D36*
X76200000Y-108880000D03*
X73660000Y-108880000D03*
%TD*%
D33*
%TO.C,R11*%
X63500000Y-83185000D03*
X63500000Y-85010000D03*
%TD*%
%TO.C,R17*%
X41910000Y-80770000D03*
X41910000Y-82595000D03*
%TD*%
D40*
%TO.C,C30*%
X75182000Y-70533000D03*
D41*
X73404000Y-70336500D03*
D40*
X75182000Y-72258000D03*
D41*
X73404000Y-72411500D03*
%TD*%
D35*
%TO.C,Q2*%
X53340000Y-103505000D03*
D36*
X55880000Y-103505000D03*
X58420000Y-103505000D03*
%TD*%
D38*
%TO.C,C27*%
X48662500Y-65278000D03*
X46587500Y-65278000D03*
%TD*%
D43*
%TO.C,R3*%
X61872500Y-41910000D03*
X60047500Y-41910000D03*
%TD*%
D40*
%TO.C,C7*%
X104138000Y-70025000D03*
D41*
X102360000Y-69828500D03*
D40*
X104138000Y-71750000D03*
D41*
X102360000Y-71903500D03*
%TD*%
D43*
%TO.C,R13*%
X68222500Y-44450000D03*
X66397500Y-44450000D03*
%TD*%
D35*
%TO.C,Q1*%
X73660000Y-95590000D03*
D36*
X76200000Y-95590000D03*
X78740000Y-95590000D03*
%TD*%
D43*
%TO.C,R16*%
X68730500Y-39878000D03*
X66905500Y-39878000D03*
%TD*%
D44*
%TO.C,C18*%
X98605000Y-99060000D03*
D45*
X98408500Y-100838000D03*
D44*
X100330000Y-99060000D03*
D45*
X100483500Y-100838000D03*
%TD*%
D34*
%TO.C,R5*%
X59031500Y-38735000D03*
X60856500Y-38735000D03*
%TD*%
D37*
%TO.C,C15*%
X61595000Y-47222500D03*
X61595000Y-49297500D03*
%TD*%
D35*
%TO.C,Q6*%
X93980000Y-108880000D03*
D36*
X91440000Y-108880000D03*
X88900000Y-108880000D03*
%TD*%
M02*
