%TF.GenerationSoftware,KiCad,Pcbnew,(6.0.7)*%
%TF.CreationDate,2022-12-27T00:24:06+11:00*%
%TF.ProjectId,esp32_esc,65737033-325f-4657-9363-2e6b69636164,rev?*%
%TF.SameCoordinates,Original*%
%TF.FileFunction,Copper,L1,Top*%
%TF.FilePolarity,Positive*%
%FSLAX46Y46*%
G04 Gerber Fmt 4.6, Leading zero omitted, Abs format (unit mm)*
G04 Created by KiCad (PCBNEW (6.0.7)) date 2022-12-27 00:24:06*
%MOMM*%
%LPD*%
G01*
G04 APERTURE LIST*
G04 Aperture macros list*
%AMRoundRect*
0 Rectangle with rounded corners*
0 $1 Rounding radius*
0 $2 $3 $4 $5 $6 $7 $8 $9 X,Y pos of 4 corners*
0 Add a 4 corners polygon primitive as box body*
4,1,4,$2,$3,$4,$5,$6,$7,$8,$9,$2,$3,0*
0 Add four circle primitives for the rounded corners*
1,1,$1+$1,$2,$3*
1,1,$1+$1,$4,$5*
1,1,$1+$1,$6,$7*
1,1,$1+$1,$8,$9*
0 Add four rect primitives between the rounded corners*
20,1,$1+$1,$2,$3,$4,$5,0*
20,1,$1+$1,$4,$5,$6,$7,0*
20,1,$1+$1,$6,$7,$8,$9,0*
20,1,$1+$1,$8,$9,$2,$3,0*%
%AMRotRect*
0 Rectangle, with rotation*
0 The origin of the aperture is its center*
0 $1 length*
0 $2 width*
0 $3 Rotation angle, in degrees counterclockwise*
0 Add horizontal line*
21,1,$1,$2,0,0,$3*%
%AMFreePoly0*
4,1,13,0.587500,-0.725000,0.100000,-0.725000,0.100000,-2.000000,0.080902,-2.058779,0.030902,-2.095106,-0.030902,-2.095106,-0.080902,-2.058779,-0.100000,-2.000000,-0.100000,-0.725000,-0.587500,-0.725000,-0.587500,0.725000,0.587500,0.725000,0.587500,-0.725000,0.587500,-0.725000,$1*%
%AMFreePoly1*
4,1,32,7.000000,-2.500000,0.000000,-2.500000,0.000000,-2.495067,-0.156976,-2.495067,-0.468453,-2.455718,-0.772542,-2.377641,-1.064448,-2.262068,-1.339567,-2.110820,-1.593560,-1.926283,-1.822422,-1.711368,-2.022542,-1.469463,-2.190767,-1.204384,-2.324441,-0.920311,-2.421458,-0.621725,-2.480287,-0.313333,-2.500000,0.000000,-2.480287,0.313333,-2.421458,0.621725,-2.324441,0.920311,-2.190767,1.204384,
-2.022542,1.469463,-1.822422,1.711368,-1.593560,1.926283,-1.339567,2.110820,-1.064448,2.262068,-0.772542,2.377641,-0.468453,2.455718,-0.156976,2.495067,0.000000,2.495067,0.000000,2.500000,7.000000,2.500000,7.000000,-2.500000,7.000000,-2.500000,$1*%
G04 Aperture macros list end*
%TA.AperFunction,ComponentPad*%
%ADD10RotRect,2.000000X2.000000X255.000000*%
%TD*%
%TA.AperFunction,ComponentPad*%
%ADD11C,2.000000*%
%TD*%
%TA.AperFunction,ComponentPad*%
%ADD12R,1.600000X1.600000*%
%TD*%
%TA.AperFunction,ComponentPad*%
%ADD13C,1.600000*%
%TD*%
%TA.AperFunction,ComponentPad*%
%ADD14R,4.000000X4.000000*%
%TD*%
%TA.AperFunction,SMDPad,CuDef*%
%ADD15RoundRect,0.237500X0.237500X-0.300000X0.237500X0.300000X-0.237500X0.300000X-0.237500X-0.300000X0*%
%TD*%
%TA.AperFunction,SMDPad,CuDef*%
%ADD16FreePoly0,90.000000*%
%TD*%
%TA.AperFunction,SMDPad,CuDef*%
%ADD17RoundRect,0.250000X-0.450000X0.262500X-0.450000X-0.262500X0.450000X-0.262500X0.450000X0.262500X0*%
%TD*%
%TA.AperFunction,SMDPad,CuDef*%
%ADD18RoundRect,0.249999X-0.450001X-1.425001X0.450001X-1.425001X0.450001X1.425001X-0.450001X1.425001X0*%
%TD*%
%TA.AperFunction,SMDPad,CuDef*%
%ADD19RoundRect,0.250000X-0.475000X0.337500X-0.475000X-0.337500X0.475000X-0.337500X0.475000X0.337500X0*%
%TD*%
%TA.AperFunction,SMDPad,CuDef*%
%ADD20RoundRect,0.250000X0.262500X0.450000X-0.262500X0.450000X-0.262500X-0.450000X0.262500X-0.450000X0*%
%TD*%
%TA.AperFunction,SMDPad,CuDef*%
%ADD21RoundRect,0.250000X0.350000X0.450000X-0.350000X0.450000X-0.350000X-0.450000X0.350000X-0.450000X0*%
%TD*%
%TA.AperFunction,ComponentPad*%
%ADD22FreePoly1,0.000000*%
%TD*%
%TA.AperFunction,SMDPad,CuDef*%
%ADD23RoundRect,0.250000X-0.337500X-0.475000X0.337500X-0.475000X0.337500X0.475000X-0.337500X0.475000X0*%
%TD*%
%TA.AperFunction,SMDPad,CuDef*%
%ADD24RoundRect,0.250000X-0.450000X0.325000X-0.450000X-0.325000X0.450000X-0.325000X0.450000X0.325000X0*%
%TD*%
%TA.AperFunction,SMDPad,CuDef*%
%ADD25RoundRect,0.250000X0.337500X0.475000X-0.337500X0.475000X-0.337500X-0.475000X0.337500X-0.475000X0*%
%TD*%
%TA.AperFunction,SMDPad,CuDef*%
%ADD26RoundRect,0.250000X0.475000X-0.337500X0.475000X0.337500X-0.475000X0.337500X-0.475000X-0.337500X0*%
%TD*%
%TA.AperFunction,ComponentPad*%
%ADD27R,1.318000X1.318000*%
%TD*%
%TA.AperFunction,ComponentPad*%
%ADD28C,1.318000*%
%TD*%
%TA.AperFunction,ComponentPad*%
%ADD29RoundRect,0.250000X-0.750000X0.600000X-0.750000X-0.600000X0.750000X-0.600000X0.750000X0.600000X0*%
%TD*%
%TA.AperFunction,ComponentPad*%
%ADD30O,2.000000X1.700000*%
%TD*%
%TA.AperFunction,SMDPad,CuDef*%
%ADD31RoundRect,0.250000X0.450000X-0.350000X0.450000X0.350000X-0.450000X0.350000X-0.450000X-0.350000X0*%
%TD*%
%TA.AperFunction,SMDPad,CuDef*%
%ADD32RoundRect,0.150000X-0.150000X0.587500X-0.150000X-0.587500X0.150000X-0.587500X0.150000X0.587500X0*%
%TD*%
%TA.AperFunction,SMDPad,CuDef*%
%ADD33R,1.800000X2.500000*%
%TD*%
%TA.AperFunction,SMDPad,CuDef*%
%ADD34RoundRect,0.237500X-0.237500X0.300000X-0.237500X-0.300000X0.237500X-0.300000X0.237500X0.300000X0*%
%TD*%
%TA.AperFunction,SMDPad,CuDef*%
%ADD35FreePoly0,270.000000*%
%TD*%
%TA.AperFunction,ComponentPad*%
%ADD36FreePoly1,180.000000*%
%TD*%
%TA.AperFunction,ComponentPad*%
%ADD37RoundRect,0.250000X-0.725000X0.600000X-0.725000X-0.600000X0.725000X-0.600000X0.725000X0.600000X0*%
%TD*%
%TA.AperFunction,ComponentPad*%
%ADD38O,1.950000X1.700000*%
%TD*%
%TA.AperFunction,SMDPad,CuDef*%
%ADD39RoundRect,0.150000X-0.825000X-0.150000X0.825000X-0.150000X0.825000X0.150000X-0.825000X0.150000X0*%
%TD*%
%TA.AperFunction,ComponentPad*%
%ADD40R,1.700000X1.700000*%
%TD*%
%TA.AperFunction,ComponentPad*%
%ADD41O,1.700000X1.700000*%
%TD*%
%TA.AperFunction,SMDPad,CuDef*%
%ADD42RoundRect,0.250000X-0.262500X-0.450000X0.262500X-0.450000X0.262500X0.450000X-0.262500X0.450000X0*%
%TD*%
%TA.AperFunction,SMDPad,CuDef*%
%ADD43R,2.000000X1.500000*%
%TD*%
%TA.AperFunction,SMDPad,CuDef*%
%ADD44R,2.000000X3.800000*%
%TD*%
%TA.AperFunction,SMDPad,CuDef*%
%ADD45RoundRect,0.250001X0.624999X-0.462499X0.624999X0.462499X-0.624999X0.462499X-0.624999X-0.462499X0*%
%TD*%
%TA.AperFunction,SMDPad,CuDef*%
%ADD46RoundRect,0.150000X0.150000X-0.825000X0.150000X0.825000X-0.150000X0.825000X-0.150000X-0.825000X0*%
%TD*%
%TA.AperFunction,ComponentPad*%
%ADD47RotRect,1.600000X1.600000X300.000000*%
%TD*%
%TA.AperFunction,ComponentPad*%
%ADD48RoundRect,0.250000X0.725000X-0.600000X0.725000X0.600000X-0.725000X0.600000X-0.725000X-0.600000X0*%
%TD*%
%TA.AperFunction,SMDPad,CuDef*%
%ADD49RoundRect,0.150000X0.587500X0.150000X-0.587500X0.150000X-0.587500X-0.150000X0.587500X-0.150000X0*%
%TD*%
%TA.AperFunction,ComponentPad*%
%ADD50C,2.400000*%
%TD*%
%TA.AperFunction,ComponentPad*%
%ADD51O,2.400000X2.400000*%
%TD*%
%TA.AperFunction,SMDPad,CuDef*%
%ADD52RoundRect,0.250000X0.450000X-0.262500X0.450000X0.262500X-0.450000X0.262500X-0.450000X-0.262500X0*%
%TD*%
%TA.AperFunction,SMDPad,CuDef*%
%ADD53R,2.750000X1.000000*%
%TD*%
%TA.AperFunction,SMDPad,CuDef*%
%ADD54RoundRect,0.237500X-0.300000X-0.237500X0.300000X-0.237500X0.300000X0.237500X-0.300000X0.237500X0*%
%TD*%
%TA.AperFunction,SMDPad,CuDef*%
%ADD55FreePoly0,0.000000*%
%TD*%
%TA.AperFunction,SMDPad,CuDef*%
%ADD56R,2.000000X0.900000*%
%TD*%
%TA.AperFunction,SMDPad,CuDef*%
%ADD57R,0.900000X2.000000*%
%TD*%
%TA.AperFunction,SMDPad,CuDef*%
%ADD58R,5.000000X5.000000*%
%TD*%
%TA.AperFunction,ComponentPad*%
%ADD59C,1.400000*%
%TD*%
%TA.AperFunction,ComponentPad*%
%ADD60O,1.400000X1.400000*%
%TD*%
%TA.AperFunction,ComponentPad*%
%ADD61RoundRect,0.250000X0.750000X-0.600000X0.750000X0.600000X-0.750000X0.600000X-0.750000X-0.600000X0*%
%TD*%
%TA.AperFunction,ComponentPad*%
%ADD62R,1.905000X2.000000*%
%TD*%
%TA.AperFunction,ComponentPad*%
%ADD63O,1.905000X2.000000*%
%TD*%
%TA.AperFunction,ComponentPad*%
%ADD64C,3.000000*%
%TD*%
%TA.AperFunction,ViaPad*%
%ADD65C,0.800000*%
%TD*%
%TA.AperFunction,Conductor*%
%ADD66C,0.250000*%
%TD*%
%TA.AperFunction,Conductor*%
%ADD67C,0.254000*%
%TD*%
%TA.AperFunction,Conductor*%
%ADD68C,0.508000*%
%TD*%
%TA.AperFunction,Conductor*%
%ADD69C,0.381000*%
%TD*%
G04 APERTURE END LIST*
D10*
%TO.P,C3,1*%
%TO.N,VBUS*%
X61214000Y-102362000D03*
D11*
%TO.P,C3,2*%
%TO.N,GNDPWR*%
X59272857Y-109606444D03*
%TD*%
D12*
%TO.P,C14,1*%
%TO.N,VSC*%
X41783000Y-100340349D03*
D13*
%TO.P,C14,2*%
%TO.N,GNDPWR*%
X41783000Y-105340349D03*
%TD*%
D14*
%TO.P,REF\u002A\u002A,1*%
%TO.N,N/C*%
X80264000Y-44958000D03*
%TD*%
D15*
%TO.P,C35,1*%
%TO.N,GND*%
X61976000Y-85317500D03*
D16*
X60198000Y-85514000D03*
D15*
%TO.P,C35,2*%
%TO.N,+5V*%
X61976000Y-83592500D03*
D16*
X60198000Y-83439000D03*
%TD*%
D17*
%TO.P,R23,1*%
%TO.N,Net-(D8-Pad1)*%
X46605750Y-69751250D03*
%TO.P,R23,2*%
%TO.N,Net-(Q7-Pad3)*%
X46605750Y-71576250D03*
%TD*%
D18*
%TO.P,R33,1*%
%TO.N,VBUS*%
X63625000Y-99949000D03*
%TO.P,R33,2*%
%TO.N,VMOTOR*%
X69725000Y-99949000D03*
%TD*%
D19*
%TO.P,C12,1*%
%TO.N,Net-(C12-Pad1)*%
X51943000Y-93069500D03*
%TO.P,C12,2*%
%TO.N,GND*%
X51943000Y-95144500D03*
%TD*%
D20*
%TO.P,R8,1*%
%TO.N,Net-(R8-Pad1)*%
X84328000Y-86360000D03*
%TO.P,R8,2*%
%TO.N,Net-(Q1-Pad1)*%
X82503000Y-86360000D03*
%TD*%
D21*
%TO.P,R60,1*%
%TO.N,+5V*%
X72609000Y-67402500D03*
%TO.P,R60,2*%
%TO.N,SW*%
X70609000Y-67402500D03*
%TD*%
D17*
%TO.P,R34,1*%
%TO.N,GND*%
X94615000Y-55602500D03*
%TO.P,R34,2*%
%TO.N,Net-(D11-Pad1)*%
X94615000Y-57427500D03*
%TD*%
D22*
%TO.P,J4,1,Pin_1*%
%TO.N,VSC*%
X43482500Y-92710000D03*
%TD*%
D23*
%TO.P,C41,1*%
%TO.N,GND*%
X96162500Y-41148000D03*
%TO.P,C41,2*%
%TO.N,Net-(C41-Pad2)*%
X98237500Y-41148000D03*
%TD*%
D24*
%TO.P,5v-ON,1,K*%
%TO.N,Net-(D11-Pad1)*%
X94615000Y-58665000D03*
%TO.P,5v-ON,2,A*%
%TO.N,+5V*%
X94615000Y-60715000D03*
%TD*%
D25*
%TO.P,C20,1*%
%TO.N,VBS*%
X96901000Y-84201000D03*
%TO.P,C20,2*%
%TO.N,Net-(C20-Pad2)*%
X94826000Y-84201000D03*
%TD*%
D23*
%TO.P,C42,1*%
%TO.N,GND*%
X61192500Y-36449000D03*
%TO.P,C42,2*%
%TO.N,Net-(C42-Pad2)*%
X63267500Y-36449000D03*
%TD*%
D21*
%TO.P,R58,1*%
%TO.N,+5V*%
X76673000Y-67402500D03*
%TO.P,R58,2*%
%TO.N,SR*%
X74673000Y-67402500D03*
%TD*%
D24*
%TO.P,D8,1,K*%
%TO.N,Net-(D8-Pad1)*%
X44573750Y-71503250D03*
%TO.P,D8,2,A*%
%TO.N,Net-(C23-Pad2)*%
X44573750Y-73553250D03*
%TD*%
D26*
%TO.P,C31,1*%
%TO.N,Net-(C31-Pad1)*%
X52955750Y-71819750D03*
%TO.P,C31,2*%
%TO.N,GNDPWR*%
X52955750Y-69744750D03*
%TD*%
D27*
%TO.P,U7,1,VCC*%
%TO.N,RAW*%
X96560000Y-73687500D03*
D28*
%TO.P,U7,2,HIN*%
%TO.N,VH*%
X94020000Y-73687500D03*
%TO.P,U7,3,LIN*%
%TO.N,VL*%
X91480000Y-73687500D03*
%TO.P,U7,4,COM*%
%TO.N,GND*%
X88940000Y-73687500D03*
%TO.P,U7,5,LO*%
%TO.N,Net-(R19-Pad1)*%
X88940000Y-81307500D03*
%TO.P,U7,6,VS*%
%TO.N,Net-(C20-Pad2)*%
X91480000Y-81307500D03*
%TO.P,U7,7,HO*%
%TO.N,Net-(R14-Pad1)*%
X94020000Y-81307500D03*
%TO.P,U7,8,VB*%
%TO.N,VBS*%
X96560000Y-81307500D03*
%TD*%
D29*
%TO.P,J9,1,Pin_1*%
%TO.N,+3V3*%
X49068000Y-38100000D03*
D30*
%TO.P,J9,2,Pin_2*%
%TO.N,GND*%
X49068000Y-40600000D03*
%TD*%
D31*
%TO.P,R56,1*%
%TO.N,+3V3*%
X67647000Y-66516000D03*
%TO.P,R56,2*%
%TO.N,/3V3to5V8/LIN*%
X67647000Y-64516000D03*
%TD*%
D32*
%TO.P,Q20,1,G*%
%TO.N,+3V3*%
X72512000Y-63246000D03*
%TO.P,Q20,2,S*%
%TO.N,/3V3to5V9/LIN*%
X70612000Y-63246000D03*
%TO.P,Q20,3,D*%
%TO.N,SW*%
X71562000Y-65121000D03*
%TD*%
D33*
%TO.P,D5,1,K*%
%TO.N,Net-(C22-Pad1)*%
X56388000Y-76656250D03*
%TO.P,D5,2,A*%
%TO.N,Vs*%
X56388000Y-80656250D03*
%TD*%
D21*
%TO.P,R7,1*%
%TO.N,+3V3*%
X76657000Y-61306500D03*
%TO.P,R7,2*%
%TO.N,/3V3to5V10/LIN*%
X74657000Y-61306500D03*
%TD*%
D25*
%TO.P,C10,1*%
%TO.N,UBS*%
X84328000Y-84328000D03*
%TO.P,C10,2*%
%TO.N,Net-(C10-Pad2)*%
X82253000Y-84328000D03*
%TD*%
D34*
%TO.P,C6,1*%
%TO.N,+5V*%
X51691000Y-96949000D03*
D35*
X53469000Y-96752500D03*
D34*
%TO.P,C6,2*%
%TO.N,GND*%
X51691000Y-98674000D03*
D35*
X53469000Y-98827500D03*
%TD*%
D12*
%TO.P,C28,1*%
%TO.N,RAW*%
X109728000Y-58282651D03*
D13*
%TO.P,C28,2*%
%TO.N,GND*%
X109728000Y-53282651D03*
%TD*%
D26*
%TO.P,C13,1*%
%TO.N,Net-(C13-Pad1)*%
X86995000Y-100097500D03*
%TO.P,C13,2*%
%TO.N,GND*%
X86995000Y-98022500D03*
%TD*%
D21*
%TO.P,R43,1*%
%TO.N,+5V*%
X96012000Y-71120000D03*
%TO.P,R43,2*%
%TO.N,VH*%
X94012000Y-71120000D03*
%TD*%
D25*
%TO.P,C32,1*%
%TO.N,WBS*%
X109474000Y-83820000D03*
%TO.P,C32,2*%
%TO.N,Net-(C32-Pad2)*%
X107399000Y-83820000D03*
%TD*%
D17*
%TO.P,R28,1*%
%TO.N,GND*%
X94742000Y-44807500D03*
%TO.P,R28,2*%
%TO.N,Net-(D10-Pad1)*%
X94742000Y-46632500D03*
%TD*%
D36*
%TO.P,J8,1,Pin_1*%
%TO.N,Net-(C32-Pad2)*%
X113870500Y-104775000D03*
%TD*%
D25*
%TO.P,C22,1*%
%TO.N,Net-(C22-Pad1)*%
X56663500Y-73830250D03*
%TO.P,C22,2*%
%TO.N,Net-(C22-Pad2)*%
X54588500Y-73830250D03*
%TD*%
D37*
%TO.P,J10,1,Pin_1*%
%TO.N,GND*%
X59773000Y-46990000D03*
D38*
%TO.P,J10,2,Pin_2*%
%TO.N,brake1*%
X59773000Y-49490000D03*
%TO.P,J10,3,Pin_3*%
%TO.N,+5V*%
X59773000Y-51990000D03*
%TD*%
D32*
%TO.P,Q19,1,G*%
%TO.N,+3V3*%
X76576000Y-63246000D03*
%TO.P,Q19,2,S*%
%TO.N,/3V3to5V10/LIN*%
X74676000Y-63246000D03*
%TO.P,Q19,3,D*%
%TO.N,SR*%
X75626000Y-65121000D03*
%TD*%
D39*
%TO.P,U6,1,X4*%
%TO.N,Net-(C24-Pad2)*%
X49595000Y-57785000D03*
%TO.P,U6,2,X6*%
%TO.N,Tsense*%
X49595000Y-59055000D03*
%TO.P,U6,3,X*%
%TO.N,Net-(R12-Pad2)*%
X49595000Y-60325000D03*
%TO.P,U6,4,X7*%
%TO.N,I_totsense*%
X49595000Y-61595000D03*
%TO.P,U6,5,X5*%
%TO.N,Net-(C25-Pad2)*%
X49595000Y-62865000D03*
%TO.P,U6,6,INH*%
%TO.N,unconnected-(U6-Pad6)*%
X49595000Y-64135000D03*
%TO.P,U6,7,VEE*%
%TO.N,GND*%
X49595000Y-65405000D03*
%TO.P,U6,8,VSS*%
X49595000Y-66675000D03*
%TO.P,U6,9,C*%
%TO.N,/3V3to5V8/HIN*%
X54545000Y-66675000D03*
%TO.P,U6,10,B*%
%TO.N,/3V3to5V7/HIN*%
X54545000Y-65405000D03*
%TO.P,U6,11,A*%
%TO.N,/3V3to5V6/HIN*%
X54545000Y-64135000D03*
%TO.P,U6,12,X3*%
%TO.N,boost*%
X54545000Y-62865000D03*
%TO.P,U6,13,X0*%
%TO.N,brake1*%
X54545000Y-61595000D03*
%TO.P,U6,14,X1*%
%TO.N,brake2*%
X54545000Y-60325000D03*
%TO.P,U6,15,X2*%
%TO.N,throttle*%
X54545000Y-59055000D03*
%TO.P,U6,16,VDD*%
%TO.N,+5V*%
X54545000Y-57785000D03*
%TD*%
D40*
%TO.P,J17,1,Pin_1*%
%TO.N,GND*%
X98806000Y-38100000D03*
D41*
%TO.P,J17,2,Pin_2*%
%TO.N,Net-(J17-Pad2)*%
X96266000Y-38100000D03*
%TO.P,J17,3,Pin_3*%
%TO.N,Net-(J17-Pad3)*%
X93726000Y-38100000D03*
%TD*%
D32*
%TO.P,Q11,1,G*%
%TO.N,+3V3*%
X95750000Y-66963500D03*
%TO.P,Q11,2,S*%
%TO.N,/3V3to5V1/LIN*%
X93850000Y-66963500D03*
%TO.P,Q11,3,D*%
%TO.N,VH*%
X94800000Y-68838500D03*
%TD*%
D31*
%TO.P,R57,1*%
%TO.N,+5V*%
X61805000Y-66500000D03*
%TO.P,R57,2*%
%TO.N,/3V3to5V8/HIN*%
X61805000Y-64500000D03*
%TD*%
D42*
%TO.P,R36,1*%
%TO.N,Net-(C42-Pad2)*%
X60977500Y-41180000D03*
%TO.P,R36,2*%
%TO.N,+3V3*%
X62802500Y-41180000D03*
%TD*%
D36*
%TO.P,J3,1,Pin_1*%
%TO.N,Net-(J3-Pad1)*%
X84787500Y-104775000D03*
%TD*%
D32*
%TO.P,Q13,1,G*%
%TO.N,+3V3*%
X80383000Y-66963500D03*
%TO.P,Q13,2,S*%
%TO.N,/3V3to5V3/LIN*%
X78483000Y-66963500D03*
%TO.P,Q13,3,D*%
%TO.N,UL*%
X79433000Y-68838500D03*
%TD*%
D39*
%TO.P,U9,1,GND*%
%TO.N,Net-(C29-Pad2)*%
X48325000Y-77005250D03*
%TO.P,U9,2,TR*%
%TO.N,Net-(C23-Pad2)*%
X48325000Y-78275250D03*
%TO.P,U9,3,Q*%
%TO.N,Net-(C22-Pad2)*%
X48325000Y-79545250D03*
%TO.P,U9,4,R*%
%TO.N,Vs*%
X48325000Y-80815250D03*
%TO.P,U9,5,CV*%
%TO.N,unconnected-(U9-Pad5)*%
X53275000Y-80815250D03*
%TO.P,U9,6,THR*%
%TO.N,Net-(C23-Pad2)*%
X53275000Y-79545250D03*
%TO.P,U9,7,DIS*%
%TO.N,unconnected-(U9-Pad7)*%
X53275000Y-78275250D03*
%TO.P,U9,8,VCC*%
%TO.N,Vs*%
X53275000Y-77005250D03*
%TD*%
D43*
%TO.P,U10,1,GND*%
%TO.N,GND*%
X103480000Y-51830000D03*
D44*
%TO.P,U10,2,VO*%
%TO.N,+3V3*%
X97180000Y-49530000D03*
D43*
X103480000Y-49530000D03*
%TO.P,U10,3,VI*%
%TO.N,RAW*%
X103480000Y-47230000D03*
%TD*%
D22*
%TO.P,J5,1,Pin_1*%
%TO.N,GNDPWR*%
X43180000Y-110490000D03*
%TD*%
D32*
%TO.P,Q10,1,G*%
%TO.N,+3V3*%
X105152750Y-66963500D03*
%TO.P,Q10,2,S*%
%TO.N,IO0*%
X103252750Y-66963500D03*
%TO.P,Q10,3,D*%
%TO.N,WL*%
X104202750Y-68838500D03*
%TD*%
D26*
%TO.P,C23,1*%
%TO.N,Vs*%
X42541750Y-79661750D03*
%TO.P,C23,2*%
%TO.N,Net-(C23-Pad2)*%
X42541750Y-77586750D03*
%TD*%
D45*
%TO.P,D3,1,K*%
%TO.N,WBS*%
X112268000Y-76925500D03*
%TO.P,D3,2,A*%
%TO.N,Net-(D1-Pad2)*%
X112268000Y-73950500D03*
%TD*%
D46*
%TO.P,U8,1,IP+*%
%TO.N,Net-(C20-Pad2)*%
X97028000Y-100900000D03*
%TO.P,U8,2,IP+*%
X98298000Y-100900000D03*
%TO.P,U8,3,IP-*%
%TO.N,Net-(J6-Pad1)*%
X99568000Y-100900000D03*
%TO.P,U8,4,IP-*%
X100838000Y-100900000D03*
%TO.P,U8,5,GND*%
%TO.N,GND*%
X100838000Y-95950000D03*
%TO.P,U8,6,FILTER*%
%TO.N,Net-(C26-Pad1)*%
X99568000Y-95950000D03*
%TO.P,U8,7,VIOUT*%
%TO.N,I_Vsense*%
X98298000Y-95950000D03*
%TO.P,U8,8,VCC*%
%TO.N,+5V*%
X97028000Y-95950000D03*
%TD*%
D31*
%TO.P,R53,1*%
%TO.N,+5V*%
X61793250Y-58704250D03*
%TO.P,R53,2*%
%TO.N,/3V3to5V6/HIN*%
X61793250Y-56704250D03*
%TD*%
D17*
%TO.P,R24,1*%
%TO.N,SR*%
X57019750Y-69869750D03*
%TO.P,R24,2*%
%TO.N,Net-(D9-Pad1)*%
X57019750Y-71694750D03*
%TD*%
D43*
%TO.P,U12,1,GND*%
%TO.N,GND*%
X103480000Y-61990000D03*
D44*
%TO.P,U12,2,VO*%
%TO.N,+5V*%
X97180000Y-59690000D03*
D43*
X103480000Y-59690000D03*
%TO.P,U12,3,VI*%
%TO.N,RAW*%
X103480000Y-57390000D03*
%TD*%
D21*
%TO.P,R42,1*%
%TO.N,+3V3*%
X95996000Y-65024000D03*
%TO.P,R42,2*%
%TO.N,/3V3to5V1/LIN*%
X93996000Y-65024000D03*
%TD*%
D25*
%TO.P,C11,1*%
%TO.N,cp*%
X71755000Y-83312000D03*
%TO.P,C11,2*%
%TO.N,Vs*%
X69680000Y-83312000D03*
%TD*%
D47*
%TO.P,C4,1*%
%TO.N,VMOTOR*%
X115844000Y-78385273D03*
D13*
%TO.P,C4,2*%
%TO.N,GNDPWR*%
X118344000Y-82715400D03*
%TD*%
D23*
%TO.P,C33,1*%
%TO.N,RAW*%
X101832500Y-54610000D03*
%TO.P,C33,2*%
%TO.N,GND*%
X103907500Y-54610000D03*
%TD*%
D21*
%TO.P,R59,1*%
%TO.N,+3V3*%
X72593000Y-61306500D03*
%TO.P,R59,2*%
%TO.N,/3V3to5V9/LIN*%
X70593000Y-61306500D03*
%TD*%
D24*
%TO.P,3v3-ON,1,K*%
%TO.N,Net-(D10-Pad1)*%
X94615000Y-48505000D03*
%TO.P,3v3-ON,2,A*%
%TO.N,+3V3*%
X94615000Y-50555000D03*
%TD*%
D32*
%TO.P,Q14,1,G*%
%TO.N,+3V3*%
X84082000Y-66955500D03*
%TO.P,Q14,2,S*%
%TO.N,/3V3to5V4/LIN*%
X82182000Y-66955500D03*
%TO.P,Q14,3,D*%
%TO.N,UH*%
X83132000Y-68830500D03*
%TD*%
D21*
%TO.P,R47,1*%
%TO.N,+5V*%
X80518000Y-70866000D03*
%TO.P,R47,2*%
%TO.N,UL*%
X78518000Y-70866000D03*
%TD*%
D31*
%TO.P,R30,1*%
%TO.N,Tsense*%
X42418000Y-70596000D03*
%TO.P,R30,2*%
%TO.N,GND*%
X42418000Y-68596000D03*
%TD*%
D33*
%TO.P,D9,1,K*%
%TO.N,Net-(D9-Pad1)*%
X59690000Y-69512250D03*
%TO.P,D9,2,A*%
%TO.N,Net-(C31-Pad1)*%
X59690000Y-73512250D03*
%TD*%
D21*
%TO.P,R51,1*%
%TO.N,+5V*%
X92202000Y-71120000D03*
%TO.P,R51,2*%
%TO.N,VL*%
X90202000Y-71120000D03*
%TD*%
D46*
%TO.P,U5,1,IP+*%
%TO.N,Net-(C10-Pad2)*%
X81280000Y-100900000D03*
%TO.P,U5,2,IP+*%
X82550000Y-100900000D03*
%TO.P,U5,3,IP-*%
%TO.N,Net-(J3-Pad1)*%
X83820000Y-100900000D03*
%TO.P,U5,4,IP-*%
X85090000Y-100900000D03*
%TO.P,U5,5,GND*%
%TO.N,GND*%
X85090000Y-95950000D03*
%TO.P,U5,6,FILTER*%
%TO.N,Net-(C13-Pad1)*%
X83820000Y-95950000D03*
%TO.P,U5,7,VIOUT*%
%TO.N,I_Usense*%
X82550000Y-95950000D03*
%TO.P,U5,8,VCC*%
%TO.N,+5V*%
X81280000Y-95950000D03*
%TD*%
D37*
%TO.P,J14,1,Pin_1*%
%TO.N,GND*%
X65488000Y-46990000D03*
D38*
%TO.P,J14,2,Pin_2*%
%TO.N,boost*%
X65488000Y-49490000D03*
%TO.P,J14,3,Pin_3*%
%TO.N,+5V*%
X65488000Y-51990000D03*
%TD*%
D45*
%TO.P,D4,1,K*%
%TO.N,cp*%
X73406000Y-80862500D03*
%TO.P,D4,2,A*%
%TO.N,Net-(D4-Pad2)*%
X73406000Y-77887500D03*
%TD*%
D48*
%TO.P,J12,1,Pin_1*%
%TO.N,hallC*%
X116540000Y-54356000D03*
D38*
%TO.P,J12,2,Pin_2*%
%TO.N,hallB*%
X116540000Y-51856000D03*
%TO.P,J12,3,Pin_3*%
%TO.N,hallA*%
X116540000Y-49356000D03*
%TO.P,J12,4,Pin_4*%
%TO.N,+5V*%
X116540000Y-46856000D03*
%TO.P,J12,5,Pin_5*%
%TO.N,GND*%
X116540000Y-44356000D03*
%TD*%
D21*
%TO.P,R48,1*%
%TO.N,+3V3*%
X84328000Y-64778000D03*
%TO.P,R48,2*%
%TO.N,/3V3to5V4/LIN*%
X82328000Y-64778000D03*
%TD*%
D49*
%TO.P,Q7,1,G*%
%TO.N,Net-(C31-Pad1)*%
X50591250Y-71613750D03*
%TO.P,Q7,2,S*%
%TO.N,GNDPWR*%
X50591250Y-69713750D03*
%TO.P,Q7,3,D*%
%TO.N,Net-(Q7-Pad3)*%
X48716250Y-70663750D03*
%TD*%
D17*
%TO.P,R29,1*%
%TO.N,Net-(R29-Pad1)*%
X101600000Y-83185000D03*
%TO.P,R29,2*%
%TO.N,Net-(Q9-Pad1)*%
X101600000Y-85010000D03*
%TD*%
D50*
%TO.P,R1,1*%
%TO.N,Net-(D1-Pad2)*%
X116078000Y-74422000D03*
D51*
%TO.P,R1,2*%
%TO.N,RAW*%
X116078000Y-59182000D03*
%TD*%
D17*
%TO.P,R10,1*%
%TO.N,Net-(R10-Pad1)*%
X76200000Y-83161500D03*
%TO.P,R10,2*%
%TO.N,Net-(Q3-Pad1)*%
X76200000Y-84986500D03*
%TD*%
D45*
%TO.P,D1,1,K*%
%TO.N,UBS*%
X86360000Y-86323500D03*
%TO.P,D1,2,A*%
%TO.N,Net-(D1-Pad2)*%
X86360000Y-83348500D03*
%TD*%
D46*
%TO.P,U13,1,IP+*%
%TO.N,VBUS*%
X63500000Y-89089000D03*
%TO.P,U13,2,IP+*%
X64770000Y-89089000D03*
%TO.P,U13,3,IP-*%
%TO.N,VMOTOR*%
X66040000Y-89089000D03*
%TO.P,U13,4,IP-*%
X67310000Y-89089000D03*
%TO.P,U13,5,GND*%
%TO.N,GND*%
X67310000Y-84139000D03*
%TO.P,U13,6,FILTER*%
%TO.N,Net-(C40-Pad1)*%
X66040000Y-84139000D03*
%TO.P,U13,7,VIOUT*%
%TO.N,I_totsense*%
X64770000Y-84139000D03*
%TO.P,U13,8,VCC*%
%TO.N,+5V*%
X63500000Y-84139000D03*
%TD*%
D20*
%TO.P,R22,1*%
%TO.N,Net-(C22-Pad2)*%
X52917250Y-73703250D03*
%TO.P,R22,2*%
%TO.N,Net-(C23-Pad2)*%
X51092250Y-73703250D03*
%TD*%
D19*
%TO.P,C40,1*%
%TO.N,Net-(C40-Pad1)*%
X69596000Y-85322500D03*
%TO.P,C40,2*%
%TO.N,GND*%
X69596000Y-87397500D03*
%TD*%
D27*
%TO.P,U1,1,VCC*%
%TO.N,RAW*%
X83820000Y-73660000D03*
D28*
%TO.P,U1,2,HIN*%
%TO.N,UH*%
X81280000Y-73660000D03*
%TO.P,U1,3,LIN*%
%TO.N,UL*%
X78740000Y-73660000D03*
%TO.P,U1,4,COM*%
%TO.N,GND*%
X76200000Y-73660000D03*
%TO.P,U1,5,LO*%
%TO.N,Net-(R10-Pad1)*%
X76200000Y-81280000D03*
%TO.P,U1,6,VS*%
%TO.N,Net-(C10-Pad2)*%
X78740000Y-81280000D03*
%TO.P,U1,7,HO*%
%TO.N,Net-(R8-Pad1)*%
X81280000Y-81280000D03*
%TO.P,U1,8,VB*%
%TO.N,UBS*%
X83820000Y-81280000D03*
%TD*%
D21*
%TO.P,R49,1*%
%TO.N,+5V*%
X84328000Y-70858000D03*
%TO.P,R49,2*%
%TO.N,UH*%
X82328000Y-70858000D03*
%TD*%
D22*
%TO.P,J2,1,Pin_1*%
%TO.N,GNDPWR*%
X49762500Y-116500000D03*
%TD*%
D52*
%TO.P,R37,1*%
%TO.N,IO0*%
X110998000Y-41632500D03*
%TO.P,R37,2*%
%TO.N,Net-(C41-Pad2)*%
X110998000Y-39807500D03*
%TD*%
D37*
%TO.P,J11,1,Pin_1*%
%TO.N,GND*%
X48943000Y-47070000D03*
D38*
%TO.P,J11,2,Pin_2*%
%TO.N,throttle*%
X48943000Y-49570000D03*
%TO.P,J11,3,Pin_3*%
%TO.N,+5V*%
X48943000Y-52070000D03*
%TD*%
D53*
%TO.P,SW2,1,A*%
%TO.N,Net-(C42-Pad2)*%
X58420000Y-40640000D03*
X52660000Y-40640000D03*
%TO.P,SW2,2,B*%
%TO.N,GND*%
X58420000Y-36640000D03*
X52660000Y-36640000D03*
%TD*%
D54*
%TO.P,C1,1*%
%TO.N,RAW*%
X72184000Y-71880000D03*
D55*
X71987500Y-70102000D03*
D54*
%TO.P,C1,2*%
%TO.N,GND*%
X73909000Y-71880000D03*
D55*
X74062500Y-70102000D03*
%TD*%
D36*
%TO.P,J6,1,Pin_1*%
%TO.N,Net-(J6-Pad1)*%
X100027500Y-104775000D03*
%TD*%
D34*
%TO.P,C2,1*%
%TO.N,GND*%
X68328000Y-37259000D03*
D35*
X70106000Y-37062500D03*
D34*
%TO.P,C2,2*%
%TO.N,+3V3*%
X68328000Y-38984000D03*
D35*
X70106000Y-39137500D03*
%TD*%
D23*
%TO.P,C34,1*%
%TO.N,+3V3*%
X96752500Y-44450000D03*
%TO.P,C34,2*%
%TO.N,GND*%
X98827500Y-44450000D03*
%TD*%
D21*
%TO.P,R45,1*%
%TO.N,+5V*%
X109204000Y-70866000D03*
%TO.P,R45,2*%
%TO.N,WH*%
X107204000Y-70866000D03*
%TD*%
D52*
%TO.P,R35,1*%
%TO.N,Net-(C41-Pad2)*%
X111252000Y-38100000D03*
%TO.P,R35,2*%
%TO.N,+3V3*%
X111252000Y-36275000D03*
%TD*%
D33*
%TO.P,D6,1,K*%
%TO.N,cp*%
X59944000Y-76656250D03*
%TO.P,D6,2,A*%
%TO.N,Net-(C22-Pad1)*%
X59944000Y-80656250D03*
%TD*%
D26*
%TO.P,C26,1*%
%TO.N,Net-(C26-Pad1)*%
X102870000Y-99865000D03*
%TO.P,C26,2*%
%TO.N,GND*%
X102870000Y-97790000D03*
%TD*%
D27*
%TO.P,U11,1,VCC*%
%TO.N,RAW*%
X109474000Y-73660000D03*
D28*
%TO.P,U11,2,HIN*%
%TO.N,WH*%
X106934000Y-73660000D03*
%TO.P,U11,3,LIN*%
%TO.N,WL*%
X104394000Y-73660000D03*
%TO.P,U11,4,COM*%
%TO.N,GND*%
X101854000Y-73660000D03*
%TO.P,U11,5,LO*%
%TO.N,Net-(R29-Pad1)*%
X101854000Y-81280000D03*
%TO.P,U11,6,VS*%
%TO.N,Net-(C32-Pad2)*%
X104394000Y-81280000D03*
%TO.P,U11,7,HO*%
%TO.N,Net-(R26-Pad1)*%
X106934000Y-81280000D03*
%TO.P,U11,8,VB*%
%TO.N,WBS*%
X109474000Y-81280000D03*
%TD*%
D32*
%TO.P,Q12,1,G*%
%TO.N,+3V3*%
X108809750Y-66963500D03*
%TO.P,Q12,2,S*%
%TO.N,/3V3to5V2/LIN*%
X106909750Y-66963500D03*
%TO.P,Q12,3,D*%
%TO.N,WH*%
X107859750Y-68838500D03*
%TD*%
D20*
%TO.P,R38,1*%
%TO.N,EN*%
X62802500Y-38640000D03*
%TO.P,R38,2*%
%TO.N,Net-(C42-Pad2)*%
X60977500Y-38640000D03*
%TD*%
D31*
%TO.P,R55,1*%
%TO.N,+5V*%
X61805000Y-62579000D03*
%TO.P,R55,2*%
%TO.N,/3V3to5V7/HIN*%
X61805000Y-60579000D03*
%TD*%
%TO.P,R54,1*%
%TO.N,+3V3*%
X67647000Y-62595000D03*
%TO.P,R54,2*%
%TO.N,/3V3to5V7/LIN*%
X67647000Y-60595000D03*
%TD*%
D47*
%TO.P,C43,1*%
%TO.N,VMOTOR*%
X115844000Y-87115642D03*
D13*
%TO.P,C43,2*%
%TO.N,GNDPWR*%
X118344000Y-91445769D03*
%TD*%
D21*
%TO.P,R41,1*%
%TO.N,+5V*%
X105287750Y-70866000D03*
%TO.P,R41,2*%
%TO.N,WL*%
X103287750Y-70866000D03*
%TD*%
D23*
%TO.P,C38,1*%
%TO.N,RAW*%
X101832500Y-44450000D03*
%TO.P,C38,2*%
%TO.N,GND*%
X103907500Y-44450000D03*
%TD*%
D37*
%TO.P,J16,1,Pin_1*%
%TO.N,TX_forbms*%
X43180000Y-59190000D03*
D38*
%TO.P,J16,2,Pin_2*%
%TO.N,RX_forbms*%
X43180000Y-61690000D03*
%TO.P,J16,3,Pin_3*%
%TO.N,GND*%
X43180000Y-64190000D03*
%TD*%
D21*
%TO.P,R46,1*%
%TO.N,+3V3*%
X80518000Y-64786000D03*
%TO.P,R46,2*%
%TO.N,/3V3to5V3/LIN*%
X78518000Y-64786000D03*
%TD*%
D32*
%TO.P,Q15,1,G*%
%TO.N,+3V3*%
X92105000Y-66963500D03*
%TO.P,Q15,2,S*%
%TO.N,/3V3to5V5/LIN*%
X90205000Y-66963500D03*
%TO.P,Q15,3,D*%
%TO.N,VL*%
X91155000Y-68838500D03*
%TD*%
D56*
%TO.P,U2,1,GND*%
%TO.N,GND*%
X72780000Y-37465000D03*
%TO.P,U2,2,VDD*%
%TO.N,+3V3*%
X72780000Y-38735000D03*
%TO.P,U2,3,EN*%
%TO.N,EN*%
X72780000Y-40005000D03*
%TO.P,U2,4,SENSOR_VP*%
%TO.N,Net-(R2-Pad2)*%
X72780000Y-41275000D03*
%TO.P,U2,5,SENSOR_VN*%
%TO.N,Net-(R3-Pad2)*%
X72780000Y-42545000D03*
%TO.P,U2,6,IO34*%
%TO.N,Net-(R12-Pad1)*%
X72780000Y-43815000D03*
%TO.P,U2,7,IO35*%
%TO.N,Net-(R16-Pad1)*%
X72780000Y-45085000D03*
%TO.P,U2,8,IO32*%
%TO.N,/3V3to5V6/LIN*%
X72780000Y-46355000D03*
%TO.P,U2,9,IO33*%
%TO.N,/3V3to5V7/LIN*%
X72780000Y-47625000D03*
%TO.P,U2,10,IO25*%
%TO.N,/3V3to5V8/LIN*%
X72780000Y-48895000D03*
%TO.P,U2,11,IO26*%
%TO.N,/3V3to5V10/LIN*%
X72780000Y-50165000D03*
%TO.P,U2,12,IO27*%
%TO.N,/3V3to5V9/LIN*%
X72780000Y-51435000D03*
%TO.P,U2,13,IO14*%
%TO.N,SCL*%
X72780000Y-52705000D03*
%TO.P,U2,14,IO12*%
%TO.N,DC*%
X72780000Y-53975000D03*
D57*
%TO.P,U2,15,GND*%
%TO.N,GND*%
X75565000Y-54975000D03*
%TO.P,U2,16,IO13*%
%TO.N,SDA*%
X76835000Y-54975000D03*
%TO.P,U2,17,SHD/SD2*%
%TO.N,unconnected-(U2-Pad17)*%
X78105000Y-54975000D03*
%TO.P,U2,18,SWP/SD3*%
%TO.N,unconnected-(U2-Pad18)*%
X79375000Y-54975000D03*
%TO.P,U2,19,SCS/CMD*%
%TO.N,unconnected-(U2-Pad19)*%
X80645000Y-54975000D03*
%TO.P,U2,20,SCK/CLK*%
%TO.N,unconnected-(U2-Pad20)*%
X81915000Y-54975000D03*
%TO.P,U2,21,SDO/SD0*%
%TO.N,unconnected-(U2-Pad21)*%
X83185000Y-54975000D03*
%TO.P,U2,22,SDI/SD1*%
%TO.N,unconnected-(U2-Pad22)*%
X84455000Y-54975000D03*
%TO.P,U2,23,IO15*%
%TO.N,CS*%
X85725000Y-54975000D03*
%TO.P,U2,24,IO2*%
%TO.N,/3V3to5V1/LIN*%
X86995000Y-54975000D03*
D56*
%TO.P,U2,25,IO0*%
%TO.N,IO0*%
X89780000Y-53975000D03*
%TO.P,U2,26,IO4*%
%TO.N,/3V3to5V2/LIN*%
X89780000Y-52705000D03*
%TO.P,U2,27,IO16*%
%TO.N,RX_forbms*%
X89780000Y-51435000D03*
%TO.P,U2,28,IO17*%
%TO.N,TX_forbms*%
X89780000Y-50165000D03*
%TO.P,U2,29,IO5*%
%TO.N,/3V3to5V3/LIN*%
X89780000Y-48895000D03*
%TO.P,U2,30,IO18*%
%TO.N,/3V3to5V4/LIN*%
X89780000Y-47625000D03*
%TO.P,U2,31,IO19*%
%TO.N,hallA*%
X89780000Y-46355000D03*
%TO.P,U2,32,NC*%
%TO.N,unconnected-(U2-Pad32)*%
X89780000Y-45085000D03*
%TO.P,U2,33,IO21*%
%TO.N,hallB*%
X89780000Y-43815000D03*
%TO.P,U2,34,RXD0/IO3*%
%TO.N,Net-(J17-Pad2)*%
X89780000Y-42545000D03*
%TO.P,U2,35,TXD0/IO1*%
%TO.N,Net-(J17-Pad3)*%
X89780000Y-41275000D03*
%TO.P,U2,36,IO22*%
%TO.N,hallC*%
X89780000Y-40005000D03*
%TO.P,U2,37,IO23*%
%TO.N,/3V3to5V5/LIN*%
X89780000Y-38735000D03*
%TO.P,U2,38,GND*%
%TO.N,GND*%
X89780000Y-37465000D03*
D58*
%TO.P,U2,39,GND*%
X80280000Y-44965000D03*
%TD*%
D49*
%TO.P,Q17,1,G*%
%TO.N,+3V3*%
X65707500Y-62444000D03*
%TO.P,Q17,2,S*%
%TO.N,/3V3to5V7/LIN*%
X65707500Y-60544000D03*
%TO.P,Q17,3,D*%
%TO.N,/3V3to5V7/HIN*%
X63832500Y-61494000D03*
%TD*%
D21*
%TO.P,R40,1*%
%TO.N,+3V3*%
X105303750Y-64770000D03*
%TO.P,R40,2*%
%TO.N,IO0*%
X103303750Y-64770000D03*
%TD*%
D20*
%TO.P,R26,1*%
%TO.N,Net-(R26-Pad1)*%
X109116500Y-85852000D03*
%TO.P,R26,2*%
%TO.N,Net-(Q8-Pad1)*%
X107291500Y-85852000D03*
%TD*%
D49*
%TO.P,Q18,1,G*%
%TO.N,+3V3*%
X65707500Y-66365000D03*
%TO.P,Q18,2,S*%
%TO.N,/3V3to5V8/LIN*%
X65707500Y-64465000D03*
%TO.P,Q18,3,D*%
%TO.N,/3V3to5V8/HIN*%
X63832500Y-65415000D03*
%TD*%
D59*
%TO.P,TH1,1*%
%TO.N,+5V*%
X42418000Y-74406000D03*
D60*
%TO.P,TH1,2*%
%TO.N,Tsense*%
X42418000Y-72506000D03*
%TD*%
D22*
%TO.P,J1,1,Pin_1*%
%TO.N,VBUS*%
X43482500Y-86995000D03*
%TD*%
D20*
%TO.P,R14,1*%
%TO.N,Net-(R14-Pad1)*%
X96924500Y-86360000D03*
%TO.P,R14,2*%
%TO.N,Net-(Q5-Pad1)*%
X95099500Y-86360000D03*
%TD*%
D23*
%TO.P,C29,1*%
%TO.N,Net-(C23-Pad2)*%
X47222500Y-73703250D03*
%TO.P,C29,2*%
%TO.N,Net-(C29-Pad2)*%
X49297500Y-73703250D03*
%TD*%
D27*
%TO.P,U3,1,VCC*%
%TO.N,RAW*%
X70612000Y-73687500D03*
D28*
%TO.P,U3,2,HIN*%
%TO.N,SR*%
X68072000Y-73687500D03*
%TO.P,U3,3,LIN*%
%TO.N,SW*%
X65532000Y-73687500D03*
%TO.P,U3,4,COM*%
%TO.N,GND*%
X62992000Y-73687500D03*
%TO.P,U3,5,LO*%
%TO.N,Net-(R11-Pad1)*%
X62992000Y-81307500D03*
%TO.P,U3,6,VS*%
%TO.N,Vs*%
X65532000Y-81307500D03*
%TO.P,U3,7,HO*%
%TO.N,Net-(R9-Pad1)*%
X68072000Y-81307500D03*
%TO.P,U3,8,VB*%
%TO.N,cp*%
X70612000Y-81307500D03*
%TD*%
D21*
%TO.P,R44,1*%
%TO.N,+3V3*%
X109204000Y-64770000D03*
%TO.P,R44,2*%
%TO.N,/3V3to5V2/LIN*%
X107204000Y-64770000D03*
%TD*%
D37*
%TO.P,J15,1,Pin_1*%
%TO.N,BLK*%
X43180000Y-42752000D03*
D38*
%TO.P,J15,2,Pin_2*%
%TO.N,CS*%
X43180000Y-45252000D03*
%TO.P,J15,3,Pin_3*%
%TO.N,DC*%
X43180000Y-47752000D03*
%TO.P,J15,4,Pin_4*%
%TO.N,SDA*%
X43180000Y-50252000D03*
%TO.P,J15,5,Pin_5*%
%TO.N,SCL*%
X43180000Y-52752000D03*
%TD*%
D61*
%TO.P,J7,1,Pin_1*%
%TO.N,GND*%
X109220000Y-48260000D03*
D30*
%TO.P,J7,2,Pin_2*%
%TO.N,RAW*%
X109220000Y-45760000D03*
%TD*%
D46*
%TO.P,U4,1,IP+*%
%TO.N,Net-(Q2-Pad2)*%
X55245000Y-100265000D03*
%TO.P,U4,2,IP+*%
X56515000Y-100265000D03*
%TO.P,U4,3,IP-*%
%TO.N,VBUS*%
X57785000Y-100265000D03*
%TO.P,U4,4,IP-*%
X59055000Y-100265000D03*
%TO.P,U4,5,GND*%
%TO.N,GND*%
X59055000Y-95315000D03*
%TO.P,U4,6,FILTER*%
%TO.N,Net-(C12-Pad1)*%
X57785000Y-95315000D03*
%TO.P,U4,7,VIOUT*%
%TO.N,I_Bsense*%
X56515000Y-95315000D03*
%TO.P,U4,8,VCC*%
%TO.N,+5V*%
X55245000Y-95315000D03*
%TD*%
D18*
%TO.P,R32,1*%
%TO.N,VBUS*%
X63625000Y-96139000D03*
%TO.P,R32,2*%
%TO.N,VMOTOR*%
X69725000Y-96139000D03*
%TD*%
D21*
%TO.P,R50,1*%
%TO.N,+3V3*%
X92186000Y-65024000D03*
%TO.P,R50,2*%
%TO.N,/3V3to5V5/LIN*%
X90186000Y-65024000D03*
%TD*%
D17*
%TO.P,R25,1*%
%TO.N,Net-(D9-Pad1)*%
X54987750Y-69869750D03*
%TO.P,R25,2*%
%TO.N,Net-(C31-Pad1)*%
X54987750Y-71694750D03*
%TD*%
D45*
%TO.P,D2,1,K*%
%TO.N,VBS*%
X99060000Y-86323500D03*
%TO.P,D2,2,A*%
%TO.N,Net-(D1-Pad2)*%
X99060000Y-83348500D03*
%TD*%
D53*
%TO.P,SW1,1,A*%
%TO.N,Net-(C41-Pad2)*%
X108290000Y-40635000D03*
X102530000Y-40635000D03*
%TO.P,SW1,2,B*%
%TO.N,GND*%
X108290000Y-36635000D03*
X102530000Y-36635000D03*
%TD*%
D31*
%TO.P,R6,1*%
%TO.N,Net-(D4-Pad2)*%
X73406000Y-75930000D03*
%TO.P,R6,2*%
%TO.N,RAW*%
X73406000Y-73930000D03*
%TD*%
D49*
%TO.P,Q16,1,G*%
%TO.N,+3V3*%
X65695750Y-58569250D03*
%TO.P,Q16,2,S*%
%TO.N,/3V3to5V6/LIN*%
X65695750Y-56669250D03*
%TO.P,Q16,3,D*%
%TO.N,/3V3to5V6/HIN*%
X63820750Y-57619250D03*
%TD*%
D33*
%TO.P,D7,1,K*%
%TO.N,Vs*%
X45335750Y-80232000D03*
%TO.P,D7,2,A*%
%TO.N,Net-(C23-Pad2)*%
X45335750Y-76232000D03*
%TD*%
D47*
%TO.P,C5,1*%
%TO.N,VMOTOR*%
X115844000Y-95751642D03*
D13*
%TO.P,C5,2*%
%TO.N,GNDPWR*%
X118344000Y-100081769D03*
%TD*%
D31*
%TO.P,R52,1*%
%TO.N,+3V3*%
X67635250Y-58720250D03*
%TO.P,R52,2*%
%TO.N,/3V3to5V6/LIN*%
X67635250Y-56720250D03*
%TD*%
D37*
%TO.P,J13,1,Pin_1*%
%TO.N,GND*%
X54358000Y-47070000D03*
D38*
%TO.P,J13,2,Pin_2*%
%TO.N,brake2*%
X54358000Y-49570000D03*
%TO.P,J13,3,Pin_3*%
%TO.N,+5V*%
X54358000Y-52070000D03*
%TD*%
D23*
%TO.P,C39,1*%
%TO.N,+5V*%
X96752500Y-54610000D03*
%TO.P,C39,2*%
%TO.N,GND*%
X98827500Y-54610000D03*
%TD*%
D18*
%TO.P,R31,1*%
%TO.N,VBUS*%
X63625000Y-92329000D03*
%TO.P,R31,2*%
%TO.N,VMOTOR*%
X69725000Y-92329000D03*
%TD*%
D17*
%TO.P,R19,1*%
%TO.N,Net-(R19-Pad1)*%
X88900000Y-83185000D03*
%TO.P,R19,2*%
%TO.N,Net-(Q6-Pad1)*%
X88900000Y-85010000D03*
%TD*%
D62*
%TO.P,Q8,1,G*%
%TO.N,Net-(Q8-Pad1)*%
X104140000Y-95590000D03*
D63*
%TO.P,Q8,2,D*%
%TO.N,VMOTOR*%
X106680000Y-95590000D03*
%TO.P,Q8,3,S*%
%TO.N,Net-(C32-Pad2)*%
X109220000Y-95590000D03*
%TD*%
D62*
%TO.P,Q9,1,G*%
%TO.N,Net-(Q9-Pad1)*%
X109220000Y-108880000D03*
D63*
%TO.P,Q9,2,D*%
%TO.N,Net-(C32-Pad2)*%
X106680000Y-108880000D03*
%TO.P,Q9,3,S*%
%TO.N,GNDPWR*%
X104140000Y-108880000D03*
%TD*%
D62*
%TO.P,Q5,1,G*%
%TO.N,Net-(Q5-Pad1)*%
X88900000Y-95590000D03*
D63*
%TO.P,Q5,2,D*%
%TO.N,VMOTOR*%
X91440000Y-95590000D03*
%TO.P,Q5,3,S*%
%TO.N,Net-(C20-Pad2)*%
X93980000Y-95590000D03*
%TD*%
D64*
%TO.P,L1,1,1*%
%TO.N,VSC*%
X45212000Y-98558000D03*
%TO.P,L1,2,2*%
%TO.N,Vs*%
X45212000Y-105658000D03*
%TD*%
D62*
%TO.P,Q4,1,G*%
%TO.N,Net-(Q4-Pad1)*%
X66675000Y-108880000D03*
D63*
%TO.P,Q4,2,D*%
%TO.N,Vs*%
X64135000Y-108880000D03*
%TO.P,Q4,3,S*%
%TO.N,GNDPWR*%
X61595000Y-108880000D03*
%TD*%
D62*
%TO.P,Q3,1,G*%
%TO.N,Net-(Q3-Pad1)*%
X78740000Y-108880000D03*
D63*
%TO.P,Q3,2,D*%
%TO.N,Net-(C10-Pad2)*%
X76200000Y-108880000D03*
%TO.P,Q3,3,S*%
%TO.N,GNDPWR*%
X73660000Y-108880000D03*
%TD*%
D62*
%TO.P,Q2,1,G*%
%TO.N,Net-(Q2-Pad1)*%
X53340000Y-103505000D03*
D63*
%TO.P,Q2,2,D*%
%TO.N,Net-(Q2-Pad2)*%
X55880000Y-103505000D03*
%TO.P,Q2,3,S*%
%TO.N,Vs*%
X58420000Y-103505000D03*
%TD*%
D62*
%TO.P,Q1,1,G*%
%TO.N,Net-(Q1-Pad1)*%
X73660000Y-95590000D03*
D63*
%TO.P,Q1,2,D*%
%TO.N,VMOTOR*%
X76200000Y-95590000D03*
%TO.P,Q1,3,S*%
%TO.N,Net-(C10-Pad2)*%
X78740000Y-95590000D03*
%TD*%
D62*
%TO.P,Q6,1,G*%
%TO.N,Net-(Q6-Pad1)*%
X93980000Y-108880000D03*
D63*
%TO.P,Q6,2,D*%
%TO.N,Net-(C20-Pad2)*%
X91440000Y-108880000D03*
%TO.P,Q6,3,S*%
%TO.N,GNDPWR*%
X88900000Y-108880000D03*
%TD*%
D65*
%TO.N,+5V*%
X100584000Y-58674000D03*
X105303750Y-68834000D03*
X84233000Y-68826000D03*
X92256000Y-68834000D03*
X108960750Y-68834000D03*
X96266000Y-57150000D03*
X99314000Y-58674000D03*
X53467000Y-95504000D03*
X80534000Y-68834000D03*
X106500000Y-61500000D03*
X97155000Y-97790000D03*
X98806000Y-56388000D03*
X97028000Y-53340000D03*
X82042000Y-97917000D03*
X63837000Y-62595000D03*
X99314000Y-57404000D03*
X72663000Y-65116500D03*
X99568000Y-64297500D03*
X63825250Y-58720250D03*
X106500000Y-60000000D03*
X63837000Y-66516000D03*
X76727000Y-65116500D03*
X100584000Y-60706000D03*
X95901000Y-68834000D03*
X61595000Y-72644000D03*
X58547000Y-82804000D03*
X99314000Y-61976000D03*
X99314000Y-60706000D03*
%TO.N,GND*%
X45466000Y-50038000D03*
X74676000Y-47752000D03*
X100076000Y-39878000D03*
X60960000Y-78740000D03*
X94488000Y-41656000D03*
X83820000Y-77216000D03*
X82804000Y-40386000D03*
X88011000Y-37338000D03*
X49530000Y-43688000D03*
X83820000Y-39370000D03*
X53848000Y-75692000D03*
X101600000Y-62230000D03*
X44958000Y-45720000D03*
X50800000Y-38608000D03*
X59944000Y-56388000D03*
X63000000Y-76000000D03*
X57150000Y-83185000D03*
X86995000Y-96497500D03*
X105410000Y-39878000D03*
X44958000Y-43688000D03*
X77724000Y-63246000D03*
X106934000Y-45974000D03*
X86360000Y-65278000D03*
X83820000Y-78740000D03*
X87376000Y-68580000D03*
X82804000Y-51816000D03*
X100838000Y-67564000D03*
X70612000Y-45466000D03*
X91440000Y-38862000D03*
X61468000Y-43688000D03*
X57785000Y-38735000D03*
X102235000Y-96520000D03*
X109474000Y-62992000D03*
X106172000Y-68072000D03*
X64516000Y-37338000D03*
X51837500Y-62865000D03*
X109474000Y-60452000D03*
X63500000Y-68072000D03*
X69342000Y-67310000D03*
X78740000Y-56896000D03*
X77216000Y-56896000D03*
X43688000Y-78740000D03*
X111506000Y-60452000D03*
X105410000Y-41656000D03*
X75692000Y-56896000D03*
X75184000Y-79756000D03*
X84836000Y-45720000D03*
X53848000Y-68072000D03*
X74676000Y-37592000D03*
X63000000Y-78000000D03*
X77216000Y-49784000D03*
X75184000Y-78232000D03*
X71628000Y-75692000D03*
X109474000Y-61722000D03*
X86360000Y-42672000D03*
X111506000Y-61722000D03*
X50546000Y-55880000D03*
X105410000Y-45720000D03*
X66802000Y-36576000D03*
X85344000Y-57404000D03*
X100076000Y-41402000D03*
X70358000Y-65024000D03*
X43688000Y-69088000D03*
X83820000Y-62484000D03*
X60452000Y-63500000D03*
X50800000Y-68072000D03*
X84836000Y-47244000D03*
X75184000Y-59944000D03*
X65532000Y-67310000D03*
X71628000Y-77724000D03*
X51054000Y-65532000D03*
X106680000Y-51816000D03*
X86360000Y-75184000D03*
X79248000Y-41148000D03*
X71628000Y-76708000D03*
X57150000Y-98425000D03*
X83820000Y-75692000D03*
X43688000Y-83312000D03*
X87884000Y-59944000D03*
X88900000Y-65278000D03*
X58420000Y-71628000D03*
X84836000Y-38354000D03*
X41148000Y-75692000D03*
X87376000Y-71120000D03*
X75184000Y-76708000D03*
X78994000Y-86360000D03*
X100838000Y-86106000D03*
X114300000Y-42545000D03*
X96012000Y-39878000D03*
X101600000Y-51435000D03*
X74676000Y-46482000D03*
X106680000Y-49530000D03*
X111506000Y-62992000D03*
X64008000Y-54102000D03*
X50800000Y-42164000D03*
X51816000Y-81788000D03*
X63000000Y-77000000D03*
X54864000Y-43688000D03*
%TO.N,RAW*%
X70612000Y-69850000D03*
%TO.N,Vs*%
X51435000Y-83185000D03*
%TO.N,hallC*%
X91440000Y-40005000D03*
%TO.N,hallB*%
X92075000Y-43815000D03*
%TO.N,hallA*%
X92618500Y-46355000D03*
%TO.N,Net-(Q4-Pad1)*%
X64770000Y-86233000D03*
X66929000Y-87122000D03*
%TO.N,Net-(Q5-Pad1)*%
X93726000Y-86614000D03*
%TO.N,Net-(Q6-Pad1)*%
X88823615Y-86436385D03*
%TO.N,Net-(Q8-Pad1)*%
X106172000Y-86868000D03*
%TO.N,Net-(Q9-Pad1)*%
X102108000Y-86360000D03*
%TO.N,+3V3*%
X75711000Y-62576500D03*
X94885000Y-66294000D03*
X98044000Y-46228000D03*
X66377000Y-65500000D03*
X66377000Y-61579000D03*
X74930000Y-38862000D03*
X104287750Y-66294000D03*
X71647000Y-62576500D03*
X79518000Y-66294000D03*
X91240000Y-66294000D03*
X109474000Y-38100000D03*
X99060000Y-50292000D03*
X65786000Y-59563000D03*
X83217000Y-66286000D03*
X99060000Y-48768000D03*
X61942904Y-39943719D03*
X96266000Y-46228000D03*
X107944750Y-66294000D03*
X95250000Y-52324000D03*
X101092000Y-48260000D03*
%TO.N,I_totsense*%
X64790767Y-82800999D03*
X46000000Y-64000000D03*
%TO.N,I_Usense*%
X83185000Y-97790000D03*
X64262000Y-43180000D03*
%TO.N,I_Vsense*%
X65159287Y-38489288D03*
X99060000Y-97790000D03*
%TO.N,Net-(Q2-Pad1)*%
X63373000Y-87503000D03*
%TO.N,Net-(C23-Pad2)*%
X51655129Y-80103129D03*
X47113750Y-76116250D03*
%TO.N,I_Bsense*%
X56604500Y-93980000D03*
X65445118Y-40679412D03*
%TO.N,SCL*%
X75565000Y-50800000D03*
%TO.N,SDA*%
X77470000Y-52705000D03*
%TO.N,CS*%
X85725000Y-52705000D03*
%TO.N,RX_forbms*%
X91567000Y-51562000D03*
%TO.N,TX_forbms*%
X88265000Y-50419000D03*
%TO.N,Net-(C24-Pad2)*%
X59690000Y-66040000D03*
X47625000Y-57785000D03*
%TO.N,Net-(C25-Pad2)*%
X47625000Y-62865000D03*
%TO.N,Tsense*%
X47625000Y-60325000D03*
%TO.N,DC*%
X71628000Y-55245500D03*
X56007000Y-56515000D03*
%TO.N,/3V3to5V1/LIN*%
X88900000Y-57150000D03*
X86995000Y-53340000D03*
%TO.N,/3V3to5V2/LIN*%
X91694000Y-52832000D03*
X91821000Y-54737000D03*
%TO.N,/3V3to5V4/LIN*%
X87884000Y-47752000D03*
X87122000Y-49784000D03*
%TO.N,/3V3to5V5/LIN*%
X87630000Y-38735000D03*
X90170000Y-63500000D03*
%TO.N,Net-(Q1-Pad1)*%
X80518000Y-86614000D03*
%TO.N,Net-(R3-Pad2)*%
X71191755Y-42616755D03*
%TO.N,Net-(R12-Pad1)*%
X69308469Y-43791313D03*
%TO.N,Net-(R12-Pad2)*%
X46355000Y-55880000D03*
%TO.N,Net-(Q3-Pad1)*%
X75692000Y-86106000D03*
%TO.N,Net-(R2-Pad2)*%
X70485000Y-41910000D03*
%TO.N,Net-(R16-Pad1)*%
X74422000Y-41656000D03*
%TO.N,/3V3to5V9/LIN*%
X71125714Y-52064286D03*
X70612000Y-59690000D03*
%TO.N,GNDPWR*%
X49022000Y-69088000D03*
%TO.N,Net-(C20-Pad2)*%
X93726000Y-85598000D03*
%TD*%
D66*
%TO.N,+5V*%
X53469000Y-95506000D02*
X53467000Y-95504000D01*
D67*
X63821000Y-62579000D02*
X63837000Y-62595000D01*
D68*
X95640000Y-59690000D02*
X94615000Y-60715000D01*
D67*
X63809250Y-58704250D02*
X63825250Y-58720250D01*
X92240000Y-70866000D02*
X92240000Y-68850000D01*
X105287750Y-70866000D02*
X105287750Y-68850000D01*
X76711000Y-65132500D02*
X76727000Y-65116500D01*
D66*
X53469000Y-96752500D02*
X53469000Y-95506000D01*
D68*
X54358000Y-57598000D02*
X54545000Y-57785000D01*
D67*
X59182000Y-83439000D02*
X58547000Y-82804000D01*
X84217000Y-70858000D02*
X84217000Y-68842000D01*
D68*
X81280000Y-95950000D02*
X81280000Y-97155000D01*
D67*
X108944750Y-70866000D02*
X108944750Y-68850000D01*
X60198000Y-83439000D02*
X59182000Y-83439000D01*
D68*
X97180000Y-59690000D02*
X103480000Y-59690000D01*
D67*
X84217000Y-68842000D02*
X84233000Y-68826000D01*
X61805000Y-66500000D02*
X63821000Y-66500000D01*
X61793250Y-58704250D02*
X63809250Y-58704250D01*
D68*
X99568000Y-64297500D02*
X97180000Y-61909500D01*
D67*
X95885000Y-70866000D02*
X95885000Y-68850000D01*
X72647000Y-67148500D02*
X72647000Y-65132500D01*
D68*
X97180000Y-61909500D02*
X97180000Y-59690000D01*
D66*
X53807500Y-96752500D02*
X55245000Y-95315000D01*
X97155000Y-97790000D02*
X97155000Y-96077000D01*
D68*
X81280000Y-97155000D02*
X82042000Y-97917000D01*
D67*
X95885000Y-68850000D02*
X95901000Y-68834000D01*
X105287750Y-68850000D02*
X105303750Y-68834000D01*
D66*
X61976000Y-83592500D02*
X62953500Y-83592500D01*
D67*
X61805000Y-62579000D02*
X63821000Y-62579000D01*
D68*
X97028000Y-53340000D02*
X97028000Y-54334500D01*
D67*
X92240000Y-68850000D02*
X92256000Y-68834000D01*
X76711000Y-67148500D02*
X76711000Y-65132500D01*
D66*
X62953500Y-83592500D02*
X63500000Y-84139000D01*
D67*
X72647000Y-65132500D02*
X72663000Y-65116500D01*
X108944750Y-68850000D02*
X108960750Y-68834000D01*
D68*
X97180000Y-59690000D02*
X95640000Y-59690000D01*
D67*
X80518000Y-70866000D02*
X80518000Y-68850000D01*
X80518000Y-68850000D02*
X80534000Y-68834000D01*
D68*
X54358000Y-52070000D02*
X54358000Y-57598000D01*
D67*
X63821000Y-66500000D02*
X63837000Y-66516000D01*
D66*
%TO.N,GND*%
X86447500Y-95950000D02*
X86995000Y-96497500D01*
D67*
X51054000Y-65532000D02*
X49722000Y-65532000D01*
D66*
X72780000Y-37465000D02*
X71016500Y-37465000D01*
D68*
X97648500Y-55789000D02*
X98827500Y-54610000D01*
D67*
X94615000Y-44958999D02*
X96175999Y-43398000D01*
D68*
X75565000Y-56769000D02*
X75692000Y-56896000D01*
D67*
X49595000Y-65405000D02*
X49595000Y-66675000D01*
D66*
X60198000Y-85514000D02*
X59479000Y-85514000D01*
D67*
X96162500Y-41148000D02*
X98806000Y-38504500D01*
D68*
X98827500Y-54610000D02*
X101607500Y-51830000D01*
D67*
X50889000Y-97872000D02*
X51691000Y-98674000D01*
X99314000Y-36635000D02*
X108290000Y-36635000D01*
X42418000Y-67972000D02*
X43180000Y-67210000D01*
D66*
X58420000Y-36640000D02*
X58420000Y-38100000D01*
X66961000Y-85439000D02*
X67310000Y-85090000D01*
D67*
X96175999Y-43398000D02*
X97775500Y-43398000D01*
X89780000Y-37465000D02*
X88138000Y-37465000D01*
D68*
X98827500Y-44450000D02*
X99695000Y-44450000D01*
D66*
X67310000Y-85090000D02*
X67310000Y-84139000D01*
X59479000Y-85514000D02*
X57150000Y-83185000D01*
D68*
X94801500Y-55789000D02*
X97648500Y-55789000D01*
D66*
X72780000Y-37465000D02*
X74549000Y-37465000D01*
D67*
X43180000Y-67210000D02*
X47790000Y-67210000D01*
D68*
X101607500Y-51830000D02*
X103480000Y-51830000D01*
D66*
X101408000Y-96520000D02*
X100838000Y-95950000D01*
D67*
X98806000Y-37143000D02*
X99314000Y-36635000D01*
D68*
X100965000Y-43180000D02*
X102637500Y-43180000D01*
D66*
X53871500Y-98425000D02*
X58420000Y-98425000D01*
X102235000Y-97790000D02*
X102235000Y-96520000D01*
D68*
X101995000Y-51830000D02*
X101600000Y-51435000D01*
D67*
X97775500Y-43398000D02*
X98827500Y-44450000D01*
D68*
X102637500Y-43180000D02*
X103907500Y-44450000D01*
D67*
X51943000Y-95144500D02*
X50889000Y-96198500D01*
D66*
X58420000Y-36640000D02*
X61115000Y-36640000D01*
D68*
X75565000Y-54975000D02*
X75565000Y-56769000D01*
D66*
X67310000Y-85111500D02*
X67310000Y-84139000D01*
X85090000Y-95950000D02*
X86447500Y-95950000D01*
X58420000Y-98425000D02*
X59055000Y-97790000D01*
X69596000Y-87397500D02*
X67310000Y-85111500D01*
D68*
X103480000Y-61990000D02*
X101840000Y-61990000D01*
D66*
X74686500Y-72134000D02*
X76240000Y-73687500D01*
X74549000Y-37465000D02*
X74676000Y-37592000D01*
X62097500Y-85439000D02*
X66961000Y-85439000D01*
X73909000Y-72134000D02*
X74686500Y-72134000D01*
D68*
X99695000Y-44450000D02*
X100965000Y-43180000D01*
D66*
X102235000Y-96520000D02*
X101408000Y-96520000D01*
D67*
X67485000Y-37259000D02*
X68328000Y-37259000D01*
X43180000Y-67210000D02*
X43180000Y-64190000D01*
D66*
X71016500Y-37465000D02*
X70614000Y-37062500D01*
D67*
X98806000Y-38504500D02*
X98806000Y-37143000D01*
D68*
X103907500Y-54610000D02*
X103907500Y-52257500D01*
D67*
X88138000Y-37465000D02*
X88011000Y-37338000D01*
D66*
X58420000Y-38100000D02*
X57785000Y-38735000D01*
X86995000Y-96497500D02*
X86995000Y-98022500D01*
D67*
X47790000Y-67210000D02*
X49595000Y-65405000D01*
D68*
X103480000Y-51830000D02*
X101995000Y-51830000D01*
D66*
X59055000Y-97790000D02*
X59055000Y-95315000D01*
D68*
X104140000Y-44450000D02*
X105410000Y-45720000D01*
D67*
X66802000Y-36576000D02*
X67485000Y-37259000D01*
X42418000Y-68596000D02*
X42418000Y-67972000D01*
D66*
X52660000Y-36640000D02*
X58420000Y-36640000D01*
D68*
X101840000Y-61990000D02*
X101600000Y-62230000D01*
D67*
X50889000Y-96198500D02*
X50889000Y-97872000D01*
D66*
%TO.N,cp*%
X73660000Y-81280000D02*
X71755000Y-83185000D01*
X62405500Y-78740000D02*
X68592500Y-78740000D01*
X68592500Y-78740000D02*
X71160000Y-81307500D01*
X71160000Y-82590000D02*
X71755000Y-83185000D01*
X71160000Y-81307500D02*
X71160000Y-82590000D01*
X60321750Y-76656250D02*
X62405500Y-78740000D01*
D68*
%TO.N,RAW*%
X101832500Y-45582500D02*
X103480000Y-47230000D01*
D69*
X109220000Y-45760000D02*
X115155501Y-51695501D01*
D66*
X73660000Y-73610000D02*
X72184000Y-72134000D01*
D69*
X108327349Y-57390000D02*
X105650000Y-57390000D01*
X105650000Y-57390000D02*
X103480000Y-57390000D01*
D66*
X72184000Y-72663500D02*
X71160000Y-73687500D01*
D67*
X71481500Y-69850000D02*
X71987500Y-70356000D01*
D68*
X101832500Y-54610000D02*
X101832500Y-55742500D01*
X103838000Y-47230000D02*
X105650000Y-49042000D01*
D69*
X109220000Y-58282651D02*
X108327349Y-57390000D01*
D68*
X101832500Y-55742500D02*
X103480000Y-57390000D01*
D67*
X70612000Y-69850000D02*
X71481500Y-69850000D01*
X116078000Y-59182000D02*
X115316000Y-58420000D01*
D68*
X101832500Y-44450000D02*
X101832500Y-45582500D01*
X105650000Y-49042000D02*
X105650000Y-57390000D01*
D69*
X115316000Y-58420000D02*
X109865349Y-58420000D01*
X115155501Y-58259501D02*
X115316000Y-58420000D01*
D66*
X72184000Y-72134000D02*
X72184000Y-72663500D01*
D69*
X115155501Y-51695501D02*
X115155501Y-58259501D01*
D68*
%TO.N,UBS*%
X86360000Y-86106000D02*
X84582000Y-84328000D01*
D69*
X84328000Y-84328000D02*
X83860000Y-83860000D01*
X83860000Y-83860000D02*
X83860000Y-81307500D01*
D67*
%TO.N,Net-(J17-Pad3)*%
X93726000Y-38747134D02*
X91198134Y-41275000D01*
X91198134Y-41275000D02*
X89780000Y-41275000D01*
D69*
%TO.N,VBS*%
X96560000Y-81307500D02*
X96560000Y-83860000D01*
D67*
X98769500Y-86069500D02*
X96901000Y-84201000D01*
D69*
%TO.N,WBS*%
X112268000Y-78232000D02*
X111506000Y-78994000D01*
X112268000Y-76925500D02*
X112268000Y-78232000D01*
X111506000Y-81301500D02*
X109622500Y-83185000D01*
X109260000Y-82822500D02*
X109260000Y-81307500D01*
X111506000Y-78994000D02*
X111506000Y-81301500D01*
X109622500Y-83185000D02*
X109260000Y-82822500D01*
%TO.N,Vs*%
X46034750Y-80815250D02*
X49825778Y-80815250D01*
X53744382Y-77005250D02*
X54640500Y-77901368D01*
X51308000Y-79333028D02*
X51308000Y-77978000D01*
D67*
X68788500Y-82293500D02*
X69680000Y-83185000D01*
D69*
X52280750Y-77005250D02*
X53744382Y-77005250D01*
X45335750Y-80466250D02*
X48054500Y-83185000D01*
X45335750Y-80116250D02*
X42996250Y-80116250D01*
X49825778Y-80815250D02*
X51308000Y-79333028D01*
D67*
X65532000Y-81307500D02*
X66518000Y-82293500D01*
D69*
X42996250Y-80116250D02*
X42541750Y-79661750D01*
X51308000Y-77978000D02*
X52280750Y-77005250D01*
X48054500Y-83185000D02*
X51435000Y-83185000D01*
D67*
X66518000Y-82293500D02*
X68788500Y-82293500D01*
D69*
X54640500Y-78262500D02*
X56765750Y-80387750D01*
X54640500Y-77901368D02*
X54640500Y-78262500D01*
D66*
%TO.N,Net-(D4-Pad2)*%
X73660000Y-75930000D02*
X73660000Y-77887500D01*
D67*
%TO.N,hallC*%
X91440000Y-40005000D02*
X89780000Y-40005000D01*
%TO.N,hallB*%
X92075000Y-43815000D02*
X89780000Y-43815000D01*
%TO.N,hallA*%
X92618500Y-46355000D02*
X89780000Y-46355000D01*
D66*
%TO.N,Net-(C13-Pad1)*%
X83820000Y-96922500D02*
X86995000Y-100097500D01*
X83820000Y-95950000D02*
X83820000Y-96922500D01*
D68*
%TO.N,Net-(Q4-Pad1)*%
X65659000Y-87122000D02*
X64770000Y-86233000D01*
X66929000Y-87122000D02*
X65659000Y-87122000D01*
D67*
%TO.N,Net-(Q5-Pad1)*%
X93726000Y-86614000D02*
X94845500Y-86614000D01*
D68*
%TO.N,Net-(Q6-Pad1)*%
X88900000Y-86360000D02*
X88823615Y-86436385D01*
X88900000Y-85010000D02*
X88900000Y-86360000D01*
%TO.N,Net-(Q8-Pad1)*%
X107188000Y-85852000D02*
X106172000Y-86868000D01*
D67*
%TO.N,Net-(Q9-Pad1)*%
X101600000Y-85010000D02*
X101600000Y-85852000D01*
X101600000Y-85852000D02*
X102108000Y-86360000D01*
%TO.N,+3V3*%
X83886500Y-66955500D02*
X83217000Y-66286000D01*
X72316500Y-63246000D02*
X71647000Y-62576500D01*
X80383000Y-66963500D02*
X80383000Y-65175000D01*
X103480000Y-49530000D02*
X97180000Y-49530000D01*
X65707500Y-66365000D02*
X65707500Y-66169500D01*
X84082000Y-66955500D02*
X83886500Y-66955500D01*
X65707500Y-62444000D02*
X67496000Y-62444000D01*
X65707500Y-66365000D02*
X67496000Y-66365000D01*
X97180000Y-44877500D02*
X97180000Y-49530000D01*
X76380500Y-63246000D02*
X75711000Y-62576500D01*
D68*
X95640000Y-49530000D02*
X94615000Y-50555000D01*
D67*
X108809750Y-66963500D02*
X108614250Y-66963500D01*
X105152750Y-66963500D02*
X104957250Y-66963500D01*
D68*
X74930000Y-38862000D02*
X72907000Y-38862000D01*
D67*
X108809750Y-66963500D02*
X108809750Y-65175000D01*
X105152750Y-66963500D02*
X105152750Y-65175000D01*
D66*
X72780000Y-38735000D02*
X71016500Y-38735000D01*
D67*
X92105000Y-66963500D02*
X91909500Y-66963500D01*
X65707500Y-66169500D02*
X66377000Y-65500000D01*
X108614250Y-66963500D02*
X107944750Y-66294000D01*
X80187500Y-66963500D02*
X79518000Y-66294000D01*
X65707500Y-62444000D02*
X65707500Y-62248500D01*
D68*
X97180000Y-49530000D02*
X95640000Y-49530000D01*
D67*
X72512000Y-63246000D02*
X72316500Y-63246000D01*
X65707500Y-62248500D02*
X66377000Y-61579000D01*
X92105000Y-66963500D02*
X92105000Y-65175000D01*
X91909500Y-66963500D02*
X91240000Y-66294000D01*
X95750000Y-66963500D02*
X95750000Y-65175000D01*
X76576000Y-63246000D02*
X76380500Y-63246000D01*
D68*
X97180000Y-50394000D02*
X95250000Y-52324000D01*
D67*
X95554500Y-66963500D02*
X94885000Y-66294000D01*
X65695750Y-58569250D02*
X67484250Y-58569250D01*
D66*
X71016500Y-38735000D02*
X70614000Y-39137500D01*
D67*
X111252000Y-36322000D02*
X109474000Y-38100000D01*
X104957250Y-66963500D02*
X104287750Y-66294000D01*
X65786000Y-59563000D02*
X65786000Y-58659500D01*
X84082000Y-66955500D02*
X84082000Y-65167000D01*
X80383000Y-66963500D02*
X80187500Y-66963500D01*
X76576000Y-63246000D02*
X76576000Y-61457500D01*
D68*
X61942904Y-39943719D02*
X62802500Y-40803315D01*
D67*
X72512000Y-63246000D02*
X72512000Y-61457500D01*
X95750000Y-66963500D02*
X95554500Y-66963500D01*
%TO.N,I_totsense*%
X49595000Y-61595000D02*
X49052000Y-62138000D01*
X46862000Y-62138000D02*
X46000000Y-63000000D01*
X46000000Y-63000000D02*
X46000000Y-64000000D01*
X64770000Y-84139000D02*
X64770000Y-82821766D01*
X64770000Y-82821766D02*
X64790767Y-82800999D01*
X49052000Y-62138000D02*
X46862000Y-62138000D01*
D66*
%TO.N,throttle*%
X57233000Y-52575698D02*
X57233000Y-57785000D01*
X55963000Y-59055000D02*
X55263000Y-59055000D01*
X55402302Y-50745000D02*
X57233000Y-52575698D01*
X50118000Y-50745000D02*
X55402302Y-50745000D01*
X48943000Y-49570000D02*
X50118000Y-50745000D01*
X57233000Y-57785000D02*
X55963000Y-59055000D01*
%TO.N,boost*%
X65488000Y-49490000D02*
X59138000Y-55840000D01*
X59138000Y-55840000D02*
X59138000Y-60960000D01*
X57233000Y-62865000D02*
X55263000Y-62865000D01*
X59138000Y-60960000D02*
X57233000Y-62865000D01*
%TO.N,brake1*%
X58503000Y-60325000D02*
X57233000Y-61595000D01*
X58473000Y-50790000D02*
X58473000Y-60295000D01*
X58473000Y-60295000D02*
X58503000Y-60325000D01*
X57233000Y-61595000D02*
X55263000Y-61595000D01*
X59773000Y-49490000D02*
X58473000Y-50790000D01*
%TO.N,brake2*%
X57868000Y-59690000D02*
X57233000Y-60325000D01*
X57233000Y-60325000D02*
X55263000Y-60325000D01*
X57233000Y-49530000D02*
X57868000Y-50165000D01*
X54398000Y-49530000D02*
X57233000Y-49530000D01*
X57868000Y-50165000D02*
X57868000Y-59690000D01*
D69*
%TO.N,I_Usense*%
X82550000Y-95950000D02*
X82550000Y-97155000D01*
X82550000Y-97155000D02*
X83185000Y-97790000D01*
%TO.N,I_Vsense*%
X98298000Y-97028000D02*
X99060000Y-97790000D01*
X98298000Y-95950000D02*
X98298000Y-97028000D01*
D67*
%TO.N,UH*%
X81534000Y-71406000D02*
X82328000Y-70612000D01*
X83132000Y-68830500D02*
X83132000Y-69943000D01*
X81280000Y-73660000D02*
X81280000Y-72644000D01*
X83132000Y-69943000D02*
X82217000Y-70858000D01*
X81280000Y-72644000D02*
X81534000Y-72390000D01*
X81534000Y-72390000D02*
X81534000Y-71406000D01*
%TO.N,UL*%
X79433000Y-68838500D02*
X79433000Y-69951000D01*
X78740000Y-70858000D02*
X78740000Y-73660000D01*
X79433000Y-69951000D02*
X78518000Y-70866000D01*
%TO.N,VH*%
X94020000Y-71001000D02*
X94020000Y-73687500D01*
X94800000Y-69951000D02*
X93885000Y-70866000D01*
X94800000Y-68838500D02*
X94800000Y-69951000D01*
%TO.N,VL*%
X91480000Y-72106000D02*
X91480000Y-73687500D01*
X90240000Y-70866000D02*
X91480000Y-72106000D01*
X91155000Y-69951000D02*
X90240000Y-70866000D01*
X91155000Y-68838500D02*
X91155000Y-69951000D01*
%TO.N,WH*%
X107859750Y-69951000D02*
X106944750Y-70866000D01*
X106720000Y-71090750D02*
X106720000Y-73687500D01*
X107859750Y-68838500D02*
X107859750Y-69951000D01*
X106944750Y-70866000D02*
X106944750Y-71561500D01*
X106944750Y-70866000D02*
X106720000Y-71090750D01*
%TO.N,WL*%
X103287750Y-70866000D02*
X104180000Y-71758250D01*
X104202750Y-69951000D02*
X103287750Y-70866000D01*
X104202750Y-68838500D02*
X104202750Y-69951000D01*
X104180000Y-71758250D02*
X104180000Y-73687500D01*
D69*
%TO.N,Net-(C23-Pad2)*%
X52270871Y-80103129D02*
X52828750Y-79545250D01*
X47411250Y-74040750D02*
X45335750Y-76116250D01*
X44573750Y-73553250D02*
X44573750Y-75354250D01*
X51655129Y-80103129D02*
X52270871Y-80103129D01*
X51092250Y-73703250D02*
X51092250Y-75977382D01*
X44573750Y-75354250D02*
X45335750Y-76116250D01*
D67*
X45335750Y-76232000D02*
X47379000Y-78275250D01*
D69*
X47113750Y-76116250D02*
X45335750Y-76116250D01*
X43865250Y-77586750D02*
X45335750Y-76116250D01*
D67*
X47379000Y-78275250D02*
X48325000Y-78275250D01*
D69*
X42541750Y-77586750D02*
X43865250Y-77586750D01*
X51092250Y-75977382D02*
X48794382Y-78275250D01*
D66*
%TO.N,I_Bsense*%
X56515000Y-94069500D02*
X56604500Y-93980000D01*
X56515000Y-95315000D02*
X56515000Y-94069500D01*
D67*
%TO.N,SR*%
X70358000Y-68834000D02*
X68072000Y-71120000D01*
X68072000Y-71120000D02*
X68072000Y-73687500D01*
X60960000Y-67564000D02*
X64065600Y-70669600D01*
X74673000Y-67402500D02*
X73241500Y-68834000D01*
X65024000Y-74930000D02*
X66829500Y-74930000D01*
X57658000Y-68072000D02*
X58166000Y-67564000D01*
X64065600Y-70669600D02*
X64065600Y-73971600D01*
X73241500Y-68834000D02*
X70358000Y-68834000D01*
X57658000Y-69231500D02*
X57658000Y-68072000D01*
X75626000Y-65121000D02*
X75626000Y-66233500D01*
X66829500Y-74930000D02*
X68072000Y-73687500D01*
X75626000Y-66233500D02*
X74711000Y-67148500D01*
X58166000Y-67564000D02*
X60960000Y-67564000D01*
X64065600Y-73971600D02*
X65024000Y-74930000D01*
X57019750Y-69869750D02*
X57658000Y-69231500D01*
%TO.N,SW*%
X70609000Y-67402500D02*
X65532000Y-72479500D01*
X65532000Y-72479500D02*
X65532000Y-73687500D01*
X71562000Y-66233500D02*
X70647000Y-67148500D01*
X71562000Y-65121000D02*
X71562000Y-66233500D01*
%TO.N,SCL*%
X73660000Y-52705000D02*
X72780000Y-52705000D01*
X75565000Y-50800000D02*
X73660000Y-52705000D01*
%TO.N,SDA*%
X77470000Y-52705000D02*
X76835000Y-53340000D01*
X76835000Y-53340000D02*
X76835000Y-54975000D01*
%TO.N,CS*%
X85725000Y-52705000D02*
X85725000Y-54975000D01*
%TO.N,RX_forbms*%
X91567000Y-51562000D02*
X89907000Y-51562000D01*
%TO.N,TX_forbms*%
X89780000Y-50165000D02*
X88519000Y-50165000D01*
X88519000Y-50165000D02*
X88265000Y-50419000D01*
D66*
%TO.N,Net-(C24-Pad2)*%
X47625000Y-57785000D02*
X49595000Y-57785000D01*
%TO.N,EN*%
X71156000Y-40005000D02*
X72780000Y-40005000D01*
X70013000Y-41148000D02*
X71156000Y-40005000D01*
X66802000Y-41148000D02*
X70013000Y-41148000D01*
X65705305Y-39915000D02*
X66176305Y-40386000D01*
X62802500Y-38640000D02*
X64077500Y-39915000D01*
X64077500Y-39915000D02*
X65705305Y-39915000D01*
X66176305Y-40522305D02*
X66802000Y-41148000D01*
X66176305Y-40386000D02*
X66176305Y-40522305D01*
%TO.N,Net-(C25-Pad2)*%
X47625000Y-62865000D02*
X49595000Y-62865000D01*
%TO.N,Tsense*%
X42418000Y-70596000D02*
X42418000Y-72506000D01*
X47625000Y-60325000D02*
X48895000Y-59055000D01*
D67*
%TO.N,DC*%
X71628000Y-55245500D02*
X71628000Y-55127000D01*
X71628000Y-55127000D02*
X72780000Y-53975000D01*
%TO.N,IO0*%
X92710000Y-53975000D02*
X89780000Y-53975000D01*
X94368052Y-63754000D02*
X92910000Y-62295948D01*
X102668750Y-65659000D02*
X98425000Y-65659000D01*
X98425000Y-65659000D02*
X96520000Y-63754000D01*
X93345000Y-53340000D02*
X92710000Y-53975000D01*
X92910000Y-62295948D02*
X92902948Y-62295948D01*
X110998000Y-41632500D02*
X110212500Y-42418000D01*
X103303750Y-65024000D02*
X103303750Y-66912500D01*
X103303750Y-65024000D02*
X102668750Y-65659000D01*
X93472000Y-42418000D02*
X93345000Y-42545000D01*
X92902948Y-62295948D02*
X90043000Y-59436000D01*
X96520000Y-63754000D02*
X94368052Y-63754000D01*
X90043000Y-59436000D02*
X90043000Y-54238000D01*
X93472000Y-42418000D02*
X110212500Y-42418000D01*
X93345000Y-42545000D02*
X93345000Y-53340000D01*
%TO.N,/3V3to5V1/LIN*%
X88900000Y-60833000D02*
X91694000Y-63627000D01*
X86995000Y-53340000D02*
X86995000Y-54975000D01*
X91694000Y-63627000D02*
X92504000Y-63627000D01*
X92504000Y-63627000D02*
X93901000Y-65024000D01*
X93901000Y-65024000D02*
X93901000Y-66912500D01*
X88900000Y-57150000D02*
X88900000Y-60833000D01*
%TO.N,/3V3to5V2/LIN*%
X106909750Y-64491750D02*
X106909750Y-66963500D01*
X99187000Y-65024000D02*
X101389875Y-65024000D01*
X91694000Y-52832000D02*
X89907000Y-52832000D01*
X96901000Y-62738000D02*
X99187000Y-65024000D01*
X101389875Y-65024000D02*
X102786875Y-63627000D01*
X92583000Y-60274001D02*
X95046999Y-62738000D01*
X106045000Y-63627000D02*
X106909750Y-64491750D01*
X91821000Y-54737000D02*
X92583000Y-55499000D01*
X95046999Y-62738000D02*
X96901000Y-62738000D01*
X92583000Y-55499000D02*
X92583000Y-60274001D01*
X102786875Y-63627000D02*
X106045000Y-63627000D01*
%TO.N,/3V3to5V3/LIN*%
X78534000Y-65024000D02*
X78534000Y-66912500D01*
X78518000Y-61500000D02*
X78518000Y-64540000D01*
X74788000Y-53648000D02*
X74788000Y-57770000D01*
X89780000Y-48895000D02*
X79541000Y-48895000D01*
X79541000Y-48895000D02*
X74788000Y-53648000D01*
X74788000Y-57770000D02*
X78518000Y-61500000D01*
%TO.N,/3V3to5V4/LIN*%
X88138000Y-56896000D02*
X88138000Y-53213000D01*
X88138000Y-53213000D02*
X86741000Y-51816000D01*
X86741000Y-51816000D02*
X86741000Y-50165000D01*
X86741000Y-50165000D02*
X87122000Y-49784000D01*
X82233000Y-65016000D02*
X82233000Y-66904500D01*
X87884000Y-47752000D02*
X89653000Y-47752000D01*
X82328000Y-64532000D02*
X82328000Y-62706000D01*
X82328000Y-62706000D02*
X88138000Y-56896000D01*
%TO.N,/3V3to5V5/LIN*%
X90256000Y-65024000D02*
X90256000Y-63586000D01*
X90256000Y-65024000D02*
X90256000Y-66912500D01*
X90256000Y-63586000D02*
X90170000Y-63500000D01*
X87630000Y-38735000D02*
X89780000Y-38735000D01*
D66*
%TO.N,/3V3to5V6/LIN*%
X67635250Y-50249750D02*
X67635250Y-56720250D01*
X71530000Y-46355000D02*
X67635250Y-50249750D01*
X72780000Y-46355000D02*
X71530000Y-46355000D01*
D67*
X67635250Y-56720250D02*
X65746750Y-56720250D01*
%TO.N,/3V3to5V6/HIN*%
X62708250Y-57619250D02*
X61793250Y-56704250D01*
X63820750Y-57619250D02*
X62708250Y-57619250D01*
X60281000Y-58216500D02*
X60281000Y-61341000D01*
X57487000Y-64135000D02*
X55263000Y-64135000D01*
X61793250Y-56704250D02*
X60281000Y-58216500D01*
X60281000Y-61341000D02*
X57487000Y-64135000D01*
D66*
%TO.N,/3V3to5V7/LIN*%
X71950000Y-47625000D02*
X68660250Y-50914750D01*
D67*
X67647000Y-60595000D02*
X65758500Y-60595000D01*
D66*
X68660250Y-50914750D02*
X68660250Y-59581750D01*
X68660250Y-59581750D02*
X67647000Y-60595000D01*
D67*
%TO.N,/3V3to5V7/HIN*%
X61805000Y-60962999D02*
X57362999Y-65405000D01*
X62720000Y-61494000D02*
X61805000Y-60579000D01*
X57362999Y-65405000D02*
X55263000Y-65405000D01*
X63832500Y-61494000D02*
X62720000Y-61494000D01*
%TO.N,/3V3to5V8/LIN*%
X67647000Y-64516000D02*
X65758500Y-64516000D01*
D66*
X71950000Y-48895000D02*
X69850000Y-50995000D01*
X69850000Y-59436000D02*
X68672000Y-60614000D01*
X67647000Y-63520000D02*
X67647000Y-64516000D01*
X69850000Y-50995000D02*
X69850000Y-59436000D01*
X68672000Y-63183173D02*
X68335173Y-63520000D01*
X68335173Y-63520000D02*
X67647000Y-63520000D01*
X68672000Y-60614000D02*
X68672000Y-63183173D01*
D67*
%TO.N,/3V3to5V8/HIN*%
X62720000Y-65415000D02*
X61805000Y-64500000D01*
X60043000Y-64500000D02*
X57868000Y-66675000D01*
X63832500Y-65415000D02*
X62720000Y-65415000D01*
X57868000Y-66675000D02*
X55263000Y-66675000D01*
X61805000Y-64500000D02*
X60043000Y-64500000D01*
D66*
%TO.N,Net-(C40-Pad1)*%
X69596000Y-85322500D02*
X67935000Y-83661500D01*
X67621751Y-82804000D02*
X66421000Y-82804000D01*
X66421000Y-82804000D02*
X66040000Y-83185000D01*
X67935000Y-83661500D02*
X67935000Y-83117249D01*
X67935000Y-83117249D02*
X67621751Y-82804000D01*
%TO.N,Net-(C42-Pad2)*%
X60437500Y-40640000D02*
X58420000Y-40640000D01*
X55880000Y-40640000D02*
X58420000Y-40640000D01*
X60977500Y-41180000D02*
X60437500Y-40640000D01*
X52660000Y-40640000D02*
X55880000Y-40640000D01*
X60977500Y-38640000D02*
X60977500Y-41180000D01*
X61055000Y-38640000D02*
X62960000Y-36735000D01*
D69*
%TO.N,Net-(D1-Pad2)*%
X99378000Y-81099000D02*
X99060000Y-81417000D01*
X86400000Y-76668000D02*
X86400000Y-78192000D01*
X99378000Y-76010000D02*
X99378000Y-81099000D01*
X110208500Y-76010000D02*
X99378000Y-76010000D01*
X99060000Y-81417000D02*
X99060000Y-83094500D01*
X86400000Y-78192000D02*
X86400000Y-83091000D01*
X116078000Y-74422000D02*
X112739500Y-74422000D01*
X112268000Y-73950500D02*
X110208500Y-76010000D01*
X99378000Y-76010000D02*
X86400000Y-76010000D01*
X86400000Y-76010000D02*
X86400000Y-76668000D01*
%TO.N,Net-(D8-Pad1)*%
X44853750Y-71503250D02*
X46605750Y-69751250D01*
%TO.N,Net-(D9-Pad1)*%
X55194750Y-69869750D02*
X57019750Y-71694750D01*
X59202250Y-69512250D02*
X57019750Y-71694750D01*
D68*
%TO.N,Net-(D10-Pad1)*%
X94615000Y-48505000D02*
X94615000Y-46990000D01*
%TO.N,Net-(D11-Pad1)*%
X94615000Y-58665000D02*
X94615000Y-57427500D01*
D67*
%TO.N,Net-(Q1-Pad1)*%
X82249000Y-86614000D02*
X80518000Y-86614000D01*
D69*
%TO.N,Net-(Q7-Pad3)*%
X47803750Y-71576250D02*
X48716250Y-70663750D01*
X46605750Y-71576250D02*
X47803750Y-71576250D01*
D66*
%TO.N,Net-(R3-Pad2)*%
X71191755Y-42616755D02*
X72708245Y-42616755D01*
D67*
%TO.N,Net-(R8-Pad1)*%
X81280000Y-81280000D02*
X82211966Y-81280000D01*
X82211966Y-81280000D02*
X83308000Y-82376034D01*
X83308000Y-85340000D02*
X84455000Y-86487000D01*
X83308000Y-82376034D02*
X83308000Y-85340000D01*
%TO.N,Net-(R10-Pad1)*%
X76200000Y-81280000D02*
X76200000Y-83161500D01*
D66*
%TO.N,Net-(R12-Pad1)*%
X69332156Y-43815000D02*
X72780000Y-43815000D01*
X69308469Y-43791313D02*
X69332156Y-43815000D01*
%TO.N,Net-(R12-Pad2)*%
X47380305Y-61595000D02*
X48650305Y-60325000D01*
X46355000Y-55880000D02*
X46355000Y-61595000D01*
X46355000Y-61595000D02*
X47380305Y-61595000D01*
X48650305Y-60325000D02*
X49595000Y-60325000D01*
D67*
%TO.N,Net-(Q3-Pad1)*%
X76200000Y-84986500D02*
X76200000Y-85598000D01*
X76200000Y-85598000D02*
X75692000Y-86106000D01*
%TO.N,Net-(R14-Pad1)*%
X95986500Y-84937500D02*
X96382000Y-85333000D01*
X95986500Y-83274000D02*
X95986500Y-84937500D01*
X96382000Y-85817500D02*
X96924500Y-86360000D01*
X96382000Y-85333000D02*
X96382000Y-85817500D01*
X94020000Y-81307500D02*
X95986500Y-83274000D01*
D66*
%TO.N,Net-(R2-Pad2)*%
X71120000Y-41275000D02*
X72780000Y-41275000D01*
X70485000Y-41910000D02*
X71120000Y-41275000D01*
%TO.N,Net-(R16-Pad1)*%
X74105000Y-41973000D02*
X74105000Y-44590000D01*
X74422000Y-41656000D02*
X74105000Y-41973000D01*
X74105000Y-44590000D02*
X73610000Y-45085000D01*
D67*
%TO.N,Net-(R19-Pad1)*%
X88940000Y-81307500D02*
X88940000Y-83145000D01*
%TO.N,Net-(R26-Pad1)*%
X106720000Y-81307500D02*
X107651966Y-81307500D01*
X108462000Y-82117534D02*
X108462000Y-85705500D01*
X108462000Y-85705500D02*
X109116500Y-86360000D01*
X107651966Y-81307500D02*
X108462000Y-82117534D01*
%TO.N,Net-(J17-Pad2)*%
X96266000Y-38354000D02*
X92075000Y-42545000D01*
X92075000Y-42545000D02*
X89780000Y-42545000D01*
%TO.N,/3V3to5V10/LIN*%
X71755000Y-50165000D02*
X72780000Y-50165000D01*
X70302000Y-51618000D02*
X71755000Y-50165000D01*
X70901000Y-57550500D02*
X70901000Y-52867000D01*
X74657000Y-61306500D02*
X70901000Y-57550500D01*
X70901000Y-52867000D02*
X70302000Y-52268000D01*
X70302000Y-52268000D02*
X70302000Y-51618000D01*
X74727000Y-61306500D02*
X74727000Y-63195000D01*
%TO.N,/3V3to5V9/LIN*%
X72780000Y-51435000D02*
X71755000Y-51435000D01*
X70612000Y-59690000D02*
X70612000Y-61287500D01*
X70663000Y-61306500D02*
X70663000Y-63195000D01*
X71755000Y-51435000D02*
X71125714Y-52064286D01*
D69*
%TO.N,GNDPWR*%
X49647750Y-69713750D02*
X49022000Y-69088000D01*
X50591250Y-69713750D02*
X49647750Y-69713750D01*
X50591250Y-69713750D02*
X52924750Y-69713750D01*
D67*
%TO.N,Net-(C10-Pad2)*%
X79711966Y-81307500D02*
X78780000Y-81307500D01*
X82253000Y-83848534D02*
X79711966Y-81307500D01*
%TO.N,Net-(C12-Pad1)*%
X56722134Y-93069500D02*
X57785000Y-94132366D01*
X51943000Y-93069500D02*
X56722134Y-93069500D01*
X57785000Y-94132366D02*
X57785000Y-95315000D01*
%TO.N,Net-(C20-Pad2)*%
X93726000Y-85598000D02*
X94847500Y-84476500D01*
X94847500Y-83185000D02*
X94008000Y-82345500D01*
X94008000Y-82345500D02*
X92518000Y-82345500D01*
X92518000Y-82345500D02*
X91480000Y-81307500D01*
X94847500Y-84476500D02*
X94847500Y-83185000D01*
D69*
%TO.N,Net-(C22-Pad1)*%
X56765750Y-77132250D02*
X60289750Y-80656250D01*
X56533250Y-73830250D02*
X56533250Y-76423750D01*
%TO.N,Net-(C22-Pad2)*%
X52917250Y-75422382D02*
X52917250Y-73703250D01*
X52917250Y-73703250D02*
X54331250Y-73703250D01*
X48794382Y-79545250D02*
X52917250Y-75422382D01*
D66*
%TO.N,Net-(C26-Pad1)*%
X99568000Y-97198000D02*
X102235000Y-99865000D01*
X99568000Y-95950000D02*
X99568000Y-97198000D01*
D69*
%TO.N,Net-(C29-Pad2)*%
X49486250Y-73703250D02*
X49486250Y-75844000D01*
X49486250Y-75844000D02*
X48325000Y-77005250D01*
%TO.N,Net-(C31-Pad1)*%
X50591250Y-71613750D02*
X52749750Y-71613750D01*
X58645250Y-72597750D02*
X55890750Y-72597750D01*
X52955750Y-71819750D02*
X54862750Y-71819750D01*
X55890750Y-72597750D02*
X54987750Y-71694750D01*
X59559750Y-73512250D02*
X58645250Y-72597750D01*
D67*
%TO.N,Net-(C32-Pad2)*%
X107547500Y-83185000D02*
X106708000Y-82345500D01*
X106708000Y-82345500D02*
X105218000Y-82345500D01*
X105218000Y-82345500D02*
X104180000Y-81307500D01*
%TO.N,Net-(C41-Pad2)*%
X98750500Y-40635000D02*
X110231000Y-40635000D01*
X110998000Y-38100000D02*
X110998000Y-39807500D01*
X98237500Y-41148000D02*
X98750500Y-40635000D01*
X110170500Y-40635000D02*
X110998000Y-39807500D01*
%TO.N,Net-(R29-Pad1)*%
X101640000Y-81307500D02*
X101640000Y-83145000D01*
%TD*%
%TA.AperFunction,Conductor*%
%TO.N,Vs*%
G36*
X51821121Y-102509002D02*
G01*
X51867614Y-102562658D01*
X51879000Y-102615000D01*
X51879000Y-104553134D01*
X51885755Y-104615316D01*
X51936885Y-104751705D01*
X52024239Y-104868261D01*
X52140795Y-104955615D01*
X52277184Y-105006745D01*
X52339366Y-105013500D01*
X54340634Y-105013500D01*
X54402816Y-105006745D01*
X54539205Y-104955615D01*
X54655761Y-104868261D01*
X54713579Y-104791115D01*
X54731593Y-104767079D01*
X54788452Y-104724564D01*
X54859271Y-104719538D01*
X54904689Y-104739431D01*
X54941442Y-104765166D01*
X54979224Y-104789236D01*
X54998235Y-104800212D01*
X55037969Y-104820896D01*
X55218627Y-104905139D01*
X55260023Y-104922286D01*
X55261284Y-104922745D01*
X55261297Y-104922750D01*
X55279393Y-104929336D01*
X55279402Y-104929339D01*
X55280663Y-104929798D01*
X55323379Y-104943266D01*
X55412948Y-104967266D01*
X55514592Y-104994502D01*
X55514605Y-104994505D01*
X55515918Y-104994857D01*
X55517239Y-104995150D01*
X55517256Y-104995154D01*
X55541281Y-105000480D01*
X55559670Y-105004556D01*
X55570504Y-105006466D01*
X55579912Y-105008125D01*
X55579933Y-105008128D01*
X55581293Y-105008368D01*
X55582668Y-105008549D01*
X55582681Y-105008551D01*
X55617216Y-105013097D01*
X55625690Y-105014212D01*
X55764091Y-105026321D01*
X55822913Y-105031467D01*
X55822922Y-105031468D01*
X55824264Y-105031585D01*
X55825616Y-105031644D01*
X55825631Y-105031645D01*
X55867642Y-105033479D01*
X55867647Y-105033479D01*
X55869019Y-105033539D01*
X55890981Y-105033539D01*
X55892353Y-105033479D01*
X55892358Y-105033479D01*
X55934369Y-105031645D01*
X55934384Y-105031644D01*
X55935736Y-105031585D01*
X55937078Y-105031468D01*
X55937087Y-105031467D01*
X55995909Y-105026321D01*
X56134310Y-105014212D01*
X56142784Y-105013097D01*
X56177319Y-105008551D01*
X56177332Y-105008549D01*
X56178707Y-105008368D01*
X56180067Y-105008128D01*
X56180088Y-105008125D01*
X56189496Y-105006466D01*
X56200330Y-105004556D01*
X56218719Y-105000480D01*
X56242744Y-104995154D01*
X56242761Y-104995150D01*
X56244082Y-104994857D01*
X56245395Y-104994505D01*
X56245408Y-104994502D01*
X56347052Y-104967266D01*
X56436621Y-104943266D01*
X56479337Y-104929798D01*
X56480598Y-104929339D01*
X56480607Y-104929336D01*
X56498703Y-104922750D01*
X56498716Y-104922745D01*
X56499977Y-104922286D01*
X56541373Y-104905139D01*
X56722031Y-104820896D01*
X56761765Y-104800212D01*
X56780776Y-104789236D01*
X56818558Y-104765166D01*
X56819700Y-104764367D01*
X56939726Y-104680323D01*
X56981846Y-104650830D01*
X56982930Y-104649998D01*
X56982948Y-104649985D01*
X57016312Y-104624382D01*
X57017399Y-104623548D01*
X57034223Y-104609430D01*
X57044496Y-104600017D01*
X57066205Y-104580123D01*
X57066212Y-104580116D01*
X57067237Y-104579177D01*
X57208177Y-104438237D01*
X57209123Y-104437205D01*
X57237504Y-104406234D01*
X57237514Y-104406223D01*
X57238430Y-104405223D01*
X57252548Y-104388399D01*
X57258483Y-104380665D01*
X57278984Y-104353949D01*
X57278997Y-104353931D01*
X57279829Y-104352847D01*
X57380318Y-104209335D01*
X57417970Y-104146442D01*
X57434157Y-104114417D01*
X57462473Y-104046793D01*
X57488971Y-103903058D01*
X57491775Y-103832117D01*
X57489944Y-103814444D01*
X57484477Y-103761705D01*
X57484648Y-103749928D01*
X57485451Y-103749862D01*
X57472924Y-103597490D01*
X57472500Y-103587166D01*
X57472500Y-103413009D01*
X57473213Y-103399620D01*
X57484967Y-103289635D01*
X57488837Y-103269352D01*
X57524935Y-103139188D01*
X57532064Y-103119810D01*
X57570038Y-103038000D01*
X57604056Y-102964715D01*
X57639713Y-102859215D01*
X57651425Y-102806165D01*
X57654513Y-102777860D01*
X57663129Y-102698866D01*
X57663129Y-102698865D01*
X57663500Y-102695464D01*
X57663500Y-102615000D01*
X57683502Y-102546879D01*
X57737158Y-102500386D01*
X57789500Y-102489000D01*
X58292325Y-102489000D01*
X58321308Y-102492379D01*
X58338718Y-102496494D01*
X58450559Y-102510225D01*
X58499129Y-102510819D01*
X58519675Y-102512761D01*
X58602423Y-102527501D01*
X58652666Y-102536451D01*
X58672628Y-102541725D01*
X58812291Y-102591182D01*
X58844382Y-102602546D01*
X58849399Y-102604444D01*
X58912533Y-102629902D01*
X58970905Y-102645568D01*
X58974684Y-102646105D01*
X58974690Y-102646106D01*
X59072433Y-102659989D01*
X59093741Y-102663016D01*
X59137123Y-102663884D01*
X59408264Y-102669307D01*
X59475971Y-102690668D01*
X59521381Y-102745242D01*
X59530078Y-102815704D01*
X59527454Y-102827880D01*
X59485624Y-102983991D01*
X59476055Y-103045803D01*
X59490143Y-103190778D01*
X59544353Y-103325971D01*
X59634329Y-103440515D01*
X59752837Y-103525203D01*
X59811152Y-103547822D01*
X59814435Y-103548702D01*
X59814439Y-103548703D01*
X61470925Y-103992557D01*
X61835991Y-104090376D01*
X61897803Y-104099945D01*
X62042778Y-104085857D01*
X62124650Y-104053028D01*
X62169639Y-104034988D01*
X62177971Y-104031647D01*
X62292515Y-103941671D01*
X62377203Y-103823163D01*
X62399822Y-103764848D01*
X62403838Y-103749862D01*
X62660211Y-102793061D01*
X62677612Y-102728121D01*
X62714564Y-102667498D01*
X62770227Y-102638136D01*
X62785578Y-102634494D01*
X62803118Y-102629656D01*
X62838481Y-102618513D01*
X62839528Y-102618141D01*
X62839549Y-102618134D01*
X63092353Y-102528322D01*
X63092352Y-102528322D01*
X63093448Y-102527933D01*
X63113227Y-102520091D01*
X63126837Y-102514695D01*
X63126849Y-102514690D01*
X63127931Y-102514261D01*
X63138085Y-102509804D01*
X63143570Y-102507397D01*
X63143589Y-102507388D01*
X63144592Y-102506948D01*
X63155816Y-102501529D01*
X63210592Y-102489000D01*
X66575499Y-102489000D01*
X66584487Y-102489321D01*
X66627245Y-102492379D01*
X66855650Y-102508715D01*
X66873433Y-102511272D01*
X67134658Y-102568098D01*
X67151900Y-102573160D01*
X67402393Y-102666589D01*
X67418738Y-102674054D01*
X67464178Y-102698866D01*
X67653375Y-102802176D01*
X67668498Y-102811895D01*
X67882510Y-102972103D01*
X67896096Y-102983876D01*
X68085124Y-103172904D01*
X68096897Y-103186490D01*
X68257105Y-103400502D01*
X68266824Y-103415625D01*
X68394945Y-103650260D01*
X68402411Y-103666607D01*
X68473478Y-103857145D01*
X68495839Y-103917097D01*
X68500902Y-103934342D01*
X68557728Y-104195567D01*
X68560285Y-104213350D01*
X68576147Y-104435129D01*
X68579679Y-104484513D01*
X68580000Y-104493501D01*
X68580000Y-108199500D01*
X68559998Y-108267621D01*
X68506342Y-108314114D01*
X68454000Y-108325500D01*
X68262000Y-108325500D01*
X68193879Y-108305498D01*
X68147386Y-108251842D01*
X68136000Y-108199500D01*
X68136000Y-107831866D01*
X68129245Y-107769684D01*
X68078115Y-107633295D01*
X67990761Y-107516739D01*
X67874205Y-107429385D01*
X67737816Y-107378255D01*
X67675634Y-107371500D01*
X65674366Y-107371500D01*
X65612184Y-107378255D01*
X65475795Y-107429385D01*
X65359239Y-107516739D01*
X65271885Y-107633295D01*
X65220755Y-107769684D01*
X65214000Y-107831866D01*
X65214000Y-109390396D01*
X65193998Y-109458517D01*
X65140342Y-109505010D01*
X65102531Y-109514690D01*
X65100399Y-109514541D01*
X65091597Y-109516469D01*
X65091596Y-109516469D01*
X64962026Y-109544850D01*
X64962023Y-109544851D01*
X64957626Y-109545814D01*
X64891144Y-109570719D01*
X64762967Y-109640947D01*
X64649922Y-109725824D01*
X64632459Y-109736821D01*
X64512625Y-109799203D01*
X64493595Y-109807202D01*
X64457852Y-109818885D01*
X64365189Y-109849171D01*
X64345104Y-109853956D01*
X64319649Y-109857851D01*
X64211559Y-109874391D01*
X64190971Y-109875832D01*
X64119891Y-109874963D01*
X64055873Y-109874181D01*
X64035317Y-109872237D01*
X63902335Y-109848549D01*
X63882372Y-109843275D01*
X63755017Y-109798177D01*
X63736182Y-109789712D01*
X63691720Y-109765167D01*
X63617920Y-109724427D01*
X63600722Y-109713001D01*
X63494705Y-109629274D01*
X63479604Y-109615192D01*
X63388681Y-109515270D01*
X63376082Y-109498910D01*
X63349951Y-109458517D01*
X63302707Y-109385489D01*
X63292952Y-109367297D01*
X63239079Y-109243398D01*
X63232425Y-109223850D01*
X63199515Y-109092828D01*
X63196143Y-109072457D01*
X63187500Y-108967332D01*
X63188120Y-108967281D01*
X63187558Y-108964993D01*
X63187500Y-108964999D01*
X63187454Y-108964571D01*
X63187454Y-108964570D01*
X63186853Y-108958977D01*
X63186556Y-108955846D01*
X63185773Y-108946327D01*
X63189941Y-108945984D01*
X63189932Y-108945873D01*
X63185495Y-108946350D01*
X63175766Y-108855851D01*
X63175048Y-108852550D01*
X63165094Y-108806790D01*
X63165093Y-108806785D01*
X63164380Y-108803509D01*
X63129710Y-108699343D01*
X63050692Y-108576388D01*
X63047743Y-108572985D01*
X63045662Y-108570205D01*
X63024323Y-108525388D01*
X62984053Y-108365068D01*
X62984053Y-108365067D01*
X62982794Y-108360056D01*
X62898999Y-108167339D01*
X62889057Y-108144474D01*
X62889055Y-108144471D01*
X62886997Y-108139737D01*
X62756502Y-107938023D01*
X62594814Y-107760330D01*
X62517983Y-107699653D01*
X62410330Y-107614633D01*
X62410325Y-107614630D01*
X62406276Y-107611432D01*
X62401760Y-107608939D01*
X62401757Y-107608937D01*
X62200474Y-107497823D01*
X62200470Y-107497821D01*
X62195950Y-107495326D01*
X62191081Y-107493602D01*
X62191077Y-107493600D01*
X61974360Y-107416856D01*
X61974356Y-107416855D01*
X61969485Y-107415130D01*
X61964392Y-107414223D01*
X61964389Y-107414222D01*
X61738052Y-107373905D01*
X61738046Y-107373904D01*
X61732963Y-107372999D01*
X61640474Y-107371869D01*
X61497907Y-107370127D01*
X61497905Y-107370127D01*
X61492737Y-107370064D01*
X61255256Y-107406404D01*
X61143003Y-107443094D01*
X61031817Y-107479434D01*
X61031811Y-107479437D01*
X61026899Y-107481042D01*
X61022313Y-107483429D01*
X61022309Y-107483431D01*
X60886595Y-107554080D01*
X60813800Y-107591975D01*
X60621680Y-107736223D01*
X60455699Y-107909912D01*
X60320314Y-108108378D01*
X60318140Y-108113061D01*
X60318138Y-108113065D01*
X60253392Y-108252550D01*
X60206568Y-108305917D01*
X60139104Y-108325500D01*
X60105173Y-108325500D01*
X60039338Y-108306932D01*
X59964050Y-108260795D01*
X59964039Y-108260789D01*
X59959820Y-108258204D01*
X59955250Y-108256311D01*
X59955246Y-108256309D01*
X59745024Y-108169233D01*
X59745022Y-108169232D01*
X59740451Y-108167339D01*
X59645211Y-108144474D01*
X59514381Y-108113064D01*
X59514375Y-108113063D01*
X59509568Y-108111909D01*
X59272857Y-108093279D01*
X59036146Y-108111909D01*
X59031339Y-108113063D01*
X59031333Y-108113064D01*
X58900503Y-108144474D01*
X58805263Y-108167339D01*
X58800692Y-108169232D01*
X58800690Y-108169233D01*
X58590468Y-108256309D01*
X58590464Y-108256311D01*
X58585894Y-108258204D01*
X58581675Y-108260789D01*
X58581664Y-108260795D01*
X58506376Y-108306932D01*
X58440541Y-108325500D01*
X50819729Y-108325500D01*
X50751608Y-108305498D01*
X50705115Y-108251842D01*
X50693729Y-108199500D01*
X50693729Y-107990000D01*
X50688500Y-107916889D01*
X50647304Y-107776589D01*
X50619367Y-107733118D01*
X50573122Y-107661159D01*
X50573120Y-107661156D01*
X50568250Y-107653579D01*
X50561440Y-107647678D01*
X50464555Y-107563726D01*
X50464552Y-107563724D01*
X50457743Y-107557824D01*
X50324734Y-107497081D01*
X50180000Y-107476271D01*
X45907010Y-107476271D01*
X45869865Y-107470671D01*
X45567545Y-107377402D01*
X44525347Y-107055873D01*
X44515923Y-107052551D01*
X44276004Y-106957080D01*
X44258063Y-106948231D01*
X44040626Y-106818583D01*
X44024310Y-106807006D01*
X43830121Y-106644566D01*
X43815847Y-106630556D01*
X43649818Y-106439432D01*
X43637938Y-106423334D01*
X43504256Y-106208345D01*
X43495074Y-106190571D01*
X43397103Y-105957130D01*
X43390850Y-105938127D01*
X43331061Y-105692120D01*
X43327895Y-105672366D01*
X43307398Y-105414997D01*
X43307000Y-105404994D01*
X43307000Y-104445434D01*
X43307351Y-104436040D01*
X43309579Y-104406234D01*
X43328532Y-104152736D01*
X43331324Y-104134162D01*
X43341176Y-104090896D01*
X43394399Y-103857145D01*
X43396827Y-103848063D01*
X43559316Y-103319973D01*
X43563176Y-103309197D01*
X43637216Y-103128757D01*
X43647782Y-103108474D01*
X43750111Y-102949224D01*
X43764169Y-102931186D01*
X43893593Y-102793061D01*
X43910681Y-102777860D01*
X44062946Y-102665402D01*
X44082498Y-102653541D01*
X44252583Y-102570457D01*
X44273959Y-102562325D01*
X44425009Y-102520091D01*
X44456256Y-102511355D01*
X44478748Y-102507221D01*
X44672987Y-102489520D01*
X44684422Y-102489000D01*
X51753000Y-102489000D01*
X51821121Y-102509002D01*
G37*
%TD.AperFunction*%
%TD*%
%TA.AperFunction,Conductor*%
%TO.N,+3V3*%
G36*
X97202621Y-44053502D02*
G01*
X97249114Y-44107158D01*
X97260500Y-44159500D01*
X97260500Y-45649101D01*
X97264473Y-45662632D01*
X97271299Y-45663613D01*
X97406784Y-45618412D01*
X97419962Y-45612239D01*
X97557807Y-45526937D01*
X97569208Y-45517901D01*
X97683738Y-45403172D01*
X97690794Y-45394238D01*
X97748712Y-45353177D01*
X97819635Y-45349947D01*
X97881046Y-45385574D01*
X97887846Y-45393407D01*
X97891522Y-45399348D01*
X98016697Y-45524305D01*
X98022927Y-45528145D01*
X98022928Y-45528146D01*
X98160288Y-45612816D01*
X98167262Y-45617115D01*
X98209200Y-45631025D01*
X98328611Y-45670632D01*
X98328613Y-45670632D01*
X98335139Y-45672797D01*
X98341975Y-45673497D01*
X98341978Y-45673498D01*
X98385031Y-45677909D01*
X98439600Y-45683500D01*
X99215400Y-45683500D01*
X99218646Y-45683163D01*
X99218650Y-45683163D01*
X99314308Y-45673238D01*
X99314312Y-45673237D01*
X99321166Y-45672526D01*
X99327702Y-45670345D01*
X99327704Y-45670345D01*
X99468528Y-45623362D01*
X99488946Y-45616550D01*
X99639348Y-45523478D01*
X99764305Y-45398303D01*
X99857115Y-45247738D01*
X99859395Y-45240863D01*
X99906290Y-45187601D01*
X99930573Y-45175697D01*
X99940623Y-45172049D01*
X99944706Y-45170647D01*
X100014575Y-45148013D01*
X100020838Y-45144213D01*
X100026380Y-45141675D01*
X100031856Y-45138933D01*
X100038741Y-45136434D01*
X100100132Y-45096185D01*
X100103800Y-45093870D01*
X100166581Y-45055773D01*
X100170786Y-45052059D01*
X100170789Y-45052057D01*
X100175005Y-45048333D01*
X100175031Y-45048362D01*
X100177962Y-45045762D01*
X100181316Y-45042958D01*
X100187435Y-45038946D01*
X100240989Y-44982413D01*
X100243366Y-44979972D01*
X100521405Y-44701933D01*
X100583717Y-44667907D01*
X100654532Y-44672972D01*
X100711368Y-44715519D01*
X100736179Y-44782039D01*
X100736500Y-44791028D01*
X100736500Y-44975400D01*
X100736837Y-44978646D01*
X100736837Y-44978650D01*
X100746141Y-45068314D01*
X100747474Y-45081166D01*
X100749655Y-45087702D01*
X100749655Y-45087704D01*
X100777798Y-45172059D01*
X100803450Y-45248946D01*
X100896522Y-45399348D01*
X101021697Y-45524305D01*
X101023366Y-45525334D01*
X101063155Y-45581456D01*
X101069550Y-45619728D01*
X101069788Y-45619714D01*
X101069916Y-45621916D01*
X101070000Y-45622419D01*
X101070000Y-45627025D01*
X101073311Y-45655424D01*
X101073738Y-45659744D01*
X101079691Y-45732926D01*
X101081947Y-45739888D01*
X101083143Y-45745876D01*
X101084551Y-45751833D01*
X101085399Y-45759107D01*
X101087897Y-45765989D01*
X101087898Y-45765993D01*
X101110445Y-45828107D01*
X101111855Y-45832211D01*
X101134487Y-45902075D01*
X101138287Y-45908338D01*
X101140825Y-45913880D01*
X101143567Y-45919356D01*
X101146066Y-45926241D01*
X101150081Y-45932365D01*
X101186315Y-45987632D01*
X101188630Y-45991300D01*
X101226727Y-46054081D01*
X101230441Y-46058286D01*
X101230443Y-46058289D01*
X101234167Y-46062505D01*
X101234138Y-46062531D01*
X101236738Y-46065462D01*
X101239542Y-46068816D01*
X101243554Y-46074935D01*
X101248866Y-46079967D01*
X101300086Y-46128488D01*
X101302528Y-46130866D01*
X101934595Y-46762933D01*
X101968621Y-46825245D01*
X101971500Y-46852028D01*
X101971500Y-48028134D01*
X101978255Y-48090316D01*
X102029385Y-48226705D01*
X102034771Y-48233891D01*
X102087953Y-48304852D01*
X102112801Y-48371358D01*
X102097748Y-48440741D01*
X102087953Y-48455982D01*
X102035214Y-48526352D01*
X102026676Y-48541946D01*
X101981522Y-48662394D01*
X101977895Y-48677649D01*
X101972369Y-48728514D01*
X101972000Y-48735328D01*
X101972000Y-49003885D01*
X101976475Y-49019124D01*
X101977865Y-49020329D01*
X101985548Y-49022000D01*
X103862000Y-49022000D01*
X103930121Y-49042002D01*
X103976614Y-49095658D01*
X103988000Y-49148000D01*
X103988000Y-49912000D01*
X103967998Y-49980121D01*
X103914342Y-50026614D01*
X103862000Y-50038000D01*
X101990116Y-50038000D01*
X101974877Y-50042475D01*
X101973672Y-50043865D01*
X101972001Y-50051548D01*
X101972001Y-50324669D01*
X101972371Y-50331490D01*
X101977895Y-50382354D01*
X101982943Y-50403587D01*
X101979240Y-50474487D01*
X101937792Y-50532129D01*
X101871761Y-50558213D01*
X101834165Y-50555977D01*
X101779543Y-50544367D01*
X101701944Y-50527872D01*
X101701939Y-50527872D01*
X101695487Y-50526500D01*
X101504513Y-50526500D01*
X101498061Y-50527872D01*
X101498056Y-50527872D01*
X101411113Y-50546353D01*
X101317712Y-50566206D01*
X101311682Y-50568891D01*
X101311681Y-50568891D01*
X101149278Y-50641197D01*
X101149276Y-50641198D01*
X101143248Y-50643882D01*
X100988747Y-50756134D01*
X100984326Y-50761044D01*
X100984325Y-50761045D01*
X100892081Y-50863493D01*
X100860960Y-50898056D01*
X100765473Y-51063444D01*
X100706458Y-51245072D01*
X100686496Y-51435000D01*
X100687186Y-51441564D01*
X100702818Y-51590293D01*
X100690046Y-51660132D01*
X100666603Y-51692559D01*
X99564067Y-52795095D01*
X99501755Y-52829121D01*
X99474972Y-52832000D01*
X97849199Y-52832000D01*
X97781078Y-52811998D01*
X97755563Y-52790310D01*
X97643675Y-52666045D01*
X97643674Y-52666044D01*
X97639253Y-52661134D01*
X97484752Y-52548882D01*
X97478724Y-52546198D01*
X97478722Y-52546197D01*
X97316319Y-52473891D01*
X97316318Y-52473891D01*
X97310288Y-52471206D01*
X97216887Y-52451353D01*
X97129944Y-52432872D01*
X97129939Y-52432872D01*
X97123487Y-52431500D01*
X96932513Y-52431500D01*
X96926061Y-52432872D01*
X96926056Y-52432872D01*
X96839113Y-52451353D01*
X96745712Y-52471206D01*
X96739682Y-52473891D01*
X96739681Y-52473891D01*
X96577278Y-52546197D01*
X96577276Y-52546198D01*
X96571248Y-52548882D01*
X96416747Y-52661134D01*
X96412326Y-52666044D01*
X96412325Y-52666045D01*
X96300437Y-52790310D01*
X96239991Y-52827550D01*
X96206801Y-52832000D01*
X95476501Y-52832000D01*
X95467513Y-52831679D01*
X95409780Y-52827550D01*
X95196350Y-52812285D01*
X95178567Y-52809728D01*
X94917342Y-52752902D01*
X94900100Y-52747840D01*
X94649607Y-52654411D01*
X94633260Y-52646945D01*
X94398625Y-52518824D01*
X94383502Y-52509105D01*
X94169490Y-52348897D01*
X94155904Y-52337124D01*
X94017405Y-52198625D01*
X93983379Y-52136313D01*
X93980500Y-52109530D01*
X93980500Y-51760271D01*
X94000502Y-51692150D01*
X94054158Y-51645657D01*
X94083509Y-51636386D01*
X94103676Y-51632643D01*
X94107000Y-51620408D01*
X94107000Y-50173000D01*
X94127002Y-50104879D01*
X94180658Y-50058386D01*
X94233000Y-50047000D01*
X94997000Y-50047000D01*
X95065121Y-50067002D01*
X95111614Y-50120658D01*
X95123000Y-50173000D01*
X95123000Y-51619092D01*
X95127204Y-51633409D01*
X95139761Y-51635468D01*
X95214205Y-51627744D01*
X95227602Y-51624851D01*
X95381784Y-51573412D01*
X95394962Y-51567238D01*
X95503096Y-51500323D01*
X95571548Y-51481485D01*
X95639317Y-51502646D01*
X95687381Y-51563237D01*
X95726676Y-51668054D01*
X95735214Y-51683649D01*
X95811715Y-51785724D01*
X95824276Y-51798285D01*
X95926351Y-51874786D01*
X95941946Y-51883324D01*
X96062394Y-51928478D01*
X96077649Y-51932105D01*
X96128514Y-51937631D01*
X96135328Y-51938000D01*
X96653885Y-51938000D01*
X96669124Y-51933525D01*
X96670329Y-51932135D01*
X96672000Y-51924452D01*
X96672000Y-51919884D01*
X97688000Y-51919884D01*
X97692475Y-51935123D01*
X97693865Y-51936328D01*
X97701548Y-51937999D01*
X98224669Y-51937999D01*
X98231490Y-51937629D01*
X98282352Y-51932105D01*
X98297604Y-51928479D01*
X98418054Y-51883324D01*
X98433649Y-51874786D01*
X98535724Y-51798285D01*
X98548285Y-51785724D01*
X98624786Y-51683649D01*
X98633324Y-51668054D01*
X98678478Y-51547606D01*
X98682105Y-51532351D01*
X98687631Y-51481485D01*
X98688000Y-51474672D01*
X98688000Y-50056115D01*
X98683525Y-50040876D01*
X98682135Y-50039671D01*
X98674452Y-50038000D01*
X97706115Y-50038000D01*
X97690876Y-50042475D01*
X97689671Y-50043865D01*
X97688000Y-50051548D01*
X97688000Y-51919884D01*
X96672000Y-51919884D01*
X96672000Y-49003885D01*
X97688000Y-49003885D01*
X97692475Y-49019124D01*
X97693865Y-49020329D01*
X97701548Y-49022000D01*
X98669884Y-49022000D01*
X98685123Y-49017525D01*
X98686328Y-49016135D01*
X98687999Y-49008452D01*
X98687999Y-47585331D01*
X98687629Y-47578510D01*
X98682105Y-47527648D01*
X98678479Y-47512396D01*
X98633324Y-47391946D01*
X98624786Y-47376351D01*
X98548285Y-47274276D01*
X98535724Y-47261715D01*
X98433649Y-47185214D01*
X98418054Y-47176676D01*
X98297606Y-47131522D01*
X98282351Y-47127895D01*
X98231486Y-47122369D01*
X98224672Y-47122000D01*
X97706115Y-47122000D01*
X97690876Y-47126475D01*
X97689671Y-47127865D01*
X97688000Y-47135548D01*
X97688000Y-49003885D01*
X96672000Y-49003885D01*
X96672000Y-47140116D01*
X96667525Y-47124877D01*
X96666135Y-47123672D01*
X96658452Y-47122001D01*
X96135331Y-47122001D01*
X96128509Y-47122371D01*
X96084983Y-47127098D01*
X96015101Y-47114569D01*
X95963086Y-47066247D01*
X95945453Y-46997475D01*
X95946034Y-46988994D01*
X95950172Y-46948603D01*
X95950172Y-46948600D01*
X95950500Y-46945400D01*
X95950500Y-46319600D01*
X95939526Y-46213834D01*
X95883550Y-46046054D01*
X95790478Y-45895652D01*
X95703891Y-45809216D01*
X95669812Y-45746934D01*
X95674815Y-45676114D01*
X95703736Y-45631025D01*
X95790270Y-45544340D01*
X95852552Y-45510261D01*
X95923373Y-45515264D01*
X95945559Y-45526098D01*
X96086243Y-45612816D01*
X96099424Y-45618963D01*
X96227306Y-45661380D01*
X96241399Y-45661869D01*
X96244500Y-45655658D01*
X96244500Y-44280422D01*
X96264502Y-44212301D01*
X96281405Y-44191327D01*
X96402327Y-44070405D01*
X96464639Y-44036379D01*
X96491422Y-44033500D01*
X97134500Y-44033500D01*
X97202621Y-44053502D01*
G37*
%TD.AperFunction*%
%TD*%
%TA.AperFunction,Conductor*%
%TO.N,GNDPWR*%
G36*
X41748332Y-104168039D02*
G01*
X41935752Y-104187657D01*
X41961415Y-104193089D01*
X42134426Y-104249061D01*
X42158411Y-104259691D01*
X42316081Y-104350277D01*
X42337343Y-104365642D01*
X42472834Y-104486912D01*
X42490452Y-104506346D01*
X42597892Y-104653046D01*
X42611105Y-104675709D01*
X42685840Y-104841478D01*
X42694074Y-104866389D01*
X42734269Y-105050499D01*
X42736398Y-105063460D01*
X43138522Y-108682574D01*
X43138859Y-108686043D01*
X43143011Y-108735955D01*
X43143397Y-108742915D01*
X43144783Y-108793004D01*
X43144831Y-108796489D01*
X43144831Y-109765167D01*
X43144224Y-109777517D01*
X43126833Y-109954091D01*
X43122016Y-109978311D01*
X43072313Y-110142163D01*
X43062860Y-110164983D01*
X42982150Y-110315982D01*
X42968432Y-110336512D01*
X42859805Y-110468875D01*
X42842352Y-110486328D01*
X42709989Y-110594955D01*
X42689462Y-110608671D01*
X42597248Y-110657961D01*
X42538460Y-110689383D01*
X42515641Y-110698836D01*
X42351788Y-110748539D01*
X42327571Y-110753355D01*
X42150994Y-110770747D01*
X42138644Y-110771354D01*
X41611018Y-110771354D01*
X41598668Y-110770747D01*
X41422091Y-110753355D01*
X41397874Y-110748539D01*
X41234021Y-110698836D01*
X41211202Y-110689383D01*
X41152414Y-110657961D01*
X41060200Y-110608671D01*
X41039673Y-110594955D01*
X40907310Y-110486328D01*
X40889857Y-110468875D01*
X40781230Y-110336512D01*
X40767512Y-110315982D01*
X40686802Y-110164983D01*
X40677349Y-110142163D01*
X40627646Y-109978311D01*
X40622829Y-109954091D01*
X40605438Y-109777517D01*
X40604831Y-109765167D01*
X40604831Y-105173541D01*
X40605438Y-105161191D01*
X40622829Y-104984617D01*
X40627646Y-104960397D01*
X40677349Y-104796544D01*
X40686802Y-104773725D01*
X40767512Y-104622726D01*
X40781230Y-104602196D01*
X40889857Y-104469833D01*
X40907310Y-104452380D01*
X41039673Y-104343753D01*
X41060200Y-104330037D01*
X41211202Y-104249325D01*
X41234022Y-104239872D01*
X41397874Y-104190169D01*
X41422091Y-104185353D01*
X41598668Y-104167961D01*
X41611018Y-104167354D01*
X41735215Y-104167354D01*
X41748332Y-104168039D01*
G37*
%TD.AperFunction*%
%TD*%
%TA.AperFunction,Conductor*%
%TO.N,Net-(Q2-Pad2)*%
G36*
X55990266Y-99704647D02*
G01*
X56089555Y-99713334D01*
X56111178Y-99717146D01*
X56261625Y-99757458D01*
X56303718Y-99768737D01*
X56324358Y-99776249D01*
X56505015Y-99860492D01*
X56524026Y-99871468D01*
X56665489Y-99970522D01*
X56687314Y-99985804D01*
X56704138Y-99999922D01*
X56845078Y-100140862D01*
X56859196Y-100157686D01*
X56953713Y-100292670D01*
X56976500Y-100364941D01*
X56976500Y-101156502D01*
X56979438Y-101193831D01*
X57025855Y-101353601D01*
X57029892Y-101360427D01*
X57106509Y-101489980D01*
X57106511Y-101489983D01*
X57110547Y-101496807D01*
X57116155Y-101502415D01*
X57121011Y-101508675D01*
X57119025Y-101510215D01*
X57147121Y-101561667D01*
X57150000Y-101588450D01*
X57150000Y-102695464D01*
X57138288Y-102748514D01*
X57102818Y-102824929D01*
X57044163Y-102951290D01*
X56979960Y-103182798D01*
X56959000Y-103378928D01*
X56959000Y-103613402D01*
X56959212Y-103615975D01*
X56959212Y-103615986D01*
X56967513Y-103716946D01*
X56973678Y-103791937D01*
X56974938Y-103796954D01*
X56974939Y-103796959D01*
X56978676Y-103811836D01*
X56975872Y-103882777D01*
X56959685Y-103914802D01*
X56859196Y-104058314D01*
X56845078Y-104075138D01*
X56704138Y-104216078D01*
X56687314Y-104230196D01*
X56524026Y-104344532D01*
X56505015Y-104355508D01*
X56347193Y-104429102D01*
X56324357Y-104439751D01*
X56303717Y-104447263D01*
X56111178Y-104498854D01*
X56089555Y-104502666D01*
X55990266Y-104511353D01*
X55890981Y-104520039D01*
X55869019Y-104520039D01*
X55769734Y-104511353D01*
X55670445Y-104502666D01*
X55648822Y-104498854D01*
X55456283Y-104447263D01*
X55435643Y-104439751D01*
X55412807Y-104429102D01*
X55254985Y-104355508D01*
X55235974Y-104344532D01*
X55072686Y-104230196D01*
X55055862Y-104216078D01*
X54914922Y-104075138D01*
X54900804Y-104058314D01*
X54823787Y-103948323D01*
X54801000Y-103876052D01*
X54801000Y-102456866D01*
X54794245Y-102394684D01*
X54743115Y-102258295D01*
X54655761Y-102141739D01*
X54648581Y-102136358D01*
X54646905Y-102134682D01*
X54612879Y-102072370D01*
X54610000Y-102045587D01*
X54610000Y-100970507D01*
X54610479Y-100959526D01*
X54628333Y-100755448D01*
X54632147Y-100733818D01*
X54683737Y-100541282D01*
X54691249Y-100520643D01*
X54701898Y-100497807D01*
X54775492Y-100339985D01*
X54786468Y-100320974D01*
X54900804Y-100157686D01*
X54914922Y-100140862D01*
X55055862Y-99999922D01*
X55072686Y-99985804D01*
X55094511Y-99970522D01*
X55235974Y-99871468D01*
X55254985Y-99860492D01*
X55435642Y-99776249D01*
X55456282Y-99768737D01*
X55498375Y-99757458D01*
X55648822Y-99717146D01*
X55670445Y-99713334D01*
X55769734Y-99704647D01*
X55869019Y-99695961D01*
X55890981Y-99695961D01*
X55990266Y-99704647D01*
G37*
%TD.AperFunction*%
%TD*%
%TA.AperFunction,Conductor*%
%TO.N,Net-(C32-Pad2)*%
G36*
X109153049Y-94634451D02*
G01*
X109170727Y-94636975D01*
X109290268Y-94662799D01*
X109430285Y-94693047D01*
X109447423Y-94698043D01*
X109696443Y-94790243D01*
X109712708Y-94797615D01*
X109912110Y-94905630D01*
X109945288Y-94931618D01*
X109966318Y-94954729D01*
X109978918Y-94971090D01*
X110052293Y-95084511D01*
X110062046Y-95102699D01*
X110100223Y-95190500D01*
X110115921Y-95226602D01*
X110122574Y-95246146D01*
X110154848Y-95374635D01*
X110155485Y-95377172D01*
X110158857Y-95397543D01*
X110167076Y-95497511D01*
X110167500Y-95507835D01*
X110167500Y-95660647D01*
X110170091Y-95712166D01*
X110172628Y-95737325D01*
X110172864Y-95738876D01*
X110172865Y-95738887D01*
X110178199Y-95773995D01*
X110180378Y-95788341D01*
X110229647Y-95925944D01*
X110231799Y-95930011D01*
X110250009Y-95964430D01*
X110256459Y-95976622D01*
X110273146Y-96000982D01*
X110317885Y-96066294D01*
X110317888Y-96066298D01*
X110322461Y-96072973D01*
X110356576Y-96102500D01*
X110418298Y-96155922D01*
X110432973Y-96168624D01*
X110565957Y-96229265D01*
X110710638Y-96249984D01*
X110715127Y-96249981D01*
X110715134Y-96249982D01*
X110764895Y-96249954D01*
X110833027Y-96269918D01*
X110879550Y-96323548D01*
X110885549Y-96339410D01*
X110969061Y-96615000D01*
X112286031Y-100961000D01*
X112815706Y-102708929D01*
X112818065Y-102717890D01*
X112879363Y-102991141D01*
X112882078Y-103009461D01*
X112902659Y-103288749D01*
X112903000Y-103298009D01*
X112903000Y-105720451D01*
X112902730Y-105728692D01*
X112886430Y-105977383D01*
X112884279Y-105993723D01*
X112836463Y-106234111D01*
X112832197Y-106250032D01*
X112753413Y-106482121D01*
X112747106Y-106497347D01*
X112638704Y-106717165D01*
X112630463Y-106731439D01*
X112494297Y-106935226D01*
X112484264Y-106948302D01*
X112319923Y-107135697D01*
X112314286Y-107141714D01*
X111167405Y-108288595D01*
X111105093Y-108322621D01*
X111078310Y-108325500D01*
X110807000Y-108325500D01*
X110738879Y-108305498D01*
X110692386Y-108251842D01*
X110681000Y-108199500D01*
X110681000Y-107831866D01*
X110674245Y-107769684D01*
X110623115Y-107633295D01*
X110535761Y-107516739D01*
X110419205Y-107429385D01*
X110282816Y-107378255D01*
X110220634Y-107371500D01*
X108219366Y-107371500D01*
X108157184Y-107378255D01*
X108020795Y-107429385D01*
X107904239Y-107516739D01*
X107816885Y-107633295D01*
X107765755Y-107769684D01*
X107759000Y-107831866D01*
X107759000Y-109390396D01*
X107738998Y-109458517D01*
X107685342Y-109505010D01*
X107647531Y-109514690D01*
X107645399Y-109514541D01*
X107636597Y-109516469D01*
X107636596Y-109516469D01*
X107507026Y-109544850D01*
X107507023Y-109544851D01*
X107502626Y-109545814D01*
X107436144Y-109570719D01*
X107307967Y-109640947D01*
X107194922Y-109725824D01*
X107177459Y-109736821D01*
X107057625Y-109799203D01*
X107038600Y-109807201D01*
X106917653Y-109846732D01*
X106911433Y-109848765D01*
X106872288Y-109855000D01*
X106494680Y-109855000D01*
X106472586Y-109853047D01*
X106448545Y-109848765D01*
X106447333Y-109848549D01*
X106427372Y-109843275D01*
X106300017Y-109798177D01*
X106281182Y-109789712D01*
X106162920Y-109724427D01*
X106145722Y-109713001D01*
X106039705Y-109629274D01*
X106024604Y-109615192D01*
X105933681Y-109515270D01*
X105921082Y-109498910D01*
X105894951Y-109458517D01*
X105847707Y-109385489D01*
X105837952Y-109367297D01*
X105784079Y-109243398D01*
X105777425Y-109223850D01*
X105777031Y-109222279D01*
X105744515Y-109092827D01*
X105741143Y-109072457D01*
X105732500Y-108967332D01*
X105733120Y-108967281D01*
X105732558Y-108964993D01*
X105732500Y-108964999D01*
X105732454Y-108964571D01*
X105732454Y-108964570D01*
X105731853Y-108958977D01*
X105731556Y-108955846D01*
X105730773Y-108946327D01*
X105734941Y-108945984D01*
X105734932Y-108945873D01*
X105730495Y-108946350D01*
X105720766Y-108855851D01*
X105720048Y-108852550D01*
X105710094Y-108806790D01*
X105710093Y-108806785D01*
X105709380Y-108803509D01*
X105674710Y-108699343D01*
X105595692Y-108576388D01*
X105592743Y-108572985D01*
X105590662Y-108570205D01*
X105569323Y-108525388D01*
X105545311Y-108429791D01*
X105527794Y-108360056D01*
X105431997Y-108139737D01*
X105301502Y-107938023D01*
X105139814Y-107760330D01*
X104989606Y-107641703D01*
X104955330Y-107614633D01*
X104955325Y-107614630D01*
X104951276Y-107611432D01*
X104946760Y-107608939D01*
X104946757Y-107608937D01*
X104745474Y-107497823D01*
X104745470Y-107497821D01*
X104740950Y-107495326D01*
X104736081Y-107493602D01*
X104736077Y-107493600D01*
X104519360Y-107416856D01*
X104519356Y-107416855D01*
X104514485Y-107415130D01*
X104509392Y-107414223D01*
X104509389Y-107414222D01*
X104283052Y-107373905D01*
X104283046Y-107373904D01*
X104277963Y-107372999D01*
X104185474Y-107371869D01*
X104042907Y-107370127D01*
X104042905Y-107370127D01*
X104037737Y-107370064D01*
X103800256Y-107406404D01*
X103696091Y-107440450D01*
X103576817Y-107479434D01*
X103576811Y-107479437D01*
X103571899Y-107481042D01*
X103567304Y-107483434D01*
X103435180Y-107552213D01*
X103365521Y-107565926D01*
X103299506Y-107539801D01*
X103258094Y-107482133D01*
X103251000Y-107440450D01*
X103251000Y-101087000D01*
X103271002Y-101018879D01*
X103324658Y-100972386D01*
X103377000Y-100961000D01*
X103395400Y-100961000D01*
X103398646Y-100960663D01*
X103398650Y-100960663D01*
X103494308Y-100950738D01*
X103494312Y-100950737D01*
X103501166Y-100950026D01*
X103507702Y-100947845D01*
X103507704Y-100947845D01*
X103661998Y-100896368D01*
X103668946Y-100894050D01*
X103819348Y-100800978D01*
X103944305Y-100675803D01*
X104037115Y-100525238D01*
X104092797Y-100357361D01*
X104103500Y-100252900D01*
X104103500Y-99477100D01*
X104092526Y-99371334D01*
X104036550Y-99203554D01*
X103943478Y-99053152D01*
X103818303Y-98928195D01*
X103814084Y-98925594D01*
X103773583Y-98868470D01*
X103770351Y-98797547D01*
X103805976Y-98736135D01*
X103813530Y-98729578D01*
X103819348Y-98725978D01*
X103944305Y-98600803D01*
X104037115Y-98450238D01*
X104092797Y-98282361D01*
X104103500Y-98177900D01*
X104103500Y-97402100D01*
X104092526Y-97296334D01*
X104081864Y-97264376D01*
X104079280Y-97193427D01*
X104115464Y-97132343D01*
X104178928Y-97100518D01*
X104201388Y-97098500D01*
X105140634Y-97098500D01*
X105202816Y-97091745D01*
X105339205Y-97040615D01*
X105455761Y-96953261D01*
X105543115Y-96836705D01*
X105550573Y-96816811D01*
X105593213Y-96760047D01*
X105659774Y-96735346D01*
X105729123Y-96750553D01*
X105746647Y-96762158D01*
X105864670Y-96855367D01*
X105864675Y-96855370D01*
X105868724Y-96858568D01*
X105873240Y-96861061D01*
X105873243Y-96861063D01*
X106074526Y-96972177D01*
X106074530Y-96972179D01*
X106079050Y-96974674D01*
X106083919Y-96976398D01*
X106083923Y-96976400D01*
X106300640Y-97053144D01*
X106300644Y-97053145D01*
X106305515Y-97054870D01*
X106310608Y-97055777D01*
X106310611Y-97055778D01*
X106536948Y-97096095D01*
X106536954Y-97096096D01*
X106542037Y-97097001D01*
X106629400Y-97098068D01*
X106777093Y-97099873D01*
X106777095Y-97099873D01*
X106782263Y-97099936D01*
X107019744Y-97063596D01*
X107131997Y-97026906D01*
X107243183Y-96990566D01*
X107243189Y-96990563D01*
X107248101Y-96988958D01*
X107252687Y-96986571D01*
X107252691Y-96986569D01*
X107456607Y-96880416D01*
X107461200Y-96878025D01*
X107653320Y-96733777D01*
X107781499Y-96599645D01*
X107815728Y-96563827D01*
X107819301Y-96560088D01*
X107954686Y-96361622D01*
X107956862Y-96356935D01*
X108053660Y-96148401D01*
X108053662Y-96148396D01*
X108055837Y-96143710D01*
X108057218Y-96138732D01*
X108057223Y-96138717D01*
X108069813Y-96093318D01*
X108096006Y-96044478D01*
X108165081Y-95964762D01*
X108165083Y-95964759D01*
X108170982Y-95957951D01*
X108183786Y-95929916D01*
X108217221Y-95856701D01*
X108231698Y-95825002D01*
X108243872Y-95783540D01*
X108250431Y-95761204D01*
X108250432Y-95761200D01*
X108251700Y-95756881D01*
X108254288Y-95738887D01*
X108271861Y-95616659D01*
X108271861Y-95616654D01*
X108272500Y-95612212D01*
X108272500Y-95498009D01*
X108273213Y-95484620D01*
X108284967Y-95374635D01*
X108288837Y-95354352D01*
X108324936Y-95224183D01*
X108332065Y-95204805D01*
X108378688Y-95104363D01*
X108388944Y-95082269D01*
X108399138Y-95064324D01*
X108475279Y-94952706D01*
X108488268Y-94936667D01*
X108573816Y-94847146D01*
X108581598Y-94839003D01*
X108597038Y-94825295D01*
X108705075Y-94744178D01*
X108722548Y-94733175D01*
X108842368Y-94670801D01*
X108861403Y-94662799D01*
X108961263Y-94630160D01*
X109009336Y-94624242D01*
X109153049Y-94634451D01*
G37*
%TD.AperFunction*%
%TD*%
%TA.AperFunction,Conductor*%
%TO.N,Net-(J6-Pad1)*%
G36*
X101659860Y-100477002D02*
G01*
X101703239Y-100526577D01*
X101703450Y-100526446D01*
X101796522Y-100676848D01*
X101921697Y-100801805D01*
X101927927Y-100805645D01*
X101927928Y-100805646D01*
X101990210Y-100844037D01*
X102072262Y-100894615D01*
X102152005Y-100921064D01*
X102233611Y-100948132D01*
X102233613Y-100948132D01*
X102240139Y-100950297D01*
X102246975Y-100950997D01*
X102246978Y-100950998D01*
X102290031Y-100955409D01*
X102344600Y-100961000D01*
X102363000Y-100961000D01*
X102431121Y-100981002D01*
X102477614Y-101034658D01*
X102489000Y-101087000D01*
X102489000Y-104393742D01*
X102487922Y-104410188D01*
X102474128Y-104514963D01*
X102465615Y-104546735D01*
X102428361Y-104636674D01*
X102411914Y-104665160D01*
X102352651Y-104742393D01*
X102329393Y-104765651D01*
X102252160Y-104824914D01*
X102223674Y-104841361D01*
X102133735Y-104878615D01*
X102101963Y-104887128D01*
X101997188Y-104900922D01*
X101980742Y-104902000D01*
X99822258Y-104902000D01*
X99805812Y-104900922D01*
X99701037Y-104887128D01*
X99669265Y-104878615D01*
X99579326Y-104841361D01*
X99550840Y-104824914D01*
X99473607Y-104765651D01*
X99450349Y-104742393D01*
X99391086Y-104665160D01*
X99374639Y-104636674D01*
X99337385Y-104546735D01*
X99328872Y-104514963D01*
X99315078Y-104410188D01*
X99314000Y-104393742D01*
X99314000Y-100965258D01*
X99315078Y-100948812D01*
X99328872Y-100844037D01*
X99337385Y-100812265D01*
X99374639Y-100722326D01*
X99391086Y-100693840D01*
X99450349Y-100616607D01*
X99473607Y-100593349D01*
X99550840Y-100534086D01*
X99579326Y-100517639D01*
X99669265Y-100480385D01*
X99701037Y-100471872D01*
X99805812Y-100458078D01*
X99822258Y-100457000D01*
X101591739Y-100457000D01*
X101659860Y-100477002D01*
G37*
%TD.AperFunction*%
%TD*%
%TA.AperFunction,Conductor*%
%TO.N,Net-(C10-Pad2)*%
G36*
X78835488Y-94615321D02*
G01*
X78975044Y-94625302D01*
X79008113Y-94632208D01*
X79119983Y-94671823D01*
X79138818Y-94680288D01*
X79257080Y-94745573D01*
X79274278Y-94756999D01*
X79380295Y-94840726D01*
X79395396Y-94854808D01*
X79486319Y-94954730D01*
X79498918Y-94971090D01*
X79572293Y-95084511D01*
X79582046Y-95102699D01*
X79620223Y-95190500D01*
X79635921Y-95226602D01*
X79642574Y-95246146D01*
X79674848Y-95374635D01*
X79675485Y-95377172D01*
X79678857Y-95397543D01*
X79687076Y-95497511D01*
X79687500Y-95507835D01*
X79687500Y-95627544D01*
X79687862Y-95630904D01*
X79687862Y-95630910D01*
X79692686Y-95675720D01*
X79699265Y-95736835D01*
X79710680Y-95789239D01*
X79711746Y-95792437D01*
X79740686Y-95879268D01*
X79745434Y-95893515D01*
X79789144Y-95961449D01*
X79821183Y-96011243D01*
X79824518Y-96016427D01*
X79871040Y-96070058D01*
X79874439Y-96073000D01*
X79874443Y-96073004D01*
X79941953Y-96131438D01*
X79981550Y-96165712D01*
X80043410Y-96193922D01*
X80110437Y-96224489D01*
X80110442Y-96224491D01*
X80114532Y-96226356D01*
X80118851Y-96227622D01*
X80118852Y-96227622D01*
X80178347Y-96245057D01*
X80178353Y-96245058D01*
X80182662Y-96246321D01*
X80187107Y-96246957D01*
X80187109Y-96246958D01*
X80245146Y-96255269D01*
X80327372Y-96267044D01*
X80345424Y-96267033D01*
X80413556Y-96286994D01*
X80460082Y-96340621D01*
X80471500Y-96393033D01*
X80471500Y-96841502D01*
X80471693Y-96843950D01*
X80471693Y-96843958D01*
X80473040Y-96861063D01*
X80474438Y-96878831D01*
X80506433Y-96988958D01*
X80512497Y-97009832D01*
X80517500Y-97044985D01*
X80517500Y-97087624D01*
X80516067Y-97106574D01*
X80513876Y-97120973D01*
X80513876Y-97120979D01*
X80512776Y-97128208D01*
X80513369Y-97135500D01*
X80513369Y-97135503D01*
X80517085Y-97181183D01*
X80517500Y-97191398D01*
X80517500Y-97199525D01*
X80520811Y-97227924D01*
X80521238Y-97232244D01*
X80527191Y-97305426D01*
X80529447Y-97312388D01*
X80530643Y-97318376D01*
X80532051Y-97324333D01*
X80532899Y-97331607D01*
X80535397Y-97338489D01*
X80535398Y-97338493D01*
X80557945Y-97400607D01*
X80559355Y-97404711D01*
X80581987Y-97474575D01*
X80585787Y-97480838D01*
X80588325Y-97486380D01*
X80591067Y-97491856D01*
X80593566Y-97498741D01*
X80597581Y-97504865D01*
X80633815Y-97560132D01*
X80636130Y-97563800D01*
X80674227Y-97626581D01*
X80677941Y-97630786D01*
X80677943Y-97630789D01*
X80681667Y-97635005D01*
X80681638Y-97635031D01*
X80684238Y-97637962D01*
X80687042Y-97641316D01*
X80691054Y-97647435D01*
X80696366Y-97652467D01*
X80747586Y-97700988D01*
X80750028Y-97703366D01*
X80794095Y-97747433D01*
X80828121Y-97809745D01*
X80831000Y-97836528D01*
X80831000Y-100330000D01*
X81881000Y-100330000D01*
X82073494Y-100348959D01*
X82097714Y-100353775D01*
X82270948Y-100406325D01*
X82293759Y-100415774D01*
X82453407Y-100501108D01*
X82473942Y-100514830D01*
X82613869Y-100629666D01*
X82631334Y-100647131D01*
X82746170Y-100787058D01*
X82759892Y-100807593D01*
X82845226Y-100967241D01*
X82854676Y-100990055D01*
X82907224Y-101163283D01*
X82912042Y-101187509D01*
X82930393Y-101373837D01*
X82931000Y-101386187D01*
X82931000Y-101635271D01*
X82910998Y-101703392D01*
X82857342Y-101749885D01*
X82805000Y-101761271D01*
X77787500Y-101761271D01*
X77755514Y-101763559D01*
X77721127Y-101766018D01*
X77721126Y-101766018D01*
X77714389Y-101766500D01*
X77634882Y-101789845D01*
X77582735Y-101805157D01*
X77582733Y-101805158D01*
X77574089Y-101807696D01*
X77534770Y-101832965D01*
X77458659Y-101881878D01*
X77458656Y-101881880D01*
X77451079Y-101886750D01*
X77445178Y-101893560D01*
X77361226Y-101990445D01*
X77361224Y-101990448D01*
X77355324Y-101997257D01*
X77294581Y-102130266D01*
X77273771Y-102275000D01*
X77273771Y-107275000D01*
X77273932Y-107277250D01*
X77278433Y-107340177D01*
X77279000Y-107348111D01*
X77320196Y-107488411D01*
X77332355Y-107507330D01*
X77352357Y-107575449D01*
X77337908Y-107631931D01*
X77336885Y-107633295D01*
X77333734Y-107641701D01*
X77333732Y-107641704D01*
X77328774Y-107654931D01*
X77285755Y-107769684D01*
X77279000Y-107831866D01*
X77279000Y-109390396D01*
X77258998Y-109458517D01*
X77205342Y-109505010D01*
X77167531Y-109514690D01*
X77165399Y-109514541D01*
X77156597Y-109516469D01*
X77156596Y-109516469D01*
X77027026Y-109544850D01*
X77027023Y-109544851D01*
X77022626Y-109545814D01*
X76956144Y-109570719D01*
X76827967Y-109640947D01*
X76714922Y-109725824D01*
X76697459Y-109736821D01*
X76577625Y-109799203D01*
X76558600Y-109807201D01*
X76437653Y-109846732D01*
X76431433Y-109848765D01*
X76392288Y-109855000D01*
X76014680Y-109855000D01*
X75992586Y-109853047D01*
X75968545Y-109848765D01*
X75967333Y-109848549D01*
X75947372Y-109843275D01*
X75820017Y-109798177D01*
X75801182Y-109789712D01*
X75682920Y-109724427D01*
X75665722Y-109713001D01*
X75559705Y-109629274D01*
X75544604Y-109615192D01*
X75453681Y-109515270D01*
X75441082Y-109498910D01*
X75414951Y-109458517D01*
X75367707Y-109385489D01*
X75357952Y-109367297D01*
X75304079Y-109243398D01*
X75297425Y-109223850D01*
X75297031Y-109222279D01*
X75264515Y-109092827D01*
X75261143Y-109072457D01*
X75252500Y-108967332D01*
X75253120Y-108967281D01*
X75252558Y-108964993D01*
X75252500Y-108964999D01*
X75252454Y-108964571D01*
X75252454Y-108964570D01*
X75251853Y-108958977D01*
X75251556Y-108955846D01*
X75250773Y-108946327D01*
X75254941Y-108945984D01*
X75254932Y-108945873D01*
X75250495Y-108946350D01*
X75240766Y-108855851D01*
X75240048Y-108852550D01*
X75230094Y-108806790D01*
X75230093Y-108806785D01*
X75229380Y-108803509D01*
X75194710Y-108699343D01*
X75115692Y-108576388D01*
X75112743Y-108572985D01*
X75110662Y-108570205D01*
X75089323Y-108525388D01*
X75065311Y-108429791D01*
X75047794Y-108360056D01*
X74951997Y-108139737D01*
X74821502Y-107938023D01*
X74659814Y-107760330D01*
X74582983Y-107699653D01*
X74475330Y-107614633D01*
X74475325Y-107614630D01*
X74471276Y-107611432D01*
X74466760Y-107608939D01*
X74466757Y-107608937D01*
X74265474Y-107497823D01*
X74265470Y-107497821D01*
X74260950Y-107495326D01*
X74256081Y-107493602D01*
X74256077Y-107493600D01*
X74039360Y-107416856D01*
X74039356Y-107416855D01*
X74034485Y-107415130D01*
X74029392Y-107414223D01*
X74029389Y-107414222D01*
X73803052Y-107373905D01*
X73803046Y-107373904D01*
X73797963Y-107372999D01*
X73710600Y-107371932D01*
X73562907Y-107370127D01*
X73562905Y-107370127D01*
X73557737Y-107370064D01*
X73320256Y-107406404D01*
X73216091Y-107440450D01*
X73096817Y-107479434D01*
X73096811Y-107479437D01*
X73091899Y-107481042D01*
X73087304Y-107483434D01*
X72955180Y-107552213D01*
X72885521Y-107565926D01*
X72819506Y-107539801D01*
X72778094Y-107482133D01*
X72771000Y-107440450D01*
X72771000Y-100965082D01*
X72779656Y-100919233D01*
X72779813Y-100918853D01*
X72793770Y-100881021D01*
X72799878Y-100862222D01*
X72810821Y-100823419D01*
X72814621Y-100807593D01*
X72866389Y-100591961D01*
X72866393Y-100591943D01*
X72866670Y-100590789D01*
X72874536Y-100551247D01*
X72877629Y-100531719D01*
X72882368Y-100491678D01*
X72901529Y-100248220D01*
X72902717Y-100228068D01*
X72903105Y-100218182D01*
X72903500Y-100198044D01*
X72903500Y-97224500D01*
X72923502Y-97156379D01*
X72977158Y-97109886D01*
X73029500Y-97098500D01*
X74660634Y-97098500D01*
X74722816Y-97091745D01*
X74859205Y-97040615D01*
X74975761Y-96953261D01*
X75063115Y-96836705D01*
X75070573Y-96816811D01*
X75113213Y-96760047D01*
X75179774Y-96735346D01*
X75249123Y-96750553D01*
X75266647Y-96762158D01*
X75384670Y-96855367D01*
X75384675Y-96855370D01*
X75388724Y-96858568D01*
X75393240Y-96861061D01*
X75393243Y-96861063D01*
X75594526Y-96972177D01*
X75594530Y-96972179D01*
X75599050Y-96974674D01*
X75603919Y-96976398D01*
X75603923Y-96976400D01*
X75820640Y-97053144D01*
X75820644Y-97053145D01*
X75825515Y-97054870D01*
X75830608Y-97055777D01*
X75830611Y-97055778D01*
X76056948Y-97096095D01*
X76056954Y-97096096D01*
X76062037Y-97097001D01*
X76149400Y-97098068D01*
X76297093Y-97099873D01*
X76297095Y-97099873D01*
X76302263Y-97099936D01*
X76539744Y-97063596D01*
X76651997Y-97026906D01*
X76763183Y-96990566D01*
X76763189Y-96990563D01*
X76768101Y-96988958D01*
X76772687Y-96986571D01*
X76772691Y-96986569D01*
X76976607Y-96880416D01*
X76981200Y-96878025D01*
X77173320Y-96733777D01*
X77339301Y-96560088D01*
X77474686Y-96361622D01*
X77484435Y-96340621D01*
X77573658Y-96148405D01*
X77573659Y-96148401D01*
X77575837Y-96143710D01*
X77582831Y-96118489D01*
X77609023Y-96069651D01*
X77685081Y-95981876D01*
X77685083Y-95981873D01*
X77690982Y-95975065D01*
X77751698Y-95842116D01*
X77767488Y-95788341D01*
X77770431Y-95778318D01*
X77770432Y-95778314D01*
X77771700Y-95773995D01*
X77772586Y-95767839D01*
X77791861Y-95633773D01*
X77791861Y-95633768D01*
X77792500Y-95629326D01*
X77792500Y-95498009D01*
X77793213Y-95484620D01*
X77804967Y-95374635D01*
X77808837Y-95354352D01*
X77844936Y-95224183D01*
X77852065Y-95204805D01*
X77898688Y-95104363D01*
X77908944Y-95082269D01*
X77919138Y-95064324D01*
X77995279Y-94952706D01*
X78008268Y-94936667D01*
X78099951Y-94840726D01*
X78101598Y-94839003D01*
X78117038Y-94825295D01*
X78225075Y-94744178D01*
X78242542Y-94733178D01*
X78362378Y-94670796D01*
X78381398Y-94662800D01*
X78508568Y-94621235D01*
X78547712Y-94615000D01*
X78826499Y-94615000D01*
X78835488Y-94615321D01*
G37*
%TD.AperFunction*%
%TD*%
%TA.AperFunction,Conductor*%
%TO.N,Net-(C20-Pad2)*%
G36*
X94187414Y-94616953D02*
G01*
X94207211Y-94620479D01*
X94212667Y-94621451D01*
X94232628Y-94626725D01*
X94359983Y-94671823D01*
X94378818Y-94680288D01*
X94497080Y-94745573D01*
X94514278Y-94756999D01*
X94620295Y-94840726D01*
X94635396Y-94854808D01*
X94726319Y-94954730D01*
X94738918Y-94971090D01*
X94812293Y-95084511D01*
X94822046Y-95102699D01*
X94860223Y-95190500D01*
X94875921Y-95226602D01*
X94882574Y-95246146D01*
X94914848Y-95374635D01*
X94915485Y-95377172D01*
X94918857Y-95397543D01*
X94927076Y-95497511D01*
X94927500Y-95507835D01*
X94927500Y-95618986D01*
X94927862Y-95622347D01*
X94927862Y-95622350D01*
X94936062Y-95698515D01*
X94939266Y-95728280D01*
X94939983Y-95731570D01*
X94939983Y-95731572D01*
X94941130Y-95736835D01*
X94950682Y-95780687D01*
X94985441Y-95884973D01*
X94989704Y-95891599D01*
X94989705Y-95891600D01*
X95060088Y-96000982D01*
X95064529Y-96007884D01*
X95111052Y-96061513D01*
X95114450Y-96064454D01*
X95114454Y-96064458D01*
X95214745Y-96151262D01*
X95221561Y-96157161D01*
X95229764Y-96160901D01*
X95229763Y-96160901D01*
X95350452Y-96215936D01*
X95350457Y-96215938D01*
X95354545Y-96217802D01*
X95358857Y-96219065D01*
X95358861Y-96219067D01*
X95393484Y-96229212D01*
X95422677Y-96237766D01*
X95427129Y-96238404D01*
X95427131Y-96238404D01*
X95562895Y-96257847D01*
X95562899Y-96257847D01*
X95567359Y-96258486D01*
X96093430Y-96258191D01*
X96161561Y-96278155D01*
X96208084Y-96331784D01*
X96219500Y-96384191D01*
X96219500Y-96841502D01*
X96219693Y-96843950D01*
X96219693Y-96843958D01*
X96221040Y-96861063D01*
X96222438Y-96878831D01*
X96224233Y-96885008D01*
X96255738Y-96993450D01*
X96268855Y-97038601D01*
X96353547Y-97181807D01*
X96359157Y-97187417D01*
X96361553Y-97190506D01*
X96387500Y-97256591D01*
X96371113Y-97330733D01*
X96320473Y-97418444D01*
X96261458Y-97600072D01*
X96260768Y-97606633D01*
X96260768Y-97606635D01*
X96257829Y-97634600D01*
X96241496Y-97790000D01*
X96261458Y-97979928D01*
X96320473Y-98161556D01*
X96415960Y-98326944D01*
X96420378Y-98331851D01*
X96420379Y-98331852D01*
X96539325Y-98463955D01*
X96543747Y-98468866D01*
X96590131Y-98502566D01*
X96595061Y-98506148D01*
X96638415Y-98562371D01*
X96647000Y-98608084D01*
X96647000Y-100330000D01*
X97662999Y-100330000D01*
X97848862Y-100348306D01*
X97873085Y-100353124D01*
X98039936Y-100403737D01*
X98062749Y-100413187D01*
X98216514Y-100495377D01*
X98237052Y-100509100D01*
X98371827Y-100619708D01*
X98389292Y-100637173D01*
X98499900Y-100771948D01*
X98513623Y-100792486D01*
X98595813Y-100946251D01*
X98605263Y-100969064D01*
X98655876Y-101135913D01*
X98660694Y-101160138D01*
X98678393Y-101339837D01*
X98679000Y-101352187D01*
X98679000Y-101635271D01*
X98658998Y-101703392D01*
X98605342Y-101749885D01*
X98553000Y-101761271D01*
X93027500Y-101761271D01*
X92995514Y-101763559D01*
X92961127Y-101766018D01*
X92961126Y-101766018D01*
X92954389Y-101766500D01*
X92874882Y-101789845D01*
X92822735Y-101805157D01*
X92822733Y-101805158D01*
X92814089Y-101807696D01*
X92774770Y-101832965D01*
X92698659Y-101881878D01*
X92698656Y-101881880D01*
X92691079Y-101886750D01*
X92685178Y-101893560D01*
X92601226Y-101990445D01*
X92601224Y-101990448D01*
X92595324Y-101997257D01*
X92534581Y-102130266D01*
X92513771Y-102275000D01*
X92513771Y-107275000D01*
X92513932Y-107277250D01*
X92518433Y-107340177D01*
X92519000Y-107348111D01*
X92560196Y-107488411D01*
X92572355Y-107507330D01*
X92592357Y-107575449D01*
X92577908Y-107631931D01*
X92576885Y-107633295D01*
X92573734Y-107641701D01*
X92573732Y-107641704D01*
X92568774Y-107654931D01*
X92525755Y-107769684D01*
X92519000Y-107831866D01*
X92519000Y-109390396D01*
X92498998Y-109458517D01*
X92445342Y-109505010D01*
X92407531Y-109514690D01*
X92405399Y-109514541D01*
X92396597Y-109516469D01*
X92396596Y-109516469D01*
X92267026Y-109544850D01*
X92267023Y-109544851D01*
X92262626Y-109545814D01*
X92196144Y-109570719D01*
X92067967Y-109640947D01*
X91954922Y-109725824D01*
X91937459Y-109736821D01*
X91817625Y-109799203D01*
X91798600Y-109807201D01*
X91677653Y-109846732D01*
X91671433Y-109848765D01*
X91632288Y-109855000D01*
X91254680Y-109855000D01*
X91232586Y-109853047D01*
X91208545Y-109848765D01*
X91207333Y-109848549D01*
X91187372Y-109843275D01*
X91060017Y-109798177D01*
X91041182Y-109789712D01*
X90922920Y-109724427D01*
X90905722Y-109713001D01*
X90799705Y-109629274D01*
X90784604Y-109615192D01*
X90693681Y-109515270D01*
X90681082Y-109498910D01*
X90654951Y-109458517D01*
X90607707Y-109385489D01*
X90597952Y-109367297D01*
X90544079Y-109243398D01*
X90537425Y-109223850D01*
X90537031Y-109222279D01*
X90504515Y-109092827D01*
X90501143Y-109072457D01*
X90492500Y-108967332D01*
X90493120Y-108967281D01*
X90492558Y-108964993D01*
X90492500Y-108964999D01*
X90492454Y-108964571D01*
X90492454Y-108964570D01*
X90491853Y-108958977D01*
X90491556Y-108955846D01*
X90490773Y-108946327D01*
X90494941Y-108945984D01*
X90494932Y-108945873D01*
X90490495Y-108946350D01*
X90480766Y-108855851D01*
X90480048Y-108852550D01*
X90470094Y-108806790D01*
X90470093Y-108806785D01*
X90469380Y-108803509D01*
X90434710Y-108699343D01*
X90355692Y-108576388D01*
X90352743Y-108572985D01*
X90350662Y-108570205D01*
X90329323Y-108525388D01*
X90305311Y-108429791D01*
X90287794Y-108360056D01*
X90191997Y-108139737D01*
X90061502Y-107938023D01*
X89899814Y-107760330D01*
X89822983Y-107699653D01*
X89715330Y-107614633D01*
X89715325Y-107614630D01*
X89711276Y-107611432D01*
X89706760Y-107608939D01*
X89706757Y-107608937D01*
X89505474Y-107497823D01*
X89505470Y-107497821D01*
X89500950Y-107495326D01*
X89496081Y-107493602D01*
X89496077Y-107493600D01*
X89279360Y-107416856D01*
X89279356Y-107416855D01*
X89274485Y-107415130D01*
X89269392Y-107414223D01*
X89269389Y-107414222D01*
X89043052Y-107373905D01*
X89043046Y-107373904D01*
X89037963Y-107372999D01*
X88950600Y-107371932D01*
X88802907Y-107370127D01*
X88802905Y-107370127D01*
X88797737Y-107370064D01*
X88560256Y-107406404D01*
X88456091Y-107440450D01*
X88336817Y-107479434D01*
X88336811Y-107479437D01*
X88331899Y-107481042D01*
X88327304Y-107483434D01*
X88195180Y-107552213D01*
X88125521Y-107565926D01*
X88059506Y-107539801D01*
X88018094Y-107482133D01*
X88011000Y-107440450D01*
X88011000Y-101018837D01*
X88031002Y-100950716D01*
X88047826Y-100929820D01*
X88064133Y-100913484D01*
X88069305Y-100908303D01*
X88097710Y-100862222D01*
X88158275Y-100763968D01*
X88158276Y-100763966D01*
X88162115Y-100757738D01*
X88188564Y-100677995D01*
X88215632Y-100596389D01*
X88215632Y-100596387D01*
X88217797Y-100589861D01*
X88228500Y-100485400D01*
X88228500Y-99709600D01*
X88217526Y-99603834D01*
X88161550Y-99436054D01*
X88068478Y-99285652D01*
X88047983Y-99265192D01*
X88013903Y-99202910D01*
X88011000Y-99176019D01*
X88011000Y-98943837D01*
X88031002Y-98875716D01*
X88047826Y-98854820D01*
X88064133Y-98838484D01*
X88069305Y-98833303D01*
X88162115Y-98682738D01*
X88217797Y-98514861D01*
X88228500Y-98410400D01*
X88228500Y-97634600D01*
X88228163Y-97631350D01*
X88218238Y-97535692D01*
X88218237Y-97535688D01*
X88217526Y-97528834D01*
X88161550Y-97361054D01*
X88118077Y-97290803D01*
X88099239Y-97222351D01*
X88120400Y-97154582D01*
X88174841Y-97109010D01*
X88225221Y-97098500D01*
X89900634Y-97098500D01*
X89962816Y-97091745D01*
X90099205Y-97040615D01*
X90215761Y-96953261D01*
X90303115Y-96836705D01*
X90310573Y-96816811D01*
X90353213Y-96760047D01*
X90419774Y-96735346D01*
X90489123Y-96750553D01*
X90506647Y-96762158D01*
X90624670Y-96855367D01*
X90624675Y-96855370D01*
X90628724Y-96858568D01*
X90633240Y-96861061D01*
X90633243Y-96861063D01*
X90834526Y-96972177D01*
X90834530Y-96972179D01*
X90839050Y-96974674D01*
X90843919Y-96976398D01*
X90843923Y-96976400D01*
X91060640Y-97053144D01*
X91060644Y-97053145D01*
X91065515Y-97054870D01*
X91070608Y-97055777D01*
X91070611Y-97055778D01*
X91296948Y-97096095D01*
X91296954Y-97096096D01*
X91302037Y-97097001D01*
X91389400Y-97098068D01*
X91537093Y-97099873D01*
X91537095Y-97099873D01*
X91542263Y-97099936D01*
X91779744Y-97063596D01*
X91891997Y-97026906D01*
X92003183Y-96990566D01*
X92003189Y-96990563D01*
X92008101Y-96988958D01*
X92012687Y-96986571D01*
X92012691Y-96986569D01*
X92216607Y-96880416D01*
X92221200Y-96878025D01*
X92413320Y-96733777D01*
X92541499Y-96599645D01*
X92575728Y-96563827D01*
X92579301Y-96560088D01*
X92714686Y-96361622D01*
X92728537Y-96331784D01*
X92813659Y-96148402D01*
X92815837Y-96143710D01*
X92826322Y-96105904D01*
X92852514Y-96057066D01*
X92925080Y-95973319D01*
X92930982Y-95966508D01*
X92937056Y-95953209D01*
X92949507Y-95925944D01*
X92991698Y-95833559D01*
X93003872Y-95792097D01*
X93010431Y-95769761D01*
X93010432Y-95769757D01*
X93011700Y-95765438D01*
X93012931Y-95756881D01*
X93031861Y-95625216D01*
X93031861Y-95625211D01*
X93032500Y-95620769D01*
X93032500Y-95498009D01*
X93033213Y-95484620D01*
X93044967Y-95374635D01*
X93048837Y-95354352D01*
X93084936Y-95224183D01*
X93092065Y-95204805D01*
X93138688Y-95104363D01*
X93148944Y-95082269D01*
X93159138Y-95064324D01*
X93235279Y-94952706D01*
X93248268Y-94936667D01*
X93339951Y-94840726D01*
X93341598Y-94839003D01*
X93357038Y-94825295D01*
X93465075Y-94744178D01*
X93482542Y-94733178D01*
X93602378Y-94670796D01*
X93621398Y-94662800D01*
X93748568Y-94621235D01*
X93787712Y-94615000D01*
X94165320Y-94615000D01*
X94187414Y-94616953D01*
G37*
%TD.AperFunction*%
%TD*%
%TA.AperFunction,Conductor*%
%TO.N,VMOTOR*%
G36*
X114565132Y-77344098D02*
G01*
X114610515Y-77348568D01*
X114764669Y-77363752D01*
X114788889Y-77368569D01*
X114979572Y-77426413D01*
X115002382Y-77435861D01*
X115178111Y-77529792D01*
X115198648Y-77543515D01*
X115352669Y-77669918D01*
X115370135Y-77687384D01*
X115496540Y-77841410D01*
X115510262Y-77861947D01*
X115604187Y-78037669D01*
X115613639Y-78060489D01*
X115671481Y-78251172D01*
X115676298Y-78275393D01*
X115696435Y-78479869D01*
X115697042Y-78492219D01*
X115697036Y-79315364D01*
X115677033Y-79383485D01*
X115634036Y-79424482D01*
X115506994Y-79497830D01*
X115445979Y-79539164D01*
X115441317Y-79544061D01*
X115441314Y-79544064D01*
X115435463Y-79550211D01*
X115420114Y-79562251D01*
X115419808Y-79561912D01*
X115372808Y-79604364D01*
X115370114Y-79607539D01*
X115290636Y-79701193D01*
X115290634Y-79701196D01*
X115285018Y-79707814D01*
X115281412Y-79715709D01*
X115281410Y-79715713D01*
X115263012Y-79756000D01*
X115224302Y-79840763D01*
X115204300Y-79908884D01*
X115203660Y-79913333D01*
X115203659Y-79913339D01*
X115184139Y-80049106D01*
X115183500Y-80053553D01*
X115183500Y-85471349D01*
X115192781Y-85568534D01*
X115193347Y-85571469D01*
X115193347Y-85571471D01*
X115195443Y-85582343D01*
X115201807Y-85615363D01*
X115202653Y-85618243D01*
X115224064Y-85691162D01*
X115229309Y-85709026D01*
X115255932Y-85755139D01*
X115300137Y-85831706D01*
X115300142Y-85831713D01*
X115302387Y-85835602D01*
X115346274Y-85891409D01*
X115452051Y-85992267D01*
X115460059Y-85996395D01*
X115460061Y-85996397D01*
X115577956Y-86057178D01*
X115577959Y-86057179D01*
X115581960Y-86059242D01*
X115586213Y-86060714D01*
X115612202Y-86069709D01*
X115670034Y-86110891D01*
X115696421Y-86176802D01*
X115696991Y-86188779D01*
X115696981Y-87788598D01*
X115696979Y-88045767D01*
X115676977Y-88113887D01*
X115633981Y-88154883D01*
X115506994Y-88228199D01*
X115445979Y-88269533D01*
X115441317Y-88274430D01*
X115441314Y-88274433D01*
X115435463Y-88280580D01*
X115420114Y-88292620D01*
X115419808Y-88292281D01*
X115414927Y-88296689D01*
X115414924Y-88296692D01*
X115375900Y-88331940D01*
X115372808Y-88334733D01*
X115370114Y-88337908D01*
X115290636Y-88431562D01*
X115290634Y-88431565D01*
X115285018Y-88438183D01*
X115281412Y-88446078D01*
X115281410Y-88446082D01*
X115266899Y-88477858D01*
X115224302Y-88571132D01*
X115204300Y-88639253D01*
X115203660Y-88643702D01*
X115203659Y-88643708D01*
X115184139Y-88779475D01*
X115183500Y-88783922D01*
X115183500Y-94107349D01*
X115192781Y-94204534D01*
X115201807Y-94251363D01*
X115202653Y-94254243D01*
X115226691Y-94336109D01*
X115229309Y-94345026D01*
X115233164Y-94351703D01*
X115300137Y-94467706D01*
X115300142Y-94467713D01*
X115302387Y-94471602D01*
X115346274Y-94527409D01*
X115452051Y-94628267D01*
X115460059Y-94632395D01*
X115460061Y-94632397D01*
X115577956Y-94693178D01*
X115577959Y-94693179D01*
X115581960Y-94695242D01*
X115612144Y-94705689D01*
X115669976Y-94746872D01*
X115696363Y-94812783D01*
X115696933Y-94824760D01*
X115696925Y-96134977D01*
X115696483Y-96145520D01*
X115676871Y-96379059D01*
X115673355Y-96399849D01*
X115616390Y-96621719D01*
X115609456Y-96641632D01*
X115526464Y-96828045D01*
X115482025Y-96881114D01*
X115445979Y-96905533D01*
X115441317Y-96910430D01*
X115441314Y-96910433D01*
X115435463Y-96916580D01*
X115420114Y-96928620D01*
X115419808Y-96928281D01*
X115372808Y-96970733D01*
X115358531Y-96987557D01*
X115290636Y-97067562D01*
X115290634Y-97067565D01*
X115285018Y-97074183D01*
X115281412Y-97082078D01*
X115281410Y-97082082D01*
X115248795Y-97153500D01*
X115224302Y-97207132D01*
X115223164Y-97211007D01*
X115181363Y-97267238D01*
X115044939Y-97370800D01*
X115011360Y-97396290D01*
X114993560Y-97407588D01*
X114884270Y-97464730D01*
X114790561Y-97513726D01*
X114771123Y-97521898D01*
X114553273Y-97592696D01*
X114532745Y-97597512D01*
X114306143Y-97630990D01*
X114285099Y-97632316D01*
X114177995Y-97630081D01*
X114056073Y-97627537D01*
X114035113Y-97625335D01*
X113863933Y-97592696D01*
X113810103Y-97582432D01*
X113789794Y-97576764D01*
X113575084Y-97496937D01*
X113556004Y-97487961D01*
X113353028Y-97370800D01*
X113344118Y-97365147D01*
X112302728Y-96641531D01*
X111000000Y-95736321D01*
X110710349Y-95736484D01*
X110683537Y-95685806D01*
X110681000Y-95660647D01*
X110681000Y-95481598D01*
X110680365Y-95473865D01*
X110670082Y-95348801D01*
X110666322Y-95303063D01*
X110607794Y-95070056D01*
X110511997Y-94849737D01*
X110425151Y-94715494D01*
X110384310Y-94652363D01*
X110384308Y-94652360D01*
X110381502Y-94648023D01*
X110219814Y-94470330D01*
X110069606Y-94351703D01*
X110035330Y-94324633D01*
X110035325Y-94324630D01*
X110031276Y-94321432D01*
X110026760Y-94318939D01*
X110026757Y-94318937D01*
X109825474Y-94207823D01*
X109825470Y-94207821D01*
X109820950Y-94205326D01*
X109816081Y-94203602D01*
X109816077Y-94203600D01*
X109599360Y-94126856D01*
X109599356Y-94126855D01*
X109594485Y-94125130D01*
X109589392Y-94124223D01*
X109589389Y-94124222D01*
X109363052Y-94083905D01*
X109363046Y-94083904D01*
X109357963Y-94082999D01*
X109265474Y-94081869D01*
X109122907Y-94080127D01*
X109122905Y-94080127D01*
X109117737Y-94080064D01*
X108880256Y-94116404D01*
X108768003Y-94153094D01*
X108656817Y-94189434D01*
X108656811Y-94189437D01*
X108651899Y-94191042D01*
X108647313Y-94193429D01*
X108647309Y-94193431D01*
X108443393Y-94299584D01*
X108438800Y-94301975D01*
X108434657Y-94305085D01*
X108434658Y-94305085D01*
X108381462Y-94345026D01*
X108246680Y-94446223D01*
X108226703Y-94467128D01*
X108093845Y-94606156D01*
X108080699Y-94619912D01*
X107945314Y-94818378D01*
X107943140Y-94823061D01*
X107943138Y-94823065D01*
X107854049Y-95014992D01*
X107844163Y-95036290D01*
X107779960Y-95267798D01*
X107779411Y-95272935D01*
X107765272Y-95405242D01*
X107759000Y-95463928D01*
X107759000Y-95612212D01*
X107738998Y-95680333D01*
X107685342Y-95726826D01*
X107633074Y-95738211D01*
X106791900Y-95738684D01*
X105727071Y-95739281D01*
X105658939Y-95719317D01*
X105612416Y-95665688D01*
X105601000Y-95613281D01*
X105601000Y-94541866D01*
X105594245Y-94479684D01*
X105543115Y-94343295D01*
X105455761Y-94226739D01*
X105339205Y-94139385D01*
X105202816Y-94088255D01*
X105140634Y-94081500D01*
X103139366Y-94081500D01*
X103077184Y-94088255D01*
X102940795Y-94139385D01*
X102824239Y-94226739D01*
X102736885Y-94343295D01*
X102685755Y-94479684D01*
X102679000Y-94541866D01*
X102679000Y-95531051D01*
X102658998Y-95599172D01*
X102605342Y-95645665D01*
X102535068Y-95655769D01*
X102519300Y-95652102D01*
X102517288Y-95651206D01*
X102414351Y-95629326D01*
X102336944Y-95612872D01*
X102336939Y-95612872D01*
X102330487Y-95611500D01*
X102139513Y-95611500D01*
X102133061Y-95612872D01*
X102133056Y-95612872D01*
X102050615Y-95630396D01*
X101952712Y-95651206D01*
X101823748Y-95708624D01*
X101753382Y-95718058D01*
X101689085Y-95687952D01*
X101651271Y-95627863D01*
X101646500Y-95593517D01*
X101646500Y-95058498D01*
X101645145Y-95041282D01*
X101644067Y-95027579D01*
X101644066Y-95027574D01*
X101643562Y-95021169D01*
X101597145Y-94861399D01*
X101529414Y-94746872D01*
X101516491Y-94725020D01*
X101516489Y-94725017D01*
X101512453Y-94718193D01*
X101394807Y-94600547D01*
X101387983Y-94596511D01*
X101387980Y-94596509D01*
X101258427Y-94519892D01*
X101258428Y-94519892D01*
X101251601Y-94515855D01*
X101243990Y-94513644D01*
X101243988Y-94513643D01*
X101154139Y-94487540D01*
X101091831Y-94469438D01*
X101085426Y-94468934D01*
X101085421Y-94468933D01*
X101056958Y-94466693D01*
X101056950Y-94466693D01*
X101054502Y-94466500D01*
X100621498Y-94466500D01*
X100619050Y-94466693D01*
X100619042Y-94466693D01*
X100590579Y-94468933D01*
X100590574Y-94468934D01*
X100584169Y-94469438D01*
X100521861Y-94487540D01*
X100432012Y-94513643D01*
X100432010Y-94513644D01*
X100424399Y-94515855D01*
X100281193Y-94600547D01*
X100278511Y-94603229D01*
X100214139Y-94628502D01*
X100144516Y-94614600D01*
X100128688Y-94604428D01*
X100124807Y-94600547D01*
X99981601Y-94515855D01*
X99973990Y-94513644D01*
X99973988Y-94513643D01*
X99884139Y-94487540D01*
X99821831Y-94469438D01*
X99815426Y-94468934D01*
X99815421Y-94468933D01*
X99786958Y-94466693D01*
X99786950Y-94466693D01*
X99784502Y-94466500D01*
X99351498Y-94466500D01*
X99349050Y-94466693D01*
X99349042Y-94466693D01*
X99320579Y-94468933D01*
X99320574Y-94468934D01*
X99314169Y-94469438D01*
X99251861Y-94487540D01*
X99162012Y-94513643D01*
X99162010Y-94513644D01*
X99154399Y-94515855D01*
X99011193Y-94600547D01*
X99008511Y-94603229D01*
X98944139Y-94628502D01*
X98874516Y-94614600D01*
X98858688Y-94604428D01*
X98854807Y-94600547D01*
X98711601Y-94515855D01*
X98703990Y-94513644D01*
X98703988Y-94513643D01*
X98614139Y-94487540D01*
X98551831Y-94469438D01*
X98545426Y-94468934D01*
X98545421Y-94468933D01*
X98516958Y-94466693D01*
X98516950Y-94466693D01*
X98514502Y-94466500D01*
X98081498Y-94466500D01*
X98079050Y-94466693D01*
X98079042Y-94466693D01*
X98050579Y-94468933D01*
X98050574Y-94468934D01*
X98044169Y-94469438D01*
X97981861Y-94487540D01*
X97892012Y-94513643D01*
X97892010Y-94513644D01*
X97884399Y-94515855D01*
X97741193Y-94600547D01*
X97738511Y-94603229D01*
X97674139Y-94628502D01*
X97604516Y-94614600D01*
X97588688Y-94604428D01*
X97584807Y-94600547D01*
X97441601Y-94515855D01*
X97433990Y-94513644D01*
X97433988Y-94513643D01*
X97344139Y-94487540D01*
X97281831Y-94469438D01*
X97275426Y-94468934D01*
X97275421Y-94468933D01*
X97246958Y-94466693D01*
X97246950Y-94466693D01*
X97244502Y-94466500D01*
X96811498Y-94466500D01*
X96809050Y-94466693D01*
X96809042Y-94466693D01*
X96780579Y-94468933D01*
X96780574Y-94468934D01*
X96774169Y-94469438D01*
X96711861Y-94487540D01*
X96622012Y-94513643D01*
X96622010Y-94513644D01*
X96614399Y-94515855D01*
X96607572Y-94519892D01*
X96607573Y-94519892D01*
X96478020Y-94596509D01*
X96478017Y-94596511D01*
X96471193Y-94600547D01*
X96353547Y-94718193D01*
X96349511Y-94725017D01*
X96349509Y-94725020D01*
X96336586Y-94746872D01*
X96268855Y-94861399D01*
X96222438Y-95021169D01*
X96221934Y-95027574D01*
X96221933Y-95027579D01*
X96220855Y-95041282D01*
X96219500Y-95058498D01*
X96219500Y-95618691D01*
X96199498Y-95686812D01*
X96145842Y-95733305D01*
X96093571Y-95744691D01*
X95567071Y-95744986D01*
X95498939Y-95725022D01*
X95452416Y-95671393D01*
X95441000Y-95618986D01*
X95441000Y-95481598D01*
X95440365Y-95473865D01*
X95430082Y-95348801D01*
X95426322Y-95303063D01*
X95367794Y-95070056D01*
X95271997Y-94849737D01*
X95185151Y-94715494D01*
X95144310Y-94652363D01*
X95144308Y-94652360D01*
X95141502Y-94648023D01*
X94979814Y-94470330D01*
X94829606Y-94351703D01*
X94795330Y-94324633D01*
X94795325Y-94324630D01*
X94791276Y-94321432D01*
X94786760Y-94318939D01*
X94786757Y-94318937D01*
X94585474Y-94207823D01*
X94585470Y-94207821D01*
X94580950Y-94205326D01*
X94576081Y-94203602D01*
X94576077Y-94203600D01*
X94359360Y-94126856D01*
X94359356Y-94126855D01*
X94354485Y-94125130D01*
X94349392Y-94124223D01*
X94349389Y-94124222D01*
X94123052Y-94083905D01*
X94123046Y-94083904D01*
X94117963Y-94082999D01*
X94025474Y-94081869D01*
X93882907Y-94080127D01*
X93882905Y-94080127D01*
X93877737Y-94080064D01*
X93640256Y-94116404D01*
X93528003Y-94153094D01*
X93416817Y-94189434D01*
X93416811Y-94189437D01*
X93411899Y-94191042D01*
X93407313Y-94193429D01*
X93407309Y-94193431D01*
X93203393Y-94299584D01*
X93198800Y-94301975D01*
X93194657Y-94305085D01*
X93194658Y-94305085D01*
X93141462Y-94345026D01*
X93006680Y-94446223D01*
X92986703Y-94467128D01*
X92853845Y-94606156D01*
X92840699Y-94619912D01*
X92705314Y-94818378D01*
X92703140Y-94823061D01*
X92703138Y-94823065D01*
X92614049Y-95014992D01*
X92604163Y-95036290D01*
X92539960Y-95267798D01*
X92539411Y-95272935D01*
X92525272Y-95405242D01*
X92519000Y-95463928D01*
X92519000Y-95620769D01*
X92498998Y-95688890D01*
X92445342Y-95735383D01*
X92393071Y-95746769D01*
X91555047Y-95747239D01*
X90487071Y-95747839D01*
X90418939Y-95727875D01*
X90372416Y-95674246D01*
X90361000Y-95621839D01*
X90361000Y-94541866D01*
X90354245Y-94479684D01*
X90303115Y-94343295D01*
X90215761Y-94226739D01*
X90099205Y-94139385D01*
X89962816Y-94088255D01*
X89900634Y-94081500D01*
X87899366Y-94081500D01*
X87837184Y-94088255D01*
X87700795Y-94139385D01*
X87584239Y-94226739D01*
X87496885Y-94343295D01*
X87445755Y-94479684D01*
X87439000Y-94541866D01*
X87439000Y-95508551D01*
X87418998Y-95576672D01*
X87365342Y-95623165D01*
X87295068Y-95633269D01*
X87279300Y-95629602D01*
X87277288Y-95628706D01*
X87178603Y-95607730D01*
X87096944Y-95590372D01*
X87096939Y-95590372D01*
X87090487Y-95589000D01*
X87035571Y-95589000D01*
X86967450Y-95568998D01*
X86941288Y-95545800D01*
X86939500Y-95542982D01*
X86889848Y-95496356D01*
X86887007Y-95493602D01*
X86867270Y-95473865D01*
X86864073Y-95471385D01*
X86855051Y-95463680D01*
X86828600Y-95438841D01*
X86822821Y-95433414D01*
X86815875Y-95429595D01*
X86815872Y-95429593D01*
X86805066Y-95423652D01*
X86788547Y-95412801D01*
X86788083Y-95412441D01*
X86772541Y-95400386D01*
X86765272Y-95397241D01*
X86765268Y-95397238D01*
X86731963Y-95382826D01*
X86721313Y-95377609D01*
X86682560Y-95356305D01*
X86662937Y-95351267D01*
X86644234Y-95344863D01*
X86632920Y-95339967D01*
X86632919Y-95339967D01*
X86625645Y-95336819D01*
X86617822Y-95335580D01*
X86617812Y-95335577D01*
X86581976Y-95329901D01*
X86570356Y-95327495D01*
X86535211Y-95318472D01*
X86535210Y-95318472D01*
X86527530Y-95316500D01*
X86507276Y-95316500D01*
X86487565Y-95314949D01*
X86475386Y-95313020D01*
X86467557Y-95311780D01*
X86459665Y-95312526D01*
X86423539Y-95315941D01*
X86411681Y-95316500D01*
X86024500Y-95316500D01*
X85956379Y-95296498D01*
X85909886Y-95242842D01*
X85898500Y-95190500D01*
X85898500Y-95058498D01*
X85897145Y-95041282D01*
X85896067Y-95027579D01*
X85896066Y-95027574D01*
X85895562Y-95021169D01*
X85849145Y-94861399D01*
X85781414Y-94746872D01*
X85768491Y-94725020D01*
X85768489Y-94725017D01*
X85764453Y-94718193D01*
X85646807Y-94600547D01*
X85639983Y-94596511D01*
X85639980Y-94596509D01*
X85510427Y-94519892D01*
X85510428Y-94519892D01*
X85503601Y-94515855D01*
X85495990Y-94513644D01*
X85495988Y-94513643D01*
X85406139Y-94487540D01*
X85343831Y-94469438D01*
X85337426Y-94468934D01*
X85337421Y-94468933D01*
X85308958Y-94466693D01*
X85308950Y-94466693D01*
X85306502Y-94466500D01*
X84873498Y-94466500D01*
X84871050Y-94466693D01*
X84871042Y-94466693D01*
X84842579Y-94468933D01*
X84842574Y-94468934D01*
X84836169Y-94469438D01*
X84773861Y-94487540D01*
X84684012Y-94513643D01*
X84684010Y-94513644D01*
X84676399Y-94515855D01*
X84533193Y-94600547D01*
X84530511Y-94603229D01*
X84466139Y-94628502D01*
X84396516Y-94614600D01*
X84380688Y-94604428D01*
X84376807Y-94600547D01*
X84233601Y-94515855D01*
X84225990Y-94513644D01*
X84225988Y-94513643D01*
X84136139Y-94487540D01*
X84073831Y-94469438D01*
X84067426Y-94468934D01*
X84067421Y-94468933D01*
X84038958Y-94466693D01*
X84038950Y-94466693D01*
X84036502Y-94466500D01*
X83603498Y-94466500D01*
X83601050Y-94466693D01*
X83601042Y-94466693D01*
X83572579Y-94468933D01*
X83572574Y-94468934D01*
X83566169Y-94469438D01*
X83503861Y-94487540D01*
X83414012Y-94513643D01*
X83414010Y-94513644D01*
X83406399Y-94515855D01*
X83263193Y-94600547D01*
X83260511Y-94603229D01*
X83196139Y-94628502D01*
X83126516Y-94614600D01*
X83110688Y-94604428D01*
X83106807Y-94600547D01*
X82963601Y-94515855D01*
X82955990Y-94513644D01*
X82955988Y-94513643D01*
X82866139Y-94487540D01*
X82803831Y-94469438D01*
X82797426Y-94468934D01*
X82797421Y-94468933D01*
X82768958Y-94466693D01*
X82768950Y-94466693D01*
X82766502Y-94466500D01*
X82333498Y-94466500D01*
X82331050Y-94466693D01*
X82331042Y-94466693D01*
X82302579Y-94468933D01*
X82302574Y-94468934D01*
X82296169Y-94469438D01*
X82233861Y-94487540D01*
X82144012Y-94513643D01*
X82144010Y-94513644D01*
X82136399Y-94515855D01*
X81993193Y-94600547D01*
X81990511Y-94603229D01*
X81926139Y-94628502D01*
X81856516Y-94614600D01*
X81840688Y-94604428D01*
X81836807Y-94600547D01*
X81693601Y-94515855D01*
X81685990Y-94513644D01*
X81685988Y-94513643D01*
X81596139Y-94487540D01*
X81533831Y-94469438D01*
X81527426Y-94468934D01*
X81527421Y-94468933D01*
X81498958Y-94466693D01*
X81498950Y-94466693D01*
X81496502Y-94466500D01*
X81063498Y-94466500D01*
X81061050Y-94466693D01*
X81061042Y-94466693D01*
X81032579Y-94468933D01*
X81032574Y-94468934D01*
X81026169Y-94469438D01*
X80963861Y-94487540D01*
X80874012Y-94513643D01*
X80874010Y-94513644D01*
X80866399Y-94515855D01*
X80859572Y-94519892D01*
X80859573Y-94519892D01*
X80730020Y-94596509D01*
X80730017Y-94596511D01*
X80723193Y-94600547D01*
X80605547Y-94718193D01*
X80601511Y-94725017D01*
X80601509Y-94725020D01*
X80588586Y-94746872D01*
X80520855Y-94861399D01*
X80474438Y-95021169D01*
X80473934Y-95027574D01*
X80473933Y-95027579D01*
X80472855Y-95041282D01*
X80471500Y-95058498D01*
X80471500Y-95627534D01*
X80451498Y-95695655D01*
X80397842Y-95742148D01*
X80345572Y-95753533D01*
X80327067Y-95753544D01*
X80258937Y-95733579D01*
X80212415Y-95679948D01*
X80201000Y-95627544D01*
X80201000Y-95481598D01*
X80200365Y-95473865D01*
X80190082Y-95348801D01*
X80186322Y-95303063D01*
X80127794Y-95070056D01*
X80031997Y-94849737D01*
X79945151Y-94715494D01*
X79904310Y-94652363D01*
X79904308Y-94652360D01*
X79901502Y-94648023D01*
X79739814Y-94470330D01*
X79589606Y-94351703D01*
X79555330Y-94324633D01*
X79555325Y-94324630D01*
X79551276Y-94321432D01*
X79546760Y-94318939D01*
X79546757Y-94318937D01*
X79345474Y-94207823D01*
X79345470Y-94207821D01*
X79340950Y-94205326D01*
X79336081Y-94203602D01*
X79336077Y-94203600D01*
X79119360Y-94126856D01*
X79119356Y-94126855D01*
X79114485Y-94125130D01*
X79109392Y-94124223D01*
X79109389Y-94124222D01*
X78883052Y-94083905D01*
X78883046Y-94083904D01*
X78877963Y-94082999D01*
X78785474Y-94081869D01*
X78642907Y-94080127D01*
X78642905Y-94080127D01*
X78637737Y-94080064D01*
X78400256Y-94116404D01*
X78288003Y-94153094D01*
X78176817Y-94189434D01*
X78176811Y-94189437D01*
X78171899Y-94191042D01*
X78167313Y-94193429D01*
X78167309Y-94193431D01*
X77963393Y-94299584D01*
X77958800Y-94301975D01*
X77954657Y-94305085D01*
X77954658Y-94305085D01*
X77901462Y-94345026D01*
X77766680Y-94446223D01*
X77746703Y-94467128D01*
X77613845Y-94606156D01*
X77600699Y-94619912D01*
X77465314Y-94818378D01*
X77463140Y-94823061D01*
X77463138Y-94823065D01*
X77374049Y-95014992D01*
X77364163Y-95036290D01*
X77299960Y-95267798D01*
X77299411Y-95272935D01*
X77285272Y-95405242D01*
X77279000Y-95463928D01*
X77279000Y-95629326D01*
X77258998Y-95697447D01*
X77205342Y-95743940D01*
X77153072Y-95755326D01*
X75247070Y-95756396D01*
X75178939Y-95736432D01*
X75132416Y-95682803D01*
X75121000Y-95630396D01*
X75121000Y-94541866D01*
X75114245Y-94479684D01*
X75063115Y-94343295D01*
X74975761Y-94226739D01*
X74859205Y-94139385D01*
X74722816Y-94088255D01*
X74660634Y-94081500D01*
X72659366Y-94081500D01*
X72597184Y-94088255D01*
X72460795Y-94139385D01*
X72344239Y-94226739D01*
X72256885Y-94343295D01*
X72205755Y-94479684D01*
X72199000Y-94541866D01*
X72199000Y-96638134D01*
X72205755Y-96700316D01*
X72256885Y-96836705D01*
X72344239Y-96953261D01*
X72351419Y-96958642D01*
X72390000Y-96987557D01*
X72390000Y-100198044D01*
X72389612Y-100207930D01*
X72370451Y-100451388D01*
X72367358Y-100470916D01*
X72311509Y-100703546D01*
X72305401Y-100722345D01*
X72213845Y-100943381D01*
X72204871Y-100960992D01*
X72079865Y-101164982D01*
X72068250Y-101180970D01*
X71912873Y-101362893D01*
X71898895Y-101376871D01*
X71716970Y-101532250D01*
X71700982Y-101543865D01*
X71496992Y-101668871D01*
X71479381Y-101677845D01*
X71258345Y-101769401D01*
X71239551Y-101775507D01*
X71006916Y-101831358D01*
X70987388Y-101834451D01*
X70748885Y-101853222D01*
X70729115Y-101853222D01*
X70490612Y-101834451D01*
X70471084Y-101831358D01*
X70238449Y-101775507D01*
X70219655Y-101769401D01*
X69998619Y-101677845D01*
X69981008Y-101668871D01*
X69777018Y-101543865D01*
X69761030Y-101532250D01*
X69579105Y-101376871D01*
X69565127Y-101362893D01*
X69409750Y-101180970D01*
X69398135Y-101164982D01*
X69273129Y-100960992D01*
X69264155Y-100943381D01*
X69172599Y-100722345D01*
X69166491Y-100703546D01*
X69110642Y-100470916D01*
X69107549Y-100451388D01*
X69088388Y-100207930D01*
X69088000Y-100198044D01*
X69088000Y-91059000D01*
X67945000Y-90043000D01*
X66491579Y-90043000D01*
X66477471Y-90042208D01*
X66343173Y-90027076D01*
X66315666Y-90020797D01*
X66194833Y-89978516D01*
X66169412Y-89966274D01*
X66061011Y-89898161D01*
X66038952Y-89880569D01*
X65948431Y-89790048D01*
X65930839Y-89767989D01*
X65862726Y-89659588D01*
X65850484Y-89634167D01*
X65808203Y-89513334D01*
X65801924Y-89485826D01*
X65787590Y-89358607D01*
X65787590Y-89330393D01*
X65801924Y-89203174D01*
X65808203Y-89175666D01*
X65850484Y-89054833D01*
X65862726Y-89029412D01*
X65930839Y-88921011D01*
X65948431Y-88898952D01*
X66038952Y-88808431D01*
X66061011Y-88790839D01*
X66169412Y-88722726D01*
X66194833Y-88710484D01*
X66315666Y-88668203D01*
X66343173Y-88661924D01*
X66477471Y-88646792D01*
X66491579Y-88646000D01*
X68580000Y-88646000D01*
X68900997Y-88477858D01*
X68934771Y-88473906D01*
X68953232Y-88478516D01*
X68966139Y-88482797D01*
X68972975Y-88483497D01*
X68972978Y-88483498D01*
X69016031Y-88487909D01*
X69070600Y-88493500D01*
X70121400Y-88493500D01*
X70124646Y-88493163D01*
X70124650Y-88493163D01*
X70220308Y-88483238D01*
X70220312Y-88483237D01*
X70227166Y-88482526D01*
X70233702Y-88480345D01*
X70233704Y-88480345D01*
X70387998Y-88428868D01*
X70394946Y-88426550D01*
X70545348Y-88333478D01*
X70584043Y-88294716D01*
X70665134Y-88213483D01*
X70670305Y-88208303D01*
X70763115Y-88057738D01*
X70818797Y-87889861D01*
X70829500Y-87785400D01*
X70829500Y-87552482D01*
X70849502Y-87484361D01*
X70906126Y-87436559D01*
X71098505Y-87354623D01*
X71117571Y-87348246D01*
X71407799Y-87276335D01*
X71427627Y-87273074D01*
X71530724Y-87264483D01*
X71730632Y-87247826D01*
X71740684Y-87247392D01*
X78681234Y-87224784D01*
X78711554Y-87229536D01*
X78711712Y-87228794D01*
X78892056Y-87267128D01*
X78892061Y-87267128D01*
X78898513Y-87268500D01*
X79089487Y-87268500D01*
X79095939Y-87267128D01*
X79095944Y-87267128D01*
X79225657Y-87239556D01*
X79276288Y-87228794D01*
X79277363Y-87228316D01*
X79312272Y-87222729D01*
X79785696Y-87221187D01*
X79853881Y-87240967D01*
X79879741Y-87262874D01*
X79902331Y-87287962D01*
X79906747Y-87292866D01*
X79914429Y-87298447D01*
X80053648Y-87399596D01*
X80061248Y-87405118D01*
X80067276Y-87407802D01*
X80067278Y-87407803D01*
X80229140Y-87479868D01*
X80235712Y-87482794D01*
X80323952Y-87501550D01*
X80416056Y-87521128D01*
X80416061Y-87521128D01*
X80422513Y-87522500D01*
X80613487Y-87522500D01*
X80619939Y-87521128D01*
X80619944Y-87521128D01*
X80712048Y-87501550D01*
X80800288Y-87482794D01*
X80806860Y-87479868D01*
X80968722Y-87407803D01*
X80968724Y-87407802D01*
X80974752Y-87405118D01*
X80982353Y-87399596D01*
X81121571Y-87298447D01*
X81129253Y-87292866D01*
X81133669Y-87287962D01*
X81138580Y-87283540D01*
X81140221Y-87285362D01*
X81191210Y-87253950D01*
X81224399Y-87249500D01*
X81554986Y-87249500D01*
X81623107Y-87269502D01*
X81644004Y-87286327D01*
X81737136Y-87379296D01*
X81767197Y-87409305D01*
X81773427Y-87413145D01*
X81773428Y-87413146D01*
X81910590Y-87497694D01*
X81917762Y-87502115D01*
X81975085Y-87521128D01*
X82079111Y-87555632D01*
X82079113Y-87555632D01*
X82085639Y-87557797D01*
X82092475Y-87558497D01*
X82092478Y-87558498D01*
X82135531Y-87562909D01*
X82190100Y-87568500D01*
X82815900Y-87568500D01*
X82819146Y-87568163D01*
X82819150Y-87568163D01*
X82914808Y-87558238D01*
X82914812Y-87558237D01*
X82921666Y-87557526D01*
X82928202Y-87555345D01*
X82928204Y-87555345D01*
X83060306Y-87511272D01*
X83089446Y-87501550D01*
X83239848Y-87408478D01*
X83326284Y-87321891D01*
X83388566Y-87287812D01*
X83459386Y-87292815D01*
X83504475Y-87321736D01*
X83562136Y-87379296D01*
X83592197Y-87409305D01*
X83598427Y-87413145D01*
X83598428Y-87413146D01*
X83735590Y-87497694D01*
X83742762Y-87502115D01*
X83800085Y-87521128D01*
X83904111Y-87555632D01*
X83904113Y-87555632D01*
X83910639Y-87557797D01*
X83917475Y-87558497D01*
X83917478Y-87558498D01*
X83960531Y-87562909D01*
X84015100Y-87568500D01*
X84640900Y-87568500D01*
X84644146Y-87568163D01*
X84644150Y-87568163D01*
X84739808Y-87558238D01*
X84739812Y-87558237D01*
X84746666Y-87557526D01*
X84753202Y-87555345D01*
X84753204Y-87555345D01*
X84885306Y-87511272D01*
X84914446Y-87501550D01*
X85064848Y-87408478D01*
X85070022Y-87403295D01*
X85070027Y-87403291D01*
X85085924Y-87387367D01*
X85148207Y-87353288D01*
X85219027Y-87358293D01*
X85253188Y-87377504D01*
X85256512Y-87380130D01*
X85261697Y-87385305D01*
X85267933Y-87389149D01*
X85405090Y-87473694D01*
X85412262Y-87478115D01*
X85471291Y-87497694D01*
X85573611Y-87531632D01*
X85573613Y-87531632D01*
X85580139Y-87533797D01*
X85586975Y-87534497D01*
X85586978Y-87534498D01*
X85630031Y-87538909D01*
X85684600Y-87544500D01*
X87035400Y-87544500D01*
X87038646Y-87544163D01*
X87038650Y-87544163D01*
X87134307Y-87534238D01*
X87134311Y-87534237D01*
X87141165Y-87533526D01*
X87147701Y-87531345D01*
X87147703Y-87531345D01*
X87293227Y-87482794D01*
X87308945Y-87477550D01*
X87459348Y-87384478D01*
X87584305Y-87259303D01*
X87588148Y-87253069D01*
X87592683Y-87247327D01*
X87594256Y-87248569D01*
X87639544Y-87207815D01*
X87693616Y-87195428D01*
X88278741Y-87193522D01*
X88346926Y-87213302D01*
X88353212Y-87217585D01*
X88366863Y-87227503D01*
X88372891Y-87230187D01*
X88372893Y-87230188D01*
X88533717Y-87301791D01*
X88541327Y-87305179D01*
X88634727Y-87325032D01*
X88721671Y-87343513D01*
X88721676Y-87343513D01*
X88728128Y-87344885D01*
X88919102Y-87344885D01*
X88925554Y-87343513D01*
X88925559Y-87343513D01*
X89012503Y-87325032D01*
X89105903Y-87305179D01*
X89113513Y-87301791D01*
X89274339Y-87230187D01*
X89274340Y-87230186D01*
X89280367Y-87227503D01*
X89298922Y-87214022D01*
X89372570Y-87189959D01*
X91652492Y-87182532D01*
X92955073Y-87178290D01*
X93023258Y-87198070D01*
X93049117Y-87219976D01*
X93114747Y-87292866D01*
X93199748Y-87354623D01*
X93261648Y-87399596D01*
X93269248Y-87405118D01*
X93275276Y-87407802D01*
X93275278Y-87407803D01*
X93437140Y-87479868D01*
X93443712Y-87482794D01*
X93531952Y-87501550D01*
X93624056Y-87521128D01*
X93624061Y-87521128D01*
X93630513Y-87522500D01*
X93821487Y-87522500D01*
X93827939Y-87521128D01*
X93827944Y-87521128D01*
X93920048Y-87501550D01*
X94008288Y-87482794D01*
X94014860Y-87479868D01*
X94176724Y-87407802D01*
X94176725Y-87407801D01*
X94182752Y-87405118D01*
X94198064Y-87393993D01*
X94264932Y-87370135D01*
X94334084Y-87386215D01*
X94352373Y-87400100D01*
X94352771Y-87399596D01*
X94358517Y-87404134D01*
X94363697Y-87409305D01*
X94369927Y-87413145D01*
X94369928Y-87413146D01*
X94507090Y-87497694D01*
X94514262Y-87502115D01*
X94571585Y-87521128D01*
X94675611Y-87555632D01*
X94675613Y-87555632D01*
X94682139Y-87557797D01*
X94688975Y-87558497D01*
X94688978Y-87558498D01*
X94732031Y-87562909D01*
X94786600Y-87568500D01*
X95412400Y-87568500D01*
X95415646Y-87568163D01*
X95415650Y-87568163D01*
X95511308Y-87558238D01*
X95511312Y-87558237D01*
X95518166Y-87557526D01*
X95524702Y-87555345D01*
X95524704Y-87555345D01*
X95656806Y-87511272D01*
X95685946Y-87501550D01*
X95836348Y-87408478D01*
X95922784Y-87321891D01*
X95985066Y-87287812D01*
X96055886Y-87292815D01*
X96100975Y-87321736D01*
X96158636Y-87379296D01*
X96188697Y-87409305D01*
X96194927Y-87413145D01*
X96194928Y-87413146D01*
X96332090Y-87497694D01*
X96339262Y-87502115D01*
X96396585Y-87521128D01*
X96500611Y-87555632D01*
X96500613Y-87555632D01*
X96507139Y-87557797D01*
X96513975Y-87558497D01*
X96513978Y-87558498D01*
X96557031Y-87562909D01*
X96611600Y-87568500D01*
X97237400Y-87568500D01*
X97240646Y-87568163D01*
X97240650Y-87568163D01*
X97336308Y-87558238D01*
X97336312Y-87558237D01*
X97343166Y-87557526D01*
X97349702Y-87555345D01*
X97349704Y-87555345D01*
X97481806Y-87511272D01*
X97510946Y-87501550D01*
X97661348Y-87408478D01*
X97711446Y-87358293D01*
X97733830Y-87335870D01*
X97796113Y-87301791D01*
X97866933Y-87306794D01*
X97912020Y-87335714D01*
X97961697Y-87385305D01*
X97967927Y-87389145D01*
X97967928Y-87389146D01*
X98105090Y-87473694D01*
X98112262Y-87478115D01*
X98171291Y-87497694D01*
X98273611Y-87531632D01*
X98273613Y-87531632D01*
X98280139Y-87533797D01*
X98286975Y-87534497D01*
X98286978Y-87534498D01*
X98330031Y-87538909D01*
X98384600Y-87544500D01*
X99735400Y-87544500D01*
X99738646Y-87544163D01*
X99738650Y-87544163D01*
X99834307Y-87534238D01*
X99834311Y-87534237D01*
X99841165Y-87533526D01*
X99847701Y-87531345D01*
X99847703Y-87531345D01*
X99993227Y-87482794D01*
X100008945Y-87477550D01*
X100159348Y-87384478D01*
X100284305Y-87259303D01*
X100291647Y-87247392D01*
X100312318Y-87213859D01*
X100365090Y-87166366D01*
X100419166Y-87153977D01*
X100913281Y-87152367D01*
X101621677Y-87150060D01*
X101673333Y-87160951D01*
X101750770Y-87195428D01*
X101818152Y-87225428D01*
X101825712Y-87228794D01*
X101913208Y-87247392D01*
X102006056Y-87267128D01*
X102006061Y-87267128D01*
X102012513Y-87268500D01*
X102203487Y-87268500D01*
X102209939Y-87267128D01*
X102209944Y-87267128D01*
X102302792Y-87247392D01*
X102390288Y-87228794D01*
X102396315Y-87226111D01*
X102396323Y-87226108D01*
X102549829Y-87157763D01*
X102600667Y-87146871D01*
X103345405Y-87144445D01*
X105212641Y-87138363D01*
X105280824Y-87158142D01*
X105327492Y-87211646D01*
X105332880Y-87225420D01*
X105337473Y-87239556D01*
X105340776Y-87245278D01*
X105340777Y-87245279D01*
X105365420Y-87287962D01*
X105432960Y-87404944D01*
X105437378Y-87409851D01*
X105437379Y-87409852D01*
X105548980Y-87533797D01*
X105560747Y-87546866D01*
X105576757Y-87558498D01*
X105696593Y-87645564D01*
X105715248Y-87659118D01*
X105721276Y-87661802D01*
X105721278Y-87661803D01*
X105883681Y-87734109D01*
X105889712Y-87736794D01*
X105983112Y-87756647D01*
X106070056Y-87775128D01*
X106070061Y-87775128D01*
X106076513Y-87776500D01*
X106267487Y-87776500D01*
X106273939Y-87775128D01*
X106273944Y-87775128D01*
X106360888Y-87756647D01*
X106454288Y-87736794D01*
X106460319Y-87734109D01*
X106622722Y-87661803D01*
X106622724Y-87661802D01*
X106628752Y-87659118D01*
X106647408Y-87645564D01*
X106767243Y-87558498D01*
X106783253Y-87546866D01*
X106795020Y-87533797D01*
X106906621Y-87409852D01*
X106906622Y-87409851D01*
X106911040Y-87404944D01*
X106978580Y-87287962D01*
X107003223Y-87245279D01*
X107003224Y-87245278D01*
X107006527Y-87239556D01*
X107009992Y-87228894D01*
X107013150Y-87219173D01*
X107053223Y-87160567D01*
X107118619Y-87132929D01*
X107132573Y-87132109D01*
X107733319Y-87130152D01*
X110236000Y-87122000D01*
X110683966Y-85742265D01*
X111939138Y-81876335D01*
X111969885Y-81826150D01*
X111980038Y-81815997D01*
X111986304Y-81810143D01*
X111986786Y-81809723D01*
X112029274Y-81772658D01*
X112065499Y-81721114D01*
X112069425Y-81715829D01*
X112103602Y-81672241D01*
X112103604Y-81672237D01*
X112108291Y-81666260D01*
X112111416Y-81659339D01*
X112113272Y-81656274D01*
X112120508Y-81643587D01*
X112122188Y-81640454D01*
X112126556Y-81634239D01*
X112149452Y-81575513D01*
X112151993Y-81569469D01*
X112174784Y-81518993D01*
X112174784Y-81518992D01*
X112177912Y-81512065D01*
X112179297Y-81504592D01*
X112180367Y-81501177D01*
X112184366Y-81487142D01*
X112185253Y-81483687D01*
X112188012Y-81476611D01*
X112196235Y-81414147D01*
X112197266Y-81407639D01*
X112203242Y-81375400D01*
X112208744Y-81345713D01*
X112205209Y-81284405D01*
X112205000Y-81277153D01*
X112205000Y-81077423D01*
X112211158Y-81038513D01*
X113056498Y-78434866D01*
X113059921Y-78425582D01*
X113148653Y-78211237D01*
X113157628Y-78193615D01*
X113218287Y-78094589D01*
X113259428Y-78053261D01*
X113361120Y-77990332D01*
X113367348Y-77986478D01*
X113492305Y-77861303D01*
X113585115Y-77710738D01*
X113587420Y-77703787D01*
X113590512Y-77697157D01*
X113591728Y-77697724D01*
X113627751Y-77645726D01*
X113641069Y-77636327D01*
X113831379Y-77519680D01*
X113848998Y-77510700D01*
X114058734Y-77423808D01*
X114077541Y-77417697D01*
X114298293Y-77364690D01*
X114317822Y-77361596D01*
X114542896Y-77343880D01*
X114565132Y-77344098D01*
G37*
%TD.AperFunction*%
%TD*%
%TA.AperFunction,Conductor*%
%TO.N,VSC*%
G36*
X49535474Y-92710479D02*
G01*
X49583516Y-92714682D01*
X49739555Y-92728334D01*
X49761178Y-92732146D01*
X49911625Y-92772458D01*
X49953718Y-92783737D01*
X49974358Y-92791249D01*
X50155015Y-92875492D01*
X50174026Y-92886468D01*
X50315489Y-92985522D01*
X50337314Y-93000804D01*
X50354138Y-93014922D01*
X50495078Y-93155862D01*
X50509196Y-93172686D01*
X50623528Y-93335969D01*
X50634510Y-93354990D01*
X50708347Y-93513333D01*
X50719479Y-93553576D01*
X50720474Y-93563166D01*
X50758053Y-93675804D01*
X50760227Y-93683041D01*
X50777852Y-93748817D01*
X50781667Y-93770448D01*
X50799521Y-93974526D01*
X50800000Y-93985507D01*
X50800000Y-94409426D01*
X50782480Y-94471237D01*
X50782820Y-94471395D01*
X50781839Y-94473500D01*
X50781260Y-94475541D01*
X50779727Y-94478028D01*
X50779725Y-94478033D01*
X50775885Y-94484262D01*
X50720203Y-94652139D01*
X50719503Y-94658975D01*
X50719502Y-94658978D01*
X50715787Y-94695242D01*
X50709500Y-94756600D01*
X50709500Y-95259466D01*
X50702381Y-95301219D01*
X50640781Y-95476607D01*
X50634073Y-95492240D01*
X50577698Y-95602438D01*
X50554620Y-95634147D01*
X50495517Y-95693250D01*
X50487191Y-95700826D01*
X50480697Y-95704947D01*
X50475274Y-95710722D01*
X50433915Y-95754765D01*
X50431160Y-95757607D01*
X50411361Y-95777406D01*
X50408937Y-95780531D01*
X50408929Y-95780540D01*
X50408863Y-95780626D01*
X50401155Y-95789651D01*
X50370783Y-95821994D01*
X50366965Y-95828938D01*
X50366964Y-95828940D01*
X50360978Y-95839829D01*
X50350127Y-95856347D01*
X50337650Y-95872433D01*
X50320024Y-95913166D01*
X50314807Y-95923814D01*
X50293431Y-95962697D01*
X50291460Y-95970372D01*
X50291458Y-95970378D01*
X50288369Y-95982411D01*
X50281966Y-96001113D01*
X50273883Y-96019792D01*
X50268524Y-96053628D01*
X50266940Y-96063627D01*
X50264535Y-96075240D01*
X50253500Y-96118218D01*
X50253500Y-96126144D01*
X50252506Y-96134012D01*
X50251305Y-96133860D01*
X50235544Y-96190760D01*
X47686757Y-100438740D01*
X47574997Y-100625006D01*
X47569943Y-100632769D01*
X47408494Y-100861802D01*
X47396733Y-100876121D01*
X47206662Y-101075614D01*
X47192928Y-101088054D01*
X46975646Y-101257519D01*
X46960236Y-101267809D01*
X46720458Y-101403569D01*
X46703706Y-101411488D01*
X46446602Y-101510616D01*
X46428877Y-101515991D01*
X46160017Y-101576337D01*
X46141690Y-101579055D01*
X45862244Y-101599659D01*
X45852979Y-101600000D01*
X42644501Y-101600000D01*
X42635513Y-101599679D01*
X42586129Y-101596147D01*
X42364350Y-101580285D01*
X42346567Y-101577728D01*
X42085342Y-101520902D01*
X42068100Y-101515840D01*
X41817607Y-101422411D01*
X41801260Y-101414945D01*
X41566625Y-101286824D01*
X41551502Y-101277105D01*
X41337490Y-101116897D01*
X41323904Y-101105124D01*
X41134876Y-100916096D01*
X41123103Y-100902510D01*
X40962895Y-100688498D01*
X40953176Y-100673375D01*
X40825055Y-100438740D01*
X40817589Y-100422393D01*
X40724160Y-100171900D01*
X40719097Y-100154654D01*
X40662272Y-99893433D01*
X40659714Y-99875645D01*
X40640321Y-99604487D01*
X40640000Y-99595499D01*
X40640000Y-94714501D01*
X40640321Y-94705513D01*
X40656591Y-94478028D01*
X40659715Y-94434350D01*
X40662272Y-94416567D01*
X40719098Y-94155342D01*
X40724161Y-94138097D01*
X40785170Y-93974526D01*
X40817589Y-93887607D01*
X40825055Y-93871260D01*
X40953176Y-93636625D01*
X40962895Y-93621502D01*
X41123103Y-93407490D01*
X41134876Y-93393904D01*
X41323904Y-93204876D01*
X41337490Y-93193103D01*
X41551502Y-93032895D01*
X41566625Y-93023176D01*
X41801260Y-92895055D01*
X41817607Y-92887589D01*
X42068100Y-92794160D01*
X42085342Y-92789098D01*
X42346567Y-92732272D01*
X42364350Y-92729715D01*
X42586129Y-92713853D01*
X42635513Y-92710321D01*
X42644501Y-92710000D01*
X49524493Y-92710000D01*
X49535474Y-92710479D01*
G37*
%TD.AperFunction*%
%TD*%
%TA.AperFunction,Conductor*%
%TO.N,Net-(J3-Pad1)*%
G36*
X85703621Y-100350002D02*
G01*
X85750114Y-100403658D01*
X85761500Y-100456000D01*
X85761500Y-100485400D01*
X85761837Y-100488646D01*
X85761837Y-100488650D01*
X85761937Y-100489607D01*
X85772474Y-100591166D01*
X85828450Y-100758946D01*
X85921522Y-100909348D01*
X86046697Y-101034305D01*
X86197262Y-101127115D01*
X86277005Y-101153564D01*
X86358611Y-101180632D01*
X86358613Y-101180632D01*
X86365139Y-101182797D01*
X86371975Y-101183497D01*
X86371978Y-101183498D01*
X86415031Y-101187909D01*
X86469600Y-101193500D01*
X87123000Y-101193500D01*
X87191121Y-101213502D01*
X87237614Y-101267158D01*
X87249000Y-101319500D01*
X87249000Y-104266742D01*
X87247922Y-104283188D01*
X87234128Y-104387963D01*
X87225615Y-104419735D01*
X87188361Y-104509674D01*
X87171914Y-104538160D01*
X87112651Y-104615393D01*
X87089393Y-104638651D01*
X87012160Y-104697914D01*
X86983674Y-104714361D01*
X86893735Y-104751615D01*
X86861963Y-104760128D01*
X86757188Y-104773922D01*
X86740742Y-104775000D01*
X84074258Y-104775000D01*
X84057812Y-104773922D01*
X83953037Y-104760128D01*
X83921265Y-104751615D01*
X83831326Y-104714361D01*
X83802840Y-104697914D01*
X83725607Y-104638651D01*
X83702349Y-104615393D01*
X83643086Y-104538160D01*
X83626639Y-104509674D01*
X83589385Y-104419735D01*
X83580872Y-104387963D01*
X83567078Y-104283188D01*
X83566000Y-104266742D01*
X83566000Y-100838258D01*
X83567078Y-100821812D01*
X83580872Y-100717037D01*
X83589385Y-100685265D01*
X83626639Y-100595326D01*
X83643086Y-100566840D01*
X83702349Y-100489607D01*
X83725607Y-100466349D01*
X83802840Y-100407086D01*
X83831326Y-100390639D01*
X83921265Y-100353385D01*
X83953037Y-100344872D01*
X84057812Y-100331078D01*
X84074258Y-100330000D01*
X85635500Y-100330000D01*
X85703621Y-100350002D01*
G37*
%TD.AperFunction*%
%TD*%
%TA.AperFunction,Conductor*%
%TO.N,+5V*%
G36*
X100654590Y-53965414D02*
G01*
X100711426Y-54007961D01*
X100736237Y-54074481D01*
X100736339Y-54084600D01*
X100736500Y-54084600D01*
X100736500Y-55135400D01*
X100736837Y-55138646D01*
X100736837Y-55138650D01*
X100741661Y-55185139D01*
X100747474Y-55241166D01*
X100803450Y-55408946D01*
X100896522Y-55559348D01*
X101021697Y-55684305D01*
X101023366Y-55685334D01*
X101063155Y-55741456D01*
X101069550Y-55779728D01*
X101069788Y-55779714D01*
X101069916Y-55781916D01*
X101070000Y-55782419D01*
X101070000Y-55787025D01*
X101073311Y-55815424D01*
X101073738Y-55819744D01*
X101079691Y-55892926D01*
X101081947Y-55899888D01*
X101083143Y-55905876D01*
X101084551Y-55911833D01*
X101085399Y-55919107D01*
X101087897Y-55925989D01*
X101087898Y-55925993D01*
X101110445Y-55988107D01*
X101111855Y-55992211D01*
X101134487Y-56062075D01*
X101138287Y-56068338D01*
X101140825Y-56073880D01*
X101143567Y-56079356D01*
X101146066Y-56086241D01*
X101150081Y-56092365D01*
X101186315Y-56147632D01*
X101188630Y-56151300D01*
X101226727Y-56214081D01*
X101230441Y-56218286D01*
X101230443Y-56218289D01*
X101234167Y-56222505D01*
X101234138Y-56222531D01*
X101236738Y-56225462D01*
X101239542Y-56228816D01*
X101243554Y-56234935D01*
X101248866Y-56239967D01*
X101300086Y-56288488D01*
X101302528Y-56290866D01*
X101934595Y-56922933D01*
X101968621Y-56985245D01*
X101971500Y-57012028D01*
X101971500Y-58188134D01*
X101978255Y-58250316D01*
X102029385Y-58386705D01*
X102034771Y-58393891D01*
X102087953Y-58464852D01*
X102112801Y-58531358D01*
X102097748Y-58600741D01*
X102087953Y-58615982D01*
X102035214Y-58686352D01*
X102026676Y-58701946D01*
X101981522Y-58822394D01*
X101977895Y-58837649D01*
X101972369Y-58888514D01*
X101972000Y-58895328D01*
X101972000Y-59163885D01*
X101976475Y-59179124D01*
X101977865Y-59180329D01*
X101985548Y-59182000D01*
X104969884Y-59182000D01*
X104985123Y-59177525D01*
X104986328Y-59176135D01*
X104987999Y-59168452D01*
X104987999Y-58895331D01*
X104987629Y-58888510D01*
X104982105Y-58837648D01*
X104978479Y-58822396D01*
X104933324Y-58701946D01*
X104924786Y-58686352D01*
X104872047Y-58615982D01*
X104847199Y-58549476D01*
X104862252Y-58480093D01*
X104872047Y-58464852D01*
X104925229Y-58393891D01*
X104930615Y-58386705D01*
X104981745Y-58250316D01*
X104985381Y-58216848D01*
X104987060Y-58201392D01*
X105014302Y-58135830D01*
X105072665Y-58095404D01*
X105112323Y-58089000D01*
X105308649Y-58089000D01*
X105345172Y-58094410D01*
X105507044Y-58143436D01*
X105507053Y-58143438D01*
X105514054Y-58145558D01*
X105691516Y-58156568D01*
X105698732Y-58155328D01*
X105698734Y-58155328D01*
X105859535Y-58127697D01*
X105866751Y-58126457D01*
X105931140Y-58099059D01*
X105980474Y-58089000D01*
X107062000Y-58089000D01*
X107130121Y-58109002D01*
X107176614Y-58162658D01*
X107188000Y-58215000D01*
X107188000Y-62257499D01*
X107187679Y-62266487D01*
X107168286Y-62537645D01*
X107165728Y-62555433D01*
X107114368Y-62791531D01*
X107108903Y-62816654D01*
X107103840Y-62833900D01*
X107010411Y-63084393D01*
X107002946Y-63100738D01*
X106995590Y-63114210D01*
X106876828Y-63331704D01*
X106826626Y-63381906D01*
X106757252Y-63396997D01*
X106690732Y-63372186D01*
X106677146Y-63360413D01*
X106550250Y-63233517D01*
X106542674Y-63225191D01*
X106538553Y-63218697D01*
X106488734Y-63171914D01*
X106485893Y-63169160D01*
X106466094Y-63149361D01*
X106462969Y-63146937D01*
X106462960Y-63146929D01*
X106462874Y-63146863D01*
X106453849Y-63139155D01*
X106427285Y-63114210D01*
X106421506Y-63108783D01*
X106403669Y-63098977D01*
X106387153Y-63088127D01*
X106371067Y-63075650D01*
X106330334Y-63058024D01*
X106319686Y-63052807D01*
X106308058Y-63046415D01*
X106280803Y-63031431D01*
X106273128Y-63029460D01*
X106273122Y-63029458D01*
X106261089Y-63026369D01*
X106242387Y-63019966D01*
X106223708Y-63011883D01*
X106189872Y-63006524D01*
X106179873Y-63004940D01*
X106168260Y-63002535D01*
X106125282Y-62991500D01*
X106104935Y-62991500D01*
X106085224Y-62989949D01*
X106072950Y-62988005D01*
X106065121Y-62986765D01*
X106057229Y-62987511D01*
X106020944Y-62990941D01*
X106009086Y-62991500D01*
X105106633Y-62991500D01*
X105038512Y-62971498D01*
X104992019Y-62917842D01*
X104982319Y-62850378D01*
X104981745Y-62850316D01*
X104981988Y-62848077D01*
X104988500Y-62788134D01*
X104988500Y-61191866D01*
X104981745Y-61129684D01*
X104930615Y-60993295D01*
X104872047Y-60915148D01*
X104847199Y-60848642D01*
X104862252Y-60779259D01*
X104872047Y-60764018D01*
X104924786Y-60693648D01*
X104933324Y-60678054D01*
X104978478Y-60557606D01*
X104982105Y-60542351D01*
X104987631Y-60491486D01*
X104988000Y-60484672D01*
X104988000Y-60216115D01*
X104983525Y-60200876D01*
X104982135Y-60199671D01*
X104974452Y-60198000D01*
X101990116Y-60198000D01*
X101974877Y-60202475D01*
X101973672Y-60203865D01*
X101972001Y-60211548D01*
X101972001Y-60484669D01*
X101972371Y-60491490D01*
X101977895Y-60542352D01*
X101981521Y-60557604D01*
X102026676Y-60678054D01*
X102035214Y-60693648D01*
X102087953Y-60764018D01*
X102112801Y-60830524D01*
X102097748Y-60899907D01*
X102087953Y-60915148D01*
X102029385Y-60993295D01*
X102026233Y-61001703D01*
X101981029Y-61122285D01*
X101978255Y-61129684D01*
X101978179Y-61129655D01*
X101944843Y-61188013D01*
X101881888Y-61220835D01*
X101866733Y-61222054D01*
X101866792Y-61222777D01*
X101813825Y-61227085D01*
X101803611Y-61227500D01*
X101795475Y-61227500D01*
X101791840Y-61227924D01*
X101791837Y-61227924D01*
X101773835Y-61230023D01*
X101767084Y-61230810D01*
X101762713Y-61231243D01*
X101751701Y-61232138D01*
X101696872Y-61236597D01*
X101696869Y-61236598D01*
X101689573Y-61237191D01*
X101682609Y-61239447D01*
X101676614Y-61240645D01*
X101670664Y-61242051D01*
X101663393Y-61242899D01*
X101594398Y-61267943D01*
X101590252Y-61269366D01*
X101527388Y-61289731D01*
X101527386Y-61289732D01*
X101520425Y-61291987D01*
X101514170Y-61295783D01*
X101508633Y-61298318D01*
X101503141Y-61301068D01*
X101496259Y-61303566D01*
X101490139Y-61307578D01*
X101490134Y-61307581D01*
X101471593Y-61319738D01*
X101428702Y-61337614D01*
X101378224Y-61348344D01*
X101324170Y-61359833D01*
X101324167Y-61359834D01*
X101317712Y-61361206D01*
X101311682Y-61363891D01*
X101311681Y-61363891D01*
X101149278Y-61436197D01*
X101149276Y-61436198D01*
X101143248Y-61438882D01*
X100988747Y-61551134D01*
X100860960Y-61693056D01*
X100765473Y-61858444D01*
X100706458Y-62040072D01*
X100705768Y-62046633D01*
X100705768Y-62046635D01*
X100697754Y-62122883D01*
X100686496Y-62230000D01*
X100687186Y-62236565D01*
X100696405Y-62324275D01*
X100706458Y-62419928D01*
X100765473Y-62601556D01*
X100860960Y-62766944D01*
X100865378Y-62771851D01*
X100865379Y-62771852D01*
X100883098Y-62791531D01*
X100988747Y-62908866D01*
X101143248Y-63021118D01*
X101149276Y-63023802D01*
X101149278Y-63023803D01*
X101311681Y-63096109D01*
X101317712Y-63098794D01*
X101411113Y-63118647D01*
X101498056Y-63137128D01*
X101498061Y-63137128D01*
X101504513Y-63138500D01*
X101695487Y-63138500D01*
X101701939Y-63137128D01*
X101701944Y-63137128D01*
X101788887Y-63118647D01*
X101882288Y-63098794D01*
X101888321Y-63096108D01*
X101888327Y-63096106D01*
X101963764Y-63062519D01*
X102034130Y-63053084D01*
X102098428Y-63083190D01*
X102104725Y-63090014D01*
X102105008Y-63089731D01*
X102111357Y-63096080D01*
X102116739Y-63103261D01*
X102123919Y-63108642D01*
X102123920Y-63108643D01*
X102169150Y-63142541D01*
X102211665Y-63199400D01*
X102216691Y-63270219D01*
X102182680Y-63332462D01*
X101290047Y-64225095D01*
X101227735Y-64259121D01*
X101200952Y-64262000D01*
X99375923Y-64262000D01*
X99307802Y-64241998D01*
X99286828Y-64225095D01*
X97406250Y-62344517D01*
X97398674Y-62336191D01*
X97394553Y-62329697D01*
X97379807Y-62315850D01*
X97343842Y-62254639D01*
X97346679Y-62183699D01*
X97387418Y-62125555D01*
X97453126Y-62098666D01*
X97466060Y-62098000D01*
X98224669Y-62097999D01*
X98231490Y-62097629D01*
X98282352Y-62092105D01*
X98297604Y-62088479D01*
X98418054Y-62043324D01*
X98433649Y-62034786D01*
X98535724Y-61958285D01*
X98548285Y-61945724D01*
X98624786Y-61843649D01*
X98633324Y-61828054D01*
X98678478Y-61707606D01*
X98682105Y-61692351D01*
X98687631Y-61641485D01*
X98688000Y-61634672D01*
X98688000Y-60216115D01*
X98683525Y-60200876D01*
X98682135Y-60199671D01*
X98674452Y-60198000D01*
X96798000Y-60198000D01*
X96729879Y-60177998D01*
X96683386Y-60124342D01*
X96672000Y-60072000D01*
X96672000Y-59163885D01*
X97688000Y-59163885D01*
X97692475Y-59179124D01*
X97693865Y-59180329D01*
X97701548Y-59182000D01*
X98669884Y-59182000D01*
X98685123Y-59177525D01*
X98686328Y-59176135D01*
X98687999Y-59168452D01*
X98687999Y-57745331D01*
X98687629Y-57738510D01*
X98682105Y-57687648D01*
X98678479Y-57672396D01*
X98633324Y-57551946D01*
X98624786Y-57536351D01*
X98548285Y-57434276D01*
X98535724Y-57421715D01*
X98433649Y-57345214D01*
X98418054Y-57336676D01*
X98297606Y-57291522D01*
X98282351Y-57287895D01*
X98231486Y-57282369D01*
X98224672Y-57282000D01*
X97706115Y-57282000D01*
X97690876Y-57286475D01*
X97689671Y-57287865D01*
X97688000Y-57295548D01*
X97688000Y-59163885D01*
X96672000Y-59163885D01*
X96672000Y-57300116D01*
X96667525Y-57284877D01*
X96666135Y-57283672D01*
X96658452Y-57282001D01*
X96135331Y-57282001D01*
X96128510Y-57282371D01*
X96077648Y-57287895D01*
X96062397Y-57291521D01*
X95993730Y-57317263D01*
X95922923Y-57322446D01*
X95860554Y-57288525D01*
X95826424Y-57226270D01*
X95823500Y-57199281D01*
X95823500Y-57114600D01*
X95812526Y-57008834D01*
X95756550Y-56841054D01*
X95696369Y-56743803D01*
X95677531Y-56675351D01*
X95698692Y-56607581D01*
X95753133Y-56562010D01*
X95803513Y-56551500D01*
X97581124Y-56551500D01*
X97600074Y-56552933D01*
X97614473Y-56555124D01*
X97614479Y-56555124D01*
X97621708Y-56556224D01*
X97629000Y-56555631D01*
X97629003Y-56555631D01*
X97674683Y-56551915D01*
X97684898Y-56551500D01*
X97693025Y-56551500D01*
X97696661Y-56551076D01*
X97696663Y-56551076D01*
X97700115Y-56550673D01*
X97721424Y-56548189D01*
X97725744Y-56547762D01*
X97798926Y-56541809D01*
X97805888Y-56539553D01*
X97811876Y-56538357D01*
X97817833Y-56536949D01*
X97825107Y-56536101D01*
X97831989Y-56533603D01*
X97831993Y-56533602D01*
X97894107Y-56511055D01*
X97898211Y-56509645D01*
X97968075Y-56487013D01*
X97974338Y-56483213D01*
X97979880Y-56480675D01*
X97985356Y-56477933D01*
X97992241Y-56475434D01*
X98053632Y-56435185D01*
X98057300Y-56432870D01*
X98120081Y-56394773D01*
X98124286Y-56391059D01*
X98124289Y-56391057D01*
X98128505Y-56387333D01*
X98128531Y-56387362D01*
X98131462Y-56384762D01*
X98134816Y-56381958D01*
X98140935Y-56377946D01*
X98194489Y-56321413D01*
X98196866Y-56318972D01*
X98635433Y-55880405D01*
X98697745Y-55846379D01*
X98724528Y-55843500D01*
X99215400Y-55843500D01*
X99218646Y-55843163D01*
X99218650Y-55843163D01*
X99314308Y-55833238D01*
X99314312Y-55833237D01*
X99321166Y-55832526D01*
X99327702Y-55830345D01*
X99327704Y-55830345D01*
X99468528Y-55783362D01*
X99488946Y-55776550D01*
X99639348Y-55683478D01*
X99764305Y-55558303D01*
X99857115Y-55407738D01*
X99892662Y-55300567D01*
X99910632Y-55246389D01*
X99910632Y-55246387D01*
X99912797Y-55239861D01*
X99923500Y-55135400D01*
X99923500Y-54644528D01*
X99943502Y-54576407D01*
X99960405Y-54555433D01*
X100521463Y-53994375D01*
X100583775Y-53960349D01*
X100654590Y-53965414D01*
G37*
%TD.AperFunction*%
%TA.AperFunction,Conductor*%
G36*
X95700451Y-53614002D02*
G01*
X95746944Y-53667658D01*
X95757048Y-53737932D01*
X95739590Y-53786116D01*
X95727184Y-53806243D01*
X95721037Y-53819424D01*
X95669862Y-53973710D01*
X95666995Y-53987086D01*
X95657328Y-54081438D01*
X95657173Y-54084473D01*
X95661475Y-54099124D01*
X95662865Y-54100329D01*
X95670548Y-54102000D01*
X97134500Y-54102000D01*
X97202621Y-54122002D01*
X97249114Y-54175658D01*
X97260500Y-54228000D01*
X97260500Y-54900500D01*
X97240498Y-54968621D01*
X97186842Y-55015114D01*
X97134500Y-55026500D01*
X95833216Y-55026500D01*
X95765095Y-55006498D01*
X95726072Y-54966803D01*
X95667332Y-54871880D01*
X95663478Y-54865652D01*
X95538303Y-54740695D01*
X95387738Y-54647885D01*
X95266478Y-54607665D01*
X95226389Y-54594368D01*
X95226387Y-54594368D01*
X95219861Y-54592203D01*
X95213025Y-54591503D01*
X95213022Y-54591502D01*
X95169969Y-54587091D01*
X95115400Y-54581500D01*
X94114600Y-54581500D01*
X94111354Y-54581837D01*
X94111350Y-54581837D01*
X94015692Y-54591762D01*
X94015688Y-54591763D01*
X94008834Y-54592474D01*
X94004031Y-54594076D01*
X93933930Y-54588956D01*
X93877159Y-54546323D01*
X93852449Y-54479766D01*
X93867645Y-54410414D01*
X93877273Y-54395458D01*
X93955103Y-54291490D01*
X93966876Y-54277904D01*
X94155904Y-54088876D01*
X94169490Y-54077103D01*
X94383502Y-53916895D01*
X94398625Y-53907176D01*
X94633260Y-53779055D01*
X94649607Y-53771589D01*
X94900100Y-53678160D01*
X94917342Y-53673098D01*
X95178567Y-53616272D01*
X95196350Y-53613715D01*
X95418129Y-53597853D01*
X95467513Y-53594321D01*
X95476501Y-53594000D01*
X95632330Y-53594000D01*
X95700451Y-53614002D01*
G37*
%TD.AperFunction*%
%TD*%
%TA.AperFunction,Conductor*%
%TO.N,GNDPWR*%
G36*
X117587815Y-76330527D02*
G01*
X117791595Y-76345102D01*
X117809374Y-76347659D01*
X118048499Y-76399677D01*
X118065748Y-76404741D01*
X118295046Y-76490265D01*
X118311398Y-76497733D01*
X118526182Y-76615014D01*
X118541306Y-76624734D01*
X118737215Y-76771389D01*
X118750801Y-76783162D01*
X118923838Y-76956199D01*
X118935611Y-76969785D01*
X119082266Y-77165694D01*
X119091986Y-77180818D01*
X119209267Y-77395602D01*
X119216735Y-77411954D01*
X119302259Y-77641252D01*
X119307323Y-77658500D01*
X119359341Y-77897626D01*
X119361899Y-77915411D01*
X119379679Y-78164012D01*
X119380000Y-78173001D01*
X119380000Y-117375499D01*
X119379679Y-117384487D01*
X119360286Y-117655645D01*
X119357728Y-117673433D01*
X119301159Y-117933475D01*
X119300903Y-117934654D01*
X119295840Y-117951900D01*
X119202411Y-118202393D01*
X119194945Y-118218740D01*
X119066824Y-118453375D01*
X119057105Y-118468498D01*
X118896897Y-118682510D01*
X118885124Y-118696096D01*
X118696096Y-118885124D01*
X118682510Y-118896897D01*
X118468498Y-119057105D01*
X118453375Y-119066824D01*
X118218740Y-119194945D01*
X118202393Y-119202411D01*
X117951900Y-119295840D01*
X117934658Y-119300902D01*
X117673433Y-119357728D01*
X117655650Y-119360285D01*
X117433871Y-119376147D01*
X117384487Y-119379679D01*
X117375499Y-119380000D01*
X52028729Y-119380000D01*
X52020084Y-119379703D01*
X51994991Y-119377977D01*
X51759236Y-119361763D01*
X51742116Y-119359398D01*
X51490416Y-119306800D01*
X51473787Y-119302114D01*
X51231659Y-119215554D01*
X51215826Y-119208634D01*
X51096027Y-119146163D01*
X50987830Y-119089741D01*
X50973084Y-119080713D01*
X50763521Y-118931734D01*
X50750149Y-118920772D01*
X50562954Y-118744503D01*
X50551209Y-118731814D01*
X50389908Y-118531577D01*
X50380012Y-118517401D01*
X50245404Y-118293236D01*
X50241222Y-118285698D01*
X49397161Y-116632703D01*
X114390743Y-116632703D01*
X114428268Y-116917734D01*
X114504129Y-117195036D01*
X114505813Y-117198984D01*
X114581104Y-117375499D01*
X114616923Y-117459476D01*
X114628693Y-117479142D01*
X114744974Y-117673433D01*
X114764561Y-117706161D01*
X114944313Y-117930528D01*
X115152851Y-118128423D01*
X115386317Y-118296186D01*
X115390112Y-118298195D01*
X115390113Y-118298196D01*
X115411869Y-118309715D01*
X115640392Y-118430712D01*
X115910373Y-118529511D01*
X116191264Y-118590755D01*
X116219841Y-118593004D01*
X116414282Y-118608307D01*
X116414291Y-118608307D01*
X116416739Y-118608500D01*
X116572271Y-118608500D01*
X116574407Y-118608354D01*
X116574418Y-118608354D01*
X116782548Y-118594165D01*
X116782554Y-118594164D01*
X116786825Y-118593873D01*
X116791020Y-118593004D01*
X116791022Y-118593004D01*
X116927584Y-118564723D01*
X117068342Y-118535574D01*
X117339343Y-118439607D01*
X117594812Y-118307750D01*
X117598313Y-118305289D01*
X117598317Y-118305287D01*
X117744720Y-118202393D01*
X117830023Y-118142441D01*
X117983308Y-118000000D01*
X118037479Y-117949661D01*
X118037481Y-117949658D01*
X118040622Y-117946740D01*
X118222713Y-117724268D01*
X118372927Y-117479142D01*
X118488483Y-117215898D01*
X118567244Y-116939406D01*
X118607751Y-116654784D01*
X118607845Y-116636951D01*
X118609235Y-116371583D01*
X118609235Y-116371576D01*
X118609257Y-116367297D01*
X118571732Y-116082266D01*
X118495871Y-115804964D01*
X118383077Y-115540524D01*
X118235439Y-115293839D01*
X118055687Y-115069472D01*
X117847149Y-114871577D01*
X117613683Y-114703814D01*
X117591843Y-114692250D01*
X117568654Y-114679972D01*
X117359608Y-114569288D01*
X117089627Y-114470489D01*
X116808736Y-114409245D01*
X116777685Y-114406801D01*
X116585718Y-114391693D01*
X116585709Y-114391693D01*
X116583261Y-114391500D01*
X116427729Y-114391500D01*
X116425593Y-114391646D01*
X116425582Y-114391646D01*
X116217452Y-114405835D01*
X116217446Y-114405836D01*
X116213175Y-114406127D01*
X116208980Y-114406996D01*
X116208978Y-114406996D01*
X116072417Y-114435276D01*
X115931658Y-114464426D01*
X115660657Y-114560393D01*
X115405188Y-114692250D01*
X115401687Y-114694711D01*
X115401683Y-114694713D01*
X115391594Y-114701804D01*
X115169977Y-114857559D01*
X114959378Y-115053260D01*
X114777287Y-115275732D01*
X114627073Y-115520858D01*
X114511517Y-115784102D01*
X114432756Y-116060594D01*
X114392249Y-116345216D01*
X114392227Y-116349505D01*
X114392226Y-116349512D01*
X114390765Y-116628417D01*
X114390743Y-116632703D01*
X49397161Y-116632703D01*
X46905270Y-111752625D01*
X46901392Y-111744292D01*
X46793443Y-111488362D01*
X46787556Y-111470961D01*
X46719117Y-111206498D01*
X46715824Y-111188426D01*
X46686568Y-110916829D01*
X46685937Y-110898477D01*
X46696483Y-110625516D01*
X46698528Y-110607260D01*
X46739106Y-110389873D01*
X46748653Y-110338727D01*
X46753330Y-110320965D01*
X46767189Y-110280566D01*
X46841969Y-110062572D01*
X46849180Y-110045679D01*
X46873931Y-109997715D01*
X46974442Y-109802933D01*
X46984033Y-109787266D01*
X47143266Y-109565304D01*
X47155026Y-109551206D01*
X47344848Y-109354751D01*
X47358536Y-109342511D01*
X47574898Y-109175750D01*
X47590227Y-109165626D01*
X47629790Y-109143458D01*
X47828540Y-109032096D01*
X47845165Y-109024315D01*
X48100362Y-108926856D01*
X48117951Y-108921571D01*
X48384605Y-108862255D01*
X48402779Y-108859584D01*
X48679819Y-108839335D01*
X48689004Y-108839000D01*
X62548000Y-108839000D01*
X62616121Y-108859002D01*
X62662614Y-108912658D01*
X62674000Y-108965000D01*
X62674000Y-108988402D01*
X62674212Y-108990975D01*
X62674212Y-108990986D01*
X62677592Y-109032096D01*
X62688678Y-109166937D01*
X62747206Y-109399944D01*
X62843003Y-109620263D01*
X62973498Y-109821977D01*
X63135186Y-109999670D01*
X63165711Y-110023777D01*
X63319670Y-110145367D01*
X63319675Y-110145370D01*
X63323724Y-110148568D01*
X63328240Y-110151061D01*
X63328243Y-110151063D01*
X63529526Y-110262177D01*
X63529530Y-110262179D01*
X63534050Y-110264674D01*
X63538919Y-110266398D01*
X63538923Y-110266400D01*
X63755640Y-110343144D01*
X63755644Y-110343145D01*
X63760515Y-110344870D01*
X63765608Y-110345777D01*
X63765611Y-110345778D01*
X63991948Y-110386095D01*
X63991954Y-110386096D01*
X63997037Y-110387001D01*
X64084400Y-110388068D01*
X64232093Y-110389873D01*
X64232095Y-110389873D01*
X64237263Y-110389936D01*
X64474744Y-110353596D01*
X64586997Y-110316906D01*
X64698183Y-110280566D01*
X64698189Y-110280563D01*
X64703101Y-110278958D01*
X64707687Y-110276571D01*
X64707691Y-110276569D01*
X64911607Y-110170416D01*
X64916200Y-110168025D01*
X65071283Y-110051585D01*
X65137765Y-110026680D01*
X65207161Y-110041672D01*
X65257435Y-110091802D01*
X65264915Y-110108115D01*
X65268731Y-110118293D01*
X65271885Y-110126705D01*
X65359239Y-110243261D01*
X65475795Y-110330615D01*
X65612184Y-110381745D01*
X65674366Y-110388500D01*
X67675634Y-110388500D01*
X67737816Y-110381745D01*
X67874205Y-110330615D01*
X67990761Y-110243261D01*
X68078115Y-110126705D01*
X68129245Y-109990316D01*
X68136000Y-109928134D01*
X68136000Y-108965000D01*
X68156002Y-108896879D01*
X68209658Y-108850386D01*
X68262000Y-108839000D01*
X74613000Y-108839000D01*
X74681121Y-108859002D01*
X74727614Y-108912658D01*
X74739000Y-108965000D01*
X74739000Y-108988402D01*
X74739212Y-108990975D01*
X74739212Y-108990986D01*
X74742592Y-109032096D01*
X74753678Y-109166937D01*
X74812206Y-109399944D01*
X74908003Y-109620263D01*
X75038498Y-109821977D01*
X75200186Y-109999670D01*
X75230711Y-110023777D01*
X75384670Y-110145367D01*
X75384675Y-110145370D01*
X75388724Y-110148568D01*
X75393240Y-110151061D01*
X75393243Y-110151063D01*
X75594526Y-110262177D01*
X75594530Y-110262179D01*
X75599050Y-110264674D01*
X75603919Y-110266398D01*
X75603923Y-110266400D01*
X75820640Y-110343144D01*
X75820644Y-110343145D01*
X75825515Y-110344870D01*
X75830608Y-110345777D01*
X75830611Y-110345778D01*
X76056948Y-110386095D01*
X76056954Y-110386096D01*
X76062037Y-110387001D01*
X76149400Y-110388068D01*
X76297093Y-110389873D01*
X76297095Y-110389873D01*
X76302263Y-110389936D01*
X76539744Y-110353596D01*
X76651997Y-110316906D01*
X76763183Y-110280566D01*
X76763189Y-110280563D01*
X76768101Y-110278958D01*
X76772687Y-110276571D01*
X76772691Y-110276569D01*
X76976607Y-110170416D01*
X76981200Y-110168025D01*
X77136283Y-110051585D01*
X77202765Y-110026680D01*
X77272161Y-110041672D01*
X77322435Y-110091802D01*
X77329915Y-110108115D01*
X77333731Y-110118293D01*
X77336885Y-110126705D01*
X77424239Y-110243261D01*
X77540795Y-110330615D01*
X77677184Y-110381745D01*
X77739366Y-110388500D01*
X79740634Y-110388500D01*
X79802816Y-110381745D01*
X79939205Y-110330615D01*
X80055761Y-110243261D01*
X80143115Y-110126705D01*
X80194245Y-109990316D01*
X80201000Y-109928134D01*
X80201000Y-108965000D01*
X80221002Y-108896879D01*
X80274658Y-108850386D01*
X80327000Y-108839000D01*
X89853000Y-108839000D01*
X89921121Y-108859002D01*
X89967614Y-108912658D01*
X89979000Y-108965000D01*
X89979000Y-108988402D01*
X89979212Y-108990975D01*
X89979212Y-108990986D01*
X89982592Y-109032096D01*
X89993678Y-109166937D01*
X90052206Y-109399944D01*
X90148003Y-109620263D01*
X90278498Y-109821977D01*
X90440186Y-109999670D01*
X90470711Y-110023777D01*
X90624670Y-110145367D01*
X90624675Y-110145370D01*
X90628724Y-110148568D01*
X90633240Y-110151061D01*
X90633243Y-110151063D01*
X90834526Y-110262177D01*
X90834530Y-110262179D01*
X90839050Y-110264674D01*
X90843919Y-110266398D01*
X90843923Y-110266400D01*
X91060640Y-110343144D01*
X91060644Y-110343145D01*
X91065515Y-110344870D01*
X91070608Y-110345777D01*
X91070611Y-110345778D01*
X91296948Y-110386095D01*
X91296954Y-110386096D01*
X91302037Y-110387001D01*
X91389400Y-110388068D01*
X91537093Y-110389873D01*
X91537095Y-110389873D01*
X91542263Y-110389936D01*
X91779744Y-110353596D01*
X91891997Y-110316906D01*
X92003183Y-110280566D01*
X92003189Y-110280563D01*
X92008101Y-110278958D01*
X92012687Y-110276571D01*
X92012691Y-110276569D01*
X92216607Y-110170416D01*
X92221200Y-110168025D01*
X92376283Y-110051585D01*
X92442765Y-110026680D01*
X92512161Y-110041672D01*
X92562435Y-110091802D01*
X92569915Y-110108115D01*
X92573731Y-110118293D01*
X92576885Y-110126705D01*
X92664239Y-110243261D01*
X92780795Y-110330615D01*
X92917184Y-110381745D01*
X92979366Y-110388500D01*
X94980634Y-110388500D01*
X95042816Y-110381745D01*
X95179205Y-110330615D01*
X95295761Y-110243261D01*
X95383115Y-110126705D01*
X95434245Y-109990316D01*
X95441000Y-109928134D01*
X95441000Y-108965000D01*
X95461002Y-108896879D01*
X95514658Y-108850386D01*
X95567000Y-108839000D01*
X105093000Y-108839000D01*
X105161121Y-108859002D01*
X105207614Y-108912658D01*
X105219000Y-108965000D01*
X105219000Y-108988402D01*
X105219212Y-108990975D01*
X105219212Y-108990986D01*
X105222592Y-109032096D01*
X105233678Y-109166937D01*
X105292206Y-109399944D01*
X105388003Y-109620263D01*
X105518498Y-109821977D01*
X105680186Y-109999670D01*
X105710711Y-110023777D01*
X105864670Y-110145367D01*
X105864675Y-110145370D01*
X105868724Y-110148568D01*
X105873240Y-110151061D01*
X105873243Y-110151063D01*
X106074526Y-110262177D01*
X106074530Y-110262179D01*
X106079050Y-110264674D01*
X106083919Y-110266398D01*
X106083923Y-110266400D01*
X106300640Y-110343144D01*
X106300644Y-110343145D01*
X106305515Y-110344870D01*
X106310608Y-110345777D01*
X106310611Y-110345778D01*
X106536948Y-110386095D01*
X106536954Y-110386096D01*
X106542037Y-110387001D01*
X106629400Y-110388068D01*
X106777093Y-110389873D01*
X106777095Y-110389873D01*
X106782263Y-110389936D01*
X107019744Y-110353596D01*
X107131997Y-110316906D01*
X107243183Y-110280566D01*
X107243189Y-110280563D01*
X107248101Y-110278958D01*
X107252687Y-110276571D01*
X107252691Y-110276569D01*
X107456607Y-110170416D01*
X107461200Y-110168025D01*
X107616283Y-110051585D01*
X107682765Y-110026680D01*
X107752161Y-110041672D01*
X107802435Y-110091802D01*
X107809915Y-110108115D01*
X107813731Y-110118293D01*
X107816885Y-110126705D01*
X107904239Y-110243261D01*
X108020795Y-110330615D01*
X108157184Y-110381745D01*
X108219366Y-110388500D01*
X110220634Y-110388500D01*
X110282816Y-110381745D01*
X110419205Y-110330615D01*
X110535761Y-110243261D01*
X110623115Y-110126705D01*
X110674245Y-109990316D01*
X110681000Y-109928134D01*
X110681000Y-108965000D01*
X110701002Y-108896879D01*
X110754658Y-108850386D01*
X110807000Y-108839000D01*
X115697000Y-108839000D01*
X115697000Y-107173385D01*
X115698880Y-107171779D01*
X115767553Y-107121885D01*
X115769173Y-107120708D01*
X115818883Y-107079584D01*
X116048197Y-106864243D01*
X116092360Y-106817214D01*
X116292876Y-106574832D01*
X116330797Y-106522638D01*
X116347668Y-106496054D01*
X116498284Y-106258721D01*
X116498292Y-106258707D01*
X116499354Y-106257034D01*
X116530434Y-106200501D01*
X116664373Y-105915867D01*
X116665103Y-105914024D01*
X116687396Y-105857718D01*
X116687401Y-105857704D01*
X116688122Y-105855883D01*
X116688732Y-105854006D01*
X116784721Y-105558584D01*
X116784723Y-105558578D01*
X116785331Y-105556706D01*
X116801375Y-105494217D01*
X116860320Y-105185216D01*
X116868406Y-105121210D01*
X116875092Y-105014936D01*
X116888033Y-104809252D01*
X116888034Y-104809236D01*
X116888158Y-104807257D01*
X116888158Y-104742743D01*
X116888034Y-104740764D01*
X116888033Y-104740748D01*
X116868532Y-104430790D01*
X116868531Y-104430785D01*
X116868406Y-104428790D01*
X116860320Y-104364784D01*
X116824326Y-104176094D01*
X116801745Y-104057720D01*
X116801742Y-104057705D01*
X116801375Y-104055783D01*
X116785331Y-103993294D01*
X116688122Y-103694117D01*
X116687401Y-103692296D01*
X116687396Y-103692282D01*
X116665103Y-103635976D01*
X116665099Y-103635967D01*
X116664373Y-103634133D01*
X116530434Y-103349499D01*
X116499354Y-103292966D01*
X116498292Y-103291293D01*
X116498284Y-103291279D01*
X116331869Y-103029051D01*
X116331867Y-103029048D01*
X116330797Y-103027362D01*
X116292876Y-102975168D01*
X116092360Y-102732786D01*
X116048197Y-102685757D01*
X115818883Y-102470416D01*
X115769173Y-102429292D01*
X115748939Y-102414591D01*
X115705585Y-102358368D01*
X115697000Y-102312655D01*
X115697000Y-97419922D01*
X115717002Y-97351801D01*
X115764002Y-97309349D01*
X115763744Y-97308903D01*
X115765826Y-97307701D01*
X115766691Y-97307201D01*
X115766696Y-97307199D01*
X117229804Y-96462474D01*
X117229813Y-96462468D01*
X117232756Y-96460769D01*
X117235497Y-96458763D01*
X117235503Y-96458759D01*
X117276853Y-96428495D01*
X117276855Y-96428493D01*
X117283229Y-96423828D01*
X117375781Y-96311354D01*
X117433044Y-96177425D01*
X117437095Y-96143710D01*
X117449346Y-96041722D01*
X117450417Y-96032808D01*
X117438748Y-95962697D01*
X117427799Y-95896917D01*
X117427798Y-95896915D01*
X117426502Y-95889126D01*
X117423317Y-95881906D01*
X117423316Y-95881901D01*
X117402637Y-95835018D01*
X117401261Y-95831898D01*
X116901945Y-94967056D01*
X116554832Y-94365838D01*
X116554826Y-94365829D01*
X116553127Y-94362886D01*
X116551121Y-94360145D01*
X116551117Y-94360139D01*
X116520853Y-94318789D01*
X116520851Y-94318787D01*
X116516186Y-94312413D01*
X116411658Y-94226399D01*
X116410644Y-94225565D01*
X116410643Y-94225565D01*
X116403712Y-94219861D01*
X116269783Y-94162598D01*
X116260874Y-94161528D01*
X116260871Y-94161527D01*
X116169421Y-94150541D01*
X116125166Y-94145225D01*
X116116311Y-94146699D01*
X116116308Y-94146699D01*
X115989275Y-94167843D01*
X115989273Y-94167844D01*
X115981484Y-94169140D01*
X115974264Y-94172325D01*
X115974259Y-94172326D01*
X115933972Y-94190095D01*
X115924256Y-94194381D01*
X115897229Y-94209985D01*
X115886000Y-94216468D01*
X115817004Y-94233206D01*
X115749913Y-94209985D01*
X115706026Y-94154178D01*
X115697000Y-94107349D01*
X115697000Y-88783922D01*
X115717002Y-88715801D01*
X115764002Y-88673349D01*
X115763744Y-88672903D01*
X115765826Y-88671701D01*
X115766691Y-88671201D01*
X115766696Y-88671199D01*
X117229804Y-87826474D01*
X117229813Y-87826468D01*
X117232756Y-87824769D01*
X117235497Y-87822763D01*
X117235503Y-87822759D01*
X117276853Y-87792495D01*
X117276855Y-87792493D01*
X117283229Y-87787828D01*
X117375781Y-87675354D01*
X117433044Y-87541425D01*
X117435318Y-87522500D01*
X117449346Y-87405722D01*
X117450417Y-87396808D01*
X117448503Y-87385305D01*
X117427799Y-87260917D01*
X117427798Y-87260915D01*
X117426502Y-87253126D01*
X117423317Y-87245906D01*
X117423316Y-87245901D01*
X117402637Y-87199018D01*
X117401261Y-87195898D01*
X116997431Y-86496444D01*
X116554832Y-85729838D01*
X116554826Y-85729829D01*
X116553127Y-85726886D01*
X116551121Y-85724145D01*
X116551117Y-85724139D01*
X116520853Y-85682789D01*
X116520851Y-85682787D01*
X116516186Y-85676413D01*
X116420895Y-85598000D01*
X116410644Y-85589565D01*
X116410643Y-85589565D01*
X116403712Y-85583861D01*
X116269783Y-85526598D01*
X116260874Y-85525528D01*
X116260871Y-85525527D01*
X116156307Y-85512966D01*
X116125166Y-85509225D01*
X116116311Y-85510699D01*
X116116308Y-85510699D01*
X115989275Y-85531843D01*
X115989273Y-85531844D01*
X115981484Y-85533140D01*
X115974264Y-85536325D01*
X115974259Y-85536326D01*
X115933972Y-85554095D01*
X115924256Y-85558381D01*
X115904999Y-85569499D01*
X115886000Y-85580468D01*
X115817004Y-85597206D01*
X115749913Y-85573985D01*
X115706026Y-85518178D01*
X115697000Y-85471349D01*
X115697000Y-80053553D01*
X115717002Y-79985432D01*
X115764002Y-79942980D01*
X115763744Y-79942534D01*
X115765826Y-79941332D01*
X115766691Y-79940832D01*
X115766696Y-79940830D01*
X117229804Y-79096105D01*
X117229813Y-79096099D01*
X117232756Y-79094400D01*
X117235497Y-79092394D01*
X117235503Y-79092390D01*
X117276853Y-79062126D01*
X117276855Y-79062124D01*
X117283229Y-79057459D01*
X117367018Y-78955635D01*
X117370077Y-78951917D01*
X117370077Y-78951916D01*
X117375781Y-78944985D01*
X117433044Y-78811056D01*
X117450417Y-78666439D01*
X117447503Y-78648927D01*
X117427799Y-78530548D01*
X117427798Y-78530546D01*
X117426502Y-78522757D01*
X117423317Y-78515537D01*
X117423316Y-78515532D01*
X117402637Y-78468649D01*
X117401261Y-78465529D01*
X117059249Y-77873147D01*
X116554832Y-76999469D01*
X116554826Y-76999460D01*
X116553127Y-76996517D01*
X116551121Y-76993776D01*
X116551117Y-76993770D01*
X116520853Y-76952420D01*
X116520851Y-76952418D01*
X116516186Y-76946044D01*
X116444943Y-76887420D01*
X116405053Y-76828693D01*
X116403245Y-76757720D01*
X116440095Y-76697036D01*
X116449497Y-76689260D01*
X116535694Y-76624734D01*
X116550818Y-76615014D01*
X116765602Y-76497733D01*
X116781954Y-76490265D01*
X117011252Y-76404741D01*
X117028501Y-76399677D01*
X117267626Y-76347659D01*
X117285405Y-76345102D01*
X117489185Y-76330527D01*
X117529511Y-76327643D01*
X117547489Y-76327643D01*
X117587815Y-76330527D01*
G37*
%TD.AperFunction*%
%TD*%
%TA.AperFunction,Conductor*%
%TO.N,VBUS*%
G36*
X57097457Y-84455279D02*
G01*
X57350489Y-84472155D01*
X57367111Y-84474382D01*
X57551032Y-84511625D01*
X57615120Y-84546024D01*
X58922366Y-85853270D01*
X58956392Y-85915582D01*
X58959271Y-85942365D01*
X58959271Y-86101500D01*
X58964500Y-86174611D01*
X59005696Y-86314911D01*
X59010567Y-86322490D01*
X59079878Y-86430341D01*
X59079880Y-86430344D01*
X59084750Y-86437921D01*
X59091560Y-86443822D01*
X59188445Y-86527774D01*
X59188448Y-86527776D01*
X59195257Y-86533676D01*
X59328266Y-86594419D01*
X59473000Y-86615229D01*
X60490803Y-86615229D01*
X60558924Y-86635231D01*
X60568649Y-86642153D01*
X63119000Y-88646000D01*
X64318421Y-88646000D01*
X64332529Y-88646792D01*
X64466827Y-88661924D01*
X64494334Y-88668203D01*
X64615167Y-88710484D01*
X64640588Y-88722726D01*
X64748989Y-88790839D01*
X64771048Y-88808431D01*
X64861569Y-88898952D01*
X64879161Y-88921011D01*
X64947274Y-89029412D01*
X64959516Y-89054833D01*
X65001797Y-89175666D01*
X65008076Y-89203173D01*
X65023208Y-89337471D01*
X65024000Y-89351579D01*
X65024000Y-89588583D01*
X65022449Y-89608293D01*
X65005367Y-89716146D01*
X64993185Y-89753639D01*
X64948167Y-89841992D01*
X64924995Y-89873884D01*
X64854884Y-89943995D01*
X64822992Y-89967167D01*
X64734639Y-90012185D01*
X64697146Y-90024367D01*
X64579500Y-90043000D01*
X64135000Y-90043000D01*
X64134615Y-90492450D01*
X64126291Y-100206828D01*
X64125954Y-100215923D01*
X64107066Y-100473765D01*
X64105852Y-100490335D01*
X64103216Y-100508339D01*
X64044782Y-100772539D01*
X64039580Y-100789976D01*
X63943699Y-101043010D01*
X63936043Y-101059508D01*
X63804708Y-101296109D01*
X63794766Y-101311315D01*
X63630733Y-101526515D01*
X63618689Y-101540149D01*
X63459225Y-101696322D01*
X63425368Y-101729480D01*
X63411488Y-101741236D01*
X63192905Y-101900753D01*
X63177483Y-101910383D01*
X63013921Y-101996763D01*
X62938208Y-102036748D01*
X62921547Y-102044061D01*
X62666580Y-102134641D01*
X62649040Y-102139479D01*
X62383667Y-102192392D01*
X62365622Y-102194650D01*
X62090844Y-102209027D01*
X62081745Y-102209174D01*
X61625023Y-102200040D01*
X59104009Y-102149619D01*
X59045637Y-102133953D01*
X59025482Y-102122827D01*
X59025474Y-102122824D01*
X59020950Y-102120326D01*
X59016081Y-102118602D01*
X59016077Y-102118600D01*
X58799360Y-102041856D01*
X58799356Y-102041855D01*
X58794485Y-102040130D01*
X58789392Y-102039223D01*
X58789389Y-102039222D01*
X58712294Y-102025490D01*
X58557963Y-101997999D01*
X58536578Y-101997738D01*
X58456835Y-101996763D01*
X58403349Y-101984121D01*
X58390489Y-101977878D01*
X58371817Y-101966728D01*
X58358529Y-101957146D01*
X58216890Y-101855006D01*
X58200424Y-101840819D01*
X58067018Y-101704131D01*
X58053231Y-101687320D01*
X57945313Y-101529730D01*
X57934621Y-101510796D01*
X57855404Y-101336998D01*
X57848130Y-101316520D01*
X57799971Y-101131681D01*
X57796326Y-101110250D01*
X57789266Y-101024438D01*
X57780215Y-100914430D01*
X57779793Y-100903568D01*
X57780320Y-100781447D01*
X57780870Y-100653649D01*
X57781527Y-100641344D01*
X57798716Y-100473765D01*
X57803612Y-100449624D01*
X57851259Y-100294509D01*
X57860759Y-100271782D01*
X57890828Y-100215926D01*
X57937676Y-100128900D01*
X57951413Y-100108461D01*
X58054659Y-99983276D01*
X58072113Y-99965898D01*
X58197738Y-99863195D01*
X58218237Y-99849544D01*
X58361455Y-99773240D01*
X58384216Y-99763842D01*
X58461876Y-99740352D01*
X58539531Y-99716865D01*
X58563692Y-99712072D01*
X58737500Y-99695000D01*
X59690000Y-99695000D01*
X59690000Y-97840306D01*
X59691551Y-97820596D01*
X59691980Y-97817887D01*
X59691980Y-97817886D01*
X59693220Y-97810057D01*
X59690559Y-97781907D01*
X59690000Y-97770049D01*
X59690000Y-96638450D01*
X59710002Y-96570329D01*
X59719238Y-96558868D01*
X59718989Y-96558675D01*
X59723845Y-96552415D01*
X59729453Y-96546807D01*
X59733489Y-96539983D01*
X59733491Y-96539980D01*
X59810108Y-96410427D01*
X59814145Y-96403601D01*
X59860562Y-96243831D01*
X59861772Y-96228469D01*
X59863307Y-96208958D01*
X59863307Y-96208950D01*
X59863500Y-96206502D01*
X59863500Y-94423498D01*
X59860562Y-94386169D01*
X59814145Y-94226399D01*
X59743567Y-94107058D01*
X59733491Y-94090020D01*
X59733489Y-94090017D01*
X59729453Y-94083193D01*
X59690000Y-94043740D01*
X59690000Y-93980000D01*
X59626260Y-93980000D01*
X59611807Y-93965547D01*
X59604983Y-93961511D01*
X59604980Y-93961509D01*
X59475427Y-93884892D01*
X59475428Y-93884892D01*
X59468601Y-93880855D01*
X59460990Y-93878644D01*
X59460988Y-93878643D01*
X59398390Y-93860457D01*
X59308831Y-93834438D01*
X59302426Y-93833934D01*
X59302421Y-93833933D01*
X59273958Y-93831693D01*
X59273950Y-93831693D01*
X59271502Y-93831500D01*
X58838498Y-93831500D01*
X58836050Y-93831693D01*
X58836042Y-93831693D01*
X58807579Y-93833933D01*
X58807574Y-93833934D01*
X58801169Y-93834438D01*
X58711610Y-93860457D01*
X58649012Y-93878643D01*
X58649010Y-93878644D01*
X58641399Y-93880855D01*
X58550733Y-93934475D01*
X58481919Y-93951934D01*
X58414588Y-93929418D01*
X58373060Y-93878631D01*
X58372869Y-93877973D01*
X58362510Y-93860457D01*
X58353813Y-93842707D01*
X58346319Y-93823778D01*
X58320238Y-93787880D01*
X58313722Y-93777960D01*
X58295173Y-93746595D01*
X58295171Y-93746592D01*
X58291135Y-93739768D01*
X58276747Y-93725380D01*
X58263906Y-93710346D01*
X58256602Y-93700293D01*
X58251942Y-93693879D01*
X58217750Y-93665593D01*
X58208971Y-93657604D01*
X57227384Y-92676017D01*
X57219808Y-92667691D01*
X57215687Y-92661197D01*
X57165868Y-92614414D01*
X57163027Y-92611660D01*
X57143228Y-92591861D01*
X57140103Y-92589437D01*
X57140094Y-92589429D01*
X57140008Y-92589363D01*
X57130983Y-92581655D01*
X57104419Y-92556710D01*
X57098640Y-92551283D01*
X57080803Y-92541477D01*
X57064287Y-92530627D01*
X57048201Y-92518150D01*
X57007468Y-92500524D01*
X56996820Y-92495307D01*
X56985192Y-92488915D01*
X56957937Y-92473931D01*
X56950262Y-92471960D01*
X56950256Y-92471958D01*
X56938223Y-92468869D01*
X56919521Y-92462466D01*
X56900842Y-92454383D01*
X56867006Y-92449024D01*
X56857007Y-92447440D01*
X56845394Y-92445035D01*
X56802416Y-92434000D01*
X56782069Y-92434000D01*
X56762358Y-92432449D01*
X56750084Y-92430505D01*
X56742255Y-92429265D01*
X56734363Y-92430011D01*
X56698078Y-92433441D01*
X56686220Y-92434000D01*
X53342809Y-92434000D01*
X53274688Y-92413998D01*
X53247143Y-92390000D01*
X51400128Y-90235149D01*
X51400124Y-90235145D01*
X50800000Y-89535000D01*
X48899501Y-89535000D01*
X48890513Y-89534679D01*
X48843439Y-89531312D01*
X48632870Y-89516252D01*
X48615087Y-89513695D01*
X48367106Y-89459750D01*
X48349864Y-89454688D01*
X48112077Y-89365998D01*
X48095726Y-89358530D01*
X47872987Y-89236905D01*
X47857863Y-89227186D01*
X47654701Y-89075101D01*
X47641115Y-89063328D01*
X47461672Y-88883885D01*
X47449899Y-88870299D01*
X47297814Y-88667137D01*
X47288095Y-88652013D01*
X47166470Y-88429274D01*
X47159001Y-88412921D01*
X47070313Y-88175139D01*
X47065249Y-88157890D01*
X47011305Y-87909913D01*
X47008747Y-87892125D01*
X46990321Y-87634487D01*
X46990000Y-87625499D01*
X46990000Y-86459501D01*
X46990321Y-86450513D01*
X46999477Y-86322490D01*
X47009715Y-86179350D01*
X47012272Y-86161567D01*
X47069098Y-85900342D01*
X47074161Y-85883097D01*
X47085286Y-85853270D01*
X47167589Y-85632607D01*
X47175055Y-85616260D01*
X47303176Y-85381625D01*
X47312895Y-85366502D01*
X47473103Y-85152490D01*
X47484876Y-85138904D01*
X47673904Y-84949876D01*
X47687490Y-84938103D01*
X47901502Y-84777895D01*
X47916625Y-84768176D01*
X48151260Y-84640055D01*
X48167607Y-84632589D01*
X48418100Y-84539160D01*
X48435342Y-84534098D01*
X48696567Y-84477272D01*
X48714350Y-84474715D01*
X48936129Y-84458853D01*
X48985513Y-84455321D01*
X48994501Y-84455000D01*
X57089072Y-84455000D01*
X57097457Y-84455279D01*
G37*
%TD.AperFunction*%
%TD*%
M02*
