G04 #@! TF.GenerationSoftware,KiCad,Pcbnew,(6.0.7)*
G04 #@! TF.CreationDate,2022-11-24T14:56:54+11:00*
G04 #@! TF.ProjectId,epic esc with regen,65706963-2065-4736-9320-776974682072,rev?*
G04 #@! TF.SameCoordinates,Original*
G04 #@! TF.FileFunction,Legend,Top*
G04 #@! TF.FilePolarity,Positive*
%FSLAX46Y46*%
G04 Gerber Fmt 4.6, Leading zero omitted, Abs format (unit mm)*
G04 Created by KiCad (PCBNEW (6.0.7)) date 2022-11-24 14:56:54*
%MOMM*%
%LPD*%
G01*
G04 APERTURE LIST*
G04 Aperture macros list*
%AMRoundRect*
0 Rectangle with rounded corners*
0 $1 Rounding radius*
0 $2 $3 $4 $5 $6 $7 $8 $9 X,Y pos of 4 corners*
0 Add a 4 corners polygon primitive as box body*
4,1,4,$2,$3,$4,$5,$6,$7,$8,$9,$2,$3,0*
0 Add four circle primitives for the rounded corners*
1,1,$1+$1,$2,$3*
1,1,$1+$1,$4,$5*
1,1,$1+$1,$6,$7*
1,1,$1+$1,$8,$9*
0 Add four rect primitives between the rounded corners*
20,1,$1+$1,$2,$3,$4,$5,0*
20,1,$1+$1,$4,$5,$6,$7,0*
20,1,$1+$1,$6,$7,$8,$9,0*
20,1,$1+$1,$8,$9,$2,$3,0*%
%AMFreePoly0*
4,1,13,0.587500,-0.725000,0.100000,-0.725000,0.100000,-2.000000,0.080902,-2.058779,0.030902,-2.095106,-0.030902,-2.095106,-0.080902,-2.058779,-0.100000,-2.000000,-0.100000,-0.725000,-0.587500,-0.725000,-0.587500,0.725000,0.587500,0.725000,0.587500,-0.725000,0.587500,-0.725000,$1*%
G04 Aperture macros list end*
%ADD10C,0.150000*%
%ADD11C,0.300000*%
%ADD12C,0.127000*%
%ADD13C,0.200000*%
%ADD14C,0.120000*%
%ADD15C,3.000000*%
%ADD16C,1.900000*%
%ADD17C,2.000000*%
%ADD18RoundRect,0.090000X-0.210000X0.895000X-0.210000X-0.895000X0.210000X-0.895000X0.210000X0.895000X0*%
%ADD19RoundRect,0.237500X0.237500X-0.300000X0.237500X0.300000X-0.237500X0.300000X-0.237500X-0.300000X0*%
%ADD20FreePoly0,90.000000*%
%ADD21RoundRect,0.237500X-0.300000X-0.237500X0.300000X-0.237500X0.300000X0.237500X-0.300000X0.237500X0*%
%ADD22FreePoly0,0.000000*%
%ADD23C,1.600000*%
%ADD24RoundRect,0.250001X2.324999X-1.074999X2.324999X1.074999X-2.324999X1.074999X-2.324999X-1.074999X0*%
%ADD25RoundRect,0.250000X-0.750000X0.600000X-0.750000X-0.600000X0.750000X-0.600000X0.750000X0.600000X0*%
%ADD26O,2.000000X1.700000*%
%ADD27R,1.318000X1.318000*%
%ADD28C,1.318000*%
%ADD29RoundRect,0.250000X-0.725000X0.600000X-0.725000X-0.600000X0.725000X-0.600000X0.725000X0.600000X0*%
%ADD30O,1.950000X1.700000*%
%ADD31C,1.879600*%
%ADD32C,3.200000*%
%ADD33R,2.000000X2.000000*%
%ADD34O,2.000000X2.000000*%
%ADD35RoundRect,0.250000X-0.450000X0.350000X-0.450000X-0.350000X0.450000X-0.350000X0.450000X0.350000X0*%
%ADD36RoundRect,0.250000X0.400000X0.625000X-0.400000X0.625000X-0.400000X-0.625000X0.400000X-0.625000X0*%
%ADD37C,2.000000*%
%ADD38RoundRect,0.250000X0.350000X0.450000X-0.350000X0.450000X-0.350000X-0.450000X0.350000X-0.450000X0*%
%ADD39C,1.400000*%
%ADD40O,1.400000X1.400000*%
%ADD41R,1.600000X1.600000*%
%ADD42RoundRect,0.250000X-0.400000X-0.625000X0.400000X-0.625000X0.400000X0.625000X-0.400000X0.625000X0*%
%ADD43RoundRect,0.250000X0.600000X0.750000X-0.600000X0.750000X-0.600000X-0.750000X0.600000X-0.750000X0*%
%ADD44O,1.700000X2.000000*%
%ADD45RoundRect,0.250000X-0.600000X-0.725000X0.600000X-0.725000X0.600000X0.725000X-0.600000X0.725000X0*%
%ADD46O,1.700000X1.950000*%
%ADD47R,2.000000X1.905000*%
%ADD48O,2.000000X1.905000*%
%ADD49C,4.000000*%
G04 APERTURE END LIST*
D10*
X90638380Y-108409809D02*
X91638380Y-108076476D01*
X90638380Y-107743142D01*
X91543142Y-106838380D02*
X91590761Y-106886000D01*
X91638380Y-107028857D01*
X91638380Y-107124095D01*
X91590761Y-107266952D01*
X91495523Y-107362190D01*
X91400285Y-107409809D01*
X91209809Y-107457428D01*
X91066952Y-107457428D01*
X90876476Y-107409809D01*
X90781238Y-107362190D01*
X90686000Y-107266952D01*
X90638380Y-107124095D01*
X90638380Y-107028857D01*
X90686000Y-106886000D01*
X90733619Y-106838380D01*
X91543142Y-105838380D02*
X91590761Y-105886000D01*
X91638380Y-106028857D01*
X91638380Y-106124095D01*
X91590761Y-106266952D01*
X91495523Y-106362190D01*
X91400285Y-106409809D01*
X91209809Y-106457428D01*
X91066952Y-106457428D01*
X90876476Y-106409809D01*
X90781238Y-106362190D01*
X90686000Y-106266952D01*
X90638380Y-106124095D01*
X90638380Y-106028857D01*
X90686000Y-105886000D01*
X90733619Y-105838380D01*
X91352666Y-104695523D02*
X91352666Y-104219333D01*
X91638380Y-104790761D02*
X90638380Y-104457428D01*
X91638380Y-104124095D01*
X90638380Y-103600285D02*
X90638380Y-103505047D01*
X90686000Y-103409809D01*
X90733619Y-103362190D01*
X90828857Y-103314571D01*
X91019333Y-103266952D01*
X91257428Y-103266952D01*
X91447904Y-103314571D01*
X91543142Y-103362190D01*
X91590761Y-103409809D01*
X91638380Y-103505047D01*
X91638380Y-103600285D01*
X91590761Y-103695523D01*
X91543142Y-103743142D01*
X91447904Y-103790761D01*
X91257428Y-103838380D01*
X91019333Y-103838380D01*
X90828857Y-103790761D01*
X90733619Y-103743142D01*
X90686000Y-103695523D01*
X90638380Y-103600285D01*
X90686000Y-101552666D02*
X90638380Y-101647904D01*
X90638380Y-101790761D01*
X90686000Y-101933619D01*
X90781238Y-102028857D01*
X90876476Y-102076476D01*
X91066952Y-102124095D01*
X91209809Y-102124095D01*
X91400285Y-102076476D01*
X91495523Y-102028857D01*
X91590761Y-101933619D01*
X91638380Y-101790761D01*
X91638380Y-101695523D01*
X91590761Y-101552666D01*
X91543142Y-101505047D01*
X91209809Y-101505047D01*
X91209809Y-101695523D01*
X91638380Y-101076476D02*
X90638380Y-101076476D01*
X91638380Y-100505047D01*
X90638380Y-100505047D01*
X91638380Y-100028857D02*
X90638380Y-100028857D01*
X90638380Y-99790761D01*
X90686000Y-99647904D01*
X90781238Y-99552666D01*
X90876476Y-99505047D01*
X91066952Y-99457428D01*
X91209809Y-99457428D01*
X91400285Y-99505047D01*
X91495523Y-99552666D01*
X91590761Y-99647904D01*
X91638380Y-99790761D01*
X91638380Y-100028857D01*
X115824000Y-66548000D02*
X116840000Y-65532000D01*
X114808000Y-65532000D02*
X115824000Y-66548000D01*
X116840000Y-65532000D02*
X114808000Y-65532000D01*
X107085000Y-71628000D02*
X124968000Y-71628000D01*
X115824000Y-64516000D02*
X115824000Y-67564000D01*
X114808000Y-66548000D02*
X116840000Y-66548000D01*
X93646857Y-63825333D02*
X93618285Y-63777714D01*
X93561142Y-63634857D01*
X93532571Y-63539619D01*
X93504000Y-63396761D01*
X93475428Y-63158666D01*
X93475428Y-62968190D01*
X93504000Y-62730095D01*
X93532571Y-62587238D01*
X93561142Y-62492000D01*
X93618285Y-62349142D01*
X93646857Y-62301523D01*
X94189714Y-63444380D02*
X93846857Y-63444380D01*
X94018285Y-63444380D02*
X94018285Y-62444380D01*
X93961142Y-62587238D01*
X93904000Y-62682476D01*
X93846857Y-62730095D01*
X94561142Y-62444380D02*
X94618285Y-62444380D01*
X94675428Y-62492000D01*
X94704000Y-62539619D01*
X94732571Y-62634857D01*
X94761142Y-62825333D01*
X94761142Y-63063428D01*
X94732571Y-63253904D01*
X94704000Y-63349142D01*
X94675428Y-63396761D01*
X94618285Y-63444380D01*
X94561142Y-63444380D01*
X94504000Y-63396761D01*
X94475428Y-63349142D01*
X94446857Y-63253904D01*
X94418285Y-63063428D01*
X94418285Y-62825333D01*
X94446857Y-62634857D01*
X94475428Y-62539619D01*
X94504000Y-62492000D01*
X94561142Y-62444380D01*
X95018285Y-63063428D02*
X95475428Y-63063428D01*
X96075428Y-63444380D02*
X95732571Y-63444380D01*
X95904000Y-63444380D02*
X95904000Y-62444380D01*
X95846857Y-62587238D01*
X95789714Y-62682476D01*
X95732571Y-62730095D01*
X96589714Y-62444380D02*
X96475428Y-62444380D01*
X96418285Y-62492000D01*
X96389714Y-62539619D01*
X96332571Y-62682476D01*
X96304000Y-62872952D01*
X96304000Y-63253904D01*
X96332571Y-63349142D01*
X96361142Y-63396761D01*
X96418285Y-63444380D01*
X96532571Y-63444380D01*
X96589714Y-63396761D01*
X96618285Y-63349142D01*
X96646857Y-63253904D01*
X96646857Y-63015809D01*
X96618285Y-62920571D01*
X96589714Y-62872952D01*
X96532571Y-62825333D01*
X96418285Y-62825333D01*
X96361142Y-62872952D01*
X96332571Y-62920571D01*
X96304000Y-63015809D01*
X96818285Y-62444380D02*
X97018285Y-63444380D01*
X97218285Y-62444380D01*
X97361142Y-63825333D02*
X97389714Y-63777714D01*
X97446857Y-63634857D01*
X97475428Y-63539619D01*
X97504000Y-63396761D01*
X97532571Y-63158666D01*
X97532571Y-62968190D01*
X97504000Y-62730095D01*
X97475428Y-62587238D01*
X97446857Y-62492000D01*
X97389714Y-62349142D01*
X97361142Y-62301523D01*
X101235047Y-60523428D02*
X101996952Y-60523428D01*
X101616000Y-60904380D02*
X101616000Y-60142476D01*
X103235047Y-60523428D02*
X103996952Y-60523428D01*
X89055380Y-78192190D02*
X88055380Y-78192190D01*
X88150619Y-77763619D02*
X88103000Y-77716000D01*
X88055380Y-77620761D01*
X88055380Y-77382666D01*
X88103000Y-77287428D01*
X88150619Y-77239809D01*
X88245857Y-77192190D01*
X88341095Y-77192190D01*
X88483952Y-77239809D01*
X89055380Y-77811238D01*
X89055380Y-77192190D01*
X88960142Y-76192190D02*
X89007761Y-76239809D01*
X89055380Y-76382666D01*
X89055380Y-76477904D01*
X89007761Y-76620761D01*
X88912523Y-76716000D01*
X88817285Y-76763619D01*
X88626809Y-76811238D01*
X88483952Y-76811238D01*
X88293476Y-76763619D01*
X88198238Y-76716000D01*
X88103000Y-76620761D01*
X88055380Y-76477904D01*
X88055380Y-76382666D01*
X88103000Y-76239809D01*
X88150619Y-76192190D01*
X90617761Y-80192190D02*
X90665380Y-80049333D01*
X90665380Y-79811238D01*
X90617761Y-79716000D01*
X90570142Y-79668380D01*
X90474904Y-79620761D01*
X90379666Y-79620761D01*
X90284428Y-79668380D01*
X90236809Y-79716000D01*
X90189190Y-79811238D01*
X90141571Y-80001714D01*
X90093952Y-80096952D01*
X90046333Y-80144571D01*
X89951095Y-80192190D01*
X89855857Y-80192190D01*
X89760619Y-80144571D01*
X89713000Y-80096952D01*
X89665380Y-80001714D01*
X89665380Y-79763619D01*
X89713000Y-79620761D01*
X90665380Y-79192190D02*
X89665380Y-79192190D01*
X89665380Y-78954095D01*
X89713000Y-78811238D01*
X89808238Y-78716000D01*
X89903476Y-78668380D01*
X90093952Y-78620761D01*
X90236809Y-78620761D01*
X90427285Y-78668380D01*
X90522523Y-78716000D01*
X90617761Y-78811238D01*
X90665380Y-78954095D01*
X90665380Y-79192190D01*
X90379666Y-78239809D02*
X90379666Y-77763619D01*
X90665380Y-78335047D02*
X89665380Y-78001714D01*
X90665380Y-77668380D01*
X90617761Y-76620761D02*
X90665380Y-76477904D01*
X90665380Y-76239809D01*
X90617761Y-76144571D01*
X90570142Y-76096952D01*
X90474904Y-76049333D01*
X90379666Y-76049333D01*
X90284428Y-76096952D01*
X90236809Y-76144571D01*
X90189190Y-76239809D01*
X90141571Y-76430285D01*
X90093952Y-76525523D01*
X90046333Y-76573142D01*
X89951095Y-76620761D01*
X89855857Y-76620761D01*
X89760619Y-76573142D01*
X89713000Y-76525523D01*
X89665380Y-76430285D01*
X89665380Y-76192190D01*
X89713000Y-76049333D01*
X90570142Y-75049333D02*
X90617761Y-75096952D01*
X90665380Y-75239809D01*
X90665380Y-75335047D01*
X90617761Y-75477904D01*
X90522523Y-75573142D01*
X90427285Y-75620761D01*
X90236809Y-75668380D01*
X90093952Y-75668380D01*
X89903476Y-75620761D01*
X89808238Y-75573142D01*
X89713000Y-75477904D01*
X89665380Y-75335047D01*
X89665380Y-75239809D01*
X89713000Y-75096952D01*
X89760619Y-75049333D01*
X90665380Y-74144571D02*
X90665380Y-74620761D01*
X89665380Y-74620761D01*
X127957238Y-60412380D02*
X128585809Y-60412380D01*
X128271523Y-61412380D02*
X128271523Y-60412380D01*
X128952476Y-61412380D02*
X128952476Y-60412380D01*
X129423904Y-61412380D02*
X129423904Y-60888571D01*
X129371523Y-60793333D01*
X129266761Y-60745714D01*
X129109619Y-60745714D01*
X129004857Y-60793333D01*
X128952476Y-60840952D01*
X129947714Y-61412380D02*
X129947714Y-60745714D01*
X129947714Y-60936190D02*
X130000095Y-60840952D01*
X130052476Y-60793333D01*
X130157238Y-60745714D01*
X130262000Y-60745714D01*
X131309619Y-60412380D02*
X131938190Y-60412380D01*
X131623904Y-61412380D02*
X131623904Y-60412380D01*
X132304857Y-61412380D02*
X132304857Y-60745714D01*
X132304857Y-60840952D02*
X132357238Y-60793333D01*
X132462000Y-60745714D01*
X132619142Y-60745714D01*
X132723904Y-60793333D01*
X132776285Y-60888571D01*
X132776285Y-61412380D01*
X132776285Y-60888571D02*
X132828666Y-60793333D01*
X132933428Y-60745714D01*
X133090571Y-60745714D01*
X133195333Y-60793333D01*
X133247714Y-60888571D01*
X133247714Y-61412380D01*
X133771523Y-60745714D02*
X133771523Y-61745714D01*
X133771523Y-60793333D02*
X133876285Y-60745714D01*
X134085809Y-60745714D01*
X134190571Y-60793333D01*
X134242952Y-60840952D01*
X134295333Y-60936190D01*
X134295333Y-61221904D01*
X134242952Y-61317142D01*
X134190571Y-61364761D01*
X134085809Y-61412380D01*
X133876285Y-61412380D01*
X133771523Y-61364761D01*
X135604857Y-60412380D02*
X135604857Y-61221904D01*
X135657238Y-61317142D01*
X135709619Y-61364761D01*
X135814380Y-61412380D01*
X136023904Y-61412380D01*
X136128666Y-61364761D01*
X136181047Y-61317142D01*
X136233428Y-61221904D01*
X136233428Y-60412380D01*
X137438190Y-60412380D02*
X137804857Y-61412380D01*
X138171523Y-60412380D01*
X139271523Y-60412380D02*
X139533428Y-61412380D01*
X139742952Y-60698095D01*
X139952476Y-61412380D01*
X140214380Y-60412380D01*
X162375380Y-105036380D02*
X161899190Y-105369714D01*
X162375380Y-105607809D02*
X161375380Y-105607809D01*
X161375380Y-105226857D01*
X161423000Y-105131619D01*
X161470619Y-105084000D01*
X161565857Y-105036380D01*
X161708714Y-105036380D01*
X161803952Y-105084000D01*
X161851571Y-105131619D01*
X161899190Y-105226857D01*
X161899190Y-105607809D01*
X162327761Y-104226857D02*
X162375380Y-104322095D01*
X162375380Y-104512571D01*
X162327761Y-104607809D01*
X162232523Y-104655428D01*
X161851571Y-104655428D01*
X161756333Y-104607809D01*
X161708714Y-104512571D01*
X161708714Y-104322095D01*
X161756333Y-104226857D01*
X161851571Y-104179238D01*
X161946809Y-104179238D01*
X162042047Y-104655428D01*
X162375380Y-103750666D02*
X161708714Y-103750666D01*
X161375380Y-103750666D02*
X161423000Y-103798285D01*
X161470619Y-103750666D01*
X161423000Y-103703047D01*
X161375380Y-103750666D01*
X161470619Y-103750666D01*
X161708714Y-103274476D02*
X162375380Y-103274476D01*
X161803952Y-103274476D02*
X161756333Y-103226857D01*
X161708714Y-103131619D01*
X161708714Y-102988761D01*
X161756333Y-102893523D01*
X161851571Y-102845904D01*
X162375380Y-102845904D01*
X161708714Y-102512571D02*
X161708714Y-102131619D01*
X162375380Y-102369714D02*
X161518238Y-102369714D01*
X161423000Y-102322095D01*
X161375380Y-102226857D01*
X161375380Y-102131619D01*
X162375380Y-101655428D02*
X162327761Y-101750666D01*
X162280142Y-101798285D01*
X162184904Y-101845904D01*
X161899190Y-101845904D01*
X161803952Y-101798285D01*
X161756333Y-101750666D01*
X161708714Y-101655428D01*
X161708714Y-101512571D01*
X161756333Y-101417333D01*
X161803952Y-101369714D01*
X161899190Y-101322095D01*
X162184904Y-101322095D01*
X162280142Y-101369714D01*
X162327761Y-101417333D01*
X162375380Y-101512571D01*
X162375380Y-101655428D01*
X162375380Y-100893523D02*
X161708714Y-100893523D01*
X161899190Y-100893523D02*
X161803952Y-100845904D01*
X161756333Y-100798285D01*
X161708714Y-100703047D01*
X161708714Y-100607809D01*
X162327761Y-99845904D02*
X162375380Y-99941142D01*
X162375380Y-100131619D01*
X162327761Y-100226857D01*
X162280142Y-100274476D01*
X162184904Y-100322095D01*
X161899190Y-100322095D01*
X161803952Y-100274476D01*
X161756333Y-100226857D01*
X161708714Y-100131619D01*
X161708714Y-99941142D01*
X161756333Y-99845904D01*
X162327761Y-99036380D02*
X162375380Y-99131619D01*
X162375380Y-99322095D01*
X162327761Y-99417333D01*
X162232523Y-99464952D01*
X161851571Y-99464952D01*
X161756333Y-99417333D01*
X161708714Y-99322095D01*
X161708714Y-99131619D01*
X161756333Y-99036380D01*
X161851571Y-98988761D01*
X161946809Y-98988761D01*
X162042047Y-99464952D01*
X162375380Y-97369714D02*
X161851571Y-97369714D01*
X161756333Y-97417333D01*
X161708714Y-97512571D01*
X161708714Y-97703047D01*
X161756333Y-97798285D01*
X162327761Y-97369714D02*
X162375380Y-97464952D01*
X162375380Y-97703047D01*
X162327761Y-97798285D01*
X162232523Y-97845904D01*
X162137285Y-97845904D01*
X162042047Y-97798285D01*
X161994428Y-97703047D01*
X161994428Y-97464952D01*
X161946809Y-97369714D01*
X162375380Y-96750666D02*
X162327761Y-96845904D01*
X162232523Y-96893523D01*
X161375380Y-96893523D01*
X162375380Y-96226857D02*
X162327761Y-96322095D01*
X162232523Y-96369714D01*
X161375380Y-96369714D01*
X163937761Y-105655428D02*
X163985380Y-105750666D01*
X163985380Y-105941142D01*
X163937761Y-106036380D01*
X163842523Y-106084000D01*
X163461571Y-106084000D01*
X163366333Y-106036380D01*
X163318714Y-105941142D01*
X163318714Y-105750666D01*
X163366333Y-105655428D01*
X163461571Y-105607809D01*
X163556809Y-105607809D01*
X163652047Y-106084000D01*
X163985380Y-105274476D02*
X163318714Y-104750666D01*
X163318714Y-105274476D02*
X163985380Y-104750666D01*
X163318714Y-104369714D02*
X164318714Y-104369714D01*
X163366333Y-104369714D02*
X163318714Y-104274476D01*
X163318714Y-104084000D01*
X163366333Y-103988761D01*
X163413952Y-103941142D01*
X163509190Y-103893523D01*
X163794904Y-103893523D01*
X163890142Y-103941142D01*
X163937761Y-103988761D01*
X163985380Y-104084000D01*
X163985380Y-104274476D01*
X163937761Y-104369714D01*
X163985380Y-103322095D02*
X163937761Y-103417333D01*
X163890142Y-103464952D01*
X163794904Y-103512571D01*
X163509190Y-103512571D01*
X163413952Y-103464952D01*
X163366333Y-103417333D01*
X163318714Y-103322095D01*
X163318714Y-103179238D01*
X163366333Y-103084000D01*
X163413952Y-103036380D01*
X163509190Y-102988761D01*
X163794904Y-102988761D01*
X163890142Y-103036380D01*
X163937761Y-103084000D01*
X163985380Y-103179238D01*
X163985380Y-103322095D01*
X163937761Y-102607809D02*
X163985380Y-102512571D01*
X163985380Y-102322095D01*
X163937761Y-102226857D01*
X163842523Y-102179238D01*
X163794904Y-102179238D01*
X163699666Y-102226857D01*
X163652047Y-102322095D01*
X163652047Y-102464952D01*
X163604428Y-102560190D01*
X163509190Y-102607809D01*
X163461571Y-102607809D01*
X163366333Y-102560190D01*
X163318714Y-102464952D01*
X163318714Y-102322095D01*
X163366333Y-102226857D01*
X163937761Y-101369714D02*
X163985380Y-101464952D01*
X163985380Y-101655428D01*
X163937761Y-101750666D01*
X163842523Y-101798285D01*
X163461571Y-101798285D01*
X163366333Y-101750666D01*
X163318714Y-101655428D01*
X163318714Y-101464952D01*
X163366333Y-101369714D01*
X163461571Y-101322095D01*
X163556809Y-101322095D01*
X163652047Y-101798285D01*
X163985380Y-100464952D02*
X162985380Y-100464952D01*
X163937761Y-100464952D02*
X163985380Y-100560190D01*
X163985380Y-100750666D01*
X163937761Y-100845904D01*
X163890142Y-100893523D01*
X163794904Y-100941142D01*
X163509190Y-100941142D01*
X163413952Y-100893523D01*
X163366333Y-100845904D01*
X163318714Y-100750666D01*
X163318714Y-100560190D01*
X163366333Y-100464952D01*
X163318714Y-99369714D02*
X163318714Y-98988761D01*
X162985380Y-99226857D02*
X163842523Y-99226857D01*
X163937761Y-99179238D01*
X163985380Y-99084000D01*
X163985380Y-98988761D01*
X163985380Y-98655428D02*
X163318714Y-98655428D01*
X163509190Y-98655428D02*
X163413952Y-98607809D01*
X163366333Y-98560190D01*
X163318714Y-98464952D01*
X163318714Y-98369714D01*
X163985380Y-97607809D02*
X163461571Y-97607809D01*
X163366333Y-97655428D01*
X163318714Y-97750666D01*
X163318714Y-97941142D01*
X163366333Y-98036380D01*
X163937761Y-97607809D02*
X163985380Y-97703047D01*
X163985380Y-97941142D01*
X163937761Y-98036380D01*
X163842523Y-98084000D01*
X163747285Y-98084000D01*
X163652047Y-98036380D01*
X163604428Y-97941142D01*
X163604428Y-97703047D01*
X163556809Y-97607809D01*
X163937761Y-96703047D02*
X163985380Y-96798285D01*
X163985380Y-96988761D01*
X163937761Y-97084000D01*
X163890142Y-97131619D01*
X163794904Y-97179238D01*
X163509190Y-97179238D01*
X163413952Y-97131619D01*
X163366333Y-97084000D01*
X163318714Y-96988761D01*
X163318714Y-96798285D01*
X163366333Y-96703047D01*
X163985380Y-96274476D02*
X162985380Y-96274476D01*
X163604428Y-96179238D02*
X163985380Y-95893523D01*
X163318714Y-95893523D02*
X163699666Y-96274476D01*
X163937761Y-95512571D02*
X163985380Y-95417333D01*
X163985380Y-95226857D01*
X163937761Y-95131619D01*
X163842523Y-95084000D01*
X163794904Y-95084000D01*
X163699666Y-95131619D01*
X163652047Y-95226857D01*
X163652047Y-95369714D01*
X163604428Y-95464952D01*
X163509190Y-95512571D01*
X163461571Y-95512571D01*
X163366333Y-95464952D01*
X163318714Y-95369714D01*
X163318714Y-95226857D01*
X163366333Y-95131619D01*
X164928714Y-105631619D02*
X165595380Y-105441142D01*
X165119190Y-105250666D01*
X165595380Y-105060190D01*
X164928714Y-104869714D01*
X165595380Y-104488761D02*
X164928714Y-104488761D01*
X164595380Y-104488761D02*
X164643000Y-104536380D01*
X164690619Y-104488761D01*
X164643000Y-104441142D01*
X164595380Y-104488761D01*
X164690619Y-104488761D01*
X164928714Y-104155428D02*
X164928714Y-103774476D01*
X164595380Y-104012571D02*
X165452523Y-104012571D01*
X165547761Y-103964952D01*
X165595380Y-103869714D01*
X165595380Y-103774476D01*
X165595380Y-103441142D02*
X164595380Y-103441142D01*
X165595380Y-103012571D02*
X165071571Y-103012571D01*
X164976333Y-103060190D01*
X164928714Y-103155428D01*
X164928714Y-103298285D01*
X164976333Y-103393523D01*
X165023952Y-103441142D01*
X165547761Y-101822095D02*
X165595380Y-101726857D01*
X165595380Y-101536380D01*
X165547761Y-101441142D01*
X165452523Y-101393523D01*
X165404904Y-101393523D01*
X165309666Y-101441142D01*
X165262047Y-101536380D01*
X165262047Y-101679238D01*
X165214428Y-101774476D01*
X165119190Y-101822095D01*
X165071571Y-101822095D01*
X164976333Y-101774476D01*
X164928714Y-101679238D01*
X164928714Y-101536380D01*
X164976333Y-101441142D01*
X165595380Y-100822095D02*
X165547761Y-100917333D01*
X165500142Y-100964952D01*
X165404904Y-101012571D01*
X165119190Y-101012571D01*
X165023952Y-100964952D01*
X164976333Y-100917333D01*
X164928714Y-100822095D01*
X164928714Y-100679238D01*
X164976333Y-100584000D01*
X165023952Y-100536380D01*
X165119190Y-100488761D01*
X165404904Y-100488761D01*
X165500142Y-100536380D01*
X165547761Y-100584000D01*
X165595380Y-100679238D01*
X165595380Y-100822095D01*
X165595380Y-99917333D02*
X165547761Y-100012571D01*
X165452523Y-100060190D01*
X164595380Y-100060190D01*
X165595380Y-99107809D02*
X164595380Y-99107809D01*
X165547761Y-99107809D02*
X165595380Y-99203047D01*
X165595380Y-99393523D01*
X165547761Y-99488761D01*
X165500142Y-99536380D01*
X165404904Y-99584000D01*
X165119190Y-99584000D01*
X165023952Y-99536380D01*
X164976333Y-99488761D01*
X164928714Y-99393523D01*
X164928714Y-99203047D01*
X164976333Y-99107809D01*
X165547761Y-98250666D02*
X165595380Y-98345904D01*
X165595380Y-98536380D01*
X165547761Y-98631619D01*
X165452523Y-98679238D01*
X165071571Y-98679238D01*
X164976333Y-98631619D01*
X164928714Y-98536380D01*
X164928714Y-98345904D01*
X164976333Y-98250666D01*
X165071571Y-98203047D01*
X165166809Y-98203047D01*
X165262047Y-98679238D01*
X165595380Y-97774476D02*
X164928714Y-97774476D01*
X165119190Y-97774476D02*
X165023952Y-97726857D01*
X164976333Y-97679238D01*
X164928714Y-97584000D01*
X164928714Y-97488761D01*
X165214428Y-96393523D02*
X165214428Y-95631619D01*
X165595380Y-96012571D02*
X164833476Y-96012571D01*
X167157761Y-104322095D02*
X167205380Y-104417333D01*
X167205380Y-104607809D01*
X167157761Y-104703047D01*
X167110142Y-104750666D01*
X167014904Y-104798285D01*
X166729190Y-104798285D01*
X166633952Y-104750666D01*
X166586333Y-104703047D01*
X166538714Y-104607809D01*
X166538714Y-104417333D01*
X166586333Y-104322095D01*
X167205380Y-103750666D02*
X167157761Y-103845904D01*
X167110142Y-103893523D01*
X167014904Y-103941142D01*
X166729190Y-103941142D01*
X166633952Y-103893523D01*
X166586333Y-103845904D01*
X166538714Y-103750666D01*
X166538714Y-103607809D01*
X166586333Y-103512571D01*
X166633952Y-103464952D01*
X166729190Y-103417333D01*
X167014904Y-103417333D01*
X167110142Y-103464952D01*
X167157761Y-103512571D01*
X167205380Y-103607809D01*
X167205380Y-103750666D01*
X166538714Y-102988761D02*
X167538714Y-102988761D01*
X166586333Y-102988761D02*
X166538714Y-102893523D01*
X166538714Y-102703047D01*
X166586333Y-102607809D01*
X166633952Y-102560190D01*
X166729190Y-102512571D01*
X167014904Y-102512571D01*
X167110142Y-102560190D01*
X167157761Y-102607809D01*
X167205380Y-102703047D01*
X167205380Y-102893523D01*
X167157761Y-102988761D01*
X166538714Y-102084000D02*
X167538714Y-102084000D01*
X166586333Y-102084000D02*
X166538714Y-101988761D01*
X166538714Y-101798285D01*
X166586333Y-101703047D01*
X166633952Y-101655428D01*
X166729190Y-101607809D01*
X167014904Y-101607809D01*
X167110142Y-101655428D01*
X167157761Y-101703047D01*
X167205380Y-101798285D01*
X167205380Y-101988761D01*
X167157761Y-102084000D01*
X167157761Y-100798285D02*
X167205380Y-100893523D01*
X167205380Y-101084000D01*
X167157761Y-101179238D01*
X167062523Y-101226857D01*
X166681571Y-101226857D01*
X166586333Y-101179238D01*
X166538714Y-101084000D01*
X166538714Y-100893523D01*
X166586333Y-100798285D01*
X166681571Y-100750666D01*
X166776809Y-100750666D01*
X166872047Y-101226857D01*
X167205380Y-100322095D02*
X166538714Y-100322095D01*
X166729190Y-100322095D02*
X166633952Y-100274476D01*
X166586333Y-100226857D01*
X166538714Y-100131619D01*
X166538714Y-100036380D01*
X166538714Y-99036380D02*
X167205380Y-98845904D01*
X166729190Y-98655428D01*
X167205380Y-98464952D01*
X166538714Y-98274476D01*
X167205380Y-97893523D02*
X166538714Y-97893523D01*
X166205380Y-97893523D02*
X166253000Y-97941142D01*
X166300619Y-97893523D01*
X166253000Y-97845904D01*
X166205380Y-97893523D01*
X166300619Y-97893523D01*
X167205380Y-97417333D02*
X166538714Y-97417333D01*
X166729190Y-97417333D02*
X166633952Y-97369714D01*
X166586333Y-97322095D01*
X166538714Y-97226857D01*
X166538714Y-97131619D01*
X167157761Y-96417333D02*
X167205380Y-96512571D01*
X167205380Y-96703047D01*
X167157761Y-96798285D01*
X167062523Y-96845904D01*
X166681571Y-96845904D01*
X166586333Y-96798285D01*
X166538714Y-96703047D01*
X166538714Y-96512571D01*
X166586333Y-96417333D01*
X166681571Y-96369714D01*
X166776809Y-96369714D01*
X166872047Y-96845904D01*
X89563380Y-92090666D02*
X88563380Y-92090666D01*
X89039571Y-92090666D02*
X89039571Y-91519238D01*
X89563380Y-91519238D02*
X88563380Y-91519238D01*
X89563380Y-90614476D02*
X89039571Y-90614476D01*
X88944333Y-90662095D01*
X88896714Y-90757333D01*
X88896714Y-90947809D01*
X88944333Y-91043047D01*
X89515761Y-90614476D02*
X89563380Y-90709714D01*
X89563380Y-90947809D01*
X89515761Y-91043047D01*
X89420523Y-91090666D01*
X89325285Y-91090666D01*
X89230047Y-91043047D01*
X89182428Y-90947809D01*
X89182428Y-90709714D01*
X89134809Y-90614476D01*
X89563380Y-89995428D02*
X89515761Y-90090666D01*
X89420523Y-90138285D01*
X88563380Y-90138285D01*
X89563380Y-89471619D02*
X89515761Y-89566857D01*
X89420523Y-89614476D01*
X88563380Y-89614476D01*
X89515761Y-89138285D02*
X89563380Y-89043047D01*
X89563380Y-88852571D01*
X89515761Y-88757333D01*
X89420523Y-88709714D01*
X89372904Y-88709714D01*
X89277666Y-88757333D01*
X89230047Y-88852571D01*
X89230047Y-88995428D01*
X89182428Y-89090666D01*
X89087190Y-89138285D01*
X89039571Y-89138285D01*
X88944333Y-89090666D01*
X88896714Y-88995428D01*
X88896714Y-88852571D01*
X88944333Y-88757333D01*
X90221000Y-95566857D02*
X90173380Y-95662095D01*
X90173380Y-95804952D01*
X90221000Y-95947809D01*
X90316238Y-96043047D01*
X90411476Y-96090666D01*
X90601952Y-96138285D01*
X90744809Y-96138285D01*
X90935285Y-96090666D01*
X91030523Y-96043047D01*
X91125761Y-95947809D01*
X91173380Y-95804952D01*
X91173380Y-95709714D01*
X91125761Y-95566857D01*
X91078142Y-95519238D01*
X90744809Y-95519238D01*
X90744809Y-95709714D01*
X91173380Y-95090666D02*
X90173380Y-95090666D01*
X91173380Y-94519238D01*
X90173380Y-94519238D01*
X91173380Y-94043047D02*
X90173380Y-94043047D01*
X90173380Y-93804952D01*
X90221000Y-93662095D01*
X90316238Y-93566857D01*
X90411476Y-93519238D01*
X90601952Y-93471619D01*
X90744809Y-93471619D01*
X90935285Y-93519238D01*
X91030523Y-93566857D01*
X91125761Y-93662095D01*
X91173380Y-93804952D01*
X91173380Y-94043047D01*
X90173380Y-92424000D02*
X91173380Y-92090666D01*
X90173380Y-91757333D01*
X91078142Y-90852571D02*
X91125761Y-90900190D01*
X91173380Y-91043047D01*
X91173380Y-91138285D01*
X91125761Y-91281142D01*
X91030523Y-91376380D01*
X90935285Y-91424000D01*
X90744809Y-91471619D01*
X90601952Y-91471619D01*
X90411476Y-91424000D01*
X90316238Y-91376380D01*
X90221000Y-91281142D01*
X90173380Y-91138285D01*
X90173380Y-91043047D01*
X90221000Y-90900190D01*
X90268619Y-90852571D01*
X91078142Y-89852571D02*
X91125761Y-89900190D01*
X91173380Y-90043047D01*
X91173380Y-90138285D01*
X91125761Y-90281142D01*
X91030523Y-90376380D01*
X90935285Y-90424000D01*
X90744809Y-90471619D01*
X90601952Y-90471619D01*
X90411476Y-90424000D01*
X90316238Y-90376380D01*
X90221000Y-90281142D01*
X90173380Y-90138285D01*
X90173380Y-90043047D01*
X90221000Y-89900190D01*
X90268619Y-89852571D01*
X90887666Y-88709714D02*
X90887666Y-88233523D01*
X91173380Y-88804952D02*
X90173380Y-88471619D01*
X91173380Y-88138285D01*
X90649571Y-86709714D02*
X90697190Y-86566857D01*
X90744809Y-86519238D01*
X90840047Y-86471619D01*
X90982904Y-86471619D01*
X91078142Y-86519238D01*
X91125761Y-86566857D01*
X91173380Y-86662095D01*
X91173380Y-87043047D01*
X90173380Y-87043047D01*
X90173380Y-86709714D01*
X90221000Y-86614476D01*
X90268619Y-86566857D01*
X90363857Y-86519238D01*
X90459095Y-86519238D01*
X90554333Y-86566857D01*
X90601952Y-86614476D01*
X90649571Y-86709714D01*
X90649571Y-87043047D01*
X91078142Y-84709714D02*
X91125761Y-84757333D01*
X91173380Y-84900190D01*
X91173380Y-84995428D01*
X91125761Y-85138285D01*
X91030523Y-85233523D01*
X90935285Y-85281142D01*
X90744809Y-85328761D01*
X90601952Y-85328761D01*
X90411476Y-85281142D01*
X90316238Y-85233523D01*
X90221000Y-85138285D01*
X90173380Y-84995428D01*
X90173380Y-84900190D01*
X90221000Y-84757333D01*
X90268619Y-84709714D01*
D11*
X160785071Y-72968857D02*
X160785071Y-71968857D01*
X162285071Y-72611714D01*
X160927928Y-71468857D02*
X160856500Y-71397428D01*
X160785071Y-71254571D01*
X160785071Y-70897428D01*
X160856500Y-70754571D01*
X160927928Y-70683142D01*
X161070785Y-70611714D01*
X161213642Y-70611714D01*
X161427928Y-70683142D01*
X162285071Y-71540285D01*
X162285071Y-70611714D01*
X160785071Y-70183142D02*
X162285071Y-69683142D01*
X160785071Y-69183142D01*
X162285071Y-67540285D02*
X160785071Y-67540285D01*
X161856500Y-67040285D01*
X160785071Y-66540285D01*
X162285071Y-66540285D01*
X161856500Y-65897428D02*
X161856500Y-65183142D01*
X162285071Y-66040285D02*
X160785071Y-65540285D01*
X162285071Y-65040285D01*
X160785071Y-64683142D02*
X162285071Y-63683142D01*
X160785071Y-63683142D02*
X162285071Y-64683142D01*
X163200071Y-72968857D02*
X163200071Y-72040285D01*
X163771500Y-72540285D01*
X163771500Y-72326000D01*
X163842928Y-72183142D01*
X163914357Y-72111714D01*
X164057214Y-72040285D01*
X164414357Y-72040285D01*
X164557214Y-72111714D01*
X164628642Y-72183142D01*
X164700071Y-72326000D01*
X164700071Y-72754571D01*
X164628642Y-72897428D01*
X164557214Y-72968857D01*
X163200071Y-71111714D02*
X163200071Y-70968857D01*
X163271500Y-70826000D01*
X163342928Y-70754571D01*
X163485785Y-70683142D01*
X163771500Y-70611714D01*
X164128642Y-70611714D01*
X164414357Y-70683142D01*
X164557214Y-70754571D01*
X164628642Y-70826000D01*
X164700071Y-70968857D01*
X164700071Y-71111714D01*
X164628642Y-71254571D01*
X164557214Y-71326000D01*
X164414357Y-71397428D01*
X164128642Y-71468857D01*
X163771500Y-71468857D01*
X163485785Y-71397428D01*
X163342928Y-71326000D01*
X163271500Y-71254571D01*
X163200071Y-71111714D01*
X164271500Y-70040285D02*
X164271500Y-69326000D01*
X164700071Y-70183142D02*
X163200071Y-69683142D01*
X164700071Y-69183142D01*
X164700071Y-67540285D02*
X163200071Y-67540285D01*
X164271500Y-67040285D01*
X163200071Y-66540285D01*
X164700071Y-66540285D01*
X164271500Y-65897428D02*
X164271500Y-65183142D01*
X164700071Y-66040285D02*
X163200071Y-65540285D01*
X164700071Y-65040285D01*
X163200071Y-64683142D02*
X164700071Y-63683142D01*
X163200071Y-63683142D02*
X164700071Y-64683142D01*
D10*
X127569380Y-86950904D02*
X128378904Y-86950904D01*
X128474142Y-86903285D01*
X128521761Y-86855666D01*
X128569380Y-86760428D01*
X128569380Y-86569952D01*
X128521761Y-86474714D01*
X128474142Y-86427095D01*
X128378904Y-86379476D01*
X127569380Y-86379476D01*
X127902714Y-85474714D02*
X128569380Y-85474714D01*
X127521761Y-85712809D02*
X128236047Y-85950904D01*
X128236047Y-85331857D01*
X127569380Y-103968904D02*
X128378904Y-103968904D01*
X128474142Y-103921285D01*
X128521761Y-103873666D01*
X128569380Y-103778428D01*
X128569380Y-103587952D01*
X128521761Y-103492714D01*
X128474142Y-103445095D01*
X128378904Y-103397476D01*
X127569380Y-103397476D01*
X127569380Y-103016523D02*
X127569380Y-102397476D01*
X127950333Y-102730809D01*
X127950333Y-102587952D01*
X127997952Y-102492714D01*
X128045571Y-102445095D01*
X128140809Y-102397476D01*
X128378904Y-102397476D01*
X128474142Y-102445095D01*
X128521761Y-102492714D01*
X128569380Y-102587952D01*
X128569380Y-102873666D01*
X128521761Y-102968904D01*
X128474142Y-103016523D01*
X127569380Y-95332904D02*
X128378904Y-95332904D01*
X128474142Y-95285285D01*
X128521761Y-95237666D01*
X128569380Y-95142428D01*
X128569380Y-94951952D01*
X128521761Y-94856714D01*
X128474142Y-94809095D01*
X128378904Y-94761476D01*
X127569380Y-94761476D01*
X128569380Y-93761476D02*
X128569380Y-94332904D01*
X128569380Y-94047190D02*
X127569380Y-94047190D01*
X127712238Y-94142428D01*
X127807476Y-94237666D01*
X127855095Y-94332904D01*
X178411142Y-86240857D02*
X178458761Y-86288476D01*
X178506380Y-86431333D01*
X178506380Y-86526571D01*
X178458761Y-86669428D01*
X178363523Y-86764666D01*
X178268285Y-86812285D01*
X178077809Y-86859904D01*
X177934952Y-86859904D01*
X177744476Y-86812285D01*
X177649238Y-86764666D01*
X177554000Y-86669428D01*
X177506380Y-86526571D01*
X177506380Y-86431333D01*
X177554000Y-86288476D01*
X177601619Y-86240857D01*
X177601619Y-85859904D02*
X177554000Y-85812285D01*
X177506380Y-85717047D01*
X177506380Y-85478952D01*
X177554000Y-85383714D01*
X177601619Y-85336095D01*
X177696857Y-85288476D01*
X177792095Y-85288476D01*
X177934952Y-85336095D01*
X178506380Y-85907523D01*
X178506380Y-85288476D01*
X177506380Y-84669428D02*
X177506380Y-84574190D01*
X177554000Y-84478952D01*
X177601619Y-84431333D01*
X177696857Y-84383714D01*
X177887333Y-84336095D01*
X178125428Y-84336095D01*
X178315904Y-84383714D01*
X178411142Y-84431333D01*
X178458761Y-84478952D01*
X178506380Y-84574190D01*
X178506380Y-84669428D01*
X178458761Y-84764666D01*
X178411142Y-84812285D01*
X178315904Y-84859904D01*
X178125428Y-84907523D01*
X177887333Y-84907523D01*
X177696857Y-84859904D01*
X177601619Y-84812285D01*
X177554000Y-84764666D01*
X177506380Y-84669428D01*
X173855142Y-102973142D02*
X173807523Y-103020761D01*
X173664666Y-103068380D01*
X173569428Y-103068380D01*
X173426571Y-103020761D01*
X173331333Y-102925523D01*
X173283714Y-102830285D01*
X173236095Y-102639809D01*
X173236095Y-102496952D01*
X173283714Y-102306476D01*
X173331333Y-102211238D01*
X173426571Y-102116000D01*
X173569428Y-102068380D01*
X173664666Y-102068380D01*
X173807523Y-102116000D01*
X173855142Y-102163619D01*
X174807523Y-103068380D02*
X174236095Y-103068380D01*
X174521809Y-103068380D02*
X174521809Y-102068380D01*
X174426571Y-102211238D01*
X174331333Y-102306476D01*
X174236095Y-102354095D01*
X175378952Y-102496952D02*
X175283714Y-102449333D01*
X175236095Y-102401714D01*
X175188476Y-102306476D01*
X175188476Y-102258857D01*
X175236095Y-102163619D01*
X175283714Y-102116000D01*
X175378952Y-102068380D01*
X175569428Y-102068380D01*
X175664666Y-102116000D01*
X175712285Y-102163619D01*
X175759904Y-102258857D01*
X175759904Y-102306476D01*
X175712285Y-102401714D01*
X175664666Y-102449333D01*
X175569428Y-102496952D01*
X175378952Y-102496952D01*
X175283714Y-102544571D01*
X175236095Y-102592190D01*
X175188476Y-102687428D01*
X175188476Y-102877904D01*
X175236095Y-102973142D01*
X175283714Y-103020761D01*
X175378952Y-103068380D01*
X175569428Y-103068380D01*
X175664666Y-103020761D01*
X175712285Y-102973142D01*
X175759904Y-102877904D01*
X175759904Y-102687428D01*
X175712285Y-102592190D01*
X175664666Y-102544571D01*
X175569428Y-102496952D01*
X177903142Y-97416857D02*
X177950761Y-97464476D01*
X177998380Y-97607333D01*
X177998380Y-97702571D01*
X177950761Y-97845428D01*
X177855523Y-97940666D01*
X177760285Y-97988285D01*
X177569809Y-98035904D01*
X177426952Y-98035904D01*
X177236476Y-97988285D01*
X177141238Y-97940666D01*
X177046000Y-97845428D01*
X176998380Y-97702571D01*
X176998380Y-97607333D01*
X177046000Y-97464476D01*
X177093619Y-97416857D01*
X177998380Y-96464476D02*
X177998380Y-97035904D01*
X177998380Y-96750190D02*
X176998380Y-96750190D01*
X177141238Y-96845428D01*
X177236476Y-96940666D01*
X177284095Y-97035904D01*
X176998380Y-96131142D02*
X176998380Y-95512095D01*
X177379333Y-95845428D01*
X177379333Y-95702571D01*
X177426952Y-95607333D01*
X177474571Y-95559714D01*
X177569809Y-95512095D01*
X177807904Y-95512095D01*
X177903142Y-95559714D01*
X177950761Y-95607333D01*
X177998380Y-95702571D01*
X177998380Y-95988285D01*
X177950761Y-96083523D01*
X177903142Y-96131142D01*
X141057333Y-102465142D02*
X141009714Y-102512761D01*
X140866857Y-102560380D01*
X140771619Y-102560380D01*
X140628761Y-102512761D01*
X140533523Y-102417523D01*
X140485904Y-102322285D01*
X140438285Y-102131809D01*
X140438285Y-101988952D01*
X140485904Y-101798476D01*
X140533523Y-101703238D01*
X140628761Y-101608000D01*
X140771619Y-101560380D01*
X140866857Y-101560380D01*
X141009714Y-101608000D01*
X141057333Y-101655619D01*
X141962095Y-101560380D02*
X141485904Y-101560380D01*
X141438285Y-102036571D01*
X141485904Y-101988952D01*
X141581142Y-101941333D01*
X141819238Y-101941333D01*
X141914476Y-101988952D01*
X141962095Y-102036571D01*
X142009714Y-102131809D01*
X142009714Y-102369904D01*
X141962095Y-102465142D01*
X141914476Y-102512761D01*
X141819238Y-102560380D01*
X141581142Y-102560380D01*
X141485904Y-102512761D01*
X141438285Y-102465142D01*
X108148380Y-66778095D02*
X107148380Y-66778095D01*
X107148380Y-66540000D01*
X107196000Y-66397142D01*
X107291238Y-66301904D01*
X107386476Y-66254285D01*
X107576952Y-66206666D01*
X107719809Y-66206666D01*
X107910285Y-66254285D01*
X108005523Y-66301904D01*
X108100761Y-66397142D01*
X108148380Y-66540000D01*
X108148380Y-66778095D01*
X107243619Y-65825714D02*
X107196000Y-65778095D01*
X107148380Y-65682857D01*
X107148380Y-65444761D01*
X107196000Y-65349523D01*
X107243619Y-65301904D01*
X107338857Y-65254285D01*
X107434095Y-65254285D01*
X107576952Y-65301904D01*
X108148380Y-65873333D01*
X108148380Y-65254285D01*
X95897380Y-77168333D02*
X96611666Y-77168333D01*
X96754523Y-77215952D01*
X96849761Y-77311190D01*
X96897380Y-77454047D01*
X96897380Y-77549285D01*
X95897380Y-76215952D02*
X95897380Y-76692142D01*
X96373571Y-76739761D01*
X96325952Y-76692142D01*
X96278333Y-76596904D01*
X96278333Y-76358809D01*
X96325952Y-76263571D01*
X96373571Y-76215952D01*
X96468809Y-76168333D01*
X96706904Y-76168333D01*
X96802142Y-76215952D01*
X96849761Y-76263571D01*
X96897380Y-76358809D01*
X96897380Y-76596904D01*
X96849761Y-76692142D01*
X96802142Y-76739761D01*
X133238095Y-80097380D02*
X133238095Y-80906904D01*
X133285714Y-81002142D01*
X133333333Y-81049761D01*
X133428571Y-81097380D01*
X133619047Y-81097380D01*
X133714285Y-81049761D01*
X133761904Y-81002142D01*
X133809523Y-80906904D01*
X133809523Y-80097380D01*
X134761904Y-80097380D02*
X134285714Y-80097380D01*
X134238095Y-80573571D01*
X134285714Y-80525952D01*
X134380952Y-80478333D01*
X134619047Y-80478333D01*
X134714285Y-80525952D01*
X134761904Y-80573571D01*
X134809523Y-80668809D01*
X134809523Y-80906904D01*
X134761904Y-81002142D01*
X134714285Y-81049761D01*
X134619047Y-81097380D01*
X134380952Y-81097380D01*
X134285714Y-81049761D01*
X134238095Y-81002142D01*
X96252380Y-104179333D02*
X96966666Y-104179333D01*
X97109523Y-104226952D01*
X97204761Y-104322190D01*
X97252380Y-104465047D01*
X97252380Y-104560285D01*
X96252380Y-103798380D02*
X96252380Y-103131714D01*
X97252380Y-103560285D01*
X96232380Y-90423333D02*
X96946666Y-90423333D01*
X97089523Y-90470952D01*
X97184761Y-90566190D01*
X97232380Y-90709047D01*
X97232380Y-90804285D01*
X96232380Y-89518571D02*
X96232380Y-89709047D01*
X96280000Y-89804285D01*
X96327619Y-89851904D01*
X96470476Y-89947142D01*
X96660952Y-89994761D01*
X97041904Y-89994761D01*
X97137142Y-89947142D01*
X97184761Y-89899523D01*
X97232380Y-89804285D01*
X97232380Y-89613809D01*
X97184761Y-89518571D01*
X97137142Y-89470952D01*
X97041904Y-89423333D01*
X96803809Y-89423333D01*
X96708571Y-89470952D01*
X96660952Y-89518571D01*
X96613333Y-89613809D01*
X96613333Y-89804285D01*
X96660952Y-89899523D01*
X96708571Y-89947142D01*
X96803809Y-89994761D01*
X100880952Y-104941666D02*
X101357142Y-104941666D01*
X100785714Y-105227380D02*
X101119047Y-104227380D01*
X101452380Y-105227380D01*
X101785714Y-105227380D02*
X101785714Y-104560714D01*
X101785714Y-104751190D02*
X101833333Y-104655952D01*
X101880952Y-104608333D01*
X101976190Y-104560714D01*
X102071428Y-104560714D01*
X102833333Y-105227380D02*
X102833333Y-104227380D01*
X102833333Y-105179761D02*
X102738095Y-105227380D01*
X102547619Y-105227380D01*
X102452380Y-105179761D01*
X102404761Y-105132142D01*
X102357142Y-105036904D01*
X102357142Y-104751190D01*
X102404761Y-104655952D01*
X102452380Y-104608333D01*
X102547619Y-104560714D01*
X102738095Y-104560714D01*
X102833333Y-104608333D01*
X103738095Y-104560714D02*
X103738095Y-105227380D01*
X103309523Y-104560714D02*
X103309523Y-105084523D01*
X103357142Y-105179761D01*
X103452380Y-105227380D01*
X103595238Y-105227380D01*
X103690476Y-105179761D01*
X103738095Y-105132142D01*
X104214285Y-105227380D02*
X104214285Y-104560714D01*
X104214285Y-104227380D02*
X104166666Y-104275000D01*
X104214285Y-104322619D01*
X104261904Y-104275000D01*
X104214285Y-104227380D01*
X104214285Y-104322619D01*
X104690476Y-104560714D02*
X104690476Y-105227380D01*
X104690476Y-104655952D02*
X104738095Y-104608333D01*
X104833333Y-104560714D01*
X104976190Y-104560714D01*
X105071428Y-104608333D01*
X105119047Y-104703571D01*
X105119047Y-105227380D01*
X105738095Y-105227380D02*
X105642857Y-105179761D01*
X105595238Y-105132142D01*
X105547619Y-105036904D01*
X105547619Y-104751190D01*
X105595238Y-104655952D01*
X105642857Y-104608333D01*
X105738095Y-104560714D01*
X105880952Y-104560714D01*
X105976190Y-104608333D01*
X106023809Y-104655952D01*
X106071428Y-104751190D01*
X106071428Y-105036904D01*
X106023809Y-105132142D01*
X105976190Y-105179761D01*
X105880952Y-105227380D01*
X105738095Y-105227380D01*
X107261904Y-105227380D02*
X107261904Y-104227380D01*
X107642857Y-104227380D01*
X107738095Y-104275000D01*
X107785714Y-104322619D01*
X107833333Y-104417857D01*
X107833333Y-104560714D01*
X107785714Y-104655952D01*
X107738095Y-104703571D01*
X107642857Y-104751190D01*
X107261904Y-104751190D01*
X108261904Y-105227380D02*
X108261904Y-104560714D01*
X108261904Y-104751190D02*
X108309523Y-104655952D01*
X108357142Y-104608333D01*
X108452380Y-104560714D01*
X108547619Y-104560714D01*
X109023809Y-105227380D02*
X108928571Y-105179761D01*
X108880952Y-105132142D01*
X108833333Y-105036904D01*
X108833333Y-104751190D01*
X108880952Y-104655952D01*
X108928571Y-104608333D01*
X109023809Y-104560714D01*
X109166666Y-104560714D01*
X109261904Y-104608333D01*
X109309523Y-104655952D01*
X109357142Y-104751190D01*
X109357142Y-105036904D01*
X109309523Y-105132142D01*
X109261904Y-105179761D01*
X109166666Y-105227380D01*
X109023809Y-105227380D01*
X110547619Y-105227380D02*
X110547619Y-104227380D01*
X110880952Y-104941666D01*
X111214285Y-104227380D01*
X111214285Y-105227380D01*
X111690476Y-105227380D02*
X111690476Y-104560714D01*
X111690476Y-104227380D02*
X111642857Y-104275000D01*
X111690476Y-104322619D01*
X111738095Y-104275000D01*
X111690476Y-104227380D01*
X111690476Y-104322619D01*
X112166666Y-104560714D02*
X112166666Y-105227380D01*
X112166666Y-104655952D02*
X112214285Y-104608333D01*
X112309523Y-104560714D01*
X112452380Y-104560714D01*
X112547619Y-104608333D01*
X112595238Y-104703571D01*
X112595238Y-105227380D01*
X113071428Y-105227380D02*
X113071428Y-104560714D01*
X113071428Y-104227380D02*
X113023809Y-104275000D01*
X113071428Y-104322619D01*
X113119047Y-104275000D01*
X113071428Y-104227380D01*
X113071428Y-104322619D01*
X141057333Y-79605142D02*
X141009714Y-79652761D01*
X140866857Y-79700380D01*
X140771619Y-79700380D01*
X140628761Y-79652761D01*
X140533523Y-79557523D01*
X140485904Y-79462285D01*
X140438285Y-79271809D01*
X140438285Y-79128952D01*
X140485904Y-78938476D01*
X140533523Y-78843238D01*
X140628761Y-78748000D01*
X140771619Y-78700380D01*
X140866857Y-78700380D01*
X141009714Y-78748000D01*
X141057333Y-78795619D01*
X141390666Y-78700380D02*
X142009714Y-78700380D01*
X141676380Y-79081333D01*
X141819238Y-79081333D01*
X141914476Y-79128952D01*
X141962095Y-79176571D01*
X142009714Y-79271809D01*
X142009714Y-79509904D01*
X141962095Y-79605142D01*
X141914476Y-79652761D01*
X141819238Y-79700380D01*
X141533523Y-79700380D01*
X141438285Y-79652761D01*
X141390666Y-79605142D01*
X133818333Y-73969642D02*
X133770714Y-74017261D01*
X133627857Y-74064880D01*
X133532619Y-74064880D01*
X133389761Y-74017261D01*
X133294523Y-73922023D01*
X133246904Y-73826785D01*
X133199285Y-73636309D01*
X133199285Y-73493452D01*
X133246904Y-73302976D01*
X133294523Y-73207738D01*
X133389761Y-73112500D01*
X133532619Y-73064880D01*
X133627857Y-73064880D01*
X133770714Y-73112500D01*
X133818333Y-73160119D01*
X134199285Y-73160119D02*
X134246904Y-73112500D01*
X134342142Y-73064880D01*
X134580238Y-73064880D01*
X134675476Y-73112500D01*
X134723095Y-73160119D01*
X134770714Y-73255357D01*
X134770714Y-73350595D01*
X134723095Y-73493452D01*
X134151666Y-74064880D01*
X134770714Y-74064880D01*
X133223095Y-90892380D02*
X133223095Y-91701904D01*
X133270714Y-91797142D01*
X133318333Y-91844761D01*
X133413571Y-91892380D01*
X133604047Y-91892380D01*
X133699285Y-91844761D01*
X133746904Y-91797142D01*
X133794523Y-91701904D01*
X133794523Y-90892380D01*
X134699285Y-90892380D02*
X134508809Y-90892380D01*
X134413571Y-90940000D01*
X134365952Y-90987619D01*
X134270714Y-91130476D01*
X134223095Y-91320952D01*
X134223095Y-91701904D01*
X134270714Y-91797142D01*
X134318333Y-91844761D01*
X134413571Y-91892380D01*
X134604047Y-91892380D01*
X134699285Y-91844761D01*
X134746904Y-91797142D01*
X134794523Y-91701904D01*
X134794523Y-91463809D01*
X134746904Y-91368571D01*
X134699285Y-91320952D01*
X134604047Y-91273333D01*
X134413571Y-91273333D01*
X134318333Y-91320952D01*
X134270714Y-91368571D01*
X134223095Y-91463809D01*
X120340380Y-66778095D02*
X119340380Y-66778095D01*
X119340380Y-66540000D01*
X119388000Y-66397142D01*
X119483238Y-66301904D01*
X119578476Y-66254285D01*
X119768952Y-66206666D01*
X119911809Y-66206666D01*
X120102285Y-66254285D01*
X120197523Y-66301904D01*
X120292761Y-66397142D01*
X120340380Y-66540000D01*
X120340380Y-66778095D01*
X119673714Y-65349523D02*
X120340380Y-65349523D01*
X119292761Y-65587619D02*
X120007047Y-65825714D01*
X120007047Y-65206666D01*
X179776380Y-92876666D02*
X179300190Y-93210000D01*
X179776380Y-93448095D02*
X178776380Y-93448095D01*
X178776380Y-93067142D01*
X178824000Y-92971904D01*
X178871619Y-92924285D01*
X178966857Y-92876666D01*
X179109714Y-92876666D01*
X179204952Y-92924285D01*
X179252571Y-92971904D01*
X179300190Y-93067142D01*
X179300190Y-93448095D01*
X178776380Y-92543333D02*
X178776380Y-91876666D01*
X179776380Y-92305238D01*
X103465333Y-86304380D02*
X103132000Y-85828190D01*
X102893904Y-86304380D02*
X102893904Y-85304380D01*
X103274857Y-85304380D01*
X103370095Y-85352000D01*
X103417714Y-85399619D01*
X103465333Y-85494857D01*
X103465333Y-85637714D01*
X103417714Y-85732952D01*
X103370095Y-85780571D01*
X103274857Y-85828190D01*
X102893904Y-85828190D01*
X104417714Y-86304380D02*
X103846285Y-86304380D01*
X104132000Y-86304380D02*
X104132000Y-85304380D01*
X104036761Y-85447238D01*
X103941523Y-85542476D01*
X103846285Y-85590095D01*
X109990095Y-96480380D02*
X110561523Y-96480380D01*
X110275809Y-97480380D02*
X110275809Y-96480380D01*
X110894857Y-97480380D02*
X110894857Y-96480380D01*
X111275809Y-96480380D01*
X111371047Y-96528000D01*
X111418666Y-96575619D01*
X111466285Y-96670857D01*
X111466285Y-96813714D01*
X111418666Y-96908952D01*
X111371047Y-96956571D01*
X111275809Y-97004190D01*
X110894857Y-97004190D01*
X112418666Y-97480380D02*
X111847238Y-97480380D01*
X112132952Y-97480380D02*
X112132952Y-96480380D01*
X112037714Y-96623238D01*
X111942476Y-96718476D01*
X111847238Y-96766095D01*
X100798333Y-71572380D02*
X100465000Y-71096190D01*
X100226904Y-71572380D02*
X100226904Y-70572380D01*
X100607857Y-70572380D01*
X100703095Y-70620000D01*
X100750714Y-70667619D01*
X100798333Y-70762857D01*
X100798333Y-70905714D01*
X100750714Y-71000952D01*
X100703095Y-71048571D01*
X100607857Y-71096190D01*
X100226904Y-71096190D01*
X101369761Y-71000952D02*
X101274523Y-70953333D01*
X101226904Y-70905714D01*
X101179285Y-70810476D01*
X101179285Y-70762857D01*
X101226904Y-70667619D01*
X101274523Y-70620000D01*
X101369761Y-70572380D01*
X101560238Y-70572380D01*
X101655476Y-70620000D01*
X101703095Y-70667619D01*
X101750714Y-70762857D01*
X101750714Y-70810476D01*
X101703095Y-70905714D01*
X101655476Y-70953333D01*
X101560238Y-71000952D01*
X101369761Y-71000952D01*
X101274523Y-71048571D01*
X101226904Y-71096190D01*
X101179285Y-71191428D01*
X101179285Y-71381904D01*
X101226904Y-71477142D01*
X101274523Y-71524761D01*
X101369761Y-71572380D01*
X101560238Y-71572380D01*
X101655476Y-71524761D01*
X101703095Y-71477142D01*
X101750714Y-71381904D01*
X101750714Y-71191428D01*
X101703095Y-71096190D01*
X101655476Y-71048571D01*
X101560238Y-71000952D01*
X173188380Y-93995714D02*
X173188380Y-93424285D01*
X174188380Y-93710000D02*
X173188380Y-93710000D01*
X174188380Y-93090952D02*
X173188380Y-93090952D01*
X173664571Y-93090952D02*
X173664571Y-92519523D01*
X174188380Y-92519523D02*
X173188380Y-92519523D01*
X174188380Y-91519523D02*
X174188380Y-92090952D01*
X174188380Y-91805238D02*
X173188380Y-91805238D01*
X173331238Y-91900476D01*
X173426476Y-91995714D01*
X173474095Y-92090952D01*
X100798333Y-69667380D02*
X100465000Y-69191190D01*
X100226904Y-69667380D02*
X100226904Y-68667380D01*
X100607857Y-68667380D01*
X100703095Y-68715000D01*
X100750714Y-68762619D01*
X100798333Y-68857857D01*
X100798333Y-69000714D01*
X100750714Y-69095952D01*
X100703095Y-69143571D01*
X100607857Y-69191190D01*
X100226904Y-69191190D01*
X101274523Y-69667380D02*
X101465000Y-69667380D01*
X101560238Y-69619761D01*
X101607857Y-69572142D01*
X101703095Y-69429285D01*
X101750714Y-69238809D01*
X101750714Y-68857857D01*
X101703095Y-68762619D01*
X101655476Y-68715000D01*
X101560238Y-68667380D01*
X101369761Y-68667380D01*
X101274523Y-68715000D01*
X101226904Y-68762619D01*
X101179285Y-68857857D01*
X101179285Y-69095952D01*
X101226904Y-69191190D01*
X101274523Y-69238809D01*
X101369761Y-69286428D01*
X101560238Y-69286428D01*
X101655476Y-69238809D01*
X101703095Y-69191190D01*
X101750714Y-69095952D01*
X114244380Y-66778095D02*
X113244380Y-66778095D01*
X113244380Y-66540000D01*
X113292000Y-66397142D01*
X113387238Y-66301904D01*
X113482476Y-66254285D01*
X113672952Y-66206666D01*
X113815809Y-66206666D01*
X114006285Y-66254285D01*
X114101523Y-66301904D01*
X114196761Y-66397142D01*
X114244380Y-66540000D01*
X114244380Y-66778095D01*
X113244380Y-65873333D02*
X113244380Y-65254285D01*
X113625333Y-65587619D01*
X113625333Y-65444761D01*
X113672952Y-65349523D01*
X113720571Y-65301904D01*
X113815809Y-65254285D01*
X114053904Y-65254285D01*
X114149142Y-65301904D01*
X114196761Y-65349523D01*
X114244380Y-65444761D01*
X114244380Y-65730476D01*
X114196761Y-65825714D01*
X114149142Y-65873333D01*
X95337333Y-69445142D02*
X95289714Y-69492761D01*
X95146857Y-69540380D01*
X95051619Y-69540380D01*
X94908761Y-69492761D01*
X94813523Y-69397523D01*
X94765904Y-69302285D01*
X94718285Y-69111809D01*
X94718285Y-68968952D01*
X94765904Y-68778476D01*
X94813523Y-68683238D01*
X94908761Y-68588000D01*
X95051619Y-68540380D01*
X95146857Y-68540380D01*
X95289714Y-68588000D01*
X95337333Y-68635619D01*
X96289714Y-69540380D02*
X95718285Y-69540380D01*
X96004000Y-69540380D02*
X96004000Y-68540380D01*
X95908761Y-68683238D01*
X95813523Y-68778476D01*
X95718285Y-68826095D01*
X103465333Y-84272380D02*
X103132000Y-83796190D01*
X102893904Y-84272380D02*
X102893904Y-83272380D01*
X103274857Y-83272380D01*
X103370095Y-83320000D01*
X103417714Y-83367619D01*
X103465333Y-83462857D01*
X103465333Y-83605714D01*
X103417714Y-83700952D01*
X103370095Y-83748571D01*
X103274857Y-83796190D01*
X102893904Y-83796190D01*
X103846285Y-83367619D02*
X103893904Y-83320000D01*
X103989142Y-83272380D01*
X104227238Y-83272380D01*
X104322476Y-83320000D01*
X104370095Y-83367619D01*
X104417714Y-83462857D01*
X104417714Y-83558095D01*
X104370095Y-83700952D01*
X103798666Y-84272380D01*
X104417714Y-84272380D01*
X141057333Y-91797142D02*
X141009714Y-91844761D01*
X140866857Y-91892380D01*
X140771619Y-91892380D01*
X140628761Y-91844761D01*
X140533523Y-91749523D01*
X140485904Y-91654285D01*
X140438285Y-91463809D01*
X140438285Y-91320952D01*
X140485904Y-91130476D01*
X140533523Y-91035238D01*
X140628761Y-90940000D01*
X140771619Y-90892380D01*
X140866857Y-90892380D01*
X141009714Y-90940000D01*
X141057333Y-90987619D01*
X141914476Y-91225714D02*
X141914476Y-91892380D01*
X141676380Y-90844761D02*
X141438285Y-91559047D01*
X142057333Y-91559047D01*
X121753333Y-82240380D02*
X121420000Y-81764190D01*
X121181904Y-82240380D02*
X121181904Y-81240380D01*
X121562857Y-81240380D01*
X121658095Y-81288000D01*
X121705714Y-81335619D01*
X121753333Y-81430857D01*
X121753333Y-81573714D01*
X121705714Y-81668952D01*
X121658095Y-81716571D01*
X121562857Y-81764190D01*
X121181904Y-81764190D01*
X122610476Y-81573714D02*
X122610476Y-82240380D01*
X122372380Y-81192761D02*
X122134285Y-81907047D01*
X122753333Y-81907047D01*
X103465333Y-82240380D02*
X103132000Y-81764190D01*
X102893904Y-82240380D02*
X102893904Y-81240380D01*
X103274857Y-81240380D01*
X103370095Y-81288000D01*
X103417714Y-81335619D01*
X103465333Y-81430857D01*
X103465333Y-81573714D01*
X103417714Y-81668952D01*
X103370095Y-81716571D01*
X103274857Y-81764190D01*
X102893904Y-81764190D01*
X103798666Y-81240380D02*
X104417714Y-81240380D01*
X104084380Y-81621333D01*
X104227238Y-81621333D01*
X104322476Y-81668952D01*
X104370095Y-81716571D01*
X104417714Y-81811809D01*
X104417714Y-82049904D01*
X104370095Y-82145142D01*
X104322476Y-82192761D01*
X104227238Y-82240380D01*
X103941523Y-82240380D01*
X103846285Y-82192761D01*
X103798666Y-82145142D01*
X96186666Y-60920380D02*
X96186666Y-61634666D01*
X96139047Y-61777523D01*
X96043809Y-61872761D01*
X95900952Y-61920380D01*
X95805714Y-61920380D01*
X97186666Y-61920380D02*
X96615238Y-61920380D01*
X96900952Y-61920380D02*
X96900952Y-60920380D01*
X96805714Y-61063238D01*
X96710476Y-61158476D01*
X96615238Y-61206095D01*
X133223095Y-102322380D02*
X133223095Y-103131904D01*
X133270714Y-103227142D01*
X133318333Y-103274761D01*
X133413571Y-103322380D01*
X133604047Y-103322380D01*
X133699285Y-103274761D01*
X133746904Y-103227142D01*
X133794523Y-103131904D01*
X133794523Y-102322380D01*
X134175476Y-102322380D02*
X134842142Y-102322380D01*
X134413571Y-103322380D01*
X100322142Y-67762380D02*
X99988809Y-67286190D01*
X99750714Y-67762380D02*
X99750714Y-66762380D01*
X100131666Y-66762380D01*
X100226904Y-66810000D01*
X100274523Y-66857619D01*
X100322142Y-66952857D01*
X100322142Y-67095714D01*
X100274523Y-67190952D01*
X100226904Y-67238571D01*
X100131666Y-67286190D01*
X99750714Y-67286190D01*
X101274523Y-67762380D02*
X100703095Y-67762380D01*
X100988809Y-67762380D02*
X100988809Y-66762380D01*
X100893571Y-66905238D01*
X100798333Y-67000476D01*
X100703095Y-67048095D01*
X101893571Y-66762380D02*
X101988809Y-66762380D01*
X102084047Y-66810000D01*
X102131666Y-66857619D01*
X102179285Y-66952857D01*
X102226904Y-67143333D01*
X102226904Y-67381428D01*
X102179285Y-67571904D01*
X102131666Y-67667142D01*
X102084047Y-67714761D01*
X101988809Y-67762380D01*
X101893571Y-67762380D01*
X101798333Y-67714761D01*
X101750714Y-67667142D01*
X101703095Y-67571904D01*
X101655476Y-67381428D01*
X101655476Y-67143333D01*
X101703095Y-66952857D01*
X101750714Y-66857619D01*
X101798333Y-66810000D01*
X101893571Y-66762380D01*
X121753333Y-77668380D02*
X121420000Y-77192190D01*
X121181904Y-77668380D02*
X121181904Y-76668380D01*
X121562857Y-76668380D01*
X121658095Y-76716000D01*
X121705714Y-76763619D01*
X121753333Y-76858857D01*
X121753333Y-77001714D01*
X121705714Y-77096952D01*
X121658095Y-77144571D01*
X121562857Y-77192190D01*
X121181904Y-77192190D01*
X122610476Y-76668380D02*
X122420000Y-76668380D01*
X122324761Y-76716000D01*
X122277142Y-76763619D01*
X122181904Y-76906476D01*
X122134285Y-77096952D01*
X122134285Y-77477904D01*
X122181904Y-77573142D01*
X122229523Y-77620761D01*
X122324761Y-77668380D01*
X122515238Y-77668380D01*
X122610476Y-77620761D01*
X122658095Y-77573142D01*
X122705714Y-77477904D01*
X122705714Y-77239809D01*
X122658095Y-77144571D01*
X122610476Y-77096952D01*
X122515238Y-77049333D01*
X122324761Y-77049333D01*
X122229523Y-77096952D01*
X122181904Y-77144571D01*
X122134285Y-77239809D01*
X121753333Y-79700380D02*
X121420000Y-79224190D01*
X121181904Y-79700380D02*
X121181904Y-78700380D01*
X121562857Y-78700380D01*
X121658095Y-78748000D01*
X121705714Y-78795619D01*
X121753333Y-78890857D01*
X121753333Y-79033714D01*
X121705714Y-79128952D01*
X121658095Y-79176571D01*
X121562857Y-79224190D01*
X121181904Y-79224190D01*
X122658095Y-78700380D02*
X122181904Y-78700380D01*
X122134285Y-79176571D01*
X122181904Y-79128952D01*
X122277142Y-79081333D01*
X122515238Y-79081333D01*
X122610476Y-79128952D01*
X122658095Y-79176571D01*
X122705714Y-79271809D01*
X122705714Y-79509904D01*
X122658095Y-79605142D01*
X122610476Y-79652761D01*
X122515238Y-79700380D01*
X122277142Y-79700380D01*
X122181904Y-79652761D01*
X122134285Y-79605142D01*
X134286666Y-66000380D02*
X134286666Y-66714666D01*
X134239047Y-66857523D01*
X134143809Y-66952761D01*
X134000952Y-67000380D01*
X133905714Y-67000380D01*
X134905714Y-66428952D02*
X134810476Y-66381333D01*
X134762857Y-66333714D01*
X134715238Y-66238476D01*
X134715238Y-66190857D01*
X134762857Y-66095619D01*
X134810476Y-66048000D01*
X134905714Y-66000380D01*
X135096190Y-66000380D01*
X135191428Y-66048000D01*
X135239047Y-66095619D01*
X135286666Y-66190857D01*
X135286666Y-66238476D01*
X135239047Y-66333714D01*
X135191428Y-66381333D01*
X135096190Y-66428952D01*
X134905714Y-66428952D01*
X134810476Y-66476571D01*
X134762857Y-66524190D01*
X134715238Y-66619428D01*
X134715238Y-66809904D01*
X134762857Y-66905142D01*
X134810476Y-66952761D01*
X134905714Y-67000380D01*
X135096190Y-67000380D01*
X135191428Y-66952761D01*
X135239047Y-66905142D01*
X135286666Y-66809904D01*
X135286666Y-66619428D01*
X135239047Y-66524190D01*
X135191428Y-66476571D01*
X135096190Y-66428952D01*
D12*
X118357000Y-85444000D02*
X118357000Y-87784000D01*
X127007000Y-85444000D02*
X127007000Y-87784000D01*
D13*
X126882000Y-82564000D02*
G75*
G03*
X126882000Y-82564000I-100000J0D01*
G01*
D12*
X118357000Y-102462000D02*
X118357000Y-104802000D01*
X127007000Y-102462000D02*
X127007000Y-104802000D01*
D13*
X126882000Y-99582000D02*
G75*
G03*
X126882000Y-99582000I-100000J0D01*
G01*
D12*
X118357000Y-93826000D02*
X118357000Y-96166000D01*
X127007000Y-93826000D02*
X127007000Y-96166000D01*
D13*
X126882000Y-90946000D02*
G75*
G03*
X126882000Y-90946000I-100000J0D01*
G01*
D14*
X175512000Y-85844767D02*
X175512000Y-85552233D01*
X173509000Y-85981252D02*
X173509000Y-85458748D01*
X174979000Y-85981252D02*
X174979000Y-85458748D01*
X176532000Y-85844767D02*
X176532000Y-85552233D01*
X174373233Y-100834000D02*
X174665767Y-100834000D01*
X174236748Y-98831000D02*
X174759252Y-98831000D01*
X174236748Y-100301000D02*
X174759252Y-100301000D01*
X174373233Y-101854000D02*
X174665767Y-101854000D01*
X175512000Y-96766767D02*
X175512000Y-96474233D01*
X173509000Y-96903252D02*
X173509000Y-96380748D01*
X174979000Y-96903252D02*
X174979000Y-96380748D01*
X176532000Y-96766767D02*
X176532000Y-96474233D01*
X143594000Y-98722000D02*
X138854000Y-98722000D01*
X138854000Y-98722000D02*
X138854000Y-105962000D01*
X143594000Y-105962000D02*
X138854000Y-105962000D01*
X143594000Y-98722000D02*
X143594000Y-105962000D01*
X112755000Y-70900000D02*
X112755000Y-62040000D01*
X107085000Y-62040000D02*
X107085000Y-70900000D01*
X107085000Y-70900000D02*
X112755000Y-70900000D01*
X93645000Y-73475000D02*
X94855000Y-73475000D01*
X95355000Y-80695000D02*
X95355000Y-72975000D01*
X94855000Y-73475000D02*
X94855000Y-80195000D01*
X92835000Y-72975000D02*
X92835000Y-73975000D01*
X92835000Y-73975000D02*
X91335000Y-73975000D01*
X94855000Y-80195000D02*
X93645000Y-80195000D01*
X93645000Y-80195000D02*
X93645000Y-80695000D01*
X95355000Y-72975000D02*
X91335000Y-72975000D01*
X91035000Y-72675000D02*
X91035000Y-75175000D01*
X93645000Y-72975000D02*
X93645000Y-73475000D01*
X91335000Y-80695000D02*
X95355000Y-80695000D01*
X93535000Y-72675000D02*
X91035000Y-72675000D01*
X91335000Y-72975000D02*
X91335000Y-80695000D01*
X92835000Y-79695000D02*
X91335000Y-79695000D01*
X92835000Y-80695000D02*
X92835000Y-79695000D01*
D13*
X128900000Y-76750000D02*
G75*
G03*
X128900000Y-76750000I-100000J0D01*
G01*
D12*
X130698000Y-75920000D02*
X137302000Y-75920000D01*
X137302000Y-86080000D02*
X130698000Y-86080000D01*
D14*
X91690000Y-98736000D02*
X91690000Y-108956000D01*
X94000000Y-108456000D02*
X94000000Y-108956000D01*
X93190000Y-107956000D02*
X91690000Y-107956000D01*
X95210000Y-108456000D02*
X94000000Y-108456000D01*
X93890000Y-98436000D02*
X91390000Y-98436000D01*
X93190000Y-108956000D02*
X93190000Y-107956000D01*
X94000000Y-99236000D02*
X95210000Y-99236000D01*
X91390000Y-98436000D02*
X91390000Y-100936000D01*
X95710000Y-108956000D02*
X95710000Y-98736000D01*
X93190000Y-98736000D02*
X93190000Y-99736000D01*
X93190000Y-99736000D02*
X91690000Y-99736000D01*
X95710000Y-98736000D02*
X91690000Y-98736000D01*
X94000000Y-98736000D02*
X94000000Y-99236000D01*
X91690000Y-108956000D02*
X95710000Y-108956000D01*
X95210000Y-99236000D02*
X95210000Y-108456000D01*
X93170000Y-83480000D02*
X91670000Y-83480000D01*
X93170000Y-97700000D02*
X93170000Y-96700000D01*
X93980000Y-97200000D02*
X93980000Y-97700000D01*
X93870000Y-82180000D02*
X91370000Y-82180000D01*
X91670000Y-82480000D02*
X91670000Y-97700000D01*
X93170000Y-96700000D02*
X91670000Y-96700000D01*
X91670000Y-97700000D02*
X95690000Y-97700000D01*
X95190000Y-82980000D02*
X95190000Y-97200000D01*
X93980000Y-82480000D02*
X93980000Y-82980000D01*
X95190000Y-97200000D02*
X93980000Y-97200000D01*
X93980000Y-82980000D02*
X95190000Y-82980000D01*
X91370000Y-82180000D02*
X91370000Y-84680000D01*
X93170000Y-82480000D02*
X93170000Y-83480000D01*
X95690000Y-97700000D02*
X95690000Y-82480000D01*
X95690000Y-82480000D02*
X91670000Y-82480000D01*
X115890000Y-108764000D02*
X98110000Y-108764000D01*
X98110000Y-108764000D02*
X98110000Y-75236000D01*
X98110000Y-75236000D02*
X115890000Y-75236000D01*
X115890000Y-75236000D02*
X115890000Y-108764000D01*
X143594000Y-75722000D02*
X138854000Y-75722000D01*
X138854000Y-75722000D02*
X138854000Y-82962000D01*
X143594000Y-82962000D02*
X138854000Y-82962000D01*
X143594000Y-75722000D02*
X143594000Y-82962000D01*
X136105000Y-67872500D02*
X128865000Y-67872500D01*
X140855000Y-72442500D02*
X139355000Y-72442500D01*
X136855000Y-71862500D02*
X136105000Y-72612500D01*
X128865000Y-72612500D02*
X128865000Y-67872500D01*
X139105000Y-72612500D02*
X139105000Y-67872500D01*
X137605000Y-72612500D02*
X136855000Y-71862500D01*
X139105000Y-72612500D02*
X137605000Y-72612500D01*
X137605000Y-67872500D02*
X136855000Y-68622500D01*
X136855000Y-68622500D02*
X136105000Y-67872500D01*
X136105000Y-72612500D02*
X128865000Y-72612500D01*
X127725000Y-70242500D02*
X128865000Y-70242500D01*
X139105000Y-67872500D02*
X137605000Y-67872500D01*
X140105000Y-73192500D02*
X140105000Y-71692500D01*
X140245000Y-70242500D02*
X139105000Y-70242500D01*
D13*
X128900000Y-87750000D02*
G75*
G03*
X128900000Y-87750000I-100000J0D01*
G01*
D12*
X130698000Y-86920000D02*
X137302000Y-86920000D01*
X137302000Y-97080000D02*
X130698000Y-97080000D01*
D14*
X124755000Y-70900000D02*
X124755000Y-62040000D01*
X119085000Y-62040000D02*
X119085000Y-70900000D01*
X119085000Y-70900000D02*
X124755000Y-70900000D01*
X178535000Y-92482936D02*
X178535000Y-92937064D01*
X177065000Y-92482936D02*
X177065000Y-92937064D01*
X107727064Y-87016000D02*
X106272936Y-87016000D01*
X107727064Y-85196000D02*
X106272936Y-85196000D01*
X112625000Y-94615000D02*
G75*
G03*
X112625000Y-94615000I-1500000J0D01*
G01*
X104227064Y-71735000D02*
X103772936Y-71735000D01*
X104227064Y-70265000D02*
X103772936Y-70265000D01*
X175960000Y-92222133D02*
G75*
G03*
X174510641Y-92125095I-700000J417133D01*
G01*
X104227064Y-69735000D02*
X103772936Y-69735000D01*
X104227064Y-68265000D02*
X103772936Y-68265000D01*
X118755000Y-70900000D02*
X118755000Y-62040000D01*
X113085000Y-62040000D02*
X113085000Y-70900000D01*
X113085000Y-70900000D02*
X118755000Y-70900000D01*
X91283000Y-67521651D02*
X99217000Y-67521651D01*
X93698000Y-64681651D02*
X96802000Y-64681651D01*
X93084000Y-65001651D02*
X94210000Y-65001651D01*
X96290000Y-66801651D02*
X98972000Y-66801651D01*
X92305000Y-65641651D02*
X94210000Y-65641651D01*
X91248000Y-67681651D02*
X99252000Y-67681651D01*
X96290000Y-66481651D02*
X98812000Y-66481651D01*
X91293000Y-67481651D02*
X99207000Y-67481651D01*
X96290000Y-66241651D02*
X98668000Y-66241651D01*
X91445000Y-67001651D02*
X94210000Y-67001651D01*
X96290000Y-65881651D02*
X98406000Y-65881651D01*
X93797000Y-64641651D02*
X96703000Y-64641651D01*
X91256000Y-67641651D02*
X99244000Y-67641651D01*
X91176000Y-68242651D02*
X99324000Y-68242651D01*
X93286000Y-64881651D02*
X97214000Y-64881651D01*
X91198000Y-68002651D02*
X99302000Y-68002651D01*
X96290000Y-65401651D02*
X97947000Y-65401651D01*
X96290000Y-65281651D02*
X97806000Y-65281651D01*
X94717000Y-64401651D02*
X95783000Y-64401651D01*
X96290000Y-65601651D02*
X98157000Y-65601651D01*
X96290000Y-66161651D02*
X98615000Y-66161651D01*
X91193000Y-68042651D02*
X99307000Y-68042651D01*
X91170000Y-68402651D02*
X99330000Y-68402651D01*
X96290000Y-66121651D02*
X98588000Y-66121651D01*
X91710000Y-66441651D02*
X94210000Y-66441651D01*
X92599000Y-65361651D02*
X94210000Y-65361651D01*
X92963000Y-65081651D02*
X94210000Y-65081651D01*
X92694000Y-65281651D02*
X94210000Y-65281651D01*
X91832000Y-66241651D02*
X94210000Y-66241651D01*
X96290000Y-65801651D02*
X98340000Y-65801651D01*
X92509000Y-65441651D02*
X94210000Y-65441651D01*
X96290000Y-67001651D02*
X99055000Y-67001651D01*
X94021000Y-64561651D02*
X96479000Y-64561651D01*
X91348000Y-67281651D02*
X99152000Y-67281651D01*
X91546000Y-66761651D02*
X94210000Y-66761651D01*
X92094000Y-65881651D02*
X94210000Y-65881651D01*
X92935000Y-72892349D02*
X92935000Y-72092349D01*
X91265000Y-67601651D02*
X99235000Y-67601651D01*
X91373000Y-67201651D02*
X99127000Y-67201651D01*
X91220000Y-67842651D02*
X99280000Y-67842651D01*
X91493000Y-66881651D02*
X94210000Y-66881651D01*
X92195000Y-65761651D02*
X94210000Y-65761651D01*
X93148000Y-64961651D02*
X94210000Y-64961651D01*
X91336000Y-67321651D02*
X99164000Y-67321651D01*
X91912000Y-66121651D02*
X94210000Y-66121651D01*
X94302000Y-64481651D02*
X96198000Y-64481651D01*
X91564000Y-66721651D02*
X94210000Y-66721651D01*
X93437000Y-64801651D02*
X97063000Y-64801651D01*
X96290000Y-66361651D02*
X98743000Y-66361651D01*
X91387000Y-67161651D02*
X99113000Y-67161651D01*
X91603000Y-66641651D02*
X94210000Y-66641651D01*
X96290000Y-65641651D02*
X98195000Y-65641651D01*
X93904000Y-64601651D02*
X96596000Y-64601651D01*
X96290000Y-66401651D02*
X98767000Y-66401651D01*
X92535000Y-72492349D02*
X93335000Y-72492349D01*
X91858000Y-66201651D02*
X94210000Y-66201651D01*
X91528000Y-66801651D02*
X94210000Y-66801651D01*
X96290000Y-66841651D02*
X98990000Y-66841651D01*
X91314000Y-67401651D02*
X99186000Y-67401651D01*
X96290000Y-66321651D02*
X98719000Y-66321651D01*
X96290000Y-65761651D02*
X98305000Y-65761651D01*
X92126000Y-65841651D02*
X94210000Y-65841651D01*
X91182000Y-68162651D02*
X99318000Y-68162651D01*
X96290000Y-66921651D02*
X99024000Y-66921651D01*
X92796000Y-65201651D02*
X94210000Y-65201651D01*
X96290000Y-65041651D02*
X97478000Y-65041651D01*
X91325000Y-67361651D02*
X99175000Y-67361651D01*
X93605000Y-64721651D02*
X96895000Y-64721651D01*
X91806000Y-66281651D02*
X94210000Y-66281651D01*
X91208000Y-67922651D02*
X99292000Y-67922651D01*
X96290000Y-65841651D02*
X98374000Y-65841651D01*
X92646000Y-65321651D02*
X94210000Y-65321651D01*
X96290000Y-64961651D02*
X97352000Y-64961651D01*
X94152000Y-64521651D02*
X96348000Y-64521651D01*
X91666000Y-66521651D02*
X94210000Y-66521651D01*
X92061000Y-65921651D02*
X94210000Y-65921651D01*
X91274000Y-67561651D02*
X99226000Y-67561651D01*
X92466000Y-65481651D02*
X94210000Y-65481651D01*
X91361000Y-67241651D02*
X99139000Y-67241651D01*
X94482000Y-64441651D02*
X96018000Y-64441651D01*
X96290000Y-66961651D02*
X99040000Y-66961651D01*
X96290000Y-66441651D02*
X98790000Y-66441651D01*
X91644000Y-66561651D02*
X94210000Y-66561651D01*
X96290000Y-66281651D02*
X98694000Y-66281651D01*
X96290000Y-66681651D02*
X98916000Y-66681651D01*
X96290000Y-66521651D02*
X98834000Y-66521651D01*
X96290000Y-65721651D02*
X98269000Y-65721651D01*
X96290000Y-65161651D02*
X97650000Y-65161651D01*
X91213000Y-67882651D02*
X99287000Y-67882651D01*
X96290000Y-66641651D02*
X98897000Y-66641651D01*
X96290000Y-66721651D02*
X98936000Y-66721651D01*
X96290000Y-66601651D02*
X98877000Y-66601651D01*
X91185000Y-68122651D02*
X99315000Y-68122651D01*
X91202000Y-67962651D02*
X99298000Y-67962651D01*
X93360000Y-64841651D02*
X97140000Y-64841651D01*
X91233000Y-67761651D02*
X99267000Y-67761651D01*
X91415000Y-67081651D02*
X99085000Y-67081651D01*
X96290000Y-66201651D02*
X98642000Y-66201651D01*
X96290000Y-66041651D02*
X98530000Y-66041651D01*
X92231000Y-65721651D02*
X94210000Y-65721651D01*
X96290000Y-66881651D02*
X99007000Y-66881651D01*
X92850000Y-65161651D02*
X94210000Y-65161651D01*
X91885000Y-66161651D02*
X94210000Y-66161651D01*
X91584000Y-66681651D02*
X94210000Y-66681651D01*
X91179000Y-68202651D02*
X99321000Y-68202651D01*
X92267000Y-65681651D02*
X94210000Y-65681651D01*
X96290000Y-65241651D02*
X97755000Y-65241651D01*
X91429000Y-67041651D02*
X99071000Y-67041651D01*
X91171000Y-68362651D02*
X99329000Y-68362651D01*
X93022000Y-65041651D02*
X94210000Y-65041651D01*
X96290000Y-65321651D02*
X97854000Y-65321651D01*
X96290000Y-66561651D02*
X98856000Y-66561651D01*
X91173000Y-68322651D02*
X99327000Y-68322651D01*
X96290000Y-66001651D02*
X98500000Y-66001651D01*
X91476000Y-66921651D02*
X94210000Y-66921651D01*
X96290000Y-65681651D02*
X98233000Y-65681651D01*
X91733000Y-66401651D02*
X94210000Y-66401651D01*
X92424000Y-65521651D02*
X94210000Y-65521651D01*
X91510000Y-66841651D02*
X94210000Y-66841651D01*
X96290000Y-65481651D02*
X98034000Y-65481651D01*
X96290000Y-65441651D02*
X97991000Y-65441651D01*
X91170000Y-68442651D02*
X99330000Y-68442651D01*
X91226000Y-67802651D02*
X99274000Y-67802651D01*
X91303000Y-67441651D02*
X99197000Y-67441651D01*
X96290000Y-65121651D02*
X97595000Y-65121651D01*
X91781000Y-66321651D02*
X94210000Y-66321651D01*
X91170000Y-68482651D02*
X99330000Y-68482651D01*
X92030000Y-65961651D02*
X94210000Y-65961651D01*
X92905000Y-65121651D02*
X94210000Y-65121651D01*
X92160000Y-65801651D02*
X94210000Y-65801651D01*
X92745000Y-65241651D02*
X94210000Y-65241651D01*
X96290000Y-65201651D02*
X97704000Y-65201651D01*
X91688000Y-66481651D02*
X94210000Y-66481651D01*
X96290000Y-66761651D02*
X98954000Y-66761651D01*
X96290000Y-65081651D02*
X97537000Y-65081651D01*
X91189000Y-68082651D02*
X99311000Y-68082651D01*
X92553000Y-65401651D02*
X94210000Y-65401651D01*
X93216000Y-64921651D02*
X97284000Y-64921651D01*
X96290000Y-65961651D02*
X98470000Y-65961651D01*
X92343000Y-65601651D02*
X94210000Y-65601651D01*
X96290000Y-66081651D02*
X98559000Y-66081651D01*
X91460000Y-66961651D02*
X94210000Y-66961651D01*
X96290000Y-65361651D02*
X97901000Y-65361651D01*
X91240000Y-67721651D02*
X99260000Y-67721651D01*
X96290000Y-65561651D02*
X98117000Y-65561651D01*
X96290000Y-65921651D02*
X98439000Y-65921651D01*
X92383000Y-65561651D02*
X94210000Y-65561651D01*
X96290000Y-65521651D02*
X98076000Y-65521651D01*
X91941000Y-66081651D02*
X94210000Y-66081651D01*
X91970000Y-66041651D02*
X94210000Y-66041651D01*
X91174000Y-68282651D02*
X99326000Y-68282651D01*
X92000000Y-66001651D02*
X94210000Y-66001651D01*
X91623000Y-66601651D02*
X94210000Y-66601651D01*
X91757000Y-66361651D02*
X94210000Y-66361651D01*
X96290000Y-65001651D02*
X97416000Y-65001651D01*
X93519000Y-64761651D02*
X96981000Y-64761651D01*
X91400000Y-67121651D02*
X99100000Y-67121651D01*
X99370000Y-68482651D02*
G75*
G03*
X99370000Y-68482651I-4120000J0D01*
G01*
X107661064Y-84730000D02*
X106206936Y-84730000D01*
X107661064Y-82910000D02*
X106206936Y-82910000D01*
X143594000Y-87722000D02*
X138854000Y-87722000D01*
X138854000Y-87722000D02*
X138854000Y-94962000D01*
X143594000Y-94962000D02*
X138854000Y-94962000D01*
X143594000Y-87722000D02*
X143594000Y-94962000D01*
X117636936Y-80624000D02*
X119091064Y-80624000D01*
X117636936Y-82444000D02*
X119091064Y-82444000D01*
X107661064Y-82444000D02*
X106206936Y-82444000D01*
X107661064Y-80624000D02*
X106206936Y-80624000D01*
X105615000Y-63500000D02*
X105615000Y-64710000D01*
X98395000Y-65210000D02*
X106115000Y-65210000D01*
X105615000Y-64710000D02*
X98895000Y-64710000D01*
X106115000Y-62690000D02*
X105115000Y-62690000D01*
X105115000Y-62690000D02*
X105115000Y-61190000D01*
X98895000Y-64710000D02*
X98895000Y-63500000D01*
X98895000Y-63500000D02*
X98395000Y-63500000D01*
X106115000Y-65210000D02*
X106115000Y-61190000D01*
X106415000Y-60890000D02*
X103915000Y-60890000D01*
X106115000Y-63500000D02*
X105615000Y-63500000D01*
X98395000Y-61190000D02*
X98395000Y-65210000D01*
X106415000Y-63390000D02*
X106415000Y-60890000D01*
X106115000Y-61190000D02*
X98395000Y-61190000D01*
X99395000Y-62690000D02*
X99395000Y-61190000D01*
X98395000Y-62690000D02*
X99395000Y-62690000D01*
D13*
X128900000Y-98750000D02*
G75*
G03*
X128900000Y-98750000I-100000J0D01*
G01*
D12*
X130698000Y-97920000D02*
X137302000Y-97920000D01*
X137302000Y-108080000D02*
X130698000Y-108080000D01*
D14*
X104227064Y-67735000D02*
X103772936Y-67735000D01*
X104227064Y-66265000D02*
X103772936Y-66265000D01*
G36*
X159765803Y-84327421D02*
G01*
X159817898Y-84165422D01*
X159903941Y-84014387D01*
X160017298Y-83881652D01*
X160133531Y-83779671D01*
X160250274Y-83705652D01*
X160378881Y-83653094D01*
X160452184Y-83632584D01*
X160580534Y-83601034D01*
X160660815Y-83361245D01*
X160785414Y-83039416D01*
X160938519Y-82734978D01*
X161122329Y-82444186D01*
X161339039Y-82163292D01*
X161413971Y-82076821D01*
X161549137Y-81924845D01*
X161513874Y-81832937D01*
X161484414Y-81723717D01*
X161469511Y-81596458D01*
X161469945Y-81466524D01*
X161486491Y-81349277D01*
X161488885Y-81339531D01*
X161551452Y-81162486D01*
X161641941Y-81007498D01*
X161758819Y-80876241D01*
X161900549Y-80770387D01*
X162065597Y-80691610D01*
X162091992Y-80682325D01*
X162252880Y-80646331D01*
X162419388Y-80642170D01*
X162585116Y-80668087D01*
X162743666Y-80722328D01*
X162888640Y-80803137D01*
X163013637Y-80908759D01*
X163045237Y-80943782D01*
X163117499Y-81029193D01*
X163271055Y-80993358D01*
X163402477Y-80964451D01*
X163521078Y-80942892D01*
X163636349Y-80927720D01*
X163757784Y-80917971D01*
X163894873Y-80912681D01*
X164057109Y-80910887D01*
X164084000Y-80910860D01*
X164250657Y-80912212D01*
X164390775Y-80916910D01*
X164513868Y-80925916D01*
X164629449Y-80940193D01*
X164747031Y-80960703D01*
X164876129Y-80988409D01*
X164896142Y-80993028D01*
X165048897Y-81028532D01*
X165117742Y-80947990D01*
X165239006Y-80833049D01*
X165382809Y-80742405D01*
X165542518Y-80679035D01*
X165711502Y-80645917D01*
X165800242Y-80641636D01*
X165978506Y-80659394D01*
X166145254Y-80709703D01*
X166297067Y-80789903D01*
X166430529Y-80897336D01*
X166542222Y-81029340D01*
X166628728Y-81183256D01*
X166678894Y-81325525D01*
X166697457Y-81433759D01*
X166701657Y-81555688D01*
X166692384Y-81679170D01*
X166670529Y-81792065D01*
X166638270Y-81879737D01*
X166628516Y-81902198D01*
X166627581Y-81922805D01*
X166638960Y-81947796D01*
X166666147Y-81983412D01*
X166712636Y-82035890D01*
X166746357Y-82072741D01*
X166970991Y-82342463D01*
X167168344Y-82631543D01*
X167336072Y-82935886D01*
X167471833Y-83251400D01*
X167543259Y-83465369D01*
X167583052Y-83599949D01*
X167713609Y-83632042D01*
X167795336Y-83656085D01*
X167878432Y-83686814D01*
X167937731Y-83714004D01*
X168016278Y-83765858D01*
X168102988Y-83839007D01*
X168188076Y-83923690D01*
X168261757Y-84010145D01*
X168314249Y-84088608D01*
X168315475Y-84090888D01*
X168382567Y-84253575D01*
X168415972Y-84422448D01*
X168416453Y-84592806D01*
X168384773Y-84759947D01*
X168321697Y-84919169D01*
X168227987Y-85065771D01*
X168141642Y-85161192D01*
X168018311Y-85263457D01*
X167887153Y-85337658D01*
X167736373Y-85390243D01*
X167710638Y-85396836D01*
X167583052Y-85428198D01*
X167543777Y-85562779D01*
X167432368Y-85881119D01*
X167286557Y-86192033D01*
X167107731Y-86493066D01*
X166897276Y-86781765D01*
X166770431Y-86932275D01*
X166620754Y-87101330D01*
X166661655Y-87221322D01*
X166699145Y-87384236D01*
X166703218Y-87547530D01*
X166676328Y-87707242D01*
X166620927Y-87859409D01*
X166539468Y-88000071D01*
X166434403Y-88125265D01*
X166308186Y-88231029D01*
X166163268Y-88313402D01*
X166002103Y-88368422D01*
X165944223Y-88380164D01*
X165808956Y-88390680D01*
X165666653Y-88380620D01*
X165532413Y-88351686D01*
X165461204Y-88325617D01*
X165413001Y-88304849D01*
X165380537Y-88291900D01*
X165373382Y-88289749D01*
X165371947Y-88307193D01*
X165370616Y-88357035D01*
X165369423Y-88435544D01*
X165368401Y-88538988D01*
X165367583Y-88663634D01*
X165367001Y-88805752D01*
X165366690Y-88961608D01*
X165366645Y-89048498D01*
X165366645Y-89807246D01*
X164842748Y-89807246D01*
X164842748Y-88931072D01*
X164842478Y-88757017D01*
X164841702Y-88594476D01*
X164840476Y-88446920D01*
X164838851Y-88317820D01*
X164836883Y-88210647D01*
X164834625Y-88128872D01*
X164832130Y-88075966D01*
X164829453Y-88055400D01*
X164829199Y-88055254D01*
X164806183Y-88058439D01*
X164757047Y-88066584D01*
X164691207Y-88078114D01*
X164671126Y-88081722D01*
X164591551Y-88094487D01*
X164515447Y-88103982D01*
X164457842Y-88108367D01*
X164452681Y-88108465D01*
X164378759Y-88109095D01*
X164366921Y-88447822D01*
X164364259Y-88543292D01*
X164361804Y-88668542D01*
X164359623Y-88817222D01*
X164357788Y-88982979D01*
X164356366Y-89159465D01*
X164355426Y-89340327D01*
X164355038Y-89519215D01*
X164355032Y-89540781D01*
X164354981Y-90295012D01*
X163831084Y-90295012D01*
X163831084Y-88127849D01*
X163790436Y-88120010D01*
X163750958Y-88113376D01*
X163690642Y-88104347D01*
X163618001Y-88094066D01*
X163541552Y-88083676D01*
X163469809Y-88074320D01*
X163411288Y-88067140D01*
X163374504Y-88063280D01*
X163366289Y-88063088D01*
X163365464Y-88081190D01*
X163364365Y-88132614D01*
X163363028Y-88214555D01*
X163361486Y-88324204D01*
X163359774Y-88458754D01*
X163357927Y-88615400D01*
X163355978Y-88791333D01*
X163353962Y-88983748D01*
X163351912Y-89189836D01*
X163349864Y-89406791D01*
X163349785Y-89415437D01*
X163337406Y-90764714D01*
X162815599Y-90764714D01*
X162822025Y-89518198D01*
X162823068Y-89309596D01*
X162823992Y-89111935D01*
X162824788Y-88928126D01*
X162825446Y-88761080D01*
X162825957Y-88613710D01*
X162826311Y-88488927D01*
X162826498Y-88389643D01*
X162826510Y-88318769D01*
X162826336Y-88279217D01*
X162826119Y-88271683D01*
X162809879Y-88278502D01*
X162770122Y-88296192D01*
X162726759Y-88315795D01*
X162565259Y-88370947D01*
X162402770Y-88392679D01*
X162242757Y-88383427D01*
X162088683Y-88345627D01*
X161944012Y-88281714D01*
X161812209Y-88194125D01*
X161696738Y-88085295D01*
X161601063Y-87957659D01*
X161528647Y-87813654D01*
X161482956Y-87655716D01*
X161467452Y-87486280D01*
X161469328Y-87431641D01*
X161478696Y-87347370D01*
X161494500Y-87263087D01*
X161513395Y-87196483D01*
X161514223Y-87194292D01*
X161549834Y-87101466D01*
X161415401Y-86950879D01*
X161185245Y-86669285D01*
X160988693Y-86377104D01*
X160824046Y-86071444D01*
X160689604Y-85749408D01*
X160659521Y-85663038D01*
X160580534Y-85427113D01*
X160452371Y-85395609D01*
X160281515Y-85335962D01*
X160129515Y-85247531D01*
X159999113Y-85133807D01*
X159893048Y-84998281D01*
X159814064Y-84844445D01*
X159764901Y-84675790D01*
X159748956Y-84505946D01*
X160202819Y-84505946D01*
X160204474Y-84541866D01*
X160234140Y-84655262D01*
X160294164Y-84751486D01*
X160361113Y-84812153D01*
X160437782Y-84866350D01*
X160828687Y-84875382D01*
X161219591Y-84884415D01*
X161241316Y-85014369D01*
X161309870Y-85316266D01*
X161412316Y-85609904D01*
X161546762Y-85892014D01*
X161711315Y-86159326D01*
X161904083Y-86408572D01*
X162123174Y-86636482D01*
X162240163Y-86739881D01*
X162338361Y-86822030D01*
X162160417Y-87126836D01*
X162093911Y-87242434D01*
X162044619Y-87332486D01*
X162010225Y-87401840D01*
X161988409Y-87455346D01*
X161976855Y-87497854D01*
X161974208Y-87516437D01*
X161971651Y-87617412D01*
X161988849Y-87697216D01*
X162029399Y-87766990D01*
X162069482Y-87811745D01*
X162159831Y-87883398D01*
X162254785Y-87920118D01*
X162358763Y-87923103D01*
X162428202Y-87908954D01*
X162477455Y-87890108D01*
X162524204Y-87859630D01*
X162571733Y-87813626D01*
X162623325Y-87748202D01*
X162682263Y-87659463D01*
X162751831Y-87543516D01*
X162784969Y-87485838D01*
X162837428Y-87393900D01*
X162883640Y-87313332D01*
X162920689Y-87249186D01*
X162945658Y-87206510D01*
X162955579Y-87190404D01*
X162974161Y-87192990D01*
X163019278Y-87205108D01*
X163083282Y-87224596D01*
X163129907Y-87239701D01*
X163446757Y-87328713D01*
X163756660Y-87383056D01*
X164062729Y-87402761D01*
X164368079Y-87387861D01*
X164675822Y-87338386D01*
X164975588Y-87258650D01*
X165060994Y-87232238D01*
X165133017Y-87210924D01*
X165185214Y-87196542D01*
X165211137Y-87190928D01*
X165212777Y-87191129D01*
X165222885Y-87207869D01*
X165247969Y-87250982D01*
X165285128Y-87315440D01*
X165331466Y-87396216D01*
X165382688Y-87485838D01*
X165439499Y-87582684D01*
X165494985Y-87672375D01*
X165544984Y-87748542D01*
X165585336Y-87804813D01*
X165608978Y-87832277D01*
X165684729Y-87884427D01*
X165774531Y-87918651D01*
X165845379Y-87928239D01*
X165946017Y-87911833D01*
X166036621Y-87866689D01*
X166112382Y-87798925D01*
X166168490Y-87714654D01*
X166200135Y-87619991D01*
X166202508Y-87521053D01*
X166194832Y-87483962D01*
X166179606Y-87445901D01*
X166149212Y-87383263D01*
X166107008Y-87302489D01*
X166056351Y-87210022D01*
X166005889Y-87121409D01*
X165952598Y-87029170D01*
X165906175Y-86948121D01*
X165869444Y-86883249D01*
X165845227Y-86839540D01*
X165836349Y-86821982D01*
X165836347Y-86821944D01*
X165849244Y-86808083D01*
X165884220Y-86775973D01*
X165935704Y-86730620D01*
X165988919Y-86684854D01*
X166158647Y-86523644D01*
X166323408Y-86335482D01*
X166476342Y-86129497D01*
X166610588Y-85914818D01*
X166705252Y-85731525D01*
X166756638Y-85609239D01*
X166808030Y-85466993D01*
X166855487Y-85317344D01*
X166895066Y-85172852D01*
X166922823Y-85046078D01*
X166925795Y-85028939D01*
X166949759Y-84884415D01*
X167339988Y-84875382D01*
X167730217Y-84866350D01*
X167806886Y-84812153D01*
X167887201Y-84737564D01*
X167936828Y-84647283D01*
X167957733Y-84537287D01*
X167958705Y-84501611D01*
X167955470Y-84431202D01*
X167943068Y-84379993D01*
X167916696Y-84331316D01*
X167904509Y-84313533D01*
X167869333Y-84267216D01*
X167833848Y-84231333D01*
X167792918Y-84204474D01*
X167741405Y-84185229D01*
X167674171Y-84172189D01*
X167586078Y-84163944D01*
X167471990Y-84159085D01*
X167331351Y-84156268D01*
X167206082Y-84154310D01*
X167112257Y-84152273D01*
X167045192Y-84149606D01*
X167000205Y-84145756D01*
X166972611Y-84140173D01*
X166957727Y-84132303D01*
X166950869Y-84121596D01*
X166948119Y-84111104D01*
X166940810Y-84075315D01*
X166928890Y-84015341D01*
X166914599Y-83942475D01*
X166910467Y-83921250D01*
X166854322Y-83697293D01*
X166772865Y-83464134D01*
X166670824Y-83232651D01*
X166552926Y-83013721D01*
X166441673Y-82842676D01*
X166349672Y-82723475D01*
X166239175Y-82595075D01*
X166120265Y-82468363D01*
X166003023Y-82354224D01*
X165928747Y-82288807D01*
X165831461Y-82207688D01*
X166005437Y-81906604D01*
X166061436Y-81807265D01*
X166111838Y-81713297D01*
X166153377Y-81631149D01*
X166182791Y-81567268D01*
X166196675Y-81528751D01*
X166203398Y-81425753D01*
X166179388Y-81330918D01*
X166129774Y-81247993D01*
X166059683Y-81180725D01*
X165974243Y-81132863D01*
X165878581Y-81108154D01*
X165777826Y-81110344D01*
X165677105Y-81143182D01*
X165672372Y-81145587D01*
X165637858Y-81167785D01*
X165602525Y-81200802D01*
X165563441Y-81248695D01*
X165517672Y-81315524D01*
X165462287Y-81405347D01*
X165394353Y-81522222D01*
X165372730Y-81560265D01*
X165322114Y-81649321D01*
X165277643Y-81726956D01*
X165242365Y-81787900D01*
X165219326Y-81826882D01*
X165211741Y-81838727D01*
X165192543Y-81836513D01*
X165147013Y-81824409D01*
X165082875Y-81804598D01*
X165036998Y-81789349D01*
X164722755Y-81699612D01*
X164411081Y-81645353D01*
X164102832Y-81626680D01*
X163853529Y-81637972D01*
X163680874Y-81657106D01*
X163530293Y-81681014D01*
X163387780Y-81712574D01*
X163239328Y-81754660D01*
X163157533Y-81780867D01*
X163079726Y-81805814D01*
X163015547Y-81824990D01*
X162972073Y-81836376D01*
X162956475Y-81838271D01*
X162945959Y-81821116D01*
X162920505Y-81777613D01*
X162883037Y-81712819D01*
X162836480Y-81631793D01*
X162785312Y-81542310D01*
X162710175Y-81413847D01*
X162647095Y-81314206D01*
X162592787Y-81239495D01*
X162543968Y-81185823D01*
X162497353Y-81149300D01*
X162449659Y-81126034D01*
X162428202Y-81119193D01*
X162344983Y-81102601D01*
X162274010Y-81106734D01*
X162197020Y-81132960D01*
X162187454Y-81137228D01*
X162086966Y-81196572D01*
X162018974Y-81270163D01*
X161981627Y-81361024D01*
X161973076Y-81472183D01*
X161973870Y-81486625D01*
X161977800Y-81527289D01*
X161985415Y-81565395D01*
X161999258Y-81606645D01*
X162021868Y-81656742D01*
X162055786Y-81721390D01*
X162103551Y-81806291D01*
X162158925Y-81902058D01*
X162336629Y-82207609D01*
X162239298Y-82288907D01*
X162014693Y-82498883D01*
X161812542Y-82733404D01*
X161635286Y-82988266D01*
X161485366Y-83259262D01*
X161365224Y-83542188D01*
X161277301Y-83832839D01*
X161241188Y-84008242D01*
X161218236Y-84143732D01*
X160840058Y-84153210D01*
X160724755Y-84156802D01*
X160620108Y-84161386D01*
X160532095Y-84166594D01*
X160466697Y-84172057D01*
X160429893Y-84177406D01*
X160425749Y-84178732D01*
X160337233Y-84235359D01*
X160267166Y-84314360D01*
X160220658Y-84407351D01*
X160202819Y-84505946D01*
X159748956Y-84505946D01*
X159748296Y-84498915D01*
X159765803Y-84327421D01*
G37*
G36*
X164188459Y-83987825D02*
G01*
X164289120Y-84016384D01*
X164300785Y-84021772D01*
X164422254Y-84096530D01*
X164513192Y-84187995D01*
X164562673Y-84268449D01*
X164608270Y-84398411D01*
X164620976Y-84528096D01*
X164603397Y-84652951D01*
X164558136Y-84768429D01*
X164487801Y-84869980D01*
X164394996Y-84953053D01*
X164282326Y-85013100D01*
X164152397Y-85045572D01*
X164115711Y-85048960D01*
X164036751Y-85048697D01*
X163962743Y-85040028D01*
X163930428Y-85032057D01*
X163800234Y-84971950D01*
X163695167Y-84886925D01*
X163617333Y-84779912D01*
X163568832Y-84653835D01*
X163551769Y-84511623D01*
X163551774Y-84505041D01*
X163569430Y-84367616D01*
X163619477Y-84244409D01*
X163699932Y-84138511D01*
X163808811Y-84053014D01*
X163859574Y-84025367D01*
X163959745Y-83992430D01*
X164074021Y-83979878D01*
X164188459Y-83987825D01*
G37*
X117636936Y-76052000D02*
X119091064Y-76052000D01*
X117636936Y-77872000D02*
X119091064Y-77872000D01*
X117636936Y-78338000D02*
X119091064Y-78338000D01*
X117636936Y-80158000D02*
X119091064Y-80158000D01*
X127930000Y-64310000D02*
X127930000Y-65810000D01*
X142150000Y-64310000D02*
X141150000Y-64310000D01*
X141650000Y-63500000D02*
X142150000Y-63500000D01*
X126630000Y-63610000D02*
X126630000Y-66110000D01*
X126930000Y-65810000D02*
X142150000Y-65810000D01*
X141150000Y-64310000D02*
X141150000Y-65810000D01*
X142150000Y-65810000D02*
X142150000Y-61790000D01*
X127430000Y-62290000D02*
X141650000Y-62290000D01*
X126930000Y-63500000D02*
X127430000Y-63500000D01*
X141650000Y-62290000D02*
X141650000Y-63500000D01*
X127430000Y-63500000D02*
X127430000Y-62290000D01*
X126630000Y-66110000D02*
X129130000Y-66110000D01*
X126930000Y-64310000D02*
X127930000Y-64310000D01*
X142150000Y-61790000D02*
X126930000Y-61790000D01*
X126930000Y-61790000D02*
X126930000Y-65810000D01*
%LPC*%
D15*
X145186400Y-97028000D02*
X145186400Y-100203000D01*
D16*
X149860000Y-82296000D02*
X145288000Y-77724000D01*
X150114000Y-84836000D02*
X150114000Y-82550000D01*
D17*
X145288000Y-76708000D02*
X149352000Y-76708000D01*
D15*
X144272000Y-96012000D02*
X145542000Y-97282000D01*
D10*
X145288000Y-77724000D02*
X145288000Y-76708000D01*
D17*
X149390866Y-76744109D02*
X150152866Y-75982109D01*
X145215935Y-91114508D02*
X149991135Y-95889708D01*
X149606000Y-71374000D02*
X145796000Y-71374000D01*
X145288000Y-86360000D02*
X148336000Y-86360000D01*
D16*
X148507085Y-86302702D02*
X150030129Y-84778702D01*
D17*
X150098085Y-99704868D02*
X150073381Y-96024500D01*
D15*
X145288000Y-100330000D02*
X146304000Y-101346000D01*
D16*
X149860000Y-71374000D02*
X150114000Y-71628000D01*
D17*
X148502976Y-101291622D02*
X150098085Y-99704868D01*
D15*
X145034000Y-63500000D02*
X145034000Y-94488000D01*
D17*
X150114000Y-75946000D02*
X150114000Y-71882000D01*
X141496631Y-70236716D02*
X144290631Y-70236716D01*
D15*
X145034000Y-94869000D02*
X144272000Y-95504000D01*
G36*
X152329951Y-103334559D02*
G01*
X152461298Y-103066975D01*
X152653423Y-102836556D01*
X152896929Y-102657643D01*
X153182424Y-102544573D01*
X153500514Y-102511683D01*
X153841806Y-102573312D01*
X153853312Y-102577108D01*
X154166736Y-102735802D01*
X154414784Y-102982990D01*
X154556986Y-103219383D01*
X154709441Y-103530989D01*
X155261865Y-103530989D01*
X155261865Y-91904643D01*
X154257745Y-90902498D01*
X153977268Y-90626370D01*
X153717695Y-90377983D01*
X153582653Y-90253036D01*
X156438459Y-90253036D01*
X156455568Y-90304744D01*
X156541900Y-90405887D01*
X156695319Y-90558918D01*
X156787560Y-90644571D01*
X156868883Y-90716859D01*
X156939970Y-90783039D01*
X157001503Y-90850370D01*
X157054164Y-90926113D01*
X157098637Y-91017525D01*
X157135602Y-91131866D01*
X157165743Y-91276395D01*
X157189741Y-91458370D01*
X157208280Y-91685050D01*
X157222040Y-91963695D01*
X157231706Y-92301564D01*
X157237958Y-92705915D01*
X157241479Y-93184008D01*
X157242951Y-93743100D01*
X157243058Y-94390452D01*
X157242480Y-95133323D01*
X157241901Y-95978971D01*
X157241821Y-96373210D01*
X157241821Y-101464545D01*
X157977233Y-100730766D01*
X158712645Y-99996986D01*
X158712645Y-94475205D01*
X158712608Y-93562426D01*
X158712406Y-92756052D01*
X158711903Y-92049347D01*
X158710964Y-91435577D01*
X158709453Y-90908005D01*
X158707233Y-90459897D01*
X158704170Y-90084517D01*
X158700127Y-89775130D01*
X158694968Y-89525000D01*
X158688557Y-89327392D01*
X158680760Y-89175571D01*
X158671439Y-89062801D01*
X158660459Y-88982347D01*
X158647684Y-88927474D01*
X158632979Y-88891445D01*
X158616207Y-88867527D01*
X158599212Y-88850769D01*
X158554595Y-88815492D01*
X158508725Y-88803744D01*
X158448118Y-88825012D01*
X158359289Y-88888780D01*
X158228753Y-89004536D01*
X158043023Y-89181763D01*
X157821373Y-89397909D01*
X157547607Y-89660977D01*
X157334226Y-89853592D01*
X157165004Y-89988560D01*
X157023717Y-90078688D01*
X156894140Y-90136782D01*
X156878180Y-90142353D01*
X156693791Y-90197677D01*
X156537135Y-90232346D01*
X156482189Y-90238142D01*
X156438459Y-90253036D01*
X153582653Y-90253036D01*
X153491231Y-90168448D01*
X153310081Y-90008876D01*
X153186452Y-89910379D01*
X153137947Y-89883117D01*
X152929057Y-89808686D01*
X152708055Y-89660539D01*
X152512961Y-89466388D01*
X152450888Y-89382345D01*
X152359466Y-89224389D01*
X152311109Y-89072168D01*
X152293308Y-88877193D01*
X152293110Y-88861240D01*
X152333205Y-88861240D01*
X152406945Y-89166045D01*
X152577784Y-89450753D01*
X152629776Y-89509628D01*
X152775075Y-89636178D01*
X152947853Y-89749834D01*
X153105190Y-89824289D01*
X153166837Y-89838797D01*
X153143457Y-89803207D01*
X153057556Y-89707098D01*
X152926652Y-89569915D01*
X152901291Y-89544017D01*
X152690785Y-89307653D01*
X152653065Y-89247024D01*
X153395050Y-89247024D01*
X153424655Y-89322320D01*
X153449845Y-89331879D01*
X153480971Y-89290413D01*
X153472078Y-89247024D01*
X153431925Y-89172591D01*
X153417283Y-89162169D01*
X153397507Y-89208363D01*
X153395050Y-89247024D01*
X152653065Y-89247024D01*
X152562229Y-89101019D01*
X152500845Y-88895153D01*
X152493735Y-88792731D01*
X152885919Y-88792731D01*
X152901053Y-88896034D01*
X152968431Y-88914993D01*
X153021173Y-88904097D01*
X153138104Y-88899994D01*
X153194222Y-88931305D01*
X153181041Y-88980047D01*
X153111390Y-88992458D01*
X153019598Y-89020809D01*
X153011104Y-89091456D01*
X153073075Y-89168348D01*
X153128393Y-89173832D01*
X153214673Y-89194077D01*
X153234393Y-89230402D01*
X153245999Y-89232931D01*
X153262944Y-89145015D01*
X153266262Y-89119741D01*
X153296385Y-88994573D01*
X153339135Y-88936407D01*
X153343277Y-88935888D01*
X153402922Y-88981868D01*
X153466954Y-89088376D01*
X153536432Y-89240863D01*
X153572188Y-89074233D01*
X153607945Y-88907603D01*
X153614638Y-89091456D01*
X153637976Y-89232295D01*
X153679814Y-89270755D01*
X153718984Y-89210417D01*
X153730643Y-89105599D01*
X153791041Y-89105599D01*
X153802101Y-89197672D01*
X153817336Y-89218739D01*
X153861162Y-89175435D01*
X153904182Y-89105599D01*
X153935732Y-89018597D01*
X153890505Y-88992756D01*
X153877887Y-88992458D01*
X153806582Y-89039730D01*
X153791041Y-89105599D01*
X153730643Y-89105599D01*
X153734471Y-89071181D01*
X153741538Y-88937895D01*
X153778087Y-88890112D01*
X153867143Y-88900376D01*
X153875896Y-88902548D01*
X153979888Y-88913489D01*
X154014815Y-88852817D01*
X154017322Y-88792731D01*
X153979517Y-88584732D01*
X153880799Y-88406583D01*
X153743208Y-88288346D01*
X153624549Y-88257046D01*
X153600761Y-88304190D01*
X153607485Y-88398472D01*
X153614294Y-88493858D01*
X153564555Y-88530616D01*
X153444073Y-88533335D01*
X153340546Y-88523490D01*
X153344051Y-88506013D01*
X153366765Y-88499559D01*
X153497711Y-88449050D01*
X153543707Y-88389956D01*
X153492188Y-88338806D01*
X153489690Y-88337829D01*
X153425241Y-88284614D01*
X153426999Y-88251119D01*
X153424418Y-88205986D01*
X153338134Y-88213804D01*
X153195474Y-88268060D01*
X153035864Y-88395947D01*
X152924154Y-88590969D01*
X152885919Y-88792731D01*
X152493735Y-88792731D01*
X152489928Y-88737893D01*
X152541522Y-88418480D01*
X152687281Y-88146459D01*
X152913672Y-87934557D01*
X153207160Y-87795501D01*
X153548801Y-87742124D01*
X153703911Y-87737385D01*
X153754562Y-87728727D01*
X153709426Y-87710994D01*
X153632837Y-87692160D01*
X153453677Y-87676000D01*
X153248433Y-87692292D01*
X153208561Y-87699939D01*
X152887846Y-87820579D01*
X152633884Y-88016006D01*
X152452744Y-88267244D01*
X152350494Y-88555314D01*
X152333205Y-88861240D01*
X152293110Y-88861240D01*
X152291932Y-88766178D01*
X152300354Y-88536992D01*
X152333900Y-88371883D01*
X152404989Y-88222501D01*
X152449764Y-88151709D01*
X152688347Y-87886055D01*
X152984730Y-87706370D01*
X153317343Y-87620606D01*
X153664615Y-87636716D01*
X153772808Y-87663922D01*
X153982566Y-87706410D01*
X154271435Y-87735231D01*
X154605865Y-87747162D01*
X154641009Y-87747303D01*
X155236412Y-87747915D01*
X155646816Y-87334754D01*
X155813671Y-87157897D01*
X155938681Y-87008037D01*
X156007094Y-86903969D01*
X156013106Y-86868050D01*
X156002452Y-86843955D01*
X156022223Y-86858310D01*
X156085890Y-86843881D01*
X156201961Y-86764093D01*
X156345477Y-86636147D01*
X156347502Y-86634156D01*
X156619549Y-86366199D01*
X156619549Y-72675880D01*
X155558859Y-73730030D01*
X155227791Y-74057297D01*
X154964941Y-74312303D01*
X154759814Y-74504064D01*
X154601917Y-74641593D01*
X154480757Y-74733902D01*
X154385840Y-74790007D01*
X154306672Y-74818919D01*
X154286030Y-74823346D01*
X154149948Y-74862903D01*
X154077522Y-74912089D01*
X154073892Y-74924099D01*
X154047527Y-74950498D01*
X154006008Y-74917804D01*
X153914757Y-74880828D01*
X153748635Y-74856326D01*
X153594992Y-74849920D01*
X153251775Y-74812874D01*
X152973154Y-74694484D01*
X152735203Y-74483871D01*
X152701515Y-74443623D01*
X152658490Y-74369073D01*
X153395050Y-74369073D01*
X153424655Y-74444369D01*
X153449845Y-74453928D01*
X153480971Y-74412462D01*
X153472078Y-74369073D01*
X153431925Y-74294640D01*
X153417283Y-74284218D01*
X153397507Y-74330412D01*
X153395050Y-74369073D01*
X152658490Y-74369073D01*
X152540911Y-74165343D01*
X152494485Y-73903905D01*
X152885919Y-73903905D01*
X152900999Y-73996403D01*
X152969011Y-74021960D01*
X153055629Y-74013434D01*
X153173818Y-74012194D01*
X153225266Y-74043566D01*
X153225340Y-74045231D01*
X153179187Y-74089459D01*
X153126342Y-74094079D01*
X153043260Y-74130148D01*
X153027344Y-74199363D01*
X153060736Y-74287587D01*
X153126342Y-74295881D01*
X153214019Y-74315650D01*
X153234849Y-74352451D01*
X153245644Y-74351526D01*
X153261144Y-74260693D01*
X153266549Y-74213505D01*
X153293633Y-74077090D01*
X153332962Y-74004832D01*
X153343108Y-74001367D01*
X153402876Y-74047350D01*
X153466954Y-74153855D01*
X153536432Y-74306342D01*
X153572188Y-74139712D01*
X153595553Y-74040171D01*
X153607116Y-74038459D01*
X153613200Y-74141354D01*
X153614638Y-74185220D01*
X153637081Y-74339719D01*
X153678015Y-74392948D01*
X153717217Y-74343634D01*
X153732099Y-74213505D01*
X153792840Y-74213505D01*
X153799007Y-74318378D01*
X153826954Y-74321578D01*
X153875883Y-74261741D01*
X153927812Y-74160758D01*
X153927316Y-74106173D01*
X153862600Y-74055949D01*
X153810864Y-74101752D01*
X153792840Y-74213505D01*
X153732099Y-74213505D01*
X153734471Y-74192768D01*
X153742087Y-74058747D01*
X153780195Y-74008874D01*
X153871684Y-74014414D01*
X153875896Y-74015213D01*
X153981130Y-74018123D01*
X154015699Y-73952389D01*
X154017322Y-73911329D01*
X153972140Y-73688173D01*
X153852862Y-73498670D01*
X153735751Y-73408042D01*
X153632433Y-73362654D01*
X153595151Y-73389855D01*
X153591196Y-73482998D01*
X153570614Y-73597356D01*
X153482412Y-73644807D01*
X153437478Y-73651561D01*
X153325176Y-73648787D01*
X153281910Y-73618784D01*
X153329507Y-73580396D01*
X153403467Y-73572599D01*
X153511058Y-73547508D01*
X153549607Y-73506378D01*
X153527816Y-73444840D01*
X153489334Y-73435666D01*
X153401454Y-73401121D01*
X153384108Y-73374554D01*
X153327228Y-73343596D01*
X153223361Y-73376239D01*
X153103913Y-73454507D01*
X153000290Y-73560422D01*
X152966531Y-73613580D01*
X152907091Y-73772389D01*
X152885919Y-73903905D01*
X152494485Y-73903905D01*
X152488574Y-73870619D01*
X152543539Y-73572486D01*
X152704840Y-73283979D01*
X152795249Y-73178061D01*
X152943643Y-73031353D01*
X153067354Y-72948652D01*
X153213084Y-72906186D01*
X153368947Y-72886022D01*
X153545491Y-72862898D01*
X153617081Y-72839392D01*
X153591872Y-72812555D01*
X153582332Y-72808823D01*
X153424055Y-72792902D01*
X153212166Y-72824889D01*
X152990136Y-72894591D01*
X152801432Y-72991811D01*
X152801064Y-72992063D01*
X152552775Y-73225516D01*
X152393209Y-73514750D01*
X152330611Y-73837858D01*
X152366169Y-74147771D01*
X152472171Y-74430722D01*
X152633313Y-74646370D01*
X152825425Y-74801552D01*
X152942439Y-74870214D01*
X153068631Y-74910681D01*
X153238514Y-74929888D01*
X153486603Y-74934775D01*
X153488178Y-74934775D01*
X153687787Y-74938875D01*
X153821472Y-74949830D01*
X153869734Y-74965623D01*
X153859808Y-74973226D01*
X153750374Y-74995576D01*
X153574718Y-75011305D01*
X153449464Y-75015654D01*
X153084458Y-74968864D01*
X152767079Y-74822277D01*
X152507965Y-74581238D01*
X152462399Y-74519768D01*
X152367547Y-74367916D01*
X152315915Y-74228642D01*
X152294997Y-74055613D01*
X152291932Y-73888227D01*
X152298744Y-73663368D01*
X152327504Y-73504884D01*
X152390700Y-73366407D01*
X152462019Y-73256686D01*
X152704221Y-73002836D01*
X153012911Y-72828907D01*
X153363757Y-72747341D01*
X153466909Y-72742747D01*
X153762756Y-72741778D01*
X154823447Y-71689169D01*
X155884137Y-70636560D01*
X155884137Y-64912627D01*
X155604473Y-64731410D01*
X155286701Y-64475077D01*
X155023500Y-64146809D01*
X154823125Y-63781170D01*
X154747286Y-63603132D01*
X154700935Y-63441144D01*
X154677129Y-63256261D01*
X154668924Y-63009537D01*
X154668462Y-62913617D01*
X154668477Y-62912427D01*
X154724449Y-62912427D01*
X154728306Y-63181134D01*
X154744630Y-63374918D01*
X154780546Y-63531870D01*
X154843181Y-63690081D01*
X154887239Y-63782568D01*
X155147002Y-64210123D01*
X155471188Y-64556135D01*
X155629571Y-64681407D01*
X155765551Y-64774496D01*
X155837631Y-64802499D01*
X155869591Y-64771839D01*
X155875807Y-64747913D01*
X155849115Y-64642828D01*
X155797346Y-64594933D01*
X155490835Y-64362222D01*
X155325039Y-64158160D01*
X156619549Y-64158160D01*
X156960488Y-64158160D01*
X156882012Y-63970340D01*
X156798640Y-63785666D01*
X156713807Y-63616777D01*
X156624079Y-63451033D01*
X156621814Y-63804597D01*
X156619549Y-64158160D01*
X155325039Y-64158160D01*
X155236097Y-64048690D01*
X155042395Y-63678368D01*
X154918990Y-63275286D01*
X154886011Y-62965538D01*
X155605377Y-62965538D01*
X155626201Y-63170111D01*
X155655755Y-63301451D01*
X155690055Y-63338551D01*
X155751289Y-63298960D01*
X155769045Y-63283089D01*
X155872493Y-63232198D01*
X156014326Y-63208208D01*
X156154912Y-63211258D01*
X156254623Y-63241483D01*
X156278796Y-63281323D01*
X156227673Y-63317103D01*
X156118645Y-63321570D01*
X155942624Y-63353657D01*
X155862154Y-63415784D01*
X155797614Y-63500870D01*
X155800619Y-63574736D01*
X155859425Y-63674827D01*
X155963498Y-63803359D01*
X156065117Y-63882627D01*
X156140704Y-63899276D01*
X156166988Y-63849015D01*
X156211387Y-63772744D01*
X156251843Y-63762169D01*
X156320404Y-63810805D01*
X156336698Y-63894166D01*
X156351321Y-64012969D01*
X156374412Y-64063876D01*
X156436045Y-64099962D01*
X156476436Y-64054833D01*
X156498799Y-63918393D01*
X156506345Y-63680541D01*
X156506409Y-63649029D01*
X156516227Y-63387293D01*
X156547244Y-63235353D01*
X156601801Y-63192927D01*
X156682242Y-63259739D01*
X156790907Y-63435509D01*
X156876324Y-63605005D01*
X157072110Y-64013543D01*
X157072110Y-63605005D01*
X157079376Y-63397108D01*
X157098939Y-63252891D01*
X157127449Y-63196551D01*
X157128680Y-63196467D01*
X157156695Y-63249396D01*
X157176382Y-63393897D01*
X157185062Y-63608543D01*
X157185251Y-63649029D01*
X157187974Y-63859210D01*
X157195213Y-64017476D01*
X157205566Y-64097053D01*
X157208909Y-64101590D01*
X157309197Y-64082130D01*
X157370929Y-64010624D01*
X157402301Y-63867382D01*
X157411505Y-63632715D01*
X157411531Y-63614691D01*
X157411531Y-63597755D01*
X157581242Y-63597755D01*
X157592779Y-63783831D01*
X157631122Y-63861375D01*
X157701866Y-63832986D01*
X157808942Y-63703605D01*
X157884247Y-63547203D01*
X157854880Y-63432898D01*
X157719623Y-63356983D01*
X157692529Y-63349302D01*
X157626021Y-63344077D01*
X157592918Y-63390653D01*
X157581955Y-63514181D01*
X157581242Y-63597755D01*
X157411531Y-63597755D01*
X157411531Y-63196467D01*
X157613246Y-63196467D01*
X157782358Y-63212516D01*
X157917416Y-63251431D01*
X157922991Y-63254284D01*
X158006521Y-63279253D01*
X158052268Y-63219533D01*
X158067675Y-63166062D01*
X158087450Y-62903799D01*
X158037551Y-62606197D01*
X157926700Y-62319489D01*
X157898198Y-62267888D01*
X157703639Y-62029784D01*
X157436110Y-61829569D01*
X157142823Y-61699420D01*
X157070452Y-61685297D01*
X157032474Y-61714574D01*
X157017853Y-61811270D01*
X157015540Y-61976397D01*
X157022992Y-62165322D01*
X157049179Y-62263192D01*
X157099851Y-62291343D01*
X157100395Y-62291345D01*
X157175394Y-62336627D01*
X157185251Y-62376200D01*
X157157317Y-62427373D01*
X157059302Y-62453719D01*
X156874115Y-62461055D01*
X156686481Y-62453437D01*
X156589880Y-62426706D01*
X156562979Y-62376200D01*
X156610141Y-62307094D01*
X156676119Y-62291345D01*
X156740930Y-62278142D01*
X156775023Y-62220818D01*
X156787845Y-62092800D01*
X156789259Y-61973138D01*
X156789259Y-61654931D01*
X156609288Y-61690925D01*
X156277045Y-61811494D01*
X155997693Y-62018558D01*
X155784071Y-62292799D01*
X155649019Y-62614899D01*
X155605377Y-62965538D01*
X154886011Y-62965538D01*
X154875144Y-62863473D01*
X154920118Y-62466959D01*
X154943927Y-62380685D01*
X154987079Y-62210328D01*
X155002272Y-62081336D01*
X154995600Y-62041264D01*
X154988842Y-62008482D01*
X155004566Y-62019544D01*
X155056649Y-61998584D01*
X155146050Y-61903617D01*
X155225773Y-61795145D01*
X155382856Y-61600113D01*
X155574975Y-61411626D01*
X155657856Y-61344969D01*
X155815911Y-61227657D01*
X155945696Y-61128620D01*
X155995887Y-61088522D01*
X156064644Y-61041191D01*
X156080742Y-61041694D01*
X156131145Y-61042445D01*
X156259779Y-61020126D01*
X156385825Y-60992017D01*
X156837743Y-60938281D01*
X157276737Y-60988773D01*
X157688468Y-61134587D01*
X158058599Y-61366821D01*
X158372794Y-61676568D01*
X158616714Y-62054926D01*
X158771218Y-62473487D01*
X158828482Y-62646896D01*
X158896193Y-62778701D01*
X158925448Y-62812765D01*
X158974749Y-62842923D01*
X158993005Y-62810441D01*
X158984495Y-62695833D01*
X158971639Y-62602338D01*
X158851803Y-62156588D01*
X158633148Y-61743003D01*
X158329104Y-61379586D01*
X157953101Y-61084343D01*
X157758082Y-60975595D01*
X157569913Y-60887872D01*
X157414304Y-60833637D01*
X157251979Y-60805010D01*
X157043664Y-60794114D01*
X156847019Y-60792819D01*
X156571938Y-60797631D01*
X156371233Y-60815884D01*
X156206334Y-60854362D01*
X156038673Y-60919846D01*
X155984941Y-60944431D01*
X155578924Y-61193089D01*
X155225488Y-61526685D01*
X154949985Y-61920344D01*
X154907808Y-62001365D01*
X154820018Y-62189760D01*
X154765718Y-62345763D01*
X154736992Y-62508703D01*
X154725926Y-62717909D01*
X154724449Y-62912427D01*
X154668477Y-62912427D01*
X154671868Y-62646774D01*
X154688011Y-62452736D01*
X154724748Y-62291271D01*
X154789936Y-62122150D01*
X154847455Y-61997140D01*
X155112349Y-61565778D01*
X155460136Y-61210301D01*
X155884426Y-60937098D01*
X155929353Y-60915242D01*
X156123377Y-60828613D01*
X156285227Y-60775266D01*
X156455195Y-60747305D01*
X156673575Y-60736836D01*
X156845830Y-60735666D01*
X157112957Y-60739396D01*
X157307340Y-60755850D01*
X157469273Y-60792922D01*
X157639049Y-60858509D01*
X157762306Y-60915242D01*
X158176004Y-61169374D01*
X158523395Y-61501059D01*
X158791925Y-61893356D01*
X158969044Y-62329325D01*
X159028754Y-62624431D01*
X159079626Y-62868154D01*
X159177175Y-63060593D01*
X159255059Y-63160635D01*
X159296716Y-63206355D01*
X159335072Y-63245092D01*
X159370263Y-63281459D01*
X159402423Y-63320067D01*
X159431690Y-63365530D01*
X159458198Y-63422459D01*
X159482083Y-63495467D01*
X159503480Y-63589167D01*
X159522526Y-63708169D01*
X159539355Y-63857087D01*
X159554104Y-64040534D01*
X159566907Y-64263120D01*
X159577902Y-64529459D01*
X159587222Y-64844163D01*
X159595004Y-65211843D01*
X159601384Y-65637113D01*
X159606496Y-66124585D01*
X159610478Y-66678871D01*
X159613463Y-67304583D01*
X159615588Y-68006333D01*
X159616988Y-68788735D01*
X159617800Y-69656399D01*
X159618158Y-70613939D01*
X159618198Y-71665966D01*
X159618056Y-72817093D01*
X159617867Y-74071933D01*
X159617768Y-75435097D01*
X159617767Y-75497738D01*
X159617767Y-87100013D01*
X160076374Y-87551247D01*
X160270276Y-87751168D01*
X160439155Y-87942060D01*
X160562322Y-88099545D01*
X160613791Y-88184517D01*
X160627401Y-88272331D01*
X160639869Y-88464227D01*
X160651197Y-88751153D01*
X160661384Y-89124056D01*
X160670431Y-89573884D01*
X160678339Y-90091584D01*
X160685108Y-90668104D01*
X160690739Y-91294392D01*
X160695232Y-91961394D01*
X160698588Y-92660060D01*
X160700807Y-93381335D01*
X160701890Y-94116168D01*
X160701838Y-94855506D01*
X160700650Y-95590297D01*
X160698328Y-96311488D01*
X160694872Y-97010028D01*
X160690283Y-97676863D01*
X160684560Y-98302940D01*
X160677705Y-98879209D01*
X160669719Y-99396615D01*
X160660601Y-99846108D01*
X160650352Y-100218633D01*
X160638973Y-100505140D01*
X160626465Y-100696575D01*
X160613043Y-100783383D01*
X160556170Y-100864265D01*
X160427476Y-101014935D01*
X160236031Y-101226222D01*
X159990905Y-101488955D01*
X159701169Y-101793962D01*
X159375894Y-102132073D01*
X159024150Y-102494118D01*
X158655008Y-102870924D01*
X158277539Y-103253321D01*
X157900813Y-103632138D01*
X157533901Y-103998204D01*
X157185873Y-104342348D01*
X156865801Y-104655400D01*
X156582754Y-104928187D01*
X156345804Y-105151539D01*
X156164021Y-105316286D01*
X156046476Y-105413255D01*
X156013237Y-105434070D01*
X155885646Y-105462654D01*
X155671273Y-105484539D01*
X155396287Y-105499550D01*
X155086859Y-105507507D01*
X154769158Y-105508234D01*
X154469353Y-105501553D01*
X154213616Y-105487287D01*
X154028115Y-105465259D01*
X153960752Y-105447983D01*
X153848025Y-105380460D01*
X153691847Y-105258602D01*
X153536476Y-105118578D01*
X153356693Y-104965638D01*
X153170230Y-104839894D01*
X153034938Y-104775414D01*
X152863963Y-104692453D01*
X152679107Y-104561151D01*
X152600193Y-104489806D01*
X152394500Y-104216934D01*
X152287158Y-103923877D01*
X152277699Y-103770103D01*
X152333323Y-103770103D01*
X152395974Y-104060430D01*
X152542649Y-104329735D01*
X152778358Y-104560473D01*
X152857634Y-104613710D01*
X153008951Y-104697775D01*
X153073468Y-104709998D01*
X153051109Y-104651196D01*
X152941796Y-104522188D01*
X152872868Y-104450254D01*
X152666469Y-104212343D01*
X152649165Y-104181545D01*
X153395050Y-104181545D01*
X153424655Y-104256841D01*
X153449845Y-104266401D01*
X153480971Y-104224934D01*
X153472078Y-104181545D01*
X153431925Y-104107112D01*
X153417283Y-104096690D01*
X153397507Y-104142884D01*
X153395050Y-104181545D01*
X152649165Y-104181545D01*
X152545219Y-103996546D01*
X152494101Y-103772363D01*
X152491764Y-103716377D01*
X152885919Y-103716377D01*
X152900999Y-103808875D01*
X152969011Y-103834432D01*
X153055629Y-103825906D01*
X153173818Y-103824667D01*
X153225266Y-103856038D01*
X153225340Y-103857703D01*
X153179187Y-103901931D01*
X153126342Y-103906552D01*
X153043260Y-103942621D01*
X153027344Y-104011835D01*
X153060736Y-104100059D01*
X153126342Y-104108353D01*
X153214019Y-104128122D01*
X153234849Y-104164923D01*
X153245644Y-104163998D01*
X153261144Y-104073165D01*
X153266549Y-104025977D01*
X153293633Y-103889562D01*
X153332962Y-103817304D01*
X153343108Y-103813839D01*
X153402876Y-103859822D01*
X153466954Y-103966327D01*
X153536432Y-104118814D01*
X153572188Y-103952184D01*
X153595553Y-103852643D01*
X153607116Y-103850931D01*
X153613200Y-103953826D01*
X153614638Y-103997692D01*
X153637081Y-104152191D01*
X153678015Y-104205420D01*
X153717217Y-104156106D01*
X153732099Y-104025977D01*
X153792840Y-104025977D01*
X153799007Y-104130851D01*
X153826954Y-104134050D01*
X153875883Y-104074214D01*
X153927812Y-103973230D01*
X153927316Y-103918646D01*
X153862600Y-103868421D01*
X153810864Y-103914224D01*
X153792840Y-104025977D01*
X153732099Y-104025977D01*
X153734471Y-104005240D01*
X153742087Y-103871219D01*
X153780195Y-103821346D01*
X153871684Y-103826886D01*
X153875896Y-103827685D01*
X153981130Y-103830595D01*
X154015699Y-103764861D01*
X154017322Y-103723801D01*
X153972140Y-103500645D01*
X153852862Y-103311142D01*
X153735751Y-103220515D01*
X153632433Y-103175126D01*
X153595151Y-103202327D01*
X153591196Y-103295470D01*
X153570614Y-103409828D01*
X153482412Y-103457279D01*
X153437478Y-103464033D01*
X153324037Y-103457609D01*
X153281910Y-103419126D01*
X153325214Y-103366880D01*
X153352623Y-103365501D01*
X153504119Y-103366167D01*
X153560376Y-103324170D01*
X153514660Y-103250215D01*
X153453187Y-103205674D01*
X153305958Y-103171584D01*
X153153120Y-103226823D01*
X153017178Y-103351130D01*
X152920638Y-103524244D01*
X152885919Y-103716377D01*
X152491764Y-103716377D01*
X152489928Y-103672414D01*
X152538605Y-103380713D01*
X152671444Y-103112857D01*
X152868656Y-102893581D01*
X153110451Y-102747624D01*
X153262732Y-102706399D01*
X153554236Y-102688054D01*
X153798821Y-102738849D01*
X154031197Y-102870628D01*
X154222923Y-103034053D01*
X154367496Y-103162933D01*
X154474686Y-103243528D01*
X154524950Y-103261516D01*
X154526453Y-103256507D01*
X154491361Y-103176086D01*
X154403812Y-103059331D01*
X154290398Y-102934381D01*
X154177712Y-102829375D01*
X154092346Y-102772451D01*
X154067732Y-102771098D01*
X154020047Y-102763792D01*
X154017322Y-102747879D01*
X153966365Y-102688612D01*
X153835487Y-102632324D01*
X153657671Y-102589242D01*
X153465904Y-102569595D01*
X153441362Y-102569296D01*
X153105078Y-102617274D01*
X152822759Y-102749510D01*
X152599414Y-102948457D01*
X152440052Y-103196570D01*
X152349685Y-103476300D01*
X152333323Y-103770103D01*
X152277699Y-103770103D01*
X152268772Y-103624973D01*
X152329951Y-103334559D01*
G37*
G36*
X147650419Y-70242548D02*
G01*
X147856417Y-70197421D01*
X148020471Y-70191427D01*
X148206797Y-70224565D01*
X148278211Y-70242548D01*
X148505372Y-70282807D01*
X148816722Y-70310597D01*
X149183769Y-70323619D01*
X149292791Y-70324307D01*
X149577403Y-70328852D01*
X149833043Y-70341223D01*
X150031575Y-70359526D01*
X150144275Y-70381641D01*
X150278545Y-70461080D01*
X150457328Y-70603959D01*
X150654828Y-70785076D01*
X150845250Y-70979230D01*
X151002797Y-71161220D01*
X151101674Y-71305842D01*
X151111527Y-71326610D01*
X151129973Y-71426696D01*
X151146190Y-71624894D01*
X151160126Y-71906197D01*
X151171726Y-72255598D01*
X151180937Y-72658090D01*
X151187705Y-73098666D01*
X151191977Y-73562318D01*
X151193699Y-74034040D01*
X151192818Y-74498824D01*
X151189279Y-74941663D01*
X151183029Y-75347550D01*
X151174015Y-75701477D01*
X151162183Y-75988439D01*
X151147479Y-76193427D01*
X151129849Y-76301434D01*
X151129312Y-76302918D01*
X151058430Y-76419875D01*
X150922005Y-76589520D01*
X150740554Y-76791094D01*
X150534594Y-77003838D01*
X150324642Y-77206993D01*
X150131216Y-77379802D01*
X149974833Y-77501505D01*
X149903660Y-77542990D01*
X149816601Y-77568851D01*
X149681118Y-77588832D01*
X149484956Y-77603522D01*
X149215862Y-77613512D01*
X148861582Y-77619390D01*
X148409861Y-77621748D01*
X148265058Y-77621857D01*
X146808492Y-77621857D01*
X147115763Y-77932993D01*
X147336579Y-78132983D01*
X147505347Y-78232852D01*
X147622490Y-78232712D01*
X147688435Y-78132677D01*
X147697516Y-78088561D01*
X147721082Y-77932993D01*
X147729559Y-78084803D01*
X147762388Y-78203566D01*
X147865389Y-78255237D01*
X147893602Y-78260180D01*
X148049170Y-78283747D01*
X147893602Y-78292223D01*
X147807133Y-78303161D01*
X147752170Y-78329376D01*
X147733824Y-78377396D01*
X147757208Y-78453752D01*
X147827434Y-78564971D01*
X147949614Y-78717585D01*
X148128859Y-78918122D01*
X148370282Y-79173111D01*
X148678995Y-79489082D01*
X149060110Y-79872564D01*
X149384247Y-80196165D01*
X149743649Y-80556714D01*
X150079834Y-80898704D01*
X150383790Y-81212620D01*
X150646508Y-81488943D01*
X150858976Y-81718159D01*
X151012183Y-81890750D01*
X151097119Y-81997201D01*
X151109636Y-82018370D01*
X151137265Y-82111250D01*
X151158107Y-82254862D01*
X151172852Y-82462214D01*
X151182189Y-82746317D01*
X151186808Y-83120178D01*
X151187572Y-83489194D01*
X151186204Y-83914734D01*
X151182277Y-84243331D01*
X151174666Y-84491176D01*
X151162249Y-84674458D01*
X151143903Y-84809366D01*
X151118503Y-84912089D01*
X151084927Y-84998816D01*
X151082445Y-85004262D01*
X150999495Y-85130622D01*
X150837991Y-85324204D01*
X150604551Y-85577751D01*
X150305788Y-85884004D01*
X150051282Y-86135666D01*
X149751919Y-86427062D01*
X149518193Y-86650737D01*
X149335083Y-86818314D01*
X149187570Y-86941416D01*
X149060635Y-87031666D01*
X148939259Y-87100687D01*
X148808422Y-87160101D01*
X148653104Y-87221531D01*
X148643157Y-87225351D01*
X148291862Y-87343243D01*
X148004874Y-87396595D01*
X147754706Y-87387009D01*
X147513873Y-87316086D01*
X147463149Y-87294111D01*
X147259934Y-87228630D01*
X147465148Y-87228630D01*
X147520487Y-87260020D01*
X147540039Y-87269112D01*
X147706776Y-87318597D01*
X147910971Y-87345304D01*
X147964315Y-87346821D01*
X148165532Y-87328912D01*
X148350267Y-87284384D01*
X148388591Y-87269112D01*
X148455421Y-87234757D01*
X148467042Y-87212320D01*
X148409762Y-87199295D01*
X148269887Y-87193171D01*
X148033724Y-87191442D01*
X147964315Y-87191403D01*
X147704058Y-87192475D01*
X147543240Y-87197365D01*
X147468168Y-87208581D01*
X147465148Y-87228630D01*
X147259934Y-87228630D01*
X147236407Y-87221049D01*
X146989150Y-87183697D01*
X146939875Y-87182213D01*
X146663202Y-87182213D01*
X146663202Y-90888110D01*
X148846796Y-93065785D01*
X149270293Y-93489998D01*
X149667809Y-93891808D01*
X150031992Y-94263546D01*
X150355486Y-94597543D01*
X150630939Y-94886129D01*
X150850994Y-95121635D01*
X151008299Y-95296393D01*
X151095499Y-95402732D01*
X151109603Y-95425497D01*
X151132609Y-95536259D01*
X151152083Y-95743860D01*
X151168019Y-96032052D01*
X151180414Y-96384587D01*
X151189263Y-96785219D01*
X151194562Y-97217700D01*
X151196306Y-97665782D01*
X151194492Y-98113220D01*
X151189114Y-98543765D01*
X151180169Y-98941170D01*
X151167652Y-99289189D01*
X151151560Y-99571573D01*
X151131887Y-99772077D01*
X151110780Y-99869888D01*
X151049554Y-99959276D01*
X150918871Y-100113940D01*
X150730857Y-100320770D01*
X150497642Y-100566656D01*
X150231354Y-100838489D01*
X150021804Y-101047003D01*
X149688359Y-101372700D01*
X149422745Y-101625698D01*
X149214485Y-101814957D01*
X149053102Y-101949439D01*
X148928119Y-102038104D01*
X148829059Y-102089914D01*
X148784582Y-102105190D01*
X148589353Y-102159940D01*
X148360290Y-102224585D01*
X148269052Y-102250451D01*
X148018161Y-102300476D01*
X147790140Y-102290451D01*
X147720340Y-102277265D01*
X147547407Y-102249574D01*
X147423149Y-102266631D01*
X147288158Y-102339737D01*
X147246903Y-102367326D01*
X147032929Y-102512726D01*
X148062333Y-102512726D01*
X148428458Y-102513468D01*
X148697596Y-102516779D01*
X148885896Y-102524282D01*
X149009510Y-102537601D01*
X149084585Y-102558362D01*
X149127273Y-102588187D01*
X149150298Y-102622147D01*
X149172314Y-102720682D01*
X149189094Y-102908212D01*
X149200637Y-103160712D01*
X149206943Y-103454157D01*
X149208013Y-103764523D01*
X149203847Y-104067786D01*
X149194443Y-104339921D01*
X149179804Y-104556903D01*
X149159928Y-104694708D01*
X149150298Y-104722681D01*
X149123804Y-104760034D01*
X149079706Y-104787783D01*
X149002639Y-104807346D01*
X148877241Y-104820139D01*
X148688147Y-104827581D01*
X148419994Y-104831089D01*
X148057416Y-104832081D01*
X147964315Y-104832102D01*
X147579881Y-104831576D01*
X147293139Y-104828993D01*
X147088639Y-104822847D01*
X146950934Y-104811630D01*
X146864575Y-104793836D01*
X146814116Y-104767957D01*
X146784108Y-104732487D01*
X146774794Y-104716069D01*
X146749625Y-104604982D01*
X146733594Y-104385662D01*
X146726882Y-104062657D01*
X146728920Y-103754010D01*
X146777129Y-103754010D01*
X146779139Y-104048897D01*
X146784105Y-104313203D01*
X146792050Y-104522986D01*
X146802994Y-104654306D01*
X146808859Y-104681305D01*
X146836270Y-104711236D01*
X146901860Y-104733607D01*
X147019905Y-104749543D01*
X147204680Y-104760174D01*
X147470462Y-104766627D01*
X147831525Y-104770029D01*
X147938406Y-104770536D01*
X148317700Y-104771438D01*
X148599458Y-104769653D01*
X148799275Y-104763768D01*
X148932748Y-104752371D01*
X149015473Y-104734047D01*
X149063046Y-104707385D01*
X149091063Y-104670971D01*
X149093862Y-104665860D01*
X149113845Y-104577341D01*
X149129724Y-104408471D01*
X149141420Y-104180921D01*
X149148850Y-103916362D01*
X149151934Y-103636465D01*
X149150590Y-103362900D01*
X149144737Y-103117340D01*
X149134294Y-102921454D01*
X149119179Y-102796914D01*
X149100994Y-102764031D01*
X149072084Y-102745930D01*
X149079307Y-102682514D01*
X149085478Y-102644088D01*
X149071602Y-102615513D01*
X149023486Y-102595331D01*
X148926937Y-102582085D01*
X148767762Y-102574317D01*
X148531770Y-102570569D01*
X148204766Y-102569384D01*
X147976965Y-102569296D01*
X147586238Y-102570306D01*
X147294158Y-102574078D01*
X147086242Y-102581722D01*
X146948009Y-102594349D01*
X146864976Y-102613071D01*
X146822663Y-102638999D01*
X146810679Y-102658778D01*
X146798228Y-102747460D01*
X146788626Y-102925266D01*
X146781895Y-103168253D01*
X146778055Y-103452481D01*
X146777129Y-103754010D01*
X146728920Y-103754010D01*
X146729670Y-103640520D01*
X146730376Y-103598808D01*
X146748057Y-102597581D01*
X146380351Y-102595534D01*
X146156668Y-102581786D01*
X145952972Y-102536641D01*
X145753834Y-102450265D01*
X145543825Y-102312823D01*
X145361513Y-102159800D01*
X147543412Y-102159800D01*
X147615468Y-102194039D01*
X147749306Y-102228403D01*
X148042831Y-102246153D01*
X148348834Y-102183060D01*
X148388591Y-102168350D01*
X148393800Y-102147052D01*
X148296237Y-102131158D01*
X148106197Y-102121932D01*
X147997314Y-102120320D01*
X147733902Y-102123129D01*
X147582745Y-102136226D01*
X147543412Y-102159800D01*
X145361513Y-102159800D01*
X145307518Y-102114480D01*
X145029483Y-101845401D01*
X144873199Y-101683030D01*
X147926602Y-101683030D01*
X147934367Y-101716661D01*
X147964315Y-101720744D01*
X148010879Y-101700045D01*
X148002029Y-101683030D01*
X147934893Y-101676260D01*
X147926602Y-101683030D01*
X144873199Y-101683030D01*
X144753019Y-101558170D01*
X144694055Y-101494463D01*
X147568324Y-101494463D01*
X147587625Y-101549562D01*
X147593271Y-101551033D01*
X147641568Y-101511392D01*
X147653179Y-101494463D01*
X147648694Y-101442334D01*
X147628233Y-101437893D01*
X147570626Y-101478958D01*
X147568324Y-101494463D01*
X144694055Y-101494463D01*
X144522427Y-101309030D01*
X144377626Y-101146463D01*
X147400869Y-101146463D01*
X147430704Y-101335516D01*
X147455184Y-101381323D01*
X147500926Y-101427350D01*
X147510888Y-101395465D01*
X147550243Y-101334391D01*
X147631200Y-101332770D01*
X147701476Y-101386917D01*
X147711525Y-101409608D01*
X147765684Y-101573860D01*
X147800043Y-101640694D01*
X147825602Y-101621558D01*
X147841550Y-101569890D01*
X147926602Y-101569890D01*
X147934367Y-101603521D01*
X147964315Y-101607603D01*
X148010879Y-101586905D01*
X148002029Y-101569890D01*
X147934893Y-101563119D01*
X147926602Y-101569890D01*
X147841550Y-101569890D01*
X147847370Y-101551033D01*
X147903324Y-101444912D01*
X147966866Y-101409608D01*
X148038055Y-101457763D01*
X148067247Y-101536891D01*
X148111996Y-101636407D01*
X148166245Y-101664173D01*
X148228136Y-101621235D01*
X148245435Y-101530708D01*
X148232048Y-101494463D01*
X148360306Y-101494463D01*
X148381004Y-101541027D01*
X148398020Y-101532176D01*
X148404790Y-101465041D01*
X148398020Y-101456749D01*
X148364389Y-101464515D01*
X148360306Y-101494463D01*
X148232048Y-101494463D01*
X148215635Y-101450028D01*
X148176453Y-101430446D01*
X148177193Y-101417588D01*
X148266930Y-101394895D01*
X148303736Y-101388018D01*
X148448532Y-101342672D01*
X148512102Y-101259774D01*
X148520513Y-101220384D01*
X148502240Y-101015974D01*
X148408880Y-100820788D01*
X148264479Y-100683674D01*
X148253340Y-100677647D01*
X148140221Y-100633190D01*
X148064850Y-100663825D01*
X148007040Y-100732989D01*
X147943322Y-100827330D01*
X147956046Y-100868444D01*
X148035325Y-100888877D01*
X148092989Y-100906298D01*
X148042874Y-100917366D01*
X147978458Y-100921058D01*
X147838930Y-100915094D01*
X147802909Y-100871863D01*
X147863253Y-100777695D01*
X147888541Y-100749016D01*
X147951892Y-100649512D01*
X147921941Y-100604638D01*
X147807549Y-100620410D01*
X147737181Y-100646264D01*
X147567668Y-100766489D01*
X147451044Y-100945005D01*
X147400869Y-101146463D01*
X144377626Y-101146463D01*
X144312564Y-101073419D01*
X144139009Y-100869509D01*
X144017343Y-100715474D01*
X143970434Y-100645313D01*
X143937850Y-100576266D01*
X143912171Y-100493295D01*
X143892364Y-100382156D01*
X143877392Y-100228603D01*
X143866222Y-100018391D01*
X143857819Y-99737277D01*
X143851148Y-99371015D01*
X143845384Y-98923458D01*
X143827790Y-97399001D01*
X143443452Y-96994394D01*
X143198515Y-96714297D01*
X143032914Y-96459612D01*
X142932760Y-96195277D01*
X142884158Y-95886230D01*
X142873426Y-95567242D01*
X146322637Y-95567242D01*
X146656646Y-95924299D01*
X146939949Y-96288282D01*
X147110755Y-96656312D01*
X147169707Y-97032142D01*
X147117449Y-97419525D01*
X146975054Y-97782750D01*
X146893852Y-97959009D01*
X146851976Y-98080491D01*
X146849138Y-98134883D01*
X146885053Y-98109870D01*
X146959435Y-97993135D01*
X146979106Y-97957320D01*
X147145778Y-97757859D01*
X147393392Y-97602596D01*
X147693955Y-97505165D01*
X147963436Y-97477982D01*
X148332495Y-97528828D01*
X148651700Y-97677836D01*
X148910568Y-97919714D01*
X148953536Y-97977844D01*
X149049746Y-98132540D01*
X149101386Y-98274923D01*
X149121556Y-98452817D01*
X149124003Y-98600115D01*
X149113257Y-98844480D01*
X149074061Y-99023353D01*
X148995979Y-99182939D01*
X148990268Y-99192205D01*
X148904494Y-99314202D01*
X148841133Y-99375701D01*
X148825618Y-99376404D01*
X148834655Y-99316910D01*
X148886976Y-99243531D01*
X148953127Y-99129984D01*
X149018322Y-98954956D01*
X149046131Y-98851821D01*
X149075885Y-98500311D01*
X148997918Y-98179656D01*
X148814003Y-97896294D01*
X148770513Y-97850476D01*
X148533344Y-97664509D01*
X148266986Y-97564366D01*
X147943156Y-97540673D01*
X147850468Y-97545556D01*
X147499305Y-97617495D01*
X147219654Y-97777100D01*
X147011985Y-98023983D01*
X146878864Y-98349841D01*
X146847880Y-98653333D01*
X146900955Y-98964426D01*
X147029358Y-99235663D01*
X147046165Y-99258980D01*
X147278029Y-99480922D01*
X147567806Y-99627181D01*
X147888017Y-99693375D01*
X148211183Y-99675123D01*
X148509826Y-99568045D01*
X148605176Y-99507538D01*
X148719019Y-99438134D01*
X148790430Y-99418770D01*
X148795409Y-99421622D01*
X148776752Y-99468125D01*
X148682741Y-99538116D01*
X148543719Y-99614723D01*
X148390029Y-99681072D01*
X148261308Y-99718634D01*
X148136495Y-99754351D01*
X148078054Y-99794963D01*
X148077455Y-99798740D01*
X148030792Y-99814044D01*
X147916212Y-99792570D01*
X147893602Y-99785737D01*
X147594758Y-99685512D01*
X147380715Y-99597431D01*
X147226225Y-99507385D01*
X147106037Y-99401264D01*
X147018859Y-99296943D01*
X146832912Y-99053151D01*
X146832912Y-99243172D01*
X146847449Y-99356943D01*
X146902282Y-99468639D01*
X147014246Y-99604494D01*
X147158190Y-99750079D01*
X147342594Y-99925847D01*
X147478425Y-100036420D01*
X147596791Y-100096926D01*
X147728802Y-100122494D01*
X147905565Y-100128250D01*
X147936030Y-100128337D01*
X148092695Y-100123237D01*
X148141523Y-100106351D01*
X148105741Y-100083321D01*
X147971431Y-100057168D01*
X147801921Y-100056413D01*
X147794605Y-100057088D01*
X147669116Y-100068276D01*
X147651404Y-100063624D01*
X147736678Y-100038653D01*
X147766320Y-100030652D01*
X147947641Y-100005718D01*
X148096471Y-100012337D01*
X148174944Y-100015131D01*
X148257380Y-99986989D01*
X148361683Y-99915361D01*
X148505757Y-99787697D01*
X148707505Y-99591448D01*
X148732885Y-99566230D01*
X149208859Y-99092729D01*
X149208859Y-96204210D01*
X147941109Y-94937400D01*
X146673360Y-93670591D01*
X146654138Y-94318346D01*
X146642651Y-94612675D01*
X146624960Y-94824307D01*
X146595436Y-94983686D01*
X146548451Y-95121251D01*
X146478777Y-95266671D01*
X146322637Y-95567242D01*
X142873426Y-95567242D01*
X142873001Y-95554597D01*
X142891051Y-95164393D01*
X142953030Y-94850012D01*
X143070683Y-94578811D01*
X143255753Y-94318146D01*
X143360523Y-94199508D01*
X143664983Y-93870655D01*
X143664983Y-86559942D01*
X147568324Y-86559942D01*
X147611373Y-86614868D01*
X147624894Y-86616512D01*
X147679821Y-86573463D01*
X147681464Y-86559942D01*
X147638416Y-86505015D01*
X147624894Y-86503372D01*
X147569968Y-86546420D01*
X147568324Y-86559942D01*
X143664983Y-86559942D01*
X143664983Y-86213085D01*
X147398614Y-86213085D01*
X147421592Y-86383024D01*
X147496450Y-86459236D01*
X147599443Y-86460105D01*
X147701359Y-86457446D01*
X147735771Y-86524837D01*
X147738035Y-86581632D01*
X147759124Y-86702026D01*
X147807536Y-86719657D01*
X147836412Y-86673082D01*
X147907745Y-86673082D01*
X147950793Y-86728008D01*
X147964315Y-86729652D01*
X148019241Y-86686604D01*
X148020885Y-86673082D01*
X147977837Y-86618156D01*
X147964315Y-86616512D01*
X147909389Y-86659560D01*
X147907745Y-86673082D01*
X147836412Y-86673082D01*
X147860984Y-86633448D01*
X147874405Y-86588227D01*
X147919458Y-86482287D01*
X147964315Y-86446801D01*
X148017121Y-86494789D01*
X148054225Y-86588227D01*
X148107714Y-86694380D01*
X148168443Y-86729652D01*
X148229006Y-86686746D01*
X148245295Y-86596270D01*
X148231810Y-86559942D01*
X148360306Y-86559942D01*
X148381004Y-86606505D01*
X148398020Y-86597655D01*
X148404790Y-86530520D01*
X148398020Y-86522228D01*
X148364389Y-86529994D01*
X148360306Y-86559942D01*
X148231810Y-86559942D01*
X148215345Y-86515586D01*
X148176453Y-86495925D01*
X148177193Y-86483066D01*
X148266930Y-86460373D01*
X148303736Y-86453497D01*
X148443462Y-86412290D01*
X148505463Y-86335533D01*
X148519269Y-86266705D01*
X148501160Y-86084902D01*
X148423166Y-85906026D01*
X148308253Y-85773752D01*
X148241138Y-85737761D01*
X148105232Y-85743357D01*
X148001665Y-85818607D01*
X147882603Y-85937670D01*
X148008314Y-85937670D01*
X148106859Y-85959218D01*
X148134026Y-85994240D01*
X148084868Y-86033960D01*
X147966427Y-86050806D01*
X147964315Y-86050810D01*
X147833251Y-86027299D01*
X147803410Y-85955686D01*
X147874507Y-85834356D01*
X147917606Y-85785748D01*
X147992856Y-85695563D01*
X147988513Y-85659389D01*
X147948553Y-85654819D01*
X147742577Y-85706346D01*
X147562637Y-85840867D01*
X147438373Y-86028294D01*
X147398614Y-86213085D01*
X143664983Y-86213085D01*
X143664983Y-82659901D01*
X146663202Y-82659901D01*
X146663968Y-83279380D01*
X146666422Y-83793887D01*
X146670796Y-84211580D01*
X146677323Y-84540619D01*
X146686235Y-84789162D01*
X146697766Y-84965368D01*
X146712149Y-85077395D01*
X146729615Y-85133403D01*
X146733914Y-85139038D01*
X146816057Y-85178230D01*
X146970817Y-85189495D01*
X147200618Y-85175924D01*
X147215073Y-85174625D01*
X147770268Y-85174625D01*
X147831410Y-85183533D01*
X147936030Y-85186078D01*
X148070188Y-85182483D01*
X148119226Y-85172400D01*
X148092376Y-85162437D01*
X147937180Y-85152250D01*
X147809525Y-85161664D01*
X147770268Y-85174625D01*
X147215073Y-85174625D01*
X147468469Y-85151854D01*
X147752152Y-85126439D01*
X147936030Y-85110018D01*
X148153249Y-85079843D01*
X148304323Y-85024474D01*
X148436042Y-84925572D01*
X148457103Y-84905772D01*
X148561494Y-84793173D01*
X148613890Y-84711166D01*
X148614600Y-84692687D01*
X148636716Y-84636393D01*
X148715027Y-84547833D01*
X148814068Y-84461061D01*
X148898372Y-84410135D01*
X148912051Y-84407064D01*
X148979347Y-84369315D01*
X149081576Y-84283849D01*
X149135535Y-84225320D01*
X149171668Y-84155189D01*
X149193513Y-84051115D01*
X149204613Y-83890757D01*
X149208506Y-83651774D01*
X149208859Y-83480678D01*
X149208859Y-82797083D01*
X147936030Y-81525198D01*
X146663202Y-80253312D01*
X146663202Y-82659901D01*
X143664983Y-82659901D01*
X143664983Y-78315578D01*
X147529653Y-78315578D01*
X147561585Y-78377331D01*
X147568324Y-78385554D01*
X147636109Y-78455860D01*
X147660106Y-78470409D01*
X147679104Y-78424210D01*
X147681464Y-78385554D01*
X147635659Y-78312190D01*
X147589682Y-78300699D01*
X147529653Y-78315578D01*
X143664983Y-78315578D01*
X143664983Y-73864803D01*
X146663202Y-73864803D01*
X146663843Y-74333718D01*
X146666256Y-74702506D01*
X146671177Y-74984173D01*
X146679340Y-75191727D01*
X146691481Y-75338176D01*
X146708333Y-75436527D01*
X146730634Y-75499789D01*
X146757836Y-75539567D01*
X146797580Y-75574788D01*
X146854365Y-75600731D01*
X146943740Y-75618499D01*
X147081252Y-75629195D01*
X147282449Y-75633924D01*
X147562879Y-75633787D01*
X147938088Y-75629888D01*
X148016522Y-75628877D01*
X149180574Y-75613617D01*
X149194645Y-75217626D01*
X149198015Y-75013458D01*
X149188640Y-74911060D01*
X149164873Y-74899608D01*
X149149407Y-74920632D01*
X149119404Y-74954637D01*
X149065741Y-74979904D01*
X148973202Y-74997703D01*
X148826574Y-75009304D01*
X148610641Y-75015978D01*
X148310189Y-75018993D01*
X147963495Y-75019630D01*
X147578446Y-75018998D01*
X147291165Y-75016156D01*
X147086281Y-75009685D01*
X146948424Y-74998165D01*
X146862225Y-74980179D01*
X146812313Y-74954306D01*
X146783318Y-74919128D01*
X146778332Y-74910209D01*
X146757527Y-74815095D01*
X146740336Y-74625277D01*
X146727767Y-74359159D01*
X146720826Y-74035145D01*
X146719772Y-73839416D01*
X146719796Y-73833957D01*
X146776342Y-73833957D01*
X146778208Y-74155362D01*
X146783373Y-74440671D01*
X146791185Y-74669143D01*
X146800992Y-74820035D01*
X146808859Y-74868833D01*
X146836270Y-74898764D01*
X146901860Y-74921134D01*
X147019905Y-74937071D01*
X147204680Y-74947702D01*
X147470462Y-74954155D01*
X147831525Y-74957557D01*
X147938406Y-74958064D01*
X148317700Y-74958966D01*
X148599458Y-74957181D01*
X148799275Y-74951296D01*
X148932748Y-74939899D01*
X149015473Y-74921575D01*
X149063046Y-74894913D01*
X149091063Y-74858499D01*
X149093862Y-74853387D01*
X149113596Y-74765370D01*
X149129343Y-74596849D01*
X149141009Y-74369505D01*
X149148501Y-74105016D01*
X149151724Y-73825064D01*
X149150584Y-73551328D01*
X149144988Y-73305489D01*
X149134842Y-73109224D01*
X149120051Y-72984216D01*
X149102105Y-72950872D01*
X149063920Y-72933005D01*
X149059678Y-72883498D01*
X149053925Y-72848962D01*
X149020674Y-72823097D01*
X148945250Y-72804326D01*
X148812979Y-72791074D01*
X148609186Y-72781765D01*
X148319197Y-72774824D01*
X147999931Y-72769693D01*
X147566571Y-72766439D01*
X147240351Y-72770963D01*
X147015523Y-72783511D01*
X146886336Y-72804332D01*
X146854385Y-72819047D01*
X146824083Y-72869731D01*
X146802233Y-72973369D01*
X146787739Y-73144220D01*
X146779505Y-73396542D01*
X146776434Y-73744594D01*
X146776342Y-73833957D01*
X146719796Y-73833957D01*
X146721375Y-73475730D01*
X146727111Y-73208744D01*
X146738368Y-73022049D01*
X146756535Y-72899237D01*
X146783001Y-72823903D01*
X146808668Y-72789150D01*
X146900698Y-72753723D01*
X147083224Y-72726093D01*
X147333868Y-72706258D01*
X147630253Y-72694220D01*
X147950003Y-72689977D01*
X148270742Y-72693531D01*
X148570093Y-72704881D01*
X148825679Y-72724026D01*
X149015124Y-72750968D01*
X149116051Y-72785706D01*
X149119963Y-72789150D01*
X149171652Y-72830285D01*
X149198212Y-72807279D01*
X149207824Y-72701448D01*
X149208859Y-72586129D01*
X149208859Y-72294213D01*
X148883580Y-72321040D01*
X148632991Y-72354142D01*
X148369239Y-72407412D01*
X148261308Y-72436007D01*
X148071840Y-72485091D01*
X147927331Y-72494463D01*
X147766828Y-72464092D01*
X147667322Y-72435721D01*
X147436389Y-72380949D01*
X147168310Y-72336947D01*
X147140741Y-72334037D01*
X147483638Y-72334037D01*
X147530846Y-72361130D01*
X147676494Y-72399781D01*
X147713107Y-72408125D01*
X148066222Y-72431171D01*
X148388591Y-72355878D01*
X148391647Y-72335230D01*
X148292850Y-72319495D01*
X148103429Y-72309958D01*
X147969029Y-72307848D01*
X147699093Y-72308821D01*
X147538508Y-72317075D01*
X147483638Y-72334037D01*
X147140741Y-72334037D01*
X147016765Y-72320951D01*
X146663202Y-72294609D01*
X146663202Y-73864803D01*
X143664983Y-73864803D01*
X143664983Y-71870558D01*
X147926602Y-71870558D01*
X147934367Y-71904189D01*
X147964315Y-71908271D01*
X148010879Y-71887573D01*
X148002029Y-71870558D01*
X147934893Y-71863788D01*
X147926602Y-71870558D01*
X143664983Y-71870558D01*
X143664983Y-71681991D01*
X147568324Y-71681991D01*
X147587625Y-71737090D01*
X147593271Y-71738561D01*
X147641568Y-71698920D01*
X147653179Y-71681991D01*
X147648694Y-71629862D01*
X147628233Y-71625421D01*
X147570626Y-71666486D01*
X147568324Y-71681991D01*
X143664983Y-71681991D01*
X143664983Y-71353903D01*
X147399480Y-71353903D01*
X147414103Y-71454292D01*
X147446867Y-71551027D01*
X147482952Y-71613634D01*
X147507538Y-71611636D01*
X147510888Y-71582993D01*
X147550243Y-71521919D01*
X147631200Y-71520298D01*
X147701476Y-71574445D01*
X147711525Y-71597136D01*
X147765676Y-71761563D01*
X147799906Y-71828946D01*
X147825147Y-71811091D01*
X147841823Y-71757418D01*
X147926602Y-71757418D01*
X147934367Y-71791049D01*
X147964315Y-71795131D01*
X148010879Y-71774433D01*
X148002029Y-71757418D01*
X147934893Y-71750647D01*
X147926602Y-71757418D01*
X147841823Y-71757418D01*
X147846379Y-71742755D01*
X147898386Y-71629325D01*
X147949647Y-71583168D01*
X148010549Y-71613555D01*
X148053217Y-71706257D01*
X148106484Y-71814288D01*
X148168443Y-71851701D01*
X148229006Y-71808795D01*
X148245295Y-71718319D01*
X148231810Y-71681991D01*
X148360306Y-71681991D01*
X148381004Y-71728554D01*
X148398020Y-71719704D01*
X148404790Y-71652569D01*
X148398020Y-71644277D01*
X148364389Y-71652043D01*
X148360306Y-71681991D01*
X148231810Y-71681991D01*
X148215345Y-71637635D01*
X148176453Y-71617974D01*
X148177193Y-71605115D01*
X148266930Y-71582422D01*
X148303736Y-71575546D01*
X148448532Y-71530200D01*
X148512102Y-71447302D01*
X148520513Y-71407911D01*
X148502240Y-71203502D01*
X148408880Y-71008315D01*
X148264479Y-70871202D01*
X148253340Y-70865174D01*
X148140221Y-70820718D01*
X148064850Y-70851353D01*
X148007040Y-70920517D01*
X147943322Y-71014858D01*
X147956046Y-71055972D01*
X148035325Y-71076405D01*
X148092989Y-71093826D01*
X148042874Y-71104893D01*
X147978458Y-71108585D01*
X147841949Y-71103393D01*
X147804052Y-71062490D01*
X147860388Y-70971428D01*
X147917606Y-70907797D01*
X147992856Y-70817612D01*
X147988513Y-70781438D01*
X147948553Y-70776868D01*
X147739394Y-70828673D01*
X147560228Y-70965103D01*
X147438152Y-71157678D01*
X147399480Y-71353903D01*
X143664983Y-71353903D01*
X143664983Y-71172859D01*
X143254122Y-71172859D01*
X143038468Y-71176203D01*
X142908244Y-71191260D01*
X142835814Y-71225566D01*
X142793545Y-71286658D01*
X142787418Y-71300142D01*
X142764605Y-71344026D01*
X142729739Y-71376721D01*
X142667209Y-71400161D01*
X142561404Y-71416280D01*
X142396714Y-71427012D01*
X142157528Y-71434291D01*
X141828235Y-71440051D01*
X141635755Y-71442813D01*
X141197141Y-71446082D01*
X140865581Y-71441847D01*
X140635223Y-71429864D01*
X140500212Y-71409885D01*
X140461924Y-71393459D01*
X140431809Y-71312915D01*
X140408207Y-71141214D01*
X140391103Y-70900153D01*
X140388348Y-70825309D01*
X140449603Y-70825309D01*
X140452240Y-71073286D01*
X140457605Y-71246548D01*
X140465492Y-71326111D01*
X140465700Y-71326685D01*
X140529742Y-71352928D01*
X140685453Y-71373821D01*
X140911488Y-71389320D01*
X141186502Y-71399382D01*
X141489148Y-71403962D01*
X141798080Y-71403017D01*
X142091952Y-71396503D01*
X142349419Y-71384376D01*
X142549135Y-71366593D01*
X142669753Y-71343109D01*
X142691977Y-71331256D01*
X142751167Y-71256193D01*
X142759919Y-71232258D01*
X142706277Y-71223497D01*
X142556894Y-71217618D01*
X142329134Y-71214825D01*
X142040364Y-71215320D01*
X141707950Y-71219307D01*
X141685086Y-71219695D01*
X140610195Y-71238245D01*
X140610195Y-70510233D01*
X141185015Y-70510233D01*
X141198780Y-70541847D01*
X141255740Y-70602578D01*
X141288486Y-70590120D01*
X141289037Y-70582211D01*
X141248856Y-70534363D01*
X141223726Y-70516901D01*
X141185015Y-70510233D01*
X140610195Y-70510233D01*
X140610195Y-70191514D01*
X141064480Y-70191514D01*
X141084965Y-70329601D01*
X141172856Y-70415138D01*
X141218324Y-70427239D01*
X141320933Y-70461545D01*
X141352678Y-70497952D01*
X141389018Y-70664841D01*
X141401124Y-70706156D01*
X141427538Y-70691628D01*
X141441288Y-70663728D01*
X141543602Y-70663728D01*
X141548088Y-70715856D01*
X141568549Y-70720298D01*
X141626156Y-70679233D01*
X141628458Y-70663728D01*
X141609157Y-70608629D01*
X141603511Y-70607158D01*
X141555213Y-70646799D01*
X141543602Y-70663728D01*
X141441288Y-70663728D01*
X141473537Y-70598290D01*
X141476024Y-70592054D01*
X141537057Y-70487340D01*
X141597161Y-70455018D01*
X141597289Y-70455060D01*
X141652667Y-70520349D01*
X141674410Y-70594318D01*
X141717916Y-70682090D01*
X141775094Y-70682186D01*
X141831896Y-70609456D01*
X141825678Y-70548145D01*
X141830109Y-70463640D01*
X141922990Y-70427562D01*
X142031608Y-70367876D01*
X142074476Y-70247879D01*
X142057033Y-70095194D01*
X141984722Y-69937444D01*
X141862983Y-69802253D01*
X141790398Y-69754447D01*
X141705211Y-69718705D01*
X141685621Y-69759173D01*
X141697698Y-69837312D01*
X141703648Y-69944528D01*
X141643195Y-69979407D01*
X141578185Y-69980420D01*
X141494104Y-69968656D01*
X141501175Y-69947421D01*
X141561524Y-69879068D01*
X141566040Y-69782345D01*
X141518794Y-69711268D01*
X141482681Y-69702035D01*
X141389025Y-69739706D01*
X141263957Y-69833754D01*
X141224478Y-69871032D01*
X141111089Y-70029212D01*
X141064480Y-70191514D01*
X140610195Y-70191514D01*
X140610195Y-69266538D01*
X141161754Y-69230014D01*
X141478529Y-69212854D01*
X141826481Y-69199941D01*
X142141688Y-69193523D01*
X142208302Y-69193197D01*
X142453756Y-69186785D01*
X142623334Y-69169181D01*
X142700400Y-69142334D01*
X142703291Y-69135138D01*
X142647222Y-69113434D01*
X142480612Y-69098652D01*
X142205852Y-69090882D01*
X141825335Y-69090214D01*
X141586030Y-69092710D01*
X140468770Y-69108049D01*
X140453333Y-70181140D01*
X140449899Y-70521599D01*
X140449603Y-70825309D01*
X140388348Y-70825309D01*
X140380480Y-70611526D01*
X140376321Y-70297129D01*
X140378609Y-69978757D01*
X140387329Y-69678205D01*
X140402464Y-69417270D01*
X140423997Y-69217746D01*
X140451913Y-69101428D01*
X140463669Y-69083996D01*
X140548381Y-69056898D01*
X140731133Y-69037095D01*
X141016299Y-69024331D01*
X141408249Y-69018354D01*
X141601784Y-69017806D01*
X141986397Y-69019264D01*
X142273454Y-69024425D01*
X142478510Y-69034468D01*
X142617123Y-69050572D01*
X142704848Y-69073916D01*
X142756884Y-69105355D01*
X142866088Y-69159114D01*
X143055847Y-69187050D01*
X143259304Y-69192904D01*
X143664983Y-69192904D01*
X143664983Y-64340573D01*
X143481130Y-63952373D01*
X143392623Y-63754815D01*
X143338068Y-63591881D01*
X143309404Y-63422996D01*
X143298573Y-63207585D01*
X143297277Y-63026757D01*
X143297294Y-63025567D01*
X143354645Y-63025567D01*
X143359403Y-63298986D01*
X143377176Y-63497099D01*
X143414650Y-63657563D01*
X143478508Y-63818034D01*
X143505498Y-63875309D01*
X143587140Y-64038717D01*
X143633226Y-64108939D01*
X143654235Y-64096143D01*
X143660268Y-64025441D01*
X143654217Y-63959232D01*
X144707806Y-63959232D01*
X144773183Y-64033571D01*
X144794713Y-64051923D01*
X144905005Y-64122802D01*
X144956707Y-64101424D01*
X144957175Y-64100069D01*
X144936689Y-64014740D01*
X144902279Y-63982773D01*
X144780769Y-63938436D01*
X144739816Y-63934628D01*
X144707806Y-63959232D01*
X143654217Y-63959232D01*
X143647027Y-63880552D01*
X143607967Y-63681882D01*
X143573190Y-63548680D01*
X143502818Y-63107752D01*
X143506103Y-63069468D01*
X144233421Y-63069468D01*
X144254565Y-63277739D01*
X144302667Y-63420766D01*
X144370143Y-63479095D01*
X144374674Y-63479318D01*
X144440758Y-63527612D01*
X144457832Y-63606601D01*
X144482428Y-63748470D01*
X144513536Y-63818739D01*
X144549722Y-63847304D01*
X144566564Y-63779622D01*
X144568937Y-63701451D01*
X144683246Y-63701451D01*
X144720517Y-63798166D01*
X144800534Y-63818739D01*
X144890693Y-63788258D01*
X144898883Y-63720391D01*
X144846295Y-63628831D01*
X144764757Y-63601076D01*
X144698013Y-63640969D01*
X144683246Y-63701451D01*
X144568937Y-63701451D01*
X144569240Y-63691456D01*
X144578196Y-63552077D01*
X144619763Y-63492619D01*
X144718313Y-63480161D01*
X144725674Y-63480184D01*
X144918865Y-63513567D01*
X145025699Y-63615548D01*
X145054373Y-63744799D01*
X145066456Y-63977272D01*
X145079228Y-64118403D01*
X145096232Y-64189952D01*
X145121012Y-64213682D01*
X145130896Y-64214730D01*
X145136921Y-64207451D01*
X145317990Y-64207451D01*
X145365577Y-64256102D01*
X145470514Y-64271300D01*
X145604835Y-64248997D01*
X145644939Y-64182688D01*
X145607427Y-64118082D01*
X145493733Y-64111975D01*
X145361995Y-64150578D01*
X145317990Y-64207451D01*
X145136921Y-64207451D01*
X145172174Y-64164862D01*
X145229733Y-64034458D01*
X145265002Y-63929841D01*
X145395481Y-63929841D01*
X145412199Y-63979601D01*
X145478171Y-63988450D01*
X145566456Y-63958443D01*
X145584393Y-63917737D01*
X145561380Y-63808173D01*
X145537278Y-63736776D01*
X145504068Y-63675693D01*
X145472089Y-63702001D01*
X145431057Y-63807489D01*
X145395481Y-63929841D01*
X145265002Y-63929841D01*
X145287991Y-63861648D01*
X145372313Y-63626682D01*
X145452212Y-63504475D01*
X145529151Y-63494798D01*
X145604594Y-63597423D01*
X145676849Y-63800957D01*
X145744499Y-64020588D01*
X145801469Y-64146173D01*
X145861500Y-64194142D01*
X145938328Y-64180923D01*
X145978286Y-64161410D01*
X146057249Y-64091726D01*
X146092062Y-63971495D01*
X146097500Y-63845034D01*
X146089975Y-63686711D01*
X146058783Y-63612160D01*
X145990995Y-63592522D01*
X145984360Y-63592458D01*
X145892435Y-63568768D01*
X145871219Y-63535888D01*
X145922097Y-63503618D01*
X146052183Y-63483136D01*
X146154070Y-63479318D01*
X146315420Y-63489494D01*
X146417833Y-63515511D01*
X146436921Y-63535888D01*
X146389541Y-63581851D01*
X146323781Y-63592458D01*
X146245802Y-63614607D01*
X146214339Y-63701070D01*
X146210640Y-63790454D01*
X146223885Y-63921337D01*
X146256450Y-63986745D01*
X146263358Y-63988450D01*
X146333554Y-63943712D01*
X146422957Y-63836323D01*
X146503712Y-63706520D01*
X146547965Y-63594540D01*
X146550061Y-63574297D01*
X146587342Y-63485009D01*
X146616376Y-63466642D01*
X146655891Y-63402266D01*
X146689418Y-63257434D01*
X146706230Y-63108364D01*
X146711379Y-62892229D01*
X146682056Y-62721739D01*
X146605455Y-62537568D01*
X146566701Y-62461929D01*
X146351718Y-62167496D01*
X146062125Y-61938529D01*
X145772222Y-61811574D01*
X145702112Y-61798085D01*
X145664019Y-61825163D01*
X145648209Y-61916228D01*
X145644949Y-62094699D01*
X145644939Y-62117822D01*
X145648977Y-62308685D01*
X145666750Y-62412282D01*
X145706747Y-62454366D01*
X145758079Y-62461055D01*
X145850004Y-62484745D01*
X145871219Y-62517626D01*
X145819692Y-62547758D01*
X145685084Y-62568187D01*
X145531798Y-62574196D01*
X145351003Y-62565608D01*
X145228431Y-62543173D01*
X145192378Y-62517626D01*
X145240789Y-62475100D01*
X145333803Y-62461055D01*
X145411637Y-62454045D01*
X145453970Y-62415457D01*
X145471572Y-62318958D01*
X145475217Y-62138214D01*
X145475228Y-62115339D01*
X145475228Y-61769622D01*
X145263090Y-61808417D01*
X144921205Y-61924546D01*
X144634701Y-62127064D01*
X144416173Y-62397623D01*
X144278215Y-62717874D01*
X144233421Y-63069468D01*
X143506103Y-63069468D01*
X143541462Y-62657430D01*
X143687609Y-62212503D01*
X143715831Y-62152970D01*
X143965989Y-61762330D01*
X144295851Y-61449381D01*
X144676457Y-61224158D01*
X144848509Y-61151143D01*
X145009461Y-61105993D01*
X145196821Y-61082136D01*
X145448095Y-61073001D01*
X145544179Y-61072134D01*
X145774797Y-61073085D01*
X145952831Y-61078023D01*
X146055343Y-61086067D01*
X146070729Y-61092429D01*
X146104872Y-61127140D01*
X146216764Y-61195593D01*
X146378899Y-61281287D01*
X146761297Y-61534104D01*
X147072167Y-61874474D01*
X147277827Y-62227986D01*
X147356910Y-62417745D01*
X147402545Y-62596219D01*
X147423034Y-62807888D01*
X147426899Y-63026757D01*
X147388064Y-63474464D01*
X147264586Y-63863743D01*
X147046003Y-64221592D01*
X146894550Y-64400675D01*
X146741252Y-64583545D01*
X146668796Y-64709906D01*
X146680084Y-64773722D01*
X146712031Y-64780432D01*
X146772479Y-64741940D01*
X146884489Y-64640917D01*
X147024062Y-64499044D01*
X147027123Y-64495774D01*
X147196686Y-64288179D01*
X147356755Y-64049083D01*
X147444414Y-63887645D01*
X147518849Y-63712124D01*
X147564340Y-63550369D01*
X147587672Y-63363813D01*
X147595628Y-63113886D01*
X147596026Y-63025567D01*
X147592916Y-62760970D01*
X147577653Y-62570159D01*
X147542357Y-62413858D01*
X147479149Y-62252795D01*
X147413249Y-62114505D01*
X147155757Y-61712096D01*
X146815425Y-61364934D01*
X146417605Y-61097896D01*
X146336117Y-61057571D01*
X146160662Y-60983132D01*
X145999254Y-60937716D01*
X145813267Y-60914547D01*
X145564078Y-60906849D01*
X145475228Y-60906543D01*
X145200702Y-60911046D01*
X145000491Y-60929069D01*
X144835969Y-60967391D01*
X144668513Y-61032786D01*
X144614340Y-61057571D01*
X144208323Y-61306229D01*
X143854887Y-61639826D01*
X143579384Y-62033484D01*
X143537207Y-62114505D01*
X143449508Y-62302591D01*
X143395296Y-62458057D01*
X143366706Y-62620159D01*
X143355872Y-62828149D01*
X143354645Y-63025567D01*
X143297294Y-63025567D01*
X143301007Y-62759630D01*
X143317461Y-62565246D01*
X143354534Y-62403313D01*
X143420120Y-62233537D01*
X143476853Y-62110280D01*
X143741748Y-61678918D01*
X144089534Y-61323442D01*
X144513825Y-61050238D01*
X144558752Y-61028382D01*
X144752776Y-60941753D01*
X144914626Y-60888406D01*
X145084594Y-60860445D01*
X145302974Y-60849976D01*
X145475228Y-60848806D01*
X145742356Y-60852536D01*
X145936739Y-60868990D01*
X146098672Y-60906062D01*
X146268448Y-60971649D01*
X146391705Y-61028382D01*
X146823067Y-61293277D01*
X147178544Y-61641063D01*
X147451747Y-62065354D01*
X147473603Y-62110280D01*
X147560232Y-62304305D01*
X147613579Y-62466154D01*
X147641540Y-62636123D01*
X147652009Y-62854502D01*
X147653179Y-63026757D01*
X147649504Y-63293383D01*
X147633138Y-63487459D01*
X147596068Y-63649480D01*
X147530283Y-63819939D01*
X147470572Y-63949712D01*
X147207499Y-64377003D01*
X146975583Y-64635398D01*
X146663202Y-64935547D01*
X146663202Y-70324307D01*
X146999862Y-70324307D01*
X147256151Y-70308792D01*
X147372077Y-70292023D01*
X147703047Y-70292023D01*
X147715329Y-70305536D01*
X147825998Y-70311691D01*
X147964315Y-70312726D01*
X148147959Y-70310446D01*
X148227219Y-70302233D01*
X148210784Y-70286022D01*
X148148168Y-70269091D01*
X147954724Y-70251133D01*
X147780462Y-70269091D01*
X147703047Y-70292023D01*
X147372077Y-70292023D01*
X147528860Y-70269344D01*
X147650419Y-70242548D01*
G37*
D18*
X126492000Y-84139000D03*
X125222000Y-84139000D03*
X123952000Y-84139000D03*
X122682000Y-84139000D03*
X121412000Y-84139000D03*
X120142000Y-84139000D03*
X118872000Y-84139000D03*
X118872000Y-89089000D03*
X120142000Y-89089000D03*
X121412000Y-89089000D03*
X122682000Y-89089000D03*
X123952000Y-89089000D03*
X125222000Y-89089000D03*
X126492000Y-89089000D03*
X126492000Y-101157000D03*
X125222000Y-101157000D03*
X123952000Y-101157000D03*
X122682000Y-101157000D03*
X121412000Y-101157000D03*
X120142000Y-101157000D03*
X118872000Y-101157000D03*
X118872000Y-106107000D03*
X120142000Y-106107000D03*
X121412000Y-106107000D03*
X122682000Y-106107000D03*
X123952000Y-106107000D03*
X125222000Y-106107000D03*
X126492000Y-106107000D03*
X126492000Y-92521000D03*
X125222000Y-92521000D03*
X123952000Y-92521000D03*
X122682000Y-92521000D03*
X121412000Y-92521000D03*
X120142000Y-92521000D03*
X118872000Y-92521000D03*
X118872000Y-97471000D03*
X120142000Y-97471000D03*
X121412000Y-97471000D03*
X122682000Y-97471000D03*
X123952000Y-97471000D03*
X125222000Y-97471000D03*
X126492000Y-97471000D03*
D19*
X176022000Y-86561000D03*
D20*
X174244000Y-86757500D03*
D19*
X176022000Y-84836000D03*
D20*
X174244000Y-84682500D03*
D21*
X173657000Y-101344000D03*
D22*
X173460500Y-99566000D03*
D21*
X175382000Y-101344000D03*
D22*
X175535500Y-99566000D03*
D19*
X176022000Y-97483000D03*
D20*
X174244000Y-97679500D03*
D19*
X176022000Y-95758000D03*
D20*
X174244000Y-95604500D03*
D23*
X141224000Y-99842000D03*
X141224000Y-104842000D03*
D24*
X109920000Y-69315000D03*
X109920000Y-62765000D03*
D25*
X93645000Y-75585000D03*
D26*
X93645000Y-78085000D03*
D27*
X130190000Y-77190000D03*
D28*
X130190000Y-79730000D03*
X130190000Y-82270000D03*
X130190000Y-84810000D03*
X137810000Y-84810000D03*
X137810000Y-82270000D03*
X137810000Y-79730000D03*
X137810000Y-77190000D03*
D29*
X94000000Y-101346000D03*
D30*
X94000000Y-103846000D03*
X94000000Y-106346000D03*
D29*
X93980000Y-85090000D03*
D30*
X93980000Y-87590000D03*
X93980000Y-90090000D03*
X93980000Y-92590000D03*
X93980000Y-95090000D03*
D31*
X113604000Y-107494000D03*
X111064000Y-107494000D03*
X108524000Y-107494000D03*
X105730000Y-107494000D03*
X103190000Y-107494000D03*
X100396000Y-107494000D03*
X102174000Y-93524000D03*
X102174000Y-96064000D03*
X104460000Y-76506000D03*
X101920000Y-76506000D03*
X99126000Y-104954000D03*
X99126000Y-102414000D03*
X99126000Y-99874000D03*
X99126000Y-97080000D03*
X99126000Y-94540000D03*
X99126000Y-92000000D03*
X99126000Y-89460000D03*
X99126000Y-86920000D03*
X99126000Y-84126000D03*
X99126000Y-81586000D03*
X99126000Y-79046000D03*
X99126000Y-76506000D03*
X114874000Y-76506000D03*
X114874000Y-79046000D03*
X114874000Y-81586000D03*
X114874000Y-84126000D03*
X114874000Y-86920000D03*
X114874000Y-89460000D03*
X114874000Y-92000000D03*
X114874000Y-94540000D03*
X114874000Y-97334000D03*
X114874000Y-99874000D03*
X114874000Y-102414000D03*
X114874000Y-104954000D03*
X107000000Y-76506000D03*
D23*
X141224000Y-76842000D03*
X141224000Y-81842000D03*
D32*
X88500000Y-106500000D03*
D33*
X141485000Y-70242500D03*
D34*
X126485000Y-70242500D03*
D27*
X130190000Y-88190000D03*
D28*
X130190000Y-90730000D03*
X130190000Y-93270000D03*
X130190000Y-95810000D03*
X137810000Y-95810000D03*
X137810000Y-93270000D03*
X137810000Y-90730000D03*
X137810000Y-88190000D03*
D32*
X176500000Y-106500000D03*
D24*
X121920000Y-69315000D03*
X121920000Y-62765000D03*
D35*
X177800000Y-91710000D03*
X177800000Y-93710000D03*
D36*
X108550000Y-86106000D03*
X105450000Y-86106000D03*
D37*
X111125000Y-94615000D03*
D38*
X105000000Y-71000000D03*
X103000000Y-71000000D03*
D39*
X175260000Y-91805000D03*
D40*
X175260000Y-93705000D03*
D38*
X105000000Y-69000000D03*
X103000000Y-69000000D03*
D32*
X176500000Y-63500000D03*
D24*
X115920000Y-69315000D03*
X115920000Y-62765000D03*
D41*
X95250000Y-70982651D03*
D23*
X95250000Y-65982651D03*
D36*
X108484000Y-83820000D03*
X105384000Y-83820000D03*
D23*
X141224000Y-88842000D03*
X141224000Y-93842000D03*
D42*
X116814000Y-81534000D03*
X119914000Y-81534000D03*
D36*
X108484000Y-81534000D03*
X105384000Y-81534000D03*
D43*
X103505000Y-63500000D03*
D44*
X101005000Y-63500000D03*
D27*
X130190000Y-99190000D03*
D28*
X130190000Y-101730000D03*
X130190000Y-104270000D03*
X130190000Y-106810000D03*
X137810000Y-106810000D03*
X137810000Y-104270000D03*
X137810000Y-101730000D03*
X137810000Y-99190000D03*
D38*
X105000000Y-67000000D03*
X103000000Y-67000000D03*
D42*
X116814000Y-76962000D03*
X119914000Y-76962000D03*
X116814000Y-79248000D03*
X119914000Y-79248000D03*
D32*
X88392000Y-63500000D03*
D45*
X129540000Y-63500000D03*
D46*
X132040000Y-63500000D03*
X134540000Y-63500000D03*
X137040000Y-63500000D03*
X139540000Y-63500000D03*
D47*
X147900000Y-73900000D03*
D48*
X147900000Y-71360000D03*
X147900000Y-68820000D03*
D47*
X147900000Y-103900000D03*
D48*
X147900000Y-101360000D03*
X147900000Y-98820000D03*
D49*
X156845000Y-62865000D03*
D47*
X153440000Y-98820000D03*
D48*
X153440000Y-101360000D03*
X153440000Y-103900000D03*
D47*
X147900000Y-88900000D03*
D48*
X147900000Y-86360000D03*
X147900000Y-83820000D03*
D49*
X170180000Y-79090000D03*
D47*
X153440000Y-68820000D03*
D48*
X153440000Y-71360000D03*
X153440000Y-73900000D03*
D49*
X170180000Y-64090000D03*
X145415000Y-63000000D03*
X170180000Y-94090000D03*
D47*
X153440000Y-83820000D03*
D48*
X153440000Y-86360000D03*
X153440000Y-88900000D03*
M02*
