G04 #@! TF.GenerationSoftware,KiCad,Pcbnew,(6.0.7)*
G04 #@! TF.CreationDate,2022-11-24T14:56:54+11:00*
G04 #@! TF.ProjectId,epic esc with regen,65706963-2065-4736-9320-776974682072,rev?*
G04 #@! TF.SameCoordinates,Original*
G04 #@! TF.FileFunction,Paste,Bot*
G04 #@! TF.FilePolarity,Positive*
%FSLAX46Y46*%
G04 Gerber Fmt 4.6, Leading zero omitted, Abs format (unit mm)*
G04 Created by KiCad (PCBNEW (6.0.7)) date 2022-11-24 14:56:54*
%MOMM*%
%LPD*%
G01*
G04 APERTURE LIST*
G04 Aperture macros list*
%AMRoundRect*
0 Rectangle with rounded corners*
0 $1 Rounding radius*
0 $2 $3 $4 $5 $6 $7 $8 $9 X,Y pos of 4 corners*
0 Add a 4 corners polygon primitive as box body*
4,1,4,$2,$3,$4,$5,$6,$7,$8,$9,$2,$3,0*
0 Add four circle primitives for the rounded corners*
1,1,$1+$1,$2,$3*
1,1,$1+$1,$4,$5*
1,1,$1+$1,$6,$7*
1,1,$1+$1,$8,$9*
0 Add four rect primitives between the rounded corners*
20,1,$1+$1,$2,$3,$4,$5,0*
20,1,$1+$1,$4,$5,$6,$7,0*
20,1,$1+$1,$6,$7,$8,$9,0*
20,1,$1+$1,$8,$9,$2,$3,0*%
%AMFreePoly0*
4,1,13,0.080902,2.058779,0.100000,2.000000,0.100000,0.725000,0.587500,0.725000,0.587500,-0.725000,-0.587500,-0.725000,-0.587500,0.725000,-0.100000,0.725000,-0.100000,2.000000,-0.080902,2.058779,-0.030902,2.095106,0.030902,2.095106,0.080902,2.058779,0.080902,2.058779,$1*%
G04 Aperture macros list end*
%ADD10RoundRect,0.237500X-0.237500X0.300000X-0.237500X-0.300000X0.237500X-0.300000X0.237500X0.300000X0*%
%ADD11FreePoly0,270.000000*%
%ADD12RoundRect,0.237500X0.237500X-0.300000X0.237500X0.300000X-0.237500X0.300000X-0.237500X-0.300000X0*%
%ADD13FreePoly0,90.000000*%
%ADD14RoundRect,0.237500X0.300000X0.237500X-0.300000X0.237500X-0.300000X-0.237500X0.300000X-0.237500X0*%
%ADD15FreePoly0,180.000000*%
%ADD16RoundRect,0.250000X0.325000X0.450000X-0.325000X0.450000X-0.325000X-0.450000X0.325000X-0.450000X0*%
%ADD17RoundRect,0.150000X-0.825000X-0.150000X0.825000X-0.150000X0.825000X0.150000X-0.825000X0.150000X0*%
%ADD18RoundRect,0.250000X-0.625000X0.400000X-0.625000X-0.400000X0.625000X-0.400000X0.625000X0.400000X0*%
%ADD19RoundRect,0.250000X-0.400000X-0.625000X0.400000X-0.625000X0.400000X0.625000X-0.400000X0.625000X0*%
%ADD20RoundRect,0.250000X0.625000X-0.400000X0.625000X0.400000X-0.625000X0.400000X-0.625000X-0.400000X0*%
G04 APERTURE END LIST*
D10*
X178308000Y-74321500D03*
D11*
X176530000Y-74125000D03*
D10*
X178308000Y-76046500D03*
D11*
X176530000Y-76200000D03*
D12*
X91696000Y-69421000D03*
D13*
X93474000Y-69617500D03*
D12*
X91696000Y-67696000D03*
D13*
X93474000Y-67542500D03*
D10*
X134112000Y-102007500D03*
D11*
X132334000Y-101811000D03*
D10*
X134112000Y-103732500D03*
D11*
X132334000Y-103886000D03*
D10*
X133856000Y-91107000D03*
D11*
X132078000Y-90910500D03*
D10*
X133856000Y-92832000D03*
D11*
X132078000Y-92985500D03*
D10*
X134110000Y-80439000D03*
D11*
X132332000Y-80242500D03*
D10*
X134110000Y-82164000D03*
D11*
X132332000Y-82317500D03*
D12*
X101094000Y-104473000D03*
D13*
X102872000Y-104669500D03*
D12*
X101094000Y-102748000D03*
D13*
X102872000Y-102594500D03*
D14*
X120983000Y-85596000D03*
D15*
X121179500Y-83818000D03*
D14*
X119258000Y-85596000D03*
D15*
X119104500Y-83818000D03*
D14*
X124539000Y-106170000D03*
D15*
X124735500Y-104392000D03*
D14*
X122814000Y-106170000D03*
D15*
X122660500Y-104392000D03*
D12*
X116842000Y-94821000D03*
D13*
X118620000Y-95017500D03*
D12*
X116842000Y-93096000D03*
D13*
X118620000Y-92942500D03*
D16*
X152870000Y-63000000D03*
X150820000Y-63000000D03*
D17*
X170245000Y-72390000D03*
X170245000Y-71120000D03*
X170245000Y-69850000D03*
X170245000Y-68580000D03*
X175195000Y-68580000D03*
X175195000Y-69850000D03*
X175195000Y-71120000D03*
X175195000Y-72390000D03*
D12*
X177165000Y-84682500D03*
X177165000Y-82957500D03*
D18*
X153670000Y-93310000D03*
X153670000Y-96410000D03*
D19*
X150620000Y-66360000D03*
X153720000Y-66360000D03*
D18*
X153670000Y-78360000D03*
X153670000Y-81460000D03*
D12*
X177165000Y-99922500D03*
X177165000Y-98197500D03*
D17*
X170245000Y-87630000D03*
X170245000Y-86360000D03*
X170245000Y-85090000D03*
X170245000Y-83820000D03*
X175195000Y-83820000D03*
X175195000Y-85090000D03*
X175195000Y-86360000D03*
X175195000Y-87630000D03*
X170245000Y-102870000D03*
X170245000Y-101600000D03*
X170245000Y-100330000D03*
X170245000Y-99060000D03*
X175195000Y-99060000D03*
X175195000Y-100330000D03*
X175195000Y-101600000D03*
X175195000Y-102870000D03*
D20*
X147670000Y-79910000D03*
X147670000Y-76810000D03*
D19*
X145236000Y-106172000D03*
X148336000Y-106172000D03*
D12*
X177165000Y-69442500D03*
X177165000Y-67717500D03*
D20*
X147670000Y-94410000D03*
X147670000Y-91310000D03*
M02*
