G04 #@! TF.GenerationSoftware,KiCad,Pcbnew,(6.0.7)*
G04 #@! TF.CreationDate,2022-11-24T14:56:22+11:00*
G04 #@! TF.ProjectId,epic esc with regen,65706963-2065-4736-9320-776974682072,rev?*
G04 #@! TF.SameCoordinates,Original*
G04 #@! TF.FileFunction,Copper,L1,Top*
G04 #@! TF.FilePolarity,Positive*
%FSLAX46Y46*%
G04 Gerber Fmt 4.6, Leading zero omitted, Abs format (unit mm)*
G04 Created by KiCad (PCBNEW (6.0.7)) date 2022-11-24 14:56:22*
%MOMM*%
%LPD*%
G01*
G04 APERTURE LIST*
G04 Aperture macros list*
%AMRoundRect*
0 Rectangle with rounded corners*
0 $1 Rounding radius*
0 $2 $3 $4 $5 $6 $7 $8 $9 X,Y pos of 4 corners*
0 Add a 4 corners polygon primitive as box body*
4,1,4,$2,$3,$4,$5,$6,$7,$8,$9,$2,$3,0*
0 Add four circle primitives for the rounded corners*
1,1,$1+$1,$2,$3*
1,1,$1+$1,$4,$5*
1,1,$1+$1,$6,$7*
1,1,$1+$1,$8,$9*
0 Add four rect primitives between the rounded corners*
20,1,$1+$1,$2,$3,$4,$5,0*
20,1,$1+$1,$4,$5,$6,$7,0*
20,1,$1+$1,$6,$7,$8,$9,0*
20,1,$1+$1,$8,$9,$2,$3,0*%
%AMFreePoly0*
4,1,13,0.587500,-0.725000,0.100000,-0.725000,0.100000,-2.000000,0.080902,-2.058779,0.030902,-2.095106,-0.030902,-2.095106,-0.080902,-2.058779,-0.100000,-2.000000,-0.100000,-0.725000,-0.587500,-0.725000,-0.587500,0.725000,0.587500,0.725000,0.587500,-0.725000,0.587500,-0.725000,$1*%
G04 Aperture macros list end*
G04 #@! TA.AperFunction,SMDPad,CuDef*
%ADD10RoundRect,0.090000X-0.210000X0.895000X-0.210000X-0.895000X0.210000X-0.895000X0.210000X0.895000X0*%
G04 #@! TD*
G04 #@! TA.AperFunction,SMDPad,CuDef*
%ADD11RoundRect,0.237500X0.237500X-0.300000X0.237500X0.300000X-0.237500X0.300000X-0.237500X-0.300000X0*%
G04 #@! TD*
G04 #@! TA.AperFunction,SMDPad,CuDef*
%ADD12FreePoly0,90.000000*%
G04 #@! TD*
G04 #@! TA.AperFunction,SMDPad,CuDef*
%ADD13RoundRect,0.237500X-0.300000X-0.237500X0.300000X-0.237500X0.300000X0.237500X-0.300000X0.237500X0*%
G04 #@! TD*
G04 #@! TA.AperFunction,SMDPad,CuDef*
%ADD14FreePoly0,0.000000*%
G04 #@! TD*
G04 #@! TA.AperFunction,ComponentPad*
%ADD15C,1.600000*%
G04 #@! TD*
G04 #@! TA.AperFunction,SMDPad,CuDef*
%ADD16RoundRect,0.250001X2.324999X-1.074999X2.324999X1.074999X-2.324999X1.074999X-2.324999X-1.074999X0*%
G04 #@! TD*
G04 #@! TA.AperFunction,ComponentPad*
%ADD17RoundRect,0.250000X-0.750000X0.600000X-0.750000X-0.600000X0.750000X-0.600000X0.750000X0.600000X0*%
G04 #@! TD*
G04 #@! TA.AperFunction,ComponentPad*
%ADD18O,2.000000X1.700000*%
G04 #@! TD*
G04 #@! TA.AperFunction,ComponentPad*
%ADD19R,1.318000X1.318000*%
G04 #@! TD*
G04 #@! TA.AperFunction,ComponentPad*
%ADD20C,1.318000*%
G04 #@! TD*
G04 #@! TA.AperFunction,ComponentPad*
%ADD21RoundRect,0.250000X-0.725000X0.600000X-0.725000X-0.600000X0.725000X-0.600000X0.725000X0.600000X0*%
G04 #@! TD*
G04 #@! TA.AperFunction,ComponentPad*
%ADD22O,1.950000X1.700000*%
G04 #@! TD*
G04 #@! TA.AperFunction,ComponentPad*
%ADD23C,1.879600*%
G04 #@! TD*
G04 #@! TA.AperFunction,ComponentPad*
%ADD24R,2.000000X2.000000*%
G04 #@! TD*
G04 #@! TA.AperFunction,ComponentPad*
%ADD25O,2.000000X2.000000*%
G04 #@! TD*
G04 #@! TA.AperFunction,SMDPad,CuDef*
%ADD26RoundRect,0.250000X-0.450000X0.350000X-0.450000X-0.350000X0.450000X-0.350000X0.450000X0.350000X0*%
G04 #@! TD*
G04 #@! TA.AperFunction,SMDPad,CuDef*
%ADD27RoundRect,0.250000X0.400000X0.625000X-0.400000X0.625000X-0.400000X-0.625000X0.400000X-0.625000X0*%
G04 #@! TD*
G04 #@! TA.AperFunction,ComponentPad*
%ADD28C,2.000000*%
G04 #@! TD*
G04 #@! TA.AperFunction,SMDPad,CuDef*
%ADD29RoundRect,0.250000X0.350000X0.450000X-0.350000X0.450000X-0.350000X-0.450000X0.350000X-0.450000X0*%
G04 #@! TD*
G04 #@! TA.AperFunction,ComponentPad*
%ADD30C,1.400000*%
G04 #@! TD*
G04 #@! TA.AperFunction,ComponentPad*
%ADD31O,1.400000X1.400000*%
G04 #@! TD*
G04 #@! TA.AperFunction,ComponentPad*
%ADD32R,1.600000X1.600000*%
G04 #@! TD*
G04 #@! TA.AperFunction,SMDPad,CuDef*
%ADD33RoundRect,0.250000X-0.400000X-0.625000X0.400000X-0.625000X0.400000X0.625000X-0.400000X0.625000X0*%
G04 #@! TD*
G04 #@! TA.AperFunction,ComponentPad*
%ADD34RoundRect,0.250000X0.600000X0.750000X-0.600000X0.750000X-0.600000X-0.750000X0.600000X-0.750000X0*%
G04 #@! TD*
G04 #@! TA.AperFunction,ComponentPad*
%ADD35O,1.700000X2.000000*%
G04 #@! TD*
G04 #@! TA.AperFunction,ComponentPad*
%ADD36RoundRect,0.250000X-0.600000X-0.725000X0.600000X-0.725000X0.600000X0.725000X-0.600000X0.725000X0*%
G04 #@! TD*
G04 #@! TA.AperFunction,ComponentPad*
%ADD37O,1.700000X1.950000*%
G04 #@! TD*
G04 #@! TA.AperFunction,ComponentPad*
%ADD38R,2.000000X1.905000*%
G04 #@! TD*
G04 #@! TA.AperFunction,ComponentPad*
%ADD39O,2.000000X1.905000*%
G04 #@! TD*
G04 #@! TA.AperFunction,ComponentPad*
%ADD40C,4.000000*%
G04 #@! TD*
G04 #@! TA.AperFunction,ViaPad*
%ADD41C,0.800000*%
G04 #@! TD*
G04 #@! TA.AperFunction,ViaPad*
%ADD42C,1.000000*%
G04 #@! TD*
G04 #@! TA.AperFunction,Conductor*
%ADD43C,0.254000*%
G04 #@! TD*
G04 #@! TA.AperFunction,Conductor*
%ADD44C,0.381000*%
G04 #@! TD*
G04 #@! TA.AperFunction,Conductor*
%ADD45C,0.250000*%
G04 #@! TD*
G04 #@! TA.AperFunction,Conductor*
%ADD46C,2.000000*%
G04 #@! TD*
G04 #@! TA.AperFunction,Conductor*
%ADD47C,3.000000*%
G04 #@! TD*
G04 #@! TA.AperFunction,Conductor*
%ADD48C,0.200000*%
G04 #@! TD*
G04 APERTURE END LIST*
D10*
X126492000Y-84139000D03*
X125222000Y-84139000D03*
X123952000Y-84139000D03*
X122682000Y-84139000D03*
X121412000Y-84139000D03*
X120142000Y-84139000D03*
X118872000Y-84139000D03*
X118872000Y-89089000D03*
X120142000Y-89089000D03*
X121412000Y-89089000D03*
X122682000Y-89089000D03*
X123952000Y-89089000D03*
X125222000Y-89089000D03*
X126492000Y-89089000D03*
X126492000Y-101157000D03*
X125222000Y-101157000D03*
X123952000Y-101157000D03*
X122682000Y-101157000D03*
X121412000Y-101157000D03*
X120142000Y-101157000D03*
X118872000Y-101157000D03*
X118872000Y-106107000D03*
X120142000Y-106107000D03*
X121412000Y-106107000D03*
X122682000Y-106107000D03*
X123952000Y-106107000D03*
X125222000Y-106107000D03*
X126492000Y-106107000D03*
X126492000Y-92521000D03*
X125222000Y-92521000D03*
X123952000Y-92521000D03*
X122682000Y-92521000D03*
X121412000Y-92521000D03*
X120142000Y-92521000D03*
X118872000Y-92521000D03*
X118872000Y-97471000D03*
X120142000Y-97471000D03*
X121412000Y-97471000D03*
X122682000Y-97471000D03*
X123952000Y-97471000D03*
X125222000Y-97471000D03*
X126492000Y-97471000D03*
D11*
X176022000Y-86561000D03*
D12*
X174244000Y-86757500D03*
D11*
X176022000Y-84836000D03*
D12*
X174244000Y-84682500D03*
D13*
X173657000Y-101344000D03*
D14*
X173460500Y-99566000D03*
D13*
X175382000Y-101344000D03*
D14*
X175535500Y-99566000D03*
D11*
X176022000Y-97483000D03*
D12*
X174244000Y-97679500D03*
D11*
X176022000Y-95758000D03*
D12*
X174244000Y-95604500D03*
D15*
X141224000Y-99842000D03*
X141224000Y-104842000D03*
D16*
X109920000Y-69315000D03*
X109920000Y-62765000D03*
D17*
X93645000Y-75585000D03*
D18*
X93645000Y-78085000D03*
D19*
X130190000Y-77190000D03*
D20*
X130190000Y-79730000D03*
X130190000Y-82270000D03*
X130190000Y-84810000D03*
X137810000Y-84810000D03*
X137810000Y-82270000D03*
X137810000Y-79730000D03*
X137810000Y-77190000D03*
D21*
X94000000Y-101346000D03*
D22*
X94000000Y-103846000D03*
X94000000Y-106346000D03*
D21*
X93980000Y-85090000D03*
D22*
X93980000Y-87590000D03*
X93980000Y-90090000D03*
X93980000Y-92590000D03*
X93980000Y-95090000D03*
D23*
X113604000Y-107494000D03*
X111064000Y-107494000D03*
X108524000Y-107494000D03*
X105730000Y-107494000D03*
X103190000Y-107494000D03*
X100396000Y-107494000D03*
X102174000Y-93524000D03*
X102174000Y-96064000D03*
X104460000Y-76506000D03*
X101920000Y-76506000D03*
X99126000Y-104954000D03*
X99126000Y-102414000D03*
X99126000Y-99874000D03*
X99126000Y-97080000D03*
X99126000Y-94540000D03*
X99126000Y-92000000D03*
X99126000Y-89460000D03*
X99126000Y-86920000D03*
X99126000Y-84126000D03*
X99126000Y-81586000D03*
X99126000Y-79046000D03*
X99126000Y-76506000D03*
X114874000Y-76506000D03*
X114874000Y-79046000D03*
X114874000Y-81586000D03*
X114874000Y-84126000D03*
X114874000Y-86920000D03*
X114874000Y-89460000D03*
X114874000Y-92000000D03*
X114874000Y-94540000D03*
X114874000Y-97334000D03*
X114874000Y-99874000D03*
X114874000Y-102414000D03*
X114874000Y-104954000D03*
X107000000Y-76506000D03*
D15*
X141224000Y-76842000D03*
X141224000Y-81842000D03*
D24*
X141485000Y-70242500D03*
D25*
X126485000Y-70242500D03*
D19*
X130190000Y-88190000D03*
D20*
X130190000Y-90730000D03*
X130190000Y-93270000D03*
X130190000Y-95810000D03*
X137810000Y-95810000D03*
X137810000Y-93270000D03*
X137810000Y-90730000D03*
X137810000Y-88190000D03*
D16*
X121920000Y-69315000D03*
X121920000Y-62765000D03*
D26*
X177800000Y-91710000D03*
X177800000Y-93710000D03*
D27*
X108550000Y-86106000D03*
X105450000Y-86106000D03*
D28*
X111125000Y-94615000D03*
D29*
X105000000Y-71000000D03*
X103000000Y-71000000D03*
D30*
X175260000Y-91805000D03*
D31*
X175260000Y-93705000D03*
D29*
X105000000Y-69000000D03*
X103000000Y-69000000D03*
D16*
X115920000Y-69315000D03*
X115920000Y-62765000D03*
D32*
X95250000Y-70982651D03*
D15*
X95250000Y-65982651D03*
D27*
X108484000Y-83820000D03*
X105384000Y-83820000D03*
D15*
X141224000Y-88842000D03*
X141224000Y-93842000D03*
D33*
X116814000Y-81534000D03*
X119914000Y-81534000D03*
D27*
X108484000Y-81534000D03*
X105384000Y-81534000D03*
D34*
X103505000Y-63500000D03*
D35*
X101005000Y-63500000D03*
D19*
X130190000Y-99190000D03*
D20*
X130190000Y-101730000D03*
X130190000Y-104270000D03*
X130190000Y-106810000D03*
X137810000Y-106810000D03*
X137810000Y-104270000D03*
X137810000Y-101730000D03*
X137810000Y-99190000D03*
D29*
X105000000Y-67000000D03*
X103000000Y-67000000D03*
D33*
X116814000Y-76962000D03*
X119914000Y-76962000D03*
X116814000Y-79248000D03*
X119914000Y-79248000D03*
D36*
X129540000Y-63500000D03*
D37*
X132040000Y-63500000D03*
X134540000Y-63500000D03*
X137040000Y-63500000D03*
X139540000Y-63500000D03*
D38*
X147900000Y-73900000D03*
D39*
X147900000Y-71360000D03*
X147900000Y-68820000D03*
D38*
X147900000Y-103900000D03*
D39*
X147900000Y-101360000D03*
X147900000Y-98820000D03*
D40*
X156845000Y-62865000D03*
D38*
X153440000Y-98820000D03*
D39*
X153440000Y-101360000D03*
X153440000Y-103900000D03*
D38*
X147900000Y-88900000D03*
D39*
X147900000Y-86360000D03*
X147900000Y-83820000D03*
D40*
X170180000Y-79090000D03*
D38*
X153440000Y-68820000D03*
D39*
X153440000Y-71360000D03*
X153440000Y-73900000D03*
D40*
X170180000Y-64090000D03*
X145415000Y-63000000D03*
X170180000Y-94090000D03*
D38*
X153440000Y-83820000D03*
D39*
X153440000Y-86360000D03*
X153440000Y-88900000D03*
D41*
X143510000Y-104775000D03*
X125476000Y-86868000D03*
X117602000Y-96012000D03*
X124460000Y-107696000D03*
X176438500Y-77724000D03*
X119380000Y-71755000D03*
X124460000Y-73505000D03*
X117602000Y-100838000D03*
X177165000Y-66040000D03*
D42*
X157226000Y-84201000D03*
X156210000Y-97790000D03*
D41*
X117602000Y-83820000D03*
X177800000Y-96520000D03*
D42*
X157226000Y-82804000D03*
D41*
X117602000Y-91694000D03*
D42*
X157099000Y-81534000D03*
X156210000Y-96393000D03*
X157226000Y-85725000D03*
X156210000Y-99441000D03*
D41*
X175895000Y-81915000D03*
X103505000Y-72390000D03*
X96774000Y-99314000D03*
X177165000Y-88265000D03*
D42*
X172212000Y-103124000D03*
D41*
X111252000Y-81534000D03*
X126392500Y-99060000D03*
X126392500Y-95504000D03*
X122936000Y-99314000D03*
X111252000Y-79502000D03*
X123952000Y-90932000D03*
X111252626Y-73237250D03*
X121406286Y-94493714D03*
X120165464Y-104381964D03*
X121412000Y-90932000D03*
X121412000Y-99568000D03*
X122555000Y-81915000D03*
X126292500Y-102841500D03*
X124460000Y-81915000D03*
X149860000Y-80010000D03*
X150495000Y-67945000D03*
X142875000Y-93345000D03*
X147320000Y-95504000D03*
X125337572Y-90805000D03*
X126365000Y-82550000D03*
X120142000Y-94488000D03*
X123281500Y-85633500D03*
X119404112Y-87584365D03*
X117601500Y-90694498D03*
X124460000Y-102778500D03*
X119509500Y-99060000D03*
X126365000Y-104140000D03*
X117601500Y-88265000D03*
X155494681Y-80170637D03*
X93345000Y-81915000D03*
X96476385Y-102913615D03*
D42*
X166116000Y-75184000D03*
X168402000Y-71628000D03*
X166878000Y-74422000D03*
X167640000Y-73660000D03*
X163068000Y-79502000D03*
X168402000Y-72644000D03*
D41*
X151130000Y-78105000D03*
D42*
X164084000Y-79502000D03*
X166116000Y-79502000D03*
X167132000Y-79502000D03*
X165100000Y-79502000D03*
X165862000Y-93726000D03*
X168402000Y-87376000D03*
X166878000Y-93726000D03*
X167894000Y-88392000D03*
X167132000Y-89154000D03*
D41*
X149860000Y-92710000D03*
D42*
X163830000Y-93726000D03*
X168402000Y-86106000D03*
X166370000Y-89916000D03*
X164846000Y-93726000D03*
X162814000Y-93726000D03*
X168910000Y-104648000D03*
X168148000Y-105410000D03*
X162560000Y-107188000D03*
X167386000Y-106172000D03*
X163576000Y-107188000D03*
D41*
X142240000Y-106680000D03*
D42*
X164592000Y-107188000D03*
X166624000Y-106934000D03*
X161544000Y-107188000D03*
X165608000Y-107188000D03*
X168910000Y-103505000D03*
D41*
X95885000Y-85090000D03*
X96480000Y-87590000D03*
X96520000Y-90170000D03*
X158115000Y-94615000D03*
X177165000Y-71120000D03*
X94615000Y-83185000D03*
X97063500Y-92075000D03*
X177165000Y-86360000D03*
X97063500Y-93345000D03*
X177165000Y-101600000D03*
D43*
X94636000Y-92590000D02*
X99126000Y-97080000D01*
X93980000Y-92590000D02*
X94636000Y-92590000D01*
X137810000Y-101730000D02*
X140465000Y-101730000D01*
X140465000Y-101730000D02*
X143510000Y-104775000D01*
X141224000Y-104842000D02*
X141224000Y-106426000D01*
X140970000Y-106680000D02*
X140220000Y-106680000D01*
X142240000Y-106680000D02*
X140970000Y-106680000D01*
X141224000Y-106426000D02*
X140970000Y-106680000D01*
X140796000Y-82270000D02*
X141224000Y-81842000D01*
X137810000Y-82270000D02*
X140796000Y-82270000D01*
X140260000Y-90730000D02*
X142875000Y-93345000D01*
X137810000Y-90730000D02*
X140260000Y-90730000D01*
X177800000Y-97301500D02*
X177800000Y-96520000D01*
X175535500Y-99566000D02*
X177800000Y-97301500D01*
X172212000Y-102789000D02*
X173657000Y-101344000D01*
X172212000Y-103124000D02*
X172212000Y-102789000D01*
X176022000Y-87122000D02*
X177165000Y-88265000D01*
X176022000Y-86561000D02*
X176022000Y-87122000D01*
X176022000Y-82042000D02*
X175895000Y-81915000D01*
X176022000Y-84836000D02*
X176022000Y-82042000D01*
X173439000Y-95815500D02*
X173439000Y-93626000D01*
X176937500Y-97382500D02*
X177800000Y-96520000D01*
X176022000Y-97382500D02*
X176937500Y-97382500D01*
X173439000Y-95815500D02*
X173482000Y-95858500D01*
X126492000Y-87884000D02*
X126492000Y-89089000D01*
X125476000Y-86868000D02*
X126492000Y-87884000D01*
X128270000Y-91350000D02*
X130190000Y-93270000D01*
X127197052Y-85905000D02*
X128270000Y-86977948D01*
X124651221Y-85905000D02*
X127197052Y-85905000D01*
X120785000Y-85225000D02*
X121920500Y-86360500D01*
X121920500Y-86360500D02*
X124195721Y-86360500D01*
X124195721Y-86360500D02*
X124651221Y-85905000D01*
X120785000Y-84782000D02*
X120785000Y-85225000D01*
X128270000Y-86977948D02*
X128270000Y-91350000D01*
X120142000Y-84139000D02*
X120785000Y-84782000D01*
X117856000Y-96012000D02*
X117602000Y-96012000D01*
X125457727Y-96012000D02*
X117856000Y-96012000D01*
X126492000Y-97046273D02*
X125457727Y-96012000D01*
X126492000Y-97471000D02*
X126492000Y-97046273D01*
X125476000Y-107696000D02*
X124460000Y-107696000D01*
D44*
X125476000Y-107696000D02*
X126492000Y-106680000D01*
D43*
X124206000Y-107696000D02*
X124460000Y-107696000D01*
D44*
X124161167Y-109010833D02*
X125476000Y-107696000D01*
X169754167Y-109010833D02*
X124161167Y-109010833D01*
X172212000Y-106553000D02*
X169754167Y-109010833D01*
X172212000Y-103124000D02*
X172212000Y-106553000D01*
D43*
X173439000Y-93626000D02*
X175260000Y-91805000D01*
D44*
X109920000Y-69315000D02*
X109855000Y-69380000D01*
X109855000Y-71120000D02*
X111401501Y-71120000D01*
X134915000Y-74295000D02*
X137810000Y-77190000D01*
X140876000Y-77190000D02*
X141224000Y-76842000D01*
X114576501Y-74295000D02*
X134915000Y-74295000D01*
X111401501Y-71120000D02*
X114576501Y-74295000D01*
X109855000Y-69380000D02*
X109855000Y-71120000D01*
X137810000Y-77190000D02*
X140876000Y-77190000D01*
X118360000Y-71755000D02*
X115920000Y-69315000D01*
D43*
X137810000Y-88190000D02*
X138462000Y-88842000D01*
X138462000Y-88842000D02*
X141224000Y-88842000D01*
D44*
X119380000Y-71755000D02*
X118360000Y-71755000D01*
D43*
X137810000Y-99190000D02*
X140572000Y-99190000D01*
D44*
X124305000Y-73660000D02*
X124460000Y-73505000D01*
D43*
X140572000Y-99190000D02*
X141282000Y-99900000D01*
D44*
X121920000Y-69850000D02*
X121920000Y-71755000D01*
X121920000Y-71755000D02*
X123825000Y-73660000D01*
X123825000Y-73660000D02*
X124305000Y-73660000D01*
X121920000Y-69315000D02*
X121920000Y-69850000D01*
D45*
X105000000Y-69000000D02*
X105000000Y-67000000D01*
D44*
X115920000Y-62765000D02*
X121920000Y-62765000D01*
X109920000Y-62765000D02*
X115920000Y-62765000D01*
D45*
X105000000Y-71000000D02*
X105000000Y-69000000D01*
D44*
X105000000Y-67000000D02*
X109235000Y-62765000D01*
X109235000Y-62765000D02*
X109920000Y-62765000D01*
D43*
X157226000Y-84201000D02*
X157353000Y-84074000D01*
D44*
X118429000Y-92521000D02*
X117602000Y-91694000D01*
D46*
X153440000Y-88900000D02*
X156345000Y-88900000D01*
X154305000Y-104775000D02*
X155575000Y-104775000D01*
D44*
X117921000Y-101157000D02*
X117602000Y-100838000D01*
D46*
X156210000Y-104140000D02*
X156210000Y-96393000D01*
D44*
X118872000Y-84393000D02*
X118175000Y-84393000D01*
X118872000Y-101157000D02*
X117921000Y-101157000D01*
D46*
X153440000Y-103900000D02*
X153440000Y-103910000D01*
X156210000Y-104140000D02*
X159715000Y-100635000D01*
X153440000Y-103910000D02*
X154305000Y-104775000D01*
D47*
X158115000Y-84074000D02*
X158115000Y-87130000D01*
D46*
X159715000Y-88730000D02*
X158115000Y-87130000D01*
D43*
X157218000Y-87130000D02*
X158115000Y-87130000D01*
D46*
X159715000Y-100635000D02*
X159715000Y-88730000D01*
D43*
X177800000Y-93710000D02*
X177800000Y-96520000D01*
D47*
X158115000Y-87130000D02*
X156345000Y-88900000D01*
X158115000Y-64135000D02*
X158115000Y-80772000D01*
D43*
X157226000Y-86241000D02*
X158115000Y-87130000D01*
D46*
X156210000Y-91670000D02*
X153440000Y-88900000D01*
D47*
X158115000Y-82296000D02*
X158115000Y-84074000D01*
D43*
X157353000Y-84074000D02*
X158115000Y-84074000D01*
D44*
X118872000Y-92521000D02*
X118429000Y-92521000D01*
D46*
X156845000Y-71046595D02*
X156845000Y-62865000D01*
X155575000Y-104775000D02*
X156210000Y-104140000D01*
D47*
X156845000Y-62865000D02*
X158115000Y-64135000D01*
X158115000Y-80772000D02*
X158115000Y-82296000D01*
D46*
X153440000Y-73900000D02*
X153991595Y-73900000D01*
X156210000Y-96393000D02*
X156210000Y-91670000D01*
D44*
X118175000Y-84393000D02*
X117602000Y-83820000D01*
D46*
X153991595Y-73900000D02*
X156845000Y-71046595D01*
D43*
X157226000Y-85725000D02*
X157226000Y-86241000D01*
D44*
X103000000Y-69000000D02*
X103000000Y-71000000D01*
X95885000Y-81280000D02*
X93980000Y-81280000D01*
X93980000Y-81280000D02*
X93345000Y-80645000D01*
X101597349Y-72402651D02*
X97802651Y-72402651D01*
X103000000Y-71000000D02*
X101597349Y-72402651D01*
D43*
X97802651Y-72402651D02*
X97777349Y-72402651D01*
D44*
X93099196Y-80645000D02*
X92456000Y-81288196D01*
X96012000Y-99314000D02*
X96774000Y-99314000D01*
X97000000Y-72402651D02*
X97000000Y-80165000D01*
X103000000Y-67000000D02*
X103000000Y-69000000D01*
X97000000Y-80165000D02*
X95885000Y-81280000D01*
D43*
X97000000Y-72402651D02*
X96670000Y-72402651D01*
D44*
X103000000Y-67000000D02*
X103000000Y-66926000D01*
X93345000Y-80645000D02*
X93099196Y-80645000D01*
X92456000Y-95758000D02*
X96012000Y-99314000D01*
X103000000Y-71000000D02*
X102744196Y-71000000D01*
X92456000Y-81288196D02*
X92456000Y-95758000D01*
X103505000Y-71505000D02*
X103000000Y-71000000D01*
D43*
X101005000Y-63500000D02*
X101005000Y-65005000D01*
X96670000Y-72402651D02*
X95250000Y-70982651D01*
D44*
X97777349Y-72402651D02*
X97000000Y-72402651D01*
X103505000Y-72390000D02*
X103505000Y-71505000D01*
D43*
X101005000Y-65005000D02*
X103000000Y-67000000D01*
D46*
X150100000Y-95998000D02*
X145034000Y-90932000D01*
D47*
X145542000Y-97282000D02*
X144272000Y-96012000D01*
X145034000Y-63381000D02*
X145415000Y-63000000D01*
D46*
X149444500Y-76708000D02*
X146355500Y-76708000D01*
D47*
X145200000Y-100242000D02*
X145200000Y-97624000D01*
D46*
X150100000Y-76052500D02*
X149444500Y-76708000D01*
D47*
X145200000Y-97624000D02*
X145542000Y-97282000D01*
X144272000Y-95504000D02*
X145034000Y-94742000D01*
D46*
X147900000Y-71360000D02*
X145048000Y-71360000D01*
X149712500Y-71360000D02*
X150100000Y-71747500D01*
X141485000Y-70242500D02*
X143902500Y-70242500D01*
X150100000Y-84711595D02*
X150100000Y-82536000D01*
D47*
X145034000Y-85090000D02*
X145034000Y-76708000D01*
D46*
X147900000Y-101360000D02*
X148451595Y-101360000D01*
X146318000Y-101360000D02*
X146304000Y-101346000D01*
X150100000Y-99711595D02*
X150100000Y-95998000D01*
X145034000Y-77470000D02*
X145034000Y-76708000D01*
D47*
X145034000Y-71374000D02*
X145034000Y-63381000D01*
D46*
X147900000Y-71360000D02*
X149712500Y-71360000D01*
X145034000Y-75386500D02*
X145034000Y-74168000D01*
X146304000Y-86360000D02*
X145034000Y-85090000D01*
X146355500Y-76708000D02*
X145034000Y-75386500D01*
X147900000Y-86360000D02*
X148451595Y-86360000D01*
X150100000Y-71747500D02*
X150100000Y-76052500D01*
D47*
X144272000Y-96012000D02*
X144272000Y-95504000D01*
D46*
X150100000Y-82536000D02*
X145034000Y-77470000D01*
X147900000Y-101360000D02*
X146318000Y-101360000D01*
X148451595Y-86360000D02*
X150100000Y-84711595D01*
X147900000Y-86360000D02*
X146304000Y-86360000D01*
D47*
X145034000Y-94742000D02*
X145034000Y-85090000D01*
X146304000Y-101346000D02*
X145200000Y-100242000D01*
D46*
X145048000Y-71360000D02*
X145034000Y-71374000D01*
X148451595Y-101360000D02*
X150100000Y-99711595D01*
D47*
X145034000Y-76708000D02*
X145034000Y-71374000D01*
D46*
X143902500Y-70242500D02*
X145034000Y-71374000D01*
D44*
X126492000Y-106680000D02*
X126492000Y-106107000D01*
D43*
X177165000Y-89900000D02*
X177165000Y-88265000D01*
D44*
X105730000Y-107494000D02*
X107246833Y-109010833D01*
D43*
X97010833Y-109010833D02*
X107246833Y-109010833D01*
D44*
X126492000Y-97471000D02*
X127182500Y-96780500D01*
D43*
X102870000Y-100824000D02*
X102870000Y-104634000D01*
X175260000Y-91805000D02*
X177165000Y-89900000D01*
D44*
X127182500Y-105416500D02*
X127182500Y-98161500D01*
X127182500Y-96780500D02*
X127182500Y-90033500D01*
X107246833Y-109010833D02*
X124161167Y-109010833D01*
X127182500Y-98161500D02*
X126492000Y-97471000D01*
D43*
X99126000Y-97080000D02*
X102870000Y-100824000D01*
X94000000Y-106000000D02*
X97010833Y-109010833D01*
X102870000Y-104634000D02*
X105730000Y-107494000D01*
D44*
X127182500Y-90033500D02*
X126492000Y-89343000D01*
X126492000Y-106107000D02*
X127182500Y-105416500D01*
D43*
X108550000Y-86106000D02*
X111252000Y-83404000D01*
X126392500Y-99060000D02*
X126392500Y-101057500D01*
X111252000Y-83404000D02*
X111252000Y-81534000D01*
X126492000Y-95603500D02*
X126392500Y-95504000D01*
X126492000Y-92521000D02*
X126492000Y-95603500D01*
D44*
X110998000Y-81788000D02*
X111252000Y-81534000D01*
D43*
X126392500Y-101057500D02*
X126492000Y-101157000D01*
X99126000Y-81586000D02*
X100930000Y-81586000D01*
D45*
X104562201Y-85218201D02*
X105450000Y-86106000D01*
D43*
X100930000Y-81586000D02*
X104562201Y-85218201D01*
X109461000Y-81293000D02*
X111252000Y-79502000D01*
X122936000Y-99314000D02*
X122936000Y-100903000D01*
X108484000Y-83820000D02*
X109461000Y-82843000D01*
X123952000Y-90932000D02*
X123952000Y-92521000D01*
X109461000Y-82843000D02*
X109461000Y-81293000D01*
X122936000Y-100903000D02*
X122682000Y-101157000D01*
D45*
X105182000Y-83618000D02*
X105384000Y-83820000D01*
D43*
X99126000Y-79046000D02*
X103900000Y-83820000D01*
X103900000Y-83820000D02*
X105384000Y-83820000D01*
X121406286Y-94493714D02*
X121406286Y-92951441D01*
X120165464Y-104381964D02*
X120165464Y-106083536D01*
X121412000Y-92945727D02*
X121412000Y-92521000D01*
X121412000Y-90932000D02*
X121412000Y-92521000D01*
X111252626Y-77215374D02*
X108484000Y-79984000D01*
X111252626Y-73237250D02*
X111252626Y-77215374D01*
X121406286Y-92951441D02*
X121412000Y-92945727D01*
X120165464Y-106083536D02*
X120142000Y-106107000D01*
X108484000Y-79984000D02*
X108484000Y-81534000D01*
X99126000Y-76506000D02*
X104154000Y-81534000D01*
X104154000Y-81534000D02*
X105384000Y-81534000D01*
D48*
X116612000Y-81586000D02*
X116814000Y-81788000D01*
X114874000Y-81586000D02*
X116612000Y-81586000D01*
D44*
X116762000Y-81840000D02*
X116814000Y-81788000D01*
X114620000Y-81840000D02*
X116762000Y-81840000D01*
D43*
X116840000Y-89528500D02*
X116875000Y-89563500D01*
X119914000Y-81788000D02*
X119528273Y-81788000D01*
X116875000Y-89563500D02*
X116875000Y-106715000D01*
X117510552Y-89563500D02*
X118371052Y-90424000D01*
X118371052Y-90424000D02*
X120501727Y-90424000D01*
X121412000Y-106531727D02*
X121412000Y-106107000D01*
X121412000Y-89089000D02*
X121412000Y-89513727D01*
X118223273Y-83093000D02*
X117300866Y-83093000D01*
X119993727Y-107950000D02*
X121412000Y-106531727D01*
X119528273Y-81788000D02*
X118223273Y-83093000D01*
X116875000Y-89563500D02*
X117510552Y-89563500D01*
X116875000Y-106715000D02*
X118110000Y-107950000D01*
X116586000Y-89154000D02*
X116840000Y-89408000D01*
X117300866Y-83093000D02*
X116586000Y-83807866D01*
X116586000Y-83807866D02*
X116586000Y-89154000D01*
X116840000Y-89408000D02*
X116840000Y-89528500D01*
X121412000Y-89513727D02*
X120501727Y-90424000D01*
X118110000Y-107950000D02*
X119993727Y-107950000D01*
D48*
X114874000Y-79046000D02*
X116612000Y-79046000D01*
D44*
X116762000Y-79300000D02*
X116814000Y-79248000D01*
X114620000Y-79300000D02*
X116762000Y-79300000D01*
D48*
X116612000Y-79046000D02*
X116814000Y-79248000D01*
D43*
X121412000Y-80746000D02*
X121412000Y-82042000D01*
X121412000Y-82042000D02*
X121539000Y-81915000D01*
X121412000Y-82042000D02*
X121412000Y-84139000D01*
X121412000Y-99568000D02*
X121412000Y-101157000D01*
X119914000Y-79248000D02*
X121412000Y-80746000D01*
X121539000Y-81915000D02*
X122555000Y-81915000D01*
D48*
X114874000Y-76506000D02*
X116358000Y-76506000D01*
D44*
X114822000Y-76962000D02*
X114620000Y-76760000D01*
X116814000Y-76962000D02*
X114822000Y-76962000D01*
D48*
X116358000Y-76506000D02*
X116814000Y-76962000D01*
D43*
X125476000Y-78486000D02*
X125476000Y-82169000D01*
X123698000Y-76708000D02*
X125476000Y-78486000D01*
X126292500Y-102841500D02*
X125222000Y-101771000D01*
X125476000Y-82169000D02*
X125476000Y-83885000D01*
X124714000Y-82169000D02*
X124460000Y-81915000D01*
X119914000Y-76936000D02*
X120142000Y-76708000D01*
X125222000Y-101771000D02*
X125222000Y-101157000D01*
X120142000Y-76708000D02*
X123698000Y-76708000D01*
X125476000Y-83885000D02*
X125222000Y-84139000D01*
X125476000Y-82169000D02*
X124714000Y-82169000D01*
X119914000Y-76962000D02*
X119914000Y-76936000D01*
X125222000Y-90920572D02*
X125337572Y-90805000D01*
X126365000Y-82550000D02*
X126365000Y-84012000D01*
X126365000Y-84012000D02*
X126492000Y-84139000D01*
X125222000Y-92521000D02*
X125222000Y-90920572D01*
X122428000Y-95504000D02*
X120904000Y-95504000D01*
X120142000Y-94742000D02*
X120142000Y-94488000D01*
X123281500Y-84738500D02*
X122682000Y-84139000D01*
X123281500Y-85633500D02*
X123281500Y-84738500D01*
X122682000Y-95250000D02*
X122428000Y-95504000D01*
X122682000Y-92521000D02*
X122682000Y-95250000D01*
X120904000Y-95504000D02*
X120142000Y-94742000D01*
X118183000Y-90878000D02*
X118110000Y-90805000D01*
X120142000Y-92521000D02*
X120142000Y-92096273D01*
X119404112Y-87867000D02*
X120015000Y-87256112D01*
X117712002Y-90805000D02*
X117601500Y-90694498D01*
X120142000Y-87122000D02*
X120142000Y-89089000D01*
X120015000Y-87256112D02*
X120015000Y-86995000D01*
X120142000Y-92096273D02*
X118923727Y-90878000D01*
X119404112Y-87584365D02*
X119404112Y-87867000D01*
X120015000Y-86995000D02*
X120142000Y-87122000D01*
X118110000Y-90805000D02*
X117712002Y-90805000D01*
X118923727Y-90878000D02*
X118183000Y-90878000D01*
X123952000Y-102362000D02*
X124460000Y-102870000D01*
X124460000Y-102870000D02*
X124460000Y-102778500D01*
X123952000Y-101157000D02*
X123952000Y-102362000D01*
X119380000Y-99970273D02*
X119380000Y-99189500D01*
X119380000Y-99189500D02*
X119509500Y-99060000D01*
X120142000Y-100732273D02*
X119380000Y-99970273D01*
X120142000Y-101157000D02*
X120142000Y-100732273D01*
X125730000Y-103505000D02*
X126365000Y-104140000D01*
X118872000Y-106107000D02*
X118872000Y-104648000D01*
X120015000Y-103505000D02*
X125730000Y-103505000D01*
X118872000Y-104648000D02*
X120015000Y-103505000D01*
X127009000Y-85451000D02*
X130190000Y-82270000D01*
X123952000Y-84563727D02*
X124839273Y-85451000D01*
X123952000Y-84139000D02*
X123952000Y-84563727D01*
X124839273Y-85451000D02*
X127009000Y-85451000D01*
X117475000Y-88265000D02*
X117601500Y-88265000D01*
X118872000Y-89089000D02*
X118299000Y-89089000D01*
X118299000Y-89089000D02*
X117475000Y-88265000D01*
X93345000Y-81915000D02*
X96520000Y-81915000D01*
X97790000Y-83185000D02*
X97790000Y-85584000D01*
X94000000Y-103500000D02*
X95890000Y-103500000D01*
X96520000Y-102870000D02*
X96476385Y-102913615D01*
X96520000Y-81915000D02*
X97790000Y-83185000D01*
X97790000Y-85584000D02*
X99126000Y-86920000D01*
X95890000Y-103500000D02*
X96520000Y-102870000D01*
D44*
X162814000Y-93726000D02*
X163830000Y-93726000D01*
D43*
X140220000Y-106680000D02*
X137810000Y-104270000D01*
X93980000Y-85090000D02*
X95885000Y-85090000D01*
X96520000Y-87630000D02*
X96480000Y-87590000D01*
X93980000Y-87590000D02*
X96480000Y-87590000D01*
X93980000Y-90090000D02*
X96440000Y-90090000D01*
X96440000Y-90090000D02*
X96520000Y-90170000D01*
X177255000Y-91710000D02*
X175260000Y-93705000D01*
X177800000Y-91710000D02*
X177255000Y-91710000D01*
X114799000Y-94615000D02*
X114874000Y-94540000D01*
X111125000Y-94615000D02*
X114799000Y-94615000D01*
X99126000Y-89207866D02*
X99126000Y-89460000D01*
X96612000Y-83912000D02*
X96612000Y-86693866D01*
X94615000Y-83185000D02*
X95885000Y-83185000D01*
X95885000Y-83185000D02*
X96612000Y-83912000D01*
X96612000Y-86693866D02*
X99126000Y-89207866D01*
X97230000Y-92000000D02*
X97155000Y-92075000D01*
X99126000Y-92000000D02*
X97230000Y-92000000D01*
X97155000Y-92075000D02*
X97063500Y-92075000D01*
X97931000Y-93345000D02*
X97155000Y-93345000D01*
X99126000Y-94540000D02*
X97931000Y-93345000D01*
X97155000Y-93345000D02*
X97063500Y-93345000D01*
M02*
