G04 #@! TF.GenerationSoftware,KiCad,Pcbnew,(6.0.7)*
G04 #@! TF.CreationDate,2022-11-24T14:56:22+11:00*
G04 #@! TF.ProjectId,epic esc with regen,65706963-2065-4736-9320-776974682072,rev?*
G04 #@! TF.SameCoordinates,Original*
G04 #@! TF.FileFunction,Soldermask,Bot*
G04 #@! TF.FilePolarity,Negative*
%FSLAX46Y46*%
G04 Gerber Fmt 4.6, Leading zero omitted, Abs format (unit mm)*
G04 Created by KiCad (PCBNEW (6.0.7)) date 2022-11-24 14:56:22*
%MOMM*%
%LPD*%
G01*
G04 APERTURE LIST*
G04 Aperture macros list*
%AMRoundRect*
0 Rectangle with rounded corners*
0 $1 Rounding radius*
0 $2 $3 $4 $5 $6 $7 $8 $9 X,Y pos of 4 corners*
0 Add a 4 corners polygon primitive as box body*
4,1,4,$2,$3,$4,$5,$6,$7,$8,$9,$2,$3,0*
0 Add four circle primitives for the rounded corners*
1,1,$1+$1,$2,$3*
1,1,$1+$1,$4,$5*
1,1,$1+$1,$6,$7*
1,1,$1+$1,$8,$9*
0 Add four rect primitives between the rounded corners*
20,1,$1+$1,$2,$3,$4,$5,0*
20,1,$1+$1,$4,$5,$6,$7,0*
20,1,$1+$1,$6,$7,$8,$9,0*
20,1,$1+$1,$8,$9,$2,$3,0*%
%AMFreePoly0*
4,1,13,0.080902,2.058779,0.100000,2.000000,0.100000,0.725000,0.587500,0.725000,0.587500,-0.725000,-0.587500,-0.725000,-0.587500,0.725000,-0.100000,0.725000,-0.100000,2.000000,-0.080902,2.058779,-0.030902,2.095106,0.030902,2.095106,0.080902,2.058779,0.080902,2.058779,$1*%
G04 Aperture macros list end*
%ADD10C,2.000000*%
%ADD11RoundRect,0.237500X-0.237500X0.300000X-0.237500X-0.300000X0.237500X-0.300000X0.237500X0.300000X0*%
%ADD12FreePoly0,270.000000*%
%ADD13RoundRect,0.237500X0.237500X-0.300000X0.237500X0.300000X-0.237500X0.300000X-0.237500X-0.300000X0*%
%ADD14FreePoly0,90.000000*%
%ADD15RoundRect,0.237500X0.300000X0.237500X-0.300000X0.237500X-0.300000X-0.237500X0.300000X-0.237500X0*%
%ADD16FreePoly0,180.000000*%
%ADD17C,1.600000*%
%ADD18RoundRect,0.250000X-0.750000X0.600000X-0.750000X-0.600000X0.750000X-0.600000X0.750000X0.600000X0*%
%ADD19O,2.000000X1.700000*%
%ADD20R,1.318000X1.318000*%
%ADD21C,1.318000*%
%ADD22RoundRect,0.250000X-0.725000X0.600000X-0.725000X-0.600000X0.725000X-0.600000X0.725000X0.600000X0*%
%ADD23O,1.950000X1.700000*%
%ADD24C,1.879600*%
%ADD25C,3.200000*%
%ADD26R,2.000000X2.000000*%
%ADD27O,2.000000X2.000000*%
%ADD28C,2.000000*%
%ADD29C,1.400000*%
%ADD30O,1.400000X1.400000*%
%ADD31R,1.600000X1.600000*%
%ADD32RoundRect,0.250000X0.600000X0.750000X-0.600000X0.750000X-0.600000X-0.750000X0.600000X-0.750000X0*%
%ADD33O,1.700000X2.000000*%
%ADD34RoundRect,0.250000X-0.600000X-0.725000X0.600000X-0.725000X0.600000X0.725000X-0.600000X0.725000X0*%
%ADD35O,1.700000X1.950000*%
%ADD36RoundRect,0.250000X0.325000X0.450000X-0.325000X0.450000X-0.325000X-0.450000X0.325000X-0.450000X0*%
%ADD37R,2.000000X1.905000*%
%ADD38O,2.000000X1.905000*%
%ADD39RoundRect,0.150000X-0.825000X-0.150000X0.825000X-0.150000X0.825000X0.150000X-0.825000X0.150000X0*%
%ADD40C,4.000000*%
%ADD41RoundRect,0.250000X-0.625000X0.400000X-0.625000X-0.400000X0.625000X-0.400000X0.625000X0.400000X0*%
%ADD42RoundRect,0.250000X-0.400000X-0.625000X0.400000X-0.625000X0.400000X0.625000X-0.400000X0.625000X0*%
%ADD43RoundRect,0.250000X0.625000X-0.400000X0.625000X0.400000X-0.625000X0.400000X-0.625000X-0.400000X0*%
G04 APERTURE END LIST*
D10*
X170229420Y-87128206D02*
X170222729Y-86814006D01*
G36*
X169008059Y-72140375D02*
G01*
X169055738Y-72028833D01*
X169056698Y-72027857D01*
X169069258Y-71979713D01*
X169004142Y-71958197D01*
X168893424Y-71961416D01*
X168769177Y-71987475D01*
X168663472Y-72034484D01*
X168640111Y-72052443D01*
X168578819Y-72118767D01*
X168579813Y-72180372D01*
X168648908Y-72276902D01*
X168678169Y-72311927D01*
X168795701Y-72523115D01*
X168800420Y-72738501D01*
X168692339Y-72950985D01*
X168676832Y-72970017D01*
X168585483Y-73090530D01*
X168537308Y-73177396D01*
X168535091Y-73188915D01*
X168572837Y-73250178D01*
X168672769Y-73366673D01*
X168814933Y-73515465D01*
X168846921Y-73547321D01*
X169158752Y-73855278D01*
X169158752Y-73207142D01*
X171143127Y-73207142D01*
X171143127Y-73968853D01*
X171138784Y-74265826D01*
X171126910Y-74534391D01*
X171109237Y-74747650D01*
X171087498Y-74878705D01*
X171083787Y-74890170D01*
X171032718Y-74961248D01*
X170909117Y-75103649D01*
X170721029Y-75308914D01*
X170476501Y-75568585D01*
X170183579Y-75874206D01*
X169850312Y-76217318D01*
X169484744Y-76589464D01*
X169094923Y-76982185D01*
X169063433Y-77013735D01*
X168612128Y-77466405D01*
X168235663Y-77845830D01*
X167928161Y-78158400D01*
X167683740Y-78410510D01*
X167496523Y-78608549D01*
X167360629Y-78758909D01*
X167270178Y-78867983D01*
X167219292Y-78942162D01*
X167202090Y-78987838D01*
X167212693Y-79011403D01*
X167221964Y-79015635D01*
X167379900Y-79116418D01*
X167506360Y-79284815D01*
X167569162Y-79475051D01*
X167571252Y-79512453D01*
X167520573Y-79696289D01*
X167390763Y-79862002D01*
X167215162Y-79977036D01*
X167060984Y-80010714D01*
X166865517Y-79960117D01*
X166716444Y-79844986D01*
X166550716Y-79679258D01*
X166384988Y-79844986D01*
X166187544Y-79980603D01*
X165981257Y-80003366D01*
X165769140Y-79913189D01*
X165704620Y-79863933D01*
X165530180Y-79717152D01*
X165355741Y-79863933D01*
X165141763Y-79985547D01*
X164927207Y-79995326D01*
X164720356Y-79893133D01*
X164698232Y-79874881D01*
X164540317Y-79739049D01*
X164378890Y-79874881D01*
X164170454Y-79989516D01*
X163955810Y-79991578D01*
X163741441Y-79881175D01*
X163720245Y-79863933D01*
X163545805Y-79717152D01*
X163371366Y-79863933D01*
X163157644Y-79985672D01*
X162943006Y-79994414D01*
X162731827Y-79890119D01*
X162707275Y-79870299D01*
X162540401Y-79729884D01*
X159192974Y-79714384D01*
X155845547Y-79698883D01*
X155627707Y-79524763D01*
X155482770Y-79399292D01*
X155375712Y-79274727D01*
X155300905Y-79131378D01*
X155252721Y-78949552D01*
X155225529Y-78709559D01*
X155213701Y-78391706D01*
X155211518Y-78068861D01*
X155211430Y-77175892D01*
X153707154Y-77175892D01*
X153216606Y-77174445D01*
X152827473Y-77169734D01*
X152527809Y-77161203D01*
X152305670Y-77148298D01*
X152149110Y-77130463D01*
X152046184Y-77107144D01*
X152020435Y-77097504D01*
X151905532Y-77022668D01*
X151733846Y-76879268D01*
X151522446Y-76684786D01*
X151288402Y-76456703D01*
X151048782Y-76212501D01*
X150820655Y-75969661D01*
X150621090Y-75745667D01*
X150467155Y-75558000D01*
X150375921Y-75424141D01*
X150365474Y-75402500D01*
X150339051Y-75320335D01*
X150318359Y-75206277D01*
X150302771Y-75047179D01*
X150291658Y-74829899D01*
X150284391Y-74541289D01*
X150280340Y-74168205D01*
X150278878Y-73697503D01*
X150278841Y-73591119D01*
X150278841Y-71987079D01*
X149187435Y-70902350D01*
X148862288Y-70579699D01*
X148606208Y-70328037D01*
X148408011Y-70138247D01*
X148256509Y-70001209D01*
X148140518Y-69907805D01*
X148048851Y-69848916D01*
X147970323Y-69815423D01*
X147893749Y-69798208D01*
X147822486Y-69789628D01*
X147523345Y-69704356D01*
X147257670Y-69522511D01*
X147048761Y-69260455D01*
X147035450Y-69236972D01*
X146944936Y-68963176D01*
X146952063Y-68672957D01*
X147048412Y-68390005D01*
X147225564Y-68138012D01*
X147475100Y-67940670D01*
X147501252Y-67926169D01*
X147668571Y-67871774D01*
X147910584Y-67835445D01*
X148189842Y-67818436D01*
X148468901Y-67821998D01*
X148710313Y-67847384D01*
X148843565Y-67881281D01*
X148923065Y-67935592D01*
X149070819Y-68060096D01*
X149275434Y-68244274D01*
X149525519Y-68477605D01*
X149809682Y-68749570D01*
X150116532Y-69049648D01*
X150222145Y-69154359D01*
X151441118Y-70367138D01*
X152754189Y-70383903D01*
X154067260Y-70400669D01*
X154284993Y-70574790D01*
X154527109Y-70830135D01*
X154665559Y-71115229D01*
X154700344Y-71413869D01*
X154631462Y-71709849D01*
X154458913Y-71986969D01*
X154285048Y-72154227D01*
X154067370Y-72328348D01*
X153165293Y-72346423D01*
X152263216Y-72364499D01*
X152263216Y-74578120D01*
X152523396Y-74882663D01*
X152783576Y-75187207D01*
X154672684Y-75203536D01*
X156561792Y-75219866D01*
X156779580Y-75393986D01*
X156924502Y-75519473D01*
X157031548Y-75644048D01*
X157106345Y-75787406D01*
X157154523Y-75969238D01*
X157181710Y-76209238D01*
X157193535Y-76527097D01*
X157195717Y-76849888D01*
X157195805Y-77742857D01*
X165530180Y-77742857D01*
X165532006Y-77368994D01*
X165927055Y-77368994D01*
X166380627Y-76926094D01*
X166380627Y-76255248D01*
X166379738Y-75971624D01*
X166375012Y-75784157D01*
X166363363Y-75675614D01*
X166341702Y-75628763D01*
X166306944Y-75626369D01*
X166270961Y-75643094D01*
X166124404Y-75692530D01*
X166044176Y-75701785D01*
X165998804Y-75706741D01*
X165966970Y-75732968D01*
X165946280Y-75797504D01*
X165934339Y-75917388D01*
X165928754Y-76109658D01*
X165927131Y-76391352D01*
X165927055Y-76535390D01*
X165927055Y-77368994D01*
X165532006Y-77368994D01*
X165535925Y-76566406D01*
X165537191Y-76200335D01*
X165537387Y-75862294D01*
X165536578Y-75572608D01*
X165534828Y-75351600D01*
X165532203Y-75219596D01*
X165531579Y-75205676D01*
X165570919Y-75002805D01*
X165693491Y-74836997D01*
X165870744Y-74726277D01*
X166074127Y-74688668D01*
X166270086Y-74739472D01*
X166335305Y-74766045D01*
X166360798Y-74736578D01*
X166355119Y-74628479D01*
X166344100Y-74543977D01*
X166330638Y-74375119D01*
X166361128Y-74261112D01*
X166453559Y-74146426D01*
X166482355Y-74117227D01*
X166682975Y-73975032D01*
X166885036Y-73945898D01*
X167084983Y-74029862D01*
X167178738Y-74109924D01*
X167316544Y-74308399D01*
X167341441Y-74511252D01*
X167253427Y-74712406D01*
X167178738Y-74799004D01*
X167045637Y-74904808D01*
X166920986Y-74961638D01*
X166895256Y-74964732D01*
X166848294Y-74969886D01*
X166815826Y-74997105D01*
X166795183Y-75064022D01*
X166783697Y-75188271D01*
X166778697Y-75387486D01*
X166777515Y-75679302D01*
X166777502Y-75742670D01*
X166777502Y-76520608D01*
X167146029Y-76155357D01*
X167514555Y-75790106D01*
X167514555Y-74984364D01*
X167513552Y-74666297D01*
X167508938Y-74443545D01*
X167498311Y-74298039D01*
X167479267Y-74211708D01*
X167449401Y-74166482D01*
X167406309Y-74144290D01*
X167402641Y-74143103D01*
X167251448Y-74045087D01*
X167127961Y-73879741D01*
X167063964Y-73693056D01*
X167060984Y-73648707D01*
X167111663Y-73464871D01*
X167241472Y-73299158D01*
X167417073Y-73184124D01*
X167571252Y-73150446D01*
X167769964Y-73198182D01*
X167930536Y-73322629D01*
X168037338Y-73495649D01*
X168074737Y-73689103D01*
X168027103Y-73874852D01*
X167998278Y-73919185D01*
X167959219Y-74004903D01*
X167933275Y-74151320D01*
X167918581Y-74375734D01*
X167913269Y-74695443D01*
X167913233Y-74707466D01*
X167911430Y-75385692D01*
X168477832Y-74827808D01*
X168308024Y-74652611D01*
X168235498Y-74574244D01*
X168187272Y-74501042D01*
X168158389Y-74408644D01*
X168143890Y-74272691D01*
X168138819Y-74068823D01*
X168138800Y-74060864D01*
X168546087Y-74060864D01*
X168548326Y-74273862D01*
X168590608Y-74412291D01*
X168626806Y-74461834D01*
X168694800Y-74526975D01*
X168752994Y-74528559D01*
X168839701Y-74459806D01*
X168885836Y-74415992D01*
X169046796Y-74261783D01*
X168805118Y-74015022D01*
X168563439Y-73768261D01*
X168546087Y-74060864D01*
X168138800Y-74060864D01*
X168138216Y-73818291D01*
X168137336Y-73535970D01*
X168131389Y-73342853D01*
X168115413Y-73214751D01*
X168084447Y-73127475D01*
X168033528Y-73056836D01*
X167968127Y-72989079D01*
X167828366Y-72789386D01*
X167799868Y-72587005D01*
X167882822Y-72390998D01*
X167953953Y-72309812D01*
X168109868Y-72158258D01*
X167953953Y-72005959D01*
X167822572Y-71814715D01*
X167802603Y-71613387D01*
X167893898Y-71412190D01*
X167963766Y-71331799D01*
X168159951Y-71192540D01*
X168357215Y-71166552D01*
X168556267Y-71253866D01*
X168680504Y-71364508D01*
X168832657Y-71510240D01*
X168931716Y-71559688D01*
X168986220Y-71508717D01*
X169004707Y-71353190D01*
X169002095Y-71208712D01*
X168999833Y-71133866D01*
X169056438Y-71133866D01*
X169057511Y-71364558D01*
X169090618Y-71490749D01*
X169111492Y-71512082D01*
X169179461Y-71537264D01*
X169219836Y-71498043D01*
X169239111Y-71377886D01*
X169243796Y-71175322D01*
X169243796Y-70854241D01*
X169731142Y-70813627D01*
X170032466Y-70798861D01*
X170363191Y-70798494D01*
X170654142Y-70812526D01*
X170666633Y-70813627D01*
X171114779Y-70854241D01*
X171131782Y-71180245D01*
X171157660Y-71388565D01*
X171200149Y-71491019D01*
X171247612Y-71491559D01*
X171288414Y-71394136D01*
X171310921Y-71202704D01*
X171312348Y-71118912D01*
X171301336Y-70960804D01*
X171260348Y-70842947D01*
X171175203Y-70759607D01*
X171031719Y-70705051D01*
X170815712Y-70673546D01*
X170513002Y-70659358D01*
X170168841Y-70656639D01*
X169792081Y-70659449D01*
X169513442Y-70671351D01*
X169317680Y-70698884D01*
X169189553Y-70748588D01*
X169113816Y-70827002D01*
X169075227Y-70940666D01*
X169058543Y-71096120D01*
X169056438Y-71133866D01*
X168999833Y-71133866D01*
X168996236Y-71014824D01*
X169006594Y-70869700D01*
X169047219Y-70766277D01*
X169132160Y-70697491D01*
X169275467Y-70656279D01*
X169491190Y-70635578D01*
X169793379Y-70628324D01*
X170158292Y-70627455D01*
X170516306Y-70627948D01*
X170778305Y-70630832D01*
X170961666Y-70638215D01*
X171083766Y-70652207D01*
X171161983Y-70674915D01*
X171213693Y-70708448D01*
X171256274Y-70754914D01*
X171261469Y-70761303D01*
X171336761Y-70923869D01*
X171367464Y-71138366D01*
X171352172Y-71354594D01*
X171289475Y-71522352D01*
X171283065Y-71531260D01*
X171214042Y-71692896D01*
X171208061Y-71876611D01*
X171264939Y-72029648D01*
X171284868Y-72052965D01*
X171350229Y-72184669D01*
X171373343Y-72375219D01*
X171355919Y-72578933D01*
X171299669Y-72750132D01*
X171256520Y-72810267D01*
X171207417Y-72851536D01*
X171143517Y-72881411D01*
X171047218Y-72901713D01*
X170900919Y-72914262D01*
X170687019Y-72920876D01*
X170387916Y-72923377D01*
X170159727Y-72923660D01*
X169799175Y-72922586D01*
X169534881Y-72918266D01*
X169349721Y-72909052D01*
X169226571Y-72893294D01*
X169148307Y-72869346D01*
X169097805Y-72835559D01*
X169082494Y-72819977D01*
X169026898Y-72700596D01*
X168995032Y-72519023D01*
X168992851Y-72454008D01*
X169042557Y-72454008D01*
X169045956Y-72629200D01*
X169069290Y-72750121D01*
X169083157Y-72772470D01*
X169111141Y-72795209D01*
X169112633Y-72794184D01*
X171148468Y-72794184D01*
X171172375Y-72789734D01*
X171223963Y-72728560D01*
X171285287Y-72596624D01*
X171312283Y-72426778D01*
X171312348Y-72416730D01*
X171296860Y-72255913D01*
X171260343Y-72136310D01*
X171256520Y-72129910D01*
X171221892Y-72106971D01*
X171204080Y-72180757D01*
X171199917Y-72300000D01*
X171191732Y-72492656D01*
X171173332Y-72660625D01*
X171166493Y-72696875D01*
X171148468Y-72794184D01*
X169112633Y-72794184D01*
X169130172Y-72782139D01*
X169144835Y-72713289D01*
X169159709Y-72568686D01*
X169176338Y-72366351D01*
X169190667Y-72155297D01*
X169189618Y-72038692D01*
X169170629Y-71998318D01*
X169131138Y-72015957D01*
X169127484Y-72018941D01*
X169085769Y-72107265D01*
X169056644Y-72266158D01*
X169042557Y-72454008D01*
X168992851Y-72454008D01*
X168988288Y-72318028D01*
X169008059Y-72140375D01*
G37*
G36*
X168988663Y-102639531D02*
G01*
X169010569Y-102470289D01*
X169066235Y-102356050D01*
X169073707Y-102349107D01*
X169137722Y-102242330D01*
X169158752Y-102122321D01*
X169129543Y-101980501D01*
X169073707Y-101895535D01*
X169014492Y-101782957D01*
X168989647Y-101568922D01*
X168989307Y-101545314D01*
X169045405Y-101545314D01*
X169050091Y-101718067D01*
X169071157Y-101836318D01*
X169084101Y-101858683D01*
X169145562Y-101871643D01*
X169191726Y-101775400D01*
X169221282Y-101573278D01*
X169226375Y-101498660D01*
X169243796Y-101186830D01*
X169691942Y-101146216D01*
X169979014Y-101131450D01*
X170309385Y-101131084D01*
X170613879Y-101145116D01*
X170627433Y-101146216D01*
X171114779Y-101186830D01*
X171122927Y-101498660D01*
X171129792Y-101717955D01*
X171139864Y-101840464D01*
X171158775Y-101882770D01*
X171192158Y-101861454D01*
X171229975Y-101813828D01*
X171296673Y-101648478D01*
X171307563Y-101439548D01*
X171263073Y-101241921D01*
X171224957Y-101171097D01*
X171188357Y-101125417D01*
X171140851Y-101092360D01*
X171065197Y-101069888D01*
X170944158Y-101055963D01*
X170760493Y-101048547D01*
X170496963Y-101045602D01*
X170159064Y-101045089D01*
X169751491Y-101048273D01*
X169449863Y-101058141D01*
X169246901Y-101075166D01*
X169135326Y-101099822D01*
X169113395Y-101113125D01*
X169078680Y-101201534D01*
X169055476Y-101359367D01*
X169045405Y-101545314D01*
X168989307Y-101545314D01*
X168988663Y-101500505D01*
X168992036Y-101329000D01*
X169011758Y-101200813D01*
X169062233Y-101109642D01*
X169157862Y-101049182D01*
X169313051Y-101013132D01*
X169542201Y-100995187D01*
X169859716Y-100989045D01*
X170158887Y-100988392D01*
X170513543Y-100989320D01*
X170772853Y-100993381D01*
X170954859Y-101002496D01*
X171077599Y-101018582D01*
X171159116Y-101043558D01*
X171217449Y-101079343D01*
X171245829Y-101103994D01*
X171337483Y-101256581D01*
X171375682Y-101463451D01*
X171359803Y-101678552D01*
X171289225Y-101855834D01*
X171256520Y-101895535D01*
X171171110Y-102025371D01*
X171143127Y-102138069D01*
X171184588Y-102273208D01*
X171256520Y-102364300D01*
X171336341Y-102496329D01*
X171372053Y-102688949D01*
X171362845Y-102897948D01*
X171307905Y-103079117D01*
X171270694Y-103136641D01*
X171235224Y-103173971D01*
X171188945Y-103202823D01*
X171117659Y-103224474D01*
X171007168Y-103240199D01*
X170843275Y-103251277D01*
X170611780Y-103258984D01*
X170298485Y-103264596D01*
X169889194Y-103269392D01*
X169782413Y-103270489D01*
X169350600Y-103275205D01*
X169018973Y-103280284D01*
X168774324Y-103286937D01*
X168603450Y-103296375D01*
X168493144Y-103309813D01*
X168430202Y-103328461D01*
X168401418Y-103353531D01*
X168393588Y-103386236D01*
X168393350Y-103397991D01*
X168397447Y-103433446D01*
X168418585Y-103460832D01*
X168470038Y-103481390D01*
X168565076Y-103496362D01*
X168716973Y-103506989D01*
X168939001Y-103514511D01*
X169244430Y-103520171D01*
X169646535Y-103525208D01*
X169768238Y-103526566D01*
X171143127Y-103541748D01*
X171143127Y-105124549D01*
X171140864Y-105631957D01*
X171134278Y-106065064D01*
X171123675Y-106415089D01*
X171109358Y-106673251D01*
X171091633Y-106830770D01*
X171082675Y-106866350D01*
X171019558Y-106965041D01*
X170888408Y-107124786D01*
X170704720Y-107329953D01*
X170483988Y-107564909D01*
X170241708Y-107814022D01*
X169993375Y-108061660D01*
X169754486Y-108292191D01*
X169540534Y-108489981D01*
X169367015Y-108639399D01*
X169249425Y-108724811D01*
X169231443Y-108733965D01*
X169190391Y-108745272D01*
X169118856Y-108755478D01*
X169011520Y-108764637D01*
X168863062Y-108772801D01*
X168668166Y-108780021D01*
X168421511Y-108786351D01*
X168117779Y-108791842D01*
X167751652Y-108796546D01*
X167317810Y-108800516D01*
X166810935Y-108803804D01*
X166225707Y-108806462D01*
X165556808Y-108808542D01*
X164798920Y-108810097D01*
X163946723Y-108811178D01*
X162994899Y-108811839D01*
X161938129Y-108812130D01*
X161265595Y-108812150D01*
X160159213Y-108811996D01*
X159160658Y-108811597D01*
X158264366Y-108810892D01*
X157464771Y-108809819D01*
X156756309Y-108808317D01*
X156133415Y-108806326D01*
X155590523Y-108803783D01*
X155122068Y-108800627D01*
X154722485Y-108796797D01*
X154386210Y-108792232D01*
X154107678Y-108786870D01*
X153881322Y-108780650D01*
X153701579Y-108773511D01*
X153562882Y-108765391D01*
X153459668Y-108756229D01*
X153386371Y-108745964D01*
X153337426Y-108734535D01*
X153312100Y-108724531D01*
X153226711Y-108661066D01*
X153073872Y-108527041D01*
X152863890Y-108332771D01*
X152607071Y-108088573D01*
X152313721Y-107804765D01*
X151994145Y-107491661D01*
X151658651Y-107159580D01*
X151317544Y-106818837D01*
X150981129Y-106479748D01*
X150659714Y-106152631D01*
X150363604Y-105847803D01*
X150103106Y-105575578D01*
X149888525Y-105346274D01*
X149730167Y-105170208D01*
X149638338Y-105057696D01*
X149621149Y-105029834D01*
X149592133Y-104931236D01*
X149570493Y-104778138D01*
X149555463Y-104557281D01*
X149546280Y-104255410D01*
X149542179Y-103859268D01*
X149541788Y-103653125D01*
X149543083Y-103209824D01*
X149550173Y-102861892D01*
X149567866Y-102591308D01*
X149600969Y-102380053D01*
X149654288Y-102210106D01*
X149732632Y-102063448D01*
X149840808Y-101922057D01*
X149983622Y-101767915D01*
X150067507Y-101682469D01*
X150418208Y-101327662D01*
X149598030Y-100506018D01*
X148777852Y-99684375D01*
X148237618Y-99684375D01*
X147895541Y-99672214D01*
X147637212Y-99628664D01*
X147434909Y-99543121D01*
X147260907Y-99404980D01*
X147133610Y-99262095D01*
X147035853Y-99126258D01*
X146984077Y-98997736D01*
X146964349Y-98830236D01*
X146962100Y-98692187D01*
X146969312Y-98479224D01*
X147000237Y-98332939D01*
X147068805Y-98207042D01*
X147133610Y-98122279D01*
X147267076Y-97970473D01*
X147399036Y-97859714D01*
X147550378Y-97783689D01*
X147741989Y-97736087D01*
X147994758Y-97710594D01*
X148329572Y-97700897D01*
X148530850Y-97700000D01*
X148840301Y-97704028D01*
X149120940Y-97715096D01*
X149347594Y-97731673D01*
X149495090Y-97752232D01*
X149523922Y-97760299D01*
X149603373Y-97814612D01*
X149751063Y-97939155D01*
X149955618Y-98123416D01*
X150205662Y-98356881D01*
X150489821Y-98629036D01*
X150796719Y-98929369D01*
X150904159Y-99035969D01*
X152124789Y-100251339D01*
X152904529Y-100251339D01*
X153282050Y-100256047D01*
X153567399Y-100273609D01*
X153781535Y-100309179D01*
X153945416Y-100367914D01*
X154080002Y-100454969D01*
X154201462Y-100570360D01*
X154382044Y-100838084D01*
X154464707Y-101132403D01*
X154454057Y-101431476D01*
X154354699Y-101713459D01*
X154171241Y-101956511D01*
X153908288Y-102138789D01*
X153866711Y-102157652D01*
X153690904Y-102200774D01*
X153406741Y-102226912D01*
X153018032Y-102235714D01*
X152350927Y-102235714D01*
X151938545Y-102645344D01*
X151526162Y-103054974D01*
X151526163Y-103652168D01*
X151526163Y-104249362D01*
X152816459Y-105538743D01*
X154106755Y-106828125D01*
X161006445Y-106828125D01*
X161174895Y-106686383D01*
X161385922Y-106567808D01*
X161600224Y-106562385D01*
X161814128Y-106670086D01*
X161840562Y-106691423D01*
X162015002Y-106838204D01*
X162189441Y-106691423D01*
X162349849Y-106591609D01*
X162509291Y-106545252D01*
X162525270Y-106544642D01*
X162680182Y-106582646D01*
X162843940Y-106677550D01*
X162861098Y-106691423D01*
X163035538Y-106838204D01*
X163209977Y-106691423D01*
X163423960Y-106569767D01*
X163638869Y-106560564D01*
X163848219Y-106663924D01*
X163868622Y-106680475D01*
X164030050Y-106816307D01*
X164187964Y-106680475D01*
X164393450Y-106565845D01*
X164607559Y-106563204D01*
X164822010Y-106672413D01*
X164845473Y-106691423D01*
X165019913Y-106838204D01*
X165194352Y-106691423D01*
X165354760Y-106591609D01*
X165514202Y-106545252D01*
X165530180Y-106544642D01*
X165685093Y-106582646D01*
X165848851Y-106677550D01*
X165866009Y-106691423D01*
X165977969Y-106777390D01*
X166029499Y-106788940D01*
X166040448Y-106743759D01*
X166088705Y-106613134D01*
X166209712Y-106478965D01*
X166367827Y-106371002D01*
X166527404Y-106318997D01*
X166550716Y-106317857D01*
X166705147Y-106357542D01*
X166865194Y-106456948D01*
X166995123Y-106586603D01*
X167059200Y-106717032D01*
X167060984Y-106738719D01*
X167080834Y-106786294D01*
X167154908Y-106813818D01*
X167304992Y-106826073D01*
X167468466Y-106828125D01*
X167875949Y-106828125D01*
X167723870Y-106669388D01*
X167592463Y-106560268D01*
X167457016Y-106528332D01*
X167374733Y-106533658D01*
X167176854Y-106504944D01*
X167000826Y-106390898D01*
X166876706Y-106219281D01*
X166834198Y-106034375D01*
X166885265Y-105840483D01*
X167016745Y-105669640D01*
X167196063Y-105554423D01*
X167344466Y-105524107D01*
X167540498Y-105575436D01*
X167711152Y-105708263D01*
X167825177Y-105890844D01*
X167854734Y-106042405D01*
X167872533Y-106163688D01*
X167937243Y-106287204D01*
X168065832Y-106440859D01*
X168150350Y-106528581D01*
X168445967Y-106827916D01*
X168689261Y-106589141D01*
X168932554Y-106350366D01*
X168642677Y-106056843D01*
X168486883Y-105904456D01*
X168377114Y-105819501D01*
X168282614Y-105785971D01*
X168172624Y-105787856D01*
X168134852Y-105792552D01*
X167979200Y-105799063D01*
X167862520Y-105753014D01*
X167744078Y-105648959D01*
X167602005Y-105448401D01*
X167572989Y-105246319D01*
X167657065Y-105046338D01*
X167736980Y-104952781D01*
X167925841Y-104818511D01*
X168081520Y-104787053D01*
X168278541Y-104838493D01*
X168449085Y-104971936D01*
X168562551Y-105156066D01*
X168591788Y-105309265D01*
X168608752Y-105432724D01*
X168671614Y-105553557D01*
X168798321Y-105701415D01*
X168877601Y-105781372D01*
X169163415Y-106062723D01*
X169146909Y-105552455D01*
X169130404Y-105042187D01*
X168889912Y-105061191D01*
X168715742Y-105060083D01*
X168589330Y-105007008D01*
X168478863Y-104909637D01*
X168338146Y-104709750D01*
X168310436Y-104507435D01*
X168395764Y-104307079D01*
X168474033Y-104215728D01*
X168673690Y-104080693D01*
X168886823Y-104054694D01*
X169049086Y-104108691D01*
X169121661Y-104135509D01*
X169152418Y-104094501D01*
X169158752Y-103964955D01*
X169152239Y-103834478D01*
X169121104Y-103794367D01*
X169049086Y-103821219D01*
X168847051Y-103872055D01*
X168643105Y-103831443D01*
X168466217Y-103717041D01*
X168345353Y-103546508D01*
X168308305Y-103369642D01*
X168358803Y-103177764D01*
X168488571Y-103007308D01*
X168665020Y-102891146D01*
X168814212Y-102859375D01*
X168927257Y-102850356D01*
X168976618Y-102801300D01*
X168988073Y-102683418D01*
X169044906Y-102683418D01*
X169058279Y-102834973D01*
X169096167Y-102943272D01*
X169139853Y-102972767D01*
X169149872Y-102921353D01*
X169156377Y-102788208D01*
X169156560Y-102770992D01*
X171144930Y-102770992D01*
X171145893Y-102991398D01*
X171153612Y-103114954D01*
X171172041Y-103158168D01*
X171205132Y-103137549D01*
X171226368Y-103111171D01*
X171281012Y-102983669D01*
X171310082Y-102808742D01*
X171311413Y-102770992D01*
X171292419Y-102594569D01*
X171243199Y-102451261D01*
X171229975Y-102430814D01*
X171188729Y-102386302D01*
X171163691Y-102397919D01*
X171150730Y-102482193D01*
X171145712Y-102655650D01*
X171144930Y-102770992D01*
X169156560Y-102770992D01*
X169157884Y-102646763D01*
X169151519Y-102465015D01*
X169132536Y-102388695D01*
X169102055Y-102405803D01*
X169058636Y-102527423D01*
X169044906Y-102683418D01*
X168988073Y-102683418D01*
X168988483Y-102679204D01*
X168988663Y-102639531D01*
G37*
G36*
X169014398Y-84774767D02*
G01*
X169070255Y-84662842D01*
X169073707Y-84659821D01*
X169137722Y-84553044D01*
X169158752Y-84433035D01*
X169129543Y-84291215D01*
X169073707Y-84206250D01*
X169014761Y-84094610D01*
X168989767Y-83882241D01*
X168988714Y-83812721D01*
X169045359Y-83812721D01*
X169054042Y-83992550D01*
X169076685Y-84114322D01*
X169102055Y-84149553D01*
X169131617Y-84097437D01*
X169151879Y-83959174D01*
X169158068Y-83795748D01*
X171144923Y-83795748D01*
X171144930Y-83823549D01*
X171147860Y-84031516D01*
X171157507Y-84142852D01*
X171178603Y-84174301D01*
X171215877Y-84142607D01*
X171229975Y-84124543D01*
X171286264Y-83994140D01*
X171312891Y-83822282D01*
X171313216Y-83803175D01*
X171296951Y-83584853D01*
X171251255Y-83450058D01*
X171193757Y-83412500D01*
X171169418Y-83464472D01*
X171152025Y-83601612D01*
X171144923Y-83795748D01*
X169158068Y-83795748D01*
X169158752Y-83777680D01*
X169150973Y-83570631D01*
X169128843Y-83457119D01*
X169102055Y-83440848D01*
X169071720Y-83512222D01*
X169051145Y-83661336D01*
X169045359Y-83812721D01*
X168988714Y-83812721D01*
X168988663Y-83809375D01*
X169005009Y-83569646D01*
X169054954Y-83432300D01*
X169073707Y-83412500D01*
X169149686Y-83281597D01*
X169144457Y-83102311D01*
X169061648Y-82901496D01*
X168990911Y-82799688D01*
X168897558Y-82677248D01*
X168822848Y-82558332D01*
X168764720Y-82428884D01*
X168721107Y-82274846D01*
X168689949Y-82082162D01*
X168669179Y-81836774D01*
X168656735Y-81524627D01*
X168650553Y-81131663D01*
X168648569Y-80643824D01*
X168648484Y-80467257D01*
X168649637Y-79934923D01*
X168654786Y-79502233D01*
X168666465Y-79155449D01*
X168687211Y-78880832D01*
X168719557Y-78664642D01*
X168766040Y-78493142D01*
X168829193Y-78352591D01*
X168911551Y-78229251D01*
X169015651Y-78109382D01*
X169099356Y-78023639D01*
X169423691Y-77772659D01*
X169782161Y-77622777D01*
X170157547Y-77573995D01*
X170532633Y-77626311D01*
X170890200Y-77779726D01*
X171202523Y-78023639D01*
X171322706Y-78148918D01*
X171419440Y-78268408D01*
X171495259Y-78395850D01*
X171552700Y-78544980D01*
X171594295Y-78729539D01*
X171622582Y-78963266D01*
X171640093Y-79259899D01*
X171649366Y-79633177D01*
X171652933Y-80096839D01*
X171653395Y-80467257D01*
X171652310Y-80988077D01*
X171647681Y-81409571D01*
X171637444Y-81745796D01*
X171619535Y-82010808D01*
X171591890Y-82218664D01*
X171552446Y-82383422D01*
X171499138Y-82519138D01*
X171429904Y-82639868D01*
X171342679Y-82759671D01*
X171310967Y-82799688D01*
X171181884Y-83001785D01*
X171152025Y-83176068D01*
X171219286Y-83345622D01*
X171256520Y-83397029D01*
X171348683Y-83597416D01*
X171369913Y-83806330D01*
X171344624Y-84032589D01*
X171262836Y-84186239D01*
X171256520Y-84193188D01*
X171172151Y-84327625D01*
X171143127Y-84446412D01*
X171184666Y-84583522D01*
X171256520Y-84675014D01*
X171332255Y-84776642D01*
X171365699Y-84933350D01*
X171369913Y-85056141D01*
X171352227Y-85270481D01*
X171292385Y-85411703D01*
X171256520Y-85453571D01*
X171207417Y-85494839D01*
X171143517Y-85524714D01*
X171047218Y-85545016D01*
X170900919Y-85557565D01*
X170687019Y-85564180D01*
X170387916Y-85566681D01*
X170159727Y-85566964D01*
X169799175Y-85565890D01*
X169534881Y-85561570D01*
X169349721Y-85552355D01*
X169226571Y-85536598D01*
X169148307Y-85512650D01*
X169097805Y-85478863D01*
X169082494Y-85463281D01*
X169022653Y-85338269D01*
X168991053Y-85154100D01*
X168989716Y-85061200D01*
X169055590Y-85061200D01*
X169059266Y-85239464D01*
X169082086Y-85379568D01*
X169106025Y-85430006D01*
X169154299Y-85460484D01*
X169250742Y-85482591D01*
X169410026Y-85497451D01*
X169646820Y-85506186D01*
X169975793Y-85509920D01*
X170154667Y-85510267D01*
X170510387Y-85509680D01*
X170769909Y-85506568D01*
X170950427Y-85498907D01*
X171069135Y-85484673D01*
X171143226Y-85461842D01*
X171189894Y-85428389D01*
X171224957Y-85384259D01*
X171294797Y-85206256D01*
X171309238Y-84988477D01*
X171265358Y-84791665D01*
X171254525Y-84769486D01*
X171187578Y-84674729D01*
X171142804Y-84685458D01*
X171118712Y-84803963D01*
X171113351Y-84985825D01*
X171114779Y-85311830D01*
X170627433Y-85352444D01*
X170326109Y-85367209D01*
X169995384Y-85367576D01*
X169704433Y-85353544D01*
X169691942Y-85352444D01*
X169243796Y-85311830D01*
X169226681Y-84982081D01*
X169206230Y-84778476D01*
X169170865Y-84682548D01*
X169141637Y-84674730D01*
X169098554Y-84741104D01*
X169069279Y-84882504D01*
X169055590Y-85061200D01*
X168989716Y-85061200D01*
X168988149Y-84952392D01*
X169014398Y-84774767D01*
G37*
G36*
X168990466Y-100262298D02*
G01*
X169007795Y-100036983D01*
X169052095Y-99870685D01*
X169075510Y-99829453D01*
X169151118Y-99645381D01*
X169118981Y-99453927D01*
X169071904Y-99375882D01*
X169019746Y-99247489D01*
X168991218Y-99054813D01*
X168988663Y-98975669D01*
X168995906Y-98888859D01*
X169044309Y-98888859D01*
X169047502Y-99067600D01*
X169069675Y-99224842D01*
X169109029Y-99325523D01*
X169139853Y-99344196D01*
X169148915Y-99292202D01*
X169155343Y-99155011D01*
X169157703Y-98975669D01*
X171146733Y-98975669D01*
X171148569Y-99197127D01*
X171156743Y-99321714D01*
X171175252Y-99365929D01*
X171208094Y-99346269D01*
X171229975Y-99319185D01*
X171283815Y-99192234D01*
X171312006Y-99016931D01*
X171313216Y-98975669D01*
X171293332Y-98798377D01*
X171244116Y-98654244D01*
X171229975Y-98632153D01*
X171188886Y-98587834D01*
X171164038Y-98599519D01*
X171151432Y-98683705D01*
X171147072Y-98856892D01*
X171146733Y-98975669D01*
X169157703Y-98975669D01*
X169157899Y-98960810D01*
X169157884Y-98933147D01*
X169152226Y-98716437D01*
X169135764Y-98607104D01*
X169107542Y-98599562D01*
X169102055Y-98607142D01*
X169061894Y-98723685D01*
X169044309Y-98888859D01*
X168995906Y-98888859D01*
X169005713Y-98771318D01*
X169050168Y-98613102D01*
X169071904Y-98575456D01*
X169149118Y-98397710D01*
X169119766Y-98203280D01*
X168990911Y-97994331D01*
X168900752Y-97876745D01*
X168827943Y-97763108D01*
X168770639Y-97640078D01*
X168726993Y-97494310D01*
X168695157Y-97312461D01*
X168673286Y-97081187D01*
X168659531Y-96787145D01*
X168652048Y-96416992D01*
X168648988Y-95957384D01*
X168648484Y-95520159D01*
X168649386Y-94968863D01*
X168653609Y-94517890D01*
X168663434Y-94154172D01*
X168681138Y-93864645D01*
X168709001Y-93636242D01*
X168749300Y-93455897D01*
X168804314Y-93310544D01*
X168876323Y-93187118D01*
X168967604Y-93072552D01*
X169080436Y-92953780D01*
X169099356Y-92934800D01*
X169423691Y-92683819D01*
X169782161Y-92533938D01*
X170157547Y-92485156D01*
X170532633Y-92537472D01*
X170890200Y-92690887D01*
X171202523Y-92934800D01*
X171318784Y-93055329D01*
X171413151Y-93169692D01*
X171487905Y-93290957D01*
X171545323Y-93432189D01*
X171587683Y-93606454D01*
X171617265Y-93826817D01*
X171636348Y-94106346D01*
X171647209Y-94458105D01*
X171652127Y-94895161D01*
X171653382Y-95430580D01*
X171653395Y-95520159D01*
X171652531Y-96060250D01*
X171648709Y-96500297D01*
X171640082Y-96853644D01*
X171624803Y-97133635D01*
X171601026Y-97353612D01*
X171566903Y-97526919D01*
X171520589Y-97666900D01*
X171460235Y-97786898D01*
X171383996Y-97900257D01*
X171310967Y-97994331D01*
X171181884Y-98196428D01*
X171152025Y-98370711D01*
X171219286Y-98540265D01*
X171256520Y-98591672D01*
X171349523Y-98794452D01*
X171369913Y-98975669D01*
X171329941Y-99223200D01*
X171256520Y-99359667D01*
X171176299Y-99489822D01*
X171143127Y-99599330D01*
X171176574Y-99709418D01*
X171256520Y-99838993D01*
X171344213Y-100023265D01*
X171373247Y-100247967D01*
X171343751Y-100467399D01*
X171255848Y-100635859D01*
X171254311Y-100637523D01*
X171206046Y-100683182D01*
X171147542Y-100716022D01*
X171060747Y-100738148D01*
X170927608Y-100751663D01*
X170730075Y-100758671D01*
X170450095Y-100761276D01*
X170189694Y-100761607D01*
X169821282Y-100759667D01*
X169549275Y-100752921D01*
X169356736Y-100739979D01*
X169226729Y-100719450D01*
X169142319Y-100689943D01*
X169114671Y-100673347D01*
X169040340Y-100602091D01*
X169002563Y-100499410D01*
X168994338Y-100382602D01*
X169051363Y-100382602D01*
X169064974Y-100504257D01*
X169111662Y-100590232D01*
X169205727Y-100646773D01*
X169361467Y-100680121D01*
X169593178Y-100696521D01*
X169915160Y-100702216D01*
X170165113Y-100703107D01*
X170511218Y-100702769D01*
X170762264Y-100698874D01*
X170936573Y-100689446D01*
X171052469Y-100672508D01*
X171128274Y-100646085D01*
X171182312Y-100608200D01*
X171199823Y-100591517D01*
X171272253Y-100468446D01*
X171310114Y-100301599D01*
X171314432Y-100124361D01*
X171286235Y-99970115D01*
X171226549Y-99872245D01*
X171177162Y-99854464D01*
X171133429Y-99908868D01*
X171113423Y-100067284D01*
X171112358Y-100152120D01*
X171114779Y-100449776D01*
X170774600Y-100499495D01*
X170160141Y-100547575D01*
X169579444Y-100504060D01*
X169555627Y-100500281D01*
X169243796Y-100449776D01*
X169226531Y-100148426D01*
X169202031Y-99956069D01*
X169163227Y-99870588D01*
X169119692Y-99888008D01*
X169080996Y-100004354D01*
X169056712Y-100215651D01*
X169056533Y-100219026D01*
X169051363Y-100382602D01*
X168994338Y-100382602D01*
X168990622Y-100329836D01*
X168990466Y-100262298D01*
G37*
G36*
X156534658Y-80919944D02*
G01*
X156636786Y-80964151D01*
X156886196Y-81041016D01*
X157044000Y-81043185D01*
X157197440Y-81043042D01*
X157319903Y-81100458D01*
X157420942Y-81190967D01*
X157563632Y-81388746D01*
X157593273Y-81585291D01*
X157509779Y-81782971D01*
X157394243Y-81913716D01*
X157260810Y-82063765D01*
X157201237Y-82184844D01*
X157220342Y-82260832D01*
X157285211Y-82278571D01*
X157412584Y-82326686D01*
X157544588Y-82447210D01*
X157651752Y-82604408D01*
X157704602Y-82762546D01*
X157706073Y-82788839D01*
X157666388Y-82943269D01*
X157566982Y-83103316D01*
X157437327Y-83233246D01*
X157306897Y-83297323D01*
X157285211Y-83299107D01*
X157215700Y-83343678D01*
X157195805Y-83469196D01*
X157219234Y-83601436D01*
X157285211Y-83639285D01*
X157412584Y-83687401D01*
X157544588Y-83807924D01*
X157651752Y-83965122D01*
X157704602Y-84123260D01*
X157706073Y-84149553D01*
X157666388Y-84303984D01*
X157566982Y-84464031D01*
X157437327Y-84593960D01*
X157306897Y-84658037D01*
X157285211Y-84659821D01*
X157227148Y-84688983D01*
X157200311Y-84791726D01*
X157195805Y-84914955D01*
X157206025Y-85080647D01*
X157242028Y-85157231D01*
X157285211Y-85170089D01*
X157412584Y-85218204D01*
X157544588Y-85338728D01*
X157651752Y-85495926D01*
X157704602Y-85654064D01*
X157706073Y-85680357D01*
X157666388Y-85834787D01*
X157566982Y-85994834D01*
X157437327Y-86124764D01*
X157306897Y-86188841D01*
X157285211Y-86190625D01*
X157231672Y-86215253D01*
X157204123Y-86304590D01*
X157195838Y-86481813D01*
X157195805Y-86498764D01*
X157183715Y-86707209D01*
X157152917Y-86894247D01*
X157130986Y-86966509D01*
X157080281Y-87134593D01*
X157060115Y-87267857D01*
X157025557Y-87381176D01*
X156940671Y-87411429D01*
X156864378Y-87453049D01*
X156716801Y-87573390D01*
X156503244Y-87767550D01*
X156229012Y-88030630D01*
X155899409Y-88357731D01*
X155721698Y-88537455D01*
X155424423Y-88835964D01*
X155144047Y-89110423D01*
X154892800Y-89349410D01*
X154682911Y-89541501D01*
X154526610Y-89675276D01*
X154436127Y-89739311D01*
X154433675Y-89740424D01*
X154264612Y-89783348D01*
X154022335Y-89808627D01*
X153744564Y-89816304D01*
X153469016Y-89806425D01*
X153233408Y-89779033D01*
X153085314Y-89738837D01*
X152820097Y-89561661D01*
X152622244Y-89309891D01*
X152509466Y-89010817D01*
X152490002Y-88821496D01*
X152541320Y-88522862D01*
X152681936Y-88254189D01*
X152891846Y-88036168D01*
X153151042Y-87889486D01*
X153439519Y-87834834D01*
X153444091Y-87834821D01*
X153514881Y-87818614D01*
X153610162Y-87763885D01*
X153740815Y-87661470D01*
X153917720Y-87502204D01*
X154151758Y-87276924D01*
X154404240Y-87026187D01*
X155211430Y-86217554D01*
X155211430Y-83939923D01*
X155213009Y-83289763D01*
X155217684Y-82733993D01*
X155225370Y-82276166D01*
X155235978Y-81919833D01*
X155249419Y-81668548D01*
X155265607Y-81525863D01*
X155271734Y-81502686D01*
X155428516Y-81234903D01*
X155657695Y-81033073D01*
X155934777Y-80906860D01*
X156235263Y-80865929D01*
X156534658Y-80919944D01*
G37*
G36*
X157045766Y-62065059D02*
G01*
X157320692Y-62176177D01*
X157552545Y-62361758D01*
X157722309Y-62609112D01*
X157810970Y-62905550D01*
X157819466Y-63035645D01*
X157770547Y-63328961D01*
X157619614Y-63607768D01*
X157429190Y-63821216D01*
X157195805Y-64045334D01*
X157195805Y-68991074D01*
X157195151Y-69995140D01*
X157193180Y-70886853D01*
X157189881Y-71667247D01*
X157185241Y-72337354D01*
X157179248Y-72898207D01*
X157171890Y-73350839D01*
X157163154Y-73696282D01*
X157153030Y-73935570D01*
X157141503Y-74069736D01*
X157135733Y-74096420D01*
X157031937Y-74276517D01*
X156864740Y-74473300D01*
X156670503Y-74649555D01*
X156485589Y-74768070D01*
X156474747Y-74772893D01*
X156355896Y-74798672D01*
X156143289Y-74819615D01*
X155856082Y-74835734D01*
X155513433Y-74847038D01*
X155134500Y-74853538D01*
X154738441Y-74855247D01*
X154344413Y-74852173D01*
X153971573Y-74844329D01*
X153639080Y-74831724D01*
X153366091Y-74814371D01*
X153171764Y-74792278D01*
X153085314Y-74770980D01*
X152816366Y-74595307D01*
X152626367Y-74357216D01*
X152519052Y-74078762D01*
X152498160Y-73782002D01*
X152567424Y-73488991D01*
X152730582Y-73221787D01*
X152809023Y-73139879D01*
X152920808Y-73045531D01*
X153038239Y-72975540D01*
X153180020Y-72926366D01*
X153364851Y-72894471D01*
X153611432Y-72876317D01*
X153938466Y-72868363D01*
X154251282Y-72866964D01*
X155211430Y-72866964D01*
X155211430Y-68164851D01*
X155212152Y-67176910D01*
X155214319Y-66301934D01*
X155217938Y-65539507D01*
X155223013Y-64889211D01*
X155229550Y-64350628D01*
X155237554Y-63923340D01*
X155247029Y-63606931D01*
X155257982Y-63400981D01*
X155270416Y-63305075D01*
X155271087Y-63303132D01*
X155343462Y-63183058D01*
X155481232Y-63011500D01*
X155663082Y-62810040D01*
X155867691Y-62600260D01*
X156073743Y-62403742D01*
X156259919Y-62242067D01*
X156404901Y-62136818D01*
X156442757Y-62116962D01*
X156746783Y-62041090D01*
X157045766Y-62065059D01*
G37*
G36*
X156283808Y-95847830D02*
G01*
X156410314Y-95914233D01*
X156571973Y-96043173D01*
X156694012Y-96155022D01*
X156866934Y-96331142D01*
X157013493Y-96503909D01*
X157107000Y-96641299D01*
X157117747Y-96663469D01*
X157134978Y-96760667D01*
X157150297Y-96959358D01*
X157163705Y-97247706D01*
X157175205Y-97613879D01*
X157184797Y-98046041D01*
X157192483Y-98532359D01*
X157198264Y-99060998D01*
X157202143Y-99620126D01*
X157204120Y-100197907D01*
X157204196Y-100782508D01*
X157202374Y-101362095D01*
X157198655Y-101924833D01*
X157193040Y-102458889D01*
X157185531Y-102952429D01*
X157176129Y-103393619D01*
X157164835Y-103770624D01*
X157151652Y-104071611D01*
X157136580Y-104284745D01*
X157119621Y-104398193D01*
X157116789Y-104406173D01*
X157037017Y-104531202D01*
X156893085Y-104705065D01*
X156706574Y-104906444D01*
X156499066Y-105114021D01*
X156292142Y-105306479D01*
X156107386Y-105462499D01*
X155966378Y-105560763D01*
X155930619Y-105577843D01*
X155794333Y-105605314D01*
X155574040Y-105624064D01*
X155296320Y-105634382D01*
X154987754Y-105636558D01*
X154674920Y-105630882D01*
X154384398Y-105617643D01*
X154142769Y-105597132D01*
X153976611Y-105569637D01*
X153935761Y-105556093D01*
X153823231Y-105481204D01*
X153657024Y-105341071D01*
X153455679Y-105154560D01*
X153237732Y-104940534D01*
X153021722Y-104717856D01*
X152826186Y-104505391D01*
X152669661Y-104322002D01*
X152570686Y-104186553D01*
X152549582Y-104145527D01*
X152489040Y-103836753D01*
X152525406Y-103531142D01*
X152645934Y-103249676D01*
X152837880Y-103013339D01*
X153088499Y-102843113D01*
X153385046Y-102759980D01*
X153391555Y-102759331D01*
X153629132Y-102761174D01*
X153842808Y-102823995D01*
X154054905Y-102959654D01*
X154287746Y-103180014D01*
X154385484Y-103287494D01*
X154546405Y-103465421D01*
X154661215Y-103573783D01*
X154756864Y-103629733D01*
X154860305Y-103650425D01*
X154959958Y-103653125D01*
X155211430Y-103653125D01*
X155211430Y-100249518D01*
X155211818Y-99521509D01*
X155213105Y-98898606D01*
X155215479Y-98372525D01*
X155219124Y-97934982D01*
X155224227Y-97577691D01*
X155230975Y-97292369D01*
X155239553Y-97070730D01*
X155250148Y-96904492D01*
X155262946Y-96785368D01*
X155278132Y-96705075D01*
X155292022Y-96663469D01*
X155370638Y-96532884D01*
X155503010Y-96358153D01*
X155662088Y-96174681D01*
X155680494Y-96155022D01*
X155853523Y-95981549D01*
X155982414Y-95880874D01*
X156092424Y-95836121D01*
X156168355Y-95829017D01*
X156283808Y-95847830D01*
G37*
G36*
X169034037Y-69568877D02*
G01*
X169071904Y-69490189D01*
X169142389Y-69332238D01*
X169148638Y-69161895D01*
X169090467Y-69027707D01*
X169073707Y-69011607D01*
X169014761Y-68899967D01*
X168989767Y-68687598D01*
X168989082Y-68642414D01*
X169042957Y-68642414D01*
X169058980Y-68815348D01*
X169089961Y-68949936D01*
X169134159Y-69010908D01*
X169139853Y-69011607D01*
X169149134Y-68959675D01*
X169155877Y-68822923D01*
X169158732Y-68629919D01*
X169158748Y-68614732D01*
X171146733Y-68614732D01*
X171148684Y-68827259D01*
X171157469Y-68943079D01*
X171177490Y-68978854D01*
X171213146Y-68951244D01*
X171229975Y-68929900D01*
X171287010Y-68798439D01*
X171313054Y-68627783D01*
X171313216Y-68614732D01*
X171290468Y-68444117D01*
X171235184Y-68306851D01*
X171229975Y-68299564D01*
X171187866Y-68253855D01*
X171162919Y-68265751D01*
X171150734Y-68351913D01*
X171146910Y-68529000D01*
X171146733Y-68614732D01*
X169158748Y-68614732D01*
X169158752Y-68611386D01*
X169151476Y-68393154D01*
X169130668Y-68269234D01*
X169102055Y-68246205D01*
X169062753Y-68322574D01*
X169043635Y-68466400D01*
X169042957Y-68642414D01*
X168989082Y-68642414D01*
X168988663Y-68614732D01*
X169005009Y-68375003D01*
X169054954Y-68237657D01*
X169073707Y-68217857D01*
X169150070Y-68087368D01*
X169133774Y-67912327D01*
X169027357Y-67709786D01*
X168990911Y-67661742D01*
X168895442Y-67536053D01*
X168819497Y-67413571D01*
X168760861Y-67279755D01*
X168717320Y-67120066D01*
X168686657Y-66919964D01*
X168666658Y-66664908D01*
X168655106Y-66340359D01*
X168649787Y-65931776D01*
X168648484Y-65424619D01*
X168648484Y-65414355D01*
X168649824Y-64893558D01*
X168655654Y-64471947D01*
X168668686Y-64135329D01*
X168691635Y-63869513D01*
X168727211Y-63660305D01*
X168778130Y-63493513D01*
X168847104Y-63354944D01*
X168936846Y-63230405D01*
X169050069Y-63105704D01*
X169099356Y-63055782D01*
X169423691Y-62804802D01*
X169782161Y-62654920D01*
X170157547Y-62606138D01*
X170532633Y-62658454D01*
X170890200Y-62811869D01*
X171202523Y-63055782D01*
X171325293Y-63184223D01*
X171423560Y-63307157D01*
X171500037Y-63438776D01*
X171557437Y-63593272D01*
X171598474Y-63784839D01*
X171625859Y-64027670D01*
X171642308Y-64335955D01*
X171650532Y-64723890D01*
X171653245Y-65205665D01*
X171653395Y-65414355D01*
X171652145Y-65923446D01*
X171646919Y-66333698D01*
X171635500Y-66659651D01*
X171615675Y-66915845D01*
X171585227Y-67116820D01*
X171541940Y-67277117D01*
X171483600Y-67411274D01*
X171407991Y-67533833D01*
X171312898Y-67659333D01*
X171310967Y-67661742D01*
X171177956Y-67878925D01*
X171153266Y-68063496D01*
X171236927Y-68215126D01*
X171256520Y-68233050D01*
X171332255Y-68334678D01*
X171365699Y-68491385D01*
X171369913Y-68614177D01*
X171352227Y-68828517D01*
X171292385Y-68969739D01*
X171256520Y-69011607D01*
X171170999Y-69143017D01*
X171143127Y-69257953D01*
X171183890Y-69396746D01*
X171256520Y-69493526D01*
X171340061Y-69635363D01*
X171373209Y-69834865D01*
X171355672Y-70047969D01*
X171287157Y-70230616D01*
X171261653Y-70266821D01*
X171216959Y-70316533D01*
X171163761Y-70352400D01*
X171083897Y-70376976D01*
X170959206Y-70392813D01*
X170771526Y-70402465D01*
X170502695Y-70408486D01*
X170226943Y-70412278D01*
X169909211Y-70414291D01*
X169627711Y-70412379D01*
X169403582Y-70406974D01*
X169257962Y-70398510D01*
X169215448Y-70391582D01*
X169108413Y-70320720D01*
X169059533Y-70269918D01*
X169010892Y-70143167D01*
X168990919Y-69953206D01*
X168992914Y-69901360D01*
X169046227Y-69901360D01*
X169051122Y-70061751D01*
X169076380Y-70181480D01*
X169136250Y-70266091D01*
X169244977Y-70321130D01*
X169416809Y-70352142D01*
X169665992Y-70364673D01*
X170006773Y-70364269D01*
X170226495Y-70360758D01*
X170573652Y-70353387D01*
X170824963Y-70344333D01*
X170997974Y-70331385D01*
X171110231Y-70312333D01*
X171179278Y-70284964D01*
X171222663Y-70247066D01*
X171232857Y-70233918D01*
X171288737Y-70099512D01*
X171309187Y-69923599D01*
X171297877Y-69739732D01*
X171258481Y-69581463D01*
X171194669Y-69482346D01*
X171148730Y-69465178D01*
X171124468Y-69516532D01*
X171110053Y-69649534D01*
X171108202Y-69791183D01*
X171114779Y-70117187D01*
X169243796Y-70117187D01*
X169237092Y-69817551D01*
X169217705Y-69598078D01*
X169178988Y-69483170D01*
X169131753Y-69468078D01*
X169086815Y-69548054D01*
X169054987Y-69718348D01*
X169046227Y-69901360D01*
X168992914Y-69901360D01*
X168998879Y-69746341D01*
X169034037Y-69568877D01*
G37*
G36*
X148504080Y-82795112D02*
G01*
X148751202Y-82828471D01*
X148881936Y-82866953D01*
X148969622Y-82925960D01*
X149125463Y-83054291D01*
X149337435Y-83241083D01*
X149593516Y-83475474D01*
X149881683Y-83746602D01*
X150189915Y-84043605D01*
X150258884Y-84111005D01*
X151448879Y-85276943D01*
X152644692Y-85294387D01*
X153840505Y-85311830D01*
X154058222Y-85485950D01*
X154300334Y-85741308D01*
X154438779Y-86026410D01*
X154473556Y-86325055D01*
X154404664Y-86621039D01*
X154232103Y-86898162D01*
X154058272Y-87065388D01*
X153968657Y-87134503D01*
X153887176Y-87182857D01*
X153791381Y-87214747D01*
X153658821Y-87234470D01*
X153467047Y-87246320D01*
X153193609Y-87254594D01*
X153051911Y-87257968D01*
X152263216Y-87276427D01*
X152263216Y-89794721D01*
X152562655Y-90090441D01*
X152862094Y-90386160D01*
X153981887Y-90386160D01*
X154413474Y-90388596D01*
X154745049Y-90396442D01*
X154989900Y-90410504D01*
X155161314Y-90431589D01*
X155272580Y-90460505D01*
X155284122Y-90465228D01*
X155391984Y-90534843D01*
X155556533Y-90668676D01*
X155756664Y-90848441D01*
X155971269Y-91055856D01*
X156004061Y-91088888D01*
X156541557Y-91633482D01*
X166183057Y-91633482D01*
X167557512Y-90258168D01*
X168931966Y-88882854D01*
X168931966Y-88345089D01*
X170916341Y-88345089D01*
X170916341Y-88908362D01*
X170910372Y-89168509D01*
X170894347Y-89401994D01*
X170871092Y-89574762D01*
X170856366Y-89631242D01*
X170804636Y-89703860D01*
X170680815Y-89847304D01*
X170493382Y-90052614D01*
X170250818Y-90310828D01*
X169961603Y-90612983D01*
X169634217Y-90950117D01*
X169277139Y-91313270D01*
X169015429Y-91576785D01*
X168573543Y-92021163D01*
X168207325Y-92392476D01*
X167911198Y-92696766D01*
X167679587Y-92940074D01*
X167506917Y-93128440D01*
X167387612Y-93267906D01*
X167316097Y-93364512D01*
X167286797Y-93424300D01*
X167288598Y-93447767D01*
X167342668Y-93626934D01*
X167308881Y-93818851D01*
X167204931Y-93994824D01*
X167048507Y-94126155D01*
X166857302Y-94184150D01*
X166834198Y-94184821D01*
X166638731Y-94134224D01*
X166489658Y-94019093D01*
X166323930Y-93853365D01*
X166158202Y-94019093D01*
X165969341Y-94153363D01*
X165813663Y-94184821D01*
X165618196Y-94134224D01*
X165469123Y-94019093D01*
X165303395Y-93853365D01*
X165137667Y-94019093D01*
X164948806Y-94153363D01*
X164793127Y-94184821D01*
X164597660Y-94134224D01*
X164448587Y-94019093D01*
X164282859Y-93853365D01*
X164117131Y-94019093D01*
X163928270Y-94153363D01*
X163772591Y-94184821D01*
X163577124Y-94134224D01*
X163428051Y-94019093D01*
X163262323Y-93853365D01*
X163096595Y-94019093D01*
X162907734Y-94153363D01*
X162752055Y-94184821D01*
X162556589Y-94134224D01*
X162407516Y-94019093D01*
X162301711Y-93885991D01*
X162244881Y-93761341D01*
X162241788Y-93735611D01*
X162241788Y-93617857D01*
X159098827Y-93617857D01*
X158316529Y-93616739D01*
X157636172Y-93613407D01*
X157059541Y-93607893D01*
X156588417Y-93600229D01*
X156224585Y-93590447D01*
X155969829Y-93578580D01*
X155825932Y-93564659D01*
X155799363Y-93558355D01*
X155702692Y-93497665D01*
X155546265Y-93372556D01*
X155349588Y-93199697D01*
X155132167Y-92995755D01*
X155069560Y-92934694D01*
X154496259Y-92370535D01*
X153383428Y-92370535D01*
X153007067Y-92367490D01*
X152672757Y-92358928D01*
X152398834Y-92345705D01*
X152203635Y-92328679D01*
X152110992Y-92311029D01*
X152010509Y-92247525D01*
X151849975Y-92116256D01*
X151645642Y-91933342D01*
X151413759Y-91714900D01*
X151170575Y-91477049D01*
X150932341Y-91235908D01*
X150715306Y-91007595D01*
X150535721Y-90808229D01*
X150409834Y-90653927D01*
X150358036Y-90572245D01*
X150334282Y-90493301D01*
X150315467Y-90370381D01*
X150301115Y-90192032D01*
X150290751Y-89946800D01*
X150283901Y-89623230D01*
X150280091Y-89209869D01*
X150278845Y-88695262D01*
X150278841Y-88661561D01*
X150278841Y-86933320D01*
X149196677Y-85867441D01*
X148872216Y-85548409D01*
X148616905Y-85299936D01*
X148419320Y-85112797D01*
X148268033Y-84977768D01*
X148151619Y-84885625D01*
X148058652Y-84827144D01*
X147977705Y-84793100D01*
X147897353Y-84774269D01*
X147830550Y-84764573D01*
X147516892Y-84668744D01*
X147244390Y-84477011D01*
X147035738Y-84205350D01*
X147035450Y-84204829D01*
X146944936Y-83931033D01*
X146952063Y-83640814D01*
X147048412Y-83357862D01*
X147225564Y-83105869D01*
X147475100Y-82908527D01*
X147501252Y-82894026D01*
X147678869Y-82835920D01*
X147930293Y-82799574D01*
X148217903Y-82785725D01*
X148504080Y-82795112D01*
G37*
G36*
X145451150Y-62898801D02*
G01*
X145484053Y-63017828D01*
X145587283Y-63069615D01*
X145615560Y-63074569D01*
X145771475Y-63098188D01*
X145615560Y-63106683D01*
X145499266Y-63134077D01*
X145460862Y-63218076D01*
X145459645Y-63250807D01*
X145459645Y-63386437D01*
X145670070Y-63279156D01*
X145974811Y-63184984D01*
X146297549Y-63194500D01*
X146524524Y-63265676D01*
X146664969Y-63323347D01*
X146757468Y-63352470D01*
X146769904Y-63353365D01*
X146811789Y-63396304D01*
X146884938Y-63513856D01*
X146954167Y-63643078D01*
X147078742Y-63980282D01*
X147094761Y-64292172D01*
X147000759Y-64586748D01*
X146795266Y-64872013D01*
X146713565Y-64955144D01*
X146480180Y-65179262D01*
X146480180Y-70372321D01*
X147298588Y-70372321D01*
X147675163Y-70375889D01*
X147959188Y-70389487D01*
X148171363Y-70417461D01*
X148332389Y-70464154D01*
X148462964Y-70533910D01*
X148583790Y-70631072D01*
X148599105Y-70645236D01*
X148799192Y-70903056D01*
X148901757Y-71196058D01*
X148906798Y-71501568D01*
X148814315Y-71796914D01*
X148624310Y-72059422D01*
X148599105Y-72083781D01*
X148442346Y-72208699D01*
X148272275Y-72290193D01*
X148060134Y-72336296D01*
X147777161Y-72355043D01*
X147622223Y-72356696D01*
X147127450Y-72356696D01*
X146650270Y-72842908D01*
X146650270Y-85283482D01*
X147402382Y-85283482D01*
X147772770Y-85288981D01*
X148052390Y-85310210D01*
X148263536Y-85354270D01*
X148428502Y-85428259D01*
X148569584Y-85539277D01*
X148709078Y-85694424D01*
X148714714Y-85701369D01*
X148824661Y-85866345D01*
X148882236Y-86045332D01*
X148903509Y-86234017D01*
X148887804Y-86551708D01*
X148787167Y-86813900D01*
X148589459Y-87047423D01*
X148501698Y-87122084D01*
X148283708Y-87296205D01*
X146480180Y-87259695D01*
X146480180Y-91120954D01*
X146480060Y-91900984D01*
X146479390Y-92575710D01*
X146477708Y-93153220D01*
X146474550Y-93641602D01*
X146469454Y-94048944D01*
X146461956Y-94383335D01*
X146451594Y-94652863D01*
X146437905Y-94865617D01*
X146420426Y-95029684D01*
X146398693Y-95153153D01*
X146372244Y-95244113D01*
X146340616Y-95310651D01*
X146303347Y-95360856D01*
X146259972Y-95402817D01*
X146233829Y-95424910D01*
X146154455Y-95557672D01*
X146135077Y-95749292D01*
X146172887Y-95964217D01*
X146265078Y-96166895D01*
X146295917Y-96210991D01*
X146451832Y-96415309D01*
X146468278Y-98259381D01*
X146475489Y-98851430D01*
X146485581Y-99336501D01*
X146498497Y-99713222D01*
X146514182Y-99980221D01*
X146532580Y-100136129D01*
X146546090Y-100177396D01*
X146610197Y-100210428D01*
X146746839Y-100232972D01*
X146968754Y-100246182D01*
X147288679Y-100251213D01*
X147362226Y-100251339D01*
X147727779Y-100255485D01*
X148001947Y-100271133D01*
X148206539Y-100303095D01*
X148363366Y-100356182D01*
X148494238Y-100435208D01*
X148599105Y-100524254D01*
X148793195Y-100775242D01*
X148893377Y-101060030D01*
X148903969Y-101356509D01*
X148829287Y-101642575D01*
X148673651Y-101896121D01*
X148441378Y-102095040D01*
X148276601Y-102175410D01*
X148149488Y-102200428D01*
X147934224Y-102218691D01*
X147653935Y-102230399D01*
X147331750Y-102235750D01*
X146990798Y-102234945D01*
X146654204Y-102228181D01*
X146345099Y-102215657D01*
X146086609Y-102197573D01*
X145901863Y-102174127D01*
X145828171Y-102154349D01*
X145711416Y-102077188D01*
X145543123Y-101935448D01*
X145342987Y-101749204D01*
X145130702Y-101538526D01*
X144925960Y-101323487D01*
X144748457Y-101124159D01*
X144617885Y-100960616D01*
X144555420Y-100857134D01*
X144537582Y-100750492D01*
X144522574Y-100538663D01*
X144510649Y-100229824D01*
X144502059Y-99832152D01*
X144497056Y-99353825D01*
X144495805Y-98922224D01*
X144495287Y-98421618D01*
X144493325Y-98022404D01*
X144489314Y-97712584D01*
X144482645Y-97480161D01*
X144472711Y-97313138D01*
X144458905Y-97199516D01*
X144440619Y-97127298D01*
X144417246Y-97084486D01*
X144401978Y-97069107D01*
X144311727Y-96972382D01*
X144245425Y-96842332D01*
X144199881Y-96662163D01*
X144171906Y-96415083D01*
X144158308Y-96084297D01*
X144155627Y-95772321D01*
X144160560Y-95367998D01*
X144177487Y-95059933D01*
X144209597Y-94831333D01*
X144260082Y-94665404D01*
X144332130Y-94545353D01*
X144401978Y-94475535D01*
X144420089Y-94453277D01*
X144435726Y-94413472D01*
X144449071Y-94348296D01*
X144460301Y-94249921D01*
X144469596Y-94110521D01*
X144477135Y-93922271D01*
X144483097Y-93677345D01*
X144487662Y-93367915D01*
X144491009Y-92986156D01*
X144493317Y-92524242D01*
X144494764Y-91974347D01*
X144495531Y-91328644D01*
X144495796Y-90579307D01*
X144495805Y-90377397D01*
X144496074Y-89589812D01*
X144496987Y-88907769D01*
X144498701Y-88323419D01*
X144501374Y-87828913D01*
X144505165Y-87416401D01*
X144510232Y-87078033D01*
X144516732Y-86805961D01*
X144524824Y-86592335D01*
X144534666Y-86429305D01*
X144546415Y-86309022D01*
X144560231Y-86223637D01*
X144576270Y-86165300D01*
X144580850Y-86153531D01*
X144593728Y-86111756D01*
X144605266Y-86047447D01*
X144615537Y-85954688D01*
X144624611Y-85827564D01*
X144632561Y-85660157D01*
X144639458Y-85446554D01*
X144645372Y-85180837D01*
X144650377Y-84857091D01*
X144654542Y-84469400D01*
X144657940Y-84011848D01*
X144660641Y-83478520D01*
X144662718Y-82863500D01*
X144664242Y-82160872D01*
X144665284Y-81364719D01*
X144665915Y-80469127D01*
X144666208Y-79468180D01*
X144666244Y-79082473D01*
X144666420Y-78045447D01*
X144666888Y-77115889D01*
X144667719Y-76287874D01*
X144668989Y-75555476D01*
X144670769Y-74912770D01*
X144673133Y-74353831D01*
X144676155Y-73872735D01*
X144679909Y-73463555D01*
X144684466Y-73120367D01*
X144689902Y-72837246D01*
X144696288Y-72608267D01*
X144703700Y-72427504D01*
X144712209Y-72289033D01*
X144721889Y-72186928D01*
X144732815Y-72115265D01*
X144745058Y-72068117D01*
X144753348Y-72048590D01*
X144793225Y-71964010D01*
X144799898Y-71895450D01*
X144761544Y-71818422D01*
X144666338Y-71708442D01*
X144513813Y-71552497D01*
X144187525Y-71222767D01*
X142786204Y-71222767D01*
X142324713Y-71220239D01*
X141927802Y-71212952D01*
X141607033Y-71201353D01*
X141373968Y-71185888D01*
X141240169Y-71167005D01*
X141225278Y-71162464D01*
X140962783Y-71006400D01*
X140755038Y-70771800D01*
X140622352Y-70488164D01*
X140583752Y-70230580D01*
X140636680Y-69928458D01*
X140781927Y-69650300D01*
X140999185Y-69425606D01*
X141225278Y-69298696D01*
X141334896Y-69279604D01*
X141548461Y-69263740D01*
X141856567Y-69251434D01*
X142249805Y-69243016D01*
X142718767Y-69238818D01*
X142940344Y-69238392D01*
X144495805Y-69238392D01*
X144495805Y-66912018D01*
X144496512Y-66308938D01*
X144498841Y-65809363D01*
X144503101Y-65403411D01*
X144509604Y-65081203D01*
X144518661Y-64832856D01*
X144530582Y-64648490D01*
X144545678Y-64518224D01*
X144564261Y-64432177D01*
X144574716Y-64403201D01*
X144649945Y-64283128D01*
X144785245Y-64114556D01*
X144957178Y-63925693D01*
X145046444Y-63835518D01*
X145231340Y-63649226D01*
X145345699Y-63517397D01*
X145403612Y-63419023D01*
X145419171Y-63333098D01*
X145415137Y-63285918D01*
X145368748Y-63156715D01*
X145260085Y-63101816D01*
X145241066Y-63098515D01*
X145091118Y-63075472D01*
X145243267Y-63066977D01*
X145362295Y-63034074D01*
X145414081Y-62930843D01*
X145419036Y-62902566D01*
X145442655Y-62746651D01*
X145451150Y-62898801D01*
G37*
D11*
X178308000Y-74321500D03*
D12*
X176530000Y-74125000D03*
D11*
X178308000Y-76046500D03*
D12*
X176530000Y-76200000D03*
D13*
X91696000Y-69421000D03*
D14*
X93474000Y-69617500D03*
D13*
X91696000Y-67696000D03*
D14*
X93474000Y-67542500D03*
D11*
X134112000Y-102007500D03*
D12*
X132334000Y-101811000D03*
D11*
X134112000Y-103732500D03*
D12*
X132334000Y-103886000D03*
D11*
X133856000Y-91107000D03*
D12*
X132078000Y-90910500D03*
D11*
X133856000Y-92832000D03*
D12*
X132078000Y-92985500D03*
D11*
X134110000Y-80439000D03*
D12*
X132332000Y-80242500D03*
D11*
X134110000Y-82164000D03*
D12*
X132332000Y-82317500D03*
D13*
X101094000Y-104473000D03*
D14*
X102872000Y-104669500D03*
D13*
X101094000Y-102748000D03*
D14*
X102872000Y-102594500D03*
D15*
X120983000Y-85596000D03*
D16*
X121179500Y-83818000D03*
D15*
X119258000Y-85596000D03*
D16*
X119104500Y-83818000D03*
D15*
X124539000Y-106170000D03*
D16*
X124735500Y-104392000D03*
D15*
X122814000Y-106170000D03*
D16*
X122660500Y-104392000D03*
D13*
X116842000Y-94821000D03*
D14*
X118620000Y-95017500D03*
D13*
X116842000Y-93096000D03*
D14*
X118620000Y-92942500D03*
D17*
X141224000Y-99842000D03*
X141224000Y-104842000D03*
D18*
X93645000Y-75585000D03*
D19*
X93645000Y-78085000D03*
D20*
X130190000Y-77190000D03*
D21*
X130190000Y-79730000D03*
X130190000Y-82270000D03*
X130190000Y-84810000D03*
X137810000Y-84810000D03*
X137810000Y-82270000D03*
X137810000Y-79730000D03*
X137810000Y-77190000D03*
D22*
X94000000Y-101346000D03*
D23*
X94000000Y-103846000D03*
X94000000Y-106346000D03*
D22*
X93980000Y-85090000D03*
D23*
X93980000Y-87590000D03*
X93980000Y-90090000D03*
X93980000Y-92590000D03*
X93980000Y-95090000D03*
D24*
X113604000Y-107494000D03*
X111064000Y-107494000D03*
X108524000Y-107494000D03*
X105730000Y-107494000D03*
X103190000Y-107494000D03*
X100396000Y-107494000D03*
X102174000Y-93524000D03*
X102174000Y-96064000D03*
X104460000Y-76506000D03*
X101920000Y-76506000D03*
X99126000Y-104954000D03*
X99126000Y-102414000D03*
X99126000Y-99874000D03*
X99126000Y-97080000D03*
X99126000Y-94540000D03*
X99126000Y-92000000D03*
X99126000Y-89460000D03*
X99126000Y-86920000D03*
X99126000Y-84126000D03*
X99126000Y-81586000D03*
X99126000Y-79046000D03*
X99126000Y-76506000D03*
X114874000Y-76506000D03*
X114874000Y-79046000D03*
X114874000Y-81586000D03*
X114874000Y-84126000D03*
X114874000Y-86920000D03*
X114874000Y-89460000D03*
X114874000Y-92000000D03*
X114874000Y-94540000D03*
X114874000Y-97334000D03*
X114874000Y-99874000D03*
X114874000Y-102414000D03*
X114874000Y-104954000D03*
X107000000Y-76506000D03*
D17*
X141224000Y-76842000D03*
X141224000Y-81842000D03*
D25*
X88500000Y-106500000D03*
D26*
X141485000Y-70242500D03*
D27*
X126485000Y-70242500D03*
D20*
X130190000Y-88190000D03*
D21*
X130190000Y-90730000D03*
X130190000Y-93270000D03*
X130190000Y-95810000D03*
X137810000Y-95810000D03*
X137810000Y-93270000D03*
X137810000Y-90730000D03*
X137810000Y-88190000D03*
D25*
X176500000Y-106500000D03*
D28*
X111125000Y-94615000D03*
D29*
X175260000Y-91805000D03*
D30*
X175260000Y-93705000D03*
D25*
X176500000Y-63500000D03*
D31*
X95250000Y-70982651D03*
D17*
X95250000Y-65982651D03*
X141224000Y-88842000D03*
X141224000Y-93842000D03*
D32*
X103505000Y-63500000D03*
D33*
X101005000Y-63500000D03*
D20*
X130190000Y-99190000D03*
D21*
X130190000Y-101730000D03*
X130190000Y-104270000D03*
X130190000Y-106810000D03*
X137810000Y-106810000D03*
X137810000Y-104270000D03*
X137810000Y-101730000D03*
X137810000Y-99190000D03*
D25*
X88392000Y-63500000D03*
D34*
X129540000Y-63500000D03*
D35*
X132040000Y-63500000D03*
X134540000Y-63500000D03*
X137040000Y-63500000D03*
X139540000Y-63500000D03*
D36*
X152870000Y-63000000D03*
X150820000Y-63000000D03*
D37*
X147900000Y-73900000D03*
D38*
X147900000Y-71360000D03*
X147900000Y-68820000D03*
D37*
X147900000Y-103900000D03*
D38*
X147900000Y-101360000D03*
X147900000Y-98820000D03*
D39*
X170245000Y-72390000D03*
X170245000Y-71120000D03*
X170245000Y-69850000D03*
X170245000Y-68580000D03*
X175195000Y-68580000D03*
X175195000Y-69850000D03*
X175195000Y-71120000D03*
X175195000Y-72390000D03*
D40*
X156845000Y-62865000D03*
D13*
X177165000Y-84682500D03*
X177165000Y-82957500D03*
D37*
X153440000Y-98820000D03*
D38*
X153440000Y-101360000D03*
X153440000Y-103900000D03*
D41*
X153670000Y-93310000D03*
X153670000Y-96410000D03*
D42*
X150620000Y-66360000D03*
X153720000Y-66360000D03*
D37*
X147900000Y-88900000D03*
D38*
X147900000Y-86360000D03*
X147900000Y-83820000D03*
D40*
X170180000Y-79090000D03*
D41*
X153670000Y-78360000D03*
X153670000Y-81460000D03*
D13*
X177165000Y-99922500D03*
X177165000Y-98197500D03*
D39*
X170245000Y-87630000D03*
X170245000Y-86360000D03*
X170245000Y-85090000D03*
X170245000Y-83820000D03*
X175195000Y-83820000D03*
X175195000Y-85090000D03*
X175195000Y-86360000D03*
X175195000Y-87630000D03*
D37*
X153440000Y-68820000D03*
D38*
X153440000Y-71360000D03*
X153440000Y-73900000D03*
D39*
X170245000Y-102870000D03*
X170245000Y-101600000D03*
X170245000Y-100330000D03*
X170245000Y-99060000D03*
X175195000Y-99060000D03*
X175195000Y-100330000D03*
X175195000Y-101600000D03*
X175195000Y-102870000D03*
D40*
X170180000Y-64090000D03*
D43*
X147670000Y-79910000D03*
X147670000Y-76810000D03*
D42*
X145236000Y-106172000D03*
X148336000Y-106172000D03*
D40*
X145415000Y-63000000D03*
X170180000Y-94090000D03*
D37*
X153440000Y-83820000D03*
D38*
X153440000Y-86360000D03*
X153440000Y-88900000D03*
D13*
X177165000Y-69442500D03*
X177165000Y-67717500D03*
D43*
X147670000Y-94410000D03*
X147670000Y-91310000D03*
M02*
