%TF.GenerationSoftware,KiCad,Pcbnew,(6.0.7)*%
%TF.CreationDate,2022-11-22T17:56:18+11:00*%
%TF.ProjectId,epic esc with regen,65706963-2065-4736-9320-776974682072,rev?*%
%TF.SameCoordinates,Original*%
%TF.FileFunction,Drillmap*%
%TF.FilePolarity,Positive*%
%FSLAX45Y45*%
G04 Gerber Fmt 4.5, Leading zero omitted, Abs format (unit mm)*
G04 Created by KiCad (PCBNEW (6.0.7)) date 2022-11-22 17:56:18*
%MOMM*%
%LPD*%
G01*
G04 APERTURE LIST*
%ADD10C,0.100000*%
%ADD11C,0.200000*%
%ADD12C,0.320000*%
G04 APERTURE END LIST*
D10*
X8500000Y-11000000D02*
X18000000Y-11000000D01*
X8500000Y-6000000D02*
X8500000Y-11000000D01*
X18000000Y-6000000D02*
X8500000Y-6000000D01*
X18000000Y-11000000D02*
X18000000Y-6000000D01*
D11*
D12*
X8679200Y-6190000D02*
X8999200Y-6510000D01*
X8999200Y-6190000D02*
X8679200Y-6510000D01*
X8690000Y-10490000D02*
X9010000Y-10810000D01*
X9010000Y-10490000D02*
X8690000Y-10810000D01*
X17490000Y-6190000D02*
X17810000Y-6510000D01*
X17810000Y-6190000D02*
X17490000Y-6510000D01*
X17490000Y-10490000D02*
X17810000Y-10810000D01*
X17810000Y-10490000D02*
X17490000Y-10810000D01*
D11*
X8752619Y-11315476D02*
X8752619Y-11115476D01*
X8800238Y-11115476D01*
X8828810Y-11125000D01*
X8847857Y-11144048D01*
X8857381Y-11163095D01*
X8866905Y-11201190D01*
X8866905Y-11229762D01*
X8857381Y-11267857D01*
X8847857Y-11286905D01*
X8828810Y-11305952D01*
X8800238Y-11315476D01*
X8752619Y-11315476D01*
X8952619Y-11315476D02*
X8952619Y-11182143D01*
X8952619Y-11220238D02*
X8962143Y-11201190D01*
X8971667Y-11191667D01*
X8990714Y-11182143D01*
X9009762Y-11182143D01*
X9076429Y-11315476D02*
X9076429Y-11182143D01*
X9076429Y-11115476D02*
X9066905Y-11125000D01*
X9076429Y-11134524D01*
X9085952Y-11125000D01*
X9076429Y-11115476D01*
X9076429Y-11134524D01*
X9200238Y-11315476D02*
X9181190Y-11305952D01*
X9171667Y-11286905D01*
X9171667Y-11115476D01*
X9305000Y-11315476D02*
X9285952Y-11305952D01*
X9276429Y-11286905D01*
X9276429Y-11115476D01*
X9533571Y-11315476D02*
X9533571Y-11115476D01*
X9600238Y-11258333D01*
X9666905Y-11115476D01*
X9666905Y-11315476D01*
X9847857Y-11315476D02*
X9847857Y-11210714D01*
X9838333Y-11191667D01*
X9819286Y-11182143D01*
X9781190Y-11182143D01*
X9762143Y-11191667D01*
X9847857Y-11305952D02*
X9828810Y-11315476D01*
X9781190Y-11315476D01*
X9762143Y-11305952D01*
X9752619Y-11286905D01*
X9752619Y-11267857D01*
X9762143Y-11248809D01*
X9781190Y-11239286D01*
X9828810Y-11239286D01*
X9847857Y-11229762D01*
X9943095Y-11182143D02*
X9943095Y-11382143D01*
X9943095Y-11191667D02*
X9962143Y-11182143D01*
X10000238Y-11182143D01*
X10019286Y-11191667D01*
X10028810Y-11201190D01*
X10038333Y-11220238D01*
X10038333Y-11277381D01*
X10028810Y-11296428D01*
X10019286Y-11305952D01*
X10000238Y-11315476D01*
X9962143Y-11315476D01*
X9943095Y-11305952D01*
X10124048Y-11296428D02*
X10133571Y-11305952D01*
X10124048Y-11315476D01*
X10114524Y-11305952D01*
X10124048Y-11296428D01*
X10124048Y-11315476D01*
X10124048Y-11191667D02*
X10133571Y-11201190D01*
X10124048Y-11210714D01*
X10114524Y-11201190D01*
X10124048Y-11191667D01*
X10124048Y-11210714D01*
X8295000Y-11545000D02*
X8495000Y-11745000D01*
X8495000Y-11545000D02*
X8295000Y-11745000D01*
X8733571Y-11535476D02*
X8857381Y-11535476D01*
X8790714Y-11611667D01*
X8819286Y-11611667D01*
X8838333Y-11621190D01*
X8847857Y-11630714D01*
X8857381Y-11649762D01*
X8857381Y-11697381D01*
X8847857Y-11716428D01*
X8838333Y-11725952D01*
X8819286Y-11735476D01*
X8762143Y-11735476D01*
X8743095Y-11725952D01*
X8733571Y-11716428D01*
X8943095Y-11716428D02*
X8952619Y-11725952D01*
X8943095Y-11735476D01*
X8933571Y-11725952D01*
X8943095Y-11716428D01*
X8943095Y-11735476D01*
X9028810Y-11554524D02*
X9038333Y-11545000D01*
X9057381Y-11535476D01*
X9105000Y-11535476D01*
X9124048Y-11545000D01*
X9133571Y-11554524D01*
X9143095Y-11573571D01*
X9143095Y-11592619D01*
X9133571Y-11621190D01*
X9019286Y-11735476D01*
X9143095Y-11735476D01*
X9266905Y-11535476D02*
X9285952Y-11535476D01*
X9305000Y-11545000D01*
X9314524Y-11554524D01*
X9324048Y-11573571D01*
X9333571Y-11611667D01*
X9333571Y-11659286D01*
X9324048Y-11697381D01*
X9314524Y-11716428D01*
X9305000Y-11725952D01*
X9285952Y-11735476D01*
X9266905Y-11735476D01*
X9247857Y-11725952D01*
X9238333Y-11716428D01*
X9228810Y-11697381D01*
X9219286Y-11659286D01*
X9219286Y-11611667D01*
X9228810Y-11573571D01*
X9238333Y-11554524D01*
X9247857Y-11545000D01*
X9266905Y-11535476D01*
X9457381Y-11535476D02*
X9476429Y-11535476D01*
X9495476Y-11545000D01*
X9505000Y-11554524D01*
X9514524Y-11573571D01*
X9524048Y-11611667D01*
X9524048Y-11659286D01*
X9514524Y-11697381D01*
X9505000Y-11716428D01*
X9495476Y-11725952D01*
X9476429Y-11735476D01*
X9457381Y-11735476D01*
X9438333Y-11725952D01*
X9428810Y-11716428D01*
X9419286Y-11697381D01*
X9409762Y-11659286D01*
X9409762Y-11611667D01*
X9419286Y-11573571D01*
X9428810Y-11554524D01*
X9438333Y-11545000D01*
X9457381Y-11535476D01*
X9609762Y-11735476D02*
X9609762Y-11602143D01*
X9609762Y-11621190D02*
X9619286Y-11611667D01*
X9638333Y-11602143D01*
X9666905Y-11602143D01*
X9685952Y-11611667D01*
X9695476Y-11630714D01*
X9695476Y-11735476D01*
X9695476Y-11630714D02*
X9705000Y-11611667D01*
X9724048Y-11602143D01*
X9752619Y-11602143D01*
X9771667Y-11611667D01*
X9781190Y-11630714D01*
X9781190Y-11735476D01*
X9876429Y-11735476D02*
X9876429Y-11602143D01*
X9876429Y-11621190D02*
X9885952Y-11611667D01*
X9905000Y-11602143D01*
X9933571Y-11602143D01*
X9952619Y-11611667D01*
X9962143Y-11630714D01*
X9962143Y-11735476D01*
X9962143Y-11630714D02*
X9971667Y-11611667D01*
X9990714Y-11602143D01*
X10019286Y-11602143D01*
X10038333Y-11611667D01*
X10047857Y-11630714D01*
X10047857Y-11735476D01*
X10438333Y-11525952D02*
X10266905Y-11783095D01*
X10695476Y-11535476D02*
X10714524Y-11535476D01*
X10733571Y-11545000D01*
X10743095Y-11554524D01*
X10752619Y-11573571D01*
X10762143Y-11611667D01*
X10762143Y-11659286D01*
X10752619Y-11697381D01*
X10743095Y-11716428D01*
X10733571Y-11725952D01*
X10714524Y-11735476D01*
X10695476Y-11735476D01*
X10676429Y-11725952D01*
X10666905Y-11716428D01*
X10657381Y-11697381D01*
X10647857Y-11659286D01*
X10647857Y-11611667D01*
X10657381Y-11573571D01*
X10666905Y-11554524D01*
X10676429Y-11545000D01*
X10695476Y-11535476D01*
X10847857Y-11716428D02*
X10857381Y-11725952D01*
X10847857Y-11735476D01*
X10838333Y-11725952D01*
X10847857Y-11716428D01*
X10847857Y-11735476D01*
X11047857Y-11735476D02*
X10933571Y-11735476D01*
X10990714Y-11735476D02*
X10990714Y-11535476D01*
X10971667Y-11564048D01*
X10952619Y-11583095D01*
X10933571Y-11592619D01*
X11124048Y-11554524D02*
X11133571Y-11545000D01*
X11152619Y-11535476D01*
X11200238Y-11535476D01*
X11219286Y-11545000D01*
X11228809Y-11554524D01*
X11238333Y-11573571D01*
X11238333Y-11592619D01*
X11228809Y-11621190D01*
X11114524Y-11735476D01*
X11238333Y-11735476D01*
X11409762Y-11535476D02*
X11371667Y-11535476D01*
X11352619Y-11545000D01*
X11343095Y-11554524D01*
X11324048Y-11583095D01*
X11314524Y-11621190D01*
X11314524Y-11697381D01*
X11324048Y-11716428D01*
X11333571Y-11725952D01*
X11352619Y-11735476D01*
X11390714Y-11735476D01*
X11409762Y-11725952D01*
X11419286Y-11716428D01*
X11428809Y-11697381D01*
X11428809Y-11649762D01*
X11419286Y-11630714D01*
X11409762Y-11621190D01*
X11390714Y-11611667D01*
X11352619Y-11611667D01*
X11333571Y-11621190D01*
X11324048Y-11630714D01*
X11314524Y-11649762D01*
X11552619Y-11535476D02*
X11571667Y-11535476D01*
X11590714Y-11545000D01*
X11600238Y-11554524D01*
X11609762Y-11573571D01*
X11619286Y-11611667D01*
X11619286Y-11659286D01*
X11609762Y-11697381D01*
X11600238Y-11716428D01*
X11590714Y-11725952D01*
X11571667Y-11735476D01*
X11552619Y-11735476D01*
X11533571Y-11725952D01*
X11524048Y-11716428D01*
X11514524Y-11697381D01*
X11505000Y-11659286D01*
X11505000Y-11611667D01*
X11514524Y-11573571D01*
X11524048Y-11554524D01*
X11533571Y-11545000D01*
X11552619Y-11535476D01*
X11695476Y-11535476D02*
X11695476Y-11573571D01*
X11771667Y-11535476D02*
X11771667Y-11573571D01*
X12066905Y-11811667D02*
X12057381Y-11802143D01*
X12038333Y-11773571D01*
X12028809Y-11754524D01*
X12019286Y-11725952D01*
X12009762Y-11678333D01*
X12009762Y-11640238D01*
X12019286Y-11592619D01*
X12028809Y-11564048D01*
X12038333Y-11545000D01*
X12057381Y-11516428D01*
X12066905Y-11506905D01*
X12228809Y-11602143D02*
X12228809Y-11735476D01*
X12181190Y-11525952D02*
X12133571Y-11668809D01*
X12257381Y-11668809D01*
X12485952Y-11735476D02*
X12485952Y-11535476D01*
X12571667Y-11735476D02*
X12571667Y-11630714D01*
X12562143Y-11611667D01*
X12543095Y-11602143D01*
X12514524Y-11602143D01*
X12495476Y-11611667D01*
X12485952Y-11621190D01*
X12695476Y-11735476D02*
X12676428Y-11725952D01*
X12666905Y-11716428D01*
X12657381Y-11697381D01*
X12657381Y-11640238D01*
X12666905Y-11621190D01*
X12676428Y-11611667D01*
X12695476Y-11602143D01*
X12724048Y-11602143D01*
X12743095Y-11611667D01*
X12752619Y-11621190D01*
X12762143Y-11640238D01*
X12762143Y-11697381D01*
X12752619Y-11716428D01*
X12743095Y-11725952D01*
X12724048Y-11735476D01*
X12695476Y-11735476D01*
X12876428Y-11735476D02*
X12857381Y-11725952D01*
X12847857Y-11706905D01*
X12847857Y-11535476D01*
X13028809Y-11725952D02*
X13009762Y-11735476D01*
X12971667Y-11735476D01*
X12952619Y-11725952D01*
X12943095Y-11706905D01*
X12943095Y-11630714D01*
X12952619Y-11611667D01*
X12971667Y-11602143D01*
X13009762Y-11602143D01*
X13028809Y-11611667D01*
X13038333Y-11630714D01*
X13038333Y-11649762D01*
X12943095Y-11668809D01*
X13114524Y-11725952D02*
X13133571Y-11735476D01*
X13171667Y-11735476D01*
X13190714Y-11725952D01*
X13200238Y-11706905D01*
X13200238Y-11697381D01*
X13190714Y-11678333D01*
X13171667Y-11668809D01*
X13143095Y-11668809D01*
X13124048Y-11659286D01*
X13114524Y-11640238D01*
X13114524Y-11630714D01*
X13124048Y-11611667D01*
X13143095Y-11602143D01*
X13171667Y-11602143D01*
X13190714Y-11611667D01*
X13266905Y-11811667D02*
X13276428Y-11802143D01*
X13295476Y-11773571D01*
X13305000Y-11754524D01*
X13314524Y-11725952D01*
X13324048Y-11678333D01*
X13324048Y-11640238D01*
X13314524Y-11592619D01*
X13305000Y-11564048D01*
X13295476Y-11545000D01*
X13276428Y-11516428D01*
X13266905Y-11506905D01*
X13628809Y-11811667D02*
X13619286Y-11802143D01*
X13600238Y-11773571D01*
X13590714Y-11754524D01*
X13581190Y-11725952D01*
X13571667Y-11678333D01*
X13571667Y-11640238D01*
X13581190Y-11592619D01*
X13590714Y-11564048D01*
X13600238Y-11545000D01*
X13619286Y-11516428D01*
X13628809Y-11506905D01*
X13705000Y-11602143D02*
X13705000Y-11735476D01*
X13705000Y-11621190D02*
X13714524Y-11611667D01*
X13733571Y-11602143D01*
X13762143Y-11602143D01*
X13781190Y-11611667D01*
X13790714Y-11630714D01*
X13790714Y-11735476D01*
X13914524Y-11735476D02*
X13895476Y-11725952D01*
X13885952Y-11716428D01*
X13876428Y-11697381D01*
X13876428Y-11640238D01*
X13885952Y-11621190D01*
X13895476Y-11611667D01*
X13914524Y-11602143D01*
X13943095Y-11602143D01*
X13962143Y-11611667D01*
X13971667Y-11621190D01*
X13981190Y-11640238D01*
X13981190Y-11697381D01*
X13971667Y-11716428D01*
X13962143Y-11725952D01*
X13943095Y-11735476D01*
X13914524Y-11735476D01*
X14038333Y-11602143D02*
X14114524Y-11602143D01*
X14066905Y-11535476D02*
X14066905Y-11706905D01*
X14076428Y-11725952D01*
X14095476Y-11735476D01*
X14114524Y-11735476D01*
X14333571Y-11602143D02*
X14333571Y-11802143D01*
X14333571Y-11611667D02*
X14352619Y-11602143D01*
X14390714Y-11602143D01*
X14409762Y-11611667D01*
X14419286Y-11621190D01*
X14428809Y-11640238D01*
X14428809Y-11697381D01*
X14419286Y-11716428D01*
X14409762Y-11725952D01*
X14390714Y-11735476D01*
X14352619Y-11735476D01*
X14333571Y-11725952D01*
X14543095Y-11735476D02*
X14524048Y-11725952D01*
X14514524Y-11706905D01*
X14514524Y-11535476D01*
X14705000Y-11735476D02*
X14705000Y-11630714D01*
X14695476Y-11611667D01*
X14676428Y-11602143D01*
X14638333Y-11602143D01*
X14619286Y-11611667D01*
X14705000Y-11725952D02*
X14685952Y-11735476D01*
X14638333Y-11735476D01*
X14619286Y-11725952D01*
X14609762Y-11706905D01*
X14609762Y-11687857D01*
X14619286Y-11668809D01*
X14638333Y-11659286D01*
X14685952Y-11659286D01*
X14705000Y-11649762D01*
X14771667Y-11602143D02*
X14847857Y-11602143D01*
X14800238Y-11535476D02*
X14800238Y-11706905D01*
X14809762Y-11725952D01*
X14828809Y-11735476D01*
X14847857Y-11735476D01*
X14990714Y-11725952D02*
X14971667Y-11735476D01*
X14933571Y-11735476D01*
X14914524Y-11725952D01*
X14905000Y-11706905D01*
X14905000Y-11630714D01*
X14914524Y-11611667D01*
X14933571Y-11602143D01*
X14971667Y-11602143D01*
X14990714Y-11611667D01*
X15000238Y-11630714D01*
X15000238Y-11649762D01*
X14905000Y-11668809D01*
X15171667Y-11735476D02*
X15171667Y-11535476D01*
X15171667Y-11725952D02*
X15152619Y-11735476D01*
X15114524Y-11735476D01*
X15095476Y-11725952D01*
X15085952Y-11716428D01*
X15076428Y-11697381D01*
X15076428Y-11640238D01*
X15085952Y-11621190D01*
X15095476Y-11611667D01*
X15114524Y-11602143D01*
X15152619Y-11602143D01*
X15171667Y-11611667D01*
X15247857Y-11811667D02*
X15257381Y-11802143D01*
X15276428Y-11773571D01*
X15285952Y-11754524D01*
X15295476Y-11725952D01*
X15305000Y-11678333D01*
X15305000Y-11640238D01*
X15295476Y-11592619D01*
X15285952Y-11564048D01*
X15276428Y-11545000D01*
X15257381Y-11516428D01*
X15247857Y-11506905D01*
M02*
