G04 #@! TF.GenerationSoftware,KiCad,Pcbnew,(6.0.7)*
G04 #@! TF.CreationDate,2022-11-24T14:56:22+11:00*
G04 #@! TF.ProjectId,epic esc with regen,65706963-2065-4736-9320-776974682072,rev?*
G04 #@! TF.SameCoordinates,Original*
G04 #@! TF.FileFunction,Copper,L3,Inr*
G04 #@! TF.FilePolarity,Positive*
%FSLAX46Y46*%
G04 Gerber Fmt 4.6, Leading zero omitted, Abs format (unit mm)*
G04 Created by KiCad (PCBNEW (6.0.7)) date 2022-11-24 14:56:22*
%MOMM*%
%LPD*%
G01*
G04 APERTURE LIST*
G04 Aperture macros list*
%AMRoundRect*
0 Rectangle with rounded corners*
0 $1 Rounding radius*
0 $2 $3 $4 $5 $6 $7 $8 $9 X,Y pos of 4 corners*
0 Add a 4 corners polygon primitive as box body*
4,1,4,$2,$3,$4,$5,$6,$7,$8,$9,$2,$3,0*
0 Add four circle primitives for the rounded corners*
1,1,$1+$1,$2,$3*
1,1,$1+$1,$4,$5*
1,1,$1+$1,$6,$7*
1,1,$1+$1,$8,$9*
0 Add four rect primitives between the rounded corners*
20,1,$1+$1,$2,$3,$4,$5,0*
20,1,$1+$1,$4,$5,$6,$7,0*
20,1,$1+$1,$6,$7,$8,$9,0*
20,1,$1+$1,$8,$9,$2,$3,0*%
G04 Aperture macros list end*
G04 #@! TA.AperFunction,ComponentPad*
%ADD10C,1.600000*%
G04 #@! TD*
G04 #@! TA.AperFunction,ComponentPad*
%ADD11RoundRect,0.250000X-0.750000X0.600000X-0.750000X-0.600000X0.750000X-0.600000X0.750000X0.600000X0*%
G04 #@! TD*
G04 #@! TA.AperFunction,ComponentPad*
%ADD12O,2.000000X1.700000*%
G04 #@! TD*
G04 #@! TA.AperFunction,ComponentPad*
%ADD13R,1.318000X1.318000*%
G04 #@! TD*
G04 #@! TA.AperFunction,ComponentPad*
%ADD14C,1.318000*%
G04 #@! TD*
G04 #@! TA.AperFunction,ComponentPad*
%ADD15RoundRect,0.250000X-0.725000X0.600000X-0.725000X-0.600000X0.725000X-0.600000X0.725000X0.600000X0*%
G04 #@! TD*
G04 #@! TA.AperFunction,ComponentPad*
%ADD16O,1.950000X1.700000*%
G04 #@! TD*
G04 #@! TA.AperFunction,ComponentPad*
%ADD17C,1.879600*%
G04 #@! TD*
G04 #@! TA.AperFunction,ComponentPad*
%ADD18R,2.000000X2.000000*%
G04 #@! TD*
G04 #@! TA.AperFunction,ComponentPad*
%ADD19O,2.000000X2.000000*%
G04 #@! TD*
G04 #@! TA.AperFunction,ComponentPad*
%ADD20C,2.000000*%
G04 #@! TD*
G04 #@! TA.AperFunction,ComponentPad*
%ADD21C,1.400000*%
G04 #@! TD*
G04 #@! TA.AperFunction,ComponentPad*
%ADD22O,1.400000X1.400000*%
G04 #@! TD*
G04 #@! TA.AperFunction,ComponentPad*
%ADD23R,1.600000X1.600000*%
G04 #@! TD*
G04 #@! TA.AperFunction,ComponentPad*
%ADD24RoundRect,0.250000X0.600000X0.750000X-0.600000X0.750000X-0.600000X-0.750000X0.600000X-0.750000X0*%
G04 #@! TD*
G04 #@! TA.AperFunction,ComponentPad*
%ADD25O,1.700000X2.000000*%
G04 #@! TD*
G04 #@! TA.AperFunction,ComponentPad*
%ADD26RoundRect,0.250000X-0.600000X-0.725000X0.600000X-0.725000X0.600000X0.725000X-0.600000X0.725000X0*%
G04 #@! TD*
G04 #@! TA.AperFunction,ComponentPad*
%ADD27O,1.700000X1.950000*%
G04 #@! TD*
G04 #@! TA.AperFunction,ComponentPad*
%ADD28R,2.000000X1.905000*%
G04 #@! TD*
G04 #@! TA.AperFunction,ComponentPad*
%ADD29O,2.000000X1.905000*%
G04 #@! TD*
G04 #@! TA.AperFunction,ComponentPad*
%ADD30C,4.000000*%
G04 #@! TD*
G04 #@! TA.AperFunction,ViaPad*
%ADD31C,0.800000*%
G04 #@! TD*
G04 #@! TA.AperFunction,ViaPad*
%ADD32C,1.000000*%
G04 #@! TD*
G04 #@! TA.AperFunction,Conductor*
%ADD33C,0.381000*%
G04 #@! TD*
G04 #@! TA.AperFunction,Conductor*
%ADD34C,0.254000*%
G04 #@! TD*
G04 APERTURE END LIST*
D10*
X141224000Y-99842000D03*
X141224000Y-104842000D03*
D11*
X93645000Y-75585000D03*
D12*
X93645000Y-78085000D03*
D13*
X130190000Y-77190000D03*
D14*
X130190000Y-79730000D03*
X130190000Y-82270000D03*
X130190000Y-84810000D03*
X137810000Y-84810000D03*
X137810000Y-82270000D03*
X137810000Y-79730000D03*
X137810000Y-77190000D03*
D15*
X94000000Y-101346000D03*
D16*
X94000000Y-103846000D03*
X94000000Y-106346000D03*
D15*
X93980000Y-85090000D03*
D16*
X93980000Y-87590000D03*
X93980000Y-90090000D03*
X93980000Y-92590000D03*
X93980000Y-95090000D03*
D17*
X113604000Y-107494000D03*
X111064000Y-107494000D03*
X108524000Y-107494000D03*
X105730000Y-107494000D03*
X103190000Y-107494000D03*
X100396000Y-107494000D03*
X102174000Y-93524000D03*
X102174000Y-96064000D03*
X104460000Y-76506000D03*
X101920000Y-76506000D03*
X99126000Y-104954000D03*
X99126000Y-102414000D03*
X99126000Y-99874000D03*
X99126000Y-97080000D03*
X99126000Y-94540000D03*
X99126000Y-92000000D03*
X99126000Y-89460000D03*
X99126000Y-86920000D03*
X99126000Y-84126000D03*
X99126000Y-81586000D03*
X99126000Y-79046000D03*
X99126000Y-76506000D03*
X114874000Y-76506000D03*
X114874000Y-79046000D03*
X114874000Y-81586000D03*
X114874000Y-84126000D03*
X114874000Y-86920000D03*
X114874000Y-89460000D03*
X114874000Y-92000000D03*
X114874000Y-94540000D03*
X114874000Y-97334000D03*
X114874000Y-99874000D03*
X114874000Y-102414000D03*
X114874000Y-104954000D03*
X107000000Y-76506000D03*
D10*
X141224000Y-76842000D03*
X141224000Y-81842000D03*
D18*
X141485000Y-70242500D03*
D19*
X126485000Y-70242500D03*
D13*
X130190000Y-88190000D03*
D14*
X130190000Y-90730000D03*
X130190000Y-93270000D03*
X130190000Y-95810000D03*
X137810000Y-95810000D03*
X137810000Y-93270000D03*
X137810000Y-90730000D03*
X137810000Y-88190000D03*
D20*
X111125000Y-94615000D03*
D21*
X175260000Y-91805000D03*
D22*
X175260000Y-93705000D03*
D23*
X95250000Y-70982651D03*
D10*
X95250000Y-65982651D03*
X141224000Y-88842000D03*
X141224000Y-93842000D03*
D24*
X103505000Y-63500000D03*
D25*
X101005000Y-63500000D03*
D13*
X130190000Y-99190000D03*
D14*
X130190000Y-101730000D03*
X130190000Y-104270000D03*
X130190000Y-106810000D03*
X137810000Y-106810000D03*
X137810000Y-104270000D03*
X137810000Y-101730000D03*
X137810000Y-99190000D03*
D26*
X129540000Y-63500000D03*
D27*
X132040000Y-63500000D03*
X134540000Y-63500000D03*
X137040000Y-63500000D03*
X139540000Y-63500000D03*
D28*
X147900000Y-73900000D03*
D29*
X147900000Y-71360000D03*
X147900000Y-68820000D03*
D28*
X147900000Y-103900000D03*
D29*
X147900000Y-101360000D03*
X147900000Y-98820000D03*
D30*
X156845000Y-62865000D03*
D28*
X153440000Y-98820000D03*
D29*
X153440000Y-101360000D03*
X153440000Y-103900000D03*
D28*
X147900000Y-88900000D03*
D29*
X147900000Y-86360000D03*
X147900000Y-83820000D03*
D30*
X170180000Y-79090000D03*
D28*
X153440000Y-68820000D03*
D29*
X153440000Y-71360000D03*
X153440000Y-73900000D03*
D30*
X170180000Y-64090000D03*
X145415000Y-63000000D03*
X170180000Y-94090000D03*
D28*
X153440000Y-83820000D03*
D29*
X153440000Y-86360000D03*
X153440000Y-88900000D03*
D31*
X143510000Y-104775000D03*
X125476000Y-86868000D03*
X117602000Y-96012000D03*
X124460000Y-107696000D03*
X176438500Y-77724000D03*
X119380000Y-71755000D03*
X124460000Y-73505000D03*
X117602000Y-100838000D03*
X177165000Y-66040000D03*
D32*
X157226000Y-84201000D03*
X156210000Y-97790000D03*
D31*
X117602000Y-83820000D03*
X177800000Y-96520000D03*
D32*
X157226000Y-82804000D03*
D31*
X117602000Y-91694000D03*
D32*
X157099000Y-81534000D03*
X156210000Y-96393000D03*
X157226000Y-85725000D03*
X156210000Y-99441000D03*
D31*
X175895000Y-81915000D03*
X103505000Y-72390000D03*
X96774000Y-99314000D03*
X177165000Y-88265000D03*
D32*
X172212000Y-103124000D03*
D31*
X111252000Y-81534000D03*
X126392500Y-99060000D03*
X126392500Y-95504000D03*
X122936000Y-99314000D03*
X111252000Y-79502000D03*
X123952000Y-90932000D03*
X111252626Y-73237250D03*
X121406286Y-94493714D03*
X120165464Y-104381964D03*
X121412000Y-90932000D03*
X121412000Y-99568000D03*
X122555000Y-81915000D03*
X126292500Y-102841500D03*
X124460000Y-81915000D03*
X149860000Y-80010000D03*
X150495000Y-67945000D03*
X142875000Y-93345000D03*
X147320000Y-95504000D03*
X125337572Y-90805000D03*
X126365000Y-82550000D03*
X120142000Y-94488000D03*
X123281500Y-85633500D03*
X119404112Y-87584365D03*
X117601500Y-90694498D03*
X124460000Y-102778500D03*
X119509500Y-99060000D03*
X126365000Y-104140000D03*
X117601500Y-88265000D03*
X155494681Y-80170637D03*
X93345000Y-81915000D03*
X96476385Y-102913615D03*
D32*
X166116000Y-75184000D03*
X168402000Y-71628000D03*
X166878000Y-74422000D03*
X167640000Y-73660000D03*
X163068000Y-79502000D03*
X168402000Y-72644000D03*
D31*
X151130000Y-78105000D03*
D32*
X164084000Y-79502000D03*
X166116000Y-79502000D03*
X167132000Y-79502000D03*
X165100000Y-79502000D03*
X165862000Y-93726000D03*
X168402000Y-87376000D03*
X166878000Y-93726000D03*
X167894000Y-88392000D03*
X167132000Y-89154000D03*
D31*
X149860000Y-92710000D03*
D32*
X163830000Y-93726000D03*
X168402000Y-86106000D03*
X166370000Y-89916000D03*
X164846000Y-93726000D03*
X162814000Y-93726000D03*
X168910000Y-104648000D03*
X168148000Y-105410000D03*
X162560000Y-107188000D03*
X167386000Y-106172000D03*
X163576000Y-107188000D03*
D31*
X142240000Y-106680000D03*
D32*
X164592000Y-107188000D03*
X166624000Y-106934000D03*
X161544000Y-107188000D03*
X165608000Y-107188000D03*
X168910000Y-103505000D03*
D31*
X95885000Y-85090000D03*
X96480000Y-87590000D03*
X96520000Y-90170000D03*
X158115000Y-94615000D03*
X177165000Y-71120000D03*
X94615000Y-83185000D03*
X97063500Y-92075000D03*
X177165000Y-86360000D03*
X97063500Y-93345000D03*
X177165000Y-101600000D03*
D33*
X119380000Y-71755000D02*
X120650000Y-71755000D01*
X121440500Y-72545500D02*
X132235500Y-72545500D01*
X120650000Y-71755000D02*
X121440500Y-72545500D01*
X132235500Y-72545500D02*
X135890000Y-76200000D01*
X135890000Y-76200000D02*
X135890000Y-86270000D01*
X135890000Y-86270000D02*
X137810000Y-88190000D01*
X135255000Y-80156000D02*
X135255000Y-97790000D01*
X124460000Y-73505000D02*
X128604000Y-73505000D01*
X128604000Y-73505000D02*
X135255000Y-80156000D01*
X136655000Y-99190000D02*
X137810000Y-99190000D01*
X135255000Y-97790000D02*
X136655000Y-99190000D01*
X129140500Y-87140500D02*
X129140500Y-78239500D01*
X129140500Y-78239500D02*
X124746564Y-78239500D01*
X107950000Y-71755000D02*
X118262064Y-71755000D01*
X130190000Y-99190000D02*
X129140500Y-98140500D01*
X129140500Y-98140500D02*
X129140500Y-89239500D01*
X104140000Y-73025000D02*
X103505000Y-72390000D01*
X124746564Y-78239500D02*
X118262064Y-71755000D01*
X129140500Y-89239500D02*
X130190000Y-88190000D01*
X129140500Y-78239500D02*
X130190000Y-77190000D01*
X106680000Y-73025000D02*
X104140000Y-73025000D01*
X130190000Y-88190000D02*
X129140500Y-87140500D01*
X107950000Y-71755000D02*
X106680000Y-73025000D01*
D34*
X126392500Y-95504000D02*
X126492000Y-95603500D01*
X116586000Y-74676000D02*
X120196000Y-78286000D01*
X126492000Y-99060000D02*
X126392500Y-99060000D01*
X113030000Y-74676000D02*
X116586000Y-74676000D01*
X126492000Y-95603500D02*
X126492000Y-99060000D01*
X123444000Y-95504000D02*
X126392500Y-95504000D01*
X112776000Y-74930000D02*
X113030000Y-74676000D01*
X112776000Y-80010000D02*
X112776000Y-74930000D01*
X120196000Y-78286000D02*
X120196000Y-92256000D01*
X111252000Y-81534000D02*
X112776000Y-80010000D01*
X120196000Y-92256000D02*
X123444000Y-95504000D01*
X127254000Y-94488000D02*
X127254000Y-99568000D01*
X111979000Y-73695000D02*
X112014000Y-73660000D01*
X122682000Y-99314000D02*
X122936000Y-99314000D01*
X120650000Y-76962000D02*
X120650000Y-91948000D01*
X123952000Y-94234000D02*
X124206000Y-94488000D01*
X121666000Y-92202000D02*
X122936000Y-90932000D01*
X124206000Y-94488000D02*
X127254000Y-94488000D01*
X111252000Y-79502000D02*
X111979000Y-78775000D01*
X123444000Y-100076000D02*
X126746000Y-100076000D01*
X123444000Y-100076000D02*
X122682000Y-99314000D01*
X111979000Y-78775000D02*
X111979000Y-73695000D01*
X123952000Y-90932000D02*
X123952000Y-94234000D01*
X117348000Y-73660000D02*
X120650000Y-76962000D01*
X120904000Y-92202000D02*
X121666000Y-92202000D01*
X122936000Y-90932000D02*
X123952000Y-90932000D01*
X127254000Y-99568000D02*
X126746000Y-100076000D01*
X120650000Y-91948000D02*
X120904000Y-92202000D01*
X112014000Y-73660000D02*
X117348000Y-73660000D01*
X120015000Y-104140000D02*
X120015000Y-104231500D01*
X111252000Y-73236624D02*
X111252000Y-73152000D01*
X110998000Y-72898000D02*
X117856000Y-72898000D01*
X118783000Y-102908000D02*
X120015000Y-104140000D01*
X111252626Y-73237250D02*
X111252000Y-73236624D01*
X121666000Y-76708000D02*
X121666000Y-90678000D01*
X120015000Y-104231500D02*
X120165464Y-104381964D01*
X121666000Y-90678000D02*
X121412000Y-90932000D01*
X118783000Y-97117000D02*
X118783000Y-102908000D01*
X117856000Y-72898000D02*
X121666000Y-76708000D01*
X121406286Y-94493714D02*
X118783000Y-97117000D01*
X111252000Y-73152000D02*
X110998000Y-72898000D01*
X127708000Y-92148000D02*
X127708000Y-100892000D01*
X122555000Y-86995000D02*
X127708000Y-92148000D01*
X122555000Y-81915000D02*
X122555000Y-86995000D01*
X127508000Y-101092000D02*
X122936000Y-101092000D01*
X122936000Y-101092000D02*
X121412000Y-99568000D01*
X127708000Y-100892000D02*
X127508000Y-101092000D01*
X126626052Y-102616000D02*
X126518000Y-102616000D01*
X124460000Y-88257948D02*
X128270000Y-92067948D01*
X126518000Y-102616000D02*
X126292500Y-102841500D01*
X128270000Y-92067948D02*
X128270000Y-100972052D01*
X124460000Y-81915000D02*
X124460000Y-88257948D01*
X128270000Y-100972052D02*
X126626052Y-102616000D01*
X149225000Y-80645000D02*
X149860000Y-80010000D01*
X141960000Y-79730000D02*
X142875000Y-80645000D01*
X142875000Y-80645000D02*
X149225000Y-80645000D01*
X137810000Y-79730000D02*
X141960000Y-79730000D01*
X151857000Y-77562000D02*
X151857000Y-79683186D01*
X143155000Y-84810000D02*
X137810000Y-84810000D01*
X149860000Y-75565000D02*
X151857000Y-77562000D01*
X149625186Y-81915000D02*
X146050000Y-81915000D01*
X150495000Y-67945000D02*
X149860000Y-68580000D01*
X146050000Y-81915000D02*
X143155000Y-84810000D01*
X151857000Y-79683186D02*
X149625186Y-81915000D01*
X149860000Y-68580000D02*
X149860000Y-75565000D01*
X144780000Y-93345000D02*
X142875000Y-93345000D01*
X146939000Y-95504000D02*
X144780000Y-93345000D01*
X147320000Y-95504000D02*
X146939000Y-95504000D01*
X126365000Y-104140000D02*
X128270000Y-102235000D01*
X129685000Y-102235000D02*
X130190000Y-101730000D01*
X128270000Y-102235000D02*
X129685000Y-102235000D01*
X118329000Y-108169000D02*
X118745000Y-108585000D01*
X125875000Y-108585000D02*
X130190000Y-104270000D01*
X118329000Y-88992500D02*
X118329000Y-108169000D01*
X117601500Y-88265000D02*
X118329000Y-88992500D01*
X118745000Y-108585000D02*
X125875000Y-108585000D01*
X137810000Y-95810000D02*
X138468999Y-96468999D01*
X148006001Y-96468999D02*
X155494681Y-88980319D01*
X138468999Y-96468999D02*
X148006001Y-96468999D01*
X155494681Y-88980319D02*
X155494681Y-80170637D01*
X96476385Y-102913615D02*
X96047000Y-102484230D01*
X96047000Y-100492000D02*
X95250000Y-99695000D01*
X96047000Y-102484230D02*
X96047000Y-100492000D01*
X95250000Y-98425000D02*
X95250000Y-99695000D01*
X96520000Y-97155000D02*
X96520000Y-95250000D01*
X97790000Y-88256000D02*
X99126000Y-86920000D01*
X96520000Y-95250000D02*
X97790000Y-93980000D01*
X96520000Y-97155000D02*
X95250000Y-98425000D01*
X97790000Y-93980000D02*
X97790000Y-88256000D01*
X143383000Y-83312000D02*
X145415000Y-81280000D01*
X137810000Y-82270000D02*
X138852000Y-83312000D01*
X149618134Y-81280000D02*
X151130000Y-79768134D01*
X138852000Y-83312000D02*
X143383000Y-83312000D01*
X145415000Y-81280000D02*
X149618134Y-81280000D01*
X151130000Y-79768134D02*
X151130000Y-78105000D01*
X143296000Y-92456000D02*
X142610000Y-92456000D01*
X143550000Y-92710000D02*
X143296000Y-92456000D01*
X149860000Y-92710000D02*
X143550000Y-92710000D01*
X138382000Y-93842000D02*
X137810000Y-93270000D01*
X142610000Y-92456000D02*
X141224000Y-93842000D01*
X141224000Y-93842000D02*
X138382000Y-93842000D01*
X95885000Y-76200000D02*
X93980000Y-76200000D01*
X110490000Y-73660000D02*
X110490000Y-88383000D01*
X98425000Y-73660000D02*
X110490000Y-73660000D01*
X109973000Y-88383000D02*
X109855000Y-88265000D01*
X110490000Y-88383000D02*
X109973000Y-88383000D01*
X102174000Y-96064000D02*
X109855000Y-88383000D01*
X98425000Y-73660000D02*
X95885000Y-76200000D01*
X98432052Y-74295000D02*
X94027052Y-78700000D01*
X109220000Y-86478000D02*
X109737000Y-86478000D01*
X109737000Y-86478000D02*
X109855000Y-86360000D01*
X109855000Y-86478000D02*
X109855000Y-74295000D01*
X94027052Y-78700000D02*
X93980000Y-78700000D01*
X109855000Y-74295000D02*
X98432052Y-74295000D01*
X109220000Y-86478000D02*
X102174000Y-93524000D01*
X147668421Y-65405000D02*
X140970000Y-65405000D01*
X140970000Y-65405000D02*
X139540000Y-63975000D01*
X179070000Y-100723134D02*
X179070000Y-69215000D01*
X174533000Y-100238000D02*
X176622000Y-102327000D01*
X177466134Y-102327000D02*
X179070000Y-100723134D01*
X175260000Y-93705000D02*
X174533000Y-94432000D01*
X157626000Y-66548000D02*
X156391000Y-65313000D01*
X156391000Y-65313000D02*
X147760421Y-65313000D01*
X176622000Y-102327000D02*
X177466134Y-102327000D01*
X147760421Y-65313000D02*
X147668421Y-65405000D01*
X139540000Y-63975000D02*
X139540000Y-63500000D01*
X174533000Y-94432000D02*
X174533000Y-100238000D01*
X176403000Y-66548000D02*
X157626000Y-66548000D01*
X179070000Y-69215000D02*
X176403000Y-66548000D01*
X158115000Y-106045000D02*
X158115000Y-94615000D01*
X138468999Y-107468999D02*
X156691001Y-107468999D01*
X156691001Y-107468999D02*
X158115000Y-106045000D01*
X137810000Y-106810000D02*
X138468999Y-107468999D01*
X148590000Y-66675000D02*
X147955000Y-67310000D01*
X177165000Y-71120000D02*
X176149000Y-70104000D01*
X155436447Y-66675000D02*
X148590000Y-66675000D01*
X135850000Y-67310000D02*
X132040000Y-63500000D01*
X147955000Y-67310000D02*
X135850000Y-67310000D01*
X176149000Y-70104000D02*
X158865447Y-70104000D01*
X158865447Y-70104000D02*
X155436447Y-66675000D01*
X148401948Y-66221000D02*
X147947948Y-66675000D01*
X147947948Y-66675000D02*
X137715000Y-66675000D01*
X155624499Y-66221000D02*
X148401948Y-66221000D01*
X175887948Y-68580000D02*
X157983499Y-68580000D01*
X137715000Y-66675000D02*
X134540000Y-63500000D01*
X177892000Y-71421134D02*
X177892000Y-70584052D01*
X177892000Y-70584052D02*
X175887948Y-68580000D01*
X177165000Y-71847000D02*
X177466134Y-71847000D01*
X157983499Y-68580000D02*
X155624499Y-66221000D01*
X177466134Y-71847000D02*
X177892000Y-71421134D01*
X177165000Y-86360000D02*
X177165000Y-71847000D01*
X178527000Y-100238000D02*
X178527000Y-86693866D01*
X176203000Y-67491000D02*
X157661000Y-67491000D01*
X177165000Y-101600000D02*
X178527000Y-100238000D01*
X147940896Y-66040000D02*
X139580000Y-66040000D01*
X157661000Y-67491000D02*
X155937000Y-65767000D01*
X178346000Y-69634000D02*
X176203000Y-67491000D01*
X155937000Y-65767000D02*
X148213896Y-65767000D01*
X178527000Y-86693866D02*
X178346000Y-86512866D01*
X178346000Y-86512866D02*
X178346000Y-69634000D01*
X148213896Y-65767000D02*
X147940896Y-66040000D01*
X139580000Y-66040000D02*
X137040000Y-63500000D01*
M02*
