M48
; DRILL file {KiCad (6.0.7)} date Tue Nov 22 17:56:02 2022
; FORMAT={-:-/ absolute / metric / decimal}
; #@! TF.CreationDate,2022-11-22T17:56:02+11:00
; #@! TF.GenerationSoftware,Kicad,Pcbnew,(6.0.7)
; #@! TF.FileFunction,Plated,1,4,PTH
FMAT,2
METRIC
; #@! TA.AperFunction,Plated,PTH,ViaDrill
T1C0.400
; #@! TA.AperFunction,Plated,PTH,ViaDrill
T2C0.600
; #@! TA.AperFunction,Plated,PTH,ComponentDrill
T3C0.700
; #@! TA.AperFunction,Plated,PTH,ComponentDrill
T4C0.800
; #@! TA.AperFunction,Plated,PTH,ComponentDrill
T5C0.810
; #@! TA.AperFunction,Plated,PTH,ComponentDrill
T6C0.950
; #@! TA.AperFunction,Plated,PTH,ComponentDrill
T7C1.000
; #@! TA.AperFunction,Plated,PTH,ComponentDrill
T8C1.024
; #@! TA.AperFunction,Plated,PTH,ComponentDrill
T9C1.100
; #@! TA.AperFunction,Plated,PTH,ComponentDrill
T10C2.500
%
G90
G05
T1
X93.345Y-81.915
X94.615Y-83.185
X95.885Y-85.09
X96.476Y-102.914
X96.48Y-87.59
X96.52Y-90.17
X96.774Y-99.314
X97.063Y-92.075
X97.063Y-93.345
X103.505Y-72.39
X111.252Y-79.502
X111.252Y-81.534
X111.253Y-73.237
X117.602Y-88.265
X117.602Y-90.694
X117.602Y-83.82
X117.602Y-91.694
X117.602Y-100.838
X119.38Y-71.755
X119.404Y-87.584
X119.509Y-99.06
X120.142Y-94.488
X120.165Y-104.382
X121.406Y-94.494
X121.412Y-90.932
X121.412Y-99.568
X122.555Y-81.915
X122.936Y-99.314
X123.281Y-85.633
X123.952Y-90.932
X124.46Y-73.505
X124.46Y-81.915
X124.46Y-102.778
X125.338Y-90.805
X126.292Y-102.841
X126.365Y-82.55
X126.365Y-104.14
X126.392Y-95.504
X126.392Y-99.06
X142.24Y-106.68
X142.875Y-93.345
X143.51Y-104.775
X147.32Y-95.504
X149.86Y-80.01
X149.86Y-92.71
X150.495Y-67.945
X151.13Y-78.105
X155.495Y-80.171
X158.115Y-94.615
X175.895Y-81.915
X177.165Y-66.04
X177.165Y-71.12
X177.165Y-86.36
X177.165Y-88.265
X177.165Y-101.6
X177.8Y-96.52
T2
X156.21Y-96.393
X156.21Y-97.79
X156.21Y-99.441
X157.099Y-81.534
X157.226Y-82.804
X157.226Y-84.201
X157.226Y-85.725
X161.544Y-107.188
X162.56Y-107.188
X162.814Y-93.726
X163.068Y-79.502
X163.576Y-107.188
X163.83Y-93.726
X164.084Y-79.502
X164.592Y-107.188
X164.846Y-93.726
X165.1Y-79.502
X165.608Y-107.188
X165.862Y-93.726
X166.116Y-75.184
X166.116Y-79.502
X166.37Y-89.916
X166.624Y-106.934
X166.878Y-74.422
X166.878Y-93.726
X167.132Y-79.502
X167.132Y-89.154
X167.386Y-106.172
X167.64Y-73.66
X167.894Y-88.392
X168.148Y-105.41
X168.402Y-71.628
X168.402Y-72.644
X168.402Y-86.106
X168.402Y-87.376
X168.91Y-103.505
X168.91Y-104.648
X173.99Y-104.775
T3
X175.26Y-91.805
X175.26Y-93.705
T4
X95.25Y-65.983
X95.25Y-70.983
X141.224Y-76.842
X141.224Y-81.842
X141.224Y-88.842
X141.224Y-93.842
X141.224Y-99.842
X141.224Y-104.842
T5
X130.19Y-77.19
X130.19Y-79.73
X130.19Y-82.27
X130.19Y-84.81
X130.19Y-88.19
X130.19Y-90.73
X130.19Y-93.27
X130.19Y-95.81
X130.19Y-99.19
X130.19Y-101.73
X130.19Y-104.27
X130.19Y-106.81
X137.81Y-77.19
X137.81Y-79.73
X137.81Y-82.27
X137.81Y-84.81
X137.81Y-88.19
X137.81Y-90.73
X137.81Y-93.27
X137.81Y-95.81
X137.81Y-99.19
X137.81Y-101.73
X137.81Y-104.27
X137.81Y-106.81
T6
X93.98Y-85.09
X93.98Y-87.59
X93.98Y-90.09
X93.98Y-92.59
X93.98Y-95.09
X94.0Y-101.346
X94.0Y-103.846
X94.0Y-106.346
X129.54Y-63.5
X132.04Y-63.5
X134.54Y-63.5
X137.04Y-63.5
X139.54Y-63.5
T7
X93.645Y-75.585
X93.645Y-78.085
X101.005Y-63.5
X103.505Y-63.5
X111.125Y-94.615
X126.485Y-70.242
X141.485Y-70.242
T8
X99.126Y-76.506
X99.126Y-79.046
X99.126Y-81.586
X99.126Y-84.126
X99.126Y-86.92
X99.126Y-89.46
X99.126Y-92.0
X99.126Y-94.54
X99.126Y-97.08
X99.126Y-99.874
X99.126Y-102.414
X99.126Y-104.954
X100.396Y-107.494
X101.92Y-76.506
X102.174Y-93.524
X102.174Y-96.064
X103.19Y-107.494
X104.46Y-76.506
X105.73Y-107.494
X107.0Y-76.506
X108.524Y-107.494
X111.064Y-107.494
X113.604Y-107.494
X114.874Y-76.506
X114.874Y-79.046
X114.874Y-81.586
X114.874Y-84.126
X114.874Y-86.92
X114.874Y-89.46
X114.874Y-92.0
X114.874Y-94.54
X114.874Y-97.334
X114.874Y-99.874
X114.874Y-102.414
X114.874Y-104.954
T9
X147.9Y-68.82
X147.9Y-71.36
X147.9Y-73.9
X147.9Y-83.82
X147.9Y-86.36
X147.9Y-88.9
X147.9Y-98.82
X147.9Y-101.36
X147.9Y-103.9
X153.44Y-68.82
X153.44Y-71.36
X153.44Y-73.9
X153.44Y-83.82
X153.44Y-86.36
X153.44Y-88.9
X153.44Y-98.82
X153.44Y-101.36
X153.44Y-103.9
T10
X145.415Y-63.0
X156.845Y-62.865
X170.18Y-64.09
X170.18Y-79.09
X170.18Y-94.09
T0
M30
